<svg width="46" height="46" fill="currentColor" viewBox="0 0 24 24" xmlns="http://www.w3.org/2000/svg">
  <path d="m5.134 14.056.07.064a6.378 6.378 0 0 1 1.443 1.814 81.301 81.301 0 0 0 1.752 3.17c.17.271.389.51.644.703a5.93 5.93 0 0 0 1.702.936 5.032 5.032 0 0 0 1.774.322 6.164 6.164 0 0 0 2.087-.39 4.498 4.498 0 0 0 1.353-.799c.726-.6 1.232-1.421 1.546-2.508.42-1.445.598-2.95.529-4.452a4.249 4.249 0 0 0-.28-1.25c-.234-.634-.8-.975-1.482-.89a2.385 2.385 0 0 0-.59.184 6.16 6.16 0 0 1-.243.095c-.33-.717-.963-1.031-1.882-.934v-.088c0-.076.001-.14-.001-.202-.013-.338-.025-.675-.036-1.013-.029-.828-.058-1.684-.107-2.525-.051-.862-.272-1.568-.676-2.157-.336-.49-.905-.628-1.383-.334a1.809 1.809 0 0 0-.584.585 3.9 3.9 0 0 0-.295.67c-.027.074-.053.148-.082.221a9.132 9.132 0 0 1-.054-.085 3.422 3.422 0 0 0-.24-.349c-.3-.365-.675-.449-1.117-.25-.394.178-.634.476-.693.862-.048.309-.07.626-.091.933-.01.14-.02.28-.032.418-.135 1.566-.072 3.155-.01 4.693l.011.292c.007.158.005.317.003.486l-.001.168-.027-.024a2.546 2.546 0 0 0-.157-.128c-.807-.583-1.668-.792-2.56-.62a1.19 1.19 0 0 0-.912.73 1.267 1.267 0 0 0 .192 1.217c.128.16.271.305.429.435Zm3.787-.629a513.799 513.799 0 0 0-.062-3.005 40.683 40.683 0 0 0-.023-.701 24.97 24.97 0 0 1-.025-1.398c.015-.754.066-1.52.116-2.262l.016-.244c.027-.416.176-.627.495-.699.258.168.419.446.49.85.107.605.182 1.217.225 1.83.053.768.094 1.549.133 2.304.023.438.045.876.07 1.313.01.151.043.25.102.296.108.09.244.136.384.132.106-.016.23-.185.237-.292.028-.331.028-.664.002-.995-.142-1.586-.03-3.15.118-4.882.034-.245.1-.485.199-.712l.051-.138a.78.78 0 0 1 .213-.273c.102-.092.187-.132.252-.117.06.014.113.076.159.186l.019.047c.153.371.312.756.374 1.147.104.648.16 1.304.166 1.96.005.857-.023 1.728-.05 2.571l-.025.764a3.204 3.204 0 0 1-.031.324c-.014.107-.03.219-.032.33-.006.181.04.311.136.386.097.075.235.088.411.038a.589.589 0 0 0 .442-.499 4.91 4.91 0 0 0 .044-.383c.007-.078.013-.155.022-.233.03-.259.162-.372.425-.366a.889.889 0 0 1 .812.636c.034.145.055.292.064.44l.011.123c.003.044.004.09.001.134a.588.588 0 0 0 .025.244c.04.097.141.272.273.307.092.024.222-.02.386-.133a.39.39 0 0 0 .115-.162c.014-.03.03-.06.048-.089l.092-.141a2.33 2.33 0 0 1 .26-.355c.155-.164.331-.242.496-.22.163.022.31.142.416.336.257.45.381.964.356 1.482a53.112 53.112 0 0 1-.28 2.78c-.088.73-.384 1.403-.663 1.964-.43.87-1.166 1.46-2.25 1.805-1.555.493-3.079.224-4.532-.8a1.61 1.61 0 0 1-.4-.39 11.533 11.533 0 0 1-.67-1.08 45.355 45.355 0 0 1-.967-1.906c-.49-1.024-1.115-1.83-1.914-2.465a1.409 1.409 0 0 1-.337-.39.318.318 0 0 1-.038-.26.379.379 0 0 1 .218-.216c.158-.07.33-.106.503-.105.093 0 .186.009.277.026.702.13 1.173.391 1.481.82.11.171.193.357.25.551.016.05.033.098.05.146.07.189.165.363.4.366.207.002.361-.126.417-.352a1.46 1.46 0 0 0 .047-.375Z"></path>
  <path d="M14.925 4.88c.234.016.477.025.742.026.643.002 1.286.002 1.938.001h.67l-.045.059a152.892 152.892 0 0 0-.346.456c-.124.162-.253.33-.372.502-.13.19-.121.371.027.498a.258.258 0 0 0 .17.069.498.498 0 0 0 .276-.13l.01-.008a.572.572 0 0 0 .096-.093l.354-.425c.3-.358.61-.73.904-1.103.14-.177.192-.309.169-.428-.023-.123-.125-.229-.338-.353-.394-.23-.787-.46-1.18-.692l-.488-.288a.455.455 0 0 1-.041-.028.194.194 0 0 0-.124-.055l-.023.001c-.106.008-.238.017-.296.09-.062.077-.057.242-.012.339.06.1.145.183.248.24a41.616 41.616 0 0 0 .927.6l-.568.03c-.461.023-.922.045-1.383.07l-.13.007c-.39.02-.793.042-1.187.087a.394.394 0 0 0-.272.255.191.191 0 0 0 .029.162.327.327 0 0 0 .245.11Z"></path>
</svg>