<svg width="46" height="46" fill="currentColor" viewBox="0 0 24 24" xmlns="http://www.w3.org/2000/svg">
  <path d="M19.69 11.457c-.254-.698-.892-1.055-1.626-.91a2.015 2.015 0 0 0-.498.195 5.08 5.08 0 0 1-.196.094c-.13-.28-.348-.647-.758-.787a5.126 5.126 0 0 0-.797-.18c-.11-.019-.222-.038-.335-.06v-.032c0-.058.001-.126-.001-.194a202.33 202.33 0 0 1-.037-1.014c-.028-.827-.058-1.683-.107-2.524-.05-.86-.272-1.566-.678-2.156-.325-.472-.842-.607-1.35-.354a1.303 1.303 0 0 0-.627.614c-.102.219-.191.447-.278.668l-.086.22-.05-.079a3.525 3.525 0 0 0-.22-.33c-.312-.396-.723-.485-1.187-.256a1.166 1.166 0 0 0-.635.762 3.121 3.121 0 0 0-.117.698l-.016.403c-.034.853-.07 1.735-.07 2.603 0 .791.022 1.568.045 2.39.01.324.018.651.027.982l-.033-.03a1.847 1.847 0 0 0-.158-.131c-.83-.59-1.705-.794-2.6-.605a1.172 1.172 0 0 0-.94 1.28c.02.199.089.39.2.555.143.206.314.391.507.55a6.463 6.463 0 0 1 1.542 1.94c.485.94 1.03 1.924 1.715 3.098.179.306.473.561.678.727.424.341.93.62 1.592.878a5.03 5.03 0 0 0 1.845.35 6.19 6.19 0 0 0 2.093-.391 4.483 4.483 0 0 0 1.353-.8c.724-.602 1.229-1.423 1.543-2.511.419-1.445.597-2.95.527-4.453a4.177 4.177 0 0 0-.267-1.21Zm-8.846 1.727a534.51 534.51 0 0 0-.062-3.006c-.005-.234-.014-.467-.023-.7a24.97 24.97 0 0 1-.025-1.398c.015-.757.067-1.527.117-2.271l.016-.235c.027-.417.176-.626.495-.698.258.169.418.447.49.85.106.607.18 1.218.224 1.832.053.765.093 1.545.133 2.3.022.438.045.877.07 1.316.01.151.043.25.103.296a.57.57 0 0 0 .384.13c.105-.016.228-.185.236-.293.027-.33.028-.663.002-.994-.142-1.587-.03-3.15.118-4.882a2.76 2.76 0 0 1 .199-.713l.051-.137c.05-.106.123-.2.214-.273.102-.092.186-.132.25-.117.06.014.114.077.16.187l.018.045c.154.372.313.758.375 1.15.104.648.16 1.303.166 1.96.005.857-.023 1.73-.05 2.573l-.025.761a3.223 3.223 0 0 1-.032.324c-.014.108-.029.22-.032.33-.005.181.04.311.137.386.097.075.236.088.412.037a.59.59 0 0 0 .44-.5c.022-.126.033-.256.044-.381.007-.078.014-.157.023-.235.03-.254.165-.372.426-.364a.89.89 0 0 1 .81.637c.035.144.056.291.065.44l.01.122a.87.87 0 0 1 .002.135.591.591 0 0 0 .025.243c.04.098.142.272.275.307.091.024.22-.021.384-.134a.39.39 0 0 0 .115-.162.708.708 0 0 1 .048-.09l.092-.14c.076-.127.163-.246.26-.356.156-.163.332-.24.497-.218.162.022.31.142.415.337.258.45.381.964.356 1.482-.065.964-.179 1.94-.28 2.78-.089.73-.385 1.402-.663 1.964-.43.87-1.167 1.46-2.252 1.804-1.553.493-3.077.223-4.53-.802a1.61 1.61 0 0 1-.4-.39 11.585 11.585 0 0 1-.67-1.079 45.884 45.884 0 0 1-.967-1.907c-.49-1.024-1.116-1.83-1.915-2.465a1.396 1.396 0 0 1-.336-.39.316.316 0 0 1-.038-.26.38.38 0 0 1 .22-.215c.157-.07.328-.106.501-.105.094 0 .187.01.279.027.702.13 1.172.392 1.48.821.109.17.192.355.249.548l.052.149c.069.188.165.363.4.364h.004c.207 0 .357-.128.412-.352.032-.123.047-.249.046-.375Z"></path>
  <path d="M4.401 5.16c.326.326.665.654 1.007.974a.473.473 0 0 0 .276.137h.001a.496.496 0 0 0 .349-.123c.062-.071.038-.263-.024-.349a1.726 1.726 0 0 0-.254-.262 3.65 3.65 0 0 1-.128-.118 2.21 2.21 0 0 0-.18-.156c-.125-.09-.233-.2-.321-.327h.067l.23-.001.669-.016c.78-.018 1.585-.037 2.377-.064a1.25 1.25 0 0 0 .342-.079c.054-.018.11-.036.17-.052l.05-.014-.025-.045a.531.531 0 0 0-.512-.314 69.764 69.764 0 0 0-1.438-.029c-.414-.003-.826-.002-1.262-.002l-.468.001.12-.094c.158-.123.305-.238.45-.354l.101-.08c.142-.107.276-.223.402-.347a.288.288 0 0 0 .012-.301c-.064-.077-.235-.063-.285-.057a.304.304 0 0 0-.144.076l-.048.036-1.649 1.077c-.21.137-.26.332-.14.546.07.124.155.237.255.337Z"></path>
</svg>