<svg width="46" height="46" fill="currentColor" viewBox="0 0 24 24" xmlns="http://www.w3.org/2000/svg">
  <path d="M5.792 14.338a2.8 2.8 0 0 1 .215.207c.109.12.223.242.333.36.309.309.59.644.842 1 .255.405.488.824.696 1.255.117.23.237.466.363.695l.072.132c.288.525.586 1.068.915 1.58.18.264.402.497.657.69a5.97 5.97 0 0 0 1.556.858 5.03 5.03 0 0 0 1.868.36 6.198 6.198 0 0 0 2.108-.398 4.552 4.552 0 0 0 2.644-2.661c.615-1.6.856-3.354.738-5.358a3.156 3.156 0 0 0-.26-1.004 1.408 1.408 0 0 0-1.666-.846 2.034 2.034 0 0 0-.461.197l-.176.09c-.186-.425-.439-.686-.771-.8a4.89 4.89 0 0 0-.774-.174c-.112-.02-.226-.039-.343-.062v-.037c.001-.07.002-.157 0-.244-.014-.328-.026-.657-.037-.986-.029-.823-.058-1.674-.11-2.51-.051-.846-.268-1.54-.663-2.12-.35-.514-.918-.65-1.415-.34a1.71 1.71 0 0 0-.555.56c-.12.218-.22.447-.3.683a8.58 8.58 0 0 1-.084.224l-.039-.062a3.748 3.748 0 0 0-.216-.326c-.32-.42-.741-.512-1.218-.27a1.183 1.183 0 0 0-.624.772 2.89 2.89 0 0 0-.102.574c-.008.13-.018.259-.027.388a19.99 19.99 0 0 0-.068 1.506c.005.929.026 1.873.047 2.786.01.416.019.833.027 1.25.003.136.002.272.001.41v.144a2.89 2.89 0 0 1-.061-.051 1.913 1.913 0 0 0-.114-.093c-.795-.587-1.654-.801-2.556-.637a1.193 1.193 0 0 0-.932.736 1.275 1.275 0 0 0 .207 1.234c.086.104.18.201.283.288Zm3.857-3.61a42.542 42.542 0 0 0-.023-.677c-.016-.426-.034-.866-.024-1.297.015-.72.062-1.45.108-2.157l.022-.35c.02-.311.094-.614.5-.72.26.187.42.472.491.872.104.564.177 1.134.22 1.707.055.82.097 1.653.138 2.46.02.413.042.826.064 1.239a.765.765 0 0 0 .058.252.343.343 0 0 0 .414.214.305.305 0 0 0 .264-.334c-.002-.111 0-.225.003-.336a5.26 5.26 0 0 0-.012-.615c-.118-1.153-.053-2.325.009-3.459l.02-.401c.013-.355.042-.708.09-1.06.053-.291.14-.576.26-.847a.912.912 0 0 1 .283-.317.209.209 0 0 1 .178-.058.203.203 0 0 1 .127.13c.033.076.069.152.104.228.113.214.195.442.246.679.121.715.198 1.437.231 2.161.053 1.573.012 2.775-.13 3.9a.701.701 0 0 0-.004.085l-.001.043c-.015.328.02.485.26.543.234.056.562-.068.659-.336.069-.211.11-.43.125-.652.023-.239.093-.396.21-.467.115-.071.287-.063.51.026a.823.823 0 0 1 .538.626c.032.19.05.381.056.573l.01.199c.012.174.058.38.315.438.224.05.35-.094.442-.242.04-.063.076-.126.114-.19.075-.138.162-.27.259-.395.173-.212.372-.315.559-.292.186.023.355.174.471.423.287.636.393 1.34.305 2.032a38.818 38.818 0 0 1-.381 2.645 4.848 4.848 0 0 1-.865 1.967c-.426.596-1.074 1.033-1.926 1.298-1.603.498-3.098.233-4.57-.81a1.479 1.479 0 0 1-.37-.361 13.33 13.33 0 0 1-.69-1.116 42.074 42.074 0 0 1-.93-1.834c-.516-1.08-1.159-1.908-1.963-2.53a.555.555 0 0 1-.057-.05 4.214 4.214 0 0 0-.052-.053c-.165-.167-.322-.324-.22-.575.096-.238.342-.276.556-.276h.034c.929.016 1.579.351 1.988 1.026.062.116.109.241.138.37l.034.119c.104.344.291.401.428.389.22-.02.358-.159.41-.413.022-.11.032-.223.028-.336a859.66 859.66 0 0 0-.06-3.088Z"></path>
  <path d="M5.522 5.062a.338.338 0 0 0 .254-.094c.116-.109.226-.224.328-.344l.043-.048c.158-.178.313-.358.47-.537l.176-.202.025.01v.098c0 .091-.002.182.001.272l.018.595c.026.872.053 1.773.086 2.659.009.195.04.388.094.575a.361.361 0 0 0 .364.285.487.487 0 0 0 .057-.003.35.35 0 0 0 .323-.339c.017-.124.023-.25.018-.376a82.068 82.068 0 0 0-.053-.804c-.032-.464-.066-.944-.084-1.415-.017-.407-.013-.808-.009-1.233l.004-.462.121.146c.16.193.316.38.473.566l.045.055c.072.09.15.176.233.256.173.159.346.18.5.059.16-.125.181-.307.06-.498a3.148 3.148 0 0 0-.306-.396c-.21-.236-.421-.47-.633-.705l-.387-.43c-.177-.197-.302-.278-.432-.28h-.002c-.124 0-.246.075-.406.247-.335.362-.658.746-.97 1.116l-.35.412-.06.068a.947.947 0 0 0-.193.27c-.043.11-.048.284.019.376a.242.242 0 0 0 .173.101Z"></path>
</svg>