<svg width="46" height="46" fill="currentColor" viewBox="0 0 24 24" xmlns="http://www.w3.org/2000/svg">
  <path d="M18.498 11.81c-.179-.473-.55-.773-1.072-.868a1.377 1.377 0 0 0-1.203.325c-.511-.826-.73-.939-1.92-1.015v-.07a4.101 4.101 0 0 0 0-.248c-.014-.328-.025-.655-.036-.982-.03-.825-.06-1.677-.11-2.515-.051-.862-.274-1.567-.681-2.155-.315-.456-.82-.594-1.316-.363a1.31 1.31 0 0 0-.66.638c-.101.216-.185.433-.275.663l-.086.223-.04-.067a4.16 4.16 0 0 0-.184-.288c-.337-.468-.803-.565-1.315-.273-.48.276-.595.751-.64 1.135-.035.294-.04.596-.046.888l-.003.143-.015.686c-.019.787-.037 1.601-.037 2.402 0 .595.018 1.18.038 1.798l.022.736-.015-.012a3.12 3.12 0 0 0-.152-.122c-.815-.599-1.688-.812-2.595-.634a1.18 1.18 0 0 0-.897.722 1.26 1.26 0 0 0 .174 1.199c.13.167.278.32.442.455l.054.048a6.49 6.49 0 0 1 1.47 1.844 64.93 64.93 0 0 0 1.756 3.168c.203.316.47.586.785.793a8.44 8.44 0 0 0 1.372.756 4.82 4.82 0 0 0 1.944.407 6.195 6.195 0 0 0 2.108-.4 4.558 4.558 0 0 0 2.648-2.657c.615-1.598.857-3.35.741-5.357-.019-.338-.134-.682-.256-1.004Zm-8.894-1.327c-.005-.207-.015-.417-.024-.62-.016-.364-.033-.739-.024-1.107.022-.903.076-1.822.129-2.71l.002-.044c.02-.327.094-.64.504-.724.253.177.412.458.486.861a15.2 15.2 0 0 1 .22 1.707c.055.801.096 1.617.136 2.405.022.432.044.863.068 1.294.006.112.018.236.087.298.1.095.23.154.368.168a.248.248 0 0 0 .19-.07.337.337 0 0 0 .09-.249 7.1 7.1 0 0 1 .003-.326 5.603 5.603 0 0 0-.01-.625c-.144-1.556-.04-3.05.11-4.84.022-.276.124-.552.223-.819l.041-.111a.785.785 0 0 1 .247-.294c.084-.068.147-.095.197-.086.053.01.107.061.168.164.349.59.434 1.258.487 1.838.122 1.345.123 2.82.003 4.644-.006.1-.019.203-.03.303-.016.128-.033.262-.036.394-.005.171.037.295.127.367.089.073.222.09.392.05a.593.593 0 0 0 .472-.519c.02-.12.03-.243.04-.361.008-.085.015-.17.026-.254.029-.236.155-.348.398-.352a.873.873 0 0 1 .84.648c.032.144.052.291.059.439l.014.165c.005.044.006.09.006.135a.962.962 0 0 0 .024.24.377.377 0 0 0 .283.281.37.37 0 0 0 .363-.14c.08-.105.15-.215.213-.33.037-.065.076-.133.117-.196.152-.234.341-.48.68-.45.337.031.446.316.553.594a3.94 3.94 0 0 1 .235 1.724l-.005.064c-.075.99-.154 2.013-.462 2.971-.184.6-.449 1.17-.788 1.698-.4.598-1.027 1.024-1.917 1.304-1.597.501-3.092.238-4.57-.805a1.455 1.455 0 0 1-.372-.36c-.25-.359-.48-.73-.692-1.114a43.228 43.228 0 0 1-.948-1.87c-.507-1.059-1.142-1.875-1.942-2.495a.511.511 0 0 1-.057-.051 3.34 3.34 0 0 0-.06-.062c-.164-.163-.317-.317-.219-.563.105-.262.368-.287.627-.29h.018c.802 0 1.97.52 2.108 1.507.036.256.183.402.405.402h.012c.218-.005.363-.145.419-.404.022-.11.032-.223.03-.336a625.787 625.787 0 0 0-.064-3.088Z"></path>
  <path d="M7.009 8.704a.395.395 0 0 0 .276.13h.02a.42.42 0 0 0 .299-.185c.279-.366.551-.746.815-1.114l.178-.249a.33.33 0 0 0 .087-.213c-.023-.165-.067-.264-.133-.303-.086-.05-.242-.025-.338.027a.376.376 0 0 0-.13.16.778.778 0 0 1-.05.08c-.117.163-.235.325-.372.512l-.13.178-.015-.129a3.78 3.78 0 0 1-.028-.314l-.053-1.88c-.02-.717-.04-1.433-.062-2.15a.967.967 0 0 0-.064-.374.32.32 0 0 0-.258-.163c-.103.007-.198.126-.234.188a.443.443 0 0 0-.038.219v.042l-.014.529c-.018.635-.035 1.292-.045 1.939-.007.423-.005.844-.003 1.289l.001.535-.158-.132a9.355 9.355 0 0 0-.437-.354.337.337 0 0 0-.26-.073.24.24 0 0 0-.16.12.35.35 0 0 0 .036.336c.497.552.888.968 1.27 1.35Z"></path>
</svg>