<svg width="46" height="46" fill="currentColor" viewBox="0 0 24 24" xmlns="http://www.w3.org/2000/svg">
  <path d="M5.751 14.445c.075.065.146.133.213.206.11.122.224.243.335.36.308.31.59.645.841 1.002.256.406.49.825.698 1.257.116.23.236.466.361.695l.077.139c.286.523.583 1.064.91 1.574.18.265.402.498.657.69.461.356.972.64 1.517.846a5.063 5.063 0 0 0 1.91.375 6.17 6.17 0 0 0 2.105-.397 4.559 4.559 0 0 0 2.645-2.663c.614-1.6.856-3.354.739-5.363a3.169 3.169 0 0 0-.26-1.005 1.409 1.409 0 0 0-1.664-.848 2.006 2.006 0 0 0-.462.197c-.057.03-.115.061-.175.09-.341-.74-.96-1.055-1.89-.962v-.101c.001-.092.002-.172 0-.253-.014-.33-.026-.66-.037-.99a99.19 99.19 0 0 0-.11-2.51c-.051-.86-.275-1.567-.684-2.156-.323-.465-.851-.603-1.316-.343a1.71 1.71 0 0 0-.61.559 4.057 4.057 0 0 0-.32.706 6.21 6.21 0 0 1-.09.234l-.035-.056a4.014 4.014 0 0 0-.216-.325c-.32-.421-.74-.516-1.216-.272-.357.182-.575.464-.63.815-.043.264-.062.536-.081.799-.012.168-.025.342-.043.512-.114 1.058-.089 2.134-.064 3.174.012.488.024.992.021 1.487-.001.251.023.506.046.753.01.1.02.202.028.303h-.007l-.01.001a2.554 2.554 0 0 1-.07-.06c-.037-.03-.074-.062-.112-.09-.794-.587-1.654-.803-2.556-.64a1.194 1.194 0 0 0-.934.736 1.276 1.276 0 0 0 .206 1.235c.085.105.18.202.283.289Zm3.92-.517c-.011-.433-.026-.865-.04-1.297a82.139 82.139 0 0 1-.065-2.823c0-.903.046-1.82.09-2.71l.036-.746c.013-.297.084-.614.498-.726.258.184.419.469.491.87.105.564.179 1.135.22 1.708.055.8.096 1.613.135 2.4l.068 1.303c.007.12.022.238.09.297a.632.632 0 0 0 .369.166.257.257 0 0 0 .188-.071.343.343 0 0 0 .088-.252c-.001-.11.001-.22.003-.331a5.627 5.627 0 0 0-.01-.62c-.155-1.685-.008-3.438.11-4.846.023-.275.126-.55.224-.816l.042-.114a.78.78 0 0 1 .248-.292c.084-.068.146-.095.195-.086.053.01.107.063.169.168.347.588.433 1.258.486 1.84.123 1.357.124 2.79.003 4.648-.006.1-.019.203-.031.303a4.094 4.094 0 0 0-.036.395c-.005.17.038.292.128.365.09.073.224.09.394.048a.595.595 0 0 0 .47-.521c.02-.119.03-.24.04-.357.008-.087.015-.173.026-.26.03-.235.156-.346.4-.35a.874.874 0 0 1 .826.615c.038.147.062.297.072.449l.012.112c.005.062.007.124.006.187 0 .046 0 .093.002.14.011.221.114.357.305.402.169.04.307-.027.421-.204.022-.034.042-.07.062-.106.014-.025.027-.05.042-.074l.05-.084a3.22 3.22 0 0 1 .141-.23c.152-.217.34-.445.66-.413.304.03.419.261.537.56.216.56.302 1.164.249 1.763l-.005.065c-.076.99-.154 2.014-.463 2.973a6.801 6.801 0 0 1-.789 1.698c-.401.6-1.03 1.026-1.918 1.304-1.6.5-3.095.237-4.57-.808a1.463 1.463 0 0 1-.37-.36c-.25-.36-.48-.733-.692-1.116a42.948 42.948 0 0 1-.948-1.872c-.507-1.06-1.143-1.877-1.943-2.497a.267.267 0 0 1-.027-.023l-.072-.071c-.172-.167-.335-.325-.232-.583.098-.249.35-.286.612-.286h.015a2.347 2.347 0 0 1 1.715.702c.21.209.352.477.404.769.068.374.268.446.425.442.211-.007.375-.18.428-.452.016-.097.022-.196.017-.295Z"></path>
  <path d="M15.82 3.654c-.147-.184-.364-.15-.503-.04-.241.19-.468.406-.687.614l-.076.072a.332.332 0 0 0-.072.143c-.01.029-.02.06-.034.095l-.008.017.008.016c.01.02.018.044.027.07a.4.4 0 0 0 .116.195.22.22 0 0 0 .128.033.336.336 0 0 0 .184-.05c.295-.216.577-.44.838-.668.173-.152.204-.342.08-.497Z"></path>
  <path d="M11.392 2.65a.417.417 0 0 0-.265-.258.199.199 0 0 0-.164.023.326.326 0 0 0-.123.23 15.94 15.94 0 0 1-.022.137c-.02.127-.042.259-.055.39-.02.176-.025.354-.017.531a.304.304 0 0 0 .316.289h.026a.325.325 0 0 0 .347-.272c.015-.084.024-.168.026-.253l.006-.09V3.37a9.36 9.36 0 0 1-.016-.22 3.159 3.159 0 0 0-.059-.5Z"></path>
  <path d="M15.322 7.25c.138.024.277.036.418.038l.189.009h.004l.139-.004c.124 0 .249-.008.372-.023.126-.017.388-.053.36-.336-.027-.262-.292-.265-.38-.267a12.913 12.913 0 0 0-.785.01.904.904 0 0 0-.375.077c-.084.044-.201.173-.194.274.007.096.158.203.252.222Z"></path>
  <path d="m8.704 4.46.03-.017-.01-.033c-.015-.04-.025-.084-.035-.127a.478.478 0 0 0-.114-.255 4.541 4.541 0 0 0-.737-.524c-.095-.054-.286-.011-.376.062a.234.234 0 0 0-.091.173.339.339 0 0 0 .114.248c.158.153.329.296.494.434.1.09.23.142.365.145a.762.762 0 0 0 .36-.107Z"></path>
  <path d="M7.727 6.773a12.3 12.3 0 0 0-1.063.085.347.347 0 0 0-.239.247.203.203 0 0 0 .045.162.322.322 0 0 0 .24.093c.116.003.232.002.345.002h.108l.002.041.043-.003c.055-.005.11-.007.166-.01.138 0 .275-.016.41-.048a.41.41 0 0 0 .247-.279.231.231 0 0 0-.052-.198.314.314 0 0 0-.252-.092Z"></path>
</svg>