<svg width="46" height="46" fill="currentColor" viewBox="0 0 24 24" xmlns="http://www.w3.org/2000/svg">
  <path d="m5.9 14.448.056.05a6.493 6.493 0 0 1 1.468 1.846 73.856 73.856 0 0 0 1.755 3.171c.174.3.455.546.68.726.412.331.905.605 1.553.862.597.24 1.234.363 1.877.363a6.188 6.188 0 0 0 2.1-.394 4.482 4.482 0 0 0 1.35-.803c.715-.595 1.215-1.404 1.528-2.475.428-1.458.609-2.977.536-4.495a4.236 4.236 0 0 0-.283-1.25c-.23-.62-.784-.957-1.446-.881a2.46 2.46 0 0 0-.613.185 5.97 5.97 0 0 1-.246.094c-.49-.78-.716-.896-1.887-.958v-.07a5.1 5.1 0 0 0-.001-.247c-.013-.329-.025-.658-.036-.988a104.19 104.19 0 0 0-.109-2.51c-.05-.863-.273-1.569-.68-2.158-.33-.482-.873-.619-1.348-.34-.242.14-.447.335-.599.57a3.905 3.905 0 0 0-.304.685 7.317 7.317 0 0 1-.088.232 4.914 4.914 0 0 0-.226-.348c-.337-.467-.805-.562-1.315-.267-.48.277-.593.753-.638 1.137-.035.297-.04.6-.046.895l-.003.138-.015.68c-.018.79-.037 1.606-.036 2.41 0 .594.018 1.178.038 1.797l.022.739-.018-.015a2.503 2.503 0 0 0-.151-.124c-.817-.599-1.69-.811-2.595-.632a1.181 1.181 0 0 0-.896.722 1.262 1.262 0 0 0 .176 1.2c.13.167.277.319.44.454Zm3.729-3.726a24.836 24.836 0 0 0-.025-.612c-.016-.353-.033-.718-.024-1.075.024-.98.08-1.964.132-2.798.028-.453.104-.567.503-.728.253.173.408.445.485.856.107.55.18 1.107.22 1.667.056.815.097 1.644.137 2.446l.067 1.298c.007.117.019.236.086.298a.63.63 0 0 0 .365.174.253.253 0 0 0 .194-.069.334.334 0 0 0 .09-.246c0-.105.002-.21.005-.316.01-.212.005-.425-.012-.636-.115-1.117-.056-2.254 0-3.352l.02-.383c.019-.392.039-.798.097-1.19a4.01 4.01 0 0 1 .255-.851.784.784 0 0 1 .247-.296c.085-.07.15-.1.201-.09.052.01.105.061.164.161.223.39.366.822.418 1.268.165 1.247.206 2.605.126 4.273-.016.347-.046.7-.075 1.04l-.042.527c-.015.199-.032.424.248.505.219.064.556-.05.646-.285.082-.235.133-.48.152-.729.025-.222.089-.365.199-.434.107-.069.266-.067.472.003.336.116.535.342.593.672.028.19.046.383.051.575l.009.158c.01.176.054.386.302.448.238.06.367-.093.47-.266l.07-.121c.075-.139.16-.272.253-.399.187-.24.41-.361.61-.332.193.028.354.189.456.452.171.413.273.853.3 1.3a11.49 11.49 0 0 1-.458 3.612 6.243 6.243 0 0 1-.783 1.698c-.405.605-1.045 1.037-1.955 1.319-1.576.488-3.059.223-4.532-.812a1.46 1.46 0 0 1-.372-.358c-.25-.36-.481-.732-.693-1.115a44.715 44.715 0 0 1-.968-1.909c-.496-1.036-1.124-1.841-1.92-2.462a.514.514 0 0 1-.058-.05l-.064-.066c-.162-.161-.314-.314-.22-.56.102-.263.364-.289.624-.292h.026c.8 0 1.962.515 2.103 1.502.037.26.185.408.408.408h.005c.22-.003.366-.141.423-.4.023-.11.034-.223.031-.336a502.69 502.69 0 0 0-.063-3.092Z"></path>
  <path d="M14.834 6.373a.276.276 0 0 0 .144.167c.192.097.408.005.564-.24.04-.06.074-.124.1-.19.364-.966.275-1.784-.271-2.5-1.047-1.37-2.697-1.322-3.868-.665a1.585 1.585 0 0 0-.379.34c-.035.04-.07.08-.106.117a1.49 1.49 0 0 0-.153.197l-.02.03a13.21 13.21 0 0 1-.421-.023 5.272 5.272 0 0 0-.88-.009A2.527 2.527 0 0 0 7.671 4.78a2.417 2.417 0 0 0-.271 2.1c.062.171.154.33.271.47a.342.342 0 0 0 .25.14h.006a.381.381 0 0 0 .276-.148l.017-.018-.008-.023a5.32 5.32 0 0 0-.054-.142 2.436 2.436 0 0 1-.104-.31l-.039-.151a1.502 1.502 0 0 1-.076-.52 2.118 2.118 0 0 1 .984-1.606 1.913 1.913 0 0 1 1.694-.166c.489.186.605.142.83-.315a1.346 1.346 0 0 1 .974-.757 5.63 5.63 0 0 1 .564-.097c.745-.087 1.369.198 1.851.847.42.567.45 1.19.086 1.855-.093.17-.124.32-.088.434Z"></path>
</svg>