<svg width="46" height="46" fill="currentColor" viewBox="0 0 24 24" xmlns="http://www.w3.org/2000/svg">
  <path d="m16.395 12.18-.014-.046a1.267 1.267 0 0 0-.754-.822c-.558-.236-1.081-.16-1.556.223-.349-.76-.973-1.085-1.906-.994v-.109a5.498 5.498 0 0 0 0-.257c-.014-.328-.026-.657-.037-.986a94.151 94.151 0 0 0-.11-2.513c-.053-.844-.272-1.538-.67-2.12-.341-.496-.897-.633-1.383-.34a1.69 1.69 0 0 0-.567.548c-.122.22-.225.45-.307.688-.03.08-.061.161-.094.243l-.016-.026a9.35 9.35 0 0 0-.147-.235c-.216-.332-.537-.522-.878-.522h-.003c-.343 0-.663.193-.878.527a1.186 1.186 0 0 0-.187.471 16.91 16.91 0 0 0-.079.856c-.01.138-.02.277-.032.415-.145 1.662-.073 3.35-.003 4.983l.003.088c.007.15.005.301.003.461l-.001.157-.028-.024a2.632 2.632 0 0 0-.156-.126c-.824-.593-1.698-.8-2.598-.614a1.175 1.175 0 0 0-.871.707 1.223 1.223 0 0 0 .138 1.158c.146.198.316.377.505.534l.04.036a6.47 6.47 0 0 1 1.444 1.816c.507.971 1.071 1.99 1.775 3.207.163.26.373.488.619.672a5.975 5.975 0 0 0 1.74.951 5.01 5.01 0 0 0 1.738.31 6.163 6.163 0 0 0 2.084-.389 4.47 4.47 0 0 0 1.354-.798c.733-.609 1.243-1.443 1.559-2.549.41-1.434.586-2.925.52-4.416-.017-.393-.134-.785-.247-1.164Zm-8.209 7.29a1.474 1.474 0 0 1-.367-.363 13.492 13.492 0 0 1-.69-1.117 40.496 40.496 0 0 1-.91-1.8c-.522-1.098-1.172-1.937-1.985-2.566a.21.21 0 0 1-.027-.022l-.08-.082c-.155-.154-.301-.299-.223-.54.084-.262.32-.306.57-.306h.037c.875.014 1.53.338 1.943.965.079.136.136.282.172.435l.037.126c.054.176.143.358.387.382.202.02.373-.131.44-.382.028-.11.041-.223.039-.337-.018-.96-.039-1.958-.063-2.967a37.199 37.199 0 0 0-.023-.676c-.017-.426-.035-.867-.026-1.3.018-.81.068-1.632.117-2.427l.015-.247c.018-.296.092-.612.501-.713.265.2.425.489.491.881a18.7 18.7 0 0 1 .218 1.793c.055.794.097 1.602.137 2.384l.065 1.236a.736.736 0 0 0 .062.251.341.341 0 0 0 .42.204.31.31 0 0 0 .254-.341c-.002-.114 0-.23.003-.344a5.049 5.049 0 0 0-.012-.608c-.118-1.164-.053-2.347.01-3.49l.01-.165c.024-.445.06-.893.093-1.273a1.8 1.8 0 0 1 .35-.973c.124-.163.229-.238.316-.23.087.006.178.098.274.278.293.55.37 1.159.422 1.734.123 1.343.124 2.764.004 4.607a5.66 5.66 0 0 1-.034.322c-.011.095-.024.193-.03.29l-.004.039c-.015.177-.033.397.227.487.238.083.556-.053.682-.29a.95.95 0 0 0 .092-.284c.025-.15.038-.302.05-.454.017-.2.079-.337.183-.408.101-.07.245-.077.428-.023.358.106.581.34.645.675.032.197.051.395.056.595l.007.136c.01.2.053.395.282.463.268.08.399-.103.5-.28l.03-.05c.087-.163.186-.319.297-.466.184-.232.404-.347.603-.317.187.029.344.183.441.434.175.427.279.88.308 1.34.052 1.24-.175 2.444-.403 3.46a5.16 5.16 0 0 1-.82 1.816c-.42.604-1.065 1.046-1.914 1.316-1.595.507-3.145.235-4.607-.807Z"></path>
  <path d="M18.638 2.876c-.317-.115-.696-.23-1.103-.195a3.843 3.843 0 0 0-2.533 1.193 3.01 3.01 0 0 0-.713 2.923c.297 1.006 1.065 1.726 2.107 1.974.225.05.452.09.68.116.075.01.14.018.195.027h.008c.997-.021 1.683-.187 2.295-.553.776-.464 1.212-1.162 1.296-2.074.15-1.62-1.225-3.045-2.232-3.411Zm.158 4.883a3.72 3.72 0 0 1-1.424.319l-.18-.022a8.037 8.037 0 0 1-.386-.05c-.794-.132-1.381-.581-1.655-1.267a2.37 2.37 0 0 1 .322-2.265c.426-.562.961-.867 1.637-.932l.045-.005c.05-.006.101-.01.152-.01a.373.373 0 0 1 .115.013c1.122.32 1.869.912 2.284 1.811.224.487.257.973.093 1.407-.164.435-.51.782-1.003 1Z"></path>
  <path d="M12.757 5.97a.608.608 0 0 0-.076.152c-.043.155-.066.346.135.444a.362.362 0 0 0 .46-.1c.064-.076.12-.16.162-.25.292-.614.35-1.204.173-1.755-.285-.889-.902-1.526-1.736-1.794a3.125 3.125 0 0 0-2.738.454c-.09.074-.17.16-.239.255-.023.03-.046.06-.07.088-.053.063-.1.13-.132.176l-.014.019a13.612 13.612 0 0 1-.42-.023 5.283 5.283 0 0 0-.879-.009A2.527 2.527 0 0 0 5.51 4.81a2.417 2.417 0 0 0-.272 2.1c.061.172.153.33.27.47a.344.344 0 0 0 .25.14h.007a.383.383 0 0 0 .276-.146l.017-.018-.008-.024-.053-.14a2.141 2.141 0 0 1-.104-.31c-.011-.052-.025-.105-.038-.158a1.581 1.581 0 0 1-.072-.553 2.114 2.114 0 0 1 1.005-1.583 1.927 1.927 0 0 1 1.705-.139c.453.18.549.106.798-.317.129-.219.27-.44.453-.54 1.053-.577 2.113-.431 2.836.392.474.54.556 1.255.22 1.914a1.413 1.413 0 0 1-.042.072Z"></path>
  <path d="M18.63 5.393a1.568 1.568 0 0 0-.444-.022l-.055.003a4.488 4.488 0 0 0-.35.032l-.149.017-.034-.458-.016-.228c-.012-.181-.024-.369-.049-.553a.337.337 0 0 0-.347-.31c-.168-.005-.276.087-.33.272l-.013.042a.532.532 0 0 0-.03.125l-.026.343c-.025.332-.052.675-.06 1.013a.585.585 0 0 0 .163.462c.106.09.242.137.382.13a.92.92 0 0 0 .1-.005c.29-.032.602-.076.981-.139a.753.753 0 0 0 .362-.123.46.46 0 0 0 .148-.343.358.358 0 0 0-.232-.258Z"></path>
</svg>