<svg width="46" height="46" fill="currentColor" viewBox="0 0 24 24" xmlns="http://www.w3.org/2000/svg">
  <path d="M8.143 7.23a.477.477 0 0 0 .139-.023l.015-.004.008-.014c.112-.187.069-.372.026-.551l-.026-.115a1.688 1.688 0 0 1 1.109-1.95c.453-.162.865-.17 1.26-.026.178.065.3.073.397.027.1-.048.173-.153.242-.352.037-.125.094-.245.168-.353a2 2 0 0 1 1.594-.823c.726-.024 1.177.265 1.462.936.14.33.292.411.623.334.238-.054.433-.088.611.017l.087.05c.292.158.567.344.823.556a1.071 1.071 0 0 1 .341 1.048l-.006.033a.717.717 0 0 0-.014.31.504.504 0 0 0 .206.305.265.265 0 0 0 .212.016.33.33 0 0 0 .189-.177c.073-.151.121-.314.142-.48.067-.684-.177-1.26-.724-1.71-.643-.527-1.241-.749-1.884-.695-.275-.579-.747-.934-1.441-1.085a.165.165 0 0 1-.054-.033.504.504 0 0 0-.035-.025l-.01-.006H12.6l-.016.003-.255.105a8.517 8.517 0 0 0-.567.246c-.405.2-.739.526-1.05 1.027l-.24-.001a19.451 19.451 0 0 0-.514.002c-.775.017-1.39.311-1.825.876-.508.658-.627 1.39-.354 2.177.043.121.124.355.364.355Z"></path>
  <path d="M16.544 11.321c-.045.021-.09.04-.137.056l-.035.013.009-.177a96.59 96.59 0 0 1 .042-.938c.046-1.06.095-2.156-.053-3.234-.08-.577-.178-1.134-.508-1.615a1.139 1.139 0 0 0-1.685-.243c-.056.047-.11.096-.16.14l-.025.023-.133-.247c-.117-.218-.227-.424-.353-.625-.208-.332-.543-.476-.969-.415a1.18 1.18 0 0 0-.89.6 7.373 7.373 0 0 0-.344.747l-.107.254-.034-.054a3.877 3.877 0 0 0-.215-.324c-.32-.42-.741-.514-1.217-.27-.357.184-.575.466-.63.817-.041.274-.062.556-.081.828-.013.172-.025.35-.044.524-.11 1.058-.085 2.134-.06 3.175.012.487.025.99.022 1.485 0 .241.023.487.046.724.01.096.019.194.026.29h-.004l-.01.002a2.444 2.444 0 0 1-.071-.06c-.036-.03-.074-.063-.114-.092-.818-.598-1.691-.81-2.595-.629a1.182 1.182 0 0 0-.894.723 1.263 1.263 0 0 0 .179 1.202c.13.168.28.32.443.456l.053.047a6.464 6.464 0 0 1 1.468 1.847 87.816 87.816 0 0 0 1.752 3.172c.142.242.33.454.554.624 1.16.88 2.335 1.315 3.563 1.315.37-.001.738-.039 1.1-.113 1.685-.34 2.833-1.201 3.51-2.632a7.163 7.163 0 0 0 .595-1.845c.186-1.056.353-2.194.322-3.367a3.911 3.911 0 0 0-.296-1.46 1.452 1.452 0 0 0-.833-.805 1.49 1.49 0 0 0-1.188.081ZM9.73 13.823a427.95 427.95 0 0 0-.062-3.009c-.005-.217-.015-.437-.024-.65a18.566 18.566 0 0 1-.025-1.202c.02-.92.076-1.846.13-2.715.03-.458.1-.567.499-.737.259.17.418.45.489.851.106.607.181 1.219.224 1.833.053.766.094 1.547.133 2.301l.07 1.318a.679.679 0 0 0 .09.29.335.335 0 0 0 .405.148.295.295 0 0 0 .238-.308c0-.105.002-.21.005-.314a4.85 4.85 0 0 0-.012-.638c-.115-1.11-.057-2.237-.002-3.328l.012-.245c.025-.49.066-.981.104-1.396.037-.414.162-.74.383-1 .117-.138.211-.202.29-.194.079.008.16.09.25.257.305.557.382 1.175.44 1.812.12 1.31.12 2.705.003 4.524-.007.108-.02.217-.032.322a4.75 4.75 0 0 0-.036.417c-.006.181.04.311.136.386.097.075.238.088.412.038a.592.592 0 0 0 .447-.544l.014-.151c.041-.375.064-.75.067-1.127-.01-1.038-.04-2.093-.069-3.113l-.003-.101a4.835 4.835 0 0 0-.022-.314c-.028-.294-.055-.572.067-.846l.036-.083c.063-.16.144-.311.242-.452a.352.352 0 0 1 .316-.159.348.348 0 0 1 .264.23c.1.251.178.512.23.779.195.88.165 1.789.136 2.668l-.002.031c-.025.75-.037 1.514-.05 2.252-.003.252-.008.504-.012.755-.003.2.014.404.26.517.333.153.483.11.668-.186.037-.059.072-.12.106-.18.047-.08.095-.164.147-.242.183-.272.364-.449.655-.425.339.027.45.312.559.587.229.601.308 1.25.23 1.887a44.124 44.124 0 0 1-.37 2.566c-.113.675-.404 1.353-.867 2.012-.429.613-1.07 1.044-1.959 1.32-1.581.489-3.064.224-4.532-.808a1.468 1.468 0 0 1-.373-.358c-.25-.359-.482-.73-.694-1.114-.323-.6-.649-1.241-.968-1.909-.49-1.024-1.116-1.83-1.915-2.466a1.383 1.383 0 0 1-.336-.39.318.318 0 0 1-.038-.26.38.38 0 0 1 .222-.215c.158-.07.329-.106.502-.105.093 0 .187.01.279.027.702.133 1.173.394 1.48.824.107.17.19.354.247.548l.052.149c.069.189.165.363.402.364h.001c.208 0 .359-.13.413-.355.032-.122.048-.248.048-.374Z"></path>
</svg>