<svg width="46" height="46" fill="currentColor" viewBox="0 0 24 24" xmlns="http://www.w3.org/2000/svg">
  <path d="M7.487 7.252a.477.477 0 0 0 .138-.023l.016-.004.008-.014c.112-.187.068-.372.026-.551-.01-.038-.018-.077-.026-.115a1.688 1.688 0 0 1 1.109-1.95c.453-.162.865-.17 1.26-.026.177.065.3.073.397.027.1-.048.173-.153.242-.351a1.28 1.28 0 0 1 .168-.354 2 2 0 0 1 1.594-.823c.726-.024 1.177.265 1.462.936.14.33.291.411.623.334.238-.054.433-.088.611.017l.087.05c.291.158.567.344.823.555a1.07 1.07 0 0 1 .34 1.049l-.005.033a.717.717 0 0 0-.014.31.503.503 0 0 0 .206.305.265.265 0 0 0 .212.016.33.33 0 0 0 .189-.177c.073-.151.121-.314.142-.48.067-.684-.177-1.26-.724-1.71-.643-.527-1.241-.749-1.884-.695-.275-.579-.747-.934-1.441-1.085a.166.166 0 0 1-.054-.033.503.503 0 0 0-.035-.025l-.01-.006h-1.003l-.016.003c-.085.036-.17.07-.256.105a8.726 8.726 0 0 0-.566.246c-.405.2-.739.526-1.05 1.027l-.24-.001a19.405 19.405 0 0 0-.514.002c-.775.017-1.39.311-1.826.876-.507.658-.626 1.39-.353 2.177.043.121.124.355.364.355Z"></path>
  <path d="M15.887 11.343a1.37 1.37 0 0 1-.136.056l-.035.013.009-.177c.008-.162.015-.31.02-.459l.021-.48c.047-1.06.096-2.155-.052-3.233-.08-.577-.178-1.134-.508-1.615a1.14 1.14 0 0 0-1.685-.243c-.056.047-.11.096-.16.14l-.025.023-.133-.247c-.117-.218-.227-.424-.353-.625-.208-.332-.543-.476-.97-.415a1.182 1.182 0 0 0-.89.6 7.375 7.375 0 0 0-.343.747c-.036.085-.071.17-.108.254a3.877 3.877 0 0 0-.248-.379c-.32-.42-.741-.513-1.217-.269-.358.184-.575.466-.63.817a10.17 10.17 0 0 0-.081.828c-.013.172-.025.35-.044.524-.11 1.058-.085 2.135-.06 3.175.012.487.024.99.022 1.485 0 .242.023.487.046.724.01.096.018.194.026.291H8.34a2.461 2.461 0 0 1-.071-.059c-.037-.03-.074-.063-.114-.092-.818-.598-1.691-.81-2.595-.629a1.18 1.18 0 0 0-.894.723 1.263 1.263 0 0 0 .179 1.202c.13.168.28.32.443.456l.053.047a6.461 6.461 0 0 1 1.468 1.847 87.917 87.917 0 0 0 1.752 3.172c.142.242.33.454.553.624 1.162.88 2.336 1.315 3.564 1.315.37-.001.738-.039 1.1-.113 1.685-.34 2.833-1.201 3.51-2.631a7.167 7.167 0 0 0 .595-1.846c.186-1.056.353-2.194.322-3.367a3.911 3.911 0 0 0-.296-1.46 1.448 1.448 0 0 0-.833-.805 1.49 1.49 0 0 0-1.188.081Zm-6.813 2.502c-.016-.957-.038-1.97-.062-3.009a44.833 44.833 0 0 0-.024-.65 18.566 18.566 0 0 1-.025-1.202c.02-.92.076-1.846.13-2.715.03-.458.1-.567.499-.737.258.17.418.45.489.851.106.607.18 1.219.224 1.833.053.766.094 1.547.133 2.301.023.44.045.88.07 1.318a.67.67 0 0 0 .089.29.335.335 0 0 0 .405.148.297.297 0 0 0 .24-.308c-.001-.105.001-.21.004-.314a4.85 4.85 0 0 0-.012-.638c-.115-1.11-.057-2.237-.002-3.328l.012-.245c.024-.49.066-.981.104-1.396.037-.414.162-.74.383-1 .117-.138.211-.202.29-.194.079.008.16.09.25.257.305.557.382 1.175.44 1.812.12 1.31.12 2.705.002 4.525-.006.107-.02.216-.031.321a5.167 5.167 0 0 0-.037.417c-.006.181.04.311.137.386.097.076.238.088.411.037a.593.593 0 0 0 .447-.543l.014-.151c.042-.374.065-.75.068-1.127-.01-1.038-.04-2.093-.069-3.113l-.003-.101a4.835 4.835 0 0 0-.023-.314c-.028-.294-.054-.572.068-.846l.036-.083c.063-.16.143-.311.241-.452a.353.353 0 0 1 .316-.159.348.348 0 0 1 .265.23c.1.252.178.513.23.779.195.88.165 1.789.135 2.668v.031c-.026.75-.038 1.514-.05 2.252l-.013.755c-.004.2.013.404.26.517.333.153.482.11.668-.186.037-.059.071-.12.106-.18.047-.08.095-.164.147-.242.183-.272.364-.449.655-.425.339.028.45.312.559.587.229.601.308 1.25.23 1.888a43.948 43.948 0 0 1-.37 2.566c-.113.675-.405 1.352-.867 2.012-.43.612-1.07 1.043-1.959 1.318-1.581.49-3.064.225-4.532-.807a1.47 1.47 0 0 1-.373-.357c-.25-.36-.482-.732-.694-1.115a44.58 44.58 0 0 1-.968-1.909c-.49-1.024-1.116-1.83-1.916-2.466a1.386 1.386 0 0 1-.335-.39.319.319 0 0 1-.038-.26.379.379 0 0 1 .222-.215c.158-.07.329-.106.502-.105.093 0 .187.01.278.027.703.133 1.174.394 1.48.824.108.17.192.354.248.548l.052.15c.069.188.165.362.402.363h.001c.208 0 .358-.13.413-.355.032-.122.048-.248.048-.374Z"></path>
  <path d="M4.497 8.024a.47.47 0 0 0 .39-.23l.018-.028-.538-.586.344.024c.344.024.67.047.997.055.235.002.468-.023.697-.073a.333.333 0 0 0 .225-.151.237.237 0 0 0 .017-.201.46.46 0 0 0-.288-.241 1.244 1.244 0 0 0-.363-.03l-.097.002c-.412-.002-.824-.002-1.27-.002h-.433l.076-.08c.08-.086.137-.147.199-.205.094-.089.27-.252.129-.44-.1-.135-.265-.14-.463-.016l-.124.08-.05.031-.273.178c-.203.132-.412.269-.622.395-.175.106-.276.258-.278.416a.447.447 0 0 0 .235.377c.396.248.808.47 1.232.665a.562.562 0 0 0 .24.06Z"></path>
  <path d="m17.801 6.992.03.018c.043.02.09.027.137.021h.044l1.585.07.395.018a2.36 2.36 0 0 1-.048.07.848.848 0 0 0-.14.265c-.028.12-.03.325.057.403.069.05.152.075.237.07a.34.34 0 0 0 .18-.043c.406-.274.726-.657.923-1.105.047-.101.02-.318-.068-.386a12.539 12.539 0 0 0-1.11-.773.261.261 0 0 0-.182-.007.309.309 0 0 0-.183.107c-.055.094.004.272.066.365a1.1 1.1 0 0 0 .227.22l.057.046-.391.012c-.377.012-.733.023-1.088.04a5.877 5.877 0 0 0-.736.072.278.278 0 0 0-.195.13.229.229 0 0 0-.012.199c.033.084.13.14.215.188Z"></path>
</svg>