<svg width="46" height="46" fill="currentColor" viewBox="0 0 24 24" xmlns="http://www.w3.org/2000/svg">
  <path d="M21.125 5.987c-.382-.033-.669.044-.876.234-.269.247-.399.68-.408 1.36l-.666.757c-.511.581-1.04 1.182-1.552 1.774-.513.593-1.03 1.2-1.53 1.787l-.646.757a3.963 3.963 0 0 1-.182-.01 1.558 1.558 0 0 0-.563.028c-.246.075-.392.005-.607-.168-1.188-.953-2.292-1.694-3.375-2.264a.606.606 0 0 1-.34-.421 1.302 1.302 0 0 0-.587-.789 1.284 1.284 0 0 0-.968-.147 1.365 1.365 0 0 0-.82.57 1.386 1.386 0 0 0-.22.979c.014.09.03.18.046.267l.013.07-4.35 4.216a2.73 2.73 0 0 0-.289-.025c-.718-.02-1.16.297-1.392 1-.173.526.017.996.175 1.304a1.397 1.397 0 0 0 1.152.783 1.403 1.403 0 0 0 1.245-.66c.375-.567.433-1.099.177-1.624l4.22-4.052 1.175-.366 3.488 2.412c.027.518.155.907.413 1.256a1.15 1.15 0 0 0 1.374.404c.696-.266 1.083-.857 1.065-1.623l4.232-5.298c.6.118 1.066.063 1.386-.165.247-.176.397-.448.446-.81a1.36 1.36 0 0 0-.267-1.037 1.368 1.368 0 0 0-.969-.5Z"></path>
</svg>