<svg width="46" height="46" fill="currentColor" viewBox="0 0 24 24" xmlns="http://www.w3.org/2000/svg">
  <path d="M13.081 20.137c1.871-.305 5.12-2.571 6.404-5.655a3.845 3.845 0 0 1-.324-.27c-.25-.252-.287-.534-.11-.73.177-.2.458-.21.748-.016.206.138.402.289.603.433.301.217.606.43.902.652.112.08.21.176.292.287a.497.497 0 0 1 .008.58.506.506 0 0 1-.578.206 4.304 4.304 0 0 1-.496-.227 8.405 8.405 0 0 1-1.275 2.054c-1.186 1.387-2.575 2.506-4.242 3.273-1.943.892-3.887.836-5.837.043-1.34-.546-2.522-1.34-3.583-2.316a17.07 17.07 0 0 1-1.226-1.223c-.362-.409-.674-.862-1.024-1.317-.097.064-.197.12-.3.171a.496.496 0 0 1-.599-.132c-.123-.162-.125-.376.004-.578a.874.874 0 0 1 .157-.19c.455-.398.912-.795 1.374-1.185.09-.063.188-.112.291-.147.22-.094.406-.02.561.136a.482.482 0 0 1 .033.577 1.834 1.834 0 0 1-.332.359c-.133.118-.281.219-.432.335.053.285.187.55.386.762 1.31 1.529 2.799 2.834 4.663 3.66.78.345 1.616.55 2.467.607.175.013.35.002.512.002-.1-2.875-.2-5.712-.302-8.589l-2.375-.1c-.005.12-.005.238-.017.354-.011.205-.038.41-.08.611a.516.516 0 0 1-.511.4.493.493 0 0 1-.46-.405 2.886 2.886 0 0 1-.06-.734c.027-.48.083-.959.139-1.437.018-.15.057-.296.113-.437a.373.373 0 0 1 .386-.256.358.358 0 0 1 .346.347l.082.686c.806.116 1.61.045 2.44.054V5.416c-.155-.054-.324-.103-.486-.171-.632-.265-.966-.772-.886-1.335.099-.7.62-1.285 1.26-1.346a6.712 6.712 0 0 1 1.313-.007c.906.091 1.341.79 1.056 1.653-.182.553-.539.95-1.095 1.152-.051.019-.104.035-.155.054-.011.005-.018.02-.065.074l.168 5.217h3.016c.03-.181.054-.341.085-.5.021-.107.025-.234.088-.31.079-.096.206-.198.319-.206.088-.005.208.112.273.204a.612.612 0 0 1 .09.311c.03.59.062 1.181.067 1.773-.005.19-.048.38-.125.554a.41.41 0 0 1-.43.26.397.397 0 0 1-.374-.281c-.067-.233-.097-.477-.151-.76H12.95l.13 8.385Zm-.825-15.499c.48-.021.8-.255.889-.67.058-.272-.05-.494-.32-.582a2.67 2.67 0 0 0-.68-.15 1.16 1.16 0 0 0-.552.115c-.271.135-.363.414-.362.695 0 .255.217.373.428.446.193.067.398.099.597.146Z"></path>
</svg>