<svg width="46" height="46" fill="currentColor" viewBox="0 0 24 24" xmlns="http://www.w3.org/2000/svg">
  <path d="M21.177 8.846c-.303.179-.54.336-.791.465a5.377 5.377 0 0 0-2.151 1.992 3.25 3.25 0 0 0-.482 2.07c.106 1.152.709 1.934 1.793 2.34.55.206 1.11.386 1.647.618.704.303.88.709.573 1.4a10.688 10.688 0 0 1-.878 1.619c-.401.597-.83 1.19-1.333 1.701-1.282 1.301-2.766 1.411-4.273.375-.33-.227-.641-.483-.952-.736-.366-.298-.76-.382-1.196-.183a28.96 28.96 0 0 0-1.08.521c-.522.269-1.032.564-1.56.82-.78.38-1.597.395-2.429.198-1.668-.394-2.953-1.35-3.947-2.713a10.844 10.844 0 0 1-1.878-4.136c-.48-2.231-.097-4.315 1.188-6.203 1.067-1.566 2.585-2.42 4.476-2.413 1.222.004 2.45.183 3.664.365 1.003.15 1.967.136 2.924-.21a18.253 18.253 0 0 1 1.524-.501 4.27 4.27 0 0 1 4.822 1.993c.094.16.179.326.339.618Zm-.843 8.6c-.586-.22-1.1-.372-1.58-.598-1.67-.787-2.553-2.45-2.285-4.278.246-1.666 1.275-2.777 2.631-3.647.2-.127.41-.235.66-.377-.91-.99-1.966-1.413-3.257-1.102-.44.115-.87.263-1.287.444-1.328.548-2.669.633-4.083.333a17.331 17.331 0 0 0-3.178-.355c-1.566-.037-2.765.705-3.61 2.015a6.27 6.27 0 0 0-1.014 3.414c-.017 2.363.892 4.368 2.454 6.095.525.58 1.183.994 1.914 1.29.945.384 1.867.415 2.768-.128.344-.206.693-.405 1.049-.588.375-.203.762-.386 1.157-.547.868-.335 1.675-.214 2.405.384.325.278.667.535 1.025.77.867.536 1.606.482 2.335-.224a8.019 8.019 0 0 0 1.896-2.9Z"></path>
  <path d="M16.014 2.955c-.023 1.215-.548 2.163-1.583 2.793-.476.29-.998.508-1.512.729-.434.186-.891.167-1.332.01-.44-.155-.543-.386-.45-.868.256-1.346 1.038-2.33 2.171-3.031.494-.306 1.073-.47 1.593-.737.572-.293 1.057.074 1.111.704.012.133.002.267.002.4Zm-3.998 2.432c1.844-.239 2.901-1.2 2.814-2.522-1.273.447-2.231 1.195-2.814 2.522Z"></path>
</svg>