<svg width="46" height="46" fill="currentColor" viewBox="0 0 24 24" xmlns="http://www.w3.org/2000/svg">
  <path d="M16.828 11.736a27.683 27.683 0 0 1-.198-.019 9.873 9.873 0 0 0-.83-.057 813.608 813.608 0 0 0-4.187-.037 850.334 850.334 0 0 1-3.131-.025 1.463 1.463 0 0 1-.185-.019l-.041-.006.053-.057c.06-.066.11-.12.162-.172a10.121 10.121 0 0 0 1.819-2.54l.015-.028a1.21 1.21 0 0 0 .109-.257.353.353 0 0 0-.01-.16.619.619 0 0 1-.013-.062l-.005-.042-.042.008a.718.718 0 0 1-.074.01.304.304 0 0 0-.178.051c-.058.055-.11.116-.155.181-.035.05-.073.097-.115.141-.338.346-.676.69-1.016 1.035-.436.443-.871.887-1.305 1.332a4.047 4.047 0 0 0-.522.612c-.218.339-.185.62.111.943.284.309.582.643.91 1.023.24.276.477.554.714.832.257.302.515.603.774.903.1.12.215.226.345.313a.32.32 0 0 0 .16.039.229.229 0 0 0 .15-.044.323.323 0 0 0 .057-.313 2.116 2.116 0 0 0-.248-.361l-.062-.08-.896-1.152-1.043-1.344a.87.87 0 0 1-.076-.127l-.016-.03.566.028c.46.023.895.046 1.335.063.936.035 2.303.07 3.625.104 1.138.028 2.212.056 3.002.083.154.004.31-.007.462-.033.233-.037.351-.157.35-.356 0-.223-.132-.357-.37-.38Z"></path>
  <path d="M2.938 9.451c-.832 3.27-.103 6.155 2.167 8.575l.18.186c1.22 1.22 2.738 1.972 3.942 2.496.517.226 3.167.5 3.885.393 4.262-.636 7.066-3.04 8.043-7.062.187-.788.28-1.595.277-2.405.005-1.907-.798-4.124-2.454-5.784-.17-.141-.34-.287-.505-.429-.356-.306-.724-.623-1.11-.894-2.943-2.071-6-2.083-9.088-.984-2.796.993-4.591 2.982-5.337 5.908Zm5.349-4.93c2.709-1.125 5.427-1.324 8.078.362.485.309 1.777 1.353 1.98 1.51l.013.01.011.012c1.034 1.096 2.219 3.102 2.192 5.163a10.516 10.516 0 0 1-.355 2.61c-.673 2.448-2.283 4.232-4.921 5.452-2.683 1.284-6.53-.014-7.553-.69a11.952 11.952 0 0 1-2.926-2.844c-1.263-1.788-1.546-4.358-.868-6.707a7.617 7.617 0 0 1 4.349-4.878Z"></path>
</svg>