<svg width="46" height="46" fill="currentColor" viewBox="0 0 24 24" xmlns="http://www.w3.org/2000/svg">
  <path d="M11.791 9.604c-.676.788-1.373 1.53-1.985 2.334-.826 1.083-1.59 2.214-2.373 3.33-.216.306-.52.42-.783.26-.271-.162-.336-.515-.118-.806 1.065-1.423 2.124-2.85 3.214-4.254.475-.611 1.02-1.167 1.531-1.751.386-.442.761-.44 1.134.01 1.27 1.536 2.54 3.07 3.813 4.603.42.503.87.98 1.29 1.483a.691.691 0 0 1 .168.422c-.008.23-.277.318-.494.16a4.054 4.054 0 0 1-.597-.533 1468.11 1468.11 0 0 1-4.493-4.916l-.307-.342Z"></path>
</svg>