<svg width="46" height="46" fill="currentColor" viewBox="0 0 24 24" xmlns="http://www.w3.org/2000/svg">
  <path d="M21.219 14.51c-.023-.541-.047-1.306-.072-2.116a162.924 162.924 0 0 0-.13-3.485 83.95 83.95 0 0 0-.222-3.078c-.152-1.605-1.444-2.767-3.142-2.826a196.27 196.27 0 0 0-3.803-.08h-.012a54.346 54.346 0 0 0-1.069.002c-.575.005-1.17.01-1.754-.021-1.32-.07-2.718-.012-4.535.19-1.176.13-2.06.475-2.784 1.086-.592.5-.88 1.08-.882 1.773a19.366 19.366 0 0 1-.048 1.285 9.8 9.8 0 0 0-.03 1.263c.09 1.432.233 4.572.123 6.205-.039.579-.028 1.17-.018 1.743l.002.128a8.29 8.29 0 0 0 .438 2.632c.296.844.87 1.358 1.708 1.526.524.11 1.056.177 1.59.202 1 .04 2.017.063 3 .085l1.197.028.04-.011.343-.002h.764l.42.001c1.652.003 3.362.007 5.03-.255.58-.09 1.258-.218 1.886-.47 1.25-.502 1.926-1.43 2.006-2.755.053-.86.013-1.726-.025-2.564l-.021-.486Zm-17.356-.94-.006-.226c-.024-1.08-.076-3.324-.137-4.27-.06-.932-.098-2.161.157-3.402l.002-.01a.102.102 0 0 0 .006-.039c-.06-.722.448-1 .986-1.296l.018-.01c.518-.284 1.088-.382 1.628-.459a26.305 26.305 0 0 1 3.69-.223c.514 0 1.02.009 1.517.02.901.018 1.818.03 2.704.042.776.01 1.58.022 2.369.037.366.004.733.036 1.095.094 1.315.219 2.042 1.073 2.103 2.47.044 1.017.085 2.439.125 3.814.037 1.273.075 2.589.114 3.54.013.3.03.607.046.903.027.464.054.944.063 1.417.012.56-.02 1.132-.052 1.67-.049.8-.512 1.367-1.378 1.687a8.056 8.056 0 0 1-1.616.385c-1.848.276-3.743.264-5.576.252l-.242-.002h-.459v.032l-1.222-.03c-1.174-.03-2.387-.06-3.58-.099a5.985 5.985 0 0 1-.92-.127l-.053-.01c-.517-.1-.864-.419-1.028-.95a8.523 8.523 0 0 1-.365-2.504c-.002-.386.003-.78.008-1.16a42.96 42.96 0 0 0 .002-1.547Z"></path>
  <path d="M8.656 10.146c.13-.07.25-.153.362-.248l.079-.062 1.144-.889 1.353-1.05a.875.875 0 0 1 .158-.093l-.03.567c-.023.46-.045.894-.062 1.335-.036.937-.07 2.305-.104 3.629-.029 1.136-.056 2.21-.083 2.997-.004.155.006.31.032.462.037.233.157.352.356.352.223 0 .358-.133.38-.372l.02-.199c.026-.271.054-.552.057-.829.014-1.107.026-2.673.037-4.188.007-1.173.015-2.281.025-3.13a1.47 1.47 0 0 1 .018-.185l.006-.042.056.053c.066.06.12.11.173.163a10.12 10.12 0 0 0 2.54 1.818l.028.015c.082.047.168.083.258.11a.348.348 0 0 0 .16-.011c.02-.005.04-.01.06-.012l.043-.006-.008-.042a.734.734 0 0 1-.009-.074.305.305 0 0 0-.052-.177 1.144 1.144 0 0 0-.181-.156 1.361 1.361 0 0 1-.14-.114l-1.034-1.014c-.444-.437-.888-.873-1.333-1.308a4.05 4.05 0 0 0-.613-.521c-.339-.219-.62-.185-.942.11-.31.285-.644.583-1.024.911-.276.239-.553.477-.832.713-.301.257-.602.516-.903.775-.12.099-.226.215-.313.344-.048.078-.055.245.005.31a.322.322 0 0 0 .313.058Z"></path>
</svg>