<svg width="46" height="46" fill="currentColor" viewBox="0 0 24 24" xmlns="http://www.w3.org/2000/svg">
  <path d="M21.218 14.51c-.022-.541-.046-1.306-.07-2.116a165.023 165.023 0 0 0-.13-3.485 84.295 84.295 0 0 0-.223-3.078c-.152-1.605-1.444-2.767-3.143-2.826-1.267-.044-2.556-.062-3.803-.08h-.012a54.127 54.127 0 0 0-1.067.002c-.576.004-1.171.01-1.755-.021-1.32-.07-2.718-.012-4.535.19-1.176.13-2.06.474-2.784 1.086-.592.5-.88 1.08-.882 1.773a19.371 19.371 0 0 1-.048 1.284c-.037.42-.047.843-.03 1.264.09 1.432.233 4.572.123 6.205-.04.58-.028 1.173-.018 1.747l.002.124c.003.895.151 1.784.438 2.631.296.845.87 1.359 1.708 1.527.524.109 1.056.176 1.59.201 1 .041 2.017.064 3 .086l1.197.028.04-.012h1.527c1.652.003 3.362.007 5.03-.255.58-.09 1.258-.218 1.886-.47 1.251-.503 1.926-1.43 2.007-2.755.052-.86.012-1.727-.026-2.565-.007-.162-.015-.323-.021-.485Zm-17.356-.94-.005-.226c-.025-1.08-.076-3.324-.137-4.27-.061-.932-.098-2.161.157-3.402l.002-.01a.102.102 0 0 0 .006-.039c-.06-.722.448-1 .986-1.296l.018-.01c.518-.284 1.088-.382 1.628-.459a26.303 26.303 0 0 1 3.69-.223c.514 0 1.02.009 1.517.02.901.018 1.818.03 2.704.042.776.01 1.579.022 2.369.037a7.5 7.5 0 0 1 1.095.094c1.315.219 2.042 1.073 2.103 2.47.044 1.018.085 2.441.125 3.817.036 1.272.074 2.587.114 3.536.012.302.03.608.046.904.027.465.054.945.063 1.417.011.56-.02 1.132-.052 1.67-.048.8-.513 1.367-1.379 1.687a8.055 8.055 0 0 1-1.615.385c-1.848.276-3.743.264-5.576.252l-.242-.002a30 30 0 0 0-.284 0h-.175v.032l-1.219-.03c-1.174-.03-2.389-.06-3.583-.099a5.985 5.985 0 0 1-.92-.127l-.053-.01c-.518-.1-.864-.419-1.029-.95a8.521 8.521 0 0 1-.364-2.504c-.003-.386.003-.78.008-1.16.007-.507.014-1.031.002-1.547Z"></path>
  <path d="M7.99 13.585c.239.277.477.554.713.832.257.302.516.603.775.903.099.12.215.227.344.314a.32.32 0 0 0 .16.038.228.228 0 0 0 .15-.043.323.323 0 0 0 .058-.313 2.144 2.144 0 0 0-.248-.36l-.063-.08c-.298-.385-.596-.77-.895-1.153L7.94 12.379a.886.886 0 0 1-.075-.126l-.017-.032.567.029c.46.023.894.046 1.334.063.936.035 2.303.07 3.625.103 1.137.03 2.212.057 3.002.084.154.004.31-.008.462-.033.233-.037.351-.157.351-.356 0-.223-.132-.358-.372-.38a27.582 27.582 0 0 1-.198-.02 9.883 9.883 0 0 0-.83-.057 825.167 825.167 0 0 0-4.187-.037 875.466 875.466 0 0 1-3.13-.025 1.469 1.469 0 0 1-.185-.018l-.042-.006.053-.057c.06-.066.11-.12.163-.173a10.121 10.121 0 0 0 1.818-2.54l.015-.028c.047-.08.083-.167.11-.257a.35.35 0 0 0-.011-.16.438.438 0 0 1-.012-.061l-.006-.042-.042.008a.745.745 0 0 1-.074.009.303.303 0 0 0-.177.052c-.058.054-.11.115-.156.18a1.37 1.37 0 0 1-.114.141c-.338.346-.676.69-1.015 1.033L7.49 11.007a4.04 4.04 0 0 0-.521.612c-.219.34-.185.621.11.943.285.309.583.644.91 1.023Z"></path>
</svg>