<svg width="46" height="46" fill="currentColor" viewBox="0 0 24 24" xmlns="http://www.w3.org/2000/svg">
  <path d="M12.887 11.92c2.203-.017 4.407-.032 6.61-.056.44-.005.88-.04 1.317-.082a.362.362 0 0 0 .31-.265c.036-.113-.089-.273-.238-.296-.145-.023-.289-.058-.434-.067-.929-.056-1.857-.136-2.787-.152a340.83 340.83 0 0 0-5.728-.046c-1.812-.002-3.624.02-5.436.025-.291 0-.582-.036-.873-.062a.12.12 0 0 1-.084-.077c-.005-.044.009-.12.038-.136.557-.303 1.107-.621 1.68-.891 1.332-.629 2.581-1.4 3.83-2.172.205-.128.42-.257.503-.509.015-.046.038-.124.019-.14a.567.567 0 0 0-.242-.133.525.525 0 0 0-.283.045 18.73 18.73 0 0 0-.925.447c-2.17 1.133-4.335 2.272-6.506 3.402-.82.426-1.208.839-.225 1.776.283.27.57.54.877.78a571.209 571.209 0 0 0 4.3 3.322c.199.142.407.268.625.378.142.077.284.031.406-.061.135-.102.219-.398.172-.527-.103-.289-.309-.5-.53-.692-.85-.738-1.706-1.47-2.566-2.198-.558-.475-1.123-.944-1.68-1.42-.028-.024-.03-.096-.018-.14a.126.126 0 0 1 .087-.077c.292-.02.584-.044.876-.042 2.302.012 4.603.027 6.905.045v.021Z"></path>
</svg>