<svg width="46" height="46" fill="currentColor" viewBox="0 0 24 24" xmlns="http://www.w3.org/2000/svg">
  <path d="M14.441 11.999c-.667-.528-1.26-1.001-1.858-1.47-.978-.769-1.97-1.52-2.931-2.308-.4-.33-.737-.737-1.097-1.114-.155-.162-.29-.371-.106-.567.203-.216.425-.08.594.089 1.825 1.816 4.085 3.062 6.09 4.643.59.465.668.857.168 1.433a4.97 4.97 0 0 1-.503.518c-1.31 1.124-2.61 2.259-3.944 3.351-.429.35-.948.592-1.437.865-.083.047-.303.028-.316-.01-.048-.14-.1-.343-.034-.444.264-.397.527-.814.874-1.133.838-.768 1.725-1.482 2.589-2.222.508-.436 1.008-.88 1.514-1.317.11-.096.23-.183.397-.314Z"></path>
</svg>