<svg width="46" height="46" fill="currentColor" viewBox="0 0 24 24" xmlns="http://www.w3.org/2000/svg">
  <path d="M11.991 14.407c.528-.667 1.001-1.26 1.47-1.858.769-.978 1.52-1.97 2.309-2.93.329-.401.736-.738 1.114-1.098.162-.155.37-.29.566-.106.217.203.08.425-.089.595-1.816 1.825-3.062 4.084-4.642 6.09-.466.59-.858.667-1.434.167a4.952 4.952 0 0 1-.518-.503c-1.124-1.31-2.258-2.61-3.35-3.944-.351-.429-.593-.948-.866-1.437-.046-.083-.027-.303.01-.316.14-.048.343-.1.444-.034.397.264.815.527 1.133.874.768.838 1.482 1.725 2.223 2.589.435.508.879 1.008 1.316 1.514.096.11.182.23.314.397Z"></path>
</svg>