<svg width="46" height="46" fill="currentColor" viewBox="0 0 24 24" xmlns="http://www.w3.org/2000/svg">
  <path d="M2.938 9.452c-.832 3.27-.103 6.154 2.167 8.575.06.062.12.125.18.185 1.22 1.22 2.738 1.972 3.942 2.496.517.226 3.167.5 3.884.393 4.263-.636 7.067-3.04 8.044-7.062.187-.788.28-1.595.277-2.405.005-1.907-.798-4.124-2.454-5.784-.17-.141-.34-.287-.505-.429a14.907 14.907 0 0 0-1.11-.894c-2.943-2.071-6.001-2.083-9.088-.984-2.796.994-4.591 2.982-5.337 5.909Zm5.349-4.93c2.708-1.126 5.427-1.325 8.078.361.484.309 1.777 1.353 1.98 1.51l.013.01.011.012c1.034 1.097 2.219 3.102 2.192 5.164a10.521 10.521 0 0 1-.355 2.61c-.673 2.447-2.283 4.231-4.922 5.451-2.682 1.285-6.529-.014-7.552-.69a11.954 11.954 0 0 1-2.926-2.844C3.543 14.318 3.26 11.75 3.938 9.4a7.617 7.617 0 0 1 4.349-4.877Z"></path>
  <path d="M8.667 10.152c.129-.07.25-.153.36-.248l.08-.062 1.146-.89 1.352-1.05a.877.877 0 0 1 .125-.075l.032-.017-.03.576c-.022.457-.044.888-.061 1.326-.036.936-.07 2.302-.104 3.624a379.24 379.24 0 0 1-.084 3.003 2.4 2.4 0 0 0 .033.462c.037.233.157.35.356.35.223 0 .358-.131.38-.37l.02-.201c.026-.271.054-.551.057-.828.014-1.104.026-2.667.037-4.177.008-1.178.016-2.29.025-3.141.002-.062.008-.123.018-.184l.006-.042.056.051c.066.061.121.112.174.164a10.12 10.12 0 0 0 2.54 1.818l.028.015c.081.047.167.084.257.11a.351.351 0 0 0 .16-.011.438.438 0 0 1 .061-.012l.043-.006-.008-.042c-.005-.023-.007-.048-.01-.074a.302.302 0 0 0-.051-.177 1.146 1.146 0 0 0-.181-.155 1.373 1.373 0 0 1-.141-.115c-.345-.337-.688-.674-1.031-1.012-.444-.437-.89-.874-1.336-1.31a4.03 4.03 0 0 0-.612-.521c-.339-.218-.62-.185-.943.11-.308.284-.643.582-1.023.911-.277.24-.556.478-.835.715l-.9.773c-.12.099-.226.215-.314.345-.048.077-.054.245.006.31a.324.324 0 0 0 .312.057Z"></path>
</svg>