<svg width="46" height="46" fill="currentColor" viewBox="0 0 24 24" xmlns="http://www.w3.org/2000/svg">
  <path d="M12.02 11.06c.018-2.204.033-4.407.057-6.61.005-.44.04-.88.082-1.317a.362.362 0 0 1 .265-.31c.113-.036.273.089.296.238.023.144.058.288.067.434.056.928.136 1.857.152 2.786.035 1.91.043 3.82.046 5.729.002 1.812-.02 3.624-.025 5.436 0 .29.036.582.062.872a.117.117 0 0 0 .076.084c.045.005.121-.008.137-.038.303-.557.621-1.107.891-1.68.629-1.331 1.4-2.58 2.172-3.83.127-.204.257-.42.509-.502.046-.015.124-.039.14-.02.063.069.11.152.133.243a.526.526 0 0 1-.045.282c-.141.312-.289.622-.447.925-1.133 2.17-2.273 4.336-3.402 6.507-.426.819-.84 1.208-1.776.225-.27-.283-.54-.57-.78-.878a573.495 573.495 0 0 1-3.322-4.3 4.7 4.7 0 0 1-.378-.624c-.077-.142-.031-.284.061-.407.102-.134.397-.218.527-.172.289.104.5.31.692.53.738.851 1.47 1.706 2.198 2.566.475.559.944 1.123 1.42 1.681.024.028.096.03.14.018a.126.126 0 0 0 .077-.088c.02-.291.044-.584.042-.875a2646.13 2646.13 0 0 0-.045-6.905h-.021Z"></path>
</svg>