<svg width="46" height="46" fill="currentColor" viewBox="0 0 24 24" xmlns="http://www.w3.org/2000/svg">
  <path d="M11.566 11.036 6.85 6.402c-.314-.307-.65-.594-.989-.873a.362.362 0 0 0-.407-.032c-.105.054-.13.255-.04.378.086.118.163.245.26.354.617.696 1.217 1.409 1.862 2.078a339.772 339.772 0 0 0 4.02 4.082c1.28 1.283 2.576 2.548 3.86 3.827.207.205.386.437.574.66a.117.117 0 0 1 .005.114c-.028.035-.09.08-.124.07-.607-.18-1.221-.344-1.817-.558-1.386-.497-2.815-.835-4.244-1.172-.235-.055-.479-.116-.716.004-.043.022-.115.06-.112.085.003.094.03.185.077.266a.53.53 0 0 0 .231.168c.32.12.644.235.97.338 2.336.733 4.673 1.458 7.007 2.195.88.278 1.447.26 1.414-1.096-.01-.391-.021-.785-.069-1.172a584.504 584.504 0 0 0-.691-5.391 4.671 4.671 0 0 0-.174-.708c-.046-.155-.179-.223-.33-.244-.168-.024-.436.126-.495.25-.131.278-.135.573-.115.865.08 1.123.17 2.246.26 3.368.06.732.128 1.462.185 2.193.003.036-.048.089-.086.112a.128.128 0 0 1-.117-.008c-.22-.193-.444-.382-.649-.59a2554.195 2554.195 0 0 1-4.85-4.914l.015-.015Z"></path>
</svg>