<svg width="46" height="46" fill="currentColor" viewBox="0 0 24 24" xmlns="http://www.w3.org/2000/svg">
  <path d="M11.566 12.94c-1.57 1.546-3.142 3.091-4.715 4.635-.314.307-.65.594-.989.873a.362.362 0 0 1-.406.032c-.105-.054-.13-.255-.04-.378.085-.118.162-.245.26-.354.616-.696 1.216-1.41 1.861-2.078a340.51 340.51 0 0 1 4.02-4.083c1.28-1.282 2.576-2.547 3.86-3.826.207-.205.387-.437.574-.66a.119.119 0 0 0 .005-.114c-.028-.036-.09-.08-.124-.07-.607.18-1.221.343-1.817.557-1.386.498-2.815.836-4.244 1.173-.235.055-.479.116-.716-.004-.043-.022-.115-.06-.112-.085a.567.567 0 0 1 .077-.266.525.525 0 0 1 .231-.168c.32-.12.644-.235.97-.337 2.336-.734 4.673-1.46 7.007-2.196.88-.278 1.448-.26 1.415 1.097-.01.39-.022.784-.07 1.172a584.565 584.565 0 0 1-.69 5.39c-.04.24-.099.477-.175.708-.046.155-.179.223-.33.244-.168.024-.436-.126-.495-.25-.131-.278-.135-.573-.114-.865.08-1.123.17-2.246.26-3.368.059-.731.127-1.462.184-2.193.003-.036-.048-.089-.086-.112a.126.126 0 0 0-.117.008c-.22.193-.443.382-.649.59a2622.58 2622.58 0 0 0-4.85 4.914l.015.014Z"></path>
</svg>