<svg width="46" height="46" fill="currentColor" viewBox="0 0 24 24" xmlns="http://www.w3.org/2000/svg">
  <path d="M21.218 14.51c-.022-.541-.046-1.306-.071-2.116a163.768 163.768 0 0 0-.13-3.485 83.98 83.98 0 0 0-.223-3.078c-.151-1.605-1.443-2.767-3.142-2.826a196.168 196.168 0 0 0-3.802-.08h-.013a54.142 54.142 0 0 0-1.067.002c-.576.005-1.171.01-1.755-.021-1.32-.07-2.718-.012-4.535.19-1.176.13-2.06.475-2.784 1.086-.592.5-.88 1.08-.882 1.773a19.35 19.35 0 0 1-.048 1.285 9.86 9.86 0 0 0-.03 1.263c.09 1.432.233 4.572.123 6.205-.039.579-.028 1.17-.018 1.743l.002.128c.003.895.151 1.784.438 2.632.296.844.87 1.358 1.707 1.526.525.11 1.057.177 1.592.202 1 .04 2.016.063 3 .085l1.196.028.04-.011.343-.001h1.184c1.652.003 3.362.007 5.03-.254.58-.091 1.258-.218 1.886-.47 1.25-.503 1.926-1.43 2.006-2.756.053-.86.013-1.726-.025-2.563a88.432 88.432 0 0 1-.022-.487Zm-17.356-.94-.005-.226c-.025-1.079-.076-3.324-.138-4.27-.06-.932-.097-2.161.158-3.402l.002-.01a.103.103 0 0 0 .006-.039c-.061-.722.447-1 .985-1.296l.019-.01c.517-.284 1.088-.382 1.627-.459a26.304 26.304 0 0 1 3.691-.223c.514 0 1.02.009 1.517.02.9.018 1.817.03 2.704.043.776.01 1.579.02 2.368.036.367.004.733.036 1.095.094 1.315.219 2.043 1.073 2.103 2.47.045 1.017.086 2.439.125 3.814.037 1.273.075 2.589.115 3.54.012.3.03.607.046.903.026.464.053.945.063 1.417.011.56-.02 1.132-.052 1.67-.05.8-.513 1.367-1.379 1.687a8.056 8.056 0 0 1-1.615.386c-1.848.275-3.744.263-5.576.25h-.702v.03l-1.218-.03c-1.175-.028-2.39-.058-3.584-.098a6.025 6.025 0 0 1-.92-.127l-.052-.01c-.518-.1-.864-.419-1.029-.95a8.524 8.524 0 0 1-.364-2.504c-.003-.386.003-.78.008-1.16a42.62 42.62 0 0 0 .002-1.547Z"></path>
  <path d="m7.198 12.199.199.019c.271.026.552.054.83.057a813.6 813.6 0 0 0 4.187.037c1.173.008 2.281.016 3.13.025.062.002.124.008.185.019l.042.005-.053.058c-.06.065-.11.12-.163.172a10.118 10.118 0 0 0-1.818 2.54l-.015.028a1.169 1.169 0 0 0-.11.257.351.351 0 0 0 .011.16c.005.02.01.041.012.062l.006.042.042-.008a.765.765 0 0 1 .074-.01.303.303 0 0 0 .177-.052c.058-.054.11-.115.156-.18a1.3 1.3 0 0 1 .114-.141l1.011-1.03c.438-.445.875-.89 1.31-1.337.195-.186.37-.391.522-.612.219-.339.185-.62-.11-.943a41.187 41.187 0 0 1-.91-1.023 136.54 136.54 0 0 1-.714-.832 207.22 207.22 0 0 0-.775-.903 1.602 1.602 0 0 0-.344-.314c-.078-.048-.245-.055-.31.006a.323.323 0 0 0-.058.312c.07.129.153.25.248.361l.063.08.895 1.153c.349.447.697.895 1.044 1.344.029.04.054.082.075.126l.017.031-.567-.029c-.46-.023-.894-.045-1.334-.062-.936-.036-2.303-.07-3.624-.104-1.138-.03-2.213-.056-3.003-.084a2.424 2.424 0 0 0-.462.033c-.233.037-.351.157-.35.357 0 .222.131.357.37.38Z"></path>
</svg>