<svg width="46" height="46" fill="currentColor" viewBox="0 0 24 24" xmlns="http://www.w3.org/2000/svg">
  <path d="M11.094 11.92c-2.204-.018-4.407-.032-6.61-.056-.44-.005-.88-.04-1.317-.082a.36.36 0 0 1-.31-.265c-.036-.113.088-.273.238-.296.144-.023.288-.058.434-.067.928-.056 1.857-.136 2.786-.152 1.91-.035 3.82-.043 5.729-.046 1.812-.002 3.624.02 5.436.025.29 0 .582-.036.872-.062a.12.12 0 0 0 .084-.077c.005-.044-.008-.12-.038-.136-.557-.303-1.107-.621-1.68-.891-1.331-.629-2.58-1.4-3.83-2.173-.204-.127-.42-.256-.502-.508-.015-.046-.039-.124-.02-.14a.567.567 0 0 1 .243-.133.524.524 0 0 1 .282.045c.312.141.622.289.925.447 2.17 1.133 4.339 2.267 6.507 3.402.819.426 1.208.839.225 1.775-.283.27-.57.54-.878.78a573.033 573.033 0 0 1-4.3 3.323 4.671 4.671 0 0 1-.624.378c-.142.077-.284.031-.407-.061-.134-.102-.218-.398-.172-.527.104-.289.31-.5.53-.692.851-.738 1.706-1.47 2.566-2.198.559-.475 1.123-.944 1.681-1.42.028-.024.03-.096.018-.14a.127.127 0 0 0-.088-.077c-.292-.02-.584-.044-.875-.042-2.302.012-4.604.027-6.905.045v.021Z"></path>
</svg>