<svg width="46" height="46" fill="currentColor" viewBox="0 0 24 24" xmlns="http://www.w3.org/2000/svg">
  <path d="M21.935 13.974c-.07-1.658-.14-3.106-.216-4.427a88.713 88.713 0 0 0-.239-3.285c-.164-1.733-1.565-2.987-3.406-3.05-1.362-.047-2.749-.066-4.09-.085a54.776 54.776 0 0 0-1.147.001c-.617.005-1.254.01-1.878-.022-1.416-.074-2.918-.012-4.869.202-1.268.14-2.223.51-3.004 1.168-.645.542-.959 1.17-.96 1.921a19.697 19.697 0 0 1-.052 1.369c-.04.45-.05.902-.031 1.353l.036.564c.097 1.474.197 2.997.096 4.501-.042.62-.03 1.253-.02 1.864l.003.136c.019 1.05.173 1.971.471 2.82.323.914.948 1.47 1.86 1.653.564.117 1.137.189 1.712.215 1.071.044 2.16.068 3.215.092l1.285.03h.001a.07.07 0 0 0 .04-.014h1.639c1.774.005 3.608.008 5.4-.271.624-.098 1.354-.234 2.03-.504 1.356-.543 2.088-1.543 2.175-2.973.056-.92.014-1.845-.027-2.74a149.48 149.48 0 0 1-.024-.518ZM3.327 12.972c-.022-.96-.07-1.992-.153-3.25-.065-.991-.104-2.3.17-3.626a.144.144 0 0 0 .008-.056c-.063-.745.47-1.037 1.037-1.345l.02-.011c.548-.3 1.156-.404 1.731-.485 1.31-.172 2.63-.251 3.951-.238.55 0 1.093.01 1.626.02.968.02 1.952.034 2.904.046.83.011 1.69.023 2.534.04.391.004.782.037 1.169.099 1.39.23 2.158 1.129 2.222 2.6.053 1.207.102 2.434.149 3.621.035.891.07 1.783.107 2.674.014.321.032.648.05.963.028.496.057 1.008.067 1.512a21.72 21.72 0 0 1-.055 1.78c-.051.835-.54 1.429-1.453 1.764a8.63 8.63 0 0 1-1.724.41c-1.978.293-4.009.28-5.972.268l-.26-.002h-.45a.083.083 0 0 0-.066.033l-1.29-.032c-1.257-.03-2.556-.062-3.833-.104a6.42 6.42 0 0 1-.979-.135l-.058-.011c-.54-.103-.901-.435-1.074-.987a9.01 9.01 0 0 1-.389-2.66c-.002-.412.003-.83.01-1.237.006-.541.014-1.1.001-1.651Z"></path>
  <path d="m7.746 14.033.662.6a245.46 245.46 0 0 0 2.55 2.294.908.908 0 0 0 .602.246.925.925 0 0 0 .62-.26 3.28 3.28 0 0 0 .613-.732c.64-1.069 1.272-2.167 1.883-3.228l.083-.144a.683.683 0 0 0 .07-.241c.005-.033.01-.067.017-.098a.082.082 0 0 0-.033-.085l-.089-.063a.082.082 0 0 0-.092-.002 2.722 2.722 0 0 1-.108.066c-.087.047-.17.104-.244.169a11.487 11.487 0 0 0-1.8 2.123c-.052.08-.11.161-.165.239v-.192l-.003-1.321-.019-5.875a3.189 3.189 0 0 0-.042-.497.447.447 0 0 0-.17-.308.266.266 0 0 0-.217-.033c-.135.033-.239.178-.332.329a.479.479 0 0 0-.047.249c0 .023 0 .045-.002.067l-.049.816c-.04.65-.08 1.322-.103 1.985a475.33 475.33 0 0 0-.106 3.642l-.047 1.721a1.224 1.224 0 0 1-.013.129l-.004-.003a3.056 3.056 0 0 1-.17-.13 2127.04 2127.04 0 0 1-2.53-2.125l-.072-.063a.775.775 0 0 0-.324-.207.682.682 0 0 0-.513.084c-.176.132-.188.362-.03.587a1.5 1.5 0 0 0 .224.26Z"></path>
</svg>