<svg width="46" height="46" fill="currentColor" viewBox="0 0 24 24" xmlns="http://www.w3.org/2000/svg">
  <path d="M9.638 12.197c.788.676 1.53 1.373 2.334 1.986 1.084.825 2.214 1.589 3.33 2.372.306.216.42.52.26.784-.162.27-.515.335-.806.118-1.423-1.065-2.85-2.124-4.254-3.215-.611-.475-1.167-1.02-1.751-1.53-.442-.387-.44-.762.01-1.134 1.536-1.27 3.07-2.54 4.603-3.813.503-.42.98-.87 1.483-1.29a.692.692 0 0 1 .422-.169c.229.008.318.278.16.494a4.06 4.06 0 0 1-.533.597A1466.915 1466.915 0 0 1 9.98 11.89c-.098.09-.197.177-.342.307Z"></path>
</svg>