<svg width="46" height="46" fill="currentColor" viewBox="0 0 24 24" xmlns="http://www.w3.org/2000/svg">
  <path d="M12.975 12.444c1.545 1.57 3.09 3.142 4.634 4.715.307.314.594.65.873.989a.362.362 0 0 1 .032.407c-.054.104-.256.129-.378.04-.118-.086-.245-.163-.354-.26-.696-.617-1.41-1.216-2.078-1.862a342.331 342.331 0 0 1-4.083-4.02c-1.283-1.279-2.548-2.576-3.826-3.86-.205-.207-.437-.386-.66-.573a.118.118 0 0 0-.114-.005c-.036.028-.08.09-.07.123.18.608.343 1.222.557 1.818.498 1.386.836 2.814 1.173 4.244.055.235.116.478-.004.715-.022.043-.061.115-.085.113a.568.568 0 0 1-.266-.077.525.525 0 0 1-.168-.232 18.53 18.53 0 0 1-.337-.97c-.734-2.335-1.46-4.673-2.196-7.007-.278-.88-.26-1.447 1.096-1.414.392.01.785.021 1.172.07 1.798.221 3.595.452 5.391.69.24.04.477.098.708.175.155.045.223.178.244.33.024.167-.126.435-.25.494-.278.131-.573.136-.865.115-1.123-.08-2.246-.17-3.368-.26-.731-.06-1.462-.127-2.193-.185-.036-.003-.089.048-.112.087a.126.126 0 0 0 .008.116c.193.22.382.444.59.649 1.636 1.619 3.274 3.236 4.914 4.85l.014-.015Z"></path>
</svg>