<svg width="46" height="46" fill="currentColor" viewBox="0 0 24 24" xmlns="http://www.w3.org/2000/svg">
  <path d="M2.938 9.451c-.832 3.27-.103 6.155 2.167 8.575.06.063.12.126.18.186 1.22 1.22 2.738 1.972 3.942 2.496.517.226 3.167.5 3.884.393 4.263-.636 7.067-3.04 8.044-7.062.187-.788.28-1.595.277-2.405.005-1.907-.798-4.124-2.454-5.784-.17-.141-.34-.287-.505-.429a14.907 14.907 0 0 0-1.11-.894c-2.943-2.071-6.001-2.083-9.088-.984-2.796.993-4.591 2.982-5.337 5.908Zm5.349-4.93c2.708-1.125 5.427-1.324 8.078.362.484.309 1.777 1.353 1.98 1.51l.013.01.011.012c1.034 1.096 2.219 3.102 2.192 5.163a10.521 10.521 0 0 1-.355 2.61c-.673 2.448-2.283 4.232-4.922 5.452-2.682 1.284-6.529-.014-7.552-.69a11.954 11.954 0 0 1-2.926-2.844c-1.263-1.788-1.546-4.358-.868-6.707a7.617 7.617 0 0 1 4.349-4.878Z"></path>
  <path d="M16.037 10.35c-.239-.277-.477-.554-.713-.833l-.775-.902a1.604 1.604 0 0 0-.344-.314c-.078-.049-.245-.055-.31.005a.322.322 0 0 0-.058.313c.07.128.153.25.248.36l.063.08.89 1.146 1.049 1.351c.029.04.054.082.076.127l.016.03-.567-.028c-.46-.024-.894-.046-1.334-.063-.937-.036-2.305-.07-3.628-.104-1.137-.029-2.21-.056-3-.084a2.39 2.39 0 0 0-.461.033c-.233.037-.351.157-.351.357 0 .223.132.357.371.38l.198.019c.272.026.553.054.83.057 1.107.015 2.673.026 4.187.037 1.174.008 2.282.016 3.131.025.062.002.123.009.184.019l.042.006-.053.057c-.06.065-.11.12-.162.172a10.12 10.12 0 0 0-1.819 2.54l-.015.028a1.183 1.183 0 0 0-.11.258.351.351 0 0 0 .012.159c.004.02.009.041.012.062l.005.042.042-.008a.734.734 0 0 1 .074-.01.305.305 0 0 0 .178-.051 1.14 1.14 0 0 0 .155-.181c.035-.05.074-.097.115-.141.335-.343.67-.685 1.007-1.026.439-.446.877-.893 1.314-1.34.194-.187.369-.392.522-.613.218-.339.185-.62-.111-.943-.282-.307-.58-.641-.91-1.023Z"></path>
</svg>