<svg width="46" height="46" fill="currentColor" viewBox="0 0 24 24" xmlns="http://www.w3.org/2000/svg">
  <path d="M21.958 13.947c-.07-1.657-.14-3.106-.216-4.427a89.133 89.133 0 0 0-.24-3.285c-.163-1.733-1.564-2.987-3.405-3.05a208.994 208.994 0 0 0-4.078-.085h-.013c-.382-.005-.77-.002-1.146.001a30.23 30.23 0 0 1-1.878-.022c-1.417-.074-2.92-.012-4.869.202-1.268.14-2.223.511-3.005 1.168-.644.542-.958 1.17-.96 1.921a19.529 19.529 0 0 1-.051 1.369c-.04.45-.05.901-.032 1.353l.037.566c.097 1.474.197 2.997.095 4.5-.042.62-.03 1.254-.02 1.866l.003.133c.019 1.049.173 1.971.472 2.82.322.915.948 1.47 1.86 1.653.563.117 1.136.189 1.711.216 1.074.043 2.166.067 3.221.091l1.279.03h.002a.07.07 0 0 0 .04-.014h1.188l.45.001c1.773.004 3.608.007 5.4-.272.624-.097 1.354-.233 2.03-.504 1.356-.542 2.088-1.543 2.175-2.973.056-.92.014-1.844-.027-2.739l-.023-.519ZM3.35 12.945c-.022-.958-.07-1.99-.153-3.249-.065-.992-.105-2.3.17-3.627a.147.147 0 0 0 .008-.056c-.064-.745.47-1.036 1.036-1.345l.02-.011c.55-.3 1.157-.404 1.732-.485 1.31-.171 2.63-.251 3.952-.238.55 0 1.093.01 1.624.02.968.02 1.953.034 2.904.046.831.012 1.69.023 2.535.04a8.07 8.07 0 0 1 1.168.099c1.39.23 2.158 1.129 2.223 2.6.053 1.208.101 2.436.148 3.624l.108 2.671c.014.322.032.65.05.965.028.495.057 1.008.067 1.51a22.2 22.2 0 0 1-.056 1.78c-.05.835-.54 1.429-1.452 1.764a8.608 8.608 0 0 1-1.725.41c-1.978.293-4.009.28-5.973.268l-.258-.002h-.45a.08.08 0 0 0-.066.033l-1.283-.032c-1.26-.03-2.56-.062-3.84-.104a6.423 6.423 0 0 1-.98-.136l-.058-.01c-.54-.104-.9-.435-1.073-.987a9.014 9.014 0 0 1-.389-2.66c-.003-.413.003-.832.009-1.237.007-.541.015-1.1.002-1.651Z"></path>
  <path d="M8.469 10.876c.14-.075.272-.165.393-.268l.085-.067a2522.184 2522.184 0 0 0 2.678-2.069.745.745 0 0 1 .102-.062l-.027.538c-.025.49-.049.953-.067 1.423-.066 1.713-.131 3.52-.2 5.521a2.58 2.58 0 0 0 .034.5c.054.337.259.408.42.408h.001c.258 0 .42-.158.446-.432l.02-.211c.03-.29.059-.59.063-.888.018-1.367.031-2.757.044-4.101l.022-2.159c.002-.054.007-.109.015-.163l.007.006c.07.064.128.118.184.173.754.75 1.648 1.386 2.732 1.947l.031.016c.09.05.185.091.285.12a.407.407 0 0 0 .188-.012.497.497 0 0 1 .063-.012.085.085 0 0 0 .056-.034.082.082 0 0 0 .014-.063.68.68 0 0 1-.01-.075.356.356 0 0 0-.065-.21 1.248 1.248 0 0 0-.2-.172 1.436 1.436 0 0 1-.147-.119c-.371-.36-.741-.722-1.11-1.085-.475-.465-.95-.929-1.427-1.392a4.426 4.426 0 0 0-.662-.56c-.376-.242-.703-.204-1.058.122-.33.302-.69.62-1.097.97-.297.256-.595.51-.894.763a238.3 238.3 0 0 0-.966.824 1.752 1.752 0 0 0-.344.377c-.06.096-.068.293.01.377a.382.382 0 0 0 .38.07Z"></path>
</svg>