<svg width="46" height="46" fill="currentColor" viewBox="0 0 24 24" xmlns="http://www.w3.org/2000/svg">
  <path d="M2.938 9.452c-.832 3.27-.103 6.154 2.167 8.574.06.063.12.126.18.186 1.22 1.22 2.738 1.972 3.942 2.496.517.226 3.167.5 3.884.393 4.263-.636 7.067-3.04 8.044-7.062.187-.788.28-1.595.277-2.405.005-1.907-.798-4.124-2.454-5.784-.17-.141-.34-.287-.505-.429-.356-.306-.724-.623-1.11-.894-2.943-2.071-6-2.083-9.088-.984-2.796.993-4.59 2.982-5.337 5.909Zm5.349-4.93c2.709-1.126 5.427-1.325 8.078.361.485.309 1.777 1.353 1.98 1.51l.013.01.011.012c1.034 1.097 2.219 3.102 2.192 5.164a10.516 10.516 0 0 1-.355 2.61c-.673 2.447-2.283 4.231-4.921 5.451-2.683 1.285-6.53-.014-7.553-.69a11.953 11.953 0 0 1-2.926-2.844C3.543 14.318 3.26 11.75 3.938 9.4a7.618 7.618 0 0 1 4.349-4.877Z"></path>
  <path d="M8.32 13.72a.304.304 0 0 0 .053.177c.055.058.115.11.18.155.05.036.097.074.142.115l1.03 1.011c.444.438.89.875 1.336 1.31.187.195.392.37.613.522a.764.764 0 0 0 .413.141c.175 0 .346-.083.53-.252.308-.284.643-.582 1.023-.91.276-.239.553-.477.832-.713l.902-.775a1.6 1.6 0 0 0 .314-.345c.049-.077.055-.245-.005-.31a.326.326 0 0 0-.313-.057 2.13 2.13 0 0 0-.361.248l-.08.063a1266.408 1266.408 0 0 0-2.496 1.939.88.88 0 0 1-.127.075l-.03.017.028-.567c.023-.46.046-.894.062-1.334.036-.936.07-2.303.104-3.625.03-1.138.057-2.213.084-3.002a2.424 2.424 0 0 0-.033-.462c-.037-.233-.157-.351-.356-.351-.223 0-.358.132-.38.371a28.02 28.02 0 0 1-.02.199c-.026.271-.054.552-.057.83a813.672 813.672 0 0 0-.037 4.186 850.455 850.455 0 0 1-.025 3.131 1.457 1.457 0 0 1-.018.184l-.006.042-.059-.054a5.762 5.762 0 0 1-.17-.161 10.123 10.123 0 0 0-2.54-1.819l-.029-.015a1.183 1.183 0 0 0-.257-.11.354.354 0 0 0-.16.012l-.061.012-.043.006.008.041c.005.025.008.05.01.075Z"></path>
</svg>