<svg width="46" height="46" fill="currentColor" viewBox="0 0 24 24" xmlns="http://www.w3.org/2000/svg">
  <path d="M21.282 15.426c-.09-1.432-.233-4.572-.123-6.205.04-.58.029-1.173.018-1.747l-.002-.124a8.291 8.291 0 0 0-.438-2.631c-.296-.845-.87-1.358-1.707-1.527a10.146 10.146 0 0 0-1.591-.201c-1-.04-2.016-.064-3-.086l-1.197-.027-.04.011-.343.001h-1.183c-1.653-.004-3.363-.007-5.03.254-.581.091-1.26.218-1.886.47-1.252.503-1.927 1.43-2.007 2.755-.052.86-.013 1.727.025 2.565l.022.485c.022.541.046 1.306.071 2.116.039 1.24.082 2.643.13 3.485.048.85.118 1.967.223 3.078.151 1.606 1.443 2.768 3.142 2.826 1.267.044 2.556.062 3.803.08h.012c.356.005.718.001 1.068-.002.575-.005 1.17-.01 1.754.021.354.02.713.029 1.085.029a31.293 31.293 0 0 0 3.451-.218c1.176-.13 2.06-.475 2.783-1.087.593-.5.881-1.08.883-1.773 0-.227.005-.457.013-.684.008-.2.021-.403.035-.6.037-.42.047-.843.03-1.264Zm-2.134 4.176-.018.01c-.518.284-1.088.383-1.628.459-1.78.252-3.549.239-5.207.204-.902-.019-1.818-.031-2.704-.043-.777-.01-1.58-.021-2.369-.037a7.511 7.511 0 0 1-1.095-.093c-1.315-.22-2.042-1.074-2.103-2.471a293.077 293.077 0 0 1-.125-3.814c-.037-1.273-.075-2.589-.114-3.539a64.06 64.06 0 0 0-.047-.903 39.707 39.707 0 0 1-.062-1.418c-.012-.56.02-1.132.052-1.67.048-.8.512-1.367 1.378-1.686a8.057 8.057 0 0 1 1.616-.386c1.47-.22 2.97-.256 4.443-.256.38 0 .758.002 1.133.004l.242.002h.459v-.031l1.218.03c1.175.029 2.39.059 3.584.098.31.019.618.061.92.128l.053.01c.517.099.864.418 1.029.95.245.811.368 1.655.364 2.503.003.386-.003.78-.008 1.16a44.279 44.279 0 0 0-.003 1.547l.006.225c.024 1.08.076 3.325.137 4.27.06.932.098 2.162-.157 3.402l-.002.01a.102.102 0 0 0-.006.04c.06.721-.448 1-.986 1.295Z"></path>
  <path d="M15.362 13.783c-.129.07-.25.153-.362.249l-.078.061-1.154.896-1.344 1.044a.89.89 0 0 1-.126.075l-.031.017.029-.567c.023-.46.045-.894.062-1.334.036-.937.07-2.306.105-3.63.028-1.135.056-2.209.083-2.997a2.416 2.416 0 0 0-.033-.462c-.037-.233-.157-.351-.356-.351-.223 0-.358.132-.38.371l-.019.199a9.921 9.921 0 0 0-.058.83 825.083 825.083 0 0 0-.036 4.187 828.684 828.684 0 0 1-.025 3.13 1.48 1.48 0 0 1-.019.185l-.006.041-.059-.054a5.776 5.776 0 0 1-.17-.16 10.12 10.12 0 0 0-2.54-1.82l-.028-.014a1.168 1.168 0 0 0-.258-.11.352.352 0 0 0-.16.011.787.787 0 0 1-.06.012l-.043.006.008.042a.88.88 0 0 1 .009.074.304.304 0 0 0 .052.177c.055.058.116.11.181.155a1.4 1.4 0 0 1 .141.115l1.033 1.014c.444.437.888.873 1.333 1.308.187.194.392.368.613.521a.764.764 0 0 0 .413.142c.175 0 .345-.084.53-.253a44.2 44.2 0 0 1 1.023-.91c.276-.239.553-.477.832-.713l.903-.775c.12-.099.226-.215.313-.344.049-.078.055-.245-.005-.31a.324.324 0 0 0-.313-.058Z"></path>
</svg>