<svg width="46" height="46" fill="currentColor" viewBox="0 0 24 24" xmlns="http://www.w3.org/2000/svg">
  <path d="M12.02 12.852c.018 2.204.033 4.408.057 6.611.005.44.04.88.082 1.317a.36.36 0 0 0 .265.31c.113.036.273-.09.296-.238.023-.145.058-.289.067-.434.056-.929.136-1.857.152-2.787.035-1.909.043-3.82.046-5.729.002-1.812-.02-3.624-.025-5.436 0-.29.036-.582.062-.872a.118.118 0 0 1 .076-.084c.045-.005.121.008.137.038.303.557.621 1.107.891 1.68.629 1.332 1.4 2.581 2.172 3.83.127.205.257.42.509.503.046.015.124.038.14.019a.566.566 0 0 0 .133-.242.526.526 0 0 0-.045-.283 18.523 18.523 0 0 0-.447-.925c-1.133-2.17-2.273-4.335-3.402-6.506-.426-.82-.84-1.208-1.776-.225-.27.283-.54.57-.78.877a577.43 577.43 0 0 0-3.322 4.3 4.692 4.692 0 0 0-.378.625c-.077.142-.031.284.061.406.102.135.397.219.527.172.289-.103.5-.309.692-.53.738-.85 1.47-1.706 2.198-2.566.475-.558.944-1.123 1.42-1.68.024-.028.096-.03.14-.018a.126.126 0 0 1 .077.087c.02.292.044.584.042.876a2604.94 2604.94 0 0 1-.045 6.905h-.021Z"></path>
</svg>