<svg width="46" height="46" fill="currentColor" viewBox="0 0 24 24" xmlns="http://www.w3.org/2000/svg">
  <path d="M12.975 11.532c1.546-1.571 3.09-3.143 4.635-4.715.307-.314.593-.65.872-.99a.362.362 0 0 0 .032-.406c-.054-.104-.255-.13-.377-.04-.119.086-.245.163-.355.26-.696.617-1.409 1.217-2.078 1.862a339.93 339.93 0 0 0-4.082 4.02c-1.283 1.28-2.548 2.576-3.827 3.86-.205.207-.437.387-.66.574a.118.118 0 0 1-.114.005c-.035-.028-.08-.09-.07-.124.18-.607.344-1.221.558-1.817.497-1.387.835-2.815 1.172-4.245.055-.234.116-.478-.004-.715-.022-.043-.06-.115-.085-.112a.567.567 0 0 0-.266.076.524.524 0 0 0-.167.232c-.121.32-.236.644-.338.97-.734 2.335-1.46 4.673-2.196 7.007-.278.88-.26 1.447 1.097 1.414a11.9 11.9 0 0 0 1.172-.07c1.797-.221 3.594-.451 5.39-.69.24-.04.477-.098.708-.175.155-.045.223-.178.244-.33.024-.167-.126-.435-.25-.494-.278-.131-.573-.136-.865-.115-1.123.08-2.246.17-3.368.26-.731.06-1.462.127-2.193.185-.036.003-.089-.048-.112-.087a.125.125 0 0 1 .009-.116c.192-.22.381-.444.589-.649 1.636-1.619 3.274-3.236 4.915-4.85l.014.015Z"></path>
</svg>