<svg width="46" height="46" fill="currentColor" viewBox="0 0 24 24" xmlns="http://www.w3.org/2000/svg">
  <path d="M11.514 14.742c-.789.888-1.529 1.73-2.279 2.56-.42.468-.858.92-1.289 1.378a.647.647 0 0 1-.088.086c-.592.429-.768.506-1.292-.026-.297-.3-.636-.56-.948-.845a3.41 3.41 0 0 1-.392-.42c-.199-.255-.19-.451.016-.7a8.66 8.66 0 0 1 .376-.434c1.07-1.134 2.14-2.267 3.212-3.398.082-.087.16-.178.237-.263-.531-.563-1.05-1.105-1.56-1.654-.279-.3-.547-.61-.814-.921-.179-.208-.176-.39.027-.566a1.75 1.75 0 0 1 .449-.282C8.32 8.76 9.464 8.244 10.633 7.79c1.892-.735 3.803-1.424 5.703-2.138.472-.178.934-.383 1.404-.565a2.39 2.39 0 0 1 .584-.175c.494-.055.747.265.591.74-.12.364-.27.716-.402 1.076-.94 2.566-1.871 5.136-2.822 7.7-.294.793-.636 1.57-.964 2.35-.126.298-.384.39-.671.228a2.62 2.62 0 0 1-.443-.36c-.7-.631-1.396-1.265-2.099-1.904ZM7.48 9.906c.838.802 1.6 1.544 2.377 2.268.293.273.335.406.112.728a2.05 2.05 0 0 1-.155.191c-.703.784-1.4 1.572-2.111 2.348-.535.584-1.086 1.151-1.658 1.756l1.183.989c.324-.343.63-.654.922-.977.916-1.015 1.822-2.038 2.741-3.05.384-.422.603-.434 1.053-.087.498.384.99.775 1.48 1.169.198.159.385.331.613.529l3.642-9.644c-3.416 1.196-6.793 2.373-10.2 3.78Z"></path>
</svg>