<svg width="46" height="46" fill="currentColor" viewBox="0 0 24 24" xmlns="http://www.w3.org/2000/svg">
  <path d="M15.973 3.842c-3.901-2-8.98-.761-11.32 2.763-.064.096-.13.192-.196.288-.125.181-.254.369-.37.561-1.253 2.087-1.704 4.101-1.38 6.158.538 3.4 2.427 5.739 5.616 6.951a7.98 7.98 0 0 0 2.854.493c.853-.01 1.703-.1 2.539-.268.1-.02.197-.054.289-.1.32-.156.491-.436.444-.73-.046-.291-.305-.504-.662-.542a1.238 1.238 0 0 0-.303.016 12.5 12.5 0 0 0-.32.05c-.095.017-.19.033-.284.046-1.43.208-2.662.152-3.764-.171-2.159-.634-4.774-2.699-5.037-6.43-.178-2.52.746-4.781 2.746-6.718 1.76-1.705 4.027-2.293 6.739-1.746 1.682.34 3.166 1.224 4.537 2.702 1.019 1.1 1.568 2.081 1.78 3.183.269 1.396.085 2.583-.56 3.63-.584.943-1.385 1.422-2.38 1.422h-.027c-.903-.007-1.436-.433-1.63-1.3a5.041 5.041 0 0 1-.116-.832 203.79 203.79 0 0 1-.141-3.212c-.01-.269-.072-.596-.472-.743a.865.865 0 0 1-.268-.19c-.327-.309-.738-.518-1.258-.64-1.497-.35-2.913-.071-4.33.855a2.924 2.924 0 0 0-1.166 1.39 6.37 6.37 0 0 0-.399 1.378c-.155 1.035.023 1.866.546 2.541.652.842 1.483 1.34 2.471 1.48.447.067.899.103 1.35.105.872-.007 1.877-.117 2.757-.865l.031.044c.575.886 1.443 1.348 2.581 1.371 1.46.03 2.678-.636 3.52-1.928 1.363-2.09 1.42-4.338.171-6.685-.959-1.802-2.502-3.258-4.588-4.327Zm-2.142 7.55c.004.126.008.255.009.383a.08.08 0 0 0-.04.07v.48c.002.349.003.71-.002 1.063-.011.79-.385 1.256-1.142 1.425a5.217 5.217 0 0 1-2.657-.064c-1.179-.352-1.771-1.238-1.626-2.43l.006-.046c.017-.142.035-.289.062-.43.162-.836.6-1.437 1.34-1.838.76-.412 1.5-.615 2.243-.615.268 0 .534.026.796.077.22.046.434.115.639.206.276.116.449.273.397.66a6.571 6.571 0 0 0-.025 1.059Z"></path>
</svg>