<svg width="46" height="46" fill="currentColor" viewBox="0 0 24 24" xmlns="http://www.w3.org/2000/svg">
  <path d="M8.436 9.096A86081.4 86081.4 0 0 1 11.64 16.8c.727.171.887.337.989 1.152.048.385.075.773.08 1.16.008.705-.287 1.03-.988 1.023-1.203-.015-2.407-.078-3.61-.106-.481-.011-.963.004-1.443.031-.359.02-.563-.073-.592-.422a15.742 15.742 0 0 1-.068-2.002c.025-.557.382-.829.97-.867.187-.012.375-.006.562-.007h.623c-.134-.483-.243-.929-.382-1.366-.497-1.566-1.004-3.129-1.507-4.693-.016-.05-.038-.1-.051-.151-.091-.363-.093-.79-.296-1.07-.186-.259-.602-.34-.893-.534-1.521-1.015-1.618-3.448-.19-4.594.907-.727 2.52-.648 3.505.184.198.16.371.347.515.556a.517.517 0 0 0 .53.265c1.573-.11 3.149-.2 4.721-.327.95-.077.949-.101 1.288.783.47-.054.943-.1 1.413-.17.09-.014.18-.11.245-.19.26-.322.512-.651.763-.981.327-.43.618-.513 1.117-.295.26.106.513.228.759.364.288.17.384.44.278.675-.104.233-.373.343-.688.255a1.65 1.65 0 0 1-.476-.206c-.23-.155-.385-.1-.54.103-.111.135-.23.263-.355.383-.414.419-.437.809-.086 1.285.254.345.5.695.74 1.05.124.185.264.225.477.156.226-.082.463-.13.703-.141.128-.002.345.117.366.215.028.131-.051.364-.16.432a8.04 8.04 0 0 1-1.107.562c-.321.138-.582-.024-.766-.278a18.273 18.273 0 0 1-.94-1.396c-.13-.22-.27-.3-.506-.3a5.011 5.011 0 0 1-.8-.049c-.284-.047-.415.08-.516.317-.213.495-.23.479-.78.483-.75.006-1.498.073-2.246.064a48.284 48.284 0 0 1-2.644-.12c-.238-.016-.392.008-.534.226-.181.277-.42.518-.685.837Zm.202-2.212c-.026-1.285-.967-2.193-2.23-2.152-1.017.033-1.738.836-1.724 1.918.015 1.126.816 1.93 1.939 1.892 1.25-.042 2.12-.967 2.015-1.658ZM6.786 9.457a.86.86 0 0 0 .018.175c.208.592.427 1.18.63 1.773.58 1.704 1.152 3.41 1.738 5.11.04.116.163.273.262.285.311.037.63.013.982.013L7.623 9.301l-.837.156Zm2.785-2.06 5.018-.14c-.036-.175-.064-.302-.088-.43a16.35 16.35 0 0 1-.078-.433c-.071-.428-.07-.428-.507-.427l-3.968.015h-.506l.129 1.416ZM6.944 19.045h4.602v-1.27H7.02l-.076 1.27Z"></path>
  <path d="M6.51 7.54c-.444-.006-.828-.24-.927-.569-.118-.388.045-.82.41-1.09.657-.487 1.337-.314 1.553.396.201.663-.299 1.274-1.035 1.264Z"></path>
</svg>