<svg width="46" height="46" fill="currentColor" viewBox="0 0 24 24" xmlns="http://www.w3.org/2000/svg">
  <path d="M17.5 15.671c-.044-2.496-.084-5.034-.123-7.489l-.008-.562c-.003-.178-.003-.356-.004-.533 0-.212 0-.432-.005-.648-.01-.492-.138-.522-.579-.55-.515-.033-.876.206-1.133.418-.565.466-1.116.941-1.64 1.413-1.08.973-2.155 2.099-3.383 3.544l-.042.05c-.138.166-.258.31-.476.297a.081.081 0 0 0-.08.05c-.141.331-.011.559.134.737l.207.256c.275.356.571.695.886 1.017a40.4 40.4 0 0 0 1.902 1.73c.893.772 1.782 1.507 2.534 2.124.24.21.507.387.795.526.103.046.215.07.328.071a.718.718 0 0 0 .413-.129.83.83 0 0 0 .338-.744 36.783 36.783 0 0 1-.064-1.577Zm-1.083-8.395c-.002 3.005-.034 5.86-.097 8.715l-.736-.6a58.316 58.316 0 0 0-1.872-1.492 59.593 59.593 0 0 0-1.954-1.39l-.773-.537.203-.142c1.032-.715 1.825-1.346 2.496-1.985.717-.683 1.45-1.373 2.158-2.041l.36-.339c.064-.061.134-.12.214-.189Z"></path>
  <path d="M7.83 9.012a34.051 34.051 0 0 0-.103-1.747c-.014-.19-.029-.378-.042-.568a2.264 2.264 0 0 0-.085-.455.426.426 0 0 0-.437-.333H7.16a.421.421 0 0 0-.437.337 3.825 3.825 0 0 0-.103.738c-.03.971-.052 1.943-.07 2.723l-.016.667v.004c.013.536.022 1.021.03 1.49a53.9 53.9 0 0 0 .086 2.68c.045.693.141 1.392.234 2.067.044.315.089.641.128.962.025.21.124.316.294.316h.004c.121-.002.271-.057.3-.316.033-.296.074-.598.114-.89a15.82 15.82 0 0 0 .186-1.942c.02-1.655-.021-3.338-.062-4.965l-.019-.768Z"></path>
</svg>