<svg width="46" height="46" fill="currentColor" viewBox="0 0 24 24" xmlns="http://www.w3.org/2000/svg">
  <path d="M9.167 6.178c.176-.45.322-.854.493-1.249.445-1.029 1.67-2.07 3.126-1.937.707.065 1.267.417 1.765.886.503.472.793 1.076 1.012 1.718.037.107.07.216.117.357.13.008.266.019.401.024.645.023 1.29.043 1.934.07a.905.905 0 0 1 .296.06c.249.1.352.305.237.549a.787.787 0 0 0-.034.585c.665 2.447 1.02 4.956 1.47 7.446.212 1.183.474 2.357.696 3.539.107.57.184 1.148.255 1.725.06.492-.183.803-.68.874a6.823 6.823 0 0 1-.946.07c-4.26.007-8.519.012-12.778.014-.76.002-1.519.048-2.278.052a2.453 2.453 0 0 1-.71-.108c-.412-.124-.585-.421-.505-.85.154-.833.324-1.664.484-2.496.377-1.964.736-3.93 1.132-5.89.215-1.066.49-2.12.737-3.18.111-.481.215-.964.329-1.445.133-.565.232-.627.796-.651.53-.024 1.058-.089 1.588-.124.351-.023.705-.026 1.063-.039Zm10.546 13.477c-.131-.56-.253-1.036-.355-1.518-.262-1.25-.547-2.498-.767-3.758-.363-2.081-.68-4.17-1.02-6.255-.056-.347-.135-.69-.212-1.083-.506.052-.984-.086-1.504-.032.023.193.035.342.058.49.051.38-.022.766-.209 1.101a.46.46 0 0 1-.502.267.47.47 0 0 1-.41-.395 2.037 2.037 0 0 1-.032-.187l-.168-1.282h-4.55c-.043.357-.08.693-.122 1.028-.024.2-.04.402-.083.598a.364.364 0 0 1-.342.309c-.21.014-.33-.121-.385-.304a2.383 2.383 0 0 1-.107-.517c-.017-.252 0-.507-.006-.76a2.448 2.448 0 0 0-.046-.302c-.75.001-1.47-.05-2.228.108L4.201 19.886c.123 0 .258.005.392-.001.986-.046 1.971-.107 2.958-.14a138.72 138.72 0 0 1 3.648-.076c2.675-.014 5.351-.01 8.027-.013h.487Zm-5.27-13.634a2.619 2.619 0 0 0-.876-1.56c-.512-.417-1.074-.49-1.676-.267-.876.325-1.307 1.02-1.549 1.904l4.1-.077Z"></path>
</svg>