<svg width="46" height="46" fill="currentColor" viewBox="0 0 24 24" xmlns="http://www.w3.org/2000/svg">
  <path d="M21.567 20.584c-.064-.375-.13-.763-.21-1.142-.774-3.629-1.539-6.586-2.409-9.307-.09-.284-.183-.567-.275-.85a78.579 78.579 0 0 1-.489-1.533c-.119-.39-.222-.514-.634-.53-.156-.007-.314-.003-.466 0a6.857 6.857 0 0 1-.32.006 1.514 1.514 0 0 1-.201-.02l-.027-.004-.029-.264a18.92 18.92 0 0 1-.066-.646 4.975 4.975 0 0 0-1.199-2.882c-.714-.84-1.667-1.203-2.836-1.077-.872.094-1.637.461-2.334.844-.968.532-1.574 1.358-1.854 2.523a5.562 5.562 0 0 0-.115.917c-.008.12-.016.24-.028.358-.013.148-.021.295-.03.452l-.008.15h-.09a6.286 6.286 0 0 0-.319.002 44.32 44.32 0 0 0-.473.022c-.21.011-.426.023-.638.03a.513.513 0 0 0-.523.403c-.116.391-.235.782-.353 1.172-.2.66-.408 1.34-.596 2.015-.426 1.519-.846 3.067-1.254 4.563l-.407 1.497c-.1.363-.197.726-.294 1.088-.116.43-.232.86-.35 1.29-.038.143-.083.287-.126.426-.057.183-.115.371-.163.561-.104.416-.001.628.38.782.198.082.41.126.625.13.384.003.774-.004 1.151-.011.313-.006.635-.012.952-.012a132 132 0 0 1 1.416.01c.408.005.816.01 1.224.01.912.003 1.823.004 2.735.004 1.226.001 2.495.002 3.742.007l.659.002c2.245 0 4.023-.053 5.695-.166.242-.016.396-.077.486-.19.089-.114.112-.278.071-.517l-.02-.113ZM8.977 7.553c.015-.148.027-.29.039-.43.022-.337.062-.673.121-1.007.19-.955.657-1.67 1.428-2.184.715-.477 1.38-.702 2.077-.702.061 0 .123.001.185.005.621.035 1.106.273 1.443.706.717.925 1.1 2.012 1.168 3.32-1.374.09-2.717.142-4.137.197-.758.029-1.54.059-2.324.095Zm-1.385 3.274a.959.959 0 0 0 1.036.55c.394-.06.763-.425.842-.833.07-.367-.108-.633-.612-.913l.094-1.21 6.518-.123v1.279c-.267.312-.389.582-.371.825.014.195.113.369.303.533a1.086 1.086 0 0 0 .794.258.845.845 0 0 0 .744-.553.755.755 0 0 0 .037-.304c-.024-.261-.192-.53-.486-.782V8.306h.938c.7 1.893 3.106 10.716 3.115 12.14-3.34.095-6.741.074-10.031.055-1.385-.008-2.798-.017-4.217-.017-.931 0-1.865.004-2.795.014.269-.978.546-1.968.815-2.925.841-3 1.71-6.101 2.414-9.214l.148.008c.164.01.319.018.477.022.159.003.32.002.491.002l.176-.001.056 1.22c-.393.301-.74.646-.486 1.217Z"></path>
</svg>