<svg width="46" height="46" fill="currentColor" viewBox="0 0 24 24" xmlns="http://www.w3.org/2000/svg">
  <path d="M17.145 7.312a3.414 3.414 0 0 1 1.568-.087 3.216 3.216 0 0 1 1.921 1.118c1.072 1.275 1.428 2.762 1.239 4.392-.067.57-.335 1.074-.659 1.542a8.748 8.748 0 0 1-1.786 1.874 4.597 4.597 0 0 1-1.413.752c-.128.042-.256.088-.38.132.198.786.015 1.005-.772.951a5.308 5.308 0 0 0-.494-.017c-.313.008-.61-.011-.823-.395-.113.24-.205.405-.269.58-.065.18-.116.366-.153.554-.128.621-.516 1.05-1.02 1.391-.227.154-.468.166-.562.043-.101-.132-.045-.325.162-.542.114-.12.231-.235.351-.349.254-.235.437-.536.528-.87.158-.584.402-1.108 1.026-1.456a3.822 3.822 0 0 1-1.797-1.446l-.766.41c.046.135.097.258.13.386.123.48-.141.815-.638.82-.157 0-.373-.106-.452.077a1.232 1.232 0 0 0-.093.632c.044.31.18.605.244.913.054.24.077.486.069.732-.016.177-.07.349-.156.504-.152.297-.356.405-.546.33-.183-.073-.24-.28-.107-.616.158-.396.114-.778.01-1.17-.125-.467-.226-.937-.04-1.438-.097-.037-.184-.064-.266-.1-.345-.155-.398-.456-.117-.716.129-.12.279-.217.414-.321l-1.953-.85-1.204 1.951c.122.232.255.434.514.556.261.122.392.377.459.654.034.133.057.27.068.407a1.19 1.19 0 0 0 .507.902c.16.13.308.272.445.426.134.14.085.297-.107.317a1.145 1.145 0 0 1-.407-.03 1.516 1.516 0 0 1-1.099-1.387c-.01-.233-.033-.465-.059-.696a.57.57 0 0 0-.075-.156c-.517.295-1.07.232-1.606.19-.434-.035-.556-.371-.32-.749.037-.057.08-.11.141-.192-.09-.052-.163-.103-.243-.14-.45-.207-.906-.4-1.349-.618-2.717-1.34-3.61-4.15-2.946-6.706.238-.917.68-1.715 1.393-2.338.854-.747 1.833-1.1 2.975-.8.21.056.409.152.641.24.054-.109.11-.213.16-.321.59-1.285 1.544-2.152 2.912-2.548.893-.258 1.797-.38 2.73-.278 1.591.172 2.738.994 3.512 2.363.207.37.361.769.558 1.193Zm-.683 2.48c-.014-1.484-.271-2.45-.766-3.34-.553-.994-1.382-1.614-2.537-1.773-.985-.135-1.917.044-2.827.394A3.21 3.21 0 0 0 8.728 6.44c-.52.85-.707 1.786-.664 2.766.047 1.083.352 2.107.75 3.112.58 1.465 1.581 2.453 3.112 2.889.162.046.284.049.42-.047.856-.6 1.734-1.172 2.45-1.948 1.01-1.096 1.7-2.331 1.666-3.42ZM7.058 7.686a1.762 1.762 0 0 0-.836-.247c-.849-.022-1.509.359-2.042.984-.779.913-.99 2.016-.95 3.165.05 1.496.61 2.775 1.913 3.597.784.495 1.638.878 2.471 1.316.545-.642 1.08-1.225 1.421-1.938-1.63-2.112-2.25-4.258-1.977-6.877Zm7.361 7.376c.098.112.185.216.277.315.365.395.84.61 1.325.811.19.079.361.111.555.04.117-.039.237-.07.358-.096a5.525 5.525 0 0 0 2.786-1.589c.854-.895 1.438-1.866 1.244-3.17-.142-.96-.418-1.855-1.09-2.579-.684-.735-1.537-.948-2.528-.769.043.401.1.766.12 1.133.095 1.825-.598 3.356-1.797 4.683-.376.415-.802.786-1.25 1.221Z"></path>
</svg>