<svg width="46" height="46" fill="currentColor" viewBox="0 0 24 24" xmlns="http://www.w3.org/2000/svg">
  <path d="M10.28 16.626c-2.36-1.598-3.621-3.786-4.008-6.513-.152-1.075-.151-2.156.182-3.186.784-2.425 2.442-3.942 4.96-4.42 1.296-.247 2.483.166 3.536.923 1.48 1.063 2.443 2.478 2.757 4.291a6.423 6.423 0 0 1-.543 3.897c-.59 1.26-1.418 2.354-2.404 3.324-.606.596-1.254 1.149-1.889 1.726.107.062.257.143.4.235a1.65 1.65 0 0 1 .796 1.326c.022.274.05.549.053.823.01.59.29 1.017.763 1.34.407.278.817.554 1.221.838.066.06.124.128.173.202-.082.063-.159.172-.246.181-.202.021-.423.04-.612-.02-.638-.2-1.213-.521-1.66-1.03-.405-.46-.53-1.011-.504-1.611.02-.287.014-.576-.017-.862-.025-.192-.136-.371-.247-.651-.078.177-.109.256-.147.332a.491.491 0 0 1-.434.269c-.766.055-1.533.1-2.298.162-.253.02-.468-.015-.602-.25-.123-.216-.082-.436.137-.676.2-.22.416-.428.633-.65Zm6.586-7.986c-.007-.146-.012-.339-.025-.53a2.41 2.41 0 0 0-.04-.244c-.27-1.558-1.083-2.778-2.36-3.681-.74-.524-1.558-.854-2.502-.8C9.92 3.5 7.913 5.22 7.378 7.244a7.447 7.447 0 0 0-.148 2.944c.236 1.721.94 3.23 2.03 4.572.378.464.84.825 1.316 1.178.355.265.715.224 1.089.08a2.3 2.3 0 0 0 .253-.138c.775-.41 1.398-1.015 2.02-1.616a11.638 11.638 0 0 0 2.21-2.857c.458-.851.704-1.8.718-2.767Z"></path>
</svg>