<svg width="46" height="46" fill="currentColor" viewBox="0 0 24 24" xmlns="http://www.w3.org/2000/svg">
  <path d="M3.734 19.114c-.037-.302-.066-.573-.105-.843-.04-.275.003-.507.235-.702.083-.071.123-.236.122-.357-.004-.564-.044-1.127-.046-1.69-.002-.73.02-1.458.031-2.186.003-.19 0-.382 0-.582a2.046 2.046 0 0 0-.192-.092c-.296-.104-.385-.326-.36-.619.025-.296.045-.594.07-.93-.203 0-.352.01-.499-.003-.202-.018-.448-.001-.532-.233-.086-.235-.083-.49.099-.7.215-.25.42-.512.654-.743a75.59 75.59 0 0 1 1.755-1.688 72.133 72.133 0 0 1 5.253-4.455c.306-.233.602-.48.894-.731.417-.358.87-.378 1.344-.15a7.5 7.5 0 0 1 .681.387c2.524 1.553 4.93 3.264 7.063 5.334.413.402.792.84 1.182 1.266a.788.788 0 0 1 .223.598c-.02.416-.267.606-.634.675.095 1.002.039 1.106-.79 1.47v4.969c.715.34.6 1.022.584 1.683.096.028.184.056.273.078.332.085.37.158.386.516.016.355.079.707.105 1.06.048.656-.138.848-.784.855-3.659.044-7.318.073-10.976.142-2.145.041-4.288.149-6.432.227-.124.004-.248.015-.371.012-.437-.01-.645-.205-.628-.633.018-.439.055-.878.109-1.314.05-.406.213-.546.618-.582.218-.017.436-.025.668-.039Zm16.869-9.37c-.346-.372-.632-.702-.94-1.01-2.019-2.01-4.313-3.657-6.753-5.112-.212-.127-.437-.231-.65-.355-.217-.125-.41-.118-.602.055a6.416 6.416 0 0 1-.482.388C8.63 5.592 6.26 7.68 3.963 9.856c-.096.09-.182.192-.314.332 5.657-.333 11.26-.16 16.954-.444Zm-6.446 9.03h3.046c0-.333-.018-.646.005-.957.029-.386.374-.465.674-.6l-.112-4.969c-.413-.151-.5-.476-.432-.89.016-.173.018-.347.005-.521h-3.604c.07.332.135.595.179.862.073.439-.015.61-.405.847-.046.027-.091.058-.14.09a.842.842 0 0 0-.016.166c.142 1.367.239 2.737.205 4.113-.002.102.091.207.146.307.122.224.294.433.362.671.076.27.06.567.087.882Zm-7.825-6.186.47 4.795c.597.076.723.204.779.807.02.227.022.456.03.662h2.81l-.066-.902c-.019-.257.026-.48.22-.68a.598.598 0 0 0 .13-.397c-.037-1.398-.088-2.797-.136-4.23-.367-.112-.45-.406-.408-.795.019-.3.021-.601.007-.902H7.035l.11.487c.198.858.077 1.04-.813 1.155Zm-3.108 8.218c.2 0 .375.005.55 0 2.226-.072 4.451-.17 6.678-.21 3.216-.06 6.434-.08 9.65-.117.175-.002.348-.016.543-.025l.064-.78c-5.864-.036-11.674-.07-17.485.314v.818Zm8.161-8.157.293 4.441h.954l-.076-4.44h-1.17Zm-6.672.008.212 4.706h.89c-.225-1.582-.263-3.149-.244-4.706h-.858Zm13.885-.428v4.982l.74-.054.08-4.99-.82.062ZM6.716 18.131c-.798.054-1.562-.023-2.337.15l-.074.8 2.516-.14-.105-.81Zm6.341-7.223h-2.23l.106.782h2.06l.064-.782Zm.046 7.055c-.635.006-1.255.018-1.877.075l-.097.745h2.205l-.231-.82Zm6.83.813-.129-.792-1.835.08-.08.711h2.043ZM4.2 11.696h1.944v-.729l-2.03.104.086.625Zm13.924-.451c.566-.043 1.072-.077 1.577-.122.3-.026.323-.07.272-.467l-1.951.083.102.505Z"></path>
</svg>