<svg width="46" height="46" fill="currentColor" viewBox="0 0 24 24" xmlns="http://www.w3.org/2000/svg">
  <path d="M20.102 8.095c-.576 0-2.313-.007-2.524-.007l-.47-.412c-.369-.323-.74-.729-1.11-1.056a48.807 48.807 0 0 0-.522-.453c-.605-.52-1.23-1.057-1.75-1.682a.655.655 0 0 0-.635-.214.482.482 0 0 0-.387.26.496.496 0 0 0 .056.473c.04.058.086.111.138.158l.01.01 1.283 1.257c.515.504 1.03 1.088 1.544 1.593.047.045.092.093.139.145l-7.675.297a.684.684 0 0 1 .04-.044l1.043-1.028 2.07-2.042a1.88 1.88 0 0 0 .277-.328c.126-.2.115-.403-.03-.555a.413.413 0 0 0-.513-.072 1.646 1.646 0 0 0-.295.179 58.78 58.78 0 0 1-.395.317c-.389.31-.79.631-1.17.968a97.331 97.331 0 0 0-2.039 1.883l-.143.135c-.141.132-.269.355-.417.52-.066.075-.741.085-.741.085l-1.857.033h-.115a2.331 2.331 0 0 0-.349.018c-.439.067-.89.306-.945.765-.046.384.13.629.622.868a.103.103 0 0 1 .006.005l.165.845c.126.652.257 1.326.402 1.988.104.478.22.962.332 1.429.145.609.296 1.238.423 1.86.143.716.36 1.414.65 2.083.29.666.81 1.043 1.546 1.122.867.093 1.716.177 2.557.182.17.002.34.002.51.002 1.365 0 2.721-.037 3.906-.074a43.57 43.57 0 0 0 2.637-.167c1.23-.112 2.042-.706 2.481-1.814.416-1.05.67-2.158.916-3.23l.089-.387c.217-.94.423-1.9.622-2.827.085-.397.17-.794.257-1.191.435-.185.677-.556.683-1.051.006-.54-.399-.846-1.322-.846Zm-15.73 2.132a.022.022 0 0 1 .009-.007l.462-.006c.385-.006.784-.012 1.174.001 3.583.12 7.235.026 10.767-.064a585.07 585.07 0 0 1 2.79-.068l-.052.24c-.048.227-.094.44-.146.65l-.177.723a790.43 790.43 0 0 1-1.15 4.63 4.807 4.807 0 0 1-.612 1.449c-.19.294-.429.458-.732.501l-.305.045c-.54.079-1.1.16-1.65.187-1.315.062-2.514.09-3.666.084a54.3 54.3 0 0 1-2.433-.082l-.777-.037c-.262-.011-.528-.035-.786-.057a73.77 73.77 0 0 0-.32-.027c-.342-.027-.529-.193-.607-.539-.174-.773-.362-1.557-.543-2.316a791.71 791.71 0 0 1-.203-.849l-.277-1.166-.769-3.24a.19.19 0 0 1 .002-.052Z"></path>
  <path d="M6.89 12.908c.332 1.1.641 2.118.945 3.11.034.111.079.218.134.32.107.194.261.299.428.299a.428.428 0 0 0 .138-.024c.268-.09.295-.332.3-.55v-.01l-.003-.01-.016-.085a1.643 1.643 0 0 0-.067-.281 642 642 0 0 0-1.073-2.937l-.085-.232a.827.827 0 0 0-.083-.162.377.377 0 0 0-.44-.182c-.183.05-.272.195-.249.407.014.114.037.227.07.337Z"></path>
  <path d="M14.569 16.317c.052.02.108.03.164.03a.445.445 0 0 0 .361-.201c.079-.106.142-.222.187-.346.396-1.099.715-1.999 1.004-2.832a.796.796 0 0 0 .035-.405c-.022-.108-.116-.273-.236-.303-.14-.034-.303.04-.389.086a.425.425 0 0 0-.155.228l-.007.019c-.311.764-.72 1.772-1.126 2.786a2.65 2.65 0 0 0-.093.303 4.06 4.06 0 0 1-.033.12l-.005.015.002.015c.016.19.053.399.29.485Z"></path>
  <path d="m11.097 13.827.007.079c0 .106 0 .211-.002.317-.002.316-.004.641.006.962.01.237.04.472.09.703a.388.388 0 0 0 .399.331c.016 0 .032 0 .05-.002a.412.412 0 0 0 .388-.393c.017-.127.023-.255.02-.382-.034-.86-.064-1.634-.104-2.421a16.574 16.574 0 0 0-.085-.933v-.012a.339.339 0 0 0-.35-.325.346.346 0 0 0-.375.296 2.57 2.57 0 0 0-.042.464c-.004.315-.003.635-.003.945v.37Z"></path>
</svg>