<svg width="46" height="46" fill="currentColor" viewBox="0 0 24 24" xmlns="http://www.w3.org/2000/svg">
  <path d="M12.56 13.252a6.444 6.444 0 0 0-2.089-1.867l.002-.035v-.027c.139-.204.278-.405.414-.6a7.547 7.547 0 0 0 1.414-4.454c-.007-1.612-.638-2.757-1.93-3.498a5.747 5.747 0 0 0-2.53-.773c-1.552-.104-3.117.025-4.631.15l-.73.06c-1.352.107-1.424.18-1.525 1.556C.884 4.742.884 5.74.884 6.705v1.016a393.44 393.44 0 0 0 .032 6.681c.024 1.481.078 2.986.13 4.441l.07 1.988v.117c-.003.073 0 .147.007.22.065.503.305.749.801.823.128.017.257.026.385.024.07 0 .138-.001.205-.003l.846-.024c1.02-.03 2.075-.06 3.112-.104l.04-.002a75.41 75.41 0 0 0 3.418-.2c1.84-.164 3.08-1.275 3.68-3.303.517-1.745.164-3.47-1.05-5.127Zm-4.2-2.431c-.378-.07-.775-.047-1.16-.024a667.58 667.58 0 0 0-3.878.197l-1.385.071c.033-1.077-.007-2.152-.045-3.193-.057-1.53-.115-3.111.06-4.686l.274-.017c.247-.016.48-.03.717-.041.312-.014.623-.03.935-.045.827-.04 1.682-.083 2.523-.09.668-.006 1.354.08 1.958.157.764.097 1.476.474 2.175 1.153.409.397.593.942.598 1.77a6.4 6.4 0 0 1-1.554 4.267c-.36.428-.724.571-1.218.48Zm-6.272 1.2a1.76 1.76 0 0 1 .354-.058 130.85 130.85 0 0 1 1.76-.021c1.099-.01 2.235-.02 3.352-.076 2.748-.141 4.727 2.097 5.051 4.34.183 1.268-.154 2.403-1.002 3.372a2.16 2.16 0 0 1-1.277.75l-.101.017a9.495 9.495 0 0 1-1.193.151c-1.915.077-3.862.138-5.746.197l-.35.011a4.019 4.019 0 0 1-.442-.02l-.205-.015-.345-8.615c.05-.01.098-.022.144-.032Z"></path>
  <path d="M19.882 14.123a4.018 4.018 0 0 0-3.244 1.04 3.96 3.96 0 0 0-1.22 3.125 3.062 3.062 0 0 0 1.089 2.214c.718.622 1.731.937 2.738.937.92 0 1.834-.263 2.513-.794a2.13 2.13 0 0 0 .58-.718c.08-.162-.024-.48-.16-.6-.132-.116-.37-.11-.583-.095-.116.008-.218.11-.3.193l-.016.016c-.755.756-1.704.97-3.077.693-1.035-.208-1.661-1.01-1.687-2.15h.793a698.078 698.078 0 0 1 2.946.005c.682.004 1.387.009 2.08.002.598-.006.775-.175.791-.755.023-.8-.208-1.434-.705-1.94-.653-.664-1.484-1.048-2.538-1.173Zm2.13 2.875-5.358.105c.493-1.306 1.409-2.006 2.612-2.006.133 0 .267.008.4.025 1.418.171 2.207.802 2.346 1.876Z"></path>
  <path d="M21.682 11.861c-.048.001-.085 0-.111.003l-1.193.102c-1.05.09-2.044.175-3.026.27a2.465 2.465 0 0 0-.817.214.418.418 0 0 0-.24.392.46.46 0 0 0 .285.409 1.176 1.176 0 0 0 .515.076c1.576-.074 3.177-.158 4.726-.239l.163-.008a1.69 1.69 0 0 0 .396-.052c.328-.096.503-.322.482-.618-.023-.312-.24-.52-.568-.542a6.608 6.608 0 0 0-.612-.007Z"></path>
</svg>