<svg width="46" height="46" fill="currentColor" viewBox="0 0 24 24" xmlns="http://www.w3.org/2000/svg">
  <path d="M14.702 18.592c-.133.888-.396 1.706-1.182 2.24a2.943 2.943 0 0 1-1.831.528c-1.494-.07-2.432-.895-2.751-2.453-.129 0-.268-.005-.408 0-1.558.054-3.116.111-4.675.159a2.78 2.78 0 0 1-.668-.063 1.062 1.062 0 0 1-.42-.205.344.344 0 0 1 .012-.574c1.197-.831 1.679-2.095 2.077-3.405.317-1.043.383-2.123.418-3.205.043-1.367.265-2.691.775-3.973.666-1.669 1.872-2.74 3.534-3.337.238-.086.354-.19.403-.448.16-.837.678-1.244 1.527-1.249.83-.004 1.472.48 1.632 1.267a.483.483 0 0 0 .346.41c1.28.49 2.25 1.337 2.961 2.508.952 1.567 1.519 3.264 1.83 5.06.1.584.24 1.16.358 1.742.28 1.378 1.016 2.435 2.209 3.19.217.143.396.338.52.566.173.317.04.651-.306.767a3.84 3.84 0 0 1-1.001.188c-1.663.09-3.327.159-4.99.237-.116.006-.231.03-.37.05Zm2.27-5.777c.029-.072.05-.098.046-.12-.03-.222-.066-.443-.098-.664-.241-1.644-.724-3.203-1.576-4.645-1.002-1.694-2.732-2.53-4.661-2.153-1.411.276-2.571.975-3.232 2.298-.292.584-.556 1.21-.67 1.847-.183 1.033-.237 2.09-.336 3.137-.033.349-.036.7-.056 1.116 3.564-.276 7.092-.446 10.583-.816Zm-12.16 5.067c4.703-.332 9.315-.43 13.98-.934-.834-.857-1.199-1.868-1.496-2.897l-11.013.427c-.142 1.22-.616 2.345-1.47 3.404Zm4.985.956c.194.933 1.064 1.503 2.07 1.398.915-.095 1.45-.657 1.458-1.592l-3.528.194Zm.969-14.902h1.336c-.185-.368-.476-.418-.78-.408-.262.009-.486.102-.556.408Z"></path>
</svg>