<svg width="46" height="46" fill="currentColor" viewBox="0 0 24 24" xmlns="http://www.w3.org/2000/svg">
  <path d="M3.225 19.52c1.031-.033 2.062-.067 3.094-.103l2.08-.07a8.62 8.62 0 0 1 .373-.002l.104.001.014.078c.015.084.028.154.038.223.132.944.67 1.595 1.598 1.935.382.14.786.211 1.193.21a4.1 4.1 0 0 0 1.103-.157c.9-.251 1.481-.832 1.725-1.728.04-.15.078-.3.118-.46l.044-.179.05-.003c.054-.006.108-.008.162-.008.898.012 1.796.026 2.694.04l1.668.024.413.007c.373.007.759.014 1.138.01.478-.005.626-.237.71-.61.098-.43-.12-.685-.32-.86-.967-.84-1.566-1.888-1.832-3.206-.338-1.672-.707-3.4-1.13-5.28-.536-2.388-1.864-4.067-3.948-4.99-.144-.064-.288-.121-.44-.182l-.159-.064V4.09a4.22 4.22 0 0 0 0-.225c-.035-.836-.55-1.472-1.344-1.658-.697-.163-1.411.225-1.777.966a4.209 4.209 0 0 0-.226.613c-.027.087-.055.177-.086.268l-.025.008c-.059.019-.13.042-.203.062-1.046.283-1.888.722-2.574 1.34-1.63 1.47-2.587 3.33-2.84 5.53-.085.733-.103 1.485-.12 2.211-.01.394-.019.8-.039 1.199a44.68 44.68 0 0 1-.147 1.978c-.063.657-.355 1.267-.947 1.978a.833.833 0 0 1-.266.178c-.05.025-.1.05-.147.08a1.836 1.836 0 0 1-.132.07.957.957 0 0 0-.291.195c-.11.12-.15.25-.111.366.039.12.153.205.32.241.154.029.31.039.465.03Zm10.297-.2c-.03.71-.381 1.16-1.042 1.341-.72.197-1.338.164-1.89-.1-.486-.233-.745-.618-.832-1.24h3.764Zm-9.186-.764c.854-.988 1.012-2.172 1.055-3.305.018-.465.026-.939.035-1.396.01-.595.021-1.21.053-1.812.126-2.443.98-4.35 2.61-5.829.84-.763 1.919-1.211 3.207-1.333.184-.018.366-.026.546-.026 1.223 0 2.348.402 3.352 1.2 1.016.807 1.687 1.93 1.994 3.34.323 1.486.635 3.054.983 4.936.315 1.701.852 2.908 1.731 3.881-5.749-.081-10.844.031-15.566.344Zm7.698-15.433c.365.026.588.333.582.791h-1.395c.086-.442.46-.818.813-.791Z"></path>
</svg>