<svg width="46" height="46" fill="currentColor" viewBox="0 0 24 24" xmlns="http://www.w3.org/2000/svg">
  <path d="M18.38 4.271c.055 1.42.079 2.78.166 4.137.184 2.879.507 5.75.551 8.638.01.673 0 1.347-.035 2.02-.026.257-.091.51-.192.749-.144.386-.405.492-.776.31a5.834 5.834 0 0 1-.697-.437c-.283-.194-.558-.4-.852-.611-.07.037-.138.078-.204.124-.486.382-.974.762-1.454 1.152-.503.41-.956.414-1.511-.067-.352-.306-.689-.631-1.034-.946-.049-.044-.107-.08-.181-.134-.422.315-.837.63-1.256.938-.614.452-.622.523-1.471.032-.496-.286-.935-.671-1.422-1.029-.544.324-1.118.67-1.697 1.007-.664.388-1.18.114-1.25-.66-.005-.055-.004-.11-.005-.165L4.973 12.4a2817.38 2817.38 0 0 1-.063-5.814c-.006-.632 0-1.264 0-1.962-.097 0-.226.003-.356 0a3.127 3.127 0 0 1-.573-.031c-.097-.021-.234-.132-.244-.216a.456.456 0 0 1 .13-.35.657.657 0 0 1 .382-.12c1.359-.06 2.718-.117 4.078-.167 2.074-.078 4.148-.165 6.222-.226 1.718-.05 3.436-.069 5.154-.101l.082.001c.335.022.544.2.53.451-.012.242-.205.398-.528.403-.45.008-.902.002-1.407.002Zm-.508 14.639c.01-.183.02-.265.017-.347-.077-2.075-.145-4.15-.238-6.223-.1-2.211-.302-4.418-.16-6.636.029-.46.004-.926.004-1.445l-11.628.378c.066 4.81.279 9.598.342 14.43.114-.057.188-.088.255-.13.27-.166.523-.363.807-.498.632-.3 1.064-.361 1.577.116.413.384.942.644 1.407.952.191-.148.336-.252.473-.366.243-.202.483-.408.722-.616.393-.34.8-.389 1.251-.139.12.068.235.143.346.225.376.272.75.547 1.135.83l1.411-1.03c.53-.39.878-.402 1.434-.047.262.168.523.337.845.546Z"></path>
  <path d="M9.047 13.015h-1.44a1.558 1.558 0 0 1-.327-.019c-.203-.045-.35-.159-.36-.387a.383.383 0 0 1 .329-.412c.241-.05.486-.083.732-.1.887-.077 1.774-.153 2.662-.215.205-.01.41.007.61.05a.442.442 0 0 1 .363.4.419.419 0 0 1-.258.47c-.253.1-.52.161-.79.183-.506.028-1.014.008-1.521.008v.022Z"></path>
  <path d="M7.853 8.803c-.124 0-.248.005-.371-.001-.292-.017-.475-.156-.513-.386-.04-.237.114-.456.416-.528.308-.072.62-.125.934-.158.71-.077 1.422-.15 2.135-.198.218-.017.437.014.641.091.371.15.414.553.082.778-.183.12-.39.196-.608.223-.436.053-.877.058-1.316.084l-1.4.084v.01Z"></path>
  <path d="M9.232 14.064c.288 0 .577-.012.865.004.163.001.325.036.474.103a.522.522 0 0 1 0 .933 1.291 1.291 0 0 1-.515.113c-.728.033-1.456.056-2.184.072a2.088 2.088 0 0 1-.529-.054c-.244-.059-.399-.255-.385-.468.014-.226.127-.402.354-.453a7.86 7.86 0 0 1 .891-.15c.341-.038.686-.047 1.029-.068v-.032Z"></path>
  <path d="M8.124 6.743c-.247 0-.494.006-.74-.003-.122-.004-.266-.001-.356-.065a.69.69 0 0 1-.25-.34c-.051-.17.043-.326.206-.407.11-.056.227-.094.35-.11a44.613 44.613 0 0 1 1.674-.188c.16-.014.348-.015.481.056a.78.78 0 0 1 .33.377c.072.183-.046.37-.214.444a2.52 2.52 0 0 1-.7.2c-.257.033-.52.008-.781.008v.028Z"></path>
  <path d="M8.038 10.857c-.248-.035-.427-.047-.6-.09-.192-.048-.326-.2-.3-.39.02-.143.122-.354.236-.392.535-.18 1.09-.275 1.658-.144a.385.385 0 0 1 .328.371.4.4 0 0 1-.298.443c-.356.095-.723.145-1.024.202Z"></path>
  <path d="M14.674 8.66c-.272-.036-.55-.047-.81-.12-.122-.034-.297-.19-.293-.285.004-.132.14-.273.248-.382.059-.06.174-.073.268-.086.326-.046.653-.093.98-.12.429-.037.766.157.787.432.021.271-.281.495-.724.528-.15.01-.302.002-.453.002l-.003.032Z"></path>
  <path d="M14.762 14.972c-.141-.013-.373-.027-.601-.06a.344.344 0 0 1-.316-.37.363.363 0 0 1 .314-.378c.445-.074.892-.143 1.341-.176.308-.022.516.161.536.395.02.237-.145.444-.447.504-.24.047-.49.052-.827.085Z"></path>
  <path d="M14.695 13.002c-.224-.032-.415-.049-.602-.09-.206-.045-.35-.18-.354-.397a.397.397 0 0 1 .337-.411 8.85 8.85 0 0 1 1.011-.167c.308-.029.539.155.578.41.035.228-.124.473-.395.554-.19.046-.381.08-.575.1Z"></path>
  <path d="M14.519 10.642a3.17 3.17 0 0 1-.588-.116c-.1-.036-.193-.186-.22-.3a.277.277 0 0 1 .238-.335 8.39 8.39 0 0 1 1.182-.098.429.429 0 0 1 .413.39c.004.177-.155.359-.398.409a5.475 5.475 0 0 1-.627.05Z"></path>
</svg>