<svg width="46" height="46" fill="currentColor" viewBox="0 0 24 24" xmlns="http://www.w3.org/2000/svg">
  <path d="m13.897 5.592 1.008 2.135c1.23-.134 2.472.016 3.553.688l2.809-2.718c-.135-.018-.233-.04-.333-.043-.357-.012-.715-.007-1.072-.029-.278-.016-.439-.18-.43-.4.01-.206.162-.343.423-.369.11-.01.22-.003.33-.005.755-.016 1.512-.029 2.268-.05.387-.01.591.11.655.474.117.662.215 1.328.295 1.997a.544.544 0 0 1-.478.618c-.279.021-.513-.215-.542-.56-.008-.094.018-.19.015-.286-.011-.327-.028-.653-.047-1.086-1.16 1.048-2.162 2.114-3.193 3.122.238.458.503.878.683 1.332.617 1.558.508 3.098-.243 4.583a3.206 3.206 0 0 1-1.82 1.593 6.33 6.33 0 0 1-3.734.227c-1.505-.37-2.441-1.36-2.912-2.815-.054-.167-.101-.336-.154-.514l-1.076.049c-.961 2.482-1.254 2.734-3.93 3.368l.084 2.087c.346-.031.654-.062.963-.086a3.43 3.43 0 0 1 .573-.024.419.419 0 0 1 .41.394.435.435 0 0 1-.304.485c-.17.053-.346.08-.524.08-.34.013-.682.004-1.052.004.025.52.05.997.071 1.474.01.206.018.413.01.619a1.218 1.218 0 0 1-.069.36c-.07.194-.203.332-.424.334a.434.434 0 0 1-.433-.322 1.66 1.66 0 0 1-.092-.44c-.034-.535-.053-1.07-.078-1.606-.006-.12-.016-.241-.028-.413-.33 0-.643.006-.955-.002-.178 0-.357-.02-.531-.057a.384.384 0 0 1-.315-.423c.02-.2.147-.314.404-.32.385-.012.77-.005 1.156-.008.085-.007.17-.019.254-.035V16.92c-.282-.032-.61-.047-.93-.108-1.873-.354-3.045-1.59-3.433-3.54a4.95 4.95 0 0 1 .696-3.75c.199-.296.445-.558.729-.775a4.956 4.956 0 0 1 2.545-1.075l.985-.116c.19-.396.37-.809.582-1.205a2.53 2.53 0 0 1 .447-.635 5.242 5.242 0 0 1 2.58-1.366 5.515 5.515 0 0 1 2.727.106c.428.12.832.33 1.279.512.02-.018.08-.072.138-.13L16 2.21c-.203-.01-.354-.022-.505-.026-.303-.009-.606-.004-.908-.023-.281-.018-.444-.176-.439-.394.005-.215.173-.37.457-.377.536-.012 1.073.001 1.609-.007.316-.004.631-.03.947-.045.404-.02.6.106.67.503a41.1 41.1 0 0 1 .286 1.915c.045.353-.171.64-.467.667-.305.03-.55-.247-.554-.632.006-.404-.01-.809-.05-1.21-1.134.955-2.135 2.02-3.149 3.01Zm-2.052 7.747A3.128 3.128 0 0 0 14.148 16c1.027.27 2.045.181 3.048-.124.786-.24 1.321-.759 1.635-1.514.212-.509.33-1.05.35-1.601.041-1.137-.242-2.176-.997-3.056-.282-.33-.614-.604-1.037-.714a20.428 20.428 0 0 0-1.566-.325c-.196-.035-.402-.006-.612-.006-.081 2.24-.717 4.047-3.124 4.68Zm-3.002.083a1.185 1.185 0 0 0-.114-.069 1.696 1.696 0 0 0-.156-.055c-1.117-.329-1.945-1.015-2.433-2.068a7.32 7.32 0 0 1-.452-1.403c-.094-.395-.107-.809-.155-1.208-.864-.15-1.534-.018-2.385.44-.59.307-1.061.8-1.341 1.402-.584 1.237-.453 2.461.053 3.67.437 1.044 1.248 1.647 2.354 1.856a5.605 5.605 0 0 0 2.729-.189c1.16-.359 1.685-1.237 1.9-2.377ZM6.55 7.702c.206.05.392.092.576.139.487.124.943.329 1.294.688.99 1.012 1.547 2.22 1.563 3.653.002.16 0 .318 0 .524l.852-.071c-.001-2.194.875-3.778 2.96-4.653-.318-1.035-.768-1.972-1.838-2.428a4.778 4.778 0 0 0-2.668-.328c-.845.141-1.616.548-2.166 1.25a2.835 2.835 0 0 0-.573 1.226Zm-.14 1.07c-.02 2.056 1.135 3.553 2.503 3.731.16-1.356-.77-3.504-2.502-3.732Zm7.46.15c-1.484.601-2.453 2.191-2.165 3.508 1.514-.195 2.274-1.917 2.165-3.509Z"></path>
</svg>