<svg width="46" height="46" fill="currentColor" viewBox="0 0 24 24" xmlns="http://www.w3.org/2000/svg">
  <path d="M19.831 10.976c.62.048.915.39.94.94.025.518.046 1.047-.027 1.557-.093.661-.357.846-1.03.89-.095.007-.19.016-.33.028 0 .273.015.543-.005.81a2.18 2.18 0 0 1-.125.558.371.371 0 0 1-.395.24c-.179-.01-.327-.1-.365-.282a2.157 2.157 0 0 1-.05-.565 6.99 6.99 0 0 1 .112-.702c-.101-.014-.182-.024-.261-.037-.4-.067-.618-.284-.63-.69a51.472 51.472 0 0 1-.02-2.06c.004-.328.166-.495.5-.557.172-.032.348-.04.553-.06-.033-.732-.067-1.443-.098-2.154-.033-.78-.665-1.338-1.235-1.407-.645-.079-1.328.232-1.68.952a4.234 4.234 0 0 0-.404 1.672c-.066 1.4-.089 2.803-.118 4.204-.024 1.154-.012 2.309-.054 3.462-.024.666-.25 1.29-.585 1.87-.57.988-1.459 1.47-2.557 1.59-.698.076-1.4.066-2.086-.137-.89-.264-1.556-.775-1.957-1.634-.5-1.07-.745-2.178-.622-3.36.023-.217.029-.436.044-.694-.221-.02-.421-.034-.62-.059-.352-.043-.472-.133-.478-.345-.006-.204.115-.307.45-.385a.938.938 0 0 0 .113-.038c-.037-.456-.05-.495-.462-.592-.534-.126-1.076-.22-1.614-.33a4.683 4.683 0 0 1-.32-.08c-.538-.15-.802-.438-.846-.981-.117-1.452-.271-2.905-.313-4.36-.033-1.137.08-2.278.129-3.417a1.11 1.11 0 0 1 .025-.204c.327-1.394.781-1.626 2.025-1.775 1.646-.197 3.298-.087 4.942.08.783.079 1.29.563 1.601 1.265.271.613.333 1.273.409 1.927.188 1.616.18 3.24.164 4.862a8.816 8.816 0 0 1-.022.577c-.08 1.054-.611 1.715-1.62 2.039-.39.125-.782.254-1.164.407a1.01 1.01 0 0 0-.431.372c.115 0 .231-.004.347 0 .354.013.584.21.592.504.008.307-.235.534-.603.536-.261.001-.522-.032-.783-.042-.205-.007-.41-.001-.665-.001v1.032c-.003.881.214 1.708.566 2.513.307.704.825 1.104 1.56 1.271a4.486 4.486 0 0 0 1.802.037c.97-.173 1.625-.863 1.818-1.943.087-.515.13-1.036.128-1.558.003-.784-.052-1.567-.073-2.35-.046-1.678-.062-3.357.219-5.018.088-.513.25-1.011.479-1.479.638-1.295 2.34-1.868 3.556-1.224.844.447 1.37 1.148 1.475 2.106.071.654.07 1.316.1 1.975.002.067 0 .134 0 .244ZM4.303 8.31c1.363-.467 1.705-.47 3.195-.228.706.107 1.417.168 2.131.184.29.01.592-.095.872-.194.318-.113.616-.278.97-.443-.065-.694-.122-1.431-.211-2.165a4.354 4.354 0 0 0-.228-.957c-.165-.45-.507-.715-.996-.74-.933-.044-1.866-.109-2.799-.104a12.2 12.2 0 0 0-1.964.18c-.637.108-.823.422-.792 1.143.23-.01.46-.008.688.006.185.021.348.125.355.34.007.19-.13.3-.295.353-.132.037-.267.06-.403.07-.146.018-.294.024-.467.038l-.04.618c.195-.014.342-.028.49-.035a2.26 2.26 0 0 1 .368.002.396.396 0 0 1 .372.33c.043.213-.03.39-.223.484a1.47 1.47 0 0 1-.431.114c-.189.025-.38.027-.593.04v.964Zm4.094 6.14c.055-.486.178-.908.587-1.125.482-.256.996-.452 1.498-.674a4.99 4.99 0 0 0 .562-.251c.312-.188.493-.454.482-.846-.023-.798-.024-1.596-.032-2.393-.002-.16 0-.32 0-.536a3.558 3.558 0 0 0-.336.194c-.44.331-.95.44-1.48.415a20.752 20.752 0 0 1-1.763-.174c-.599-.08-1.19-.217-1.79-.288-.481-.07-.972.02-1.398.256-.23.133-.413.305-.366.652.155-.017.288-.041.42-.044.136-.005.272.005.405.029a.395.395 0 0 1 .35.4c.002.215-.139.36-.333.427a1.322 1.322 0 0 1-.365.045c-.134.007-.268.002-.414.002v.662c.21.011.39.006.564.033.273.041.398.172.402.385.005.23-.14.373-.427.404-.172.02-.346.018-.526.026v.506c.158.036.302.072.447.102.645.134 1.291.258 1.934.401.57.127.885.518 1.03 1.064l.103.368.446-.04Zm9.976-2.587.163 1.519h1.232l.097-1.519h-1.492Z"></path>
</svg>