<svg width="46" height="46" fill="currentColor" viewBox="0 0 24 24" xmlns="http://www.w3.org/2000/svg">
  <path d="M5.11 15.41c.024-1.451.403-2.828.818-4.198a19.848 19.848 0 0 1 2.596-5.403 13.928 13.928 0 0 1 2.336-2.603 1.96 1.96 0 0 0 .32-.37c.182-.27.425-.404.732-.314.24.06.464.167.662.315.46.37.898.768 1.309 1.193 1.162 1.235 2.217 2.56 3.072 4.025 1.159 1.987 1.892 4.118 1.877 6.45-.008 1.219-.193 2.412-.818 3.492-.882 1.526-2.233 2.482-3.856 3.064-1.595.572-3.233.616-4.874.206-1.892-.473-3.673-1.968-4.043-4.504-.064-.448-.088-.902-.131-1.352Zm6.444-11.722c-.85.75-1.814 1.919-2.396 2.835a20.964 20.964 0 0 0-2.664 6.308c-.32 1.303-.49 2.612-.262 3.958.358 2.111 1.909 3.357 3.597 3.655.774.136 1.551.204 2.34.11 1.551-.185 2.912-.78 4.036-1.872a4.45 4.45 0 0 0 1.275-2.22 8.083 8.083 0 0 0 .108-3.154 12.627 12.627 0 0 0-2.05-5.12 24.506 24.506 0 0 0-2.564-3.17c-.445-.463-.937-.88-1.42-1.33Z"></path>
  <path d="M16.914 14.53c.025.444-.134 1.064-.458 1.637-.12.2-.267.38-.438.538-.146.14-.343.199-.527.061-.162-.12-.182-.3-.116-.482.06-.182.135-.359.224-.529.701-1.258.61-2.525.06-3.8-.05-.114-.126-.228-.13-.344-.005-.105.043-.262.12-.308a.354.354 0 0 1 .325.047c.12.112.22.245.293.392.447.797.633 1.66.647 2.788Z"></path>
  <path d="M15.074 17.96a.416.416 0 1 1-.83-.02c.01-.24.193-.438.399-.434a.464.464 0 0 1 .43.455Z"></path>
</svg>