<svg width="46" height="46" fill="currentColor" viewBox="0 0 24 24" xmlns="http://www.w3.org/2000/svg">
  <path d="M7.176 9.469c.525.435 1.07.87 1.669 1.33.357.275.715.537 1.094.815l.422.31a64.44 64.44 0 0 1-.232.165c-.23.163-.446.317-.66.48-.74.569-1.481 1.15-2.198 1.71a1.2 1.2 0 0 0-.248.246.623.623 0 0 0 .046.78.618.618 0 0 0 .738.128c.113-.062.22-.136.316-.222l.805-.663c.409-.338.832-.688 1.25-1.03.131-.106.267-.201.425-.312a2.5 2.5 0 0 0 .111-.078v.178c-.012.31-.026.618-.04.927-.028.658-.058 1.339-.061 2.01-.006 1.156.014 2.331.034 3.467l.013.812c.002.172.032.342.088.505a.653.653 0 0 0 .61.442.661.661 0 0 0 .39-.131c.301-.22.582-.445.836-.668l.44-.386a49.304 49.304 0 0 0 1.698-1.532 89.07 89.07 0 0 0 2.627-2.644c.183-.191.267-.4.244-.604-.024-.21-.159-.401-.39-.554a223.62 223.62 0 0 0-.755-.497c-.527-.346-1.073-.704-1.604-1.064-.481-.327-.952-.66-1.452-1.011l-.598-.421.48-.385c.393-.314.764-.61 1.128-.916l.268-.225c.807-.678 1.643-1.38 2.441-2.096.236-.21.345-.413.333-.618-.012-.217-.16-.424-.453-.633-1.545-1.104-3.332-2.46-4.87-4.156l-.017-.018a1.077 1.077 0 0 0-.174-.165c-.254-.179-.519-.232-.767-.153-.305.097-.317.385-.326.596l-.001.023c-.018.427-.027.88-.028 1.47l-.003 2.964-.002 2.5c0 .085-.008.174-.019.285l-.006.068-.67-.473-2.307-1.63-.084-.059a2.416 2.416 0 0 0-.41-.255.551.551 0 0 0-.658.144.538.538 0 0 0-.017.667c.16.212.342.405.544.577Zm4.798 9.883c-.005-1.352.024-2.69.052-3.985.018-.786.035-1.598.045-2.4l3.852 2.714c-1.008 1.076-2.092 2.033-3.24 3.044l-.71.627Zm-.044-15.01c1.368 1.356 2.627 2.436 3.94 3.385-.199.167-.397.335-.594.503-1.04.881-2.024 1.715-3.137 2.455l-.21-6.343Z"></path>
</svg>