<svg width="46" height="46" fill="currentColor" viewBox="0 0 24 24" xmlns="http://www.w3.org/2000/svg">
  <path d="M11.642 15.659a2.99 2.99 0 0 1-.278.379 1224.91 1224.91 0 0 1-4.603 4.515 5.62 5.62 0 0 1-.85.697c-.518.337-.927.134-1.013-.481a3.49 3.49 0 0 1-.01-.489c.006-3.832.001-7.664.024-11.496.008-1.507.068-3.015.123-4.522a5.21 5.21 0 0 1 .166-.96c.09-.393.199-.499.613-.532.84-.067 1.684-.145 2.527-.156 3.078-.041 6.156-.055 9.234-.085.407.004.81.085 1.188.24a.506.506 0 0 1 .342.421c.03.188.042.377.038.567-.203 5.284-.303 10.569-.155 15.856a7.924 7.924 0 0 1-.105 1.246c-.04.308-.334.49-.672.445a1.405 1.405 0 0 1-.877-.48c-1.697-1.894-3.77-3.371-5.692-5.165Zm6.435-12.2-12.016.087c-.016.14-.03.22-.032.298-.019.828-.055 1.656-.049 2.484.03 4.335.065 8.67.107 13.004.001.085.012.17.023.313.146-.136.246-.223.34-.317 1.503-1.5 3.004-2.999 4.505-4.5.547-.548.895-.562 1.469-.058.726.637 1.463 1.261 2.186 1.902 1.028.911 2.047 1.832 3.071 2.748.068.05.138.096.21.137-.301-5.39.03-10.71.186-16.097Z"></path>
</svg>