<svg width="46" height="46" fill="currentColor" viewBox="0 0 24 24" xmlns="http://www.w3.org/2000/svg">
  <path d="M4.314 15.255c-.232.041-.427.082-.624.11-.865.122-1.545-.418-1.672-1.28-.185-1.252.766-2.622 1.673-2.999.307-.127.666-.13 1.089-.204 1.128-2.597 3.272-3.866 6.184-4.043l.13-1.446c-.126-.052-.276-.071-.358-.157-.118-.125-.254-.296-.255-.449 0-.13.162-.353.282-.375.33-.059.691-.099 1.012-.025.41.094.468.42.207.754a.366.366 0 0 0-.099.203c.022.425.06.85.088 1.229.766.068 1.499.105 2.223.204 2.37.322 3.94 1.654 4.795 3.862a.967.967 0 0 0 .05.109.18.18 0 0 0 .03.033c.393 0 .798-.053 1.183.011.826.138 1.443.584 1.648 1.434.206.85-.121 1.557-.746 2.118-.614.552-1.364.704-2.175.6a.382.382 0 0 0-.078.087c-.907 2.135-2.59 3.387-4.726 4.09a9.712 9.712 0 0 1-5.73.12c-2.072-.573-3.571-1.77-4.13-3.986Zm6.751 3.3c.44-.037.882-.054 1.318-.115 1.75-.246 3.297-.914 4.484-2.263 2.083-2.366 1.564-6.673-2.07-7.868-1.345-.442-2.75-.714-4.178-.623-1.598.103-2.992.714-4.024 1.978-.956 1.173-1.378 2.565-1.413 4.056-.05 2.164 1.005 3.635 3.044 4.353a8.952 8.952 0 0 0 2.839.482ZM4.411 11.74a.35.35 0 0 0-.103.001c-.786.232-1.558 1.58-1.358 2.363.06.237.21.378.45.383.258.005.518-.027.708-.039l.302-2.708Zm14.904 2.06c.433-.007.85-.172 1.171-.463.437-.396.489-.997.113-1.344-.365-.336-.803-.433-1.284-.335V13.8Z"></path>
  <path d="M12.344 14.39c.195.037.412.032.578.121a.633.633 0 0 1 .31.397c.033.228-.165.345-.382.373a.833.833 0 0 1-.315-.018 1.145 1.145 0 0 0-1.083.236c-.166.135-.36.238-.525.037-.148-.178-.08-.385.067-.544a1.762 1.762 0 0 1 1.35-.601Z"></path>
  <path d="M9.027 10.777c.454.016.738.34.714.815-.02.378-.324.683-.665.667-.386-.018-.692-.403-.675-.852.017-.454.205-.645.626-.63Z"></path>
  <path d="M13.417 11.367c0-.379.145-.55.472-.557.422-.007.687.233.678.615-.009.33-.267.608-.571.615-.347.009-.578-.26-.579-.673Z"></path>
</svg>