<svg width="46" height="46" fill="currentColor" viewBox="0 0 24 24" xmlns="http://www.w3.org/2000/svg">
  <path d="M8.994 5.83c-.225-.053-.449-.107-.674-.157-.324-.072-.51-.285-.525-.605a22.935 22.935 0 0 1-.017-1.606c.008-.35.271-.549.557-.652.372-.134.765-.266 1.154-.283 1.771-.08 3.544-.132 5.317-.167.642-.012 1.097.155 1.184 1.067.052.545.102 1.09.14 1.637.021.302-.172.549-.507.675-.103.036-.21.064-.318.084-.103.023-.209.037-.329.057.006.263.173.385.344.498.206.136.418.265.628.394 1.372.838 2.05 2.099 2.232 3.66.247 2.121.265 4.254.304 6.384a40.87 40.87 0 0 1-.02 2.187 9.053 9.053 0 0 1-.134 1.266c-.112.633-.462.978-1.144 1.066-1.022.132-2.048.263-3.076.307-2.162.093-4.315-.076-6.455-.389a5.145 5.145 0 0 1-1.11-.299c-.502-.195-.85-.555-.915-1.121-.042-.366-.109-.735-.102-1.101.03-1.801.046-3.604.135-5.402.065-1.302.144-2.61.457-3.885.263-1.07.886-1.906 1.728-2.59.276-.226.573-.427.864-.635.121-.087.25-.166.374-.249a30.22 30.22 0 0 0-.092-.141Zm.832.068c.028.63-.405 1.011-.866 1.376-.151.12-.295.247-.439.375-.664.588-1.197 1.275-1.31 2.174-.176 1.402-.339 2.81-.417 4.22-.098 1.783-.104 3.57-.152 5.357-.012.422.056.536.486.611.5.088 1.005.151 1.51.204 2.689.28 5.377.304 8.064-.028.378-.047.493-.19.485-.568-.017-.81-.037-1.62-.03-2.431.015-2.158.052-4.316-.118-6.47-.07-.892-.246-1.753-.88-2.428a5.918 5.918 0 0 0-1.042-.863c-.549-.364-1.006-.767-1.023-1.529H9.826Zm-1.261-.92a65.045 65.045 0 0 0 6.527-.217l-.104-1.464a7.966 7.966 0 0 0-.811-.087c-1.374-.007-2.748-.015-4.122.01-.408.007-.818.098-1.219.189-.329.074-.377.15-.366.494.011.34.058.68.095 1.076Z"></path>
  <path d="M8.1 14.016c0-.976-.004-1.952.003-2.927.004-.617.228-.857.84-.881 1.167-.047 2.335-.077 3.504-.112.632-.019 1.264-.04 1.897-.046.205-.006.41.017.609.068.337.095.434.247.446.599.052 1.415.095 2.83.157 4.245.037.838.114 1.673.154 2.51a3.03 3.03 0 0 1-.083.691.364.364 0 0 1-.343.308c-.475.046-.951.12-1.427.12-1.43-.005-2.86-.036-4.29-.065a2.825 2.825 0 0 1-.611-.088c-.36-.09-.576-.298-.677-.686-.124-.476-.137-.944-.124-1.426.019-.77.005-1.54.005-2.31H8.1Zm.903-3.112.278 6.516h5.325v-6.33c-1.879-.19-3.715-.138-5.603-.187Z"></path>
  <path d="M11.608 15.398h-.781c-.083 0-.165.005-.247 0-.391-.026-.642-.226-.64-.507.002-.274.215-.463.602-.492a82.87 82.87 0 0 1 2.054-.121c.15-.006.301.01.448.046.273.064.435.247.444.471.01.239-.156.447-.445.517a2.628 2.628 0 0 1-.53.06c-.3.01-.603.003-.905.003v.023Z"></path>
  <path d="M11.705 11.749c.384 0 .768-.006 1.152.002.419.008.68.212.668.51-.01.289-.293.501-.697.491-.767-.018-1.534-.051-2.3-.08a1.1 1.1 0 0 1-.244-.036c-.28-.075-.417-.255-.39-.498.027-.228.176-.371.454-.388.3-.017.603-.007.905-.008h.452v.007Z"></path>
  <path d="M11.843 15.963c.233 0 .467-.01.7.003.135.01.268.037.397.08.164.054.263.194.211.35-.04.124-.167.224-.268.322a.24.24 0 0 1-.158.028c-.588-.026-1.176-.053-1.764-.086-.209-.012-.323-.145-.343-.345-.018-.192.126-.333.363-.367.082-.008.164-.01.246-.006.11.002.219.01.329.012.095.002.191 0 .287 0v.009Z"></path>
  <path d="M11.534 13.184c.455-.003.682.128.698.352.017.221-.191.41-.55.443a2.17 2.17 0 0 1-.606-.056c-.164-.032-.285-.165-.24-.328a.558.558 0 0 1 .26-.322c.155-.074.346-.073.438-.089Z"></path>
</svg>