<svg width="46" height="46" fill="currentColor" viewBox="0 0 24 24" xmlns="http://www.w3.org/2000/svg">
  <path d="M12.351 2.19c2.756.056 4.805.097 6.854.14.178.003.357.016.534.04 1.215.177 1.84.966 2.01 2.089.117.78.096 1.59.054 2.382-.077 1.455-.265 2.904-.313 4.358-.043 1.276.012 2.557.078 3.833.067 1.306.113 2.609-.042 3.91a5.19 5.19 0 0 1-.12.649c-.307 1.218-1.099 1.9-2.333 2.066-.435.066-.875.1-1.314.102-2.75-.04-5.5-.077-8.249-.156-1.483-.043-2.964-.16-4.444-.263a5.89 5.89 0 0 1-1.134-.205c-.98-.269-1.54-.927-1.653-1.933-.068-.6-.104-1.205-.107-1.81a695.82 695.82 0 0 1 .017-8.044c.009-.988.112-1.976.13-2.965a8.921 8.921 0 0 1 .204-1.833c.188-.83.636-1.406 1.45-1.704a9.177 9.177 0 0 1 2.978-.582c2.035-.041 4.071-.057 5.4-.074Zm3.445 1.095a1.56 1.56 0 0 0-.031.227c.002 1.526.01 3.052.01 4.579a47 47 0 0 1-.03 1.854c-.024.583-.214.74-.787.758-1.017.032-2.033.08-3.049.123-.92.039-1.84.091-2.76.119-.537.016-.759-.197-.75-.743.03-1.897.08-3.794.12-5.69.008-.42 0-.838 0-1.296-.76.045-1.53.06-2.293.145a6.85 6.85 0 0 0-2.088.603 1.057 1.057 0 0 0-.629.76c-.09.416-.203.826-.341 1.228-.15.429-.218.881-.201 1.334.03 2.681.047 5.363.088 8.043.02 1.223.064 2.446.133 3.668.056.974.366 1.297 1.32 1.51.08.02.16.037.242.049.82.084 1.639.207 2.46.24 2.02.083 4.04.123 6.06.18.632.02 1.264.06 1.897.057 1.14-.006 2.283.002 3.42-.069 1.254-.078 1.788-.598 2.022-1.827.21-1.103.2-2.22.118-3.33-.114-1.523-.197-3.046-.14-4.572.043-1.126.153-2.249.206-3.374.041-.865.105-1.736.042-2.596-.1-1.376-.59-1.921-1.933-1.933-.357-.003-.714-.041-1.071-.045-.672-.007-1.344-.002-2.035-.002Zm-6.449-.074c-.078 2.334.043 4.63.121 6.984l5.254-.289c.115-.376.14-6.303.036-6.694h-5.41Z"></path>
  <path d="M19.71 17.974c.31.006.565.196.596.472.031.282-.161.507-.517.587a1.648 1.648 0 0 1-.326.039c-1.854.045-3.708.089-5.563.13a5.18 5.18 0 0 1-.699-.018c-.287-.032-.443-.191-.44-.401.003-.218.153-.343.461-.362 1.782-.11 3.565-.213 5.347-.326.369-.023.736-.077 1.14-.121Z"></path>
  <path d="M19.06 15.062c.073.543.14 1.026.198 1.51.032.203.044.409.036.614a.456.456 0 0 1-.412.44.444.444 0 0 1-.504-.329 1.705 1.705 0 0 1-.065-.483c-.01-.535-.007-1.07-.014-1.604-.003-.147-.027-.293-.05-.526-.183.198-.312.35-.454.487a3.977 3.977 0 0 1-.462.405c-.147.105-.34.11-.439-.05-.067-.108-.05-.276-.044-.417.002-.056.073-.111.115-.165.28-.355.564-.707.842-1.064.308-.396.621-.473 1.024-.179.42.307.804.66 1.203.996.04.037.076.079.107.124.161.222.186.428.055.562-.172.174-.378.147-.569.045-.178-.096-.34-.219-.566-.366Z"></path>
  <path d="M14.778 15.015c.036.417.073.793.1 1.17.024.315.04.63.049.946a.98.98 0 0 1-.043.323c-.05.154-.166.286-.33.251-.13-.027-.299-.12-.347-.23a1.763 1.763 0 0 1-.13-.638c-.02-.535-.01-1.071-.014-1.607-.002-.131-.013-.262-.024-.474l-.69.614c-.102.092-.198.19-.306.275-.132.103-.285.126-.413.007-.13-.122-.112-.278-.008-.41.127-.162.262-.318.404-.467.293-.308.592-.61.89-.914.24-.243.46-.285.734-.083.432.315.843.66 1.261.994.043.036.08.076.114.12.154.191.19.431.088.57-.095.127-.345.16-.57.039-.25-.136-.483-.305-.765-.486Z"></path>
</svg>