<svg width="46" height="46" fill="currentColor" viewBox="0 0 24 24" xmlns="http://www.w3.org/2000/svg">
  <path d="M21.298 6.612c-.46-.929-.934-1.889-1.638-2.702-.516-.597-1.043-.895-1.659-.937a16.333 16.333 0 0 1-.493-.044 9.612 9.612 0 0 0-.868-.06l-.244-.001c-2.15-.018-4.374-.036-6.562-.02-.655.006-1.32.05-1.962.094-.33.022-.67.045-1.005.063-.828.043-1.45.363-1.9.978-.502.686-1.006 1.371-1.512 2.054L2.598 7.2c-.197.267-.382.603-.262 1.063.034.17.043.344.026.517a5.458 5.458 0 0 0-.006.2c-.003.347-.008.694-.012 1.04a80.34 80.34 0 0 0-.01 2.011c.007.7.026 1.412.043 2.1.018.688.037 1.401.045 2.102.004.355-.01.718-.023 1.069-.014.365-.028.743-.023 1.116.01.628.213 2.108 1.893 2.294.073.008.144.022.22.037.104.023.208.039.314.046 2.11.096 4.22.19 6.33.283l1.537.068h.003a.082.082 0 0 0 .083-.081v-.028h1.34c1.239.002 2.518.003 3.777-.003a16.02 16.02 0 0 0 1.407-.072c1.421-.13 2.392-1.175 2.414-2.6.05-3.165.092-6.412.125-9.65.005-.513.01-1.043-.253-1.562l-.268-.538Zm-7.334 8.923-3.473.136-.42-7.594h3.893v7.458ZM3.19 10.278c.01-.323.02-.646.026-.969a31 31 0 0 0 .002-.771V8.22l6.013-.15.013.033c.012.026.02.054.024.082l.06 1.98c.037 1.257.076 2.555.122 3.833.024.665.08 1.34.133 1.993l.015.19c.033.393.24.56.68.551.239-.006.481-.023.716-.04.197-.013.402-.027.602-.035a203.5 203.5 0 0 1 1.674-.056l.923-.03c.52-.017.752-.233.8-.744.047-.468.07-.938.07-1.409a940.615 940.615 0 0 0-.03-4.401 4620.286 4620.286 0 0 1-.013-1.915v-.058h5.813l.001.402c.002.34.003.66-.003.984-.012.663-.026 1.326-.04 1.988a485.523 485.523 0 0 0-.08 4.466c-.01.763-.022 1.527-.035 2.29-.02 1.133-.603 1.774-1.685 1.853a49.63 49.63 0 0 1-3.662.134 537.25 537.25 0 0 1-8.744-.086 17.614 17.614 0 0 1-2.282-.232c-.655-.099-.91-.359-1.014-1.032a7.467 7.467 0 0 1-.06-1.03l-.015-.94c-.024-1.578-.05-3.21-.057-4.814a48.25 48.25 0 0 1 .033-1.75Zm.418-2.913.795-1.003c.52-.656 1.06-1.335 1.583-2.007.244-.314.582-.38.88-.402.86-.065 1.784-.132 2.711-.18a68.41 68.41 0 0 1 3.527-.091c1.516 0 3.005.052 4.452.155a1.872 1.872 0 0 1 1.49.834 14.49 14.49 0 0 1 1.36 2.393l-16.798.3Z"></path>
</svg>