<svg width="46" height="46" fill="currentColor" viewBox="0 0 24 24" xmlns="http://www.w3.org/2000/svg">
  <path d="M7.798 7.608a8.902 8.902 0 0 1 2.342-1.76c.119-.062.236-.146.363-.17.561-.1.665-.489.644-.97-.007-.171-.001-.343-.001-.555-.168-.011-.31-.028-.452-.03-.455-.006-.911.004-1.365-.016a1.338 1.338 0 0 1-.54-.127c-.36-.185-.366-.58-.032-.804a.354.354 0 0 1 .108-.054c.93-.23 1.872-.346 2.818-.132.43.098.606.488.504.952-.091.412-.185.823-.288 1.282.569-.085 1.065-.194 1.566-.224.448-.028.902.038 1.353.047.18.007.361-.013.536-.06.446-.128.88-.306 1.33-.415.211-.051.33-.112.381-.329.05-.221.128-.435.23-.638.097-.19.275-.305.502-.227.244.084.264.304.209.5a7.42 7.42 0 0 1-.307.77c.823.327 1.642.676 1.984 1.634.238-.074.45-.146.665-.204.128-.038.26-.06.394-.066.208-.004.405.095.402.304-.002.155-.112.39-.236.444a3.361 3.361 0 0 1-.893.205c-.201.026-.302.099-.362.297-.185.602-.541 1.098-.994 1.532-.074.07-.148.207-.13.295.173.9.18 1.824.019 2.726l1.173.058c.16.008.321.014.48.028.496.044.807.292.811.774.006.72-.063 1.44-.109 2.159-.006.103-.034.235-.102.297-.139.125-.312.288-.472.29-.132 0-.347-.19-.382-.331a5.5 5.5 0 0 1-.14-1.146c-.01-.357.043-.716.071-1.125-.487-.036-.95-.077-1.412-.098a.266.266 0 0 0-.203.146c-.418 1.191-1.153 2.165-2.053 3.03-.017.016-.02.048-.043.111.299.107.598.21.895.32.623.227.787.465.69 1.123-.078.474-.182.945-.31 1.409a1.773 1.773 0 0 1-.245.502c-.126.192-.312.296-.551.23a.462.462 0 0 1-.36-.475 2.72 2.72 0 0 1 .068-.635c.086-.364.19-.724.308-1.08.072-.218.042-.363-.19-.436a.284.284 0 0 1-.037-.015c-.911-.434-.894-.406-1.756.116-.798.483-1.637.897-2.492 1.36.11.08.242.178.378.274.346.243.484.578.369.98a5.55 5.55 0 0 1-.377.97c-.159.314-.453.429-.693.33-.244-.102-.354-.382-.25-.724.074-.229.166-.452.275-.666.083-.171.072-.299-.085-.418-.17-.13-.315-.3-.498-.402a.702.702 0 0 0-.442-.056c-.992.193-1.989.295-2.993.138-2.502-.391-3.868-2.29-3.533-4.896a5.31 5.31 0 0 1 .125-.71c.078-.289.037-.527-.217-.74-.206.088-.42.19-.643.271-.275.1-.541.077-.716-.184-.178-.268-.095-.548.131-.719a5.96 5.96 0 0 1 1.083-.66c.335-.154.607.071.858.322.052-.087.096-.151.13-.22.504-1.037 1.146-2 1.91-2.864a.464.464 0 0 0 .102-.539c-.336-.906-.324-.891-1.267-.6a3.825 3.825 0 0 1-1.094.15.513.513 0 0 1-.173-1c.69-.244 1.385-.495 2.098-.652.483-.106.797.2.903.703l.23 1.093Zm8.438-.505c-.175-.15-.304-.329-.477-.397-.63-.248-1.264-.6-1.917-.652-1.092-.086-2.188.087-3.193.606-2.373 1.224-3.947 3.153-4.903 5.607a6.5 6.5 0 0 0-.439 3.03c.047.49.228.958.524 1.352l10.405-9.546ZM6.44 17.301c.716.509 1.492.696 2.304.691 2.774-.018 5.075-1.147 7.013-3.073 1.357-1.35 1.912-2.997 1.74-4.895-.062-.7-.282-1.35-.647-2.034L6.44 17.3Zm11.664-9.493c1.015-.928.882-1.835-.292-2.352a1.954 1.954 0 0 0-.69-.19c-.319-.012-.64.056-.96.09l-.02.115c.954.515 1.546 1.334 1.962 2.337Z"></path>
</svg>