<svg width="46" height="46" fill="currentColor" viewBox="0 0 24 24" xmlns="http://www.w3.org/2000/svg">
  <path d="M17.192 13.71a8.095 8.095 0 0 0 1.735-3.996c.396-2.913-.799-5.218-3.366-6.492-.792-.393-1.655-.604-2.471-.787C11 1.967 9.086 2.33 7.402 3.512c-1.37.963-2.124 2.139-2.302 3.595a9.013 9.013 0 0 0 .215 3.317c.558 2.211 1.557 3.949 3.054 5.312l.113.101c.167.14.32.296.459.463.127.165.273.377.277.56a22.4 22.4 0 0 1-.073 1.99 28.51 28.51 0 0 1-.117 1.165 46.22 46.22 0 0 0-.076.7c-.051.52.127.78.615.898.29.072.586.109.884.11h.028c.988-.008 1.992-.03 2.964-.052l.648-.015c.629-.013.882-.241.935-.84.092-1.051.136-1.857.143-2.616l.001-.08c.006-.45.012-.958-.382-1.392l.733-.92 1.671-2.097Zm-3.09 2.89-1.097-.082a.096.096 0 0 1-.001-.027c.162-.62.325-1.238.49-1.856.367-1.382.747-2.812 1.091-4.225.266-1.09.274-2.057.026-2.955-.123-.441-.355-.767-.673-.943a1.281 1.281 0 0 0-1-.078c-.13.043-.256.1-.375.168l-.049.026c-.077.04-.148.087-.223.137l-.042.027-.061-.078a3.567 3.567 0 0 0-.236-.281c-.444-.461-1.082-.506-1.588-.111a2.394 2.394 0 0 0-.752 1.055c-.522 1.334-.56 2.725-.115 4.135.233.737.48 1.484.72 2.206l.27.817c.196.612.31 1.246.34 1.887H9.99c-.046-.602-.448-1.01-.836-1.405a11.82 11.82 0 0 1-.214-.22c-1.603-1.708-2.482-3.536-2.689-5.59-.07-.707-.124-1.46-.028-2.176.144-1.079.762-1.983 1.89-2.763 1.375-.951 2.903-1.258 4.542-.913.864.182 1.704.378 2.476.771 2 1.02 2.915 2.794 2.645 5.13-.187 1.612-.932 3.033-2.417 4.608-.39.413-.825.921-1.099 1.549-.142.326-.28.71-.158 1.187Zm.05 1.998-.046.704H9.97v-.828l4.183.124Zm-.128 1.603-.024.54c-1.238.056-2.665.102-4.074-.005l-.008-.055a.783.783 0 0 1-.015-.153c.005-.12.017-.24.029-.368l.009-.09 4.083.131Zm-4.127-3.079.118.004c1.423.041 2.77.08 4.146.223l.02.339c-1.41.078-2.823.074-4.232-.01l-.052-.556Zm1.065-3.627a30.89 30.89 0 0 1-.153-.492 41.831 41.831 0 0 1-.735-2.664c-.193-.834-.08-1.717.354-2.778a1.77 1.77 0 0 1 .404-.564.352.352 0 0 1 .257-.125c.093.004.19.065.287.181.252.3.257.376.052.737-.416.734-.586 1.44-.519 2.156.016.225.07.447.157.655a.605.605 0 0 0 .481.406.61.61 0 0 0 .584-.238c.149-.172.265-.37.344-.583a3.938 3.938 0 0 0 .164-2.373c-.06-.258.124-.476.505-.596.154-.049.276-.049.36 0a.385.385 0 0 1 .162.265c.096.42.214.944.155 1.415-.104.814-.281 1.634-.453 2.427l-.096.447c-.103.482-.215.971-.324 1.444a72.71 72.71 0 0 0-.426 1.942 6.374 6.374 0 0 0-.092.965c-.006.13-.012.263-.02.399l-.976-.06c.133-1.054-.174-2.025-.472-2.966Zm.827-4.105.056-.346c0 .118-.02.235-.056.346Z"></path>
</svg>