<svg width="46" height="46" fill="currentColor" viewBox="0 0 24 24" xmlns="http://www.w3.org/2000/svg">
  <path d="M2.988 18.26a.407.407 0 0 0-.091-.033c-.756-.048-1.1-.453-.948-1.197.09-.43.232-.846.423-1.24.12-.248.366-.434.549-.641-.06-.265-.18-.55-.176-.834.004-.275.133-.548.214-.843-.597-.557-.613-.676-.19-1.641-.235-.242-.26-.535-.224-.868.101-.918.222-1.831.573-2.692.892-2.19 2.473-3.692 4.684-4.474 2.685-.95 5.395-.965 8.068.08 1.235.482 2.325 1.2 3.103 2.304.308.42.567.875.77 1.355.271.673.464 1.378.666 2.076.141.486.185.977-.168 1.434.33.267.617.533.756.923.143.403.035.755-.196 1.105.422.431.483.937.294 1.508.358.275.685.589.832 1.034.085.23.14.472.164.717.045.789-.265 1.139-1.03 1.229-.02.354-.023.707-.059 1.056-.073.711-.485 1.173-1.159 1.34-.64.153-1.29.266-1.946.338a91.603 91.603 0 0 1-3.69.383c-2.031.16-4.066.234-6.1.058-1.136-.098-2.27-.223-3.402-.359a4.546 4.546 0 0 1-.953-.249.987.987 0 0 1-.676-.86c-.043-.337-.06-.678-.088-1.01Zm16.683-7.614c-.174-.734-.317-1.43-.51-2.114a5.666 5.666 0 0 0-.949-1.95c-.767-.994-1.79-1.613-2.937-2.044-1.74-.654-3.54-.772-5.36-.47-2.534.418-4.56 1.606-5.797 3.95-.495.938-.725 1.943-.907 3 .133.055.27.099.41.13.462.062.926.159 1.388.15 1.813-.029 3.626-.098 5.44-.144 1.47-.037 2.94-.06 4.41-.091 1.347-.029 2.694-.054 4.028-.266.253-.04.505-.096.784-.15Zm-1.247 6.395c-.224.173-.436.321-.63.49-.353.307-.73.36-1.14.136a4.04 4.04 0 0 1-.463-.267c-.377-.275-.743-.3-1.14-.031a7.476 7.476 0 0 1-.826.462 1.608 1.608 0 0 1-1.506.009 7.705 7.705 0 0 1-.614-.335.747.747 0 0 0-.782-.04 9.59 9.59 0 0 0-.717.401 1.181 1.181 0 0 1-1.178.097 3.583 3.583 0 0 1-.678-.385c-.352-.262-.707-.278-1.079-.078-.217.116-.423.255-.63.387-.537.342-1.063.315-1.581-.037-.125-.085-.243-.18-.361-.274-.31-.245-.63-.247-.954-.038-.145.094-.276.21-.392.301.048.308.082.566.129.822.102.562.137.596.688.712.04.009.082.01.122.018 1.708.288 3.435.449 5.167.48 2.784.069 5.541-.26 8.297-.602.421-.052.84-.136 1.255-.224.302-.065.467-.272.497-.58.024-.254.044-.508.068-.787-.628.07-1.1-.18-1.552-.637Zm-15.687.41c.187-.095.334-.16.47-.241.142-.085.27-.192.41-.278.678-.416 1.285-.378 1.903.115.085.068.17.138.255.208.278.23.565.249.871.053.216-.146.44-.28.67-.402.616-.305 1.214-.302 1.78.133.145.105.297.2.455.28a.656.656 0 0 0 .736-.038c.225-.156.464-.292.713-.408.493-.223.983-.225 1.45.088.126.084.262.152.39.23a1.077 1.077 0 0 0 1.17.019c.262-.15.528-.295.783-.456.547-.344 1.079-.326 1.628.004.674.407.68.398 1.303-.069.522-.39.915-.403 1.476-.044.156.1.308.21.474.322.217-.27.278-.713.67-.686.305.022.6.204.907.319.309-.464.039-1.25-.523-1.548-.457.137-.87.297-1.296.382-1.594.318-3.217.372-4.831.508-.79.066-1.58-.031-2.368.065-.15.018-.312-.077-.47-.116-.153-.039-.307-.107-.461-.106-1.636.003-3.272.04-4.906.018-.78-.01-1.558-.13-2.338-.188a1.055 1.055 0 0 0-.438.057c-.575.216-.938.923-.883 1.779Zm5.52-5.462.013.083c1.105.857 2.204 1.722 3.317 2.568.575.437.493.592 1.12-.077.73-.782 1.428-1.596 2.138-2.397.06-.068.108-.147.216-.298l-6.804.12Zm2.31 2.974c-.422-.355-.773-.64-1.11-.938-.157-.137-.315-.167-.523-.163-1.524.024-3.048.178-4.573-.009-.186-.023-.38.022-.57.041-.185.018-.253.144-.268.31-.022.227.072.387.33.453.315.093.64.151.97.174 1.771.063 3.544.106 5.316.153.106.004.213-.01.429-.02Zm9.752-1.517c-.51.13-.982.298-1.467.367a28.255 28.255 0 0 1-4.224.3.389.389 0 0 0-.258.067c-.264.271-.51.558-.796.877.412 0 .753.021 1.09-.004 1.232-.093 2.465-.18 3.693-.312a9.593 9.593 0 0 0 1.728-.352c.51-.153.575-.527.234-.943Zm-5.123-.258c.187 0 .296.006.405 0 .904-.059 1.812-.085 2.71-.19a9.41 9.41 0 0 0 1.674-.396c.35-.11.418-.31.32-.6-.113-.34-.358-.514-.659-.458-.97.184-1.957.281-2.945.29-.19.003-.38.02-.503.025l-1.002 1.33ZM3.55 11.844a5.343 5.343 0 0 0-.263.54c-.092.259-.058.344.212.435.272.092.553.158.838.196 1.164.153 2.332.086 3.499.052.105-.012.21-.032.313-.06-.189-.142-.315-.244-.448-.337-.202-.142-.447-.245-.603-.426-.16-.187-.328-.207-.538-.207-.988 0-1.98.064-3.01-.193Z"></path>
  <path d="M10.291 5.918c.018-.16-.01-.326.181-.387.186-.06.327.032.404.196.084.171.15.351.196.536.039.167.006.335-.182.411-.166.068-.346-.01-.433-.21a4.665 4.665 0 0 1-.166-.546Z"></path>
  <path d="M7.301 8.135c.061.043.21.093.234.177a.44.44 0 0 1-.075.362c-.204.22-.495.29-.785.3-.21.008-.302-.232-.16-.428.176-.242.429-.373.786-.41Z"></path>
  <path d="M17.219 9.991c-.133-.099-.281-.155-.318-.253-.03-.079.046-.248.126-.307.162-.124.347-.216.543-.272.104-.026.297.04.343.124a.375.375 0 0 1-.077.356c-.172.142-.39.228-.617.352Z"></path>
  <path d="M12.75 8.71c-.01-.268.19-.401.41-.3.2.091.431.54.393.764-.034.201-.231.306-.396.19a1.04 1.04 0 0 1-.406-.654Z"></path>
  <path d="M16.626 6.905c-.002.24-.33.569-.567.568-.149 0-.29-.166-.216-.317.09-.193.225-.363.393-.495.179-.13.392.024.39.244Z"></path>
  <path d="M9.407 10.482c-.253-.014-.549-.313-.544-.52a.306.306 0 0 1 .336-.286c.2.026.427.322.42.55-.004.156-.058.268-.212.256Z"></path>
</svg>