<svg width="46" height="46" fill="currentColor" viewBox="0 0 24 24" xmlns="http://www.w3.org/2000/svg">
  <path d="M8.844 18.882c0 .477.017.892-.004 1.305-.039.73-.31 1.04-1.038 1.145-.41.059-.825.081-1.24.066-.65-.023-.926-.302-.935-.953-.006-.575.018-1.15.072-1.722.026-.284-.032-.467-.263-.646-.486-.377-.672-.92-.717-1.513-.114-1.48-.228-2.959-.322-4.44-.016-.264-.094-.33-.349-.338-.719-.022-1.041-.304-1.094-1.011C2.87 9.67 2.788 8.56 2.79 7.454c.002-.874.316-1.168 1.178-1.264.312-.035.412-.148.405-.446a5.93 5.93 0 0 1 .054-.84c.131-1.096.876-1.627 1.83-1.953 1.136-.39 2.314-.38 3.493-.375 1.78.007 3.56-.01 5.339-.002a19.34 19.34 0 0 1 1.883.082c1.426.146 2.158.88 2.377 2.327.077.51.077.51.57.555.552.05.904.312.963.848.136 1.26.277 2.526.316 3.792.032 1.005-.55 1.54-1.56 1.61-.449.033-.414-.04-.44.492-.067 1.375-.113 2.752-.25 4.12-.074.749-.347 1.457-1.055 1.899-.081.05-.105.25-.097.377.026.467.1.931.11 1.398.015.65-.227.92-.87 1.034a20.95 20.95 0 0 1-.793.123c-.724.1-1.163-.227-1.24-.96a9.963 9.963 0 0 1-.03-1.161c.003-.196-.021-.279-.259-.276-1.87.027-3.74.035-5.61.049h-.261Zm3.508-15.038v.007c-1.178 0-2.356-.016-3.533.005-.91.016-1.813.088-2.661.49-.435.207-.615.519-.62.977-.005.361-.033.722-.043 1.083-.043 1.456-.193 2.907-.091 4.369.103 1.48.135 2.966.206 4.45.021.44.06.88.107 1.317.061.566.378.95.922 1.09.555.141 1.123.29 1.69.314 1.565.064 3.133.118 4.696.075 1.227-.034 2.449-.23 3.674-.331.739-.061 1.113-.479 1.195-1.17.103-.861.223-1.727.231-2.593.02-2.222.066-4.44.228-6.658.058-.799-.1-1.62-.22-2.423-.07-.471-.405-.78-.894-.859a8.332 8.332 0 0 0-1.193-.136c-1.231-.018-2.463-.007-3.694-.007Zm6.947 6.845c.766-.038.865-.125.85-.868-.021-1.041-.07-2.082-.1-3.124-.005-.226-.082-.312-.317-.262-.201.043-.281.127-.29.346-.034.774-.106 1.546-.139 2.32-.022.528-.004 1.058-.004 1.588ZM4.415 6.785c-.682.104-.786.167-.769.628.04 1.053.122 2.105.186 3.157.013.22.095.344.347.325.259-.019.206-.2.209-.35.012-.68.021-1.362.026-2.044.005-.558.001-1.116.001-1.716ZM6.49 18.651c0 .517-.002 1.008 0 1.499.002.182.027.392.27.341.348-.072.784.172 1.035-.267a.09.09 0 0 0 .007-.04c.016-.385.043-.77.035-1.156-.001-.073-.132-.19-.22-.207-.361-.072-.729-.113-1.127-.17Zm9.254.108c.039.37.063.715.113 1.056.072.497.08.496.585.411.163-.027.38.01.384-.248.008-.438.002-.877.002-1.36l-1.084.141Z"></path>
  <path d="M12.142 11.583c-1.63-.052-3.262-.085-4.892-.164-.775-.037-1.124-.365-1.206-1.136-.152-1.427-.162-2.86.065-4.28.066-.37.215-.718.435-1.02.146-.203.444-.36.698-.408.734-.137 1.478-.269 2.22-.291 1.712-.052 3.426-.058 5.138-.038.61.007 1.223.117 1.826.227.614.111.948.532 1.01 1.141.072.705.109 1.413.16 2.12.043.6.1 1.199.123 1.8.018.372.002.746-.047 1.117-.067.465-.33.705-.795.771a5.808 5.808 0 0 1-.8.045c-1.311.004-2.623.002-3.934.002l-.001.114Zm-.037-.997-.001.031 3.929-.125c.666-.02.681-.019.656-.702-.038-1.042-.096-2.083-.151-3.124-.015-.266-.058-.53-.074-.797-.019-.308-.184-.454-.48-.482-.559-.051-1.117-.15-1.675-.15a153.09 153.09 0 0 0-5.134.082c-.594.021-1.186.167-1.773.288a.607.607 0 0 0-.389.292c-.118.277-.23.587-.225.88a77.38 77.38 0 0 0 .149 3.244c.029.47.092.55.556.556 1.537.02 3.074.008 4.611.008Z"></path>
  <path d="M11.64 13.992c-.667 0-1.335.005-2.002-.001-.479-.005-.728-.17-.723-.457.005-.274.207-.424.696-.444 1.053-.042 2.108-.06 3.162-.094.306-.01.611-.046.918-.05.156-.003.344-.007.462.072.138.093.288.272.298.422a.59.59 0 0 1-.241.452c-.168.105-.401.138-.608.143-.654.017-1.308.006-1.962.006v-.049Z"></path>
  <path d="M11.704 15.362c-.441 0-.883.007-1.323-.002-.26-.006-.495-.09-.514-.394-.02-.316.226-.42.475-.43.908-.041 1.816-.06 2.725-.08a.423.423 0 0 1 .269.063c.128.114.308.259.314.397.006.138-.147.367-.28.412-.256.088-.547.085-.824.1-.28.014-.562.003-.842.003v-.069Z"></path>
  <path d="M16.774 14.592c-.502.002-.932-.4-.924-.862.006-.43.415-.81.88-.817a.873.873 0 0 1 .87.868.827.827 0 0 1-.826.811Z"></path>
  <path d="M6.31 13.96a.795.795 0 0 1 .87-.788c.475.028.876.427.848.841-.03.426-.5.824-.949.803a.816.816 0 0 1-.768-.856Z"></path>
</svg>