<svg width="46" height="46" fill="currentColor" viewBox="0 0 24 24" xmlns="http://www.w3.org/2000/svg">
  <path d="M12.575 4.662c.05.05.105.098.161.143 1.574.954 3.144 1.914 4.724 2.858.872.521 1.762 1.01 2.638 1.526.206.134.402.283.586.447.063.05.142.123.148.192.037.396.34.743.19 1.179-.055.159-.017.353-.01.53.11 2.554.223 5.107.327 7.661.013.328-.031.659-.04.988a.938.938 0 0 0 .043.311c.119.362-.004.664-.365.786a1.83 1.83 0 0 1-.565.084c-2.42.017-4.84.03-7.26.04-1.829.008-3.658.026-5.487.01-1.277-.01-2.555-.07-3.832-.104-.317-.008-.51-.118-.658-.436A2.852 2.852 0 0 1 2.9 19.73c-.076-2.39-.16-4.78-.234-7.172-.014-.466.003-.934.008-1.401a.633.633 0 0 1 .02-.203c.291-.812.546-1.639.887-2.428a14.14 14.14 0 0 1 3.691-5.1c.303-.259.627-.493.967-.7.408-.253.568-.215.939.096.15.12.313.224.484.312.59.324 1.188.632 1.774.962.208.117.346.099.553-.034.464-.29.945-.552 1.439-.788.174-.08.366-.115.557-.1.129.008.316.106.354.21.038.102-.043.298-.135.386-.145.138-.34.226-.52.322-.349.186-.702.362-1.108.569Zm7.03 5.54c-2.601-1.588-5.083-3.323-7.734-4.793-.079.09-.126.14-.165.194-.048.064-.088.134-.149.229.109.089.213.184.311.285.678.772.644 2.068-.12 2.676-.666.53-1.452.777-2.315.647-.685-.103-1.12-.601-1.172-1.293-.092-1.234.856-2.458 2.078-2.605.386-.047.598-.202.73-.545L8.412 3.4c-2.174 1.932-3.71 4.318-4.501 7.2 1.014.12 14.338-.155 15.694-.399Zm-15.968 1.4c-.057.216.07 2.017.188 2.407.733 0 1.473.028 2.212-.005a396.58 396.58 0 0 0 5.436-.29c2.566-.151 5.132-.313 7.698-.47.257-.016.514-.029.781-.044v-1.8c-2.73.073-5.435.174-8.14.207-2.721.034-5.443-.001-8.175-.006Zm16.386 6.403-15.978.384c.023.34.05.68.067 1.02.017.337.025.674.036 1.004 1.13.137 15.363-.155 15.95-.328l-.075-2.08Zm-4.309-1.023c.563 0 1.107-.002 1.65 0 .263.002.476-.047.57-.345.038-.122.158-.22.246-.326.485-.578.972-1.156 1.456-1.735.063-.075.112-.161.193-.282-.923.072-1.784.143-2.647.202-.184.013-.297.069-.37.254-.11.28-.256.546-.39.816-.236.476-.474.95-.708 1.416Zm-4.607.2 1.533-2.423c-.873.041-1.681.083-2.49.116-.177.007-.261.097-.335.247-.32.652-.654 1.298-.98 1.947-.027.067-.05.136-.07.205l2.342-.092Zm3.525-.109c.273-.919.93-1.613 1.371-2.5l-2.377.126-1.368 2.445 2.374-.07Zm-7.075.262 1.462-2.413c-.717.032-1.345.05-1.971.099-.104.008-.229.134-.29.237-.279.471-.538.954-.806 1.43-.126.225-.255.447-.426.744l2.03-.097ZM9.04 7.77c-.008.614.253.895.765.863a2.42 2.42 0 0 0 1.159-.38c.336-.214.398-.547.352-.902a.822.822 0 0 0-.594-.72c-.458-.136-.926-.008-1.305.215-.325.191-.335.632-.377.924Zm-2.962 7.247H3.864l.142 2.39c.49.084.477.077.681-.277.212-.368.446-.723.68-1.078.21-.32.432-.63.711-1.035Zm13.875 1.725V15.59l-.076-.018-.851 1.27.927-.1Z"></path>
</svg>