<svg width="46" height="46" fill="currentColor" viewBox="0 0 24 24" xmlns="http://www.w3.org/2000/svg">
  <path d="M10.558 13.111c-.135.019-.225.143-.304.252-.021.029-.04.057-.06.08a63.03 63.03 0 0 0-.86 1.061l-.317.394-.426-.375c-.411-.362-.8-.704-1.197-1.046l-.02-.018a2.037 2.037 0 0 0-.529-.366c-.134-.056-.423.01-.485.138-.057.118-.019.268.014.401l.021.088a.193.193 0 0 0 .104.115.318.318 0 0 1 .04.028l1.536 1.503.305.298-.364.452c-.375.465-.763.946-1.147 1.416-.102.125-.256.313-.097.531a.361.361 0 0 0 .3.158.512.512 0 0 0 .287-.098c.172-.12.326-.265.458-.43.309-.378.606-.754.92-1.153l.313-.396.06.043c.086.063.168.123.256.175l.19.113c.487.29.99.589 1.495.867a.614.614 0 0 0 .308.048c.044 0 .086 0 .125.002a.081.081 0 0 0 .085-.058.08.08 0 0 0 .002-.036 1.213 1.213 0 0 1-.011-.13c-.006-.115-.012-.235-.085-.316a9.371 9.371 0 0 0-.927-.915 7.622 7.622 0 0 0-.656-.481l-.23-.157.266-.386c.261-.377.507-.733.75-1.096a1.87 1.87 0 0 1 .055-.075c.104-.141.28-.377.044-.561a.287.287 0 0 0-.219-.07Z"></path>
  <path d="m5.903 8.495.066.048c.063.037.137.05.21.038l.04-.001a206.826 206.826 0 0 0 1.466-.025c.097-.002.195-.001.293-.001h.072l.059.34c.054.315.105.614.182.913.055.213.144.561.46.561a.467.467 0 0 0 .066-.005c.387-.054.362-.496.351-.684-.016-.284-.054-.568-.094-.867a35.497 35.497 0 0 1-.043-.33l.041-.006c.083-.012.162-.025.241-.034l.338-.037c.222-.024.451-.047.677-.083.148-.023.494-.077.477-.447-.016-.363-.335-.37-.526-.375a8.36 8.36 0 0 0-.355.003c-.073 0-.145.002-.217.003h-.89l-.035-.269c-.036-.268-.072-.546-.114-.82a1.146 1.146 0 0 1-.013-.11c-.018-.191-.045-.482-.385-.482a.376.376 0 0 0-.277.096c-.108.11-.106.276-.105.423 0 .04.001.08-.001.115-.017.286-.014.568-.01.867l.003.31-.046.004c-.092.01-.192.022-.292.029l-.967.068-.536.038a.486.486 0 0 0-.36.157.307.307 0 0 0-.053.251c.024.13.159.227.278.312Z"></path>
  <path d="M14.082 8.285c.026.001.056.003.087.003.015 0 .03 0 .045-.002l.825-.05c.768-.047 1.563-.095 2.343-.159.222-.029.44-.087.646-.174l.149-.054c.088-.03.213-.168.189-.266a.36.36 0 0 0-.23-.248c-.201-.039-.4-.06-.576-.079l-.16-.018h-.018l-.455.039c-.305.025-.593.05-.878.078-.736.074-1.467.155-2.022.216-.138.016-.46.052-.425.39.032.299.302.314.48.324Z"></path>
  <path d="M18.17 15.178a1.447 1.447 0 0 0-.549-.044c-1.324.127-2.43.241-3.481.36a.477.477 0 0 0-.248.145 1.064 1.064 0 0 1-.085.07.08.08 0 0 0-.005.13c.029.024.056.05.081.077.061.08.148.137.247.16.217.018.434.022.652.014l.183-.002a.082.082 0 0 0 .077.04l.663-.059a813.7 813.7 0 0 0 2.094-.185 1.11 1.11 0 0 0 .384-.087c.086-.042.268-.176.249-.3a.443.443 0 0 0-.262-.319Z"></path>
  <path d="M14.365 14.67a.76.76 0 0 0 .196.022c.047 0 .094-.002.14-.005l.096-.005a.08.08 0 0 0 .039.008l.512-.029c.39-.021.794-.044 1.192-.071.494-.035.978-.07 1.46-.133a.464.464 0 0 0 .247-.16c.026-.026.053-.052.082-.076a.08.08 0 0 0 .024-.095.082.082 0 0 0-.02-.029 2.398 2.398 0 0 1-.083-.082 1.072 1.072 0 0 0-.235-.196.45.45 0 0 0-.268-.023l-.058.006-.206.017c-.583.046-1.185.094-1.777.147-.368.034-.852.08-1.335.149a.406.406 0 0 0-.208.13.868.868 0 0 1-.066.058.08.08 0 0 0-.032.06.083.083 0 0 0 .024.063.975.975 0 0 1 .066.074.452.452 0 0 0 .21.17Z"></path>
  <path d="M4.509 20.645c.563.117 1.134.19 1.708.216 1.07.044 2.156.068 3.208.091l1.282.03h.002a.08.08 0 0 0 .045-.013h1.631c1.77.004 3.6.007 5.386-.272.624-.097 1.352-.233 2.026-.504 1.354-.542 2.084-1.542 2.171-2.973.056-.92.014-1.846-.027-2.741a285.497 285.497 0 0 0-.238-4.944 89.65 89.65 0 0 0-.239-3.285c-.164-1.733-1.561-2.987-3.398-3.05a209.4 209.4 0 0 0-4.082-.085 51.817 51.817 0 0 0-1.144.002 30.89 30.89 0 0 1-1.874-.023c-1.414-.074-2.912-.012-4.859.203-1.265.14-2.218.51-2.998 1.168-.643.541-.956 1.17-.958 1.92 0 .242-.005.487-.014.729-.008.213-.023.43-.037.64-.04.45-.05.902-.032 1.353l.037.564c.096 1.474.196 2.998.095 4.502-.042.62-.03 1.251-.02 1.862l.003.137c.018 1.05.172 1.971.47 2.82.322.915.946 1.471 1.856 1.653Zm-.1-15.962.02-.01c.547-.3 1.153-.405 1.728-.485a28.16 28.16 0 0 1 3.942-.238c.55 0 1.091.009 1.622.02.964.02 1.945.033 2.893.046.83.011 1.69.023 2.534.039.39.005.78.038 1.166.1 1.387.23 2.154 1.129 2.218 2.6.052 1.207.101 2.436.148 3.624l.108 2.67c.013.323.031.65.05.966.027.495.056 1.007.066 1.51a22.2 22.2 0 0 1-.055 1.78c-.051.835-.539 1.429-1.45 1.764a8.589 8.589 0 0 1-1.72.41c-1.974.293-4 .28-5.96.267l-.259-.001h-.449a.083.083 0 0 0-.066.033l-1.288-.032c-1.254-.03-2.55-.063-3.824-.104a6.384 6.384 0 0 1-.977-.136l-.058-.01c-.539-.103-.9-.435-1.071-.987a9.029 9.029 0 0 1-.388-2.66 56.36 56.36 0 0 1 .009-1.237c.007-.541.015-1.1.002-1.652-.022-.957-.07-1.99-.153-3.248-.064-.993-.104-2.3.17-3.627a.149.149 0 0 0 .008-.056c-.064-.745.47-1.037 1.034-1.346Z"></path>
</svg>