<svg width="46" height="46" fill="currentColor" viewBox="0 0 24 24" xmlns="http://www.w3.org/2000/svg">
  <path d="M7.116 4.368c0-.3-.006-.574.002-.848.01-.338.098-.486.28-.498.18-.012.28.118.332.46.04.26.06.522.095.845l8.208-.07c.017-.173.029-.328.047-.482.02-.157.04-.315.072-.47.04-.187.151-.309.353-.31.22-.002.346.129.381.331.041.234.055.473.08.71l.022.23c.387.02.764.05 1.142.057 1.665.03 2.603 1.057 2.936 2.501.168.727.205 1.49.244 2.24.09 1.745.156 3.49.212 5.235.032.978.024 1.957.032 2.936.017 1.978-1.48 3.037-2.796 3.396a5.946 5.946 0 0 1-1.403.218c-2.77.068-5.542.144-8.312.146-1.478.001-2.946-.234-4.392-.548-1.11-.24-1.965-1.273-2.097-2.467a9.845 9.845 0 0 1-.05-1.188c.014-1.363.055-2.725.061-4.088.007-1.587-.009-3.175-.024-4.762-.004-.435-.032-.859.126-1.288.44-1.2 1.3-1.862 2.527-2.07.493-.085.996-.11 1.494-.164.13-.014.257-.031.428-.052Zm13.177 4.571c-2.818.093-5.572.191-8.327.271-2.767.081-5.534.145-8.321.217-.003.034-.013.097-.013.16-.003 2.117-.004 4.235-.005 6.352 0 .568-.003 1.137.023 1.705a1.765 1.765 0 0 0 1.442 1.66c1.602.272 3.202.525 4.836.48 1.49-.04 2.983-.026 4.474-.056a140.79 140.79 0 0 0 3.559-.124 2.786 2.786 0 0 0 1.442-.493c.575-.388.962-.897.974-1.63.01-.568.047-1.136.038-1.704-.034-2.156-.081-4.312-.122-6.468-.002-.13 0-.26 0-.37ZM3.539 8.44c5.58-.298 11.07-.493 16.596-.625-.032-.282-.036-.549-.095-.802-.183-.782-.525-1.452-1.376-1.684-.539-.147-1.092-.105-1.664-.091-.013.126-.021.229-.034.33-.011.106-.028.21-.05.313-.081.328-.247.477-.501.46-.256-.018-.403-.19-.426-.528-.013-.192-.002-.387-.002-.57h-8.1c0 .187.004.33 0 .472 0 .198-.01.396-.032.593a.374.374 0 0 1-.373.344c-.222.013-.348-.127-.398-.318a2.27 2.27 0 0 1-.037-.472c-.007-.178-.007-.357-.01-.584-.6.05-1.15.042-1.673.153-.871.186-1.587.62-1.748 1.593-.075.45-.053.916-.077 1.416Z"></path>
  <path d="M7.357 18.003c-.117.005-.34.024-.564.023-.484-.001-.78-.221-.87-.692a3.44 3.44 0 0 1 .07-1.643.664.664 0 0 1 .477-.48 5.51 5.51 0 0 1 1.952-.206c.352.024.624.221.705.591.122.56.155 1.125.003 1.685-.127.47-.429.702-.916.72-.25.01-.5.002-.857.002Zm.582-1.893h-1.03l.044.687h.986v-.687Z"></path>
  <path d="M13.722 16.221c0 .135.002.215 0 .294-.022.822-.285 1.142-1.098 1.284-.414.073-.835.12-1.255.156-.455.039-.76-.165-.85-.593-.113-.544-.179-1.096-.06-1.652.084-.392.314-.652.703-.71a13.378 13.378 0 0 1 1.573-.153c.588-.019.843.22.935.798.032.208.038.42.052.576Zm-1.18-.25h-1.135l.107.837c.256-.025.464-.044.673-.066.377-.041.418-.088.4-.473-.005-.09-.027-.178-.045-.297Z"></path>
  <path d="M16.49 17.867c-.25.012-.5.01-.75-.004-.453-.048-.717-.287-.744-.731a9.39 9.39 0 0 1 .018-1.464c.047-.498.272-.701.77-.74.486-.039.975-.05 1.462-.04.514.011.998.342.96 1.02-.019.33-.024.662-.067.988-.081.625-.386.9-1.018.947-.21.016-.42.027-.631.04v-.016Zm-.488-2.017.04.842h.922l.067-.729L16 15.85Z"></path>
  <path d="M16.449 13.577c-.224.012-.447.037-.67.035-.551-.005-.838-.266-.866-.812a12.561 12.561 0 0 1 0-1.267c.027-.528.217-.754.738-.809a13.97 13.97 0 0 1 1.733-.075c.537.01.823.313.82.863a7.513 7.513 0 0 1-.137 1.334c-.085.458-.36.67-.83.703-.26.019-.525.004-.788.004v.024Zm-.555-1.071h1.129l.092-.824-1.221-.054v.878Z"></path>
  <path d="M10.142 12.173c.027-.262.043-.54.085-.814.048-.31.202-.55.531-.617.583-.118 1.169-.219 1.767-.148.522.063.806.286.878.808a4.25 4.25 0 0 1-.019 1.176c-.06.422-.358.675-.78.73-.51.067-1.023.12-1.536.152-.496.03-.796-.224-.882-.718-.031-.181-.03-.368-.044-.57Zm2.141-.523-1.182-.078.049.783 1.133-.115v-.59Z"></path>
</svg>