<svg width="46" height="46" fill="currentColor" viewBox="0 0 24 24" xmlns="http://www.w3.org/2000/svg">
  <path d="m8.248 9.405.341-.434c.292-.369.594-.751.878-1.137.367-.498.342-.728-.127-1.17a2.655 2.655 0 0 0-.122-.106c-.031-.026-.064-.053-.095-.081l-.367-.332c-.353-.32-.718-.65-1.074-.977-.27-.25-.54-.499-.809-.75-.358-.333-.729-.679-1.097-1.014-.412-.376-.648-.375-1.05.003-.383.36-.77.728-1.144 1.084-.335.32-.67.637-1.006.955a1.455 1.455 0 0 0-.464 1.072c.003.315.043.63.12.936.194.835.61 1.584 1.014 2.31l.1.18c1.046 1.888 2.178 3.396 3.461 4.607.238.224.463.472.68.712.291.335.604.65.938.941a59.554 59.554 0 0 0 3.277 2.534c1.01.732 1.9 1.261 2.799 1.667a5.07 5.07 0 0 0 2.095.473c.31 0 .62-.031.924-.094l.048-.01c.462-.094.94-.191 1.34-.512.2-.16.418-.307.628-.448l.33-.226c.096-.068.196-.134.295-.2.246-.154.479-.327.696-.519.603-.558.477-.945.055-1.425-.461-.524-.91-1.075-1.347-1.607l-.52-.635a67.217 67.217 0 0 1-.409-.5c-.261-.32-.531-.653-.807-.972-.524-.606-.746-.625-1.396-.122-.45.348-.903.705-1.342 1.051l-.83.653c-.084.066-.171.126-.256.185l-.053.037-.507-.53c-1.718-1.797-3.494-3.654-5.435-5.31l.057-.068c.068-.081.126-.15.181-.22Zm-1.123.529a4509.32 4509.32 0 0 1 3.61 3.876l1.698 1.825c.071.077.144.153.216.228.122.127.248.259.365.392.378.431.814.485 1.457.181a2.89 2.89 0 0 0 .565-.388c.058-.047.116-.094.175-.139.448-.344.895-.69 1.35-1.043l.5-.386 3.049 3.718c-.156.11-.313.222-.465.332-.422.317-.862.609-1.32.873-.361.199-.818.262-1.255.31-.927.103-1.77-.055-2.507-.467l-.143-.08c-.73-.408-1.485-.83-2.178-1.313a32.107 32.107 0 0 1-2.755-2.12 17.178 17.178 0 0 1-1.224-1.221c-.275-.295-.56-.599-.855-.883-.76-.733-1.475-1.62-2.254-2.79-.69-1.037-1.22-2.125-1.646-3.052-.162-.352-.32-.772-.266-1.208.01-.17.07-.333.169-.47a82.3 82.3 0 0 1 1.443-1.58l.408-.44c1.076 1.216 2.25 2.358 3.364 3.414-.355.488-.77.93-1.234 1.315l-.09.069a2.197 2.197 0 0 0-.168.138c-.315.297-.317.578-.01.908Z"></path>
  <path d="M17.757 4.742c-1.598-1.045-3.502-1.57-5.993-1.654-.946-.037-2.447.268-3.297.57a1.598 1.598 0 0 0-.411.218c-.18.133-.232.318-.14.493.105.197.28.146.385.115l.06-.017c1.173-.274 2.08-.396 2.94-.396h.011c.943.006 1.883.117 2.8.332 2.181.494 3.885 1.54 5.207 3.2 1.192 1.494 1.633 3.19 1.346 5.184a5.607 5.607 0 0 1-.395 1.418c-.13.309-.147.567-.05.811a.485.485 0 0 0 .276.306c.04.014.08.02.121.02a.535.535 0 0 0 .264-.079c.223-.127.384-.328.503-.633.724-1.84.761-3.658.113-5.402-.666-1.79-1.924-3.299-3.74-4.486Z"></path>
  <path d="M17.42 12.21c.081.111.207.248.395.248a.42.42 0 0 0 .096-.011c.24-.056.283-.291.304-.404a2.69 2.69 0 0 0-.196-1.592 13.56 13.56 0 0 0-.535-1.1c-.52-.947-1.07-1.603-1.728-2.063-1.353-.945-2.503-1.399-3.729-1.47-.586-.035-1.052.04-1.467.234-.268.125-.261.313-.233.414.06.215.261.207.382.202.089-.004.183-.012.29-.024l.478-.059.199-.025c.63.007 1.28.166 2.042.5 1.356.595 2.293 1.431 2.865 2.556.094.184.182.377.267.564.058.13.117.26.179.388.158.3.23.637.208.975a.955.955 0 0 0 .183.667Z"></path>
</svg>