<svg width="46" height="46" fill="currentColor" viewBox="0 0 24 24" xmlns="http://www.w3.org/2000/svg">
  <path d="M18.38 9.884a5.083 5.083 0 0 0-.019-.393l-.054-.555a45.52 45.52 0 0 0-.213-1.946c-.038-.27-.152-.46-.33-.548-.188-.093-.425-.064-.688.084-.453.255-.918.47-1.411.697-.18.082-.36.165-.542.251l-.022-.115c-.028-.146-.054-.285-.09-.422-.147-.545-.351-.712-.912-.743-.172-.01-.345-.007-.546-.005l-.133.002c.403-.411.713-.788.819-1.299.124-.602-.012-1.112-.417-1.557-.666-.735-1.627-.837-2.571-.275-.335.2-.576.52-.715.95-.039.12-.072.24-.099.363 0-.086-.007-.173-.021-.258-.126-.773-.421-1.314-1.498-1.615-.578-.162-1.057-.024-1.422.409a2.832 2.832 0 0 0-.68 1.698c-.044.683.272 1.197.915 1.486l.032.014-.197.012c-.375.023-.725.044-1.074.067-.63.04-.815.238-.792.845.051 1.383.112 2.65.185 3.874.037.609.277.855.918.94.151.018.304.027.457.025h.006c.395 0 .79-.002 1.186-.004l1.042-.004c.077 0 .153.006.235.012l.038.003a1.356 1.356 0 0 1-.018.154c-.291 1.512-.503 3.15-.667 5.158-.08.995-.19 2.004-.297 2.98l-.02.175a2.951 2.951 0 0 1-.078.39 3.827 3.827 0 0 0-.071.331c-.04.251.055.44.267.53a.474.474 0 0 0 .596-.222c.074-.128.122-.269.142-.415a67.9 67.9 0 0 0 .238-2.05c.093-.964.185-1.93.275-2.895.095-1.015.194-2.064.294-3.095.025-.256.07-.516.112-.768l.049-.296.084-.005c.095-.006.175-.011.257-.01.078 0 .158.006.242.012l.053.004c.148 1.856.546 3.667.932 5.418l.167.76c.152.703.303 1.42.448 2.113l.216 1.028c.008.045.02.089.036.132.086.219.263.353.456.353a.38.38 0 0 0 .075-.007c.26-.046.41-.212.424-.465.006-.13-.003-.26-.027-.388a17.54 17.54 0 0 0-.198-.931c-.731-2.95-1.25-5.394-1.631-7.694a18.973 18.973 0 0 1-.043-.274l-.012-.075h.404c.21-.003.42-.006.63-.007.524-.006 1.066-.011 1.599-.032.533-.02.654-.144.687-.698.011-.194.008-.386.005-.59l-.002-.184.088.027c.12.036.225.068.332.097l.468.13c.394.111.801.226 1.208.315.316.07.544.042.695-.086.153-.13.22-.353.204-.684a8.674 8.674 0 0 1-.007-.229Zm-1.065-.133-2.023-.473-.097-1.01 2.036-.922.084 2.405ZM6.948 11.04l-.01-.003-.366-3.985A323.61 323.61 0 0 0 8.08 7.03c2.01-.031 4.088-.063 6.16.028.14.84.186 1.693.235 2.595.023.426.046.866.081 1.306l-.147.022c-.142.025-.285.04-.428.045-2.136.012-4.308.018-6.408.024l-.56.001a.195.195 0 0 1-.065-.012Zm2.386-6.232c-.073.437-.308.622-.793.613-.348-.005-.597-.098-.741-.276-.145-.178-.183-.439-.117-.777.06-.303.155-.65.408-.926.178-.194.23-.202.47-.07l.046.025c.309.17.6.33.676.678.061.24.079.488.051.733Zm3.89-.23c-.006.478-.287.926-.667 1.066-.356.132-.798.011-1.075-.293-.284-.311-.321-.678-.119-1.187.163-.41.46-.649.88-.71a.62.62 0 0 1 .087-.007.107.107 0 0 1 .05.007c.045.04.093.08.14.12.298.249.58.484.695.86a.366.366 0 0 1 .01.109l-.001.036Zm-2.726.661c.112.234.242.458.388.672l.099.153H9.491c.461-.296.786-.763.905-1.298.001.163.036.324.102.473Z"></path>
</svg>