<svg width="46" height="46" fill="currentColor" viewBox="0 0 24 24" xmlns="http://www.w3.org/2000/svg">
  <path d="M23.136 14.209c-.005-.414-.01-.841-.021-1.261a53.273 53.273 0 0 1-.011-.474 18.42 18.42 0 0 0-.077-1.57 42.537 42.537 0 0 0-.206-1.55 37.44 37.44 0 0 1-.211-1.602c-.131-1.265-1.047-2.571-2.756-2.454a14.16 14.16 0 0 1-1.787-.028 28.444 28.444 0 0 0-.933-.044c-.206-.005-.349-.093-.492-.305-.18-.264-.37-.527-.554-.78l-.227-.315c-.203-.283-.477-.4-.885-.383-1.342.058-2.554.095-3.705.112-.586.009-1.184-.03-1.743-.073-.649-.05-1.145.166-1.56.68-.26.306-.543.594-.846.86-.1.092-.201.185-.3.279a.751.751 0 0 1-.181.11l-.032.016-.016-.055-.071-.248c-.204-.67-.566-.933-1.24-.914a19.89 19.89 0 0 0-1.345.097.996.996 0 0 0-.905.733 4.73 4.73 0 0 0-.125.588c-.014.079-.027.16-.043.24l-.04.017c-.071.028-.152.06-.231.1-.735.365-1.167.801-1.36 1.371-.14.418-.168.875-.178 1.309-.05 2.062-.087 4.16-.124 6.188L.903 16.38c-.026 1.466.388 2.522 1.306 3.326.334.292.635.511 1.021.63.715.22 1.44.256 2.149.256a2271.193 2271.193 0 0 0 10.738-.146 116.15 116.15 0 0 0 3.913-.126 4.378 4.378 0 0 0 1.252-.251c1.089-.394 2.053-2.004 1.947-3.25-.074-.866-.084-1.752-.093-2.61ZM2.166 8.177c-.007-.655.142-1.042.975-1.345.5-.181 1.055-.246 1.593-.309.155-.018.31-.036.464-.057.267-.036.542-.054.808-.072.254-.017.516-.035.774-.067.12-.016.421-.07.63-.253.454-.392.886-.808 1.296-1.246.223-.239.427-.337.702-.337h.01c1.305.011 2.52.012 3.711 0a22.373 22.373 0 0 0 1.592-.083.557.557 0 0 1 .552.259c.298.427.54.779.76 1.106a.962.962 0 0 0 .812.455c.398.014.796.03 1.195.047.609.026 1.24.052 1.86.067.943.022 1.481.456 1.6 1.292.05.36.106.725.16 1.078.241 1.584.49 3.22.407 4.864-.043.826-.012 1.668.018 2.483.011.311.023.633.03.95.023.946-.603 1.887-1.396 2.1-.39.091-.79.137-1.19.136-1.631.035-3.267.052-4.85.068-.541.005-1.092.004-1.625.002h-.738a.08.08 0 0 0-.063.028l-1.663.02c-1.626.02-3.307.04-4.96.052-.445-.003-.89-.03-1.332-.08-.986-.104-1.891-.964-2.017-1.916a21.65 21.65 0 0 1-.155-2.31 82.25 82.25 0 0 1-.004-2.685l.003-.411c.004-.465.013-.938.02-1.395.016-.8.03-1.627.022-2.441Zm1.592-2.495c.037-.413.12-.487.5-.524.22-.022.446-.033.665-.044l.22-.012c.059-.003.11-.006.153-.006.229 0 .277.067.318.431l-1.856.155Z"></path>
  <path d="M9.65 15.937a4.823 4.823 0 0 0 2.081.404c.08.004.16.006.24.006 1.013 0 2.027-.312 3.09-.95.273-.171.515-.386.716-.637.606-.729.92-1.647.961-2.808a4.907 4.907 0 0 0-.956-3.14 4.264 4.264 0 0 0-2.835-1.657c-.692-.101-1.459.044-2.117.2-1.838.436-2.946 1.521-3.293 3.226-.11.543-.219 1.18-.19 1.799.081 1.718.856 2.915 2.302 3.557Zm5.836-3.93.01.002c-.027.126-.052.252-.076.376a5.112 5.112 0 0 1-.271 1.015c-.17.399-.44.753-.723.947-1.178.809-2.461 1.062-3.815.755-1.466-.332-2.294-1.52-2.162-3.098.055-.55.148-1.096.278-1.633.219-.959 1.401-2.062 2.604-2.062h.091c.679.007 1.32.013 1.94.264 1.224.494 1.896 1.42 2.056 2.833.01.116.012.233.006.35a5.418 5.418 0 0 0-.004.17.081.081 0 0 0 .066.081Z"></path>
  <path d="M17.848 9.234c.208.02.42.036.624.05l.27.02h.005a.083.083 0 0 0 .046-.016h.123c.12.002.243.003.366 0 .589-.017.881-.277.947-.843.036-.301.05-.604.041-.908-.02-.647-.268-.912-.855-.912h-.002c-.538.001-1.08.096-1.607.188l-.213.037c-.283.048-.467.297-.467.633.002.382.026.764.074 1.143.042.35.278.57.648.608Zm.185-1.68c.07-.08.231-.11.553-.104a.721.721 0 0 1 .078.007.923.923 0 0 0 .082.008c.273.012.438.02.488.076.05.057.038.221.017.493-.013.169-.021.28-.054.31-.033.03-.148.031-.32.031h-.837l-.013-.085-.029-.182c-.045-.313-.036-.473.035-.553Z"></path>
</svg>