<svg width="46" height="46" fill="currentColor" viewBox="0 0 24 24" xmlns="http://www.w3.org/2000/svg">
  <path d="M7.451 14.335c.05-2.035.095-4.07.149-6.104.03-1.157.282-2.275.84-3.285.71-1.283 1.733-2.233 3.203-2.596a3.464 3.464 0 0 1 1.555-.003c.633.142 1.23.407 1.76.78.688.468 1.056 1.147 1.226 1.937.094.458.163.92.207 1.384.07.67.114 1.342.164 2.014.009.137.007.275-.007.412-.045.51-.26.755-.76.82-.38.058-.765.084-1.15.078-.437-.017-.937-.208-.988-.843-.054-.657-.123-1.314-.188-1.97a4.84 4.84 0 0 0-.06-.449c-.101-.526-.21-.632-.733-.64-.83-.014-1.444.342-1.614 1.202-.225 1.137-.324 2.285-.398 3.437-.154 2.406-.019 4.811.048 7.217.03 1.03.03 2.063.024 3.094-.002.601-.26.834-.862.865-.439.023-.876.073-1.315.103-.607.04-.825-.113-.976-.695a1.972 1.972 0 0 1-.07-.486c-.005-2.09-.006-4.18-.003-6.271l-.052-.001Zm.903 3.638-.074 2.553 1.297-.123v-1.787l-1.223-.643Zm1.134-3.885v-2.482l-1.015-.694c-.013.864-.028 1.642-.03 2.42a.322.322 0 0 0 .143.22c.274.177.56.335.902.536Zm-1.089.576v2.253l1.12.534v-2.056l-1.12-.731Zm4.085-11.552.114 1.582c.284.056.549.115.817.157.079.01.159-.01.224-.056.316-.256.624-.523.96-.808-.625-.499-1.276-.834-2.115-.875Zm-.742.091c-.766.265-1.338.657-1.799 1.235l.818.86.831-.454.15-1.641Zm-2.189 7.185.114-1.847-1.068-.527-.095 1.762 1.05.612Zm.559-4.33-.655-.933c-.342.464-.694 1.502-.67 1.954l.99.383.335-1.405Zm4.94-1.22-.843.546.312 1.172.773-.296c-.005-.49-.05-.945-.242-1.422Zm.415 3.745c-.029-.441.011-.845-.11-1.248l-.818.186v1.153c.182-.01.33-.013.477-.027.135-.013.269-.038.45-.064h.001Z"></path>
</svg>