<svg width="46" height="46" fill="currentColor" viewBox="0 0 24 24" xmlns="http://www.w3.org/2000/svg">
  <path d="M5.406 17.826c0 .483.029.895-.007 1.302-.047.525-.305.82-.825.88-.622.08-1.25.108-1.876.084-.53-.026-.767-.349-.787-.884a32.312 32.312 0 0 1-.03-1.284c0-.244-.074-.415-.334-.453-.573-.083-.718-.49-.733-.981-.016-.481-.015-.963-.019-1.445-.008-.857-.008-1.713-.024-2.57-.016-.801.3-1.42.971-1.861.13-.086.246-.193.37-.291-.032-.034-.04-.048-.05-.053-.86-.4-.963-1.082-.251-1.753.504-.476 1.13-.658 1.808-.628.258.011.353-.073.42-.303.16-.552.364-1.091.51-1.646.303-1.149 1.075-1.62 2.217-1.721 3.242-.291 6.485-.468 9.742-.413.561.009.982.17 1.273.662.556.944 1.135 1.874 1.684 2.822.116.2.21.271.456.26a6.71 6.71 0 0 1 1.313.069 1.266 1.266 0 0 1 .92.651c.311.532.185 1.094-.324 1.441-.087.06-.177.113-.304.194.253.16.464.325.7.438.57.275.795.748.85 1.345.123 1.366.111 2.725-.15 4.077-.116.608-.37 1.11-.965 1.388-.071.034-.133.18-.126.27.03.372.102.741.131 1.114.072.9-.31 1.327-1.201 1.365-.549.023-1.097.05-1.646.065-.869.022-1.156-.252-1.189-1.127a5.028 5.028 0 0 1 0-.722c.032-.293-.038-.396-.361-.377-.922.052-1.846.085-2.77.087-2.998.009-5.997 0-8.996-.002h-.397Zm5.12-1.006v.051c2.368-.04 4.736-.046 7.102-.136 1.144-.043 2.286-.216 3.42-.39.635-.096.756-.265.8-.91.076-1.079.106-2.16.166-3.239.034-.597-.15-1.002-.734-1.3-.706-.363-1.406-.789-1.799-1.545-.234-.45-.478-.896-.725-1.339-.528-.944-1.075-1.877-1.585-2.83-.233-.435-.562-.565-1.036-.569a86.687 86.687 0 0 0-9.333.468c-.748.075-1.26.373-1.435 1.14-.046.181-.103.36-.171.534-.335.93-.663 1.862-1.016 2.785-.08.181-.204.34-.362.459-.523.416-1.046.836-1.603 1.203-.563.372-.775.834-.7 1.512.13 1.182.201 2.37.27 3.559.016.273.109.393.363.407.92.048 1.84.124 2.76.134 1.871.02 3.745.006 5.617.006Zm9.224 2.093c.239-.018.478-.049.718-.052.196-.003.297-.066.292-.277-.008-.28-.004-.56.001-.84.004-.18-.055-.267-.258-.242-.502.062-1.008.098-1.509.173-.084.012-.203.158-.213.253-.104.959-.017 1.044.929.989a.378.378 0 0 0 .04-.004ZM2.515 17.837c.056.35.108.744.193 1.131a.328.328 0 0 0 .234.205c.4.012.8-.001 1.199-.04.098-.011.236-.167.255-.275.042-.264.056-.531.042-.798-.003-.075-.098-.211-.153-.213-.583-.016-1.166-.01-1.77-.01ZM20 8.137l-.05.098c.118.207.229.417.352.619.288.476.359.49.845.19.33-.204.345-.474-.01-.62-.358-.147-.756-.196-1.137-.287Zm-16.359.418c-.524.076-.945.226-1.272.582-.129.141-.14.257.09.349.604.237.775.17 1.007-.457l.175-.475Z"></path>
  <path d="M10.854 10.84c-1.163.035-2.326.082-3.49.097-.518.007-1.039-.041-1.557-.084-.671-.054-1.114-.806-.863-1.457.368-.957.64-1.95.952-2.928a1.02 1.02 0 0 1 .755-.711 10.322 10.322 0 0 1 1.53-.296c1.57-.144 3.143-.28 4.718-.36.932-.048 1.87.018 2.806.028.604.006 1.067.274 1.353.79.545.978 1.098 1.957 1.279 3.09.02.09.055.175.105.252.404.684.197 1.159-.58 1.244a46.19 46.19 0 0 1-2.876.241c-1.376.063-2.754.076-4.131.11v-.015Zm6.534-1.268c-.4-1.027-.748-1.95-1.12-2.863-.286-.706-.33-.718-1.084-.68-2.163.11-4.326.21-6.488.333-.586.034-1.168.131-1.751.206a.61.61 0 0 0-.558.494c-.191.723-.416 1.436-.596 2.162-.2.81-.129.718.55.702 2.514-.058 5.027-.139 7.54-.218 1.135-.035 2.269-.087 3.507-.136Z"></path>
  <path d="M11.567 14.59c-1.083.042-2.166.087-3.249.127-.173.007-.369.041-.516-.024-.16-.07-.345-.22-.394-.374-.07-.224.125-.38.337-.415.37-.059.742-.096 1.116-.112 1.991-.086 3.983-.165 5.974-.238.321 0 .642.02.96.057.248.019.409.159.416.406.007.25-.162.398-.395.433-.317.051-.636.08-.957.087-1.097.01-2.194.004-3.292.004v.048Z"></path>
  <path d="M8.795 13.435c-.16 0-.333.04-.474-.011-.127-.046-.292-.183-.305-.295-.013-.116.108-.307.222-.364a1.88 1.88 0 0 1 .654-.168c1.488-.141 2.977-.27 4.466-.403a.582.582 0 0 1 .16.004c.265.051.547.088.584.437.028.26-.183.482-.55.523-.476.054-.958.07-1.438.093-1.107.054-2.214.102-3.32.152v.032Z"></path>
  <path d="M19.003 14.235c-.6-.006-.996-.293-1.138-.823-.136-.506.147-1.238.587-1.474a.963.963 0 0 1 .383-.096c.492-.033.923.15 1.302.44.357.274.424.778.198 1.202-.244.456-.777.757-1.332.75Z"></path>
  <path d="M5.643 13.345c.001.736-.623 1.362-1.348 1.352a1.103 1.103 0 0 1-1.093-1.138c.01-.8.557-1.322 1.389-1.326.62-.003 1.05.453 1.052 1.112Z"></path>
</svg>