<svg width="46" height="46" fill="currentColor" viewBox="0 0 24 24" xmlns="http://www.w3.org/2000/svg">
  <path d="m20.831 9.994-.06-.028a3.815 3.815 0 0 0-.537-.218 75.56 75.56 0 0 0-1.388-.379 82.119 82.119 0 0 1-.518-.138l-.325-.086-.245-.065.001-.61.003-.647c.003-.478.006-.97-.003-1.455-.015-.757-.457-1.353-1.183-1.591l-.04-.014a1.71 1.71 0 0 0-.341-.089l-.37-.042a50.089 50.089 0 0 0-1.918-.195 12.289 12.289 0 0 0-.973-.024c-.155.001-.31.002-.465 0a102.7 102.7 0 0 1-1.004-.02c-.567-.011-1.15-.024-1.73-.024-.173 0-.346.001-.519.004-.571.009-1.153.044-1.716.079-.352.021-.718.045-1.077.06-.83.04-1.656.158-2.465.355a1.903 1.903 0 0 0-1.421 1.858c.019.973.019 1.964.019 2.921 0 .388 0 .775.002 1.162 0 .226-.003.451-.005.677-.006.467-.012.95.015 1.422.064 1.107.305 1.641 1.566 1.879.096.018.197.031.294.044.064.008.128.016.192.026l.432.069.268.044.005.065.01.105a.66.66 0 0 1 .007.164c-.07.536.158.912.698 1.15.168.073.334.15.5.226.461.227.938.42 1.428.575 1.563.451 3.168.858 4.72 1.252l.252.064c1.377.35 2.756.673 3.921.942.647.15 1.1.085 1.466-.21.272-.215.51-.471.704-.759.198-.321.359-.665.478-1.023.291-.814.578-1.646.855-2.45.16-.468.323-.935.486-1.402.323-.93.513-1.71.595-2.457.062-.563-.161-1.007-.614-1.217ZM3.821 6.123c.144-.15.384-.218.513-.245A18.13 18.13 0 0 1 6.545 5.6c2.233-.176 4.438-.163 6.882-.131.907.012 1.793.039 2.676.231.507.11.703.337.721.836.007.185.006.373.004.572l-.002.3v.085l-.083-.001c-.688-.009-1.371-.019-2.05-.03a291.836 291.836 0 0 0-4.579-.048c-1.522.001-3.074.029-4.575.055-.673.012-1.348.024-2.025.034h-.062l-.018-.059c-.143-.468-.016-.9.387-1.32ZM3.423 8.37h.082c.532-.003 1.061-.007 1.587-.012 1.179-.01 2.398-.02 3.592-.015 1.032.006 2.08.03 3.093.053.426.009.851.019 1.277.027l1.704.035 1.51.03c.09.003.179.003.28.002l.24-.001v.655h-.082c-.96.001-1.92 0-2.88-.002-3.377-.006-6.868-.012-10.316.148l-.087.004V8.37Zm2.374 5.677-.67-.04a7.28 7.28 0 0 1-.855-.118l-.212-.037c-.304-.051-.485-.244-.508-.542l-.025-.278c-.02-.219-.042-.445-.047-.67-.007-.465-.005-.923-.004-1.408l.001-.608v-.076l.075-.007.147-.016a2.64 2.64 0 0 1 .28-.022c.235-.003.47-.002.704-.002.26 0 .52 0 .78-.003.441-.006.88-.014 1.32-.023.81-.016 1.648-.032 2.472-.03 1.635.006 3.298.024 4.906.04l2.1.022h.5s.027.377.027.421c.016.828.062 1.667-.119 2.6-.117.608-.254.741-.864.833-.045.006-.09.009-.135.01-.681.007-1.363.015-2.044.025-1.59.021-3.23.043-4.85.043h-.234c-.916-.001-1.846-.058-2.745-.114Zm13.332.708a1.575 1.575 0 0 0-.008.09.755.755 0 0 1-.027.184c-.27.847-.534 1.677-.81 2.51-.061.174-.14.342-.235.5-.17.295-.306.413-.546.413a1.441 1.441 0 0 1-.324-.048c-.437-.106-.874-.215-1.31-.323l-.81-.201c-.567-.14-1.134-.28-1.7-.418-1.304-.32-2.653-.65-3.976-.988-.884-.225-1.795-.458-2.626-.892-.244-.127-.26-.158-.255-.468l.001-.075.075-.006c.48-.038.963-.03 1.442.021.04.003.08.01.12.017.052.01.105.016.159.018l1.24.03c1.024.026 2.084.052 3.124.045a38.485 38.485 0 0 0 3.322-.173c.645-.06 1.112-.34 1.389-.828l.033-.059 1.73.585-.008.066Zm.717-1.902-.332.994-1.776-.488-.104-.042c.065-.268.05-.49.092-.735.026-.148.05-.582.05-.582l2.088.774-.018.079Zm.316-1.045-.086-.018a17.582 17.582 0 0 1-2.163-.607l-.055-.02v-1.137l2.458.823-.154.959Z"></path>
  <path d="M14.686 11.004c-.194-.056-.367-.004-.552.052-.055.016-.11.033-.165.047l-.079.02c-.146.04-.311.085-.443.03a1.346 1.346 0 0 0-.53-.106 2.409 2.409 0 0 0-.775.156 1.157 1.157 0 0 0-.752.852 1.112 1.112 0 0 0 .295 1.05c.447.438.994.53 1.624.275a.803.803 0 0 1 .607-.01c.181.06.449.138.68.11.578-.072 1.002-.588 1.007-1.228v-.01a1.272 1.272 0 0 0-.917-1.238Zm-1.754 1.441a.268.268 0 0 1-.202.07.968.968 0 0 1-.138-.018.31.31 0 0 1-.144-.546.31.31 0 0 1 .256-.066l.037.014a.392.392 0 0 1 .243.452.266.266 0 0 1-.052.094Zm1.65-.159a.47.47 0 0 1-.286.156.248.248 0 0 1-.137-.036.282.282 0 0 1-.114-.222.272.272 0 0 1 .064-.225.258.258 0 0 1 .213-.075.278.278 0 0 1 .26.402Z"></path>
  <path d="M9.574 6.574c.01.188-.122.251-.36.317l-.018.005a.633.633 0 0 1-.124.025c-.118.002-1.201.039-1.422.009-.085-.012-.211-.028-.26-.078-.1-.102-.088-.227-.1-.326-.015-.124.092-.2.204-.221.396-.072.727-.14 1.143-.14.196 0 .39.016.583.05.222.04.345.165.354.359Z"></path>
  <path d="M6.203 6.669c.001.102-.026.282-.214.33a4.97 4.97 0 0 1-.541.095 4.61 4.61 0 0 1-.503-.008c-.23-.024-.428-.044-.63-.073-.214-.032-.34-.144-.335-.302.005-.15.122-.257.313-.286.48-.074 1.529-.113 1.635-.075l.063.023a.288.288 0 0 1 .212.296Z"></path>
</svg>