<svg width="46" height="46" fill="currentColor" viewBox="0 0 24 24" xmlns="http://www.w3.org/2000/svg">
  <path d="M11.543 3.757c2.047.03 4.094.047 6.14.098a8.33 8.33 0 0 1 1.665.218c.453.116.89.284 1.305.5.54.268 1.069.722 1.195 1.312.133.572.213 1.154.24 1.74.024.852-.065 1.707-.059 2.561.01 1.39.056 2.779.094 4.168.018.655.061 1.309.075 1.963.017.81-.343 1.602-.863 2.213a6.259 6.259 0 0 1-.79.79c-.872.715-1.952.953-3.092.9-1.764-.08-3.53-.124-5.295-.162-1.204-.026-2.409-.022-3.613-.022-1.057 0-2.115.014-3.162-.162-.382-.065-.76-.15-1.138-.236a3.005 3.005 0 0 1-1.587-.962c-.45-.505-.513-1.149-.647-1.793-.336-1.619-.21-3.25-.116-4.875.1-1.735.243-3.466.37-5.2.043-.589.058-1.168.316-1.706.462-.963 1.219-1.45 2.3-1.43 2.22.042 4.44.075 6.661.112v-.027Zm-.59.791c-1.145 0-2.844-.009-4.544.005-.572.005-1.15-.018-1.71.16-.417.132-.73.358-.93.759-.221.443-.295.912-.324 1.394-.108 1.84-.202 3.683-.319 5.523-.094 1.482-.2 2.96.068 4.437.151.831.53 1.461 1.386 1.677.594.15 1.202.292 1.81.327 1.214.07 2.433.064 3.65.09.776.018 1.551.03 2.327.056 1.792.058 3.584.116 5.375.186a3.023 3.023 0 0 0 2.175-.765c.705-.613 1.159-1.343 1.13-2.327-.045-1.536-.058-3.073-.081-4.61a38.707 38.707 0 0 1 0-1.363c.019-.894.06-1.788.064-2.683a7.774 7.774 0 0 0-.116-1.113c-.071-.505-.37-.826-.825-1.054-.86-.433-1.782-.566-2.721-.59-1.953-.048-3.907-.068-6.414-.109Z"></path>
  <path d="M9.24 7.867c-.02.32-.03.64-.061.957-.047.478-.325.814-.77.927a7.158 7.158 0 0 1-2.624.15c-.167-.02-.328-.11-.488-.174-.512-.204-.705-.667-.677-1.24.01-.185.005-.371.02-.556.014-.291.043-.582.087-.87.1-.555.485-.885 1.005-.958a16.15 16.15 0 0 1 2.273-.16c.66 0 1.08.485 1.158 1.204.026.238.035.479.052.719l.025.001Zm-.909.067c-.773-.04-1.27-.34-1.473-1.286-.162-.026-.17.084-.173.196a1.372 1.372 0 0 1-.318.802c-.111.144-.232.281-.324.39l.606.993.253-.012c.273-.646.744-1.003 1.43-1.083Zm-3.024-.249c.568-.103.922-.48.915-.954-.548-.014-.872.347-.915.954ZM7.412 6.65c.098.449.37.667.9.724-.05-.722-.243-.876-.9-.724Zm.91 1.81c-.366.093-.68.208-.881.575.185 0 .33.004.474-.001.4-.015.46-.091.408-.574ZM5.389 8.3c.114.544.265.673.762.684-.162-.315-.338-.604-.762-.683Z"></path>
  <path d="M16.498 16.89c-.593.625-2.056.362-2.557-.391a1.476 1.476 0 0 1-.172-1.304c.122-.366.315-.704.567-.995.457-.531 1.074-.519 1.697-.35.14.046.278.101.411.164.58-.679 1.293-.536 1.983-.27.72.276 1.088.862 1.088 1.623.002 1.51-1.1 1.96-2.258 1.759-.247-.043-.482-.15-.759-.237Zm1.142-.581c.45-.006.768-.161.88-.449.213-.545.025-1.094-.5-1.365-.208-.108-.451-.153-.682-.212-.356-.092-.594.103-.77.371-.385.585-.163 1.26.492 1.508.19.06.384.11.58.147Zm-1.637.118c-.544-.75-.401-1.453.064-2.13-.465-.202-.922-.125-1.227.193-.35.364-.524 1.042-.33 1.402.318.592.884.54 1.493.535Z"></path>
  <path d="M6.02 11.713c-.44-.032-.88-.056-1.32-.098-.368-.035-.524-.157-.528-.377-.003-.222.14-.352.516-.378.52-.036 1.04-.039 1.562-.047a.821.821 0 0 1 .27.06c.196.068.315.2.312.416a.432.432 0 0 1-.375.409c-.145.02-.29.03-.437.032v-.017Z"></path>
  <path d="M17.64 11.696c-.347 0-.694.002-1.041-.002a.43.43 0 0 1-.233-.038c-.088-.065-.202-.163-.209-.255-.006-.089.092-.21.177-.273a.57.57 0 0 1 .303-.081c.627-.027 1.254-.05 1.881-.06.16-.006.32.02.47.08.107.045.24.171.246.268.006.099-.112.232-.21.3a.658.658 0 0 1-.343.081c-.347.01-.694.004-1.041.004v-.024Z"></path>
  <path d="M13.434 11.816c-.384-.032-.769-.062-1.153-.1-.192-.018-.333-.106-.334-.322-.002-.235.172-.288.352-.294a66.834 66.834 0 0 1 2.156-.059c.28-.001.41.13.423.33.013.21-.122.379-.405.404-.343.03-.69.007-1.037.007l-.002.034Z"></path>
  <path d="M9.614 11.728c-.37-.032-.728-.06-1.086-.095a.745.745 0 0 1-.23-.06c-.132-.059-.236-.17-.179-.313.037-.09.155-.155.247-.216a.336.336 0 0 1 .157-.017c.533-.024 1.065-.052 1.598-.068.133-.006.266.01.394.044a.322.322 0 0 1 .264.31.34.34 0 0 1-.262.356c-.128.036-.26.055-.393.057-.173.009-.347.002-.51.002Z"></path>
</svg>