<svg width="46" height="46" fill="currentColor" viewBox="0 0 24 24" xmlns="http://www.w3.org/2000/svg">
  <path d="M11.623 3.762c2.047.03 4.094.054 6.141.093.93.018 1.828.18 2.685.575.721.332 1.207.842 1.358 1.62.113.535.179 1.079.198 1.625.015.84-.068 1.681-.061 2.522.011 1.402.059 2.805.097 4.207.017.642.059 1.282.07 1.923a3.11 3.11 0 0 1-.785 2.131c-.24.286-.504.55-.79.79-.873.715-1.873 1.03-3.013.978-1.764-.08-3.53-.129-5.295-.162-1.472-.029-2.944 0-4.416-.03a30.513 30.513 0 0 1-2.36-.16c-.382-.038-.76-.145-1.136-.232a3.016 3.016 0 0 1-1.586-.965c-.452-.505-.514-1.149-.643-1.794-.4-1.996-.151-3.997-.045-5.995.071-1.348.194-2.693.296-4.039.044-.589.056-1.166.305-1.71.452-.987 1.248-1.482 2.319-1.462 2.22.043 4.44.076 6.661.112v-.027Zm-8.392 8.673c-.19 1.521-.213 3.012.056 4.497.142.784.55 1.37 1.351 1.572.607.153 1.228.297 1.85.333 1.227.07 2.459.062 3.69.088.748.017 1.497.03 2.246.055 1.805.059 3.61.117 5.415.187a3.007 3.007 0 0 0 2.17-.779c.703-.615 1.148-1.35 1.114-2.334-.038-1.095-.03-2.191-.045-3.286 0-.103-.02-.205-.031-.308-.136.006-.242.016-.348.015-2.34-.033-4.681-.073-7.022-.101-2.394-.03-4.789-.06-7.183-.064-1.042-.002-2.084.061-3.126.096a.878.878 0 0 0-.137.03Zm17.813-2.393c.025-.307.061-.57.065-.835.009-.601.016-1.203-.003-1.804a9.875 9.875 0 0 0-.11-1.075c-.074-.52-.377-.85-.848-1.084-.862-.428-1.785-.554-2.724-.581a257.189 257.189 0 0 0-4.577-.08c-1.378-.014-2.757-.014-4.135-.015-1.07 0-2.146-.054-3.21.027-1.25.095-1.532.423-1.855 1.386a1.08 1.08 0 0 0-.053.275 896.9 896.9 0 0 0-.235 3.68.5.5 0 0 0 .036.143c2.949-.046 5.877-.122 8.805-.129 2.928-.006 5.857.058 8.844.092Z"></path>
  <path d="M15.241 14.218c.08-.021.164-.036.247-.044.921.002 1.842.005 2.763.016.319.004.637.037.955.054.209.012.315.123.334.326.036.385.087.77.104 1.155.013.309-.137.47-.456.493-.452.031-.906.047-1.36.045-.694-.003-1.388-.026-2.082-.042a2.16 2.16 0 0 1-.359-.026c-.173-.034-.298-.145-.3-.327-.005-.54-.087-1.09.154-1.65Zm3.68.541-3.438-.106.133.965c1.114-.077 2.197.108 3.306.025v-.884Z"></path>
</svg>