<svg width="46" height="46" fill="currentColor" viewBox="0 0 24 24" xmlns="http://www.w3.org/2000/svg">
  <path d="M19.38 9.408a1.632 1.632 0 0 0-.269-.29 52.905 52.905 0 0 0-.739-.652l.046-.049c.074-.078.15-.159.219-.244l.062-.078c.17-.21.364-.448.534-.69a.394.394 0 0 0-.04-.525.407.407 0 0 0-.522-.013 2.3 2.3 0 0 0-.318.277c-.167.167-.335.34-.497.508l-.017.018-.143.148a35.818 35.818 0 0 1-.191-.16c-.196-.163-.398-.333-.604-.493a2.66 2.66 0 0 0-.442-.263.356.356 0 0 0-.452.112.336.336 0 0 0 0 .437c.073.092.155.177.243.255l.047.045c.157.15.315.298.474.447l.275.258-.011.013a1.63 1.63 0 0 1-.094.11c-.072.074-.146.147-.223.223-.129.129-.29.288-.434.447-.118.12-.21.262-.272.419a.44.44 0 0 0 .082.458.425.425 0 0 0 .314.13c.05 0 .1-.008.149-.023a.981.981 0 0 0 .352-.206c.082-.074.16-.153.23-.237l.1-.108.472-.498.241.253c.15.158.296.311.442.462l.035.037c.062.07.13.133.204.189.23.164.516.154.696-.024a.54.54 0 0 0 .052-.693Z"></path>
  <path d="m7.816 9.495 5.69-.336c.031-.228.064-.454.093-.68.255-1.99 1.983-3.409 3.493-3.626 1.656-.239 3.68.33 4.322 2.345a3.4 3.4 0 0 1 .105 1.747c-.127.608-.309 1.199-.646 1.726-.448.7-1.064 1.187-1.88 1.375-.227.052-.319.156-.368.367-.17.72-.336 1.443-.539 2.155a7.096 7.096 0 0 1-.45 1.14c-.126.26-.403.318-.672.322-.261.004-.523-.017-.784-.022a6921.41 6921.41 0 0 0-6.475-.132c-.067-.002-.134.006-.267.012l.497 1.813h.474c2.173-.017 4.346-.036 6.52-.043.258.003.515.042.763.116a.503.503 0 0 1 .014.975 8.194 8.194 0 0 1-.828.185c.36.75.32 1.252-.135 1.575-.39.278-.938.266-1.261-.03-.411-.373-.403-.908.041-1.587h-3.456c.225.348.473.656.319 1.043-.072.19-.19.36-.342.495a.999.999 0 0 1-1.29-.036c-.405-.357-.412-.79-.025-1.523-.353-.034-.708-.058-1.059-.106-.31-.043-.493-.21-.597-.535-.215-.677-.539-1.32-.725-2.003-.63-2.302-1.221-4.614-1.824-6.923-.299-1.141-.6-2.282-.88-3.428a.523.523 0 0 0-.307-.395 279.7 279.7 0 0 1-1.565-.737c-.297-.142-.599-.276-.881-.443a.933.933 0 0 1-.331-.35.476.476 0 0 1 .344-.695.844.844 0 0 1 .44.042c.877.357 1.75.724 2.618 1.1.394.172.667.44.573.929a.449.449 0 0 0 .037.2l1.171 3.771c.016.051.037.1.073.197Zm9.728 2.658c-.147-.027-.28-.049-.414-.076-.43-.086-.868-.143-1.287-.268-.795-.239-1.49-.648-1.93-1.381-.137-.228-.294-.278-.534-.271-1.387.037-2.775.062-4.162.095-.392.01-.783.031-1.227.05l1.188 4.51h7.575l.791-2.659Zm.38-1.074c1.139 0 1.864-.461 2.288-1.504a4.88 4.88 0 0 0 .2-.626c.334-1.298-.258-2.47-1.529-2.878-.592-.19-1.232-.255-1.856-.312a1.262 1.262 0 0 0-.77.212c-1.067.74-1.703 1.725-1.654 3.08.019.506.2.921.606 1.2.299.216.632.381.984.49.566.155 1.153.23 1.731.338Z"></path>
</svg>