<svg width="46" height="46" fill="currentColor" viewBox="0 0 24 24" xmlns="http://www.w3.org/2000/svg">
  <path d="M19.305 7.81a1.52 1.52 0 0 0-.353-.033c-.216.004-.434.013-.645.022l-.323.012h-.011l-.014-.22c-.013-.21-.026-.426-.043-.64a.721.721 0 0 0-.077-.264.392.392 0 0 0-.727.11 1.92 1.92 0 0 0-.026.283l-.004.456-.002.304-.018.001-.293.014c-.197.009-.4.018-.602.032-.183.01-.366.032-.547.064a.398.398 0 0 0-.339.43.404.404 0 0 0 .356.376c.115.017.23.022.346.016.257-.008.514-.019.77-.03l.292-.012-.015.216c-.018.267-.038.543-.05.817-.004.134.018.269.065.396a.428.428 0 0 0 .452.278.443.443 0 0 0 .404-.318.868.868 0 0 0 .042-.232c.009-.253.016-.507.024-.76l.012-.41h.239c.183 0 .372 0 .558-.003.204.004.406-.034.594-.11a.43.43 0 0 0 .28-.418.412.412 0 0 0-.345-.378Z"></path>
  <path d="m7.729 9.54 5.69-.337c.031-.228.064-.454.093-.68.255-1.99 1.983-3.409 3.493-3.626 1.656-.238 3.68.33 4.322 2.345.187.563.223 1.166.104 1.748-.126.607-.308 1.198-.645 1.726-.448.699-1.064 1.186-1.881 1.374-.226.052-.318.156-.368.367-.17.72-.336 1.443-.538 2.155a7.079 7.079 0 0 1-.45 1.14c-.126.26-.403.318-.672.322-.261.004-.523-.017-.784-.022a9304.09 9304.09 0 0 0-6.475-.132c-.067-.002-.134.005-.267.012l.497 1.812c.153 0 .313.002.474 0 2.173-.016 4.346-.035 6.52-.042.258.003.515.042.763.116a.503.503 0 0 1 .014.975 8.182 8.182 0 0 1-.828.185c.36.75.319 1.252-.135 1.576-.39.277-.938.265-1.262-.03-.41-.374-.402-.91.042-1.588h-3.457c.225.348.473.656.319 1.043-.072.19-.19.36-.341.495a1 1 0 0 1-1.29-.036c-.405-.357-.413-.79-.025-1.523-.354-.034-.708-.058-1.06-.106-.31-.043-.493-.21-.597-.535-.215-.677-.538-1.32-.725-2.003-.63-2.302-1.22-4.614-1.824-6.923-.298-1.141-.6-2.282-.88-3.428a.523.523 0 0 0-.307-.395c-.522-.244-1.044-.49-1.564-.737-.297-.142-.6-.276-.882-.443a.932.932 0 0 1-.33-.35.476.476 0 0 1 .343-.695.843.843 0 0 1 .441.042c.876.357 1.749.724 2.617 1.1.395.172.667.44.573.929a.451.451 0 0 0 .037.2c.39 1.257.78 2.514 1.172 3.771.016.051.037.1.073.197Zm9.728 2.657c-.148-.027-.281-.049-.414-.076-.43-.086-.869-.143-1.287-.268-.795-.239-1.491-.648-1.93-1.381-.138-.228-.294-.278-.534-.271-1.387.037-2.775.062-4.163.095-.39.01-.782.031-1.226.05l1.188 4.511h7.575l.791-2.66Zm.38-1.074c1.138 0 1.864-.461 2.288-1.504.081-.204.148-.413.2-.626.334-1.298-.258-2.47-1.529-2.878-.592-.19-1.232-.255-1.856-.312a1.262 1.262 0 0 0-.77.212c-1.067.74-1.703 1.725-1.654 3.08.018.506.2.921.606 1.2.299.216.631.381.984.49.565.155 1.153.23 1.731.338Z"></path>
</svg>