<svg width="46" height="46" fill="currentColor" viewBox="0 0 24 24" xmlns="http://www.w3.org/2000/svg">
  <path d="m7.784 9.47 5.69-.336c.032-.227.064-.454.093-.68.256-1.989 1.983-3.408 3.493-3.626 1.657-.238 3.68.33 4.322 2.346.187.563.224 1.165.105 1.747-.126.608-.309 1.198-.646 1.726-.447.7-1.063 1.186-1.88 1.374-.227.052-.319.156-.368.367-.17.721-.336 1.444-.539 2.156a7.077 7.077 0 0 1-.45 1.14c-.125.26-.403.317-.672.321-.261.005-.522-.016-.784-.022a6921.41 6921.41 0 0 0-6.475-.132c-.066-.001-.133.006-.266.012l.496 1.813h.475c2.172-.016 4.345-.036 6.518-.043.26.003.517.042.764.116a.503.503 0 0 1 .014.975 8.18 8.18 0 0 1-.828.185c.36.75.32 1.253-.134 1.576-.39.278-.938.265-1.262-.03-.411-.374-.403-.909.041-1.588h-3.456c.225.349.473.656.318 1.044-.072.19-.189.36-.34.494a.998.998 0 0 1-1.291-.036c-.405-.357-.412-.79-.025-1.523-.354-.034-.708-.057-1.059-.106-.31-.043-.494-.21-.597-.535-.215-.676-.539-1.32-.726-2.003-.63-2.301-1.22-4.614-1.824-6.923-.298-1.14-.599-2.282-.879-3.427a.523.523 0 0 0-.308-.395c-.522-.245-1.043-.49-1.564-.738-.297-.142-.6-.276-.881-.443a.932.932 0 0 1-.331-.35.476.476 0 0 1 .343-.694.843.843 0 0 1 .442.041c.876.357 1.748.724 2.616 1.1.395.173.667.441.573.93a.45.45 0 0 0 .038.199l1.17 3.772c.017.05.038.1.073.197Zm9.729 2.658c-.148-.026-.282-.049-.415-.075-.43-.087-.868-.144-1.287-.269-.795-.238-1.49-.648-1.93-1.38-.137-.228-.294-.278-.534-.272-1.387.038-2.775.063-4.163.095-.39.01-.782.031-1.226.05.41 1.553.805 3.057 1.187 4.511h7.576l.792-2.66Zm.38-1.074c1.138 0 1.864-.46 2.288-1.504.08-.204.147-.413.2-.626.333-1.298-.258-2.47-1.53-2.877-.592-.19-1.232-.256-1.856-.313a1.262 1.262 0 0 0-.77.212c-1.067.74-1.703 1.725-1.654 3.08.019.506.2.921.606 1.2.3.216.632.382.984.49.566.155 1.154.23 1.732.338Z"></path>
  <path d="M17.424 8.669c-.343 0-.686.002-1.03-.002a1.422 1.422 0 0 1-.325-.032c-.27-.068-.41-.22-.422-.44-.013-.233.132-.434.404-.5.214-.047.432-.076.651-.087a86.02 86.02 0 0 1 1.849-.116c.177-.012.356 0 .53.033a.489.489 0 0 1 .413.455.467.467 0 0 1-.29.5c-.228.09-.467.149-.71.172-.355.028-.714.007-1.07.007v.01Z"></path>
</svg>