<svg width="46" height="46" fill="currentColor" viewBox="0 0 24 24" xmlns="http://www.w3.org/2000/svg">
  <path d="M22.585 8.685c-.02-.45-.158-.89-.308-1.34-.183-.546-.587-.89-1.168-.997a5.804 5.804 0 0 0-.83-.104c-1.723-.062-3.449-.119-5.118-.174l-1.483-.049h-.005l-2.224.06c-1.888.048-3.67.094-5.482.17-.83.034-1.642.17-2.54.332-.744.134-1.324.583-1.723 1.336-.314.594-.351 1.24-.387 1.863v.012c-.113 1.946-.24 4.151-.163 6.312.03.84.403 1.359 1.141 1.59.348.109.71.168 1.075.176a604.817 604.817 0 0 0 7.633.082c.977 0 2.047-.023 3.34-.072 1.202-.045 2.422-.12 3.602-.193l.065-.004.446-.024c.708-.037 1.44-.075 2.145-.275l.148-.04a5.73 5.73 0 0 0 .685-.222c.945-.396 1.41-1.072 1.38-2.01l-.015-.513c-.06-1.939-.122-3.945-.214-5.916ZM2.485 9.86c.014-.546.047-1.104.377-1.594a1.22 1.22 0 0 1 .734-.534c.354-.085.717-.161 1.07-.236l.353-.074c-.143 1.24-1.164 2.224-2.535 2.438Zm-.24 5.722c.024-.429.018-.867.012-1.29l-.005-.505c.238-.029.43.054.651.166.844.425 1.51 1.121 2.038 2.129.064.122.12.254.185.406l.063.147c-.2-.008-.393-.014-.582-.02a31.078 31.078 0 0 1-1.473-.07c-.587-.047-.92-.407-.889-.964Zm16.534-8.315a.591.591 0 0 1 .142-.013c.594.048 1.198.101 1.783.153l.058.005c.282.025.447.171.492.435.055.325.1.65.148.993l.05.36c-1.33-.012-2.544-.89-2.673-1.934Zm.105 2.294c.629.44 1.36.732 2.233.895.08.015.16.032.247.052l.072.016v1.853l-.133.022c-.151.02-.301.05-.45.086-.642.168-1.231.547-1.751 1.125-.781.867-1.264 1.77-1.474 2.757-1.505.294-9.331.473-11.096.255-.176-1.086-.833-1.895-1.52-2.607-.833-.866-1.695-1.277-2.708-1.29l.112-1.806a4.345 4.345 0 0 0 2.675-1.022c.758-.63 1.074-1.504 1.305-2.62 3.8-.204 7.65-.164 11.25-.089l.007.107c.004.114.015.228.032.34a2.833 2.833 0 0 0 1.199 1.926Zm.541 6.728c-.072.01-.146.02-.219.032.337-1.618 1.478-2.786 2.364-2.89v1.787c.001.292-.133.502-.388.605-.338.137-.685.25-1.038.337-.234.058-.47.092-.72.128h.001Z"></path>
  <path d="M13.572 9.212c-.936-.624-2.491-.544-3.395.176a3.705 3.705 0 0 0-1.363 2.256c-.214 1.107.231 2.06 1.222 2.614.477.27 1.015.415 1.564.421h.032c1.671 0 2.832-.816 3.182-2.238a3.059 3.059 0 0 0-1.242-3.229Zm-2.348.803c.06.001.12.012.176.033.01.003.02.005.03.004.84-.04 1.41.22 1.793.812.318.492.377 1.05.16 1.534-.213.478-.663.803-1.233.892-.547.085-1.017.03-1.439-.169-.549-.259-.765-.666-.68-1.282a2.89 2.89 0 0 1 .555-1.311c.218-.302.392-.512.638-.512Z"></path>
</svg>