<svg width="46" height="46" fill="currentColor" viewBox="0 0 24 24" xmlns="http://www.w3.org/2000/svg">
  <path d="M11.603 19.638c-1.978.076-3.91.157-5.841.22-.543.017-1.088-.022-1.632-.036a.85.85 0 0 1-.123-.01c-1.038-.147-1.501-.852-1.078-1.81a25.15 25.15 0 0 1 1.451-2.74c1.677-2.808 3.38-5.6 5.078-8.394.326-.536.67-1.06 1.004-1.59.057-.092.137-.184.152-.285.114-.763 1.085-1.077 1.769-.703.248.141.467.33.643.554a54.054 54.054 0 0 1 1.857 2.44c1.696 2.408 3.373 4.83 5.052 7.249.53.763 1.023 1.547 1.263 2.46.098.373.165.745.08 1.132-.118.542-.42.93-.967 1.044a9.975 9.975 0 0 1-1.613.214c-2.027.08-4.055.127-6.082.191-.354.012-.707.045-1.013.064Zm-7.715-1c.258.16.496.133.72.125 1.821-.062 3.643-.126 5.464-.207 1.835-.082 3.668-.188 5.503-.278 1.196-.059 2.393-.102 3.589-.164.251-.013.5-.076.81-.126-.057-.288-.084-.529-.153-.757-.203-.675-.585-1.259-.986-1.827-1.48-2.091-2.956-4.187-4.457-6.263-.797-1.104-1.642-2.173-2.47-3.255a3.695 3.695 0 0 0-.321-.332c-.245.048-.314.22-.4.371-.298.521-.587 1.045-.888 1.564-1.345 2.32-2.692 4.64-4.041 6.96-.65 1.118-1.314 2.229-1.962 3.348-.153.266-.27.552-.408.84Z"></path>
  <path d="M11.18 11.322c0-.504-.01-1.008.004-1.511.008-.19.04-.378.095-.56a.291.291 0 0 1 .343-.224.517.517 0 0 1 .304.225c.06.136.091.284.09.433.063 1.032.12 2.065.171 3.098.01.162-.009.324-.055.48a.475.475 0 0 1-.488.36.464.464 0 0 1-.45-.352 1.815 1.815 0 0 1-.075-.479c-.01-.49-.004-.98-.004-1.47h.064Z"></path>
  <path d="M12.27 15.15a.475.475 0 0 1-.493.478.518.518 0 0 1-.481-.508c.005-.272.258-.537.51-.535.253.002.466.262.463.565Z"></path>
</svg>