<svg width="46" height="46" fill="currentColor" viewBox="0 0 24 24" xmlns="http://www.w3.org/2000/svg">
  <path d="M12.414 11.375c.495 0 .955-.007 1.415.004a1.4 1.4 0 0 1 .476.08c.362.143.398.482.093.732a.813.813 0 0 1-.57.175c-.393-.015-.786-.027-1.18-.038-.064-.002-.129.008-.182.011v3.403c.186.014.329.032.472.035 1.41.04 2.821.07 4.232.12.282.016.561.071.829.164.21.069.304.28.29.495a.494.494 0 0 1-.346.462c-.127.046-.26.071-.395.075A46.1 46.1 0 0 1 16 17.06c-1.003-.038-2.005-.085-3.009-.126-.133-.005-.266 0-.424 0 0 .211-.013.398.003.582.03.352.094.702.114 1.055a1.2 1.2 0 0 1-.083.513.387.387 0 0 1-.505.223.386.386 0 0 1-.161-.123 1.438 1.438 0 0 1-.279-.578c-.084-.384-.117-.78-.168-1.17-.022-.174-.034-.349-.054-.548-.139-.012-.255-.029-.372-.03-1.52-.025-3.04-.046-4.559-.072a1.411 1.411 0 0 1-.399-.052.425.425 0 0 1-.324-.42.453.453 0 0 1 .37-.43c.253-.045.51-.071.768-.078 1.343-.03 2.686-.05 4.029-.074.134-.002.268 0 .454 0l-.087-3.441h-.783c-.299-.001-.598.01-.895-.01-.273-.02-.428-.173-.448-.391-.022-.243.112-.42.399-.482.16-.027.322-.039.485-.035.403-.009.806-.012 1.245-.018 0-.192.003-.339 0-.486-.039-1.772.033-3.54.16-5.307.012-.204.04-.407.082-.607.046-.212.187-.316.371-.307.196.009.293.131.319.31.023.162.036.324.038.487.007 1.2.001 2.398.016 3.597.01.708.048 1.416.074 2.124.008.07.02.14.036.21Z"></path>
</svg>