<svg width="46" height="46" fill="currentColor" viewBox="0 0 24 24" xmlns="http://www.w3.org/2000/svg">
  <path d="M19.038 7.073c-.09-.109-.395-.065-.544-.027a.847.847 0 0 0-.323.211c-.022.02-.044.04-.066.058-3.209 2.718-6.32 5.401-9.126 8.332-.056.059-.115.114-.197.191l-.15.14c-.35-.386-1.154-1.297-1.802-2.031-.34-.386-.637-.722-.802-.907a3.935 3.935 0 0 1-.256-.333c-.054-.075-.11-.153-.168-.227-.106-.136-.305-.387-.586-.194-.239.165-.148.4-.043.587l.036.065c.042.083.092.163.147.238.499.63 2.073 2.563 2.593 3.136.419.46.688.644.962.654h.023c.312 0 .631-.242 1.042-.63a641.006 641.006 0 0 1 5.965-5.586 78.312 78.312 0 0 1 1.809-1.602c.37-.321.752-.653 1.125-.984.18-.16.35-.321.422-.513.063-.162.05-.444-.06-.578Z"></path>
  <path d="M17.384 22.012h-.865a4.445 4.445 0 0 0-.629-.104c-1.873-.046-3.745-.098-5.618-.116-1.411-.013-2.825-.029-4.232.043-2.62.136-4.18-1.943-3.991-3.76.053-.511.006-1.034-.001-1.552-.043-3.126-.094-6.253-.124-9.38-.007-.689-.007-1.391.11-2.067.277-1.598 1.718-2.733 3.497-2.783 2.809-.078 5.619-.12 8.428-.19 1.209-.029 2.419-.064 3.627-.135 1.92-.113 3.843.916 4.12 3.194.195 1.595.306 3.206.34 4.813.058 2.707.033 5.417.025 8.125-.005 1.63-1.374 3.303-2.985 3.653-.56.122-1.135.174-1.702.259Zm-5.84-1.138c.705.032 1.41.076 2.115.094 1.565.041 3.128.266 4.696-.008 1.559-.272 2.765-1.56 2.76-2.979-.01-2.233-.01-4.466-.002-6.699.005-1.9.02-3.792-.348-5.677-.34-1.743-1.398-2.58-3.178-2.591a287.4 287.4 0 0 0-8.039.08c-1.294.03-2.59.126-3.879.248-.944.09-1.81.4-2.289 1.322a4.792 4.792 0 0 0-.514 2.243c.002 3.572.04 7.145.015 10.718-.015 2.028 1.151 3.262 3.173 3.25 1.83-.01 3.66-.002 5.49-.001Z"></path>
</svg>