<svg width="46" height="46" fill="currentColor" viewBox="0 0 24 24" xmlns="http://www.w3.org/2000/svg">
  <path d="M7.189 12.197c.788.677 1.53 1.373 2.334 1.986 1.084.825 2.214 1.589 3.33 2.373.306.215.42.52.26.783-.162.27-.515.335-.806.118-1.423-1.065-2.85-2.124-4.254-3.215-.611-.474-1.167-1.02-1.751-1.53-.442-.386-.44-.762.01-1.134 1.536-1.27 3.07-2.54 4.603-3.813.503-.42.98-.87 1.483-1.29a.692.692 0 0 1 .422-.169c.229.008.318.278.16.494a4.059 4.059 0 0 1-.533.598A1475.776 1475.776 0 0 1 7.53 11.89c-.098.09-.197.177-.342.307Z"></path>
  <path d="M12.01 12.197c.79.676 1.53 1.373 2.335 1.986 1.084.825 2.214 1.589 3.33 2.372.306.216.42.52.26.784-.162.27-.515.335-.806.118-1.422-1.065-2.85-2.124-4.254-3.215-.611-.474-1.167-1.02-1.75-1.53-.443-.387-.44-.762.01-1.134 1.535-1.27 3.07-2.54 4.602-3.813.503-.42.98-.87 1.484-1.29a.692.692 0 0 1 .421-.169c.23.008.318.278.16.494a4.064 4.064 0 0 1-.533.597 1487.766 1487.766 0 0 1-4.916 4.493c-.098.09-.197.176-.342.307Z"></path>
</svg>