<svg width="46" height="46" fill="currentColor" viewBox="0 0 24 24" xmlns="http://www.w3.org/2000/svg">
  <path d="M16.875 11.999c-.667-.528-1.26-1.001-1.857-1.47-.979-.768-1.971-1.52-2.932-2.308-.4-.33-.737-.737-1.097-1.114-.154-.162-.29-.371-.106-.567.203-.216.425-.08.595.089 1.825 1.816 4.084 3.062 6.09 4.642.59.466.667.858.167 1.434a4.97 4.97 0 0 1-.503.518c-1.309 1.124-2.61 2.259-3.944 3.351-.428.35-.948.592-1.437.865-.083.047-.302.028-.315-.01-.048-.14-.101-.343-.034-.444.263-.397.526-.814.874-1.133.838-.768 1.724-1.482 2.588-2.222.508-.436 1.009-.88 1.514-1.317.111-.096.23-.182.397-.314Z"></path>
  <path d="M12.053 12c-.667-.528-1.26-1.002-1.858-1.47-.978-.77-1.97-1.52-2.93-2.31-.401-.329-.738-.735-1.098-1.113-.154-.162-.29-.37-.106-.566.203-.217.425-.08.595.088 1.825 1.816 4.084 3.062 6.09 4.643.59.465.667.857.167 1.434a4.98 4.98 0 0 1-.503.518c-1.309 1.123-2.61 2.258-3.944 3.35-.428.35-.948.592-1.437.865-.083.047-.302.028-.315-.01-.049-.14-.101-.343-.034-.444.263-.397.526-.814.874-1.132.837-.768 1.724-1.483 2.588-2.223.508-.435 1.008-.88 1.514-1.317.111-.096.23-.182.397-.314Z"></path>
</svg>