<svg width="46" height="46" fill="currentColor" viewBox="0 0 24 24" xmlns="http://www.w3.org/2000/svg">
  <path d="M18.45 8.356v2.769c.575.042 1.105.078 1.635.121.253.02.519.017.752.099.148.051.332.233.345.37.012.134-.145.331-.28.417-.133.085-.332.078-.504.09-.639.05-1.278.09-1.945.136v2.21c.608.068 1.227.135 1.846.206.16.018.317.05.476.072.222.032.39.139.405.374.017.268-.186.375-.405.416-.264.043-.53.072-.797.087-.505.039-1.01.07-1.557.108-.012.081-.032.222-.055.362-.108.674-.464 1.177-1.102 1.417-.458.173-.948.264-1.426.383a4.51 4.51 0 0 1-.46.065v1.524c0 .24.024.484-.011.72-.06.397-.346.633-.676.603-.322-.03-.589-.326-.57-.712.02-.44.096-.877.146-1.315.029-.252.056-.504.088-.802h-2.424c.026.534.059 1.089.077 1.644a2.62 2.62 0 0 1-.04.673.525.525 0 0 1-.552.435.496.496 0 0 1-.505-.434 3.405 3.405 0 0 1-.02-.793c.034-.519.093-1.036.146-1.607H8.64c-.004.089-.017.215-.015.341.005.562.026 1.124.02 1.686-.007.488-.247.798-.57.786-.328-.011-.54-.327-.504-.824.04-.546.12-1.09.182-1.634.017-.156.029-.313.044-.486-.198-.042-.367-.072-.533-.114-.607-.154-1.022-.507-1.163-1.138-.076-.34-.15-.678-.227-1.016-.023-.1-.05-.2-.056-.223H3.651a2.921 2.921 0 0 1-.28-.017c-.353-.037-.55-.204-.556-.466-.006-.257.182-.443.537-.488.372-.048.746-.068 1.12-.098.397-.032.794-.062 1.208-.094l-.118-2.387h-.878c-.388 0-.776.01-1.164-.002a1.333 1.333 0 0 1-.426-.095c-.207-.08-.358-.252-.284-.465a.7.7 0 0 1 .36-.364c.162-.07.368-.033.554-.051.623-.063 1.244-.13 1.918-.2V8.59l-2.076-.21a1.308 1.308 0 0 1-.199-.026c-.22-.058-.406-.155-.411-.42-.006-.274.18-.389.408-.406.399-.03.8-.038 1.2-.03.427.008.853.044 1.304.069.224-.544.319-1.204.903-1.499.529-.266 1.11-.43 1.718-.66.054-.492.118-1.074.18-1.655.049-.442.178-.63.428-.62.241.01.368.213.4.65.036.518.067 1.036.101 1.564.364 0 .708.005 1.051-.002.333-.007.666-.028.984-.042.052-.614.099-1.206.152-1.798.02-.207.063-.422.32-.44.28-.022.373.204.4.416.08.593.13 1.19.197 1.851.27.012.613.032.955.04.332.007.665.002 1.016.002.035-.518.066-1.02.106-1.52.014-.186.018-.383.088-.55a.445.445 0 0 1 .308-.243c.114-.006.241.118.348.203a.293.293 0 0 1 .069.184c.064.623.123 1.247.19 1.93 1.37-.103 2.327.448 2.457 1.949.707 0 1.373-.003 2.038.002.185.001.392-.018.548.056.144.069.317.247.325.385.007.142-.14.34-.274.43-.13.088-.33.089-.5.096-.64.028-1.28.041-1.927.06Zm-1.164 3.868h.072c0-.455.014-.91-.003-1.364-.04-1.108-.051-2.218-.155-3.321-.097-1.043-.25-1.15-1.323-1.174-1.792-.04-3.585-.097-5.376-.068-.902.014-1.806.176-2.701.319-.498.079-.848.384-.905.932-.028.265-.07.529-.08.794-.025.735-.033 1.47-.054 2.205-.048 1.713-.068 3.424.303 5.111.179.815.194.868 1.008.902 2.391.097 4.784.167 7.177.226.4-.003.8-.053 1.19-.15.703-.152.837-.323.844-1.042.01-1.123.003-2.247.003-3.37Z"></path>
  <path d="M8.673 11.691c0-.695-.007-1.39.002-2.085.008-.637.206-.894.841-1.029.392-.084.79-.13 1.191-.139 1.07-.018 2.14-.007 3.21-.006.093.001.186.008.28.02.628.081.958.328 1.075.954.127.654.198 1.319.214 1.986.013.866-.067 1.733-.095 2.6-.014.417-.25.64-.62.728-.35.086-.705.145-1.064.177-1.307.104-2.617.168-3.922-.007-.823-.11-1.039-.42-1.017-1.235.018-.654.004-1.309.004-1.963h-.099Zm5.813 2.108c0-.746-.004-1.479.001-2.21.006-.743.045-1.488-.119-2.228-.379-.025-.724-.068-1.069-.066a115.94 115.94 0 0 0-3.283.05c-.437.015-.459.054-.437.48.07 1.359.156 2.717.235 4.069.533.152 3.299.101 4.672-.095Z"></path>
</svg>