<svg width="46" height="46" fill="currentColor" viewBox="0 0 24 24" xmlns="http://www.w3.org/2000/svg">
  <path d="M13.682 5.213c-.03-.505-.367-.82-.879-.825h-.01c-.348 0-.619.165-.86.344-.07.052-.14.106-.22.17l-.03.022-.005-.04a4.708 4.708 0 0 0-.036-.254c-.073-.4-.304-.61-.707-.644a.93.93 0 0 0-.77.28 4.061 4.061 0 0 0-.424.52 36.692 36.692 0 0 0-2.253 3.798 1.97 1.97 0 0 1-.128.201l-.02.028-.02-.04-.117-.22a2.59 2.59 0 0 0-1.312-1.214 1.002 1.002 0 0 0-1.014.115 1.03 1.03 0 0 0-.358.988c.025.139.062.276.11.409.212.616.3 1.268.26 1.919a64.882 64.882 0 0 0-.08 2.68 1.83 1.83 0 0 0 .108.63c.308.892.89 1.664 1.662 2.206.228.159.301.304.29.577l-.002.067c-.015.397-.032.808.08 1.18.499 1.655 1.566 2.742 3.174 3.23.38.118.776.18 1.175.182.558 0 1.107-.132 1.604-.385a6.018 6.018 0 0 0 1.615-1.17c.692-.69 1.345-1.42 1.954-2.183.717-.912 1.281-1.701 1.706-2.588.211-.422.38-.864.504-1.318.189-.74-.129-1.33-.871-1.62a.375.375 0 0 1-.062-.036l-.012-.008.024-.059a3.11 3.11 0 0 0 .1-.264c.017-.06.037-.121.056-.181.068-.19.117-.386.146-.585a.988.988 0 0 0-.214-.768 1.059 1.059 0 0 0-.763-.35l-.215-.013c.005-.06.012-.119.018-.177.018-.177.036-.344.04-.513.01-.503-.292-.855-.79-.917a1.19 1.19 0 0 0-.28.008c-.05.006-.114.013-.178.014h-.017c-.142 0-.177-.012-.184-.018-.216-.308-.537-.432-.828-.536l.03-.09c.035-.1.065-.204.088-.309l.02-.104c.047-.197.073-.398.078-.6-.005-.523-.37-.887-.909-.906a5.136 5.136 0 0 0-.243-.001h-.028c0-.058 0-.114.002-.17a6.68 6.68 0 0 0-.005-.462Zm-5.596 3.58a67.67 67.67 0 0 1 .95-1.675c.367-.618.766-1.232 1.15-1.826l.193-.296c.083-.132.19-.248.314-.342.105-.075.206-.097.277-.06.068.036.105.127.102.25a1.92 1.92 0 0 1-.113.62c-.135.357-.29.706-.464 1.046-.258.509-.524 1.02-.781 1.513l-.011.02-.477.919-.015.028a.627.627 0 0 0-.1.315.423.423 0 0 0 .199.305c.09.05.277-.018.335-.101a5.51 5.51 0 0 0 .406-.681c.494-.99 1.14-2.016 2.034-3.23.145-.185.329-.337.538-.446.126-.068.23-.084.287-.043.054.039.072.136.05.265a4.572 4.572 0 0 1-.322 1.125 20.249 20.249 0 0 1-2.05 3.458l-.031.042c-.023.03-.046.062-.068.094l-.014.022c-.08.118-.199.296-.033.475a.445.445 0 0 0 .58.085 1.01 1.01 0 0 0 .34-.342c.565-.968 1.165-2 1.74-3.04.186-.332.38-.545.63-.687.168-.096.262-.104.327-.03.066.09.094.2.08.31a3.917 3.917 0 0 1-.226.732.336.336 0 0 1-.177.172c-.452.138-.735.464-.953.764a384.696 384.696 0 0 0-2.327 3.252c-.143.202-.275.414-.414.64l-.134.215-.09-.232a2.892 2.892 0 0 0-1.137-1.381c-.461-.307-.866-.335-1.237-.082-.403.274-.564.674-.477 1.188.028.164.06.329.092.494.045.235.092.479.126.72.068.469.001.924-.07 1.406-.036.251-.074.51-.092.774l-.008-.002a.28.28 0 0 1-.092-.035c-.635-.534-1.035-1.083-1.224-1.679-.117-.37-.122-.78-.116-1.238.005-.452.042-.912.077-1.357.012-.15.024-.3.034-.449a5.343 5.343 0 0 0-.3-2.302l-.016-.045c-.077-.2-.15-.389.03-.515A.326.326 0 0 1 5.6 7.86c.115 0 .25.06.4.18.66.521.883 1.063.702 1.706-.046.162-.071.364.144.48.108.058.318.114.518-.165a3.47 3.47 0 0 0 .221-.372l.073-.132c.141-.252.282-.504.422-.758l.005-.007Zm-.401 8.098c.015-.16.032-.341.056-.52.068-.506.142-1.02.213-1.516l.075-.526a5.368 5.368 0 0 0-.124-2.071l-.005-.02a2.143 2.143 0 0 1-.082-.489.283.283 0 0 1 .083-.234.306.306 0 0 1 .262-.028.984.984 0 0 1 .217.077c.625.308 1.027 1.261.81 1.924-.082.252-.14.507.128.624.204.09.424-.008.602-.27.216-.32.43-.643.638-.955a70.77 70.77 0 0 1 1.042-1.541c.599-.854 1.227-1.698 1.872-2.56a1.22 1.22 0 0 1 .408-.347.239.239 0 0 1 .24-.013.247.247 0 0 1 .084.232c-.01.21-.057.418-.139.613-.173.385-.369.76-.586 1.123-.349.577-.712 1.158-1.064 1.72l-.521.837a.55.55 0 0 1-.034.05.447.447 0 0 0-.102.243.549.549 0 0 0 .134.368.24.24 0 0 0 .192.072.336.336 0 0 0 .235-.15l.095-.133c.121-.166.246-.337.353-.518.603-1.018 1.348-2.025 2.418-3.264.186-.204.415-.363.671-.466.13-.054.232-.06.282-.017.05.043.06.146.024.282a5.07 5.07 0 0 1-.412 1.139c-.615 1.129-1.39 2.242-2.44 3.501a3.122 3.122 0 0 1-.071.081c-.031.036-.063.07-.092.107l-.01.013c-.102.126-.24.3-.075.514a.508.508 0 0 0 .621.118c.15-.09.28-.208.384-.348a141.08 141.08 0 0 0 1.611-2.293c.145-.212.276-.437.404-.656l.113-.194a1.48 1.48 0 0 1 .698-.612c.135-.06.247-.083.354.003.099.079.117.19.054.328-.056.126-.11.253-.165.382a6.44 6.44 0 0 1-.524 1.05c-.352.528-.743 1.044-1.12 1.543l-.008.01c-.182.24-.37.49-.553.738-.178.243-.342.486-.486.723-.068.11-.124.264-.08.368a.734.734 0 0 0 .316.35c.115.059.316-.117.374-.194.23-.31.457-.628.676-.935.143-.202.287-.404.432-.604l.13-.179c.193-.27.394-.549.614-.802.148-.164.325-.299.523-.397a.283.283 0 0 1 .25-.034c.062.032.104.111.122.23a1.14 1.14 0 0 1-.043.529 9.83 9.83 0 0 1-.468 1.133 11.664 11.664 0 0 1-1.538 2.367l-.026.03a2.04 2.04 0 0 0-.23.31c-.416.737-1.03 1.328-1.625 1.9l-.019.018c-.425.4-.927.711-1.476.913-.59.225-1.236.218-1.974-.022-1.284-.418-2.15-1.287-2.645-2.657l-.007-.019a.851.851 0 0 1-.055-.2 6.76 6.76 0 0 1-.021-.388v-.018l-.008-.179.018-.19-.041-.004h.04Z"></path>
  <path d="M7.944 2.412h-.038l-.08.004a2.09 2.09 0 0 0-.141.016c-.84.129-1.644.43-2.361.885A4.478 4.478 0 0 0 3.39 5.854a2.05 2.05 0 0 0-.078.46c-.007.109-.024.364.233.4a.31.31 0 0 0 .04.002c.17 0 .222-.158.252-.252a1.67 1.67 0 0 1 .014-.042c.027-.076.052-.153.076-.229.041-.129.084-.262.138-.387.594-1.377 1.703-2.229 3.392-2.604a3.89 3.89 0 0 1 .251-.045 3.34 3.34 0 0 0 .324-.062c.16-.04.38-.096.393-.358a.244.244 0 0 0-.066-.182c-.08-.086-.228-.137-.416-.143Z"></path>
  <path d="M18.67 18.913a8.01 8.01 0 0 1-1.686 1.141c-.089.05-.173.108-.252.173-.037.028-.075.058-.116.087l-.07.05.062.06a.614.614 0 0 0 .433.201.952.952 0 0 0 .407-.116c.592-.28 1.167-.677 1.81-1.246.655-.58 1.084-1.341 1.275-2.263.066-.316.028-.66-.005-.962-.032-.291-.177-.45-.432-.475l-.038-.004-.024.029c-.162.19-.156.398-.151.582l.002.111c-.014 1.044-.411 1.905-1.215 2.632Z"></path>
  <path d="M18.851 15.957a.25.25 0 0 0-.205-.058c-.299.043-.302.289-.305.452l-.001.068a2.185 2.185 0 0 1-.914 1.742 5.33 5.33 0 0 1-.567.35l-.236.136a1.044 1.044 0 0 1-.099.048.57.57 0 0 0-.202.127c-.066.075-.146.238-.106.354.038.112.204.189.308.2a.336.336 0 0 0 .04.002.842.842 0 0 0 .298-.078l.013-.005a3.759 3.759 0 0 0 1.266-.811 2.772 2.772 0 0 0 .87-1.961v-.086c-.006-.23-.061-.397-.16-.48Z"></path>
  <path d="m5.508 6.71.035-.032a.696.696 0 0 1 .04-.034.175.175 0 0 0 .061-.071c.374-.956 1.07-1.59 2.067-1.883.15-.054.289-.132.412-.232a.258.258 0 0 0 .086-.266.367.367 0 0 0-.222-.182.514.514 0 0 0-.281.027c-.757.243-1.317.566-1.763 1.017-.288.292-.5.662-.663 1.165-.049.147-.082.356.184.472l.044.02Z"></path>
</svg>