<svg width="46" height="46" fill="currentColor" viewBox="0 0 24 24" xmlns="http://www.w3.org/2000/svg">
  <path d="M3.495 15.578c.787.585 1.723.894 2.782.917 1.066.025 2.15.033 3.199.041a583.888 583.888 0 0 1 1.592.012h.06l.16 2.512-.354-.183c-.435-.225-.846-.437-1.256-.653a2.181 2.181 0 0 1-.041-.022c-.108-.06-.256-.143-.422.01a.081.081 0 0 0-.026.052c-.025.258.124.433.255.587.028.032.056.065.081.097.368.47.864.79 1.344 1.098l.13.083a1.194 1.194 0 0 0 1.486-.104c.168-.152.345-.303.516-.448.276-.236.562-.48.828-.737a5.81 5.81 0 0 0 .529-.613c.07-.09.137-.176.206-.259a.08.08 0 0 0 .013-.08c-.098-.258-.25-.247-.385-.202-.41.135-.79.346-1.12.622-.225.186-.458.37-.705.564-.07.057-.144.114-.218.173a20.1 20.1 0 0 0 .003-1.029c-.017-.49-.005-.98.036-1.468l.028-.004a.912.912 0 0 1 .128-.015c.457-.012.922-.009 1.373-.006.898.006 1.826.012 2.74-.1a11.99 11.99 0 0 1 1.068-.067c.181-.006.369-.012.553-.023 1.49-.083 2.63-.823 3.385-2.198.49-.892.573-1.837.243-2.736-.435-1.184-1.262-2.061-2.457-2.608a6.163 6.163 0 0 0-2.614-.574h-.028v-.005a2.462 2.462 0 0 1-.01-.106c-.088-1.736-.873-2.991-2.334-3.73-1.948-.986-3.904-.968-5.816.05C7.092 5.15 6.26 6.32 5.976 7.903c-.04.247-.066.497-.078.747a15.99 15.99 0 0 1-.02.28l-.076.019c-1.838.362-3.018 1.481-3.507 3.326-.34 1.28.098 2.485 1.2 3.304Zm8.792-1.156c.024-.822.047-1.598.063-2.389a7.81 7.81 0 0 0-.054-.941c-.038-.371-.249-.45-.42-.451h-.002c-.144 0-.387.059-.423.447a79.05 79.05 0 0 0-.223 3.212c-.014.266-.027.533-.043.799-.006.07-.016.138-.03.206l-.01.048-.176.001c-.171.002-.334.003-.496-.002l-.886-.027c-1.15-.035-2.34-.071-3.508-.12a3.103 3.103 0 0 1-1.677-.532c-.783-.536-1.085-1.261-.896-2.158.312-1.485 1.233-2.437 2.738-2.828.353-.091.516-.265.562-.599.013-.091.031-.185.049-.275l.038-.202c.362-2.18 2.074-3.57 4.327-3.57.156 0 .314.007.475.02a4.822 4.822 0 0 1 1.761.488c.562.281.982.658 1.249 1.122l.022.039c.38.658.773 1.339.827 2.13.021.307.273.509.624.502a5.524 5.524 0 0 1 2.761.71 3.254 3.254 0 0 1 1.315 1.34c.399.74.36 1.488-.114 2.225a2.667 2.667 0 0 1-1.968 1.256 25.34 25.34 0 0 1-1.008.107c-.44.041-.896.083-1.34.157-.813.133-1.646.142-2.451.15a35.8 35.8 0 0 0-1.031.02.417.417 0 0 1-.08-.012l.025-.873Z"></path>
</svg>