<svg width="46" height="46" fill="currentColor" viewBox="0 0 24 24" xmlns="http://www.w3.org/2000/svg">
  <path d="M11.4 8.18c.565-.733 1.321-1.135 2.167-1.384 1.22-.36 2.377-.124 3.454.482.488.282.937.626 1.338 1.022.771.745 1.045 1.685.902 2.75.03.027.056.065.091.079 1.66.657 2.674 2.825 1.905 4.876-.234.624-.6 1.175-1.014 1.69-.535.668-1.288.978-2.1 1.126-.807.148-1.625.244-2.441.342-2.135.257-4.283.22-6.427.265-1.046.021-2.091.002-3.113-.262a10.7 10.7 0 0 1-.944-.287c-1.634-.588-2.546-1.815-2.954-3.443-.392-1.56-.298-3.113.471-4.531 1.109-2.043 2.823-3.309 5.18-3.557 1.074-.113 2.1.169 3.074.625.124.058.244.123.412.208ZM9.745 18.209c.55-.022 1.099-.036 1.648-.069 1.784-.106 3.566-.235 5.35-.323a4.2 4.2 0 0 0 1.733-.46c1.264-.643 1.874-1.78 1.67-3.189-.152-1.035-.723-1.746-1.751-2.012-1.306-.339-2.511-.123-3.55.778-.288.252-.54.546-.81.82a1.9 1.9 0 0 1-.266.257c-.327.216-.707.09-.827-.284a.742.742 0 0 1 .001-.433c.165-.498.097-.976-.076-1.451a5.017 5.017 0 0 0-1.01-1.686C10.582 8.766 9 8.313 7.18 8.69c-.736.153-1.364.566-1.954 1.027C3.3 11.226 2.895 13.346 3.39 15.32c.305 1.225 1.03 2.113 2.274 2.498.38.116.768.209 1.16.277.967.17 1.944.136 2.92.112Zm4.405-6.268c1.12-.934 2.386-1.281 3.767-1.18.12-.583.01-1.123-.36-1.54-1.278-1.444-3.118-1.915-4.92-.81a5.714 5.714 0 0 0-.457.349 6.565 6.565 0 0 1 1.97 3.18Z"></path>
  <path d="M19.473 7.605c-.095-.066-.251-.118-.295-.22a.418.418 0 0 1 .05-.374 2.307 2.307 0 0 1 1.196-.675.364.364 0 0 1 .423.183.384.384 0 0 1-.081.49c-.36.313-.81.443-1.293.596Z"></path>
  <path d="M20.945 9.53c.168.013.335.036.501.068.259.061.4.243.383.46a.385.385 0 0 1-.41.377 5.015 5.015 0 0 1-1.004-.12.33.33 0 0 1-.25-.377.372.372 0 0 1 .306-.343c.16-.035.324-.046.474-.066Z"></path>
  <path d="M17.856 5.359a2.839 2.839 0 0 1-.138.487.478.478 0 0 1-.577.283.46.46 0 0 1-.341-.504c.028-.244.086-.484.171-.715a.396.396 0 0 1 .453-.279c.222.026.337.174.392.372.02.118.035.236.04.356Z"></path>
  <path d="M14.212 5.651c-.015.091-.039.18-.072.267-.153.326-.526.368-.72.065a1.324 1.324 0 0 1-.131-1.104c.078-.268.421-.298.638-.07.209.219.27.499.285.842Z"></path>
  <path d="M10.545 5.943c.308-.006.85.328.95.62.037.111.027.293-.043.371-.084.095-.267.177-.383.152a1.273 1.273 0 0 1-.85-.647c-.142-.25.029-.49.326-.496Z"></path>
</svg>