<svg width="46" height="46" fill="currentColor" viewBox="0 0 24 24" xmlns="http://www.w3.org/2000/svg">
  <path d="M18.607 10.431a10.72 10.72 0 0 0-1.416-.312 26.874 26.874 0 0 1-.595-.108c-.19-2.22-1.297-3.603-3.383-4.228a7.119 7.119 0 0 0-1.291-.245c-2.472-.265-4.682.965-5.63 3.134-.202.464-.294.967-.383 1.455-.037.202-.072.395-.114.58-.19.092-.385.179-.575.263-.448.198-.911.404-1.313.688-1.04.738-1.637 1.842-1.727 3.195-.11 1.628 1.062 2.999 2.913 3.412.804.178 1.654.189 2.476.199l.169.002c1.267.016 2.55.033 3.843.033 2.159 0 4.347-.046 6.537-.217a4.196 4.196 0 0 0 3.051-1.74c.627-.876.851-1.929.614-2.889-.392-1.591-1.46-2.675-3.176-3.222Zm1.798 4.5c-.293.924-.932 1.529-1.9 1.797a5.785 5.785 0 0 1-1.108.181c-2.463.18-10.32.356-11.92.122-.784-.114-1.401-.473-1.738-1.01-.335-.534-.388-1.218-.153-1.98.395-1.283 1.27-2.109 2.602-2.455.411-.106.536-.323.621-.686.029-.121.056-.243.083-.366.1-.456.203-.928.406-1.334.737-1.472 2.166-2.33 3.817-2.33.2 0 .401.012.6.037 2.532.312 3.143 1.558 3.785 3.425.017.06.027.12.029.182l.003.04c.042.5.194.644.705.666 1.515.064 2.605.48 3.432 1.309.765.765 1.005 1.55.736 2.401Z"></path>
</svg>