<svg width="46" height="46" fill="currentColor" viewBox="0 0 24 24" xmlns="http://www.w3.org/2000/svg">
  <path d="M17.59 8.8a8.772 8.772 0 0 0-.715-.078 23.352 23.352 0 0 1-.26-.023.668.668 0 0 1-.006-.067c-.059-1.751-.85-3.027-2.352-3.79-1.947-.991-3.903-.968-5.814.068-1.351.732-2.179 1.914-2.46 3.512-.037.24-.061.483-.072.727-.006.097-.011.193-.02.288a3.635 3.635 0 0 1-.1.022l-.037.008c-1.803.388-2.96 1.505-3.44 3.322-.352 1.327.076 2.521 1.206 3.363.782.582 1.705.89 2.744.914 1.094.026 2.206.034 3.282.041l1.36.01c.09.002.178.001.274.001h.058c0 .098-.002.194-.004.287a7.77 7.77 0 0 0 .01.751c.034.396.092.79.175 1.179a.89.89 0 0 0 .166.316c.04.056.085.12.13.196a.083.083 0 0 0 .07.04h.005a.081.081 0 0 0 .07-.048 3.19 3.19 0 0 1 .086-.174.67.67 0 0 0 .094-.248c.04-.472.072-.976.106-1.634a7.78 7.78 0 0 0 .004-.488l-.002-.194h.135c.125-.001.23-.002.334 0 1.622.032 3.366-.03 5.333-.188.268-.022.508-.049.733-.083 1.243-.19 2.465-1.221 2.97-2.509.479-1.222.264-2.503-.604-3.607-.818-1.041-1.949-1.667-3.458-1.914Zm-5.244 3.058 1.452.73.135.066a3 3 0 0 1 .327.172c.192.12.341.086.482-.107a.082.082 0 0 0 .002-.094c-.028-.042-.054-.087-.08-.131a1.323 1.323 0 0 0-.218-.303c-.342-.334-.7-.65-1.074-.948-.224-.174-.467-.327-.702-.475-.119-.075-.239-.15-.356-.228-.364-.241-.702-.236-1.066.018-.736.513-1.491 1.1-2.028 1.912a1.036 1.036 0 0 0-.087.174l-.032.074a.082.082 0 0 0 .016.094l.09.09a.082.082 0 0 0 .1.012 13.12 13.12 0 0 0 1.154-.803c.265-.199.538-.403.824-.596v4.387l-.058.007c-.067.01-.136.016-.204.016l-.946-.028a467.365 467.365 0 0 1-3.979-.127 3.084 3.084 0 0 1-1.678-.534c-.798-.547-1.094-1.258-.905-2.172.31-1.5 1.23-2.46 2.734-2.858.357-.094.522-.268.567-.6.015-.106.036-.215.056-.32.013-.066.026-.133.037-.2C7.285 6.9 8.984 5.52 11.22 5.52c.184 0 .372.01.563.028a4.817 4.817 0 0 1 1.683.484c.56.28.982.66 1.25 1.13l.024.041c.38.663.772 1.349.826 2.147.02.309.271.513.623.506a5.5 5.5 0 0 1 2.762.715 3.267 3.267 0 0 1 1.315 1.353c.399.746.36 1.5-.116 2.243a2.682 2.682 0 0 1-1.969 1.266 23.07 23.07 0 0 1-1.003.107c-.442.042-.9.084-1.345.159-.812.135-1.643.143-2.447.15-.34.004-.692.007-1.038.02a.4.4 0 0 1-.082-.012l-.072-4.075.153.075Z"></path>
</svg>