<svg width="46" height="46" fill="currentColor" viewBox="0 0 24 24" xmlns="http://www.w3.org/2000/svg">
  <path d="M21.799 8.924c-.162-.16-.4-.226-.674-.186a1.04 1.04 0 0 0-.084.017 3.603 3.603 0 0 1-2.876-.604c-.764-.54-1.313-1.158-1.678-1.887a20.688 20.688 0 0 1-.476-1.05l-.195-.45c-.177-.397-.338-.48-.749-.387a2.073 2.073 0 0 0-.376.12c-1.382.606-2.255 1.648-2.596 3.096-.066.308-.114.62-.143.933-.017.152-.036.308-.057.467l-.018.13-.11-.072a5.397 5.397 0 0 1-.124-.084 5.169 5.169 0 0 0-.249-.16c-1.078-.64-2.122-.956-3.164-.956a5.34 5.34 0 0 0-1.317.168 6.423 6.423 0 0 0-3.92 2.851c-1.142 1.822-1.289 3.809-.433 5.905.455 1.115 1.263 1.914 2.402 2.376.84.354 1.74.55 2.652.577 1.415.027 2.874.008 4.162-.008.744-.01 1.625-.029 2.51-.096.881-.066 1.79-.164 2.777-.3.539-.076 1.07-.19 1.593-.34.6-.16 1.127-.52 1.494-1.02.28-.366.527-.758.735-1.169.686-1.429.579-2.8-.318-4.074a6.364 6.364 0 0 0-.112-.157l-.1-.136.047-.05.063-.067c.04-.045.078-.086.12-.125a4.8 4.8 0 0 0 1.147-1.696c.123-.297.207-.609.252-.927a.734.734 0 0 0-.185-.639Zm-1.649 6.289c-.055 1.17-.605 2.038-1.635 2.58a4.399 4.399 0 0 1-1.876.526 205 205 0 0 0-3.519.208c-.623.04-1.248.08-1.871.117-.368.023-.742.035-1.104.047-.168.005-.337.011-.505.018l-.09.002c-.342.01-.687.018-1.034.018a10.558 10.558 0 0 1-1.814-.133 9.874 9.874 0 0 1-1.17-.277C4.313 17.944 3.53 17.087 3.2 15.77c-.572-2.287.102-4.311 1.897-5.699.534-.412 1.183-.854 1.954-1.015 1.89-.391 3.489.107 4.753 1.483a5.12 5.12 0 0 1 1.028 1.708c.206.562.232 1.038.08 1.5a.71.71 0 0 0 .01.417.43.43 0 0 0 .258.273.461.461 0 0 0 .396-.048c.08-.053.153-.117.216-.19a2.98 2.98 0 0 1 .07-.072c.097-.096.192-.195.287-.294a8.28 8.28 0 0 1 .593-.58c.923-.788 2.053-1.057 3.355-.799 1.336.266 2.123 1.323 2.054 2.758Zm.237-4.977c-.199.533-.557.97-1.128 1.377l-.036.026-.041-.017a5.214 5.214 0 0 0-2.644-.295c-.844.117-1.63.465-2.401 1.067l-.082.063-.044-.094-.23-.49a25.269 25.269 0 0 1-.52-1.145 3.491 3.491 0 0 1-.217-.85c-.178-1.225.005-2.239.557-3.096.361-.559.693-.859 1.315-1.19l.075-.04.038.076.038.071a.98.98 0 0 1 .084.177c.23.702.58 1.603 1.243 2.346.948 1.06 1.992 1.665 3.19 1.85.164.021.329.034.494.04.08.003.159.007.238.012l.11.008-.04.104Z"></path>
</svg>