<svg width="46" height="46" fill="currentColor" viewBox="0 0 24 24" xmlns="http://www.w3.org/2000/svg">
  <path d="M21.717 15.133a123.956 123.956 0 0 1-.07-3.473l-.01-.78a5.9 5.9 0 0 1 .005-.864c.04-.795.087-1.696-.653-2.153a135.435 135.435 0 0 0-6.205-3.88l-.212-.126c-.597-.357-1.215-.726-1.819-1.092-.512-.31-.606-.327-1.093.04-.54.407-1.081.815-1.623 1.226-2.315 1.754-4.71 3.567-7.146 5.216-.322.223-.47.494-.466.85-.004.399.002.806.008 1.2.01.715.021 1.453-.032 2.158v.009l.001.008c.036.254.018.714-.004 1.247-.049 1.218-.104 2.598.404 2.841 1.278.548 3.814 1.66 5.851 2.555 1.479.649 2.647 1.16 2.95 1.29.133.068.28.103.43.103.366 0 .712-.21 1.017-.421 2.448-1.551 5.223-3.309 7.941-4.7.555-.282.75-.622.726-1.254Zm-1.056-.152c-.352-.123-1.826-1.225-2.64-1.834-.723-.541-.976-.73-1.083-.779l3.807-2.694c.111.369.015 2.567-.037 3.774-.043.983-.058 1.372-.047 1.533Zm-8.015 1.729c.013-.189.01-.378-.006-.566-.024-.413-.05-.84.217-1.122 1.122-.77 2.068-1.41 3.036-2.03a.53.53 0 0 0 .101-.064.264.264 0 0 1 .104-.059c.075.084.332.268 1.239.898.928.646 2.456 1.707 2.644 1.98-.154.083-.63.374-2.268 1.386-1.847 1.14-4.589 2.833-5.055 3.055-.042-.301-.024-1.558-.013-2.333.012-.863.012-1.075 0-1.145Zm7.74-8.002a.052.052 0 0 1-.02.011l-.02.011c-.732.551-1.5 1.075-2.243 1.581-.556.38-1.132.772-1.691 1.175-.25.175-.414.173-.65-.005-.827-.621-1.73-1.273-2.839-2.05-.265-.186-.37-.396-.375-.75-.008-.815-.038-1.632-.066-2.423-.029-.815-.059-1.657-.066-2.494a.701.701 0 0 0 0-.128.71.71 0 0 1 .001-.183c.005 0 .01 0 .014.002a150.75 150.75 0 0 0 3.108 1.968c.145.126.686.453 1.37.864.727.439 1.632.985 2.334 1.456 1.122.755 1.149.938 1.144.966ZM11.644 19.91c.002.13.007.345-.053.402a.04.04 0 0 1-.027.012c-.798-.335-1.607-.663-2.39-.98-1.758-.715-3.577-1.453-5.341-2.288.297-.324 1.842-1.689 2.892-2.615 1.035-.914 1.283-1.137 1.349-1.208.092.02.361.178.495.256.072.046.147.087.225.122.202.142.593.335 1.045.557.77.38 1.935.953 1.926 1.243-.03 1.4-.071 2.825-.111 4.204l-.002.08a1.03 1.03 0 0 0-.008.215Zm-4.491-7.263c-.063.047-.286.255-1.313 1.221-.896.845-2.212 2.084-2.526 2.344-.094-.439-.117-2.697-.131-4.082-.016-1.461-.024-1.81-.046-1.914h.002l4.013 2.43Zm-3.395-3.04h.002l-.002.001Zm8-4.735a4.45 4.45 0 0 0-.013.686c-.013.876-.016 1.538-.017 2.02-.004.927-.005 1.31-.08 1.386-.187.185-.518.44-.977.792-.638.49-1.51 1.16-2.557 2.082a.428.428 0 0 0-.08.064.516.516 0 0 1-.086.07c-.018-.01-4.138-2.335-4.186-2.366.098-.056.489-.335 2.497-1.786 1.998-1.444 4.961-3.586 5.465-3.883.08.283.056.614.034.935Zm-.681 5.713c.67-.563.869-.735.927-.81l3.208 2.413-.674.484c-.694.5-1.411 1.016-2.09 1.493a.349.349 0 0 1-.181.05c-.695-.265-1.396-.642-2.074-1.007a30.567 30.567 0 0 0-1.279-.663c.152-.268 1.45-1.36 2.163-1.96Z"></path>
</svg>