<svg width="46" height="46" fill="currentColor" viewBox="0 0 24 24" xmlns="http://www.w3.org/2000/svg">
  <path d="M15.874 17.152C14.23 19.11 11.99 19.766 9.47 19.71c-1.2-.027-2.361-.267-3.452-.792a5.64 5.64 0 0 1-2.496-2.36c-.974-1.714-1.32-3.541-.96-5.488.065-.35.166-.638.533-.87C4.187 9.504 5.4 9.191 6.64 9.001c2.147-.328 4.315-.429 6.478-.188a30.53 30.53 0 0 1 3.227.575c.845.188.88.278 1.02 1.084.308-.117.61-.268.929-.343.984-.233 1.977.18 2.581 1.057 1.021 1.482 1.093 4.167-1.148 5.7-.853.583-1.78.943-2.832.693-.338-.08-.65-.27-1.02-.428Zm-12.57-5.485A7.836 7.836 0 0 0 4.611 16.4a4.247 4.247 0 0 0 1.969 1.654c2.32.937 4.639.962 6.917-.14a4.323 4.323 0 0 0 2.014-1.949c.749-1.46.911-3.027.856-4.657-.336.121-.639.281-.96.338-1.012.176-2.028.41-3.049.449-3.019.115-6.041.148-9.054-.428Zm.564-.898.019.13c.325.055.648.146.975.16 2.23.088 4.46.195 6.692.223 1.186.014 2.38-.09 3.53-.438.228-.07.448-.169.653-.292a.352.352 0 0 0 .141-.292.369.369 0 0 0-.234-.22c-.345-.098-.696-.208-1.05-.24a70.043 70.043 0 0 0-3.238-.224c-2.124-.088-4.221.092-6.26.73-.418.13-.82.307-1.228.463Zm13.449.917c.161-.047.246-.076.333-.097.881-.215 1.744.194 2.053.986.194.504.225 1.056.088 1.579-.363 1.46-1.805 2.322-3.332 2.001l-.135.314c.484.063.939.212 1.37.16 1.2-.144 2.057-.844 2.503-1.944.433-1.065.31-2.139-.358-3.092-.581-.828-1.964-.8-2.522.093Zm-.444 3.688c1.362.18 2.508-1.224 2.05-2.552-.188-.547-1.05-.797-1.479-.42a.495.495 0 0 0-.126.276c-.152.89-.295 1.78-.445 2.696Z"></path>
  <path d="M11.15 7.12c-.017.482-.132.855-.438 1.12a.67.67 0 0 1-.5.117c-.233-.043-.248-.288-.184-.46.221-.599.101-1.158-.06-1.753-.158-.585.039-1.16.363-1.677.12-.191.292-.295.506-.187.206.104.209.308.125.49-.276.6-.252 1.179.042 1.77.098.196.112.435.146.58Z"></path>
  <path d="M6.153 8.383a.496.496 0 0 1 .05-.163c.28-.413.162-.804-.034-1.21-.399-.823-.279-1.577.337-2.251.071-.078.148-.186.238-.205.155-.034.362-.069.476.006.174.112.085.292-.021.454-.15.235-.285.48-.404.732-.157.327-.07.645.049.969.135.331.233.677.29 1.03.054.436-.199.826-.524.953-.277.109-.469-.011-.457-.315Z"></path>
  <path d="M12.34 6.858c-.079-.294-.14-.58-.232-.857-.186-.56-.027-1.053.265-1.523.125-.2.31-.325.541-.208.243.123.16.34.072.525a1.251 1.251 0 0 0 .035 1.187c.323.618.34 1.245-.149 1.79-.158.177-.403.299-.632.383-.18.066-.315-.033-.236-.266.113-.34.222-.68.336-1.03Z"></path>
  <path d="M8.957 4.579a3.54 3.54 0 0 1-.12.334c-.216.447-.166.873.07 1.299.229.414.397.862.324 1.337a1.79 1.79 0 0 1-.326.744c-.07.098-.325.141-.454.094-.09-.032-.175-.275-.148-.398.138-.618.02-1.172-.246-1.74-.3-.637-.154-1.257.3-1.784.084-.097.273-.136.412-.133.066.001.129.164.188.247Z"></path>
</svg>