<svg width="46" height="46" fill="currentColor" viewBox="0 0 24 24" xmlns="http://www.w3.org/2000/svg">
  <path d="M16.013 19.364c.014-.016 0-.007-.003.005-.246 1.184-1.034 1.683-2.183 1.723-.428.014-.856.036-1.283.027-1.565-.029-3.13-.077-4.695-.1-.653-.01-1.307.043-1.959.03a3.63 3.63 0 0 1-.945-.16c-.778-.231-1.357-.702-1.58-1.508-.131-.474-.26-.962-.285-1.449a373.143 373.143 0 0 1-.289-7.095 8.118 8.118 0 0 1 .138-1.554c.075-.46.209-.502.657-.503 1.19-.002 2.379-.018 3.568-.048 2.688-.068 5.376-.153 8.064-.22.54-.013.564.04.674.56.074.346.18.686.28 1.06.034-.001.097-.001.16-.01 2.46-.317 4.102.813 4.661 3.214.19.814.277 1.64.148 2.469-.287 1.847-1.498 3.064-3.402 3.402-.548.097-1.111.104-1.726.157ZM3.709 9.716c0 .235-.01.46.002.685.069 1.322.122 2.645.22 3.965a87.66 87.66 0 0 0 .383 4.032c.108.883.63 1.379 1.503 1.536.42.082.846.13 1.274.144 1.98.036 3.96.057 5.94.066a9.313 9.313 0 0 0 1.115-.1c.395-.046.606-.284.696-.667.19-.819.167-1.644.133-2.474-.08-1.936-.15-3.873-.21-5.81-.018-.57-.003-1.14-.003-1.762L3.71 9.716Zm12.466 8.667c.713-.134 1.398-.195 2.039-.398 1.2-.379 1.869-1.247 1.99-2.503.08-.847-.056-1.674-.279-2.495-.5-1.839-2.568-2.424-3.859-2.093v.974c2.168.428 2.794 1.546 2.859 3.019.024.54-.169 1.02-.49 1.451-.558.745-1.369.973-2.26 1.073v.972Zm-.095-2.039c.397-.147.73-.24 1.037-.391.497-.244.75-.667.768-1.223.034-1.08-.629-1.805-1.805-2.002v3.616Z"></path>
  <path d="M9.09 3.077c-.03.17-.041.277-.068.38-.183.706-.025 1.348.361 1.948.195.303.424.592.571.916a4.7 4.7 0 0 1 .335 1.099c.021.21-.022.423-.124.61-.058.115-.252.237-.373.226-.122-.01-.245-.17-.333-.29a.504.504 0 0 1-.07-.308c.043-.67-.263-1.215-.614-1.743-.414-.622-.642-1.298-.532-2.046.056-.313.156-.617.298-.901.041-.09.246-.159.361-.141.084.013.143.185.188.25Z"></path>
  <path d="M11.046 4.206c.099-.386.174-.75.29-1.102.066-.203.232-.347.468-.263.221.079.236.28.178.471-.225.742-.039 1.415.287 2.086.23.481.428.977.591 1.484.067.23.077.475.027.71-.027.139-.188.328-.312.35-.117.018-.282-.139-.394-.25-.068-.067-.076-.195-.11-.296-.244-.705-.493-1.408-.726-2.117-.116-.35-.2-.711-.3-1.073Z"></path>
  <path d="M6.577 7.903c0-.014 0-.027.003-.04.252-.742-.094-1.298-.516-1.871a2.272 2.272 0 0 1-.037-2.697c.133-.162.3-.292.49-.382.077-.04.28.008.315.074.048.091.018.25-.03.358-.085.193-.235.358-.31.554-.266.69-.178 1.335.295 1.919.305.377.568.776.636 1.274.066.482-.085.876-.412 1.049-.253.134-.427.038-.434-.238Z"></path>
</svg>