<svg width="46" height="46" fill="currentColor" viewBox="0 0 24 24" xmlns="http://www.w3.org/2000/svg">
  <path d="M7.624 11.051c-.494-.474-.878-.97-1.117-1.568-.46-1.15-.433-2.31-.059-3.468.558-1.728 1.697-2.962 3.311-3.759.898-.443 1.86-.443 2.826-.306 1.778.254 2.87 1.344 3.496 2.952.69 1.77.605 3.52-.246 5.225a1.224 1.224 0 0 0-.045.13c.054.023.1.046.147.064.947.353 1.513 1.009 1.63 2.03.073.641.162 1.28.236 1.922.022.136.02.275-.008.41-.111.407-.07.817-.058 1.228.014.495.003.99.011 1.485.01.55.035 1.098.043 1.648.006.37-.008.74-.01 1.11-.006.472-.278.76-.673.952a9.24 9.24 0 0 1-2.338.778c-1.611.302-3.227.273-4.843.048a23.087 23.087 0 0 1-1.744-.308 3.74 3.74 0 0 1-.887-.316 1.109 1.109 0 0 1-.632-.992c-.062-1.373-.183-2.742-.108-4.12.036-.655-.052-1.315-.051-1.973.001-.509.03-1.017.084-1.522.063-.596.3-1.11.812-1.467.065-.046.124-.102.223-.183Zm4.103.265c.2-.02.502-.038.8-.084 1.2-.183 2.05-.832 2.479-1.97.535-1.423.426-2.82-.218-4.194-1.058-2.257-4.203-2.826-5.993-.934-.843.89-1.38 1.922-1.514 3.13-.187 1.667.518 2.992 2.127 3.641.712.287 1.459.371 2.319.411Zm5.084 1.748c-.22.115-.394.222-.58.3a4.3 4.3 0 0 1-.621.211 19.948 19.948 0 0 1-6.372.54c-.56-.043-1.117-.137-1.636-.378-.08-.037-.165-.06-.299-.108.054.701.105 1.352.153 1.99.937.388 4.176.577 5.821.284 1.238-.22 2.458-.534 3.534-1.141v-1.697Zm-9.316 3.367c.04.612.078 1.185.114 1.759.01.174.132.232.273.257.392.07.783.16 1.178.194a18.49 18.49 0 0 0 4.642-.236c.894-.152 1.779-.335 2.635-.652.282-.105.383-.259.393-.536.017-.412.055-.823.08-1.234-.003-.09-.01-.18-.023-.27-3.013 1.365-6.109 1.201-9.292.717Zm9.26 3.736-.108-1.408c-2.958.788-5.922 1.11-8.963.51l-.085 1.33c.24.07.457.166.683.197.938.13 1.877.254 2.819.353 1.157.123 2.307.005 3.446-.194a7.44 7.44 0 0 0 2.208-.788Zm-1.65-9.054c-.07.058-.135.11-.197.164-.756.656-1.65.965-2.635 1.037-1.325.097-2.604-.072-3.802-.69-.084-.043-.241-.066-.298-.019-.236.185-.45.397-.638.631-.15.198-.102.393.1.54.162.127.35.219.549.268.55.112 1.108.19 1.668.232 1.045.056 2.092 0 3.125-.164a32.58 32.58 0 0 0 2.378-.487c.251-.069.487-.184.696-.34.303-.217.303-.41.06-.688a1.43 1.43 0 0 0-1.007-.484Z"></path>
  <path d="M11.01 9.723c-.298-.103-.56-.186-.815-.285a1.247 1.247 0 0 1-.32-.18c-.206-.163-.255-.388-.146-.584.093-.17.245-.221.502-.16.25.06.499.13.803.209l.07-1.158c-.176-.047-.319-.084-.462-.124-.967-.265-1.318-1.05-.872-1.946.26-.525.694-.836 1.268-.997.007-.153-.013-.31.031-.445a.399.399 0 0 1 .234-.232c.065-.018.203.079.244.158.067.128.082.285.125.452.111.041.242.078.364.136.158.076.28.196.239.388-.045.202-.199.24-.384.206a.917.917 0 0 0-.178.015l.088 1.679.39.144c.502.186.845.528.916 1.067.07.534-.163.96-.587 1.283-.094.08-.2.145-.314.193-.212.074-.347.193-.389.425a.338.338 0 0 1-.343.299c-.19.006-.304-.102-.368-.273l-.096-.27Zm.08-4.422c-.394.155-.564.32-.687.642-.135.355-.042.58.312.723.123.04.248.072.375.096v-1.46Zm.768 2.39v.935c.283-.105.435-.259.447-.519.01-.209-.1-.307-.446-.416Z"></path>
</svg>