<svg width="46" height="46" fill="currentColor" viewBox="0 0 24 24" xmlns="http://www.w3.org/2000/svg">
  <path d="M10.05 9.7c-.336-.064-.673-.12-1.008-.192a2.79 2.79 0 0 1-1.085-.479c-.281-.207-.481-.472-.48-.824.004-.617.038-1.234.07-1.85.011-.233.06-.463.078-.696a1.943 1.943 0 0 1 .712-1.393c.24-.201.495-.409.778-.533 1.172-.514 2.362-.964 3.678-.933.88.02 1.762-.001 2.63.176.67.137 1.28.408 1.788.879.442.409.704.903.722 1.52.012.45.052.901.08 1.343.462.108.908.185 1.334.32.287.092.557.23.8.407.367.27.489.684.507 1.127.033.824.056 1.648.097 2.471.054 1.084.14 2.167.178 3.252.043 1.236.058 2.474.058 3.71 0 .367-.1.732-.142 1.099-.04.351-.27.52-.569.637-.677.27-1.383.46-2.103.566a17.239 17.239 0 0 1-5.216-.068c-.377-.06-.744-.182-1.147-.284-.06.049-.145.115-.227.186-.854.738-1.852 1.106-2.97 1.18-1.28.083-2.493-.143-3.621-.76-.991-.542-1.669-1.34-1.905-2.462-.569-2.695 1.157-5.444 3.824-6.122.208-.053.396-.18.604-.234.26-.068.538-.154.798-.129.377.037.747.164 1.119.259.155.039.306.093.485.147l.133-2.32ZM8.216 20.397c.194-.023.512-.036.82-.1 1.429-.294 2.411-1.08 2.745-2.555a4.285 4.285 0 0 0 .04-1.718c-.223-1.258-.865-2.211-2.015-2.793-.367-.186-.75-.34-1.133-.49a1.979 1.979 0 0 0-1.295-.041c-1.529.44-2.62 1.358-3.113 2.902a5.463 5.463 0 0 0-.258 1.205c-.12 1.473.414 2.433 1.695 3.041.757.36 1.558.522 2.514.549ZM12.052 6.71c.969-.096 1.89-.155 2.798-.29a5.493 5.493 0 0 0 1.449-.438c.55-.252.61-.713.22-1.178a1.003 1.003 0 0 0-.268-.253c-.325-.174-.645-.386-.994-.477a9.987 9.987 0 0 0-3.883-.24c-.713.096-1.398.291-2.016.677-.342.213-.654.462-.826.84-.158.346-.08.63.258.802.253.137.528.231.812.279.828.115 1.662.191 2.45.277Zm4.973.153c-.51.15-.961.314-1.427.416-1.214.267-2.45.309-3.688.275-1.223-.034-2.442-.104-3.576-.66V8.33c.34.236.6.354 1.115.413.804.093 1.61.179 2.418.221 1.429.078 2.86-.078 4.239-.464.339-.094.677-.207.92-.389V6.864Zm2.874 5.468c-.652.292-1.211.59-1.802.798-1.442.51-2.94.512-4.441.381-.598-.052-1.192-.158-1.776-.238.172.277.37.557.527.858.158.301.275.626.423.97.157.024.331.064.507.075 1.62.1 3.247-.067 4.815-.494.512-.14 1-.372 1.495-.57.126-.05.253-.116.252-.29v-1.49Zm-8.901-.163c.298.094.605.22.925.287 1.472.302 2.984.35 4.471.143 1.111-.15 2.11-.6 3.015-1.254.115-.084.265-.201.283-.32.041-.282.013-.573.013-.866a.341.341 0 0 0-.105.035c-.747.557-1.605.823-2.509.98-1.33.222-2.685.27-4.029.142-.67-.058-1.337-.163-1.967-.427-.08-.033-.163-.06-.284-.104l.187 1.384Zm1.344 7.117c1.314.462 6.016.473 7.735-.667l-.116-1.156c-2.334.882-4.714.98-7.131.726l-.488 1.097Zm7.559-4.122a14.627 14.627 0 0 1-6.887.751v1.358c.037.025.048.04.06.04.233.014.466.028.7.04a15.738 15.738 0 0 0 4.621-.433 5.59 5.59 0 0 0 1.505-.595v-1.161Zm-1.835-7.406c-.026.04-.056.065-.053.085.093.483-.192.766-.532 1.029-.448.345-.973.505-1.509.628a15.194 15.194 0 0 1-4.752.293c-.115-.01-.23-.002-.346-.002a.707.707 0 0 0 .342.282c.269.104.546.184.829.24 1.672.27 3.38.237 5.04-.097.622-.12 1.233-.311 1.733-.722.219-.184.405-.404.55-.65.15-.256.071-.477-.172-.64a2.807 2.807 0 0 0-1.13-.446Z"></path>
  <path d="M8.05 14.855v1.51c.22.084.427.152.625.238.782.336.974 1.07.462 1.745-.211.279-.378.391-1 .677-.059.298-.118.592-.174.887-.031.164-.11.291-.289.295-.19.005-.256-.15-.29-.297-.063-.28-.106-.563-.163-.877-.229-.06-.478-.125-.726-.194a2.244 2.244 0 0 1-.351-.114c-.227-.106-.318-.283-.275-.496.04-.197.21-.322.472-.305.285.018.568.067.845.101.115-.318.128-.508.078-1.05-.193-.073-.401-.137-.597-.227-.795-.367-.97-1.16-.407-1.83a2.09 2.09 0 0 1 .887-.651c.212-.077.297-.207.305-.427.002-.15.035-.299.096-.436a.322.322 0 0 1 .253-.155.327.327 0 0 1 .217.203c.035.175.053.354.056.533.19.043.377.096.56.158.294.115.432.343.397.602-.032.23-.157.307-.37.213-.188-.082-.363-.205-.61-.103Zm-.723.3c-.402.238-.608.492-.534.68.089.226.295.283.534.314v-.995Zm.75 2.831c.268-.099.512-.216.504-.487-.006-.227-.256-.273-.46-.304-.011-.002-.025.008-.076.028 0 .158-.003.33.001.503.002.076.018.151.032.26Z"></path>
</svg>