<svg width="46" height="46" fill="currentColor" viewBox="0 0 24 24" xmlns="http://www.w3.org/2000/svg">
  <path d="M15.387 13.761c.26.073.55.098.771.235.134.082.256.368.21.504-.045.136-.333.308-.47.275a2.01 2.01 0 0 0-1.657.282 3.247 3.247 0 0 0-1.268 1.638c-.083.224-.126.543-.474.44-.338-.1-.27-.415-.23-.666.227-1.371 1.73-2.652 3.118-2.708Z"></path>
  <path d="M15.58 9.906c-.086.222-.132.443-.248.619-.26.394-.837.37-.988-.071-.112-.328-.096-.72-.048-1.072.017-.123.3-.292.462-.292.22.012.428.101.588.253.13.126.156.361.234.563Z"></path>
  <path d="M7.855 10.32c.001-.489.228-.828.556-.831.3-.004.582.354.607.772.025.421-.257.778-.619.781-.352.003-.546-.254-.544-.722Z"></path>
  <path d="m8.452 7.138.503.384c-.116.118-.212.288-.353.344-.434.17-.876.316-1.324.44-.073.02-.258-.078-.256-.117.004-.15.018-.381.11-.433.412-.228.851-.405 1.32-.618Z"></path>
  <path d="M15.436 6.664c.364.165.74.309 1.083.51.095.055.09.28.13.428-.145.039-.304.135-.434.105a12.21 12.21 0 0 1-1.242-.37.334.334 0 0 1-.196-.222.325.325 0 0 1 .144-.261c.14-.07.309-.084.466-.121l.05-.07Z"></path>
  <path d="M2.627 9.356c-.858 3.373-.106 6.35 2.236 8.847.06.064.123.129.185.19 1.258 1.259 2.826 2.036 4.067 2.576.533.233 3.268.516 4.008.406 4.397-.657 7.291-3.137 8.299-7.287.192-.812.288-1.645.285-2.48.005-1.968-.823-4.255-2.532-5.968a33.982 33.982 0 0 1-.52-.442c-.368-.316-.748-.644-1.146-.923-3.036-2.137-6.19-2.149-9.376-1.015-2.884 1.025-4.736 3.076-5.506 6.096Zm5.518-5.087c2.795-1.161 5.6-1.366 8.334.373.5.319 1.834 1.396 2.044 1.558l.013.01.011.013c1.067 1.131 2.29 3.2 2.262 5.327a10.86 10.86 0 0 1-.366 2.693c-.695 2.525-2.356 4.366-5.078 5.624-2.768 1.325-6.736-.014-7.792-.711a12.33 12.33 0 0 1-3.02-2.935c-1.302-1.844-1.594-4.496-.894-6.92A7.859 7.859 0 0 1 8.145 4.27Z"></path>
</svg>