<svg width="46" height="46" fill="currentColor" viewBox="0 0 24 24" xmlns="http://www.w3.org/2000/svg">
  <path d="m17.894 13.982-11.505.33c.046.915.095 1.804.13 2.694.012.247-.004.494-.048.736a.504.504 0 0 1-.498.417.529.529 0 0 1-.483-.438 2.208 2.208 0 0 1-.022-.492c.03-.825.068-1.648.1-2.473.006-.149 0-.298 0-.478-.44-.044-.846-.072-1.25-.128a4.279 4.279 0 0 1-.843-.18c-.852-.302-1.23-1.058-.933-1.913.325-.934.941-1.57 1.961-1.733.175-.028.348-.066.48-.09.054-1.16.102-2.297.16-3.432.014-.298.126-.42.426-.462.258-.037.52-.047.78-.058 1.03-.046 2.06-.088 3.09-.129.151-.01.303-.006.453.012.418.061.64.271.686.694.077.725.126 1.452.188 2.178.029.34.06.679.09 1.039h1.684c.01-.117.021-.222.028-.328.064-.946.12-1.893.191-2.839.045-.589.29-.822.883-.866.37-.027.74-.052 1.112-.064a423.88 423.88 0 0 1 3.381-.095c.54-.013.718.122.833.647.064.281.1.568.109.857.014.835.005 1.67.005 2.506.311.042.598.064.878.12 1.083.22 1.834 1.387 1.558 2.387-.119.43-.387.716-.771.914-.559.288-1.168.392-1.778.496-.079.013-.159.023-.25.036 0 .223.002.425 0 .628-.004 1.03 0 2.06-.018 3.09-.007.41-.204.65-.48.672-.289.023-.557-.22-.567-.635-.013-.575.042-1.152.082-1.727.044-.627.104-1.253.158-1.893ZM12.4 11.039l-.002-.071c-2.596.073-5.192.153-7.788.21a.84.84 0 0 0-.727.379c-.144.2-.26.42-.348.65-.177.492-.033.72.463.904.42.157.84.084 1.264.076 3.188-.066 6.377-.111 9.564-.2 1.304-.035 2.606-.139 3.906-.255.472-.043.942-.185 1.395-.335.41-.136.47-.377.305-.783-.175-.428-.488-.655-.943-.676-.55-.025-1.1-.06-1.648-.049-1.814.04-3.628.099-5.441.15Zm5.515-4.205h-.897c.029.383.068.724.078 1.067.016.495-.19.743-.675.819-.27.043-.546.063-.82.087-.675.06-.82-.095-.783-.785.02-.38.003-.761.003-1.168h-1.277l.15 3.206 4.22-.155V6.834Zm-9.208.081c.028.357.09.724.079 1.089-.015.459-.246.662-.703.697a6.8 6.8 0 0 1-.535.018c-.574-.002-.703-.145-.663-.715.026-.364.046-.728.069-1.097h-.96l.075 3.253 3.595-.088.107-3.157H8.708Zm6.656-.056.144 1.122.781-.064.092-1.058h-1.017ZM7.518 7.946l.424-.041.12-1.005h-.63l.086 1.046Z"></path>
  <path d="M17.98 11.888a.613.613 0 0 1-.609.602.523.523 0 0 1-.524-.523c.01-.282.339-.633.601-.642.294-.01.532.242.532.563Z"></path>
  <path d="M8.758 12.702a.556.556 0 0 1-.578-.568c-.006-.304.158-.518.404-.526.43-.014.694.182.704.522a.553.553 0 0 1-.53.572Z"></path>
  <path d="M6.241 12.177a.561.561 0 0 1-.773.491.547.547 0 0 1-.334-.508c.006-.317.262-.498.678-.483.252.009.437.224.429.5Z"></path>
  <path d="M14.688 11.448a.52.52 0 0 1 .514.492.504.504 0 0 1-.488.513.493.493 0 0 1-.523-.513.47.47 0 0 1 .497-.492Z"></path>
  <path d="M11.741 11.65c.32-.004.51.164.508.45a.495.495 0 0 1-.501.487.513.513 0 0 1-.505-.49c-.013-.292.155-.442.498-.447Z"></path>
</svg>