<svg width="46" height="46" fill="currentColor" viewBox="0 0 24 24" xmlns="http://www.w3.org/2000/svg">
  <path d="M20.837 11.352c-.181-.005-.36.086-.534.275-.625.684-1.464.974-2.563.885-.936-.075-1.601-.42-2.034-1.055a1.483 1.483 0 0 1-.206-1.2 1.103 1.103 0 0 1 .567-.732.082.082 0 0 0 .044-.087c-.106-.615-.252-.74-.825-.713-.044.002-.088.008-.132.013-.037.005-.074.01-.112.012-.826.05-1.905.052-2.922-.374-1.05-.438-1.551-1.189-1.534-2.295.004-.308.038-.614.103-.914a5.322 5.322 0 0 1 .973-2.046l.01-.013c.115-.153.199-.278.156-.38a.49.49 0 0 0-.381-.25l-.15-.006c-.31-.011-.63-.024-.925.058-3.262.907-5.47 2.677-6.749 5.411-1.08 2.309-1.43 4.284-1.104 6.217.508 3.01 2.113 5.117 4.77 6.262 1.682.725 3.367 1.09 5.03 1.09.636 0 1.27-.054 1.897-.16 2.467-.419 4.41-1.555 5.771-3.379 1.09-1.46 1.63-3.272 1.648-5.542.003-.28-.158-.587-.309-.78-.149-.19-.314-.29-.49-.297Zm-8.976-1.94c.697.27 1.474.413 2.376.437.128.003.255.002.39.001h.101l-.002.013c-.013.061-.022.11-.035.155-.32 1.136.014 2.128.938 2.793 1.263.908 2.72 1.065 4.332.467.076-.029.15-.063.234-.102l.028-.013a6.94 6.94 0 0 1-.315 1.95c-.774 2.58-2.627 4.238-5.506 4.928-2.232.534-4.555.28-6.906-.756-2.116-.932-3.43-2.662-3.906-5.141a7.42 7.42 0 0 1 .083-3.166C4.283 8.46 5.192 6.789 6.62 5.56c1.242-1.07 2.52-1.794 3.909-2.215a.649.649 0 0 1 .034-.01 5.15 5.15 0 0 0-.91 2.462c-.17 1.686.636 3.004 2.209 3.614Z"></path>
  <path d="M13.25 18.501h.014c.835 0 1.497-.742 1.51-1.695.009-.626-.722-1.37-1.372-1.397-.373-.017-.783.161-1.122.485-.358.342-.574.79-.578 1.199-.008.781.673 1.4 1.548 1.408Zm-.462-1.537c.009-.284.363-.67.558-.67a.4.4 0 0 1 .251.151.556.556 0 0 1 .166.365c-.028.331-.252.57-.52.557-.287-.015-.461-.17-.455-.403Z"></path>
  <path d="M8.79 12.688c-.003.405.119.743.352.978.238.24.584.366 1.001.366h.006c.434-.002.802-.143 1.064-.41.29-.294.44-.727.434-1.252-.008-.766-.659-1.255-1.656-1.246-.712.007-1.195.635-1.201 1.564Zm.922 0c-.004-.283.064-.527.176-.638a.184.184 0 0 1 .13-.059h.006c.362.014.661.246.667.517.01.38-.189.623-.516.634-.165.006-.28-.025-.351-.093-.073-.07-.11-.188-.112-.362Z"></path>
  <path d="M6.699 13.772a1.394 1.394 0 0 0-1.006.404 1.11 1.11 0 0 0-.34.79c.003.59.354.94.94.94.755 0 1.305-.493 1.307-1.17.002-.537-.394-.96-.901-.964Zm-.7 1.127a.194.194 0 0 1 .065-.132c.09-.09.293-.184.598-.187l.028.027c.049.044.122.111.13.17a.23.23 0 0 1-.063.184.695.695 0 0 1-.496.204.28.28 0 0 1-.197-.057.287.287 0 0 1-.065-.209Z"></path>
  <path d="M7.81 6.985c-.284-.18-.656-.182-1.023-.005-.371.18-.497.506-.62.821a2.827 2.827 0 0 1-.05.128.85.85 0 0 0-.003.665.942.942 0 0 0 .532.495c.157.064.324.098.492.1.211.001.418-.061.593-.18.325-.22.514-.617.519-1.09.004-.413-.157-.753-.44-.934Zm-.236 1.042c-.007.328-.164.505-.442.5a.495.495 0 0 1-.355-.146.298.298 0 0 1-.085-.22.576.576 0 0 1 .549-.522h.008a.34.34 0 0 1 .252.076c.053.056.076.155.073.312Z"></path>
</svg>