<svg width="46" height="46" fill="currentColor" viewBox="0 0 24 24" xmlns="http://www.w3.org/2000/svg">
  <path d="M21.8 7.461c.138-.587.01-.806-.61-.812-.395-.004-.79-.014-1.186-.01a8.642 8.642 0 0 0-.818-.95c-.176-.145-.35-.295-.52-.441-.368-.316-.748-.644-1.145-.923-3.037-2.137-6.192-2.149-9.377-1.015-1.867.663-3.3 1.757-4.288 3.264-.341-.002-.683-.003-1.024-.006-.618-.005-.782.23-.6.81.023.093.036.189.039.285.058.644.167 1.282.328 1.908-.793 3.306-.029 6.226 2.275 8.682.06.064.123.128.185.19 1.258 1.258 2.826 2.035 4.067 2.576.533.233 3.268.515 4.008.405 4.397-.657 7.291-3.137 8.299-7.286.192-.813.288-1.645.285-2.48a7.899 7.899 0 0 0-.293-2.11c.026-.085.051-.17.075-.256.163-.593.16-1.23.3-1.83Zm-1.42 1.772c-.126.438-.256.866-.408 1.287-.364 1.013-1.166 1.52-2.23 1.549-.657.016-1.33.011-1.974-.105-1.338-.243-2.242-1.27-2.45-2.626-.066-.432.047-.738.477-.86.873-.246 1.74-.565 2.632-.686 1.031-.14 2.077-.18 3.12-.232.335.527.615 1.088.834 1.673ZM8.157 4.32c2.795-1.162 5.6-1.367 8.334.373.5.318 1.834 1.396 2.044 1.558l.013.01.011.012c.115.122.232.256.35.398-1.586.068-3.156.25-4.67.783a5.69 5.69 0 0 0-1.336.713c-.41.286-1.275.292-1.69 0-.435-.304-.896-.6-1.389-.784-1.315-.491-2.7-.678-4.094-.759a31.1 31.1 0 0 0-.61-.027A7.83 7.83 0 0 1 8.155 4.32ZM4.504 7.465c.36-.003.718 0 1.075.016 1.41.065 2.807.24 4.142.72 1.127.405 1.217.411.811 1.685-.454 1.423-1.574 2.035-3.003 2.11a10.38 10.38 0 0 1-1.69-.079c-.7-.078-1.21-.457-1.58-1.069a5.71 5.71 0 0 1-.603-1.447l.014-.049a7.697 7.697 0 0 1 .834-1.887Zm-1.161.01-.042.082a43.615 43.615 0 0 0-.012-.083h.054ZM20.82 11.6c-.009.91-.132 1.814-.366 2.692-.695 2.526-2.356 4.366-5.078 5.625-2.768 1.325-6.736-.015-7.792-.712a12.335 12.335 0 0 1-3.02-2.934c-.959-1.359-1.37-3.155-1.24-4.976.033.055.067.11.103.164.436.66 1.012 1.119 1.787 1.316a7.15 7.15 0 0 0 3.28.088c1.584-.335 2.563-1.316 3.02-2.844.058-.231.103-.465.136-.7h.718c.02.11.038.203.053.297.28 1.829 1.487 3.114 3.316 3.355.862.113 1.758.051 2.63-.03 1.095-.1 1.913-.703 2.388-1.692.018-.036.034-.072.051-.109.01.153.016.306.014.46Zm-.227-4.057c.075.007.16.016.26.023l-.086.3a8.9 8.9 0 0 0-.174-.323Z"></path>
  <path d="M16.054 14.075c-.247-.193-.562-.054-.859.411-.5.782-1.197 1.259-2.108 1.37-.666.083-1.348.145-2.014.1-.92-.062-1.795-.29-2.38-1.128-.08-.116-.428-.186-.53-.111a.647.647 0 0 0-.2.552c.115.49.465.833.884 1.099.997.632 2.113.745 3.286.754.353-.044.738-.072 1.117-.141 1.248-.227 2.31-.734 2.861-1.973.143-.318.296-.657-.057-.933Z"></path>
</svg>