<svg width="46" height="46" fill="currentColor" viewBox="0 0 24 24" xmlns="http://www.w3.org/2000/svg">
  <path d="M6.542 20.192c-.614-.041-1.184-.076-1.752-.119-.398-.03-.774-.118-1.107-.364-.56-.412-.736-1.003-.75-1.647-.02-.94-.011-1.88.013-2.82.025-.954.065-1.908.134-2.859.148-2.025.211-4.053.268-6.083.04-.981.22-1.951.535-2.881.263-.813.792-1.316 1.643-1.455.202-.034.403-.071.606-.088 2.848-.226 5.693-.526 8.557-.418.611.023 1.223.073 1.83.149.754.095 1.145.52 1.172 1.278.022.621-.011 1.245-.02 1.925.123 0 .269-.011.413.002.46.041.923.068 1.378.143.73.12 1.177.56 1.37 1.282.158.62.252 1.255.281 1.894.127 2.088-.017 4.165-.208 6.244-.075.812-.08 1.633-.097 2.45-.017.817.008 1.636-.021 2.453a7.942 7.942 0 0 1-.168 1.375c-.214.998-.885 1.596-1.927 1.715-.729.092-1.462.146-2.196.162-2.136.022-4.273.032-6.408-.001-.702-.011-1.409-.133-2.1-.27-.809-.161-1.309-.777-1.399-1.605l-.047-.462Zm1.372-5.92h-.052l-.083 2.696c-.034 1.048-.072 2.096-.102 3.145-.005.175.024.352.032.529.016.35.208.567.535.63.559.11 1.121.238 1.687.268 1.181.06 2.366.097 3.548.08 1.468-.02 2.935-.097 4.402-.166.312-.02.62-.072.922-.155.371-.094.625-.342.689-.727.086-.453.142-.913.166-1.374.027-.94 0-1.88.017-2.82.013-.707.032-1.417.1-2.12.18-1.832.3-3.666.213-5.507-.033-.679-.076-1.358-.256-2.02-.081-.299-.23-.483-.558-.489-.787-.014-1.575-.061-2.362-.046-1.36.026-2.717.092-4.076.137-.966.032-1.931.048-2.896.09-.433.019-.875.042-1.27.251-.135.072-.322.19-.343.31a5.619 5.619 0 0 1-.284 1.12.846.846 0 0 0-.017.285c-.005.313-.011.626-.011.94-.002 1.647-.002 3.295-.001 4.944Zm-1.388 4.76c.016-.276.03-.493.04-.71l.136-3.35c.07-1.728.136-3.457.216-5.185.05-1.088.086-2.18.32-3.249a1.29 1.29 0 0 1 .24-.5c.326-.41.796-.682 1.315-.758a17.546 17.546 0 0 1 2.065-.217c1.767-.083 3.535-.134 5.303-.2.105-.003.21-.023.355-.04.044-.65.051-1.28-.085-1.96-.68-.042-1.357-.1-2.035-.124-2.63-.09-5.246.181-7.865.344-.311.019-.618.092-.928.13-.36.042-.548.26-.653.586a10.051 10.051 0 0 0-.484 2.476c-.118 1.985-.24 3.97-.312 5.958-.067 1.824-.074 3.65-.098 5.476a3.5 3.5 0 0 0 .088.728c.063.314.237.467.56.499.42.04.84.068 1.26.094.174.011.348.002.562.002Z"></path>
</svg>