<svg width="46" height="46" fill="currentColor" viewBox="0 0 24 24" xmlns="http://www.w3.org/2000/svg">
  <path d="M3.239 6.787c.455.009.917.006 1.364.004l.6-.003h.846l.005.066c.008.093.014.181.019.27l.054 1.138c.108 2.263.215 4.526.321 6.79.015.318.026.643.036.956.008.223.015.447.024.67.023.572.265.808.837.817.145.002.293.008.436.014.192.008.389.016.586.015 1.979-.009 3.958-.02 5.936-.031l2.158-.012h.439l.005.065c.005.069.009.119.01.169l.022.796c.018.633.036 1.287.06 1.93.005.199.04.395.104.582a.716.716 0 0 0 .658.46h.03a.694.694 0 0 0 .653-.556 2.7 2.7 0 0 0 .036-.609v-.014c-.01-.482-.02-.965-.032-1.448-.01-.412-.018-.825-.027-1.237a.322.322 0 0 1 .024-.098l.002-.004h2.227a2.01 2.01 0 0 0 .357-.02c.37-.066.632-.335.62-.643-.01-.292-.272-.526-.639-.568a7.776 7.776 0 0 0-.825-.036 131.895 131.895 0 0 0-1.748-.002l-.006-.06c-.005-.06-.01-.101-.01-.142l-.067-2.249c-.057-1.93-.116-3.926-.182-5.89a13.584 13.584 0 0 0-.156-1.587c-.071-.475-.277-.658-.785-.7l-.064-.006a2.224 2.224 0 0 0-.187-.013 22006.308 22006.308 0 0 0-9.483-.103c-.066 0-.136-.006-.209-.011l-.043-.004c0-.163 0-.324.002-.484.001-.474.003-.92-.006-1.376a2.82 2.82 0 0 0-.098-.701c-.08-.29-.301-.442-.576-.397-.315.051-.333.309-.346.497l-.001.01c-.032.443-.06.886-.09 1.33l-.05.781c-.008.106-.018.212-.028.319l-.007.079-.051.003a4.663 4.663 0 0 1-.17.01l-.799.023c-.582.016-1.184.032-1.777.058-.489.021-.8.245-.812.584a.464.464 0 0 0 .124.349c.131.14.36.213.678.219Zm13.453-.04c.118.794.284 8.413.204 9.46l-8.985.169-.62-9.632c1.849-.062 3.698-.038 5.487-.015 1.285.017 2.612.034 3.914.019Z"></path>
</svg>