<svg width="46" height="46" fill="currentColor" viewBox="0 0 24 24" xmlns="http://www.w3.org/2000/svg">
  <path d="M11.677 13.538c-1.373 1.23-2.717 2.421-4.047 3.628-.77.698-1.514 1.427-2.282 2.128-.205.191-.44.347-.696.46-.127.053-.4 0-.462-.097-.082-.129-.058-.358-.013-.526.033-.122.165-.224.264-.323a7128.65 7128.65 0 0 1 5.693-5.599c.213-.209.433-.412.677-.644-.83-.92-1.66-1.807-2.453-2.727C7.09 8.368 5.85 6.878 4.6 5.395c-.046-.054-.085-.113-.13-.166-.22-.26-.374-.538-.125-.852.187-.235.633-.2.944.12A98.685 98.685 0 0 1 7.564 6.93c1.365 1.5 2.72 3.009 4.08 4.513a1.8 1.8 0 0 0 .185.152c1.052-1.006 2.092-2.008 3.141-3.001a674.16 674.16 0 0 1 3.662-3.441c.46-.43.828-.507 1.11-.256.292.26.265.693-.201 1.158-1.26 1.257-2.55 2.484-3.84 3.712-.982.936-1.98 1.855-3.025 2.833.85.878 1.662 1.754 2.514 2.589.818.802 1.681 1.558 2.515 2.343.327.296.632.614.914.951.228.284.262.636-.018.915-.276.276-.596.178-.862-.03-.51-.379-.997-.785-1.462-1.217-1.423-1.393-2.82-2.812-4.228-4.222-.111-.112-.217-.229-.372-.39Z"></path>
</svg>