<svg width="46" height="46" fill="currentColor" viewBox="0 0 24 24" xmlns="http://www.w3.org/2000/svg">
  <path d="M18.233 9.102c-.28.004-.444-.07-.543-.263-.095-.184-.033-.349.068-.501a.696.696 0 0 1 .203-.201c.428-.27.856-.543 1.298-.788a.858.858 0 0 1 .473-.08.478.478 0 0 1 .382.674 1.04 1.04 0 0 1-.362.43c-.396.24-.816.444-1.232.65a1.205 1.205 0 0 1-.287.079Z"></path>
  <path d="M5.225 9.683c-.089-.05-.289-.12-.43-.254a5.067 5.067 0 0 1-.615-.716.816.816 0 0 1-.16-.45c.003-.298.316-.513.633-.407a2.088 2.088 0 0 1 1.233 1.026c.214.417-.08.814-.661.8Z"></path>
  <path d="M16.592 3.718c.421-.002.675.313.592.644a.66.66 0 0 1-.144.29c-.286.296-.574.59-.884.858-.151.13-.341.226-.57.15-.267-.09-.396-.31-.31-.575a.638.638 0 0 1 .111-.22c.268-.31.533-.626.822-.916.119-.12.297-.18.383-.23Z"></path>
  <path d="M9.105 5.273c-.024.243-.126.424-.346.53-.205.099-.383.03-.526-.11a2.605 2.605 0 0 1-.678-1.065c-.09-.286-.006-.526.202-.654.22-.137.46-.118.67.106.32.343.587.723.678 1.193Z"></path>
  <path d="M21.29 11.613a2.097 2.097 0 0 0-.108-.608c-.096-.26-.269-.437-.485-.496-.219-.06-.46.005-.679.182-.165.134-.327.28-.483.421-.064.058-.128.117-.193.174l-.857.762-2.1 1.866c-.05.042-.103.08-.159.115l-.068.046a.125.125 0 0 1-.157-.013.124.124 0 0 1-.03-.047 132.39 132.39 0 0 1-.46-1.275c-.338-.94-.688-1.913-1.053-2.854-.51-1.31-1.057-2.581-1.57-3.76a2.737 2.737 0 0 0-.539-.767c-.2-.209-.418-.224-.708-.049-.236.142-.337.389-.444.649l-.01.024c-.106.257-.212.516-.316.774-.32.785-.65 1.598-1 2.385a125.927 125.927 0 0 1-1.648 3.513c-.184.381-.384.748-.597 1.136-.096.177-.195.357-.293.542a.123.123 0 0 1-.175.047l-.349-.22-.623-.39-.847-.536c-.554-.35-1.107-.7-1.662-1.049a.824.824 0 0 0-.425-.157.467.467 0 0 0-.304.126c-.244.2-.312.447-.209.756.066.199.155.397.241.59l.004.007c.07.156.146.314.218.467.137.288.28.587.395.892l.221.58c.474 1.24.962 2.522 1.282 3.841.108.448.367.69.79.74l.349.044c.475.072.955.11 1.435.115 1.092-.014 2.202-.055 3.275-.093a398.901 398.901 0 0 1 3.74-.12l.89-.028.216-.006.237-.007c.275-.008.55-.019.825-.028.675-.025 1.372-.051 2.06-.055.316-.002.54-.113.704-.348.114-.172.2-.361.256-.56l.089-.293c.364-1.192.74-2.426.961-3.675l.065-.363c.177-.976.36-1.986.299-2.997Zm-2.752 6.804a.123.123 0 0 1-.103.08c-.099.01-.201.023-.305.036a9.314 9.314 0 0 1-.729.069c-.406.017-.819.03-1.218.04-.532.016-1.082.032-1.621.061-.628.036-1.268.088-1.885.138-.355.03-.71.058-1.066.083-.518.039-.951.07-1.402.083-1.11.036-2.24.064-3.331.093l-.541.014h-.013a.807.807 0 0 1-.15-.018l-.048-.008a.124.124 0 0 1-.101-.087L4.59 14.337a.123.123 0 0 1 .112-.16.122.122 0 0 1 .071.018l.186.115.348.216c.158.101.317.202.476.301.393.249.8.505 1.192.77.251.17.47.236.652.195.176-.04.332-.18.475-.427l.129-.22c.243-.417.494-.848.703-1.287a686.952 686.952 0 0 0 2.054-4.38l.794-1.703c.022-.048.045-.095.079-.16l.063-.128a.12.12 0 0 1 .115-.068.124.124 0 0 1 .11.075c.098.23.196.451.293.67.21.474.408.921.577 1.386.387 1.066.766 2.154 1.134 3.207.21.603.422 1.206.634 1.81.105.307.228.608.367.902a.742.742 0 0 0 .514.43c.222.045.456-.032.661-.215.311-.277.621-.557.93-.836l.816-.734c.346-.31.693-.617 1.041-.925l.466-.412a.125.125 0 0 1 .128-.023l.086.034a.124.124 0 0 1 .078.135c-.254 1.618-.61 3.537-1.336 5.495Z"></path>
</svg>