<svg width="46" height="46" fill="currentColor" viewBox="0 0 24 24" xmlns="http://www.w3.org/2000/svg">
  <path d="M12.926 12.61c-.497-.348-1.295-.21-1.69.263a2.66 2.66 0 0 0-.632 1.954c.045.596.577 1.103 1.202 1.19.67.092 1.18-.185 1.397-.821.123-.36.167-.746.22-1.001-.038-.405-.022-.693-.103-.95-.073-.233-.204-.503-.394-.635Zm-.968.514c.378-.03.611.255.662.679h-1.182c.123-.266.144-.65.52-.679Zm.131 2.204c-.32.042-.655-.22-.787-.613.41-.293.857-.254 1.35-.144-.077.373-.15.702-.562.757Z"></path>
  <path d="M19.158 5.648a31.698 31.698 0 0 1-.52-.442 15.35 15.35 0 0 0-1.146-.922c-3.036-2.138-6.191-2.15-9.377-1.016-2.884 1.026-4.736 3.077-5.506 6.096-.858 3.374-.106 6.35 2.237 8.848a8.232 8.232 0 0 0 .4.398c.318.296.656.57 1.012.821.902.641 1.852 1.11 2.675 1.475.056.025.11.05.165.072.21.075.428.128.65.16 1.016.18 2.785.33 3.358.245.458-.068.912-.16 1.36-.274.306-.078.602-.167.89-.266a9.844 9.844 0 0 0 2.19-1.054 8.72 8.72 0 0 0 .711-.515c1.543-1.238 2.611-2.972 3.147-5.177a10.57 10.57 0 0 0 .286-2.48c.004-1.968-.824-4.256-2.532-5.969ZM7.555 19.165c-.479-.321-.931-.68-1.354-1.072.02-.046.041-.093.064-.14.206-.422.41-.844.614-1.266.302-.632.339-1.276.06-1.922-.142-.327-.314-.643-.476-.963-.324-.636-.232-1.197.294-1.674.4-.36.808-.711 1.216-1.06.129-.111.27-.205.485-.364-.065.296-.11.48-.148.667-.18.881-.146 1.737.37 2.51.554.834.644 1.651.11 2.55-.417.701-.435 1.473-.075 2.226.177.366.283.763.313 1.169-.658-.222-1.178-.466-1.473-.661Zm7.966.629a1.58 1.58 0 0 0-.419-.975c-.634-.705-.674-1.483-.314-2.31.225-.517.473-1.025.731-1.527.284-.552.41-1.117.188-1.714a9.377 9.377 0 0 0-.432-.936c-.372-.738-.207-1.422.146-2.098l2.335 1.284c-.032.105-.044.159-.066.208-.52 1.207-.617 2.384.153 3.55.136.206.127.56.077.826a5.99 5.99 0 0 1-.373 1.138 3.368 3.368 0 0 0-.27 1.52c-.553.396-1.14.743-1.756 1.034Zm4.905-5.542a7.939 7.939 0 0 1-2.197 3.714c.014-.047.03-.094.047-.141.154-.428.282-.865.417-1.3.18-.583.17-1.159-.211-1.658-.692-.908-.616-1.872-.257-2.864.038-.105.167-.18.258-.264.13-.121.355-.227.373-.361.02-.148-.124-.343-.244-.476-.094-.105-.258-.15-.394-.218-.65-.332-1.303-.66-1.952-.996a4.672 4.672 0 0 1-.394-.262c.684-.708 1.33-1.369 1.965-2.04.135-.144.438-.302.2-.531-.213-.206-.392.062-.555.193-.15.121-.287.26-.43.389-.563.508-1.12 1.024-1.695 1.52-.248.215-.494.4-.392.79.019.071-.06.176-.107.258-.557.965-.674 1.941-.087 2.94.356.607.306 1.182-.053 1.792a10.433 10.433 0 0 0-.842 1.79c-.34.952-.204 1.86.5 2.623.279.303.384.62.313.986-1.56.499-3.374.311-4.815-.06 0-.439-.088-.874-.26-1.278-.36-.842-.312-1.597.125-2.366a2.42 2.42 0 0 0 .17-.421c.169-.488.184-.979-.029-1.455-.165-.379-.35-.748-.555-1.107-.299-.505-.457-1.034-.37-1.62.06-.407.12-.818.22-1.216.169-.68.007-1.036-.619-1.323a7.889 7.889 0 0 1-.836-.452c-.588-.359-1.167-.734-1.755-1.095-.217-.134-.46-.25-.666.007-.145.18-.035.434.272.645.559.381 1.124.752 1.685 1.128.225.15.447.303.69.467-.608.5-1.185.968-1.758 1.444-.19.158-.412.304-.538.506-.091.146-.132.45-.044.552.15.174.157.298.123.503-.033.218-.018.44.044.65.093.303.212.596.358.877.34.685.337 1.345-.062 2.01-.183.304-.341.624-.494.946-.376-.39-.723-.807-1.039-1.248-1.302-1.845-1.595-4.496-.895-6.92a7.86 7.86 0 0 1 4.486-5.032c2.796-1.162 5.6-1.367 8.335.373.5.318 1.833 1.396 2.043 1.558l.014.01.01.012c1.067 1.132 2.29 3.201 2.263 5.328a10.93 10.93 0 0 1-.366 2.693Z"></path>
</svg>