<svg width="46" height="46" fill="currentColor" viewBox="0 0 24 24" xmlns="http://www.w3.org/2000/svg">
  <path d="M6.72 9.177c1.276.613 2.517 1.167 3.715 1.803.556.295.978.271 1.525-.026 2.554-1.384 5.133-2.722 7.704-4.075.13-.073.265-.136.405-.19a.513.513 0 0 1 .714.558.514.514 0 0 1-.183.313c-.101.09-.214.166-.335.227-1.626.846-3.252 1.69-4.879 2.533-.904.468-1.81.932-2.715 1.399-.095.049-.185.104-.318.18.132.075.227.138.329.188l6.466 3.191c.197.091.385.2.561.327.212.16.269.385.193.577-.083.208-.297.329-.574.275a2.575 2.575 0 0 1-.613-.21c-1.223-.59-2.447-1.177-3.66-1.787-1.189-.598-2.365-1.222-3.545-1.837-.175-.091-.327-.151-.532-.043-1.32.698-2.647 1.383-3.971 2.073a.741.741 0 0 0-.109.097c.137.07.254.128.37.19.978.53 1.344 1.545.922 2.57-.175.425-.435.793-.828 1.036-.737.457-1.532.698-2.405.527-.876-.172-1.63-1.019-1.718-1.905a.846.846 0 0 1 .018-.283c.182-.732.512-1.382 1.146-1.82.439-.297.892-.57 1.358-.82 1.417-.778 2.84-1.542 4.301-2.333a2.885 2.885 0 0 0-.271-.177c-1.472-.733-2.945-1.462-4.42-2.19a5.703 5.703 0 0 0-.605-.237c-.746-.266-1.21-.802-1.46-1.538a1.35 1.35 0 0 1-.026-.764A2.752 2.752 0 0 1 4.848 5.11a2.739 2.739 0 0 1 2.454.123c.988.55 1.332 1.639.84 2.663-.213.462-.572.84-1.022 1.076-.118.063-.237.122-.4.205ZM5.467 18.03c.162-.011.271-.01.378-.028.532-.094 1.029-.256 1.332-.755.309-.507.228-1.04-.207-1.386-.878-.698-2.004-.409-2.501.582-.381.76.231 1.678.998 1.587Zm.108-9.733c.095-.002.19-.01.284-.023.517-.095 1.002-.252 1.305-.731.369-.584.222-1.188-.375-1.528a1.798 1.798 0 0 0-.973-.25c-.933.04-1.312.517-1.46 1.439-.098.61.488 1.106 1.219 1.093Z"></path>
</svg>