<svg width="46" height="46" fill="currentColor" viewBox="0 0 24 24" xmlns="http://www.w3.org/2000/svg">
  <path d="M14.267 3.51c-.06-.129-.12-.257-.177-.386-.118-.264-.337-.451-.69-.588a.387.387 0 0 0-.32-.006.349.349 0 0 0-.171.238 2.1 2.1 0 0 0-.062.505c-.006.411-.01.822-.012 1.233-.005.69-.01 1.402-.032 2.102-.03.996-.07 2.009-.107 2.989a371.53 371.53 0 0 0-.112 3.102c-.052 1.742-.09 3.513-.127 5.225l-.031 1.404c-.01.428-.01.872 0 1.322a.984.984 0 0 0 .1.479c.045.075.21.325.42.37a.396.396 0 0 0 .08.008c.22 0 .37-.198.422-.402a2.35 2.35 0 0 0 .064-.547 429.8 429.8 0 0 0 .01-2.271l.006-1.396c0-.096.006-.19.014-.301l.006-.095c.213 0 .423.002.632.004.547.003 1.064.007 1.59-.01.61-.017.832-.245.853-.871.001-.1-.004-.2-.015-.3l-.007-.08-.038-.427a26.172 26.172 0 0 1-.065-.801l-.018-.29c-.08-1.352-.164-2.75-.474-4.096-.34-1.475-.738-3.033-1.255-4.903a7.921 7.921 0 0 0-.484-1.211Zm1.35 11.918h-2.028c-.019-1.295.02-2.646.058-3.953.017-.576.034-1.171.046-1.758l.082-4.044.025-1.254c.953 3.234 1.87 7.024 1.816 11.009Z"></path>
  <path d="M8.252 5.687a19.93 19.93 0 0 1-.087-1.237 41.489 41.489 0 0 0-.044-.804 15.15 15.15 0 0 0-.06-.792.345.345 0 0 0-.227-.265c-.101-.02-.197.087-.275.173a.344.344 0 0 0-.071.207l-.026.798c-.026.723-.052 1.47-.046 2.207a1.78 1.78 0 0 0 .667 1.36c.206.16.428.3.662.416.096.053.196.107.296.166l-.033.843a52.575 52.575 0 0 0-.059 2.003c-.008 2.404-.007 4.85-.005 7.214a7712.642 7712.642 0 0 1 0 2.769c0 .093-.002.19.006.286.027.337.217.56.474.56h.015c.269-.009.445-.24.449-.59.002-.193-.004-.387-.01-.575-.004-.163-.009-.332-.008-.497.004-2.118.01-4.236.017-6.354l.004-1.682.002-.822c.001-.73.003-1.485.01-2.227.002-.241.019-.487.034-.724l.017-.279c.822-.296 1.312-.891 1.586-1.921.263-.99.273-1.972.249-2.803v-.03c-.002-.087-.005-.197-.069-.262-.114-.118-.249-.244-.396-.252-.14-.008-.3.161-.36.286a.742.742 0 0 0-.054.31 1.212 1.212 0 0 1-.007.122c-.02.205-.039.41-.057.616-.043.482-.088.98-.17 1.463-.052.312-.186.622-.315.921l-.076.177a.5.5 0 0 1-.28.284l-.001-.135c-.002-.163-.003-.317.002-.47.005-.145.01-.29.017-.435.033-.832.067-1.692-.062-2.54a.964.964 0 0 0-.116-.38.371.371 0 0 0-.317-.13c-.12.013-.201.182-.216.215a.373.373 0 0 0-.02.175c.001.02.003.04.002.06l-.029.801c-.025.722-.052 1.468-.084 2.201a6.28 6.28 0 0 1-.056.54l-.022.167c-.509-.202-.788-.574-.851-1.134Z"></path>
</svg>