<svg width="46" height="46" fill="currentColor" viewBox="0 0 24 24" xmlns="http://www.w3.org/2000/svg">
  <path d="m6.553 18.627.313-.025c.216-.018.439-.037.657-.039.5-.004 1.007.004 1.499.012l.378.006a.447.447 0 0 1 .096.016 4.897 4.897 0 0 1-.776 1.55c-.171.235-.337.318-.571.287a1.415 1.415 0 0 0-.474.026.426.426 0 0 0-.345.383c-.014.12.019.285.256.4.105.053.217.09.333.106l.27.035c.337.043.686.089 1.032.102a59.9 59.9 0 0 0 1.519.029c.297.003.595.006.892.011.074.005.148.016.22.034.037.008.074.016.111.022l.014.002h1.962l.021-.003.074-.023a.5.5 0 0 1 .13-.032c.112-.005.228-.005.34-.006a5.43 5.43 0 0 0 .604-.025c.251-.024.497-.091.724-.2a.416.416 0 0 0 .255-.349.428.428 0 0 0-.24-.368 1.263 1.263 0 0 0-.448-.142 1.708 1.708 0 0 0-.322-.01 5.353 5.353 0 0 1-.08.003 11.05 11.05 0 0 0-.245-.582c-.166-.375-.323-.732-.407-1.136h.344c.367 0 .715 0 1.063.002.09 0 .182.009.271.016.058.005.115.01.173.013.079.005.157.01.236.017.194.02.39.026.585.02.43-.023.86-.075 1.26-.126.411-.053.882-.13 1.277-.368 1.418-.854 2.117-2.072 2.079-3.623-.024-.948-.027-1.913-.03-2.846l-.002-.455c-.001-.38.003-.767.007-1.142.008-.733.016-1.491-.018-2.237a20.124 20.124 0 0 0-.307-2.591c-.169-.958-.56-1.657-1.196-2.137a4.067 4.067 0 0 0-2.8-.837c-.9.062-1.725.104-2.52.127-.818.024-1.649.02-2.453.018-1.177-.005-2.395-.01-3.593.07-.497.033-1.005.044-1.496.055-.445.01-.906.02-1.358.047-.87.05-1.619.328-2.226.826a3.023 3.023 0 0 0-1.134 2.031 15.293 15.293 0 0 0-.077 1.67v.047c-.003.228.013.458.028.68.011.178.023.361.027.54.027 1.592.051 3.275.076 5.299 0 .092-.007.184-.019.275a2.553 2.553 0 0 0-.02.29c.001.15.01.302.018.448.01.173.02.352.018.527-.007.638.204 1.253.629 1.828.776 1.047 1.908 1.53 3.366 1.432Zm14.015-7.05v.835c.001.831.002 1.691-.004 2.537a1.958 1.958 0 0 1-.085.535c-.127.434-.34.838-.623 1.19-.43.533-1.022.852-1.806.974-.437.067-.897.118-1.409.155a2.342 2.342 0 0 1-.41-.02c-.089-.01-.18-.02-.271-.023-.347-.014-.694-.024-1.04-.034-.663-.02-1.347-.039-2.018-.083-.974-.064-1.96-.08-2.933-.08-.488 0-.972.005-1.451.008-.72.006-1.464.012-2.195.005-.538-.006-.968-.091-1.352-.27a2.284 2.284 0 0 1-1.223-1.325c-.211-.57-.282-1.092-.218-1.596.015-.148.02-.296.015-.444v-.137l.002-1.11c.004-.987.007-2.007 0-3.01-.003-.394-.017-.792-.03-1.178a36.112 36.112 0 0 1-.03-1.386 4.524 4.524 0 0 1 .44-1.966c.309-.64.868-1.04 1.662-1.19.466-.087.93-.134 1.323-.17 1.71-.15 3.455-.164 5.142-.179l1.135-.01a674.98 674.98 0 0 1 1.61-.018c.85-.009 1.73-.018 2.596-.031.604-.011 1.197.18 1.867.596.384.238.653.631.799 1.169.116.43.2.879.282 1.313l.043.23c.054.284.1.597.142.958.025.226.037.454.037.682.003.748.004 1.497.002 2.246v.827ZM10.029 20.24c.109-.217.203-.44.283-.67.069-.229.122-.462.16-.698l.048-.25 2.758.047c.045.647.246 1.219.467 1.742H9.949l.08-.17Z"></path>
  <path d="M17.734 6.553c-.181-.12-.349-.004-.429.051a2.44 2.44 0 0 0-.418.347c-.385.42-.77.854-1.143 1.274l-.293.328-.726.817-1.46 1.637a4.56 4.56 0 0 1-.287.286l-.1.095-.207-.156c-.185-.14-.36-.273-.544-.399l-.074-.051c-.503-.345-1.023-.702-1.546-1.033-.486-.307-.78-.264-1.166.174-.163.185-.34.377-.574.625l-1.363 1.44-1.847 1.95c-.103.111-.2.228-.29.35a.327.327 0 0 0 .046.472c.06.06.141.096.226.098a.375.375 0 0 0 .248-.107c.142-.127.277-.265.41-.4l1.107-1.133 2.186-2.232c.12-.123.253-.24.381-.352l.135-.12.046.028c.06.036.112.066.159.101l.456.332c.57.416 1.16.846 1.734 1.275.435.325.726.32 1.112-.022a6.9 6.9 0 0 0 .58-.58 347.164 347.164 0 0 0 2.548-2.895c.307-.353.614-.738.916-1.146.126-.183.225-.382.297-.593.073-.195.03-.363-.12-.461Z"></path>
</svg>