<svg width="46" height="46" fill="currentColor" viewBox="0 0 24 24" xmlns="http://www.w3.org/2000/svg">
  <path d="M21.519 15.864c-.05.3-.115.598-.195.891-.083.27-.257.317-.547.26a2.254 2.254 0 0 0-.522-.04c-1.18.046-2.36.12-3.542.147-1.969.045-3.939.055-5.908.091-1.52.028-3.041.067-4.562.116-.787.025-1.572.085-2.36.125-.19.008-.38.006-.57-.005-.53-.029-.735-.22-.74-.756-.01-.366.02-.732.09-1.092.693-3.27 2.254-6.014 5.191-7.731 2.971-1.737 6.091-1.786 9.195-.26 1.205.593 2.137 1.516 2.915 2.604.929 1.3 1.358 2.758 1.451 4.332.023.38.06.757.104 1.318Zm-8.64-.962c.965-.743 1.878-1.447 2.795-2.146.108-.082.226-.15.351-.203.246-.106.46-.061.592.107a.456.456 0 0 1-.05.595c-.148.158-.312.3-.489.425-.766.562-1.538 1.117-2.306 1.676a1.73 1.73 0 0 0-.18.168l.241.816 6.567-.28c.055-.467-.105-1.996-.253-2.43l-.6.226c-.293.11-.58.234-.879.322a.498.498 0 0 1-.608-.28c-.094-.22-.027-.436.199-.601a1.54 1.54 0 0 1 .282-.16c.308-.142.619-.277.928-.417.156-.07.31-.144.481-.224-.494-1.229-1.155-2.298-2.16-3.171-.23.32-.44.62-.657.913a1.804 1.804 0 0 1-.295.333c-.214.173-.429.182-.6.054-.17-.127-.226-.393-.096-.628.093-.149.202-.288.325-.413.223-.25.452-.492.708-.769-1.461-.904-2.977-1.342-4.675-1.318.056.465.116.88.151 1.296a1.97 1.97 0 0 1-.034.558c-.05.237-.224.367-.464.39a.507.507 0 0 1-.532-.358 1.564 1.564 0 0 1-.067-.476c-.009-.43-.003-.859-.003-1.333-1.729.245-3.204.874-4.52 2.004.252.23.468.412.667.613.137.128.252.276.343.44a.408.408 0 0 1-.124.514c-.158.13-.345.179-.529.064a1.972 1.972 0 0 1-.372-.308c-.211-.22-.409-.455-.625-.698a12.006 12.006 0 0 0-2.099 3.206c.16.064.294.12.43.172.254.097.514.18.76.29a.942.942 0 0 1 .352.26c.188.244.068.542-.236.575a1.075 1.075 0 0 1-.503-.096c-.36-.151-.71-.33-1.086-.51-.327.852-.575 1.684-.631 2.594l6.982-.375c.41-1.366 1.569-1.709 2.518-1.417Zm-.084 1.406c-.077-.527-.292-.695-.762-.601a1.197 1.197 0 0 0-.84.6h1.602Z"></path>
</svg>