<svg width="46" height="46" fill="currentColor" viewBox="0 0 24 24" xmlns="http://www.w3.org/2000/svg">
  <path d="m20.664 3.569.085-.016c.098-.02.19-.037.281-.059a.446.446 0 0 0 .034-.866 2.009 2.009 0 0 0-.583-.084c-.495.012-.997.03-1.484.046-.66.023-1.344.047-2.016.057-3.039.047-6.358.09-10.148.13-.838.01-1.69-.012-2.442-.03-.24-.006-.483-.025-.72-.044a23.661 23.661 0 0 0-.454-.033c-.324-.018-.45.159-.497.311-.07.228.031.445.265.567.07.034.14.065.213.091l.045.017v.457c.002.356.003.725-.001 1.085-.01.994-.032 2.005-.053 2.983-.061 2.763-.124 5.62.087 8.43.035.471.187.637.625.683a9.01 9.01 0 0 0 1.108.058c1.065-.024 2.149-.055 3.196-.085l1.285-.037c.06-.002.122-.002.2-.001l-.076.092a8.358 8.358 0 0 0-.298.38c-.557.77-1.187 1.644-1.8 2.517a1.996 1.996 0 0 0-.247.536.516.516 0 0 0 .202.594.496.496 0 0 0 .299.098.604.604 0 0 0 .368-.133c.1-.08.19-.174.268-.277.8-1.03 1.599-2.061 2.409-3.107l.58-.75 2.202-.072.436.697 1.068 1.705.184.295c.216.346.439.704.676 1.045.132.185.3.34.495.459a.576.576 0 0 0 .707-.052.618.618 0 0 0 .177-.721 2.846 2.846 0 0 0-.274-.515c-.43-.643-.863-1.284-1.297-1.925l-.639-.945a.378.378 0 0 1-.025-.044 1.12 1.12 0 0 1 .1-.008l1.182-.021c.909-.016 1.848-.032 2.773-.058a5.73 5.73 0 0 0 .69-.075c.12-.018.243-.037.363-.05.313-.036.504-.23.57-.577.023-.147.032-.295.027-.444v-.018l-.002-1.689c0-1.45 0-2.951-.018-4.427-.016-1.32-.05-2.663-.082-3.962l-.044-1.826a10.564 10.564 0 0 1 0-.382ZM4.584 16.126l-.006-.002-.005-.03a1.464 1.464 0 0 1-.021-.175c-.015-.39-.032-.779-.05-1.168-.04-.924-.082-1.88-.097-2.82-.021-1.387-.03-2.798-.037-4.163-.005-.879-.01-1.788-.019-2.682a15.85 15.85 0 0 0-.045-.928L4.28 3.77c4.068.135 8.191.048 12.18-.037 1.008-.021 2.049-.043 3.077-.062v12.072a179.58 179.58 0 0 0-14.896.393.281.281 0 0 1-.056-.01Z"></path>
  <path d="M18.46 6.193c.128-.14.219-.31.263-.495a.521.521 0 0 0-.558-.654.967.967 0 0 0-.447.17 4.744 4.744 0 0 0-.498.414l-.04.038-3.592 3.277-1.078.984h-.003c-.407-.47-.905-.84-1.387-1.198a16.48 16.48 0 0 1-.719-.554c-.321-.267-.56-.274-.913-.028a2.939 2.939 0 0 0-.522.477c-.343.392-.688.794-1.022 1.183-.271.316-.543.63-.815.945-.255.293-.511.585-.77.875-.33.375-.672.762-1.004 1.148a1.76 1.76 0 0 0-.33.54.522.522 0 0 0 .097.444.326.326 0 0 0 .255.117.497.497 0 0 0 .262-.083.917.917 0 0 0 .171-.143l.286-.3c1.003-1.052 2.04-2.14 3.058-3.213.17-.178.334-.366.51-.565l.214-.243.367.387c.364.385.708.748 1.065 1.11.167.169.356.315.562.433.283.16.553.161.781.004.183-.123.359-.255.528-.395l.524-.449a496.65 496.65 0 0 0 3.46-2.98 23.1 23.1 0 0 0 1.296-1.246Z"></path>
</svg>