<svg width="46" height="46" fill="currentColor" viewBox="0 0 24 24" xmlns="http://www.w3.org/2000/svg">
  <path d="M6.067 7.32c-.268-.043-.49-.068-.706-.115-.388-.085-.587-.273-.592-.539-.005-.28.202-.518.604-.569.573-.073 1.154-.093 1.733-.122.313-.016.627-.003.989-.003-.053-.242-.09-.431-.135-.618a1.545 1.545 0 0 1 .14-1.11c.245-.471.62-.758 1.153-.776.975-.033 1.95-.05 2.927-.055.646-.003 1.292.027 1.938.042.092.003.184.002.276.01.66.048 1.08.386 1.232 1.032.069.292.078.599.108.9.016.155.02.311.032.49.106.016.213.026.321.03.712-.02 1.423-.05 2.135-.066.183-.007.367.011.545.055a.684.684 0 0 1 .527.623.744.744 0 0 1-.373.77c-.11.067-.232.117-.37.185 0 .384-.012.765.003 1.144.09 2.251.215 4.502.131 6.756a24.5 24.5 0 0 1-.197 2.44c-.062.449-.242.886-.407 1.313a1.464 1.464 0 0 1-.918.875 7.37 7.37 0 0 1-1.183.299 9.736 9.736 0 0 1-1.104.078c-1.435.071-2.87.155-4.306.202-.606.026-1.212 0-1.813-.078-1.546-.218-2.387-1.07-2.631-2.617a8.712 8.712 0 0 1-.12-1.297c-.017-2.49-.023-4.98-.019-7.47.001-.592.05-1.183.08-1.809Zm1.184.097c.07 1.229.124 7.247.266 9.06.042.534.165 1.063.27 1.59.105.527.46.833.97.915.57.092 1.15.18 1.726.177 1.436-.011 2.873-.06 4.308-.125.55-.025 1.097-.129 1.643-.209a.476.476 0 0 0 .408-.381c.076-.306.174-.61.21-.921.207-1.786.165-3.578.11-5.369-.043-1.409-.094-2.817-.141-4.226a15.394 15.394 0 0 0-.02-.364c-3.36-.05-6.361-.098-9.75-.147Zm2.114-1.473c1.657.06 3.28.057 4.915-.02V4.83c-1.653-.055-3.274-.115-4.915.046v1.069Z"></path>
  <path d="M14.72 12.889a96.116 96.116 0 0 0-.097-2.547v-.016a548.15 548.15 0 0 1-.042-.907 1.213 1.213 0 0 0-.06-.31c-.072-.23-.236-.351-.448-.331-.128.01-.35.077-.389.4a1.62 1.62 0 0 0-.01.174 505.136 505.136 0 0 1-.109 4.55c-.018.834-.036 1.696-.049 2.55-.006.236.015.47.063.701a.528.528 0 0 0 .572.426.518.518 0 0 0 .498-.448 4.97 4.97 0 0 0 .072-.766l.004-.589c.007-.946.014-1.924-.005-2.887Z"></path>
  <path d="M10.482 8.834a.487.487 0 0 0-.403.209.997.997 0 0 0-.126.446l-.042.64c-.05.746-.1 1.518-.123 2.28-.031 1.082-.042 2.183-.053 3.247l-.01.977c0 .134.018.266.055.395.087.306.295.496.543.496h.008c.26-.005.468-.21.529-.523.03-.166.043-.335.038-.503-.014-.865-.03-1.73-.047-2.55l-.014-.744.017-.882c.018-.955.035-1.858.048-2.766a1.137 1.137 0 0 0-.066-.448.474.474 0 0 0-.354-.274Z"></path>
</svg>