<svg width="46" height="46" fill="currentColor" viewBox="0 0 24 24" xmlns="http://www.w3.org/2000/svg">
  <path d="M1.507 9.712c.143.178.29.362.424.548 2 2.772 4.226 5.482 6.38 8.102.718.874 1.46 1.777 2.184 2.67.23.285.447.428.68.45a.704.704 0 0 0 .063.003c.21 0 .43-.097.69-.299a9.852 9.852 0 0 0 1.224-1.179 3540.52 3540.52 0 0 0 8.211-9.18c.268-.301.53-.613.785-.913.231-.275.47-.558.713-.832.278-.315.291-.629.039-.933a6.633 6.633 0 0 0-.472-.51l-1.155-1.124-1.171-1.14c-.16-.157-.32-.32-.475-.477a24.967 24.967 0 0 0-.564-.563 73.12 73.12 0 0 0-1.58-1.486.997.997 0 0 0-.45-.214 3.248 3.248 0 0 0-.64-.05c-.811-.003-1.622-.003-2.302-.002h-.604l-1.762.069c-1.598.062-3.108.122-4.6.176-.35.012-.734.06-.864.458a.242.242 0 0 1-.062.069 35.674 35.674 0 0 0-4.808 4.893 2.215 2.215 0 0 0-.33.59.394.394 0 0 0 .045.359c.128.175.267.348.401.515Zm19.2-.219-.012.015c-.073.09-.136.169-.206.244-.283.304-.567.608-.853.91-.55.585-1.12 1.19-1.662 1.796a929.922 929.922 0 0 0-3.8 4.287 2608.071 2608.071 0 0 1-1.62 1.832c.065-.16.133-.324.202-.485l1.043-2.405 2.369-5.472a4.04 4.04 0 0 0 .163-.507c.018-.07.038-.14.06-.215h4.316Zm-5.823-.002-3.723 8.9a97.283 97.283 0 0 0-.959-3.045c-.612-1.872-1.244-3.807-1.641-5.774l6.323-.08Zm-2.017-5.799c.65-.02 1.306-.019 1.942-.018.638.001 1.297.002 1.95-.018l4.14 4.621-4.83.083h-.06l-3.142-4.668ZM8.707 8.45c.876-1.499 1.988-2.767 3.243-4.135l2.27 4.032-5.513.103ZM6.951 9.605c.5 2.055 1.191 4.09 1.86 6.057.195.572.395 1.16.589 1.745-1.437-1.604-2.754-3.304-4.031-4.95A156.957 156.957 0 0 0 3.127 9.61c.66-.064 2.938-.07 3.824-.006ZM9.75 3.761l.888-.007c.028 0 .055 0 .09.003C9.524 5.1 8.191 6.675 7.318 8.472H2.56a.956.956 0 0 1 .096-.115 981.44 981.44 0 0 1 3.08-3.034c.252-.247.512-.496.764-.736.235-.225.47-.45.703-.677a.38.38 0 0 1 .145-.103.458.458 0 0 1 .186-.034c.739 0 1.49-.007 2.216-.013Z"></path>
</svg>