<svg width="46" height="46" fill="currentColor" viewBox="0 0 24 24" xmlns="http://www.w3.org/2000/svg">
  <path d="M20.628 16.307h-.711l-.018-.114c-.018-.112-.034-.21-.047-.308-.218-1.573-.637-2.926-1.281-4.133-1.051-1.97-2.644-3.242-4.735-3.783-.216-.056-.437-.107-.651-.157l-.243-.056.001-.073c.001-.091.003-.177-.002-.263-.018-.304-.092-.503-.232-.627-.14-.125-.344-.173-.644-.154a14.64 14.64 0 0 0-1.154.124c-.329.047-.557.108-.678.271-.121.163-.115.408-.064.748l-.007.015-.003.005-.087.02-.296.07c-2.236.528-3.837 1.776-4.76 3.71-.784 1.646-1.15 3.411-1.403 4.93l-.202.02c-.225.024-.449.047-.673.073a.37.37 0 0 0-.273.142.268.268 0 0 0-.032.23.46.46 0 0 0 .299.278c.155.035.314.05.473.045h.08a715.66 715.66 0 0 0 7.24-.064c1.548-.02 3.148-.04 4.722-.047a239.95 239.95 0 0 1 3.61.02c.598.007 1.195.012 1.792.017.43.004.828-.05.837-.45a.39.39 0 0 0-.106-.296c-.127-.13-.366-.192-.752-.193Zm-1.943-.091v.001l-14.156.276.01-.081a2.48 2.48 0 0 1 .066-.364c.054-.19.108-.381.16-.572.275-.978.558-1.99.965-2.944.84-1.971 2.264-3.15 4.354-3.6a7.23 7.23 0 0 1 4.729.557c1.065.508 1.93 1.34 2.569 2.47.659 1.164 1.084 2.506 1.3 4.104a.91.91 0 0 1 .003.152ZM11 7.68a4.58 4.58 0 0 1 1.017-.109.861.861 0 0 1 .073.109H11Z"></path>
</svg>