<svg width="46" height="46" fill="currentColor" viewBox="0 0 24 24" xmlns="http://www.w3.org/2000/svg">
  <path d="m3.7 11.881.002-5.29a8.306 8.306 0 0 1 .276-2.203c.097-.358.249-.7.45-1.011.457-.707 1.105-1.135 1.941-1.195A77.45 77.45 0 0 1 10.12 2a84.918 84.918 0 0 1 3.757.01c.833.019 1.666.093 2.498.146.234.015.457.1.64.246 1.142.88 2.22 1.827 3.127 2.956.183.213.283.484.282.764-.02 3.759-.035 7.518-.047 11.276-.012.65-.08 1.297-.203 1.935a2.06 2.06 0 0 1-.293.771c-.622.93-1.468 1.524-2.61 1.644-2.492.268-5.004.29-7.5.069-.97-.088-1.951-.083-2.894-.357a8.98 8.98 0 0 1-1.434-.515c-.987-.481-1.557-1.303-1.705-2.387a12.99 12.99 0 0 1-.088-1.666c-.01-1.67-.004-3.341-.004-5.012h.055Zm1.345.114c-.135 1.943-.137 3.888-.14 5.833.007.277.033.554.078.828.136.98.712 1.576 1.64 1.857.09.027.18.05.27.067.636.124 1.268.268 1.92.284 1.342.034 2.684.117 4.026.11A65.385 65.385 0 0 0 17 20.816c1.074-.074 1.768-.714 2.087-1.75.195-.631.2-1.277.2-1.926 0-3.056 0-6.113-.002-9.17 0-.37-.013-.74-.026-1.11a.398.398 0 0 0-.355-.357c-.694-.024-1.388-.03-2.08-.072a3.354 3.354 0 0 1-.807-.172.536.536 0 0 1-.343-.407 2.618 2.618 0 0 1-.061-.55c-.005-.602.003-1.204.004-1.805a.4.4 0 0 0-.346-.363c-.045-.003-.09-.018-.137-.018-2.221-.032-4.443-.066-6.665-.088a7.932 7.932 0 0 0-1.247.07c-.41.064-.815.164-1.207.3-.413.14-.694.452-.862.855a2.015 2.015 0 0 0-.17 1.082A9.7 9.7 0 0 1 5.1 6.717c-.005 1.76-.035 3.52-.055 5.279Zm11.85-7.861c-.069.35-.095.707-.078 1.064-.025.159.162.272.273.272.392 0 .726-.004 1.087-.013.023 0 .058-.053.063-.085a.188.188 0 0 0-.022-.13c-.337-.432-.715-.822-1.19-1.106-.03-.019-.092-.043-.133-.002Z"></path>
  <path d="M11.85 14.079c.925-.019 1.85-.047 2.773-.051.415-.003.83.035 1.244.07.138.012.273.05.396.114a.352.352 0 0 1 .22.322c-.002.117-.125.29-.229.31a3.214 3.214 0 0 1-.54.093c-2.08.04-4.16.078-6.239.098a12.233 12.233 0 0 1-1.38-.1c-.132-.014-.258-.092-.385-.143-.112-.045-.202-.237-.147-.348.039-.08.086-.2.15-.215.264-.075.536-.12.81-.134 1.11-.015 2.219-.006 3.328-.006v-.01Z"></path>
</svg>