<svg width="46" height="46" fill="currentColor" viewBox="0 0 24 24" xmlns="http://www.w3.org/2000/svg">
  <path d="M20.36 12.082c0 1.764-.01 3.527.005 5.29-.007.65-.073 1.298-.197 1.936a2.13 2.13 0 0 1-.286.774c-.608.942-1.453 1.54-2.59 1.663-2.484.273-4.99.298-7.48.075-.967-.087-1.944-.092-2.887-.353a8.574 8.574 0 0 1-1.31-.442c-1.094-.503-1.72-1.375-1.866-2.576a9.005 9.005 0 0 1-.068-1.111c.013-3.62.037-7.24.05-10.86a8.636 8.636 0 0 1 .309-2.197c.132-.496.387-.95.742-1.32a2.487 2.487 0 0 1 1.722-.795C7.752 2.103 9 2.027 10.247 2a81.64 81.64 0 0 1 3.608.011c.832.019 1.663.078 2.492.15.23.02.45.1.638.233 1.152.863 2.22 1.82 3.131 2.943.206.253.31.573.295.899-.025 1.763-.035 3.526-.05 5.29v.556h-.001Zm-15.286-.057c-.131 1.943-.14 3.887-.143 5.832.007.418.07.832.189 1.232a1.777 1.777 0 0 0 .922 1.157c.242.135.5.237.769.306.63.139 1.261.272 1.912.308 2.535.154 5.078.158 7.614.013.323-.02.646-.043.965-.091.367-.06.71-.224.987-.473.352-.303.615-.697.76-1.139.227-.673.23-1.365.23-2.06l-.002-9.032c0-.37-.001-.741-.01-1.111-.008-.317-.183-.473-.538-.483-.646-.02-1.293-.023-1.938-.053a2.982 2.982 0 0 1-.675-.127.606.606 0 0 1-.447-.483 3.938 3.938 0 0 1-.059-.69c-.006-.554.001-1.11.004-1.664 0-.099-.152-.3-.235-.311a2.089 2.089 0 0 0-.273-.041 3095.14 3095.14 0 0 0-6.648-.088c-.369-.004-.738.034-1.107.051-.468.022-.91.16-1.34.326-.306.118-.56.34-.716.63-.203.368-.342.756-.294 1.191.05.46.124.922.124 1.383-.004 1.805-.032 3.61-.051 5.417Zm11.843-7.906a.813.813 0 0 0-.106.237 6.98 6.98 0 0 0-.026.683.423.423 0 0 0 .41.447c.316.005.633-.007.95-.018a.12.12 0 0 0 .083-.072.17.17 0 0 0-.006-.133 4.65 4.65 0 0 0-1.171-1.124c-.034-.023-.089-.014-.134-.02Z"></path>
  <path d="M9.995 13.255c.46 0 .921.004 1.382-.002a.411.411 0 0 0 .364-.35c.03-.6.046-1.202.082-1.801a2.52 2.52 0 0 1 .11-.678.343.343 0 0 1 .64-.033c.072.17.112.35.117.535.035.46.05.923.078 1.385.008.138.029.276.048.413.044.327.232.522.535.52.46-.003.921-.032 1.381-.036.367-.004.74-.012 1.077.167.058.032.08.148.1.23a.153.153 0 0 1-.04.128.532.532 0 0 1-.232.14 8.939 8.939 0 0 1-.824.071c-.507.022-1.014.029-1.52.05a.48.48 0 0 0-.43.46c-.04.693-.067 1.385-.108 2.078-.014.228-.055.456-.09.683-.022.15-.271.33-.408.308-.149-.025-.363-.218-.381-.361-.03-.228-.064-.457-.072-.686-.024-.693-.035-1.386-.057-2.08a.41.41 0 0 0-.347-.368c-.552-.029-1.105-.049-1.657-.079-.367-.02-.734-.047-1.101-.08-.19-.017-.405-.243-.346-.357a.36.36 0 0 1 .318-.212c.46-.004.92 0 1.38 0l.001-.045Z"></path>
</svg>