<svg width="46" height="46" fill="currentColor" viewBox="0 0 24 24" xmlns="http://www.w3.org/2000/svg">
  <path d="M20.414 12.25c0 1.81.006 3.62-.003 5.43.002.464-.026.927-.085 1.387-.123.874-.58 1.554-1.316 2.045a3.875 3.875 0 0 1-1.811.66 39.76 39.76 0 0 1-7.397.045c-.975-.085-1.96-.088-2.908-.357-.494-.13-.976-.3-1.442-.509-.896-.423-1.437-1.144-1.647-2.117a7.61 7.61 0 0 1-.203-1.653c.015-3.11.026-6.218.032-9.328a21.1 21.1 0 0 1 .214-2.773c.053-.414.16-.82.32-1.205C4.6 2.852 5.37 2.234 6.51 2.168c1.256-.073 2.513-.139 3.77-.167a75.127 75.127 0 0 1 3.495.01c.883.022 1.766.096 2.65.15a1.2 1.2 0 0 1 .643.24 18.624 18.624 0 0 1 3.066 2.835c.261.3.333.638.327 1.029-.032 1.995-.045 3.99-.064 5.985h.017Zm-7.734 8.76c1.166-.042 2.468-.087 3.77-.139.28-.01.558-.034.834-.072.418-.06.808-.244 1.117-.53.468-.418.782-.925.837-1.553.054-.599.07-1.202.087-1.803.032-1.112.055-2.223.077-3.334.01-.51.057-1.024.006-1.527-.126-1.25-.078-2.5-.082-3.75a51.035 51.035 0 0 0-.023-1.39c-.006-.228-.211-.406-.47-.415-.604-.02-1.21-.025-1.813-.055a5.785 5.785 0 0 1-.827-.11c-.244-.048-.5-.348-.527-.594a5.249 5.249 0 0 1-.04-.553c-.003-.556.004-1.111.003-1.667a.42.42 0 0 0-.34-.378c-.139-.013-.278-.029-.417-.031-1.722-.03-3.443-.064-5.165-.082-.697-.007-1.395.021-2.093.034a4.33 4.33 0 0 0-1.497.306c-.665.26-1.043.755-1.105 1.468a4.87 4.87 0 0 0 .007.694c.084 1.529.053 3.057.023 4.587a605.521 605.521 0 0 0-.092 7.089c-.009.556.023 1.112.094 1.663a1.775 1.775 0 0 0 1.023 1.405c.293.14.6.248.918.318.678.163 1.372.26 2.07.288 1.163.033 2.325.083 3.625.131Zm4.833-15.49c.223-.012.407-.01.584-.037.066-.01.129-.085.176-.144a.139.139 0 0 0-.02-.124c-.329-.43-.731-.8-1.189-1.09a.256.256 0 0 0-.202.056c-.017.357-.025.715-.012 1.072a.273.273 0 0 0 .169.192c.163.037.328.062.494.075Z"></path>
  <path d="M11.939 8.862c1.35.018 2.7.035 4.05.057.326.002.651.022.975.058.182.035.359.09.527.165.14.052.301.305.297.443-.005.136-.192.384-.315.432-.441.173-.903.207-1.37.214-.931.014-1.863.048-2.793.032-1.21-.022-2.418-.084-3.628-.132a159.58 159.58 0 0 1-2.231-.102 1.017 1.017 0 0 1-.643-.236.446.446 0 0 1-.178-.358c.008-.16.153-.401.295-.427.225-.051.454-.082.684-.094 1.444-.008 2.887-.004 4.33-.004v-.048Z"></path>
  <path d="M12.374 12.35c-1.283-.034-2.54-.06-3.796-.103a10.409 10.409 0 0 1-1.247-.125 1.435 1.435 0 0 1-.499-.223.307.307 0 0 1-.014-.467.867.867 0 0 1 .371-.166 7.69 7.69 0 0 1 .972-.079c1.909-.018 3.818-.057 5.726-.026 1.114.018 2.227.152 3.34.24.09.017.18.047.263.088.123.044.292.338.236.456-.057.117-.138.254-.246.309-.383.195-.809.201-1.228.2-1.302-.006-2.607.093-3.877-.105Z"></path>
  <path d="M12.125 13.585c1.351.018 2.703.034 4.054.056.28.002.558.021.835.058.132.018.257.101.38.165.132.068.266.356.2.478-.061.117-.153.25-.265.3-.17.073-.353.112-.538.114-1.165.029-2.33.064-3.495.06a74.153 74.153 0 0 1-3.494-.082c-.836-.042-1.669-.151-2.502-.245a.71.71 0 0 1-.373-.164.814.814 0 0 1-.19-.347c-.03-.086.14-.307.226-.318a7.02 7.02 0 0 1 .827-.09c1.445-.008 2.89-.004 4.334-.004v.019Z"></path>
  <path d="M10.638 17.093c-.97-.035-1.94-.067-2.91-.108-.327 0-.645-.097-.916-.278a.532.532 0 0 1-.228-.471c.003-.161.174-.359.321-.417.4-.156.815-.147 1.232-.129 1.2.051 2.403.09 3.602.165.737.047 1.47.152 2.204.236.09.02.178.047.264.081.082.025.25.244.215.326-.05.12-.112.267-.213.325a1.24 1.24 0 0 1-.521.151c-.692.045-1.385.072-2.078.096-.324.01-.648.002-.971.002v.02Z"></path>
  <path d="M8.774 7.524c-.452-.029-.965-.045-1.473-.1a2.42 2.42 0 0 1-.663-.199.37.37 0 0 1-.222-.324c-.01-.155.15-.395.29-.43.044-.015.089-.028.134-.037 1.113-.117 2.227-.168 3.343-.042.092.012.182.04.265.081a.57.57 0 0 1 .324.418c.027.137-.14.394-.284.442a1.786 1.786 0 0 1-.398.114c-.418.035-.837.05-1.316.077Z"></path>
</svg>