<svg width="46" height="46" fill="currentColor" viewBox="0 0 24 24" xmlns="http://www.w3.org/2000/svg">
  <path d="M13.492 17.742c.964-.26 2.065-.607 2.933-1.426.625-.59.922-1.389.817-2.194-.106-.8-.597-1.492-1.348-1.898a4.344 4.344 0 0 0-1.22-.426 18.83 18.83 0 0 0-1.427-.202c-.173-.02-.345-.04-.516-.062V5.787c.8-.052 1.46.041 2.074.291.462.188.663.433.674.82a.273.273 0 0 0 .073.155.58.58 0 0 1 .035.05.083.083 0 0 0 .135.008.838.838 0 0 0 .061-.978.862.862 0 0 0-.243-.255 3.007 3.007 0 0 0-1.012-.496 12.281 12.281 0 0 0-1.278-.217c-.15-.02-.3-.04-.448-.062v-.325c0-.322 0-.65.002-.977 0-.09.006-.183.01-.272a3.3 3.3 0 0 0 .001-.519c-.013-.13-.179-.36-.316-.348a.523.523 0 0 0-.393.28 1.779 1.779 0 0 0-.09.513 128.946 128.946 0 0 0-.114 1.314l-.037.426-.11.021-.333.065c-1.463.27-2.501.786-3.266 1.621-.687.749-.974 1.72-.79 2.661.183.93.803 1.707 1.703 2.133.432.189.88.337 1.34.443.286.074.582.12.868.165l.311.05v4.541c-1.37-.051-2.98-.198-4.594-.845a.083.083 0 0 0-.08.011.306.306 0 0 0-.127.218.495.495 0 0 0 .15.356c.143.158.307.296.486.412.633.406 1.364.662 2.232.784.467.065.93.112 1.42.162l.59.06v.089c-.001.119-.002.241 0 .363.019.726.038 1.503.061 2.267.005.176.015.503.38.538.02.002.04.002.059.002.248 0 .428-.157.497-.44a2.95 2.95 0 0 0 .096-.667c.009-.556.007-1.104.006-1.685l-.001-.606.206-.046c.18-.041.352-.08.523-.126Zm2.379-2.382c-.228.227-.487.42-.768.576-.76.431-1.592.645-2.384.805v-4.286l.064.005c.834.06 1.622.115 2.38.412.439.172.745.434.935.8.316.61.233 1.224-.227 1.688Zm-4.055-9.505-.183 5.6c-.776-.07-1.59-.192-2.32-.562-.61-.308-1.03-.813-1.184-1.422-.157-.62-.024-1.276.374-1.851.65-.937 1.633-1.328 2.51-1.588.18-.053.363-.09.576-.132l.227-.045Z"></path>
</svg>