<svg width="46" height="46" fill="currentColor" viewBox="0 0 24 24" xmlns="http://www.w3.org/2000/svg">
  <path d="M11.215 6.834c0-.388-.002-.772.001-1.156a.685.685 0 0 1 .028-.284c.047-.096.131-.219.221-.241.165-.041.247.093.258.246.019.246.025.494.03.74.006.218.002.435.002.72.187-.01.374-.009.561.004.433.06.868.12 1.293.218a.83.83 0 0 1 .434.289c.073.095.073.286.031.409-.017.05-.236.063-.354.042-.444-.078-.881-.187-1.324-.264-.171-.03-.351-.005-.599-.005l.119 3.477c.26.036.518.085.774.149.523.158 1.07.28 1.55.528 1.023.528 1.442 1.446 1.373 2.566-.098 1.581-1.15 2.624-2.74 2.777-.216.02-.433.035-.635.052 0 .552.006 1.07-.003 1.589 0 .191-.022.381-.065.567-.054.215-.201.367-.438.373-.26.007-.414-.163-.47-.388a2.885 2.885 0 0 1-.06-.651c-.008-.506-.002-1.011-.002-1.539-.686-.115-1.362-.224-2.036-.343a5.986 5.986 0 0 1-.721-.17c-.32-.098-.471-.304-.415-.521.056-.213.229-.285.582-.234.693.1 1.386.204 2.08.3.159.023.321.023.49.034v-4.395c-.417-.076-.804-.11-1.167-.223-.4-.125-.816-.269-1.159-.502-.701-.477-.924-1.292-.602-2.08.453-1.108 1.306-1.732 2.472-1.948.121-.023.243-.046.364-.071a.805.805 0 0 0 .127-.065Zm.948 9.354c.732-.02 1.39-.121 1.954-.54.996-.739.991-2.464-.01-3.16-.625-.435-1.35-.57-2.092-.668a.645.645 0 0 0-.037.148c.06 1.385.12 2.77.185 4.22Zm-1.018-8.52c-.987.122-1.733.56-2.163 1.453-.274.57-.105 1.096.447 1.407.522.294 1.102.372 1.716.41v-3.27Z"></path>
  <path d="M21.761 11.17a10.331 10.331 0 0 0-2.293-5.403c-1.047-1.285-2.174-2.2-3.444-2.798a7.341 7.341 0 0 0-3.177-.728 7.93 7.93 0 0 0-1.01.066c-1.395.181-2.81.586-4.448 1.275-2.218.932-3.762 2.534-4.588 4.76a10.755 10.755 0 0 0-.653 4.798c.174 1.83.614 3.247 1.385 4.46 1.113 1.752 2.515 2.906 4.288 3.526 1.074.377 2.257.566 3.72.596.861 0 1.663-.104 2.439-.205l.146-.02c1.694-.218 3.131-.83 4.397-1.866a8.24 8.24 0 0 0 2.601-3.664c.606-1.718.814-3.288.637-4.798Zm-1.998 5.455c-.958 1.94-2.57 3.213-4.791 3.783a11.33 11.33 0 0 1-.834.17 29.78 29.78 0 0 0-.454.083c-.692.104-1.624.12-2.138.12-.228 0-.375-.003-.379-.003-1.35-.017-2.51-.245-3.548-.7-1.384-.607-2.49-1.63-3.38-3.128-.537-.903-.878-1.973-1.072-3.365a10.271 10.271 0 0 1 .631-5.238c.698-1.77 1.953-3.112 3.73-3.99.411-.203 2.08-.692 2.518-.781a12.235 12.235 0 0 1 1.872-.226c2.489-.06 3.471.341 4.99 1.502 1.592 1.214 2.714 2.741 3.335 4.538.844 2.446.683 4.881-.48 7.235Z"></path>
</svg>