<svg width="46" height="46" fill="currentColor" viewBox="0 0 24 24" xmlns="http://www.w3.org/2000/svg">
  <path d="M18.475 12.607a1.337 1.337 0 0 0-.855-.755 1.475 1.475 0 0 0-1.229.188l-.128.088-.02.014a1.735 1.735 0 0 0-1.21-.972 1.424 1.424 0 0 0-1.266.38c-.186-.288-.437-.582-.869-.668-.41-.082-.733.114-1.046.305l-.018.011-.031-.473a31.658 31.658 0 0 0-.126-1.557c-.062-.657-.127-1.336-.247-1.995-.064-.355-.223-.742-.485-1.18-.153-.256-.352-.409-.591-.455-.228-.044-.486.016-.746.172a1.167 1.167 0 0 0-.541.735 3.073 3.073 0 0 0-.106.616l-.023.469c-.034.683-.07 1.388-.07 2.083.001.91.022 1.803.043 2.748l.024 1.119-.018-.016c-.055-.048-.102-.09-.154-.127-.822-.593-1.696-.8-2.598-.615a1.174 1.174 0 0 0-.952 1.3c.024.201.098.394.215.56.097.134.208.256.332.365.07.066.142.134.206.205.116.129.237.256.355.38.304.3.581.626.828.975.26.412.496.838.708 1.276.118.234.24.476.369.709l.022.04c.305.555.62 1.129.966 1.671.17.254.382.478.627.662a6.056 6.056 0 0 0 1.628.897c.583.225 1.203.34 1.829.34a6.002 6.002 0 0 0 2.106-.403c.459-.171.88-.47 1.307-.787.735-.546 1.235-1.35 1.574-2.532.415-1.431.59-2.921.52-4.41a3.97 3.97 0 0 0-.33-1.363Zm-8.11 7.48a1.455 1.455 0 0 1-.372-.359c-.249-.36-.48-.732-.692-1.115a43.179 43.179 0 0 1-.948-1.87c-.507-1.059-1.142-1.875-1.942-2.495a.284.284 0 0 1-.027-.023 4.15 4.15 0 0 0-.077-.075c-.17-.166-.33-.322-.23-.578.096-.245.339-.288.575-.288h.05c.79.018 1.4.296 1.812.827.12.177.21.371.27.576l.04.114c.06.168.142.398.423.39.217-.005.362-.145.418-.405.022-.11.032-.222.03-.335-.017-.907-.038-1.982-.064-3.088a23.918 23.918 0 0 0-.024-.602c-.016-.342-.033-.696-.024-1.043.026-1.03.084-2.057.132-2.837.028-.452.105-.565.509-.719.25.178.408.46.48.86.105.564.18 1.134.22 1.706.059.856.102 1.728.144 2.571l.058 1.129c.01.19.056.417.328.475.254.054.39-.156.49-.369l.059-.129c.1-.243.227-.474.379-.689.126-.166.288-.246.44-.221.16.027.292.163.362.374.048.169.074.343.078.519l.011.16c.004.066.002.133-.005.2a1.995 1.995 0 0 0-.008.124c-.006.207.09.335.278.369.21.037.356-.06.414-.274.008-.03.014-.061.02-.092a.99.99 0 0 1 .039-.143c.024-.063.046-.126.069-.19a3.42 3.42 0 0 1 .219-.525c.15-.27.333-.337.65-.237.342.108.55.327.62.651.039.203.06.408.063.614l.002.033c.014.322.07.519.31.569.269.056.378-.128.475-.29l.032-.052.072-.12c.077-.136.165-.267.264-.388.169-.195.36-.29.538-.268.176.022.335.158.448.382.214.426.329.895.335 1.371.014 1.07-.12 2.18-.422 3.498a5.043 5.043 0 0 1-.827 1.811c-.427.597-1.074 1.035-1.923 1.302-1.598.501-3.093.238-4.572-.806Z"></path>
  <path d="M7.609 8.898c.364.114.586.072.677-.129.095-.209-.028-.418-.366-.624l-.078-.048c-.183-.11-.372-.223-.495-.38a3.03 3.03 0 0 1-.662-1.8c-.046-1.266.695-2.343 1.935-2.81a6.141 6.141 0 0 1 2.449-.398c.928.041 1.606.288 2.134.777.346.322 1.422 1.485.717 2.966a3.83 3.83 0 0 1-.575.881c-.188.202-.39.39-.605.56a12.61 12.61 0 0 0-.275.236 5.622 5.622 0 0 1-.127.107 2.642 2.642 0 0 0-.274.252c-.145.16-.164.345-.052.505a.424.424 0 0 0 .347.194.415.415 0 0 0 .136-.023 2.73 2.73 0 0 0 .599-.288 4.645 4.645 0 0 0 1.334-1.352c1.001-1.527.792-3.263-.545-4.529-.794-.75-1.764-1.066-3.349-1.089h-.003l-.003.001-.29.038c-.317.04-.75.093-1.175.184-1.028.219-1.847.694-2.436 1.411-1.27 1.546-.889 3.492.052 4.734.235.302.56.521.93.624Z"></path>
  <path d="M11.813 6.208a2.87 2.87 0 0 0-.122.222.397.397 0 0 0 .085.5.385.385 0 0 0 .544-.007 1.95 1.95 0 0 0 .433-.556c.29-.635.071-1.412-.546-1.934a2.822 2.822 0 0 0-1.98-.71c-.618-.034-1.227.163-1.812.585-.859.62-1.034 1.74-.762 2.478.133.364.361.563.678.592h.03c.118 0 .27-.054.321-.138.04-.065.015-.175-.078-.356a1.006 1.006 0 0 0-.113-.163.63.63 0 0 1-.124-.197c-.176-.586.091-1.31.597-1.616.298-.186.626-.318.97-.39.638-.119 1.245.064 1.755.526.355.323.407.671.163 1.096l-.039.068Z"></path>
</svg>