<svg width="46" height="46" fill="currentColor" viewBox="0 0 24 24" xmlns="http://www.w3.org/2000/svg">
  <path d="M10.964 16.337a5.495 5.495 0 0 0-.46-.31l-.033-.02c-.405-.236-.824-.48-1.248-.699a8.983 8.983 0 0 1-.324-.18c-.29-.165-.591-.336-.936-.418a.083.083 0 0 0-.083.028l-.163.207a.08.08 0 0 0-.01.084l.03.075c.018.06.048.118.087.169.893 1.037 1.986 1.964 3.545 3.007.095.06.195.113.298.16.137.068.288.105.442.108a.855.855 0 0 0 .558-.217l.1-.081c.072-.058.147-.118.216-.185.189-.184.379-.368.57-.55a44.97 44.97 0 0 0 1.52-1.508c.303-.336.585-.69.845-1.061.086-.12.172-.238.26-.355l.01-.013c.05-.066.17-.221-.005-.403a.082.082 0 0 0-.055-.025c-.296-.014-.494.159-.684.327a2.07 2.07 0 0 1-.227.183 8.446 8.446 0 0 0-.853.67l-.049.042c-.137.119-.27.245-.399.368-.123.117-.25.238-.38.35a4.207 4.207 0 0 0-.254.245 2.447 2.447 0 0 1-.517.436l-.004-.026a1.343 1.343 0 0 1-.016-.206c.013-.443.026-.887.041-1.33.023-.708.047-1.44.063-2.162l.015-.676c.047-2.017.095-4.102-.088-6.152a37.184 37.184 0 0 0-.285-2.196l-.045-.303a.867.867 0 0 0-.149-.316 4.718 4.718 0 0 1-.146-.247.082.082 0 0 0-.147.007c-.186.441-.192.821-.197 1.157a5.325 5.325 0 0 1-.013.337c-.015.19-.033.379-.051.567-.023.239-.047.485-.064.729-.024.35-.039.707-.053 1.052l-.014.329-.005.114c-.018.415-.037.844-.051 1.267a77.211 77.211 0 0 0-.041 2.25l-.005.432c0 .143-.003.287-.005.43-.004.312-.008.635-.008.952 0 .408.003.892.018 1.383.007.204.019.41.03.61.014.225.027.458.032.688.003.138.015.278.025.415.034.291.036.585.006.877a4.774 4.774 0 0 1-.644-.416Z"></path>
  <path d="M21.207 13.207a.44.44 0 0 0-.361-.027.082.082 0 0 0-.053.044c-.212.459-.271 2.936-.314 4.745-.017.707-.03 1.277-.05 1.553l-.282.029a7.449 7.449 0 0 1-.608.049c-.773.018-1.688.037-2.607.037h-.013c-.606 0-1.212 0-1.818.002-1.911.003-3.888.007-5.83-.028a77.047 77.047 0 0 1-3.435-.165c-.473-.03-.963-.06-1.445-.087a2.373 2.373 0 0 1-.265-.036 8.29 8.29 0 0 0-.099-.016l-.02-.124a3.44 3.44 0 0 1-.045-.366c-.02-.38-.036-.76-.053-1.141-.029-.663-.058-1.349-.106-2.022a267.68 267.68 0 0 1-.162-2.579.488.488 0 0 0-.482-.463.497.497 0 0 0-.505.46c-.078 1.22-.251 4.24-.165 5.942l.005.117c.003.263.033.525.09.781.118.454.39.658.912.681.414.02.828.041 1.241.063.66.035 1.342.071 2.014.092 1.473.048 2.806.075 4.077.084.566.004 1.132.01 1.699.016 1.015.01 2.045.021 3.08.021 1.395 0 2.8-.02 4.191-.085.302-.008.603-.036.901-.083.475-.085.742-.376.771-.844.012-.182.027-.379.042-.578.02-.27.042-.549.055-.804-.01-1.768-.187-4.793-.221-5.03a.326.326 0 0 0-.139-.238Z"></path>
</svg>