<svg width="46" height="46" fill="currentColor" viewBox="0 0 24 24" xmlns="http://www.w3.org/2000/svg">
  <path d="m21.142 9.646-.11-.275c-.37-.916-.79-1.955-1.485-2.808-.577-.707-1.322-1.44-2.474-1.523a9.568 9.568 0 0 0-.861-.02l-.764.014c-.87.014-1.772.03-2.657.065l-.32.013c-1.403.056-2.853.114-4.277.227-1.473.116-2.573.761-3.268 1.917a245.43 245.43 0 0 0-2.3 3.922 2.03 2.03 0 0 0-.252.71c-.194 1.386-.006 2.77.176 4.108.032.24.065.48.095.719.1.788.574 1.358 1.407 1.695.05.02.102.037.154.054l.116.04c.904.343 1.864.377 2.711.407 1.276.045 2.577.067 3.725.086l1.327.023h.003l1.475-.032c1.074-.022 2.089-.044 3.084-.079a16.103 16.103 0 0 0 1.996-.17c.591-.097 1.34-.285 1.889-.896.56-.625.862-1.216.948-1.86.02-.143.04-.286.062-.43.056-.387.115-.788.136-1.185.022-.403.027-.813.033-1.21.007-.481.014-.98.05-1.466.034-.481-.107-.862-.265-1.202a16.586 16.586 0 0 1-.354-.844Zm-2.606-2.409c.133.167.255.342.365.524.462.753.773 1.56 1.102 2.415.098.254.198.516.304.776l-.163.013c-.18.014-.348.027-.516.033-.78.029-1.56.056-2.341.083l-2.418.086c-.625.023-.8.167-.933.77-.046.21-.098.42-.148.625l-.02.085c-.11.451-.389.745-.85.9-.92.306-1.803.19-2.698-.356-.553-.338-.884-.773-1.011-1.331-.116-.51-.284-.66-.788-.66l-.1.002-4.504.15.264-.452.499-.85c.375-.64.763-1.3 1.138-1.954.538-.933 1.378-1.477 2.498-1.616a16.77 16.77 0 0 1 1.572-.142c.933-.028 1.881-.05 2.799-.07 1.283-.03 2.61-.06 3.916-.106.793-.027 1.402.293 2.033 1.075Zm-10.11 5.899c.156.4.445.735.818.95 1.236.702 2.507.92 3.778.65 1.097-.236 1.87-1.12 2.068-2.365a3.01 3.01 0 0 0 .023-.184c1.72-.112 3.479-.147 5.18-.182l.169-.003v.005c.01.025.017.052.019.08v.1c0 1.161.002 2.361-.175 3.532a2.658 2.658 0 0 1-.685 1.435c-.326.352-.802.546-1.456.593-1.183.084-2.557.175-3.895.187-2.367.02-4.79.01-7.202-.034-.713-.013-1.553-.065-2.38-.351-.667-.232-.973-.618-.989-1.25a16.736 16.736 0 0 0-.045-.789 24.064 24.064 0 0 1-.032-.469c-.043-.767-.083-1.516-.12-2.227a4.968 4.968 0 0 1-.002-.321l.001-.08 4.598-.165.091.255c.08.22.154.427.236.633Z"></path>
</svg>