<svg width="46" height="46" fill="currentColor" viewBox="0 0 24 24" xmlns="http://www.w3.org/2000/svg">
  <path d="M2.007 17.18c.715 1.686 1.674 2.774 3.015 3.424.183.088.365.178.547.268.452.224.919.455 1.39.656 2.024.86 3.839 1.28 5.583 1.28.625 0 1.25-.055 1.865-.163 3.087-.54 5.451-2.078 7.028-4.568.836-1.32 1.34-2.835 1.586-4.766.37-2.908-.415-5.687-2.335-8.26-1.301-1.744-3.192-2.895-5.781-3.52-1.48-.357-3.072-.429-4.866-.218-2.01.235-3.71.96-5.201 2.213a14.392 14.392 0 0 0-2.812 3.147C1.15 8.019.813 9.57.9 11.863c-.144 1.53.198 3.171 1.108 5.317Zm15.03-13.715c1.911.996 3.273 2.482 4.047 4.416l.116.287c.335.83.68 1.684.767 2.595a3.878 3.878 0 0 0-.746-.099c-1.25-.07-2.559.044-4.118.356-.59.118-1.19.256-1.768.39l-.745.171-1.523-2.658.108-.117c.103-.113.2-.219.304-.316 1.214-1.13 2.143-2.585 2.924-4.578a2.16 2.16 0 0 0 .135-.691c.167.077.334.158.499.244Zm.02 17.06a6.838 6.838 0 0 0-.041-.552c-.257-2.36-.77-4.4-1.567-6.235a5.297 5.297 0 0 1-.194-.558l-.06-.19c1.26-.54 4.51-.996 6.116-.713l.099.019c.134.032.27.047.408.045a.979.979 0 0 0 .174-.025c-.06 2.058-.505 3.655-1.393 5.062a8.306 8.306 0 0 1-3.541 3.147ZM4.88 19.068c-.774-.479-1.383-1.197-1.81-2.136-.862-1.894-1.236-3.556-1.178-5.229.021-.235.039-.471.057-.707l.001-.023c.101.04.204.076.31.105 3.045.858 6.05.54 8.93-.945l.55-.286.226-.117c.514.812.926 1.528 1.247 2.332-.064.03-.125.056-.185.083-.163.073-.317.142-.466.215-.2.097-.403.193-.605.288-.487.23-.99.466-1.468.732a14.203 14.203 0 0 0-4.905 4.5c-.25.389-.469.796-.652 1.22l-.052-.032Zm.928.523c.07-.106.138-.214.206-.322.163-.259.332-.526.518-.772 1.704-2.242 3.989-3.914 6.792-4.966.116-.04.234-.073.354-.097l.133-.03c.663 1.693 1.341 3.444 1.59 5.302l.06.456a43.9 43.9 0 0 0 .253 1.75c.007.04.015.077.025.113-.443.132-.893.234-1.349.309-2.82.462-5.64-.103-8.591-1.728l.01-.015Zm9.312-16.35-.007.025c-.26.964-.729 1.908-1.518 3.062a6.756 6.756 0 0 1-1.348 1.448l-.287-.375c-.236-.309-.459-.6-.69-.892-1.157-1.463-2.138-2.5-3.177-3.363a2.663 2.663 0 0 0-.299-.213 8.678 8.678 0 0 1 1.837-.5c2.084-.333 3.962-.23 5.69.317a1.4 1.4 0 0 0-.201.49Zm-8.268.254c.251.258.515.513.77.758.348.335.707.68 1.037 1.04a23.178 23.178 0 0 1 2.543 3.305c-.064.042-.124.08-.18.118-.139.092-.26.172-.381.238-2.495 1.36-5.215 1.733-8.087 1.112a6.665 6.665 0 0 0-.517-.095c.019-.187.04-.373.067-.556.156-1.08.505-1.93 1.066-2.596.626-.743 1.36-1.597 2.174-2.346.44-.406.923-.76 1.443-1.057a.74.74 0 0 0 .065.079Z"></path>
</svg>