<svg width="46" height="46" fill="currentColor" viewBox="0 0 24 24" xmlns="http://www.w3.org/2000/svg">
  <path d="M21.489 6.25a1.146 1.146 0 0 1-.053-.17 3.173 3.173 0 0 0-1.097-1.847c-1.086-.91-2.649-1.008-4.08-.256a3.87 3.87 0 0 0-1.773 1.949l-4.848.104-.652-.9c-.58-.801-1.144-1.578-1.71-2.353a.966.966 0 0 0-.973-.417c-.14.015-.28.017-.42.008-.048-.002-.096-.004-.143-.004l-1.086-.022-1.43-.027-.05-.002a.453.453 0 0 0-.282.048c-.196.14-.292.259-.301.375-.013.148.135.342.27.41.17.07.353.107.537.108h.013c.862.06 1.721.114 2.554.16a.46.46 0 0 1 .398.244c.246.376.505.751.756 1.115l.425.62c.11.16.215.326.337.517l.12.188-.137-.001c-.169-.001-.314-.002-.458.002l-.385.013a56.54 56.54 0 0 0-1.677.07c-.329.02-.582.187-.695.458-.121.293.06.519.205.7l.034.043c.026.033.054.062.08.09l.008.008.515.539c.364.378.74.77 1.102 1.161.632.684 1.263 1.369 1.893 2.055.75.816 1.527 1.659 2.293 2.485a.539.539 0 0 1 .146.49c-.067.532-.107.963-.126 1.356-.042.884-.08 1.784-.115 2.653l-.07 1.659a4.03 4.03 0 0 1-.036.347l-.014.103h-.268c-.279-.001-.543-.002-.807.001-.13-.003-.26.008-.387.035-.317.079-.391.283-.397.44-.01.234.112.398.351.477.097.033.197.054.299.065a448.2 448.2 0 0 0 3.29.283 1.11 1.11 0 0 0 .308-.057.595.595 0 0 0 .457-.594.557.557 0 0 0-.482-.573 3.942 3.942 0 0 0-.518-.043l-.064-.002a6.98 6.98 0 0 0-.364-.003l-.081.001c.011-.101.024-.199.036-.294.032-.257.063-.5.069-.742.042-1.544.088-3.367.11-5.18a.826.826 0 0 1 .278-.656 92.49 92.49 0 0 0 2.191-2.18c.41-.421.818-.863 1.211-1.29.16-.175.321-.35.483-.524.713.645 1.575.823 2.633.545 1.435-.378 2.287-1.244 2.534-2.572a.45.45 0 0 1 .041-.106l.029-.062a.086.086 0 0 0 .006-.032V6.36a.084.084 0 0 0-.004-.026l-.03-.086Zm-4.468.72c-.616.838-4.536 4.85-5.552 5.666l-5.286-5.53L17.02 6.97Zm.483 1.13a419.452 419.452 0 0 0 .73-.864 2.4 2.4 0 0 0 .212-.269.675.675 0 0 0 .103-.55.588.588 0 0 0-.327-.372 2.018 2.018 0 0 0-.777-.172c-.428-.016-.85-.013-1.299-.01l-.417.002c.165-.267.38-.5.632-.686a2.671 2.671 0 0 1 2.264-.52c.999.21 1.603 1.084 1.54 2.226a1.947 1.947 0 0 1-2.204 1.843c-.258-.029-.46-.126-.7-.341l.243-.287Z"></path>
</svg>