<svg width="46" height="46" fill="currentColor" viewBox="0 0 24 24" xmlns="http://www.w3.org/2000/svg">
  <path d="M19.032 14.311c.08.434.152.838.228 1.242.131.69-.028 1.03-.663 1.322a919.06 919.06 0 0 1-5.433 2.476 3.598 3.598 0 0 1-.618.225c-.157.044-.323.05-.483.016-.42-.114-.837-.247-1.245-.4a806.018 806.018 0 0 1-5.202-1.964 6.013 6.013 0 0 1-.636-.29c-.419-.219-.542-.506-.521-.978.025-.588.006-1.177.006-1.803-.23-.134-.491-.284-.75-.438a3.045 3.045 0 0 1-.38-.246c-.3-.246-.318-.496-.038-.765.297-.285.61-.555.927-.818.517-.43 1.042-.85 1.613-1.313-.33-.165-.625-.318-.925-.46-.644-.307-1.295-.6-1.935-.915-.403-.199-.433-.569-.06-.844.496-.367 1.017-.703 1.521-1.06a759.96 759.96 0 0 0 3.56-2.53c.422-.302.51-.314.953-.032.74.473 1.482.945 2.226 1.415.173.11.353.209.546.322l.76-.494c.75-.484 1.498-.972 2.253-1.449a1.138 1.138 0 0 1 1.09-.109c1.882.707 3.56 1.773 5.208 2.896.413.282.419.521.192.98-.17.347-.43.554-.747.728-.735.401-1.468.806-2.238 1.229.071.08.148.155.23.225.794.589 1.587 1.18 2.388 1.76.499.361.471.93-.084 1.216-.56.288-1.131.557-1.743.856ZM7.375 10.515c.083.06.17.113.26.162 1.312.595 2.63 1.173 3.934 1.787.327.154.565.118.87-.05 1.334-.733 2.684-1.438 4.027-2.155.027-.015.04-.059.06-.09-1.33-.956-2.765-1.706-4.194-2.468-.165-.089-.294-.068-.455.032-1.411.875-2.829 1.74-4.244 2.608-.08.05-.156.104-.258.174Zm5.038-3.721.497.263c1.02.537 2.043 1.068 3.059 1.612.46.246.913.505 1.354.782.182.113.314.099.485-.005.459-.277.93-.532 1.389-.807.304-.183.597-.384.917-.592l-.222-.17c-1.347-1.062-2.846-1.86-4.411-2.545a.434.434 0 0 0-.425.006c-.851.472-1.704.94-2.643 1.456ZM6.487 9.957c2.076-1.207 4.183-2.604 4.439-2.945L8.523 5.407l-4.776 3.45 2.74 1.1Zm10.988.929c-1.62.633-3.049 1.575-4.604 2.375l2.734 1.831 4.344-2.225-2.474-1.981Zm-11.058.071-2.062 2.015 3.876 2.28 2.822-2.005-4.636-2.29Zm5.04 2.991a.316.316 0 0 0-.09.03c-.787.644-1.584 1.277-2.355 1.94-.434.373-.885.389-1.378.187a2.332 2.332 0 0 1-.355-.207c-.52-.333-1.039-.67-1.56-1.001-.111-.07-.232-.128-.41-.225.063.443.146.82.16 1.2.013.297.139.432.403.528 1.675.612 3.346 1.237 5.02 1.855.163.06.335.096.565.161v-4.468Zm6.819.795a.878.878 0 0 0-.188.04c-.783.395-1.569.787-2.345 1.197-.229.121-.442.146-.663.03a5.127 5.127 0 0 1-.558-.348c-.616-.436-1.227-.88-1.841-1.32-.108-.077-.223-.143-.395-.251.088 1.52.107 2.973.205 4.462.37-.169.67-.303.968-.442l4.588-2.138c.333-.155.335-.156.304-.525-.02-.229-.049-.457-.075-.705Z"></path>
</svg>