<svg width="46" height="46" fill="currentColor" viewBox="0 0 24 24" xmlns="http://www.w3.org/2000/svg">
  <path d="M21.966 6.549c-.057.941-.44 1.733-1.236 2.292a6.09 6.09 0 0 1-.97.54 84.53 84.53 0 0 1-2.49 1.091c-.25.105-.531.131-.782.232-.229.09-.444.21-.64.36a3022.15 3022.15 0 0 0-8.486 6.691 2.37 2.37 0 0 0-.4.407c-.371.483-.863.716-1.445.569-.615-.156-1.026.09-1.424.499-.344.353-.706.694-1.186.869-.28.102-.563.183-.804-.068-.18-.187-.155-.51.088-.833.242-.334.51-.647.803-.937.334-.318.567-.663.596-1.133.018-.136.044-.271.076-.404.078-.472.325-.8.714-1.1.783-.602 1.506-1.283 2.263-1.922A81.545 81.545 0 0 1 14 8.19c.285-.185.538-.414.751-.678.574-.72 1.151-1.44 1.758-2.132.626-.714 1.373-1.254 2.317-1.501 1.527-.4 2.471.328 2.943 1.599.067.195.118.395.152.598.028.147.03.3.044.473ZM14.69 8.687c-.087.048-.113.059-.135.074-2.803 1.965-5.56 3.99-8.183 6.193-.494.415-.968.871-1.515 1.203-.385.233-.536.503-.548.91-.002.083-.017.165-.017.247 0 .573-.234 1.034-.663 1.406-.114.1-.215.213-.322.32l.06.058c.131-.132.267-.26.394-.396.448-.479.96-.78 1.647-.609.052.014.11.005.164.017.262.058.458-.017.568-.276-.092-.167-.216-.326-.266-.506a.505.505 0 0 1 .065-.405c.112-.13.283-.056.407.046.133.11.257.235.395.363L7.139 17c-.12-.162-.233-.3-.327-.45-.097-.157-.099-.323.058-.444.157-.12.318-.072.443.06.113.118.206.254.33.41l.422-.322c-.112-.138-.215-.249-.301-.371-.156-.221-.148-.438.009-.551.174-.127.404-.05.545.187.069.115.127.236.201.376l.58-.458c-.138-.182-.291-.344-.389-.535a.443.443 0 0 1 .013-.37c.09-.148.266-.143.4-.04.102.091.194.193.274.303.065.08.122.165.194.262l.583-.49a6.073 6.073 0 0 1-.333-.52c-.08-.16-.069-.33.101-.437.184-.115.316-.008.415.138.098.144.18.298.282.47l.59-.473a4.479 4.479 0 0 1-.339-.464.346.346 0 0 1 .11-.472c.157-.087.33-.03.447.165.077.127.137.265.218.424l.597-.475a5.042 5.042 0 0 1-.354-.432c-.123-.188-.088-.423.053-.522.15-.106.338-.051.49.156.097.132.18.274.28.429l.567-.449c-.123-.123-.222-.216-.312-.316-.169-.188-.188-.424-.053-.552.151-.143.4-.095.572.117.092.114.172.238.272.377l.622-.484c-.082-.066-.134-.105-.184-.147a1.403 1.403 0 0 1-.154-.137c-.163-.182-.174-.395-.032-.51.147-.117.358-.071.497.12.084.117.15.247.246.406l.884-.737-.966-1.555Zm1.812 1.222c.805-.644 1.804-.929 2.756-1.316a5.35 5.35 0 0 0 .906-.482c.969-.635 1.257-1.708.755-2.74-.35-.721-.848-.97-1.644-.846-.859.134-1.533.585-2.1 1.213-.46.51-.895 1.043-1.346 1.562-.224.257-.459.506-.662.727l1.335 1.882Z"></path>
</svg>