<svg width="46" height="46" fill="currentColor" viewBox="0 0 24 24" xmlns="http://www.w3.org/2000/svg">
  <path d="M2.144 14.665c-.032-1.79.47-3.053 1.503-4.113.983-1.008 2.159-1.748 3.4-2.372a2.725 2.725 0 0 0 1.207-1.184c.144-.263.23-.558.337-.84.058-.155.105-.313.156-.47.497-1.548 1.604-2.39 3.16-2.674 1.88-.343 3.627.6 4.524 2.406.033.06.062.122.086.187.365 1.097 1.19 1.675 2.244 1.998.197.06.392.125.59.18 1.328.371 2.072 1.27 2.375 2.587.24 1.045.082 1.986-.635 2.818-.313.363-.58.767-.863 1.156-.416.569-.557 1.211-.523 1.907.02.412.053.83.002 1.236-.174 1.388-1.324 3.126-3.409 3.45-1.443.226-2.842.13-4.22-.373a13.366 13.366 0 0 0-1.662-.46c-.853-.19-1.694-.008-2.538.116-.5.073-1.023.149-1.515.077-1.754-.254-2.941-1.284-3.622-2.89-.41-.969-.602-1.997-.597-2.742Zm13.034 5.176c.213-.016.473-.043.734-.056 1.863-.088 3.044-1.814 2.716-3.405-.207-1.002.049-1.939.691-2.751.367-.464.733-.928 1.11-1.384a1.612 1.612 0 0 0 .343-1.428 8.501 8.501 0 0 0-.204-.754c-.2-.639-.638-1.047-1.26-1.261-.35-.12-.71-.211-1.06-.335-1.222-.433-2.186-1.145-2.6-2.442a1.495 1.495 0 0 0-.096-.227c-.883-1.729-2.604-2.642-4.653-1.531a2.259 2.259 0 0 0-.792.697c-.28.423-.5.882-.655 1.364a4.42 4.42 0 0 1-1.698 2.317c-.77.552-1.554 1.088-2.31 1.66-.945.716-1.771 1.536-2.052 2.749a5.903 5.903 0 0 0 .663 4.416c.668 1.138 1.725 1.754 3.123 1.556.272-.039.545-.074.815-.123.83-.152 1.669-.256 2.498-.063.76.177 1.505.416 2.249.65.78.248 1.57.402 2.438.351Z"></path>
  <path d="M12.505 14.694a3.792 3.792 0 0 1-2.447-.941c-1.132-.97-1.282-2.634-.36-3.87.38-.508.884-.911 1.464-1.17.41-.188.792-.418 1.255-.48 1.238-.164 2.714.585 3.36 1.73.602 1.066.451 2.573-.395 3.55-.719.83-1.673 1.162-2.877 1.181Zm2.54-3.305c.004-1.35-1.239-2.165-2.373-2.224-1.123-.058-1.954.565-2.416 1.606-.393.89-.091 1.852.726 2.38.8.519 1.669.608 2.565.326.929-.292 1.503-1.12 1.498-2.088Z"></path>
</svg>