<svg width="46" height="46" fill="currentColor" viewBox="0 0 24 24" xmlns="http://www.w3.org/2000/svg">
  <path d="M12.422 12.955c-2.072.024-4.143.05-6.214.076-.27.004-.538.055-.808.069a4.164 4.164 0 0 1-.648-.006c-.197-.02-.363-.12-.416-.335-.051-.205.02-.37.172-.513.385-.363.77-.726 1.142-1.102 1.704-1.72 3.452-3.393 5.312-4.942.146-.121.294-.24.442-.36.348-.281.714-.311 1.087-.06.238.156.466.326.685.51 1.04.893 2.087 1.781 3.109 2.698.9.807 1.776 1.642 2.648 2.48.216.205.4.442.547.702.224.407.09.677-.363.784a2.339 2.339 0 0 1-.563.047c-2.044-.027-4.088-.056-6.132-.088v.04Zm5.529-.978a1.19 1.19 0 0 0-.085-.121c-1.694-1.79-3.54-3.415-5.397-5.027-.082-.071-.177-.128-.258-.2-.149-.132-.281-.116-.43.008-.282.235-.587.443-.859.688a949.283 949.283 0 0 0-4.703 4.28c-.206.188-.377.417-.57.633l12.302-.26Z"></path>
  <path d="M11.975 14.665c2.343.024 4.686.05 7.029.076.161.002.322.028.476.075a.483.483 0 0 1 .345.463c.015.236-.083.444-.306.531a1.612 1.612 0 0 1-.59.114 275.42 275.42 0 0 1-3.94-.083c-2.423-.067-4.846-.137-7.27-.211-.852-.025-1.705-.049-2.558-.083a1.86 1.86 0 0 1-.516-.096c-.284-.096-.43-.351-.372-.601.056-.248.243-.382.554-.371.54.02 1.081.067 1.622.075 1.842.027 3.684.043 5.526.064v.047Z"></path>
  <path d="M12.197 16.963c2.024.071 4.337.15 6.65.238.214.008.427.049.63.122a.518.518 0 0 1 .346.547.517.517 0 0 1-.396.468 2.15 2.15 0 0 1-.598.067c-1.04-.053-2.08-.127-3.12-.183-1.39-.075-2.783-.153-4.175-.206-1.244-.047-2.49-.069-3.734-.09-.77-.014-1.542-.003-2.313-.013a3.842 3.842 0 0 1-.645-.07c-.13-.023-.285-.06-.367-.148a.533.533 0 0 1-.13-.39c.015-.103.155-.205.262-.268.073-.043.184-.022.279-.024.92-.017 1.839-.042 2.758-.048 1.421-.008 2.842-.002 4.553-.002Z"></path>
</svg>