<svg width="46" height="46" fill="currentColor" viewBox="0 0 24 24" xmlns="http://www.w3.org/2000/svg">
  <path d="M12.083 19.078c-1.263.074-2.054-.078-3.319-.124a1.16 1.16 0 0 1-.663-.283c-1.387-1.359-2.447-2.975-3.527-4.57-.4-.593-.292-1.076.267-1.546 2.293-1.927 5.904-5.057 8.225-6.994.048-.04.128-.102.178-.138 1.065-.757 1.388-.733 2.159.287.731.97 1.417 1.974 2.14 2.95.498.673 1.024 1.325 1.54 1.985.116.149.256.28.358.437.478.73.405 1.24-.254 1.814-1.328 1.157-3.987 3.547-5.314 4.706-.166.145-1.345 1.45-1.79 1.476Zm6.138-6.826c-1.329-2.117-2.789-4.13-4.088-6.2-1.417 1.124-3.904 3.437-5.25 4.504L14.013 16c.985-.86 3.271-2.932 4.208-3.748Zm-5.394 4.815c-1.645-1.876-3.005-4.003-4.844-5.75l-2.44 2.133c.81 1.181 1.515 2.353 2.363 3.41 1.213 1.51.627 1.18 2.567 1.35.533.047 1.387-.078 1.387-.078s.707-.567.967-1.065Z"></path>
</svg>