<svg width="46" height="46" fill="currentColor" viewBox="0 0 24 24" xmlns="http://www.w3.org/2000/svg">
  <path d="M9.114 13.335c.118.61.327 1.119.688 1.536 1.237 1.429 2.84 1.828 4.65 1.584.214-.03.419-.129.63-.19.246-.071.48-.041.614.195.138.243.005.457-.169.626-.342.332-.788.467-1.238.503-1.825.147-3.498-.246-4.896-1.5-.717-.642-1.16-1.46-1.379-2.388-.07-.298-.194-.378-.472-.357a5.09 5.09 0 0 1-.741-.014 1.254 1.254 0 0 1-.397-.095c-.18-.078-.3-.242-.235-.428a.684.684 0 0 1 .31-.33c.11-.061.265-.047.401-.05.299-.006.597-.002.933-.002v-1.504c-.225 0-.483.01-.739-.003a2.948 2.948 0 0 1-.61-.086.415.415 0 0 1-.326-.463c.018-.25.178-.371.406-.384.398-.024.797-.023 1.195-.036.108-.003.216-.02.345-.033l.22-.57a3.78 3.78 0 0 1 1.26-1.7c1.23-.92 2.584-1.452 4.147-1.263.335.04.664.162.987.274.143.047.27.136.363.255a.537.537 0 0 1 .07.404c-.017.059-.229.065-.353.086a.28.28 0 0 1-.12-.028c-1.927-.637-3.461.092-4.814 1.405-.286.278-.46.641-.554 1.089.146 0 .264.002.382 0 .838-.023 1.676-.05 2.515-.067.206-.001.411.013.615.044a.423.423 0 0 1 .399.404c.021.227-.062.435-.28.5a3.163 3.163 0 0 1-.844.131c-.908.01-1.815-.01-2.722-.015-.095 0-.19.016-.342.03v1.41c.586 0 1.198.013 1.81-.005.452-.014.903-.083 1.356-.1.215-.008.455 0 .642.089a.642.642 0 0 1 .32.425c.017.134-.117.352-.246.425a1.47 1.47 0 0 1-.663.17c-.88.025-1.76.02-2.64.026h-.478Z"></path>
  <path d="M21.79 11.17a10.33 10.33 0 0 0-2.294-5.402c-1.047-1.285-2.173-2.201-3.443-2.799a7.34 7.34 0 0 0-3.177-.728 7.95 7.95 0 0 0-1.011.067c-1.395.18-2.809.585-4.448 1.274-2.217.932-3.761 2.534-4.587 4.76a10.755 10.755 0 0 0-.654 4.799c.175 1.829.615 3.246 1.385 4.46 1.113 1.752 2.516 2.905 4.288 3.526 1.074.376 2.257.565 3.72.595.862 0 1.663-.104 2.439-.205l.147-.019c1.693-.219 3.13-.83 4.396-1.866a8.24 8.24 0 0 0 2.601-3.665c.606-1.718.814-3.288.638-4.798Zm-1.999 5.456c-.958 1.94-2.569 3.212-4.79 3.782a11.33 11.33 0 0 1-.835.17c-.144.026-.295.053-.454.084-.691.104-1.623.12-2.137.12-.229 0-.375-.004-.379-.004-1.35-.017-2.51-.245-3.549-.7-1.383-.607-2.489-1.63-3.379-3.128-.538-.903-.879-1.973-1.073-3.365a10.271 10.271 0 0 1 .632-5.237c.698-1.77 1.953-3.113 3.73-3.99.41-.204 2.079-.693 2.518-.782a12.231 12.231 0 0 1 1.872-.225c2.488-.06 3.471.34 4.99 1.5 1.592 1.216 2.714 2.743 3.335 4.539.843 2.447.682 4.881-.48 7.236Z"></path>
</svg>