<svg width="46" height="46" fill="currentColor" viewBox="0 0 24 24" xmlns="http://www.w3.org/2000/svg">
  <path d="M15.935 7.51c.271-.033.55-.046.821-.058.108-.006.216-.01.325-.017.465-.027.773-.278.845-.69.196-1.127.202-2.048.018-2.896-.093-.424-.372-.646-.782-.626-.408.02-.824.032-1.226.043-1.035.03-2.106.062-3.139.23-1.843.3-2.998 1.465-3.25 3.278a14.028 14.028 0 0 0-.1 1.585c-.005.21-.01.428-.02.641-.007.16-.005.322-.003.494l.001.187-.492.016a74.62 74.62 0 0 0-1.162.043l-.165.008a9.089 9.089 0 0 0-.994.081c-.47.073-.644.266-.667.735a35.018 35.018 0 0 0-.05 2.476c.017.732.343 1.037 1.125 1.054.321.007.647-.002.963-.011.198-.006.404-.012.605-.014.12 0 .241.007.36.02l.096.008.021.055a.298.298 0 0 1 .026.081c.007 1.709.014 3.53.015 5.36 0 .877.213 1.103 1.08 1.151.709.04 1.43.046 2.128.051l.267.002h.07c1.017 0 1.223-.208 1.348-1.285.024-.194.037-.39.04-.585.01-1.093.017-2.204.023-3.278l.002-.351v-.958h.542c.426.001.827.002 1.222-.001.573-.005.988-.284 1.169-.786.27-.752.529-1.577.791-2.52.068-.244.042-.456-.076-.613-.122-.162-.328-.248-.595-.25-.473-.004-.955.014-1.42.03a19.542 19.542 0 0 1-1.268.027l-.183-.001a8.97 8.97 0 0 0-.03-.113 1.804 1.804 0 0 1-.068-.613c.117-1.148.258-1.806 1.787-1.99Zm.348 4-.428 1.516-.452.007-1.061.019c-1.42.028-1.607.205-1.67 1.582-.043.933-.048 1.883-.053 2.802-.002.387-.004.774-.008 1.16-.003.22-.002.44-.002.67l.001.265c-.659.116-1.253.076-1.88.033l-.212-.014-.017-.102a2.1 2.1 0 0 1-.038-.305c-.019-.645-.036-1.29-.052-1.934-.028-1.07-.056-2.174-.094-3.261-.031-.916-.246-1.106-1.21-1.08-.45.013-.896.038-1.368.065l-.563.03v-1.907l.131-.019c.14-.023.28-.038.42-.046.247-.009.497-.013.74-.017.353-.006.718-.012 1.077-.033.905-.055 1.077-.234 1.081-1.126.002-.261 0-.523-.002-.783-.002-.42-.005-.853.005-1.279.012-.272.042-.543.088-.812l.023-.156c.17-1.17.9-1.891 2.229-2.204l.089-.021a2.09 2.09 0 0 1 .46-.077c.775-.007 1.539-.006 2.348-.006l.771.001c.147.582.068 1.184-.036 1.706a78.3 78.3 0 0 1-.32.056 29.2 29.2 0 0 0-.822.151c-1.502.306-2.185 1.055-2.358 2.584l-.029.25c-.047.405-.096.823-.104 1.236-.014.72.235.985.95 1.014.407.017.82.01 1.218.002.22-.004.449-.008.673-.008.114.002.228.011.34.027l.135.015Z"></path>
</svg>