<svg width="46" height="46" fill="currentColor" viewBox="0 0 24 24" xmlns="http://www.w3.org/2000/svg">
  <path d="M21.653 14.157c.002-.817.005-1.662 0-2.494a77.825 77.825 0 0 0-.057-2.272l-.017-.481-.016-.546c-.016-.588-.032-1.196-.092-1.792-.06-.603-.175-1.2-.341-1.783-.465-1.633-2.016-2.374-3.268-2.374h-.02c-2.211.014-4.46.075-6.634.135-.76.02-1.52.041-2.281.06l-.432.011c-.856.02-1.742.042-2.611.096-1.571.098-2.615.738-3.19 1.958a3.065 3.065 0 0 0-.29 1.131c-.147 2.87-.081 5.789-.018 8.61l.024 1.093.006.26c.016.775.034 1.577.039 2.365.01 1.624 1.416 3.15 3.01 3.264.35.02.701.019 1.052 0 .234-.01.477-.02.713-.016 1.053.015 2.125.035 3.16.055a1497.28 1497.28 0 0 0 3.041.053c.742.012 1.51.023 2.264.04.133.008.264.028.394.06.064.013.127.027.192.038a.07.07 0 0 0 .013 0h.835c.168-.025.338-.047.507-.069.368-.048.748-.097 1.116-.178 1.628-.354 2.934-2.041 2.911-3.76-.016-1.154-.012-2.328-.01-3.464Zm-1.077 1.813.005 1.752c.001 1.081-.886 2.279-1.899 2.563-.61.18-1.24.278-1.876.293-.89.009-1.774-.03-2.71-.072-.37-.016-.744-.033-1.128-.047l.09-7.098.468-.012c.439-.011.853-.022 1.268-.038.223-.007.445-.03.664-.07.31-.059.48-.259.459-.535-.022-.286-.226-.463-.532-.463-.25 0-.503.013-.748.026l-.282.014-.899.043-.354.017c0-.15-.002-.3-.005-.45-.017-1.316-.033-2.559.45-3.765.402-1.002 1.457-1.49 2.455-1.134.204.082.398.188.578.315.128.083.26.169.399.239.094.048.334.154.535.104.229-.056.328-.277.26-.576a1.461 1.461 0 0 0-.756-.965 3.306 3.306 0 0 0-2.684-.238c-.824.29-1.47.918-1.823 1.77-.31.76-.48 1.57-.497 2.39-.015.548-.011 1.09-.008 1.664.002.23.003.463.003.7l-.256.022c-.254.021-.494.042-.73.058-.088.006-.18.006-.268.006-.06 0-.12 0-.18.002-.43.013-.529.25-.537.446-.011.285.18.464.513.478.27.011.543.004.806-.003.117-.003.232-.006.349-.007h.24l.07 6.977h-.722c-.505 0-1.01 0-1.516-.003a173.271 173.271 0 0 0-3.46.013c-.865.012-1.59-.235-2.09-.724-.525-.515-.805-1.287-.809-2.233l-.004-1.143c-.012-3.007-.024-6.117-.02-9.175a4.248 4.248 0 0 1 .497-2.05c.304-.558.753-.906 1.298-1.006.862-.158 1.706-.302 2.546-.325a384.59 384.59 0 0 1 9.616-.16h.01c1.626 0 2.586.765 2.854 2.275.187 1.054.386 2.282.372 3.53a479.536 479.536 0 0 0-.012 6.595Z"></path>
</svg>