<svg width="46" height="46" fill="currentColor" viewBox="0 0 24 24" xmlns="http://www.w3.org/2000/svg">
  <path d="M10.993 10.212c.6-.452 1.11-.843 1.628-1.225.762-.564 1.53-1.122 2.295-1.682.065-.05.134-.095.207-.136.418-.22.738-.025.75.444.02.769.049 1.537.076 2.366.139-.078.232-.121.315-.179a8372.54 8372.54 0 0 0 4.046-2.773c.166-.121.348-.221.539-.297.417-.149.666.02.718.46.013.138.017.275.014.413l-.012 11.22c0 .564.014 1.127.03 1.69.01.34-.135.51-.49.507-.344-.003-.687-.043-1.03-.043-2.338.004-4.676.005-7.013.024-1.485.012-2.97.045-4.454.087-1.278.037-2.555.107-3.833.146-.494.017-.99.007-1.482-.03-.52-.042-.795-.351-.8-.865-.023-1.966-.05-3.932-.049-5.897.001-2.214.027-4.428.051-6.642.006-.493.046-.987.082-1.48.02-.276.16-.452.468-.495a41.36 41.36 0 0 1 2.495-.287c.493-.038.646.106.712.593.09.68.15 1.366.213 2.05.063.67.115 1.34.178 2.076.126-.086.224-.143.312-.213.787-.623 1.567-1.253 2.36-1.868.25-.194.517-.365.797-.51.407-.209.697-.055.78.398.025.19.037.382.035.575l.062 1.573Zm9.676 9.943c-.226-4.135-.044-8.237.141-12.372-.07.027-.138.06-.204.096-1.58 1.073-3.159 2.146-4.736 3.222-.355.243-.722.124-.81-.3a1.673 1.673 0 0 1-.008-.41c.014-.288.044-.576.05-.864.01-.404.002-.808.002-1.294-.536.397-1.011.742-1.477 1.097-.798.61-1.59 1.225-2.384 1.839-.242.186-.49.206-.77.071-.287-.138-.403-.362-.395-.662.012-.426.037-.85.05-1.277.006-.234 0-.47 0-.749-.107.073-.168.104-.219.148-.697.6-1.398 1.198-2.088 1.808-.381.336-.744.694-1.115 1.04-.195.183-.42.266-.681.171-.25-.091-.34-.31-.38-.548a2.095 2.095 0 0 1-.012-.37c.016-1.348.033-2.695.051-4.042.002-.145 0-.29 0-.473l-2.517.502v1.096c.007 1.8.018 3.602.02 5.403.003 2.185-.12 4.371.053 6.555.016.2.055.4.087.628 2.908-.106 5.775-.252 8.645-.303 2.886-.053 5.774-.012 8.697-.012Z"></path>
  <path d="M6.36 2.894c.35.105.706.193 1.048.318.386.141.758.32 1.14.472.432.17.819.096 1.196-.189a7.47 7.47 0 0 1 .981-.597c.45-.24.91-.215 1.396-.066.535.164 1.09.265 1.636.39.17.039.376.024.391.273a.404.404 0 0 1-.398.4c-.354.02-.71.012-1.063-.026a1.241 1.241 0 0 1-.543-.18c-.48-.315-.908-.19-1.33.104-.18.126-.371.239-.541.376-.537.436-1.15.525-1.787.338a11.777 11.777 0 0 1-1.413-.554c-.62-.272-1.393-.177-1.87.299a2.191 2.191 0 0 0-.387.617c-.082.173-.16.325-.371.33-.181.003-.379-.186-.364-.43.007-.256.076-.507.2-.732.468-.755 1.197-1.052 2.079-1.143Z"></path>
  <path d="M6.53 13.365c.507 0 1.015-.009 1.522.002.59.013.578.024.783.593.122.337.111.73.112 1.098 0 .299-.172.432-.523.461a87.13 87.13 0 0 1-1.725.124c-.547.035-1.095.08-1.643.087-.558.007-.736-.182-.774-.728-.017-.26-.063-.518-.072-.778-.015-.414.135-.803.715-.778.533.023 1.069.005 1.604.005v-.086Zm-1.522 1.68 3.08-.238.045-.715H4.732l.276.954Z"></path>
  <path d="M17.26 15.258c-.547-.034-1.095-.055-1.64-.107-.339-.032-.464-.158-.494-.495a7.365 7.365 0 0 1-.01-.986c.016-.332.14-.469.462-.521.27-.046.543-.076.816-.09.808-.04 1.616-.08 2.424-.098.563-.012.678.113.704.663.01.205.025.41.03.616.015.689-.252.88-.974.997-.213.034-.438-.001-.658-.003h-.659l-.001.024Zm1.482-1.607a12.08 12.08 0 0 0-3.016-.017l-.086.93 3.102-.105v-.808Z"></path>
  <path d="M12.122 15.295c-.547-.029-1.098-.032-1.641-.094-.62-.07-.739-.246-.69-.871.061-.806.064-.816.854-.883.929-.079 1.858-.146 2.788-.214.398-.03.562.088.625.481.05.311.078.625.082.94.005.407-.143.555-.576.57-.48.018-.96.004-1.44.004l-.002.067Zm1.27-.828c-.017-.213-.03-.385-.047-.58-1.001.037-1.965.055-2.92.22v.51c.992.048 1.986-.003 2.968-.15Z"></path>
</svg>