<svg width="46" height="46" fill="currentColor" viewBox="0 0 24 24" xmlns="http://www.w3.org/2000/svg">
  <path d="M18.056 11.013a1.801 1.801 0 0 0-.152-.109l-.053-.035c-2.038-1.387-3.755-2.739-5.25-4.131-.2-.187-.422-.384-.701-.622-.176-.15-.32-.157-.409-.137-.087.02-.21.086-.297.287a.968.968 0 0 0-.06.315l-.006.058a.718.718 0 0 0 .004.138.664.664 0 0 1 .004.104 635.017 635.017 0 0 1-.238 3.138 1.268 1.268 0 0 1-.025.154l-.008-.01a4.46 4.46 0 0 0-.198-.206 3122.137 3122.137 0 0 0-3.504-3.322 1.349 1.349 0 0 0-.85-.375c-.206-.016-.365-.009-.473.084-.088.076-.131.197-.144.406-.022.36-.03.729-.021 1.097.045 2.062.125 4.498.375 6.941.11 1.063.315 1.902.647 2.64.033.07.049.148.048.226-.004.12.003.289.117.356a.201.201 0 0 0 .103.028.524.524 0 0 0 .244-.085l.075-.043c.372-.2.725-.434 1.055-.698 1.079-.921 1.857-1.687 2.525-2.482a3.15 3.15 0 0 1 .118-.13c.006.072.012.132.02.192a543.093 543.093 0 0 0 .238 1.879c.016.121.039.304.288.336a.087.087 0 0 0 .063-.018.336.336 0 0 1 .035-.024.246.246 0 0 0 .124-.136c.062-.251.26-.344.49-.45l.034-.016c1.72-.804 3.347-1.837 4.978-3.159.254-.207.496-.429.723-.665.138-.143.25-.307.334-.486.175-.377.08-.766-.253-1.04Zm-1.4.566-.013.009a1.992 1.992 0 0 0-.19.122c-.236.18-.471.36-.706.542-.422.325-.858.661-1.293.983a17.539 17.539 0 0 0-2.149 1.871c-.05.052-.104.103-.16.154l-.081-7.47a27.39 27.39 0 0 0 4.593 3.79Zm-6.392 2.118c-.434.467-.888.93-1.327 1.38l-.135.137a188.387 188.387 0 0 1-1.435 1.449 173.76 173.76 0 0 0-.53-8.72l.136.132.74.722c.622.61 1.266 1.24 1.912 1.846.299.268.615.516.948.742l.149.107a.404.404 0 0 1 .193.336l.002.034c.073 1.053.073 1.053-.653 1.835Z"></path>
</svg>