<svg width="46" height="46" fill="currentColor" viewBox="0 0 24 24" xmlns="http://www.w3.org/2000/svg">
  <path d="M18.256 6.344c-.108-.093-.268-.1-.476-.084-.32.02-.624.154-.855.375L13.4 9.957a4.32 4.32 0 0 0-.208.216 1.27 1.27 0 0 1-.025-.154 979.598 979.598 0 0 1-.24-3.139.653.653 0 0 1 .005-.103.726.726 0 0 0 .004-.138l-.005-.058a.968.968 0 0 0-.062-.316c-.088-.2-.211-.266-.299-.286-.09-.02-.234-.013-.411.137-.28.238-.505.435-.705.621C9.949 8.131 8.22 9.482 6.17 10.87l-.052.034c-.053.034-.105.07-.154.11-.336.274-.43.663-.255 1.04.084.179.198.343.336.486.23.236.472.458.728.665 1.64 1.322 3.28 2.355 5.009 3.159l.034.015c.232.107.431.2.493.45.022.06.067.109.125.137a.34.34 0 0 1 .035.023.083.083 0 0 0 .063.019c.251-.032.274-.215.29-.337a303.978 303.978 0 0 1 .24-1.879c.009-.06.014-.12.02-.192.046.049.084.09.12.131.662.785 1.47 1.573 2.54 2.481.332.265.687.499 1.062.7l.074.042a.53.53 0 0 0 .245.084.203.203 0 0 0 .105-.027c.114-.068.122-.236.117-.357a.521.521 0 0 1 .048-.226c.335-.737.542-1.576.651-2.64.252-2.442.333-4.879.378-6.94.009-.368.001-.737-.021-1.097-.013-.209-.057-.33-.146-.406Zm-1.003 1.598a172.57 172.57 0 0 0-.533 8.72l-.346-.345c-.36-.36-.734-.734-1.098-1.103l-.13-.133c-.444-.45-.903-.915-1.34-1.384-.731-.782-.731-.782-.658-1.835l.002-.034a.397.397 0 0 1 .194-.336l.152-.108a8.99 8.99 0 0 0 .952-.741c.65-.607 1.299-1.238 1.926-1.847a555.512 555.512 0 0 1 .879-.854Zm-5.259-.153-.082 7.471a4.491 4.491 0 0 1-.16-.154 17.613 17.613 0 0 0-2.162-1.871 79.208 79.208 0 0 1-1.304-.984c-.236-.18-.472-.361-.709-.54a2.055 2.055 0 0 0-.191-.124l-.013-.008a27.51 27.51 0 0 0 4.621-3.79Z"></path>
</svg>