<svg width="46" height="46" fill="currentColor" viewBox="0 0 24 24" xmlns="http://www.w3.org/2000/svg">
  <path d="M15.409 2.617c-2.71-.391-5.351-.166-7.852.67-2.207.738-3.911 2.033-5.065 3.85C1.443 8.786.446 10.804 1 13.264c.315 1.399.78 2.865 2.03 4.128l-.122.62c-.108.553-.217 1.108-.328 1.663-.024.119-.053.24-.082.356-.064.23-.108.465-.133.702-.024.303.068.549.259.692a.65.65 0 0 0 .398.126 1.02 1.02 0 0 0 .359-.071c.11-.045.216-.098.318-.159.065-.037.133-.075.2-.108l.812-.383c.442-.209.9-.424 1.347-.642a.814.814 0 0 1 .717-.017c.465.18.946.315 1.436.406 2.615.486 5.314.303 8.021-.544 2.072-.649 3.693-1.606 4.956-2.926 1.235-1.292 1.877-2.757 1.963-4.48.13-2.588-.71-4.906-2.565-7.086-1.403-1.647-3.145-2.632-5.178-2.925ZM3.736 16.352a5.18 5.18 0 0 1-1.216-2.445 15.874 15.874 0 0 1-.305-2.19c-.033-.455.02-.912.157-1.348.99-2.971 2.79-4.882 5.5-5.841a14.618 14.618 0 0 1 4.933-.846c.949.003 1.896.085 2.831.245 1.328.223 2.53.89 3.57 1.982 1.974 2.07 2.834 4.317 2.628 6.871-.102 1.268-.623 2.373-1.591 3.38-.952.99-2.145 1.736-3.646 2.28-2.786 1.01-5.582 1.238-8.31.675a4.912 4.912 0 0 1-1.203-.447c-.47-.238-.98-.381-1.51.165-.444.456-1.024.705-1.73.966l.087-.636c.074-.54.144-1.05.22-1.553.07-.47-.058-.858-.415-1.258Z"></path>
  <path d="M5.379 14.928a.329.329 0 0 0 .112-.018c.295-.107.562-.298.797-.467.7-.5 1.407-1.014 2.092-1.51l1.384-1.002a16.5 16.5 0 0 1 .513-.35l.257-.172.056.09c.058.103.126.2.202.29l.336.375c.54.603 1.097 1.225 1.665 1.82.576.605.856.616 1.494.057a35.738 35.738 0 0 1 1.704-1.423c.459-.354.934-.702 1.394-1.039.412-.302.839-.614 1.252-.93.255-.18.469-.41.63-.676.103-.187.058-.515-.052-.683-.1-.152-.441-.19-.612-.135a2.9 2.9 0 0 0-.815.432c-1.06.776-2.1 1.548-3.2 2.365l-1.052.782-.077-.069a3.425 3.425 0 0 1-.242-.226c-.229-.245-.457-.492-.684-.739a98.251 98.251 0 0 0-.999-1.073c-.552-.582-.961-.632-1.625-.198-.102.066-.2.139-.273.195a5274.112 5274.112 0 0 0-4.354 3.297c-.12.075-.225.173-.306.29-.063.105-.17.419-.053.532a.73.73 0 0 0 .456.185Z"></path>
</svg>