<svg width="46" height="46" fill="currentColor" viewBox="0 0 24 24" xmlns="http://www.w3.org/2000/svg">
  <path d="m12.665 13.794.092 2.115c.386-.04.726-.076 1.065-.106.15-.02.3-.025.45-.016.225.022.386.144.425.381a.459.459 0 0 1-.322.514 1.95 1.95 0 0 1-.527.07c-.328.01-.657.002-1.014.002 0 .165-.005.297 0 .428.023.508.057 1.015.067 1.524.001.177-.027.354-.082.522a.418.418 0 0 1-.435.313.428.428 0 0 1-.403-.304 1.593 1.593 0 0 1-.098-.438c-.034-.521-.055-1.043-.077-1.565-.006-.135-.001-.27-.001-.468-.18 0-.325.005-.47 0-.329-.013-.66-.012-.987-.052-.253-.03-.383-.204-.373-.415.01-.22.14-.336.426-.342.438-.009.876-.002 1.36-.002l.075-2.117c-.147-.018-.306-.044-.465-.055-2.131-.15-3.485-1.479-3.924-3.497a5.004 5.004 0 0 1 .68-3.87c.142-.22.315-.417.513-.587a5.2 5.2 0 0 1 2.895-1.267c1.165-.13 2.276.025 3.286.648.514.317.854.815 1.143 1.33.963 1.709.97 3.463.131 5.21-.534 1.113-1.505 1.675-2.685 1.91-.23.046-.46.083-.745.134Zm-1.213-8.31c-.54-.074-1.167.233-1.777.586a2.8 2.8 0 0 0-1.093 1.147c-.67 1.273-.557 2.55-.028 3.82.428 1.028 1.222 1.637 2.311 1.852.995.196 1.973.093 2.925-.232.597-.203 1.075-.585 1.344-1.153.77-1.624.72-3.214-.297-4.73a2.287 2.287 0 0 0-.982-.858c-.702-.304-1.438-.45-2.403-.432Z"></path>
</svg>