<svg width="46" height="46" fill="currentColor" viewBox="0 0 24 24" xmlns="http://www.w3.org/2000/svg">
  <path d="M20.52 12.63c.021 2.02.05 4.039.061 6.058.004.714-.051 1.428-.056 2.142-.006 1.025-.803 1.645-1.732 1.665-1.897.04-3.795.084-5.691.075-2.228-.011-4.455-.07-6.682-.127a13.945 13.945 0 0 1-1.557-.166c-.629-.088-1.25-.806-1.273-1.49-.058-1.73-.124-3.46-.143-5.19-.041-3.806-.051-7.612-.09-11.418-.005-.54-.004-1.07.202-1.578.181-.45.434-.832.933-.97a2.15 2.15 0 0 1 .486-.072c.715-.028 1.43-.026 2.143-.073 2.613-.173 5.225-.039 7.837-.017a1.858 1.858 0 0 1 1.358.546c.847.804 1.755 1.543 2.631 2.316.36.318.702.657 1.057.981a.943.943 0 0 1 .328.686c.03.727.079 1.454.085 2.181.014 1.484.005 2.968.005 4.452h.097ZM14.727 2.495c-.24-.02-.444-.047-.647-.05-1.732-.03-3.464-.056-5.196-.08-.783-.01-1.566-.015-2.349-.02-.398-.002-.796-.015-1.193.006-.555.028-.727.186-.827.729a5.292 5.292 0 0 0-.07 1.557c.032.287.048.575.049.863.008 4.863.015 9.725.02 14.587-.004.11.001.22.015.33.1.626.43 1.003 1.115 1.03 2.653.108 5.306.107 7.96.062 1.346-.023 2.694-.034 4.041-.048.33-.004.66.01.989-.009.54-.03.824-.326.818-.871-.006-.59-.051-1.18-.061-1.77-.012-.713.012-1.428-.008-2.142-.05-1.757-.134-3.513-.169-5.27-.027-1.4 0-2.802.002-4.203v-.36a1.059 1.059 0 0 0-.155-.026c-.839.017-1.677.042-2.515.049a3.21 3.21 0 0 1-.735-.08c-.558-.128-.727-.332-.783-.905-.045-.464-.077-.93-.119-1.395-.057-.641-.118-1.282-.182-1.984Zm1.155.682-.078.03.407 2.667c.804-.087 1.587-.082 2.457-.167l-2.786-2.53Z"></path>
  <path d="M13.1 14.753c.636-.465 1.245-.913 1.858-1.354.48-.346.782-.334 1.196.096.313.327.603.675.867 1.043.335.468.614.976.952 1.442.377.521.573 1.11.748 1.715.112.385-.074.716-.484.794-.218.034-.438.05-.658.046-.412.006-.825-.003-1.237 0-2.873.016-5.747.035-8.62.054-.426.004-.852.046-1.278.058a2.688 2.688 0 0 1-.575-.035c-.475-.09-.649-.558-.347-.933.525-.652 1.06-1.296 1.59-1.946.364-.448.708-.913 1.088-1.347.479-.548.972-1.085 1.483-1.602.366-.37.797-.426 1.238-.116.476.346.927.727 1.35 1.138.298.28.543.617.828.947Zm-6.61 2.984c2.528-.118 5.01-.092 7.563-.068-.119-.155-.189-.251-.264-.343-.539-.66-1.068-1.326-1.619-1.975-.4-.47-.818-.926-1.245-1.371-.166-.174-.38-.3-.583-.456A10.64 10.64 0 0 0 8.927 14.9c-.462.544-.94 1.076-1.406 1.617-.346.404-.687.813-1.03 1.22Zm8.895-3.466-1.804 1.176 1.742 2.111 2.304-.07c-.444-.844-1.89-2.921-2.242-3.216Z"></path>
  <path d="M13.565 11.974c-.449.007-.848-.36-.846-.777.001-.418.455-.824.918-.82.384.002.75.385.75.783 0 .42-.391.808-.822.814Z"></path>
</svg>