<svg width="46" height="46" fill="currentColor" viewBox="0 0 24 24" xmlns="http://www.w3.org/2000/svg">
  <path d="M20.574 12.683c.022 1.993.052 3.987.062 5.98.004.728-.052 1.456-.058 2.185-.007 1.024-.807 1.643-1.736 1.662-1.87.039-3.74.084-5.609.074-2.268-.012-4.537-.07-6.805-.129a13.22 13.22 0 0 1-1.516-.164c-.628-.09-1.247-.81-1.27-1.496-.057-1.73-.122-3.462-.141-5.193-.042-3.81-.05-7.619-.091-11.428-.006-.585.008-1.152.25-1.694.181-.405.44-.733.89-.854a2.2 2.2 0 0 1 .486-.07c.7-.028 1.402-.03 2.102-.072 2.42-.144 4.839-.09 7.259-.01.343.012.687.028 1.03.02a.892.892 0 0 1 .634.25l3.392 3.014c.164.147.319.305.492.44.36.28.462.66.47 1.092.024 1.608.056 3.217.081 4.825.008.522.001 1.045.001 1.567h.077ZM14.78 2.494c-.237-.019-.44-.047-.643-.05-1.732-.03-3.464-.057-5.196-.08-.783-.011-1.566-.016-2.349-.02-.398-.003-.796-.015-1.193.005-.568.029-.735.193-.836.767a5.273 5.273 0 0 0-.06 1.56c.028.218.042.437.043.657.01 4.908.017 9.816.023 14.723a2.4 2.4 0 0 0 .014.37c.098.628.429 1.008 1.112 1.036 2.653.107 5.306.106 7.96.062 1.347-.023 2.694-.034 4.041-.05.33-.003.66.01.989-.008.54-.029.827-.326.821-.87-.007-.603-.052-1.207-.062-1.81-.011-.702.013-1.404-.008-2.104-.05-1.745-.134-3.489-.168-5.234-.027-1.429 0-2.859.002-4.289 0-.115-.014-.23-.018-.294-.918 0-1.784.007-2.65-.004-.26 0-.52-.03-.774-.088-.52-.127-.68-.326-.74-.853-.018-.15-.019-.302-.033-.453l-.275-2.973Zm1.481 3.37c.669-.038 1.299-.073 1.929-.11.148-.009.296-.024.533-.044l-2.8-2.541-.063.046.401 2.649Z"></path>
  <path d="M16.902 16.985c-.025-.345-.233-.437-.43-.531-.099-.047-.212-.062-.311-.107a.445.445 0 0 1-.284-.456.439.439 0 0 1 .386-.372c.27-.049.543-.086.815-.126.217-.031.423.01.552.195.136.195.08.391-.07.564a.311.311 0 0 0-.035.08c.012.037.026.074.042.11.338.672.054 1.33-.727 1.584-1.213.395-2.704-.31-2.625-1.937.05-1.022.528-1.835 1.43-2.363.156-.086.322-.153.494-.199a.4.4 0 0 1 .537.27c.033.125-.06.21-.191.273-.238.105-.461.24-.666.4a2.185 2.185 0 0 0-.795 1.575c-.063.894.706 1.503 1.534 1.227a2.14 2.14 0 0 0 .345-.187Z"></path>
  <path d="m12.26 16.666.47-1.801c.067-.253.13-.506.207-.755.044-.145.102-.284.173-.417.092-.172.24-.269.443-.222.21.048.276.212.278.405.007.137-.004.275-.033.41a316.66 316.66 0 0 1-.828 3.147c-.037.132-.087.26-.152.382-.201.377-.606.424-.87.09a3.434 3.434 0 0 1-.396-.627c-.425-.877-.842-1.758-1.25-2.644a2.278 2.278 0 0 1-.157-.552c-.03-.171.015-.332.193-.415.154-.073.335-.015.468.16.071.1.134.208.186.32l1.118 2.251c.03.06.065.117.15.268Z"></path>
  <path d="M8.815 14.02c-.683.053-.982.308-1.065.928.118.057.248.123.38.184.25.113.507.213.75.34.298.148.546.379.714.665.472.81-.01 1.773-.942 1.878-.539.06-.998-.137-1.413-.457a.308.308 0 0 1-.125-.158c-.019-.113-.044-.262.012-.34.056-.078.205-.106.317-.12.073-.008.153.051.232.075.182.062.367.114.554.157.359.069.65-.042.76-.269.102-.215-.03-.514-.34-.722a3.362 3.362 0 0 0-.47-.249c-.213-.098-.436-.171-.643-.277-.496-.254-.656-.704-.433-1.213.177-.402.443-.74.86-.9.216-.08.448-.108.676-.08.301.04.352.239.176.558Z"></path>
</svg>