<svg width="46" height="46" fill="currentColor" viewBox="0 0 24 24" xmlns="http://www.w3.org/2000/svg">
  <path d="M20.549 13.612c.014 1.676.036 3.351.038 5.028.001.74-.05 1.482-.06 2.223-.01.98-.76 1.624-1.709 1.644-2.282.05-4.564.093-6.846.087-1.856-.005-3.712-.075-5.568-.137a13.71 13.71 0 0 1-1.556-.169c-.643-.096-1.234-.842-1.262-1.548-.125-3.143-.147-6.29-.157-9.435a565.08 565.08 0 0 0-.068-7.13c-.007-.5-.011-.989.164-1.462.236-.637.57-1.115 1.558-1.153 3.093-.12 6.185-.213 9.279-.069.33.016.66.03.989.02a.931.931 0 0 1 .672.26c1.264 1.122 2.524 2.25 3.795 3.363.354.31.54.669.548 1.143.04 2.445.093 4.89.14 7.335h.043ZM14.732 2.509c-.24-.02-.444-.046-.647-.05-1.732-.03-3.464-.056-5.196-.08-.783-.01-1.566-.015-2.35-.02-.397-.002-.796-.014-1.193.006-.554.028-.726.187-.826.73a5.293 5.293 0 0 0-.07 1.557c.032.287.048.575.049.863.008 4.863.015 9.725.02 14.587-.004.11 0 .22.015.329.101.627.431 1.003 1.116 1.031 2.653.107 5.305.107 7.959.061 1.347-.022 2.694-.033 4.042-.048.329-.004.66.01.988-.008.54-.03.824-.327.818-.872-.006-.59-.052-1.18-.061-1.77-.012-.713.012-1.428-.008-2.142-.05-1.757-.135-3.513-.169-5.27-.027-1.4 0-2.802.002-4.203v-.36a1.074 1.074 0 0 0-.156-.025c-.838.016-1.676.043-2.515.048a3.208 3.208 0 0 1-.775-.089c-.519-.127-.682-.325-.736-.854-.05-.478-.082-.958-.125-1.436-.057-.643-.118-1.284-.182-1.986Zm3.95 3.22-2.808-2.546-.065.045.407 2.651 2.465-.15Z"></path>
  <path d="m11.778 19.94-5.239-.097a5.379 5.379 0 0 1-.573-.058c-.255-.032-.389-.187-.416-.436a3.134 3.134 0 0 1-.027-.41c.05-2.115.1-4.229.153-6.344.008-.327-.003-.654-.009-.981-.003-.213.125-.294.31-.307.439-.032.877-.07 1.316-.083 2.062-.06 4.124-.098 6.185-.171.933-.034 1.864-.134 2.796-.198a13.63 13.63 0 0 1 1.03-.035c.363.002.57.157.66.503.06.24.099.484.118.73.052.574.114 1.149.131 1.724.048 1.538.076 3.076.107 4.614.006.288.002.577-.012.865-.021.434-.176.628-.597.72a3.12 3.12 0 0 1-.695.073c-1.47-.031-2.942-.075-4.413-.111-.275-.007-.55-.001-.825-.001v.003Zm-2.593-6.497c-.982-.033-1.924-.06-2.9.016l.096 5.658h2.535l.269-5.674Zm.766-.731h.465l3.963.001c.701 0 1.403.003 2.104-.006.212-.003.423-.043.644-.066l-.096-.929-7.147.179.067.82Zm-.773-.823c-.594-.08-2.667-.053-2.96.034l.049.88 2.91-.099v-.815Zm5.773 7.168v-.918a37.313 37.313 0 0 0-2.466-.007v.925h2.466Zm-.065-1.727v-.784c-.807.014-1.58-.024-2.363.07l-.04.787 2.403-.073Zm-2.325-1.517h2.294v-.752h-2.294v.752Zm-.003-1.521h2.311v-.752h-2.311v.752Zm-2.602.726a4.158 4.158 0 0 0 0 1.052l1.802-.168.061-.884H9.956Zm1.872-1.523h-1.84v.848h1.84v-.848Zm-.115 5.56-.055-.874H9.912v.874h1.801Zm5.501-.924H15.7v.937c.53 0 1.036.002 1.542-.002a.536.536 0 0 0 .15-.047l-.177-.888Zm-5.536-.703.066-.812-1.806.084v.83l1.74-.102Zm5.445-3.117v-.737h-1.658v.737h1.659Zm-1.48 3a6.019 6.019 0 0 0 1.588-.096l-.042-.747-1.6.095.053.748Zm-.109-1.55h1.593v-.67h-1.633l.04.67Z"></path>
</svg>