<svg width="46" height="46" fill="currentColor" viewBox="0 0 24 24" xmlns="http://www.w3.org/2000/svg">
  <path d="M12.921 22.6c-1.911-.038-3.823-.062-5.733-.122-.713-.022-1.423-.166-2.135-.185-.854-.022-1.478-.963-1.503-1.605a61.186 61.186 0 0 1-.047-1.602c-.05-3.534-.099-7.067-.145-10.601-.017-1.43-.006-2.86-.012-4.29-.002-.44-.064-.88.083-1.309.035-.103.06-.21.097-.314.254-.714.752-1.09 1.52-1.102.687-.01 1.373-.026 2.06-.047.673-.02 1.346-.072 2.019-.07 1.705 0 3.41.022 5.115.04.383.005.767.046 1.15.043.236 0 .462.092.63.257 1.222 1.087 2.446 2.173 3.67 3.258.102.092.191.198.297.286.261.22.363.502.373.836.016.55.057 1.098.066 1.647.035 2.103.06 4.207.093 6.311.023 1.484.064 2.969.074 4.453.006.769-.055 1.538-.055 2.307 0 .99-.773 1.66-1.76 1.69-.837.026-1.677.012-2.515.024-1.114.016-2.228.042-3.342.064v.032Zm1.768-20.14c-.175-.012-.298-.027-.42-.028-2.187-.028-4.372-.054-6.558-.08-.357-.004-.721.03-1.07-.027-.486-.078-.959-.004-1.437.016-.353.014-.559.185-.632.53-.109.512-.18 1.026-.13 1.552.031.341.06.685.06 1.027.009 3.52.014 7.04.016 10.559 0 .426.02.852.021 1.278 0 .866-.011 1.731-.008 2.597a3.58 3.58 0 0 0 .059.694c.081.403.398.806.87.79.123-.005.246.029.37.032 1.8.033 3.601.089 5.402.09 2.117 0 4.235-.048 6.352-.073.33-.004.66.017.99.003.584-.025.88-.331.871-.915-.022-1.538-.055-3.076-.083-4.615 0-.027-.004-.055-.005-.082-.052-1.373-.126-2.745-.15-4.118-.027-1.47-.006-2.942-.005-4.413v-.472h-.359c-.77.009-1.54.024-2.31.022a3.128 3.128 0 0 1-.734-.08c-.59-.145-.76-.38-.803-.982a153.12 153.12 0 0 0-.197-2.42c-.025-.286-.07-.569-.11-.885Zm3.942 3.187-2.826-2.563.419 2.719 2.407-.156Z"></path>
  <path d="M10.78 13.177c-2.068.45-3.322 1.668-3.575 3.871.01.013.062.074.11.139.232.316.224.638-.023.942-.279.342-.703.43-1.026.213-.31-.208-.406-.668-.192-1.034.095-.163.238-.297.409-.505.042-.216.106-.511.16-.808.207-1.157.82-2.05 1.772-2.723.133-.095.271-.183.478-.322-.583 0-1.09-.008-1.595.006-.096.003-.195.08-.284.137-.275.175-.522.17-.711-.021a.532.532 0 0 1-.084-.646c.14-.241.482-.416.697-.322.128.057.225.185.394.331l3.554-.217c.102-.376.358-.497.716-.482a3.45 3.45 0 0 0 .574-.05c.322-.038.57.062.727.395.447-.023.897-.048 1.348-.069.741-.035 1.483-.056 2.223-.107.18-.013.355-.114.53-.184.271-.11.498-.093.65.071a.593.593 0 0 1 .127.65c-.124.327-.508.507-.806.33-.259-.155-.519-.159-.792-.153-.563.012-1.125.031-1.698.048.022.05.027.085.045.095 1.231.747 1.867 1.899 2.212 3.248.047.186.071.379.125.563.035.13.09.254.163.367a.722.722 0 0 1 .052.813.816.816 0 0 1-.743.442c-.347.004-.65-.13-.833-.444-.17-.29-.116-.575.05-.858.064-.111.134-.253.12-.373-.13-1.18-.56-2.204-1.58-2.901a2.542 2.542 0 0 0-1.007-.436c-.36.65-1.83.629-2.287-.006Z"></path>
</svg>