<svg width="46" height="46" fill="currentColor" viewBox="0 0 24 24" xmlns="http://www.w3.org/2000/svg">
  <path d="M20.61 12.693c.023 1.994.052 3.987.062 5.981.004.728-.051 1.456-.058 2.184-.008 1.027-.816 1.64-1.74 1.659-1.87.037-3.74.083-5.609.073-2.255-.012-4.51-.07-6.764-.127a13.506 13.506 0 0 1-1.557-.167c-.609-.087-1.22-.797-1.263-1.458a29.327 29.327 0 0 1-.065-1.522c-.037-2.764-.07-5.528-.1-8.292l-.083-7.302c0-.482.116-.958.34-1.386.252-.5.663-.754 1.221-.772.728-.023 1.458-.03 2.185-.073 2.42-.145 4.839-.09 7.259-.01.343.011.687.027 1.03.02a.892.892 0 0 1 .633.253l3.39 3.015c.165.146.32.304.494.438.362.28.458.664.465 1.094.027 1.691.06 3.382.086 5.073.007.44.001.88.001 1.32h.073ZM14.816 2.497c-.255-.02-.46-.046-.665-.049a1828.99 1828.99 0 0 0-5.237-.076c-.77-.01-1.538-.019-2.308-.023-.398-.003-.797-.016-1.193.008-.545.031-.712.195-.81.748-.09.487-.116.984-.074 1.477.037.396.057.796.057 1.193.009 4.784.015 9.568.018 14.352-.002.083.002.165.01.247.072.631.404 1.068 1.142 1.097 2.625.101 5.25.103 7.876.06 1.361-.022 2.722-.034 4.083-.05.33-.004.66.009.988-.008.566-.029.846-.32.841-.893-.01-1.1-.037-2.198-.059-3.297-.01-.55-.022-1.1-.04-1.649-.046-1.36-.117-2.719-.139-4.079-.023-1.47 0-2.941.002-4.413 0-.104-.016-.208-.022-.283-.46 0-.884-.002-1.308 0-.44.002-.88.019-1.32.008-.26-.001-.52-.03-.775-.084-.539-.126-.705-.33-.76-.88-.049-.479-.08-.959-.123-1.438-.058-.64-.12-1.281-.184-1.968Zm3.95 3.225-2.807-2.55-.063.042.405 2.658 2.466-.15Z"></path>
  <path d="M10.516 14.96c.026 1.024.054 1.97.071 2.917.014.247-.002.495-.048.738a.822.822 0 0 1-.275.433c-.187.146-.494.044-.586-.187a1.615 1.615 0 0 1-.125-.596c.012-1.32.042-2.64.065-3.959.003-.162 0-.325 0-.456.363-.24.637-.257.943 0 .32.259.61.554.86.881.46.633.871 1.301 1.302 1.956.066.1.128.2.242.381.02-.2.036-.315.04-.43.032-.7.048-1.401.097-2.1.023-.274.08-.543.17-.802.08-.24.257-.345.425-.32.186.028.309.197.326.467a3.28 3.28 0 0 1-.005.371c-.053 1.058-.104 2.115-.164 3.172-.016.288-.056.574-.092.86a.69.69 0 0 1-.063.196c-.182.4-.594.454-.842.094-.264-.385-.493-.794-.744-1.188-.471-.742-.946-1.483-1.423-2.221a2.61 2.61 0 0 0-.174-.207Z"></path>
  <path d="M16.67 17.607a1.074 1.074 0 0 0 .116-.874c-.083-.044-.169-.085-.25-.134-.207-.125-.308-.317-.262-.51a.47.47 0 0 1 .425-.393c.355-.037.712-.07 1.069-.076.315-.005.513.154.551.39.041.256-.069.41-.387.544-.05.021-.1.045-.148.066-.017.29-.014.578-.054.86-.103.73-.604 1.191-1.381 1.06-.27-.045-.55-.061-.81-.137-.812-.235-1.216-.835-1.141-1.676.088-.99.373-1.912 1.006-2.7.344-.427.785-.638 1.341-.552.122.018.241.053.354.103a.33.33 0 0 1 .215.362.32.32 0 0 1-.304.287 1.055 1.055 0 0 1-.246.008c-.31-.029-.528.112-.69.363-.45.701-.65 1.476-.674 2.302a.484.484 0 0 0 .384.518c.286.08.583.126.885.19Z"></path>
  <path d="M7.173 17.042c0 .322.008.623-.002.923a4.085 4.085 0 0 1-.064.614c-.056.293-.209.43-.423.413-.219-.016-.35-.178-.365-.466a16.975 16.975 0 0 1-.025-.701c-.014-.99-.032-1.978-.034-2.967 0-.603.43-.934.883-1.18.47-.257.94-.094 1.337.234.678.56.792 1.365.313 2.099-.38.581-.848.886-1.62 1.03Zm-.043-.743c.425-.102.796-.36 1.04-.723.314-.465.206-.967-.27-1.27-.342-.219-.603-.177-.899.147.042.594.083 1.193.13 1.846Z"></path>
</svg>