<svg width="46" height="46" fill="currentColor" viewBox="0 0 24 24" xmlns="http://www.w3.org/2000/svg">
  <path d="M20.565 12.632c.022 2.021.052 4.042.063 6.063.003.714-.053 1.429-.057 2.143-.004 1.026-.788 1.655-1.724 1.676-2.034.044-4.069.088-6.103.08-2.09-.009-4.18-.071-6.27-.131a13.176 13.176 0 0 1-1.597-.172c-.608-.093-1.207-.816-1.242-1.477a44.833 44.833 0 0 1-.066-1.812c-.04-3.094-.076-6.187-.108-9.281-.02-1.83-.027-3.658-.057-5.487-.008-.525-.041-1.051.172-1.542.115-.278.27-.537.462-.769.223-.254.548-.351.893-.36.756-.021 1.513-.025 2.267-.075 2.599-.173 5.197-.036 7.796-.018a1.9 1.9 0 0 1 1.39.57c.836.795 1.734 1.526 2.601 2.288.32.281.615.592.944.863.363.3.47.684.478 1.131.027 1.884.064 3.767.097 5.65.003.22 0 .44 0 .66h.061ZM14.774 2.504c-.196-.018-.357-.044-.52-.047a2347.84 2347.84 0 0 0-5.318-.09c-.783-.01-1.566-.014-2.35-.02-.397-.001-.796-.014-1.193.006-.568.029-.736.193-.837.766a5.429 5.429 0 0 0-.065 1.518c.034.328.047.659.05.988.009.825.007 1.65.008 2.474l.01 12.043c-.002.096.003.192.015.288.1.625.43 1.009 1.113 1.036 2.666.108 5.333.107 8 .06 1.334-.022 2.667-.032 4-.047.33-.004.66.009.99-.008.54-.03.828-.326.822-.868-.008-.66-.05-1.318-.062-1.977-.012-.659.011-1.32-.008-1.98-.05-1.73-.134-3.46-.167-5.191-.027-1.43 0-2.86.001-4.29 0-.115-.014-.23-.018-.295-.917 0-1.782.007-2.648-.005a3.847 3.847 0 0 1-.815-.098c-.433-.1-.69-.373-.704-.841a6.85 6.85 0 0 0-.03-.453c-.088-.97-.179-1.941-.274-2.969Zm1.482 3.366 2.466-.152-2.887-2.62.42 2.772Z"></path>
  <path d="M8.623 15.52c.129-.308.253-.61.38-.91.057-.155.122-.306.195-.454.245-.446.69-.467.987-.05.05.066.09.138.122.214.377.945.697 1.907.792 2.928a2.82 2.82 0 0 1-.002.535c-.03.297-.183.463-.416.482-.234.02-.423-.114-.5-.4-.102-.37-.175-.748-.261-1.123l-.267-1.161c-.08.16-.12.252-.168.34a3.686 3.686 0 0 1-.303.535.653.653 0 0 1-.95.122 3.434 3.434 0 0 1-.432-.44c-.285-.31-.565-.624-.846-.936l-.084.036c0 .24-.009.479.002.718.027.548.068 1.096.094 1.645.018.382-.127.601-.389.62-.264.02-.438-.19-.444-.575a186.96 186.96 0 0 1-.026-2.802c.005-.192.034-.383.087-.568.065-.243.178-.297.433-.245.34.066.654.226.908.46.353.327.698.66 1.088 1.03Z"></path>
  <path d="M11.738 15.557c.012-.13.018-.268.04-.404.105-.672.4-.95 1.084-1.025a1.93 1.93 0 0 1 1.899.989c.348.635.273 1.588-.17 2.148a1.393 1.393 0 0 1-1.819.33c-.77-.457-1.008-1.19-1.034-2.038Zm.886-.574c-.31.589-.192 1.342.267 1.744.114.097.245.172.385.223a.525.525 0 0 0 .618-.193c.367-.527.342-1.37-.45-1.717a1.252 1.252 0 0 0-.82-.057Z"></path>
  <path d="M16.477 15.834c.18-.47.356-.942.54-1.41.06-.153.133-.301.22-.44.147-.23.353-.303.56-.224a.433.433 0 0 1 .286.53c-.274 1.019-.58 2.029-1.063 2.973a.598.598 0 0 1-.602.353c-.306-.023-.455-.237-.535-.5-.145-.47-.265-.95-.41-1.421-.11-.353-.246-.697-.369-1.045-.023-.064-.072-.133-.062-.192.02-.112.043-.262.12-.316a.371.371 0 0 1 .34-.01c.15.095.273.225.36.379.154.289.268.6.393.903.056.137.098.28.147.42h.075Z"></path>
</svg>