<svg width="46" height="46" fill="currentColor" viewBox="0 0 24 24" xmlns="http://www.w3.org/2000/svg">
  <path d="M20.516 12.706c.022 1.994.052 3.987.062 5.98.003.729-.052 1.457-.058 2.185-.009 1.026-.815 1.64-1.74 1.66-1.87.037-3.74.082-5.609.073a333.85 333.85 0 0 1-6.764-.127 13.483 13.483 0 0 1-1.557-.167c-.628-.09-1.244-.814-1.266-1.498-.056-1.731-.122-3.462-.141-5.194C3.4 11.808 3.393 8 3.352 4.19c-.007-.585.008-1.152.252-1.692.169-.375.399-.698.813-.824.184-.055.373-.088.564-.097.7-.03 1.403-.03 2.102-.072 2.42-.144 4.84-.09 7.26-.01.343.011.686.027 1.03.02a.892.892 0 0 1 .633.253l3.39 3.014c.165.146.32.305.493.439.362.28.46.663.466 1.094.026 1.65.059 3.3.084 4.949.008.48.002.962.002 1.443h.075ZM14.723 2.513c-.24-.02-.442-.047-.646-.05-1.731-.03-3.463-.056-5.195-.08-.783-.01-1.566-.015-2.35-.02-.397-.002-.796-.015-1.193.005-.567.03-.733.194-.834.77a5.342 5.342 0 0 0-.064 1.518c.032.287.048.575.049.864.008 4.866.015 9.733.02 14.599-.004.11 0 .22.014.329.101.627.431 1.006 1.115 1.034 2.653.107 5.306.106 7.96.061 1.333-.023 2.666-.034 4-.05.33-.003.66.01.988-.006.592-.028.868-.313.862-.914-.01-1.044-.036-2.087-.057-3.131-.013-.605-.023-1.21-.043-1.814-.045-1.332-.117-2.664-.137-3.997-.023-1.484 0-2.97 0-4.454 0-.106-.01-.212-.015-.321a.849.849 0 0 0-.139-.024c-.838.016-1.676.042-2.515.049a3.208 3.208 0 0 1-.735-.08c-.558-.127-.728-.332-.784-.905-.045-.464-.077-.93-.118-1.396-.058-.642-.118-1.284-.183-1.987Zm1.481 3.374 2.466-.154-2.884-2.62.419 2.774Z"></path>
  <path d="M7.856 10.21c.025.17.06.331.071.494.011.122.003.244-.026.363a.429.429 0 0 1-.418.332.461.461 0 0 1-.413-.348 1.914 1.914 0 0 1-.03-.368c-.005-.122-.002-.243-.002-.385-.173-.039-.334-.064-.488-.112a3.88 3.88 0 0 1-.616-.225c-.238-.12-.323-.345-.251-.548.066-.185.252-.286.505-.263.233.021.464.068.697.076.205.008.41-.008.612-.047.132-.035.256-.097.364-.18a.387.387 0 0 0 .052-.623.373.373 0 0 0-.206-.087 1.477 1.477 0 0 0-.368-.014c-.178.012-.354.05-.532.063-.631.043-1.099-.39-1.072-1.023.026-.625.304-1.104.903-1.36.075-.032.151-.06.242-.097l.078-.518c.026-.167.11-.28.289-.298a.338.338 0 0 1 .383.245c.05.183.09.37.12.557.583.261.634.34.46.785a3.036 3.036 0 0 0-.338-.036c-.244 0-.497-.027-.731.025-.428.095-.578.36-.522.88.096 0 .198.005.3 0 .273-.016.548-.061.82-.048.567.028 1.067.405 1.22.898.174.563-.001 1.034-.427 1.409-.192.17-.428.29-.676.453Z"></path>
  <path d="M11.446 15.862c1.402 0 2.805 0 4.207.002.165-.003.33.012.49.047.215.052.339.213.316.376a.37.37 0 0 1-.321.33 3.24 3.24 0 0 1-.573.067c-2.626.005-5.253.006-7.88.002-.233 0-.466-.024-.699-.047-.094-.009-.208-.017-.272-.073-.085-.073-.184-.195-.178-.29.006-.092.123-.198.217-.257.073-.046.185-.038.28-.04 1.471-.027 2.942-.052 4.413-.077v-.04Z"></path>
  <path d="M6.361 14.677c-.081-.306.009-.427.233-.45.327-.034.655-.072.984-.091 2.578-.148 5.157-.273 7.74-.253.275.002.549.025.819.07.255.044.364.192.342.385-.02.187-.17.31-.41.327-.137.01-.275 0-.412.001l-8.78.054c-.173 0-.345-.028-.516-.043Z"></path>
  <path d="M6.44 12.726c-.025-.35-.009-.376.223-.41a1.03 1.03 0 0 1 .124-.006c1.071-.03 2.142-.056 3.214-.088 1.716-.05 3.433-.107 5.15-.156.288-.008.577.01.865.021a.327.327 0 0 1 .343.294c.023.15-.099.282-.308.325a2.193 2.193 0 0 1-.41.032c-1.113.012-2.227.016-3.34.033-1.374.02-2.748.054-4.122.073-.426.006-.852-.01-1.278-.03a3.371 3.371 0 0 1-.462-.088Z"></path>
  <path d="M8.291 18.876c-.357 0-.715.002-1.072 0a1.281 1.281 0 0 1-.287-.027c-.165-.04-.284-.163-.254-.323.02-.115.132-.225.228-.309.053-.045.157-.038.239-.044.698-.053 1.397-.107 2.096-.154a2.9 2.9 0 0 1 .494.007.343.343 0 0 1 .312.287c.04.18-.008.344-.172.425a1.232 1.232 0 0 1-.47.124c-.37.018-.742.006-1.113.006v.008Z"></path>
</svg>