<svg width="46" height="46" fill="currentColor" viewBox="0 0 24 24" xmlns="http://www.w3.org/2000/svg">
  <path d="M13.009 22.68c-1.911-.039-3.823-.063-5.733-.123-.727-.023-1.45-.17-2.176-.189-.818-.022-1.476-1.04-1.467-1.726.011-.931-.032-1.864-.057-2.796-.013-.453-.053-.906-.056-1.358-.031-3.89-.059-7.778-.084-11.667-.003-.357-.022-.714-.022-1.07 0-.51.132-1.012.382-1.457.221-.402.564-.647 1.017-.685.56-.048 1.125-.057 1.688-.077.288-.01.577.008.864-.014 2.35-.18 4.701-.065 7.052-.025.356.006.712.044 1.068.04a.89.89 0 0 1 .628.26l3.67 3.255c.103.091.192.197.297.285.262.22.362.503.372.836.016.549.056 1.097.066 1.646.035 2.102.06 4.204.093 6.306.023 1.47.064 2.939.074 4.408.006.782-.055 1.564-.055 2.346 0 .987-.774 1.659-1.762 1.687-.866.025-1.733.01-2.599.023-1.086.017-2.173.042-3.259.064l-.001.03Zm-4.83-11.763V9.884c-.122-.015-.216-.026-.31-.04a2.776 2.776 0 0 1-.285-.044c-.244-.06-.365-.212-.358-.433.007-.219.139-.364.387-.408.173-.03.349-.044.54-.067V7.98c-.163-.023-.298-.038-.432-.06-.29-.048-.444-.187-.449-.398-.005-.203.151-.37.426-.433.144-.033.293-.044.457-.068.019-.337.085-.656-.022-1.003-.21 0-.402.005-.593-.002-.141-.006-.253-.093-.246-.228a.476.476 0 0 1 .151-.309c.088-.073.226-.09.346-.12.128-.031.26-.05.38-.072V4.264c-.235-.024-.44-.035-.642-.067-.215-.035-.342-.172-.34-.35a.354.354 0 0 1 .285-.36c.134-.027.269-.047.405-.06.09-.013.179-.03.28-.047 0-.175.005-.325-.002-.474-.006-.147-.025-.293-.043-.48-.505 0-.978.05-1.436-.012-.488-.066-.959.011-1.437.03a.55.55 0 0 0-.558.457 4.842 4.842 0 0 0-.148 1.63c.029.3.056.602.059.903.009.852.002 1.704.006 2.556l.051 10.016c.003.672-.03 1.345-.03 2.018a2.63 2.63 0 0 0 .072.692c.1.367.374.726.835.73.357.004.713.049 1.07.052 2.077.023 4.153.052 6.23.053 1.719.001 3.438-.034 5.157-.053.233-.002.468.015.7.002.564-.033.86-.336.85-.895-.012-.658-.06-1.315-.071-1.973-.016-.907.006-1.815-.019-2.72-.038-1.414-.122-2.827-.148-4.24-.026-1.443-.005-2.886-.004-4.328v-.42c-.922 0-1.788.009-2.652-.006a4.223 4.223 0 0 1-.894-.118c-.409-.096-.616-.388-.65-.803-.065-.793-.127-1.586-.196-2.378-.031-.352-.077-.702-.118-1.072-1.947-.08-3.851-.128-5.785-.102l.108.886c.198.014.364.012.525.04.246.045.401.21.408.401.007.195-.136.363-.378.425-.157.04-.318.06-.516.097l.067.877c.258 0 .463-.012.666.003a.346.346 0 0 1 .09.662 1.64 1.64 0 0 1-.315.089c-.133.028-.267.045-.407.068v.985c.197-.01.395-.008.592.004.275.032.447.21.465.444.017.23-.097.403-.35.496a1.396 1.396 0 0 1-.32.06c-.12.013-.241.015-.376.023v.835c.263.05.503.063.715.146a.479.479 0 0 1 .263.323c.013.119-.09.28-.188.373-.093.088-.242.123-.373.16-.14.04-.288.055-.433.08v.926c.221.032.44.076.656.132a.414.414 0 0 1 .316.39c.011.225-.107.366-.304.44a2.98 2.98 0 0 1-.398.098c-.089.02-.18.034-.288.054 0 .12-.004.214 0 .309.005.092.017.183.027.301.2 0 .376-.009.551.002.282.018.443.154.468.373.026.227-.13.421-.413.483-.198.043-.401.062-.61.093-.03.163-.05.312-.084.457-.062.262-.17.368-.366.374-.21.006-.346-.119-.407-.387-.035-.158-.06-.318-.09-.49-.166-.013-.302-.02-.438-.033-.278-.029-.43-.153-.434-.349-.004-.182.12-.305.377-.365.142-.034.286-.061.444-.094l-.036-.737-.437-.03c-.373-.027-.587-.188-.593-.448-.006-.257.194-.421.577-.467.133-.017.268-.024.42-.037ZM18.717 5.74l-2.82-2.563.415 2.72 2.405-.157Z"></path>
</svg>