<svg width="46" height="46" fill="currentColor" viewBox="0 0 24 24" xmlns="http://www.w3.org/2000/svg">
  <path d="M3.423 11.62c-.029-2.601-.06-5.202-.083-7.803-.002-.276.028-.55.09-.82.269-1.139.665-1.45 1.835-1.518 3.263-.187 6.528-.138 9.792-.08.424.008.809.074 1.146.38 1.19 1.077 2.39 2.143 3.6 3.196a1.795 1.795 0 0 1 .66 1.438c.06 3.153.185 6.306.235 9.46.027 1.686-.033 3.374-.085 5.06-.03.924-.552 1.477-1.468 1.62a7.132 7.132 0 0 1-1.075.076c-3.293.006-6.586.025-9.88-.006a30.971 30.971 0 0 1-3.14-.25c-.877-.098-1.433-.73-1.458-1.626a515.329 515.329 0 0 1-.14-6.222c-.016-.968-.002-1.937-.002-2.906h-.027ZM14.79 2.459a4.862 4.862 0 0 0-.499-.066 2955.63 2955.63 0 0 0-6.31-.077c-.8-.01-1.602-.061-2.402-.03-.856.032-1.023.196-1.093 1.027-.047.548-.008 1.104-.006 1.656l.053 14.615a7.861 7.861 0 0 0-.003.83c.076.688.474 1.073 1.187 1.117 4.234.265 8.468-.043 12.701.011.933.012 1.178-.285 1.16-1.209-.029-1.355-.074-2.71-.1-4.064-.06-2.961-.116-5.921-.17-8.882-.004-.184-.042-.367-.067-.576h-.454c-.775.01-1.55.055-2.324.025-1.05-.042-1.289-.317-1.374-1.342-.082-.99-.194-1.978-.298-3.035h-.001Zm1.11.788.405 2.58c.809-.07 1.534-.052 2.287-.195-.506-.639-2.113-2.07-2.692-2.385Z"></path>
  <path d="M14.855 18.206a1.56 1.56 0 0 0 .193-.348c.069-.352.118-.707.183-1.11-.19-.027-.345-.047-.5-.07-.592-.085-.94-.463-.922-1.07.004-.475.168-.936.466-1.306.258-.311.585-.557 1.004-.46.454.104.837.426.894.878.16 1.29.26 2.593-.211 3.855a2.038 2.038 0 0 1-.138.3c-.491.857-1.33.872-1.8.01a3.44 3.44 0 0 1-.341-1.012.492.492 0 0 1 .352-.587c.302-.087.459.09.562.35.068.17.152.337.258.57Zm-.076-2.38c.314-.42.398-.712.28-1.139-.305.325-.422.61-.28 1.14Z"></path>
  <path d="M9.789 13.684c.237.015.4.018.56.037.239.027.44.126.463.391.023.265-.142.4-.388.455-.24.054-.48.114-.79.19-.008.324-.012.65-.026.975.01.22-.011.44-.061.655-.043.131-.221.313-.328.305-.157-.01-.394-.139-.437-.27a4.09 4.09 0 0 1-.148-.975c-.025-.327.019-.641-.359-.848a.295.295 0 0 1-.099-.44.296.296 0 0 1 .136-.1c.376-.17.391-.488.484-.805.085-.32.215-.626.387-.908a1.089 1.089 0 0 1 1.238-.456c.226.08.379.23.377.487-.003.24-.155.305-.37.357-.503.124-.5.14-.64.95Z"></path>
  <path d="M11.765 15.673c.023-.455.018-.758.06-1.055.031-.232.181-.444.434-.378a.57.57 0 0 1 .338.383c.075.485.092.979.12 1.47a.488.488 0 0 1-.066.314c-.112.134-.27.319-.406.318a.542.542 0 0 1-.409-.313 3.166 3.166 0 0 1-.07-.739Z"></path>
  <path d="M7.402 15.94a.568.568 0 0 1 .59.559.661.661 0 0 1-.82.653.57.57 0 0 1-.412-.486.725.725 0 0 1 .642-.726Z"></path>
</svg>