<svg width="46" height="46" fill="currentColor" viewBox="0 0 24 24" xmlns="http://www.w3.org/2000/svg">
  <path d="M20.519 13.606c.014 1.675.036 3.351.038 5.027 0 .728-.055 1.455-.058 2.183-.003 1.03-.787 1.657-1.72 1.678-1.979.045-3.959.088-5.938.079-2.145-.01-4.29-.07-6.434-.13a13.216 13.216 0 0 1-1.598-.171c-.608-.091-1.208-.811-1.247-1.472a33.406 33.406 0 0 1-.062-1.52A5024.373 5024.373 0 0 1 3.318 3.7a2.867 2.867 0 0 1 .39-1.456 1.266 1.266 0 0 1 1.107-.677c.783-.033 1.568-.03 2.35-.082 2.584-.173 5.169-.033 7.754-.017a1.899 1.899 0 0 1 1.39.567c.837.795 1.734 1.525 2.602 2.287.32.281.616.59.943.862.348.288.474.654.481 1.087.022 1.402.048 2.803.077 4.204.02 1.044.042 2.088.066 3.132h.042ZM14.7 2.504c-.167-.018-.275-.039-.384-.04a2507.39 2507.39 0 0 0-5.484-.098 262.66 262.66 0 0 0-2.35-.022c-.397-.003-.796-.015-1.192.009-.532.031-.723.186-.792.712-.057.49-.084.982-.08 1.475-.004.452.047.904.05 1.357.011 1.264.01 2.528.011 3.791l.01 10.425c0 .192.025.383.075.568.136.49.412.712.915.75.288.021.577.027.866.029 2.474.015 4.948.034 7.422.038 1.32.002 2.64-.023 3.96-.036.288-.003.577.007.864-.009.548-.03.84-.322.834-.857-.007-.658-.05-1.316-.061-1.975-.012-.672.012-1.346-.01-2.019-.046-1.537-.136-3.073-.162-4.61-.028-1.621-.002-3.242-.002-4.863a2.596 2.596 0 0 0-.022-.266c-.904 0-1.768.007-2.633-.004-.26 0-.52-.028-.775-.085-.536-.127-.701-.33-.756-.884-.047-.478-.08-.958-.122-1.436-.058-.64-.12-1.28-.182-1.95Zm3.95 3.21L15.844 3.17l-.066.049.406 2.646 2.465-.151Z"></path>
  <path d="M11.17 19.622c-.861.021-2.209.06-3.556.084a9.183 9.183 0 0 1-1.315-.055c-.485-.062-.6-.24-.597-.715.013-2.171.02-4.342.036-6.513.004-.48.046-.96.055-1.44.006-.289.14-.485.407-.547.386-.09.78-.183 1.172-.197a259.28 259.28 0 0 1 5.98-.164c1.333-.016 2.668.04 4.002.065.082.001.165.003.247.01.604.05.605.072.791.655.204.637.26 1.295.284 1.95.089 2.034.016 4.07-.217 6.092-.049.404-.212.596-.62.643-.517.07-1.038.111-1.56.126-1.54.016-3.082.006-5.11.006Zm2.049-3.753c.473-.48.973-.971 1.451-1.482.324-.346.68-.43 1.117-.255.554.21 1.061.526 1.493.932.09.088.188.17.34.306.08-1.516.13-2.938.035-4.357a.795.795 0 0 0-.153-.039c-1.045-.002-2.09-.007-3.135-.003-2.42.01-4.841.022-7.262.038a6.639 6.639 0 0 0-.694.08c.022 1.19.158 2.348.19 3.51.033 1.155.061 2.31.093 3.534.305-.415.574-.776.837-1.142a32.515 32.515 0 0 1 2.458-3.046c.33-.357.618-.399 1.018-.126.19.136.369.287.535.45.56.529 1.114 1.063 1.677 1.6ZM7.16 18.877c.253 0 .417.008.58-.001.658-.039 1.315-.1 1.972-.122 1.276-.04 2.552-.059 3.828-.088.153-.003.306-.016.511-.027-1.06-1.457-2.232-2.708-3.527-3.937L7.16 18.877Zm10.389-.276a.866.866 0 0 0 .069-.194c-.014-.507-.024-1.012-.055-1.517a.472.472 0 0 0-.15-.275c-.375-.36-.75-.722-1.147-1.058a2.326 2.326 0 0 0-.985-.484l-1.608 1.448 1.543 2.08h2.333Z"></path>
  <path d="M14.047 13.01c0 .365-.339.69-.726.693-.382.004-.77-.328-.764-.65.008-.362.42-.76.785-.76a.743.743 0 0 1 .705.717Z"></path>
</svg>