<svg width="46" height="46" fill="currentColor" viewBox="0 0 24 24" xmlns="http://www.w3.org/2000/svg">
  <path d="M20.547 12.628c.022 2.02.051 4.041.062 6.062.004.715-.052 1.429-.056 2.143-.006 1.025-.8 1.648-1.732 1.668-1.91.041-3.822.086-5.732.076-2.214-.01-4.427-.07-6.64-.128a14.09 14.09 0 0 1-1.557-.166c-.629-.087-1.252-.806-1.275-1.49-.058-1.731-.123-3.462-.142-5.194-.042-3.81-.05-7.619-.09-11.428-.007-.585.006-1.152.247-1.694.18-.405.437-.735.886-.857a2.23 2.23 0 0 1 .486-.072c.7-.028 1.403-.03 2.102-.072 2.42-.143 4.84-.091 7.26-.01.343.011.687.029 1.03.02a.933.933 0 0 1 .667.274c1.244 1.104 2.48 2.218 3.737 3.307.434.376.586.812.592 1.374.021 2.063.078 4.125.121 6.187h.034Zm-1.301-5.803a1.413 1.413 0 0 0-.165-.021c-.851.017-1.703.04-2.556.049a2.86 2.86 0 0 1-.613-.065c-.63-.132-.805-.332-.86-.97-.072-.835-.138-1.67-.211-2.505-.025-.27-.066-.539-.1-.822-.165-.016-.3-.04-.435-.042-1.8-.033-3.6-.064-5.401-.094-.797-.012-1.594-.018-2.39-.023-.398-.002-.797-.013-1.194.013-.51.034-.677.188-.771.692a5.518 5.518 0 0 0-.088 1.477c.041.492.06.987.062 1.482.012 1.622.017 3.244.015 4.866.003 3.08.004 6.159.005 9.238-.006.192.019.384.073.568.204.607.492.75.94.771.275.014.55.024.825.026 2.446.016 4.893.038 7.34.043 1.333.002 2.667-.027 4-.041.316-.004.633.008.948-.01.52-.03.815-.328.81-.839-.006-.562-.049-1.125-.062-1.688-.033-1.346-.032-2.693-.091-4.038-.114-2.584-.095-5.168-.082-7.752l.001-.315Zm-3.43-3.742.424 2.777 2.462-.156-2.887-2.621Z"></path>
  <path d="M8.785 16.286c-.11.276-.185.496-.284.705-.264.556-.714.626-1.143.182-.2-.207-.396-.418-.595-.627-.007-.006-.027 0-.075 0v.389c-.002.48 0 .962-.011 1.442a.844.844 0 0 1-.082.315.388.388 0 0 1-.402.23.414.414 0 0 1-.407-.29.944.944 0 0 1-.053-.283 127.24 127.24 0 0 1-.025-2.14c0-.207.02-.412.06-.615a.934.934 0 0 1 .155-.37c.167-.228.323-.278.569-.136.33.19.638.422.949.645.111.09.218.187.318.29.184-.353.351-.679.525-1.002.067-.135.147-.263.238-.384.283-.35.72-.341.971.03.108.16.187.337.235.523.222.877.441 1.756.63 2.64.036.23.017.465-.057.685-.108.353-.494.457-.751.193a1.596 1.596 0 0 1-.383-.662c-.152-.555-.248-1.124-.382-1.76Z"></path>
  <path d="M15.536 16.153h.697a5.89 5.89 0 0 1 .093-.56c.071-.27.25-.415.486-.43.257-.015.447.121.55.403a.88.88 0 0 1 .056.237c.055.711.114 1.422.15 2.134.005.245-.018.49-.07.73-.042.23-.228.347-.443.371a.472.472 0 0 1-.506-.28 3.342 3.342 0 0 1-.202-.665c-.05-.238-.065-.485-.1-.77h-.863c-.136.01-.273.008-.41-.004-.388-.064-.6-.386-.478-.753a7.62 7.62 0 0 0 .345-1.77c.022-.247.15-.387.338-.399.184-.012.35.111.39.351.034.23.045.463.034.696-.005.217-.04.434-.067.71Z"></path>
  <path d="M12.132 17.504c-.024.346-.032.648-.07.945-.036.272-.198.433-.405.45-.218.02-.41-.136-.477-.422a2.163 2.163 0 0 1-.057-.53c.017-.92.044-1.839.068-2.759.006-.231.048-.437.314-.517a.53.53 0 0 0 .161-.124c.472-.407.991-.443 1.532-.17.482.243.773.849.71 1.428-.075.71-.704 1.43-1.41 1.614-.118.032-.238.055-.366.085Zm-.08-.997c.313-.051.596-.217.794-.464.25-.308.263-.681.04-.935-.219-.25-.55-.256-.89-.032 0 .352-.004.69.002 1.029.011.135.03.269.054.402Z"></path>
</svg>