<svg width="46" height="46" fill="currentColor" viewBox="0 0 24 24" xmlns="http://www.w3.org/2000/svg">
  <path d="M20.576 13.672c.014 1.677.036 3.354.038 5.031.001.729-.054 1.457-.057 2.185-.003 1.025-.775 1.661-1.716 1.682-2.145.049-4.29.092-6.434.084-1.98-.006-3.96-.072-5.94-.133a13.814 13.814 0 0 1-1.597-.172c-.608-.09-1.21-.81-1.25-1.47a33.214 33.214 0 0 1-.063-1.523 9357.283 9357.283 0 0 1-.182-15.593 2.902 2.902 0 0 1 .366-1.42 1.298 1.298 0 0 1 1.168-.721c.77-.027 1.54-.026 2.308-.078 2.585-.173 5.17-.034 7.754-.017a1.897 1.897 0 0 1 1.393.565c.835.796 1.733 1.526 2.6 2.288.32.282.617.59.944.863.347.289.477.653.484 1.088.022 1.457.048 2.914.078 4.371.019.99.043 1.98.065 2.97h.04ZM14.758 2.554c-.243-.02-.446-.046-.65-.05-1.732-.028-3.464-.055-5.196-.078-.783-.011-1.566-.016-2.349-.021-.398-.002-.797-.015-1.193.006-.553.029-.724.19-.824.734a5.357 5.357 0 0 0-.069 1.559c.033.3.05.602.05.905.008 4.852.014 9.705.018 14.557a2.32 2.32 0 0 0 .011.289c.084.626.414 1.042 1.125 1.07 2.653.105 5.305.105 7.959.06 1.333-.022 2.667-.034 4-.049.33-.004.66.009.989-.007.574-.027.86-.315.855-.878-.006-.59-.052-1.18-.062-1.77-.011-.715.013-1.43-.007-2.144-.05-1.759-.135-3.516-.169-5.275-.027-1.416 0-2.832.003-4.248 0-.105-.011-.211-.017-.319a.994.994 0 0 0-.143-.02c-.839.016-1.677.042-2.515.047a3.184 3.184 0 0 1-.775-.09c-.517-.127-.68-.327-.734-.858-.049-.478-.08-.958-.124-1.437-.057-.642-.118-1.284-.183-1.983Zm1.483 3.374 2.466-.153-2.81-2.55-.062.036.407 2.667Z"></path>
  <path d="M11.866 12.74c1.484-.043 2.969-.088 4.453-.124.247-.006.494.01.738.048.254.04.364.175.367.374.003.212-.128.373-.384.408-.34.05-.683.08-1.026.088-2.008.03-4.015.056-6.023.066a71.441 71.441 0 0 1-2.719-.055 1.31 1.31 0 0 1-.551-.138.443.443 0 0 1-.178-.33c-.006-.159.143-.219.293-.226.11-.005.22-.004.33-.006l4.7-.082v-.024Z"></path>
  <path d="M11.633 9.83c-.928.03-1.82.069-2.714.082-.66.01-1.32-.01-1.98-.028-.222-.005-.36-.142-.364-.316-.004-.188.113-.306.346-.328.164-.017.33-.02.494-.023 1.14-.029 2.282-.053 3.422-.085 1.65-.046 3.299-.1 4.949-.148.22-.007.44-.014.66-.01.367.005.545.12.562.35.017.236-.148.4-.502.427a24.46 24.46 0 0 1-1.647.075c-1.086.012-2.173.004-3.226.004Z"></path>
  <path d="M12.362 11.709c-1.728.01-3.46.096-5.184-.085a1.387 1.387 0 0 1-.4-.088.278.278 0 0 1-.154-.201.274.274 0 0 1 .167-.195c.135-.025.272-.033.409-.023 1.18-.004 2.361.01 3.541-.015 1.88-.04 3.759-.105 5.638-.158.165-.006.33 0 .494.017.214.027.343.166.348.342.004.176-.122.322-.33.364-.095.015-.19.02-.286.017l-3.626.025h-.617Z"></path>
  <path d="M11.97 15.015c.413 0 .825-.007 1.238.003.205.004.41.024.61.062a.347.347 0 0 1 .297.349.373.373 0 0 1-.284.405 1.668 1.668 0 0 1-.524.09c-.961-.043-1.921-.104-2.881-.162a.664.664 0 0 1-.198-.052c-.155-.06-.25-.167-.237-.345a.3.3 0 0 1 .253-.287 2.05 2.05 0 0 1 .406-.051c.44-.007.88-.003 1.32-.003v-.01Z"></path>
</svg>