<svg width="46" height="46" fill="currentColor" viewBox="0 0 24 24" xmlns="http://www.w3.org/2000/svg">
  <path d="M20.544 12.644c.023 2.006.053 4.011.064 6.017.004.727-.052 1.454-.058 2.182-.008 1.03-.818 1.64-1.74 1.659-1.868.036-3.738.082-5.607.073-2.255-.012-4.51-.07-6.765-.126a13.506 13.506 0 0 1-1.557-.167c-.628-.09-1.244-.813-1.266-1.497-.057-1.73-.123-3.459-.142-5.189-.042-3.806-.05-7.613-.09-11.419-.007-.584.009-1.15.25-1.691.182-.405.443-.73.891-.853.132-.037.268-.059.405-.065 2.982-.127 5.963-.24 8.948-.1a31.05 31.05 0 0 0 1.526.035.92.92 0 0 1 .633.252c1.13 1.004 2.261 2.007 3.39 3.012.165.146.32.304.494.438.362.28.46.663.466 1.093.026 1.635.058 3.27.083 4.904.008.481.001.962.001 1.443l.074-.001ZM14.746 2.507c-.239-.021-.454-.054-.67-.057-1.732-.03-3.465-.055-5.196-.078-.784-.01-1.567-.018-2.35-.022-.397-.003-.796-.015-1.193.01-.529.032-.696.19-.794.716a5.298 5.298 0 0 0-.068 1.599c.03.259.045.52.045.78.009 4.877.016 9.753.02 14.629-.004.123.002.247.02.37.114.623.443.972 1.101.999 2.68.11 5.361.108 8.042.06 1.32-.024 2.64-.032 3.96-.046.329-.004.659.009.988-.008.544-.029.833-.324.827-.863-.006-.59-.051-1.179-.06-1.768-.013-.728.011-1.457-.01-2.184-.048-1.73-.134-3.458-.167-5.188-.027-1.428 0-2.857.002-4.286 0-.116-.013-.233-.017-.3-.913 0-1.779.007-2.644-.005a3.88 3.88 0 0 1-.815-.096c-.432-.1-.68-.37-.711-.837-.057-.822-.136-1.642-.21-2.462-.026-.312-.064-.623-.1-.963Zm3.841 3.223.036-.083L15.815 3.1l.42 2.77 2.352-.14Z"></path>
  <path d="M14.93 13.412c0 .865 0 1.73-.002 2.595.012.15-.001.302-.039.448-.1.28-.106.56-.107.85-.001.457-.207.632-.67.625a1.814 1.814 0 0 1-.934-.276c-.657-.4-1.308-.81-1.973-1.195-.7-.407-1.41-.796-2.123-1.178a.869.869 0 0 0-.43-.081c-.48.02-.958.078-1.439.094-.593.02-.806-.185-.783-.785.035-.905.064-1.813.17-2.71.068-.581.411-1.053 1.039-.984.78.085 1.407-.223 2.034-.624.939-.602 1.958-1.052 2.98-1.495.364-.158.726-.324 1.085-.497.464-.223.773-.095.89.41.068.307.11.62.127.935.076 1.288.14 2.577.208 3.866l-.034.002Zm-1.232-4.18c-.835.195-3.84 1.62-4.507 2.13v2.996c1.665.568 3.08 1.58 4.592 2.374 0-.431.002-.84 0-1.247-.005-1.742-.008-3.485-.02-5.228-.003-.34-.042-.68-.065-1.025ZM7.453 11.84c-.03.855-.06 1.672-.092 2.53l.858-.081v-2.724l-.766.275Z"></path>
  <path d="M18.34 13.095c-.023 1.205-.31 2.278-.888 3.27a1.44 1.44 0 0 1-.218.296.433.433 0 0 1-.496.093.374.374 0 0 1-.243-.43c.03-.175.079-.346.148-.509.287-.712.55-1.432.68-2.193.188-1.1-.052-2.153-.352-3.199a.332.332 0 0 0-.017-.038c-.116-.262-.214-.535-.492-.686a.25.25 0 0 1-.108-.354.469.469 0 0 1 .286-.182.541.541 0 0 1 .55.21c.199.258.414.522.535.82.384.92.592 1.905.615 2.902Z"></path>
  <path d="M16.784 12.594c.017.603-.123 1.158-.325 1.7-.047.128-.112.25-.193.36a.337.337 0 0 1-.406.114.302.302 0 0 1-.201-.325 1.99 1.99 0 0 1 .067-.402c.092-.372.2-.74.286-1.113.148-.634.002-1.22-.31-1.776-.06-.107-.147-.208-.174-.322-.021-.094-.003-.25.059-.294a.38.38 0 0 1 .333-.037c.14.083.261.196.352.332a2.74 2.74 0 0 1 .512 1.763Z"></path>
</svg>