<svg width="46" height="46" fill="currentColor" viewBox="0 0 24 24" xmlns="http://www.w3.org/2000/svg">
  <path d="M20.535 12.653c.023 2.02.052 4.042.063 6.063.003.714-.052 1.428-.057 2.143-.006 1.022-.8 1.646-1.734 1.665-1.896.04-3.794.085-5.69.075-2.228-.01-4.455-.069-6.682-.127a13.922 13.922 0 0 1-1.557-.166c-.629-.088-1.25-.808-1.272-1.493-.058-1.73-.123-3.462-.143-5.193-.041-3.81-.05-7.62-.09-11.428-.006-.585.007-1.152.249-1.694.18-.405.438-.734.887-.856.16-.042.322-.065.486-.07.7-.029 1.403-.031 2.102-.073 2.42-.144 4.84-.09 7.26-.01.329.011.66.029.988.019a.974.974 0 0 1 .708.276c1.244 1.105 2.48 2.219 3.738 3.307.434.377.584.814.59 1.376.02 2.062.078 4.124.12 6.186h.034ZM14.743 2.507c-.242-.02-.445-.046-.648-.05-1.732-.029-3.464-.055-5.196-.08-.783-.01-1.566-.015-2.349-.02-.398-.002-.797-.014-1.193.006-.554.029-.726.189-.825.732a5.348 5.348 0 0 0-.07 1.559c.033.3.049.602.05.905.008 4.852.014 9.705.018 14.558-.002.096.001.192.011.288.083.625.413 1.044 1.123 1.072 2.652.104 5.305.105 7.959.06 1.333-.022 2.667-.034 4-.049.316-.003.632.009.947-.005.633-.029.906-.3.9-.919-.01-1.085-.036-2.17-.058-3.255-.011-.563-.023-1.127-.042-1.69-.046-1.332-.117-2.664-.137-3.997-.023-1.484 0-2.97 0-4.454 0-.105-.01-.211-.016-.32a.92.92 0 0 0-.141-.022c-.838.017-1.677.043-2.515.048a3.196 3.196 0 0 1-.775-.089c-.518-.127-.68-.327-.735-.857-.05-.478-.082-.958-.124-1.437-.058-.642-.119-1.283-.184-1.984Zm3.846 3.23.017-.087-2.722-2.47-.063.041.405 2.658 2.363-.142Z"></path>
</svg>