<svg width="46" height="46" fill="currentColor" viewBox="0 0 24 24" xmlns="http://www.w3.org/2000/svg">
  <path d="M9.95 22.64a4.054 4.054 0 0 0-.402-.055c-1.003-.037-2.007-.055-3.009-.107a18.06 18.06 0 0 1-1.72-.18c-.608-.09-1.206-.817-1.239-1.478a52.484 52.484 0 0 1-.066-1.935c-.04-3.08-.076-6.159-.108-9.238-.02-1.8-.026-3.601-.055-5.402-.009-.525-.045-1.052.172-1.541.122-.29.288-.558.491-.796.214-.24.532-.326.861-.335.77-.021 1.54-.025 2.308-.076 2.584-.173 5.167-.034 7.752-.017a1.897 1.897 0 0 1 1.39.566c.836.796 1.734 1.525 2.601 2.288.33.29.635.61.973.89.325.272.442.617.45 1.018.026 1.168.048 2.336.077 3.504.046 1.87.115 3.737.14 5.607.017 1.36-.02 2.72-.035 4.081-.004.467-.019.935-.016 1.402.008 1.08-.848 1.674-1.75 1.69-1.65.027-3.298.04-4.947.062a3.59 3.59 0 0 0-.402.051H9.95Zm4.768-20.135c-.26-.02-.464-.046-.67-.049-1.745-.028-3.49-.053-5.237-.076a354.87 354.87 0 0 0-2.307-.023c-.398-.003-.797-.015-1.194.008-.532.03-.722.187-.793.712-.06.475-.087.955-.083 1.434-.002.535.051 1.07.055 1.606.012 1.732.017 3.464.016 5.197.002 2.941.003 5.883.002 8.825-.003.15.011.302.044.45.146.598.484.867 1.028.88.77.017 1.539.078 2.308.075 2.764-.01 5.527-.039 8.29-.058.797-.006 1.595.012 2.391-.006.603-.014.884-.306.878-.897-.014-1.291-.043-2.582-.068-3.874-.007-.384-.022-.769-.036-1.153-.045-1.209-.115-2.417-.132-3.626-.022-1.595 0-3.19 0-4.784a2.676 2.676 0 0 0-.022-.267c-.903 0-1.768.006-2.632-.004-.261 0-.521-.028-.776-.085-.536-.127-.701-.33-.757-.884-.047-.478-.08-.958-.122-1.437-.058-.64-.12-1.28-.183-1.964Zm1.157.686-.078.028.4 2.624c.446.046 2.107-.077 2.397-.181l-2.719-2.471Z"></path>
  <path d="M11.768 12.428c-1.402 0-2.804 0-4.206-.002a3.674 3.674 0 0 1-.575-.039c-.31-.05-.447-.192-.428-.405.016-.195.157-.293.464-.306.274-.01.55-.005.824-.015 1.868-.07 3.735-.162 5.603-.21 1.154-.03 2.309.002 3.464.014.373.004.581.234.444.502a.614.614 0 0 1-.37.28c-.373.09-.754.143-1.137.157-1.36.017-2.722.007-4.083.007v.017Z"></path>
  <path d="M6.611 14.593c-.075-.479.022-.605.459-.632.617-.038 1.234-.08 1.852-.082 2.473-.008 4.946-.007 7.419.003a8 8 0 0 1 .82.068.355.355 0 0 1 .344.347c.017.176-.095.322-.308.383a1.441 1.441 0 0 1-.406.053c-1.786-.015-3.571-.037-5.357-.052-1.278-.012-2.556-.012-3.833-.026-.327-.004-.652-.04-.99-.062Z"></path>
  <path d="M6.768 16.616c-.098-.334-.08-.432.139-.506.181-.061.372-.091.563-.09 1.704.02 3.409.035 5.112.077 1.346.034 2.691.103 4.037.157a2 2 0 0 1 .328.03.416.416 0 0 1-.003.825c-.136.022-.273.03-.41.021-.81-.031-1.621-.06-2.43-.105-1.4-.079-2.798-.176-4.197-.252-.74-.04-1.483-.05-2.224-.082-.3-.014-.6-.049-.915-.075Z"></path>
  <path d="M15.703 19.215c-.273-.012-.546-.02-.82-.039a2.596 2.596 0 0 1-.36-.066.267.267 0 0 1-.23-.294.298.298 0 0 1 .278-.305c.217-.027.435-.045.653-.058.41-.026.82-.049 1.23-.065a1.78 1.78 0 0 1 .367.029c.225.038.337.152.351.336a.374.374 0 0 1-.29.398 3.903 3.903 0 0 1-.647.088c-.177.013-.355.002-.532.002v-.026Z"></path>
  <path d="M7.345 9.496c.316 0 .631-.001.947.001.096 0 .208-.017.283.025a.53.53 0 0 1 .231.248.248.248 0 0 1-.166.331c-.127.046-.262.07-.398.069-.617-.02-1.233-.05-1.85-.083a1.47 1.47 0 0 1-.28-.058c-.135-.035-.245-.123-.198-.26a.528.528 0 0 1 .24-.235c.064-.036.162-.014.244-.014h.947v-.024Z"></path>
</svg>