<svg width="46" height="46" fill="currentColor" viewBox="0 0 24 24" xmlns="http://www.w3.org/2000/svg">
  <path d="M20.539 12.67c.022 1.993.051 3.987.062 5.98.004.728-.052 1.456-.058 2.185-.008 1.025-.81 1.642-1.738 1.661-1.883.039-3.766.084-5.65.075-2.241-.012-4.482-.07-6.723-.128a13.618 13.618 0 0 1-1.557-.167c-.628-.089-1.246-.811-1.268-1.496-.057-1.73-.123-3.462-.142-5.193-.042-3.81-.05-7.62-.09-11.428-.007-.585.008-1.152.25-1.693.181-.405.44-.733.89-.854.159-.041.322-.065.486-.07.701-.027 1.403-.026 2.102-.072 2.626-.172 5.252-.04 7.878-.018a1.858 1.858 0 0 1 1.356.551c.837.795 1.734 1.527 2.601 2.29.32.28.616.59.945.86.376.309.49.702.496 1.166.029 1.966.069 3.932.104 5.898.002.151 0 .302 0 .453h.056ZM14.746 2.48c-.238-.02-.44-.047-.644-.05-1.732-.03-3.464-.057-5.196-.08-.783-.012-1.566-.016-2.349-.02-.398-.003-.797-.016-1.193.005-.568.028-.734.193-.836.768a5.281 5.281 0 0 0-.06 1.559c.028.218.042.438.043.657.01 4.908.017 9.816.023 14.723a2.4 2.4 0 0 0 .014.37c.099.628.43 1.008 1.113 1.035 2.653.108 5.306.107 7.96.062 1.332-.022 2.666-.034 4-.05.329-.003.66.01.988-.006.592-.028.869-.313.863-.913-.01-1.043-.036-2.087-.057-3.13-.013-.605-.023-1.21-.043-1.815-.045-1.346-.117-2.691-.138-4.038-.023-1.47 0-2.941.001-4.412 0-.107-.01-.213-.015-.323a.802.802 0 0 0-.138-.024c-.838.016-1.676.043-2.515.048a3.218 3.218 0 0 1-.774-.089c-.52-.126-.68-.326-.74-.853-.018-.15-.019-.302-.033-.453-.088-.97-.179-1.94-.274-2.971Zm3.845 3.228.017-.087-2.721-2.47-.063.042.405 2.658 2.362-.143Z"></path>
  <path d="M16.53 17.08c-.439-.4-.852-.776-1.267-1.15-.153-.138-.314-.266-.466-.405a1.206 1.206 0 0 1-.187-.219c-.145-.219-.138-.456.01-.604a.45.45 0 0 1 .603-.01c.464.363.923.734 1.37 1.119.28.241.532.515.798.774.373.361.4.667.014 1.018-.62.563-1.268 1.093-1.907 1.634a4.127 4.127 0 0 1-.458.35c-.262.165-.546.127-.7-.077-.153-.202-.101-.48.146-.689.535-.45 1.078-.893 1.615-1.342.134-.113.257-.239.43-.4Z"></path>
  <path d="m7.38 17.116 1.752 1.018c.133.069.262.148.383.236.183.148.227.326.155.51-.082.208-.249.309-.494.277a.892.892 0 0 1-.31-.1c-.767-.427-1.536-.848-2.292-1.292-.396-.233-.435-.579-.141-.932.06-.074.135-.136.203-.204.676-.681 1.356-1.36 2.027-2.045.237-.241.432-.309.598-.172.168.139.18.361-.038.624-.454.55-.935 1.077-1.406 1.612-.126.143-.26.28-.437.468Z"></path>
  <path d="M13.08 13.988c.36-.074.498.005.499.324a3.886 3.886 0 0 1-.09.733c-.194 1.013-.541 1.98-.912 2.939-.143.37-.277.746-.45 1.103a1.398 1.398 0 0 1-.381.46c-.135.108-.32.08-.458-.035a.386.386 0 0 1-.131-.444 4.39 4.39 0 0 1 .233-.525c.646-1.259 1.199-2.554 1.52-3.938.04-.173.077-.348.118-.52a.528.528 0 0 1 .053-.097Z"></path>
</svg>