<svg width="46" height="46" fill="currentColor" viewBox="0 0 24 24" xmlns="http://www.w3.org/2000/svg">
  <path d="M20.524 12.63c.023 2.02.052 4.041.063 6.062.004.714-.053 1.429-.056 2.143-.005 1.026-.792 1.654-1.726 1.674-2.048.044-4.096.09-6.145.08-2.076-.008-4.152-.071-6.227-.131a13.095 13.095 0 0 1-1.598-.173c-.608-.093-1.207-.816-1.241-1.478a49.96 49.96 0 0 1-.067-1.894 3595 3595 0 0 1-.108-9.281c-.02-1.802-.026-3.603-.055-5.405-.009-.525-.042-1.05.172-1.541.115-.278.27-.537.463-.769.223-.254.548-.35.893-.36.756-.02 1.513-.024 2.267-.074 2.6-.173 5.197-.036 7.796-.018.556.003.979.182 1.39.572.836.795 1.733 1.525 2.601 2.288.32.28.615.591.943.862.364.3.47.685.477 1.132.028 1.897.065 3.795.098 5.692.004.206 0 .412 0 .618h.06ZM14.732 2.49c-.25-.02-.455-.045-.66-.049-1.731-.029-3.463-.055-5.195-.078a327.84 327.84 0 0 0-2.35-.021c-.397-.003-.796-.016-1.193.006-.548.03-.716.194-.815.743a5.242 5.242 0 0 0-.066 1.559c.029.232.044.465.045.7.016 4.673.03 9.347.041 14.021.001.33-.033.662-.006.989.05.628.394 1.074 1.131 1.103 2.64.103 5.279.103 7.918.06 1.348-.022 2.695-.034 4.042-.05.33-.004.66.01.989-.007.57-.028.851-.318.846-.887-.01-1.1-.036-2.198-.058-3.297-.011-.563-.024-1.127-.043-1.69-.045-1.318-.117-2.636-.136-3.955-.022-1.512 0-3.025.002-4.537a2.101 2.101 0 0 0-.022-.236c-.895 0-1.759.006-2.622-.004a3.68 3.68 0 0 1-.776-.083c-.54-.125-.71-.328-.766-.875-.048-.479-.08-.959-.123-1.438-.058-.641-.119-1.282-.183-1.974Zm3.841 3.232c.009-.028.017-.057.024-.085l-2.726-2.474-.062.038.405 2.662 2.36-.14Z"></path>
  <path d="m16.024 13.74-.265-.193c-.075.043-.18.072-.236.14-.21.235-.4.487-.568.754a3.453 3.453 0 0 0-.441 1.984c.049.686.69 1.125 1.356.964.454-.11.628-.465.5-1.098-.193-.083-.422-.17-.639-.279-.336-.167-.406-.539-.154-.78a.413.413 0 0 1 .21-.12c.49-.06.98-.141 1.472-.15.368-.006.58.32.447.617a.838.838 0 0 1-.247.262.991.991 0 0 1-.206.107c.024.236.075.453.063.667-.072 1.177-.774 1.746-1.898 1.688a1.865 1.865 0 0 1-1.796-1.859c-.004-1.21.374-2.298 1.262-3.168.253-.248.546-.42.916-.4.201.01.375.084.451.297.075.211.022.353-.227.568Z"></path>
  <path d="M11.131 16.672c0 .38.016.71-.006 1.035a1.479 1.479 0 0 1-.14.508c-.082.178-.252.245-.448.22-.181-.025-.316-.125-.341-.307a3.226 3.226 0 0 1-.033-.648c.056-.835.13-1.668.188-2.503.016-.243.037-.489-.106-.72-.048-.079-.031-.216-.008-.318.048-.213.12-.42.187-.646.726-.328 1.453-.42 2.171.054.754.497.996 1.436.513 2.199a3.898 3.898 0 0 1-.776.836c-.312.267-.705.355-1.2.29Zm.043-.915c.594-.067.994-.358 1.24-.854.125-.25.075-.51-.077-.74-.248-.377-.825-.547-1.272-.38l.11 1.974Z"></path>
  <path d="M8.626 14.109c.054.383.112.747.155 1.114.089.749.199 1.496.04 2.252-.105.5-.306.923-.83 1.08-.564.17-1.087.082-1.52-.351a1.672 1.672 0 0 1-.504-.924c-.043-.263.03-.445.209-.527.186-.087.346-.036.533.183.116.135.226.276.333.418.18.238.407.31.697.207.179-.19.223-.44.23-.682.02-.63.015-1.26.011-1.89-.001-.285-.025-.57-.04-.888h-.336c-.37-.002-.741.014-1.11-.013-.328-.023-.44-.134-.432-.335.008-.202.141-.292.452-.31.26-.016.52-.034.78-.055.478-.037.956-.08 1.435-.112.123-.006.247 0 .369.015a.305.305 0 0 1 .298.287.327.327 0 0 1-.208.366c-.185.064-.372.12-.562.165Z"></path>
</svg>