<svg width="46" height="46" fill="currentColor" viewBox="0 0 24 24" xmlns="http://www.w3.org/2000/svg">
  <path d="M20.614 13.623c.015 1.677.037 3.354.04 5.031 0 .729-.056 1.457-.058 2.185-.002 1.025-.77 1.664-1.714 1.685-2.24.05-4.482.093-6.722.086-1.898-.006-3.795-.075-5.692-.137a13.71 13.71 0 0 1-1.556-.17c-.607-.089-1.212-.808-1.253-1.467a32.123 32.123 0 0 1-.063-1.523A10447.906 10447.906 0 0 1 3.414 3.72a2.908 2.908 0 0 1 .365-1.421 1.298 1.298 0 0 1 1.166-.723c.728-.026 1.458-.028 2.185-.075 2.64-.172 5.28-.04 7.919-.02.544.004.952.187 1.351.564.839.793 1.734 1.525 2.602 2.288.33.29.635.61.973.891.34.282.447.643.454 1.058l.079 4.29c.02 1.017.044 2.034.065 3.051h.041ZM14.797 2.507c-.245-.019-.448-.045-.652-.049a1800.52 1800.52 0 0 0-5.196-.079A292.9 292.9 0 0 0 6.6 2.36c-.398-.003-.797-.015-1.193.006-.553.03-.723.19-.822.735a5.36 5.36 0 0 0-.069 1.56c.033.3.05.602.05.904.008 4.853.014 9.705.018 14.558-.003.096.001.192.011.288.086.627.415 1.04 1.126 1.069 2.64.104 5.278.105 7.918.061 1.347-.022 2.695-.034 4.042-.05.33-.004.66.009.988-.007.573-.028.86-.316.854-.88-.006-.604-.052-1.207-.062-1.811-.012-.701.012-1.403-.008-2.103-.05-1.759-.134-3.517-.168-5.275-.028-1.416 0-2.832.002-4.248 0-.105-.012-.21-.018-.318a1.044 1.044 0 0 0-.144-.02c-.838.017-1.677.043-2.515.048a3.173 3.173 0 0 1-.774-.09c-.516-.128-.678-.328-.733-.86-.049-.478-.08-.958-.124-1.437-.056-.642-.117-1.283-.182-1.982Zm1.482 3.376 2.465-.154-2.884-2.62.419 2.774Z"></path>
  <path d="M8.782 5.946c.59 0 1.181-.003 1.771.001.417.003.568.12.659.531.039.188.06.38.063.572.013.446-.168.674-.603.729-.382.048-.766.078-1.15.088-.591.015-1.183 0-1.774.01a5.614 5.614 0 0 0-.82.055c-.64.104-.959-.424-.944-.868.012-.22.037-.439.074-.655a.502.502 0 0 1 .422-.45 3.79 3.79 0 0 1 .652-.081c.55-.011 1.1-.004 1.65-.004v.072Zm1.314.884.01-.097c-1.106.04-2.21-.166-3.335-.013v.327c.128-.008.235-.009.34-.02.259-.03.516-.078.775-.091.59-.03 1.18-.042 1.77-.064.146-.007.292-.027.439-.041Z"></path>
  <path d="M13.83 18.246c-.988 0-1.977.003-2.965-.002a4.421 4.421 0 0 1-.695-.046c-.248-.04-.378-.188-.377-.365 0-.172.143-.338.378-.377.31-.057.624-.091.94-.102 1.907-.035 3.815-.061 5.722-.08.205-.002.41.023.61.071.251.06.363.22.356.435-.008.226-.161.379-.427.42a1.567 1.567 0 0 1-.247.013H13.83v.033Z"></path>
  <path d="M13.595 14.823c-1.1 0-2.198.002-3.296-.001-.165 0-.33-.014-.491-.044-.14-.027-.258-.106-.273-.268-.016-.18.098-.282.246-.34a.966.966 0 0 1 .282-.05c.725-.052 1.45-.125 2.177-.145 1.565-.042 3.13-.058 4.695-.08a1.54 1.54 0 0 1 .406.048c.276.071.396.224.384.457-.01.215-.132.357-.387.411a2.414 2.414 0 0 1-.49.046c-1.084.004-2.169.002-3.254.002v-.036Z"></path>
  <path d="M13.712 11.527h-3.546c-.083 0-.166.014-.248.006-.142-.014-.276-.05-.3-.224a.282.282 0 0 1 .197-.325c.22-.078.447-.131.677-.158a53.053 53.053 0 0 1 5.314-.174c.467.008.935.005 1.402.009.097-.003.193 0 .289.008.323.037.535.233.524.477-.01.234-.21.408-.518.439-.123.01-.247.011-.37.005-.77-.027-1.539-.06-2.308-.083-.37-.01-.742-.002-1.113-.002v.022Z"></path>
  <path d="M7.172 19.448a3.95 3.95 0 0 1-.393-.033c-.884-.157-1.264-.944-.84-1.736.43-.804 1.075-1.028 1.919-.666.558.239.843.737.751 1.315-.104.662-.498 1.046-1.133 1.106-.095.008-.191.009-.304.014Zm-.482-1.079c.289.19.594.171.898.075.16-.582-.097-.816-.759-.725-.148.182-.238.383-.139.65Z"></path>
  <path d="M8.485 11.155v.041c-.02.489-.124.948-.626 1.16-.56.234-1.114.187-1.587-.217-.413-.353-.534-.806-.39-1.34.19-.7.454-.925 1.21-.971.66-.04 1.127.22 1.316.76.05.185.084.373.103.563l-.026.004Zm-1.819-.447c-.175.328-.175.518-.008.724.2.246.488.3.892.17.181-.35.206-.634.028-.796-.276-.25-.597-.218-.912-.098Z"></path>
  <path d="M7.142 15.8c-.196-.03-.332-.044-.465-.074-.592-.13-.96-.55-.948-1.072.015-.629.375-1.058.977-1.193.552-.124 1.032-.007 1.435.391.58.574.415 1.474-.34 1.787-.222.093-.473.118-.659.162Zm-.493-1.626c-.094.215-.201.44.011.605.125.097.33.116.501.122.176.007.363-.026.427-.243-.138-.43-.25-.492-.94-.483Z"></path>
</svg>