<svg width="46" height="46" fill="currentColor" viewBox="0 0 24 24" xmlns="http://www.w3.org/2000/svg">
  <path d="M20.587 12.636c.023 2.02.052 4.042.063 6.063.003.714-.053 1.428-.057 2.143-.005 1.025-.797 1.65-1.73 1.67-1.91.04-3.821.085-5.732.075-2.214-.01-4.427-.07-6.64-.128a12.611 12.611 0 0 1-1.598-.173c-.607-.094-1.204-.82-1.236-1.482a55.312 55.312 0 0 1-.067-1.976c-.04-3.067-.076-6.133-.108-9.2-.02-1.8-.027-3.602-.055-5.404-.008-.51-.044-1.023.162-1.502a3.12 3.12 0 0 1 .447-.778c.228-.272.565-.375.924-.385.743-.02 1.486-.025 2.226-.074 2.613-.172 5.225-.038 7.837-.018.556.004.978.185 1.388.575.836.795 1.734 1.525 2.602 2.288.33.29.636.608.971.892.31.262.43.592.441.98.02.687.053 1.374.063 2.061.02 1.458.03 2.915.043 4.373h.056ZM14.795 2.493c-.242-.019-.445-.045-.649-.049-1.732-.029-3.464-.055-5.196-.08-.783-.01-1.566-.015-2.349-.02-.398-.002-.796-.015-1.193.006-.554.029-.725.189-.824.733a5.354 5.354 0 0 0-.07 1.559c.033.3.05.603.05.905.008 4.853.014 9.705.018 14.558-.002.096.001.192.011.288.083.625.413 1.043 1.124 1.071 2.653.105 5.305.106 7.959.06 1.333-.022 2.667-.033 4-.048.33-.004.66.008.989-.008.574-.027.862-.315.857-.876-.01-1.1-.037-2.198-.058-3.297-.012-.563-.023-1.127-.043-1.69-.045-1.332-.116-2.664-.136-3.997-.023-1.498 0-2.996.002-4.495 0-.092-.011-.184-.018-.278a.955.955 0 0 0-.142-.022c-.838.017-1.676.044-2.515.049a3.195 3.195 0 0 1-.775-.09c-.517-.127-.68-.327-.734-.858-.05-.478-.081-.958-.124-1.437-.058-.641-.119-1.283-.184-1.983Zm3.845 3.231.019-.086-2.723-2.471-.063.04.405 2.66 2.362-.143Z"></path>
  <path d="M6.047 6.116c0-.398-.01-.796.003-1.193.018-.524.17-.678.699-.712.738-.047 1.477-.085 2.215-.127.333-.019.574.145.649.502.067.364.115.731.142 1.1a11 11 0 0 1 .072 1.19 3.06 3.06 0 0 1-.141.799c-.082.28-.314.415-.596.424-.727.022-1.454.05-2.18.037-.68-.012-.809-.16-.857-.828a13.71 13.71 0 0 1-.031-.616c-.006-.192-.002-.384-.002-.576h.027Zm.94.993c.318.104 1.122.075 1.624-.057V4.974c-.434-.096-1.467-.088-1.775.017l.152 2.118Z"></path>
  <path d="M11.78 10.974c1.634.033 3.268.063 4.901.103.178.007.352.047.515.117a.4.4 0 0 1 .248.397.386.386 0 0 1-.274.376c-.224.06-.454.09-.686.09-1.276-.029-2.553-.087-3.83-.108-1.166-.02-2.334-.004-3.501-.008a96.803 96.803 0 0 1-2.142-.027 2.894 2.894 0 0 1-.565-.099.287.287 0 0 1-.233-.3.292.292 0 0 1 .222-.31c.131-.038.266-.06.403-.065 1.647-.044 3.294-.085 4.942-.124v-.042Z"></path>
  <path d="M6.161 13.482c.098-.305.331-.343.569-.359.507-.033 1.015-.075 1.523-.083 2.723-.04 5.446-.074 8.169-.102.191-.005.383.015.57.058a.45.45 0 0 1 .028.876 1.97 1.97 0 0 1-.524.087 86.446 86.446 0 0 1-1.939-.016c-2.379-.04-4.757-.082-7.136-.127-.302-.006-.603-.046-.903-.082-.186-.023-.185-.033-.357-.252Z"></path>
  <path d="M12.544 10.272c-1.169 0-2.338-.011-3.506.005-.535.008-1.07.073-1.604.106a9.32 9.32 0 0 1-.783.024c-.252-.005-.393-.109-.409-.265-.016-.162.097-.288.352-.322.694-.093 1.389-.202 2.087-.245 2.471-.151 4.946-.185 7.421-.165.22-.003.44.01.658.038.244.037.371.185.367.374-.003.19-.133.33-.378.36-.3.035-.602.054-.904.057-1.1.006-2.201.002-3.301.002v.031Z"></path>
  <path d="M15.527 18.028c-.371 0-.742.006-1.113-.001-.344-.007-.513-.127-.516-.345-.002-.219.163-.335.507-.357.685-.045 1.37-.093 2.056-.131a2.52 2.52 0 0 1 .532.024.353.353 0 0 1 .318.33c.02.198-.052.366-.237.438-.166.063-.34.099-.518.107-.343.016-.686.005-1.03.005v-.07Z"></path>
</svg>