<svg width="46" height="46" fill="currentColor" viewBox="0 0 24 24" xmlns="http://www.w3.org/2000/svg">
  <path d="M10.028 22.622c-.134-.018-.267-.049-.402-.053-1.003-.037-2.007-.056-3.009-.108a18.09 18.09 0 0 1-1.72-.179c-.608-.091-1.214-.817-1.237-1.479-.058-1.674-.124-3.348-.142-5.022-.042-3.86-.052-7.72-.09-11.58-.006-.568 0-1.122.228-1.654.18-.42.43-.77.895-.9.159-.044.321-.069.485-.075.742-.029 1.485-.025 2.225-.075 2.584-.174 5.168-.033 7.752-.017a1.897 1.897 0 0 1 1.391.566c.836.795 1.733 1.524 2.6 2.286.33.29.635.61.973.89.326.271.442.615.451 1.016.026 1.168.047 2.335.076 3.502.046 1.867.115 3.734.14 5.601.017 1.36-.02 2.719-.034 4.078-.005.467-.02.934-.016 1.4.008 1.085-.853 1.674-1.75 1.689-1.635.028-3.27.04-4.906.062a4.42 4.42 0 0 0-.443.052h-3.467Zm4.77-20.111c-.251-.021-.467-.052-.684-.055-1.718-.03-3.436-.056-5.154-.079-.783-.01-1.566-.015-2.35-.02-.397-.002-.796-.014-1.193.006-.568.028-.735.192-.837.765a5.25 5.25 0 0 0-.06 1.559c.028.218.042.437.043.657.01 4.903.017 9.807.023 14.71-.005.124 0 .247.014.37.097.625.427 1.008 1.111 1.036 2.667.107 5.333.107 8 .06 1.334-.023 2.667-.033 4-.047.33-.004.66.009.99-.008.541-.03.828-.326.822-.868-.006-.603-.051-1.206-.061-1.81-.012-.7.012-1.401-.008-2.101-.05-1.743-.135-3.486-.168-5.23-.027-1.427 0-2.856.001-4.285 0-.116-.013-.231-.017-.295-.918 0-1.783.007-2.649-.005a3.849 3.849 0 0 1-.815-.098c-.433-.1-.691-.373-.704-.84a6.77 6.77 0 0 0-.03-.453c-.088-.97-.178-1.94-.274-2.97Zm3.84 3.224.025-.086-2.725-2.471-.063.038.405 2.66 2.358-.141Z"></path>
  <path d="M15.778 17.685c.128-.552.235-1.04.356-1.525.051-.227.122-.449.21-.664a.943.943 0 0 1 .27-.354.416.416 0 0 1 .674.185c.064.18.082.372.051.56-.193.954-.407 1.903-.625 2.85a1.54 1.54 0 0 1-.2.491c-.259.397-.746.417-1.037.045a2.4 2.4 0 0 1-.287-.498c-.465-1.038-.922-2.08-1.384-3.12-.079-.177-.112-.345.058-.484.146-.119.396-.084.557.09.109.123.203.259.28.404.313.579.617 1.163.925 1.744.038.072.078.142.152.276Z"></path>
  <path d="M11.202 16.41c.27.123.534.233.788.362.292.148.611.272.855.48.566.485.744 1.097.335 1.8-.361.62-1.03.86-1.741.599a3.496 3.496 0 0 1-.59-.286.51.51 0 0 1-.262-.442c-.007-.313.21-.482.514-.39.18.067.362.124.548.17.379.068.57-.052.738-.42-.076-.284-.31-.4-.552-.508-.289-.127-.588-.233-.867-.38-.722-.378-.9-.956-.53-1.687.237-.464.588-.793 1.127-.868.21-.029.413.005.57.168a.373.373 0 0 1 .107.413c-.055.146-.17.194-.32.213-.467.063-.597.198-.72.775Z"></path>
  <path d="M8.7 18.818c.206 0 .412-.002.618 0 .299.004.471.127.52.365.048.236-.096.477-.382.554a4.106 4.106 0 0 1-1.591.133 3.42 3.42 0 0 1-.563-.12c-1.04-.318-1.546-1.075-1.421-2.153.095-.823.437-1.526 1.106-2.04.285-.22.605-.402.981-.362a.968.968 0 0 1 .47.205.302.302 0 0 1-.191.523c-.503.01-.81.304-1.046.693a2.172 2.172 0 0 0-.333 1.214c.017.497.21.76.688.902.185.05.375.082.567.094.19.016.384.003.576.003l.001-.01Z"></path>
</svg>