<svg width="46" height="46" fill="currentColor" viewBox="0 0 24 24" xmlns="http://www.w3.org/2000/svg">
  <path d="M20.533 12.694c.022 1.991.052 3.983.062 5.975.004.727-.052 1.455-.057 2.183-.008 1.027-.811 1.642-1.736 1.661-1.883.039-3.767.084-5.65.074-2.241-.011-4.482-.069-6.723-.126a13.666 13.666 0 0 1-1.557-.167c-.629-.088-1.247-.809-1.27-1.493-.057-1.73-.123-3.46-.142-5.19C3.418 11.807 3.41 8 3.37 4.194c-.007-.584.007-1.15.25-1.692.18-.405.44-.733.888-.854a2.22 2.22 0 0 1 .487-.07c.7-.028 1.402-.026 2.101-.073 2.627-.172 5.252-.04 7.879-.018a1.86 1.86 0 0 1 1.356.55c.847.803 1.755 1.542 2.631 2.315.36.318.703.657 1.058.981a.943.943 0 0 1 .325.687c.029.727.074 1.454.086 2.181.025 1.498.032 2.996.046 4.494h.056ZM14.74 2.52c-.173-.018-.295-.04-.417-.041a2669.03 2669.03 0 0 0-5.443-.096c-.783-.012-1.566-.016-2.349-.021-.398-.003-.796-.015-1.193.007-.547.031-.733.192-.805.747-.056.462-.082.927-.078 1.392-.001.535.051 1.07.055 1.605.012 1.634.014 3.269.015 4.903.002 3.036.003 6.071.003 9.107a1.88 1.88 0 0 0 .023.37c.124.612.45.944 1.084.97 2.694.113 5.388.11 8.083.061 1.32-.024 2.64-.031 3.959-.045.33-.004.66.01.988-.01.517-.03.807-.332.8-.847-.006-.645-.05-1.29-.06-1.934-.012-.673.011-1.346-.009-2.019-.05-1.73-.134-3.458-.167-5.188-.027-1.441 0-2.884.002-4.326 0-.105-.016-.209-.02-.274-.9 0-1.764.008-2.628-.004a4.092 4.092 0 0 1-.855-.105c-.418-.097-.655-.367-.682-.815-.03-.493-.08-.985-.124-1.477-.057-.642-.118-1.282-.182-1.96Zm3.829 3.22.044-.078-2.733-2.48-.063.031.408 2.67 2.344-.144Z"></path>
  <path d="M10.984 17.51c.04-1.123.079-2.246.123-3.368.015-.381.092-.425.477-.52 1.106-.273 1.925.152 2.582 1.01.05.065.095.134.147.198 1.33 1.66.144 3.642-1.415 4.037a9.188 9.188 0 0 1-1.008.2.756.756 0 0 1-.865-.628c-.057-.306-.09-.615-.135-.923l.094-.006Zm.827.535c.381.018.762-.049 1.114-.197 1.023-.446 1.376-1.483.822-2.444a4.224 4.224 0 0 0-.47-.672 1.657 1.657 0 0 0-1.194-.586c.075 1.321-.146 2.592-.272 3.899Z"></path>
  <path d="M7.676 17.218c-.029.316-.047.614-.086.91-.018.162-.06.322-.126.472a.37.37 0 0 1-.441.221c-.2-.049-.293-.193-.29-.396.01-.617.023-1.234.032-1.85.01-.631.019-1.262.021-1.893.001-.317.083-.587.343-.796.566-.454 1.198-.539 1.863-.312a2.258 2.258 0 0 1 1.3 1.141c.244.478.197.957-.112 1.401-.503.726-1.238 1.008-2.082 1.077-.134.01-.269.016-.422.025Zm-.144-2.73.091 1.852c.386-.071.722-.115 1.049-.198.301-.077.526-.282.71-.53a.508.508 0 0 0 .041-.575c-.348-.69-1.146-.937-1.89-.549Z"></path>
  <path d="M16.36 16.335c-.037.645-.063 1.219-.105 1.791-.007.15-.046.297-.113.43a.39.39 0 0 1-.699-.006.99.99 0 0 1-.111-.39c-.1-1.346-.036-2.69.083-4.032a2.36 2.36 0 0 1 .161-.55c.069-.196.244-.264.425-.272.783-.035 1.565-.072 2.348-.077.367-.002.555.179.549.429-.007.25-.206.403-.566.41-.563.01-1.127.007-1.69.01h-.358v1.277h.766c.137-.008.274-.005.41.008a.473.473 0 0 1 .418.442.485.485 0 0 1-.349.46 2.101 2.101 0 0 1-.487.067c-.217.011-.436.003-.683.003Z"></path>
</svg>