<svg width="46" height="46" fill="currentColor" viewBox="0 0 24 24" xmlns="http://www.w3.org/2000/svg">
  <path d="M20.541 12.663c.022 2.021.052 4.042.062 6.063.004.714-.052 1.429-.056 2.143-.006 1.025-.798 1.65-1.73 1.67-1.91.04-3.822.085-5.732.075a309.55 309.55 0 0 1-6.641-.128 12.613 12.613 0 0 1-1.597-.173c-.608-.095-1.204-.82-1.237-1.482a55.164 55.164 0 0 1-.067-1.976c-.04-3.067-.075-6.133-.107-9.2-.02-1.801-.027-3.603-.055-5.404-.008-.51-.045-1.023.162-1.502.11-.28.26-.541.446-.778.229-.272.565-.375.925-.385.742-.02 1.486-.025 2.226-.074 2.612-.172 5.224-.037 7.837-.018.555.004.978.186 1.388.575.836.795 1.734 1.525 2.601 2.288.33.29.637.608.972.892.31.262.43.592.44.98.021.687.054 1.374.064 2.061.02 1.458.029 2.916.043 4.373h.056ZM14.75 2.523c-.238-.02-.44-.048-.643-.051-1.732-.03-3.464-.056-5.196-.08-.783-.01-1.566-.015-2.35-.02-.397-.002-.796-.015-1.193.005-.567.03-.734.194-.836.768a5.279 5.279 0 0 0-.059 1.559c.027.218.041.438.043.658.009 4.908.016 9.815.022 14.723-.005.123 0 .247.014.37.099.627.43 1.008 1.113 1.035 2.653.107 5.306.107 7.96.062 1.346-.023 2.694-.034 4.04-.05.33-.003.66.01.99-.007.54-.03.826-.326.82-.87-.006-.604-.05-1.207-.06-1.811-.013-.701.011-1.403-.009-2.103-.05-1.745-.135-3.489-.168-5.234-.027-1.43 0-2.86.001-4.289 0-.115-.014-.23-.018-.306-.478 0-.903-.002-1.329 0-.44.002-.88.019-1.32.008a3.687 3.687 0 0 1-.775-.088c-.52-.127-.68-.326-.74-.854-.017-.15-.018-.301-.032-.452l-.275-2.973Zm1.482 3.373 2.37-.147.037-.08c-.938-.798-1.82-1.659-2.809-2.423l.402 2.65Z"></path>
  <path d="m11.211 14.863 2.381-2.266a2.058 2.058 0 0 0-.267-.03c-1.813.066-3.627.131-5.441.207-.411.017-.821.079-1.232.106a2.22 2.22 0 0 1-.489-.03.258.258 0 0 1-.238-.29.55.55 0 0 1 .164-.345.854.854 0 0 1 .424-.134c1.286-.115 2.571-.245 3.86-.321 1.153-.068 2.31-.075 3.464-.106.246-.006.494 0 .795 0 .39-.386.807-.804 1.23-1.216.276-.269.447-.303.734-.14a.89.89 0 0 1 .237.222c.284.354.563.712.842 1.07.336.429.29.721-.123 1.098-.76.693-1.505 1.401-2.329 2.171.677-.025 1.244-.047 1.81-.066.11-.005.22-.001.328.012a.344.344 0 0 1 .317.328c.02.184-.051.349-.223.398-.237.069-.48.108-.727.117-.768.029-1.538.037-2.354.053-.506.537-1.017 1.091-1.545 1.627a1.346 1.346 0 0 1-.483.295c-.412.153-.85.24-1.25.418-.64.284-1.305.269-1.978.276-.784.008-1.567.046-2.35.063a1.966 1.966 0 0 1-.49-.047.33.33 0 0 1-.28-.358.35.35 0 0 1 .3-.345 2.18 2.18 0 0 1 .41-.028c1.154-.029 2.309-.055 3.463-.086.108-.003.215-.027.339-.043.137-.563.136-1.12.133-1.738h-.458c-1.142.002-2.283.008-3.425.003a2.01 2.01 0 0 1-.522-.082.3.3 0 0 1-.222-.35.285.285 0 0 1 .27-.265 4.6 4.6 0 0 1 .573-.072 345.72 345.72 0 0 1 3.38-.104c.328-.01.657-.002.972-.002Zm3.76-2.65c-1.176 1.127-2.39 2.144-3.506 3.295l1.239.989 3.105-3.207-.838-1.076Zm.664-.468.896.84.535-.502-.787-1.118-.644.78Zm-4.453 4.285c.01.414-.073.753.022 1.092.465-.071.61-.125.838-.31l-.86-.782Z"></path>
  <path d="M11.877 9.861c-1.167.056-2.334.121-3.502.167-.632.024-1.265.017-1.898.022a.818.818 0 0 1-.204-.02A.326.326 0 0 1 6 9.71a.334.334 0 0 1 .29-.346c.08-.013.163-.02.246-.02 1.619-.098 3.237-.203 4.856-.293.906-.05 1.814-.072 2.72-.112.894-.039 1.786-.087 2.679-.124a4.85 4.85 0 0 1 .781.006c.293.033.431.19.429.412-.003.225-.14.361-.437.398a9.95 9.95 0 0 1-.863.073c-1.608.06-3.216.115-4.824.168l-.001-.011Z"></path>
</svg>