<svg width="46" height="46" fill="currentColor" viewBox="0 0 24 24" xmlns="http://www.w3.org/2000/svg">
  <path d="M6.423 2.487c.043-.14.069-.23.098-.32A2.518 2.518 0 0 1 9.578.522c.4.113.723.335.909.72.177.37.347.742.526 1.124.05.01.102.018.154.022 1.25.027 2.501.052 3.752.077.083.002.165.006.248 0 .502-.031.871.19 1.236.53.855.794 1.755 1.54 2.632 2.311.33.29.635.61.973.89.34.282.447.642.456 1.057.023 1.194.045 2.389.074 3.583.046 1.826.115 3.652.139 5.478.018 1.358-.02 2.718-.033 4.077-.005.48-.017.961-.018 1.442-.003 1.032-.829 1.635-1.742 1.652-1.855.035-3.71.083-5.565.073-2.282-.013-4.563-.07-6.844-.128a13.03 13.03 0 0 1-1.515-.164c-.628-.09-1.245-.811-1.268-1.495-.057-1.729-.122-3.458-.141-5.187-.042-3.804-.05-7.61-.09-11.413-.007-.585.007-1.15.246-1.692.186-.422.462-.75.924-.873.16-.036.324-.056.489-.06.424-.023.849-.039 1.303-.06Zm-.086.848c-.306 0-.577-.01-.847.002-.6.029-.774.185-.877.771a5.35 5.35 0 0 0-.064 1.518c.032.3.049.602.05.904.008 4.85.014 9.701.018 14.551a2.32 2.32 0 0 0 .012.289c.083.625.413 1.04 1.124 1.069 2.654.105 5.308.105 7.962.06 1.334-.023 2.669-.034 4.002-.049.33-.004.66.009.989-.007.572-.028.857-.317.85-.883-.006-.631-.05-1.262-.061-1.893-.012-.673.011-1.347-.008-2.02-.05-1.744-.135-3.487-.168-5.23-.027-1.43 0-2.859.002-4.288 0-.104-.015-.209-.023-.314a1.476 1.476 0 0 0-.148-.014c-.852.016-1.705.05-2.557.043a3.795 3.795 0 0 1-.926-.162c-.308-.082-.475-.31-.51-.63-.01-.096-.025-.191-.033-.287-.071-.834-.138-1.67-.212-2.504-.023-.255-.065-.51-.104-.808l-3.659-.083c0 .154.002.261 0 .368-.007.563.009 1.127-.028 1.688a4.588 4.588 0 0 1-.482 1.776c-.195.388-.491.66-.943.716-.597.075-1.136-.18-1.417-.714a3.164 3.164 0 0 1-.282-.81c-.149-.698-.04-1.394.074-2.086.02-.122.063-.239.125-.345a.482.482 0 0 1 .526-.242.453.453 0 0 1 .395.37c.021.149.025.299.01.448-.019.534-.052 1.067-.058 1.601.009.164.047.325.114.475.063.162.189.23.389.13.448-1.073.333-2.214.335-3.34-.45-.093-2.156-.057-2.482.048-.082.967-.158 1.939-.252 2.909a11.4 11.4 0 0 1-.185 1.22c-.06.29-.28.448-.486.412-.203-.036-.324-.209-.331-.504-.005-.192.008-.384.016-.576.05-1.18.1-2.359.15-3.58ZM18.676 6.71l.017-.087-2.721-2.467-.063.041.405 2.656 2.362-.143ZM9.734 2.376c-.091-.232-.154-.427-.244-.608a.521.521 0 0 0-.214-.233c-.665-.318-1.565.15-1.736.916l2.193-.075Z"></path>
</svg>