<svg width="46" height="46" fill="currentColor" viewBox="0 0 24 24" xmlns="http://www.w3.org/2000/svg">
  <path d="M16.156 11.442c.27-.269.49-.517.742-.728.305-.26.627-.5.964-.716.435-.272.786-.135.913.369.177.699.319 1.407.458 2.115.261 1.329.326 2.655-.114 3.963-.791 2.356-2.392 3.851-4.808 4.436-.909.222-1.829.395-2.756.52-4.655.617-7.217-3.035-7.502-5.895-.214-2.143.457-4.028 1.627-5.735.768-1.12 1.73-2.105 2.6-3.155.527-.639 1.064-1.271 1.554-1.938.385-.524.56-1.146.67-1.787a.6.6 0 0 1 .227-.375c.056-.036.233.106.348.178.193.12.38.25.57.374 2.149 1.4 3.442 3.399 4.058 5.853.182.724.269 1.471.399 2.208.015.086.027.173.05.313ZM11.096 3.5c-.202 1.126-.742 2.027-1.419 2.853-.653.797-1.323 1.58-1.988 2.367-1.056 1.247-1.888 2.61-2.377 4.188-1.086 3.51 1.206 7.897 5.824 7.6 1.25-.081 2.495-.09 3.668-.677 1.886-.943 3.162-2.34 3.607-4.435.322-1.517-.13-2.957-.415-4.476-.776.61-1.361 1.286-1.7 2.156-.069.175-.127.354-.21.521-.102.212-.278.333-.52.283-.268-.055-.366-.254-.357-.507.01-.268.039-.534.053-.801.13-2.364-.384-4.571-1.634-6.59A7.275 7.275 0 0 0 11.096 3.5Z"></path>
  <path d="M19.04 3.423c.094.285.187.572.285.856.203.59.474 1.167.601 1.773.26 1.247-.392 2.227-1.615 2.549-.414.109-.701-.047-.857-.44a2.462 2.462 0 0 0-.258-.484c-.666-.97-.824-1.975-.273-3.059.36-.704.887-1.27 1.44-1.813.102-.1.335-.165.458-.118.125.048.21.246.275.395.04.09.008.21.008.318l-.065.023Zm-.781.61c-.919.902-1.46 2.321-.256 3.614.752-.225 1.042-.662.978-1.423-.067-.789-.423-1.476-.722-2.19Z"></path>
  <path d="M12.486 14.062c.204-.484.393-.923.575-1.365.097-.235.223-.435.51-.442.263-.006.411.164.525.373.56 1.021 1.095 2.056 1.335 3.207.404 1.936-.795 3.772-2.712 4.234-1.317.318-2.562.107-3.733-.496-1.338-.688-1.934-1.898-2.02-3.342-.164-2.763 1.662-5.556 4.247-6.586.198-.08.388-.192.594-.237.166-.037.41-.062.51.03a.674.674 0 0 1 .166.526c-.049.34-.183.668-.273 1.004-.318 1.195-.243 2.103.276 3.094Zm-1.145-3.623a2.118 2.118 0 0 0-.195.084c-2.032 1.107-3.03 2.906-3.247 5.125-.188 1.923 1.024 3.393 2.923 3.77.09.023.185.026.277.007.6-.176 1.212-.327 1.795-.55 1.12-.43 1.744-1.55 1.573-2.731-.13-.898-.5-1.71-.89-2.516-.008-.016-.045-.018-.143-.054-.136.462-.286.914-.4 1.376-.099.4-.477.565-.812.322a.814.814 0 0 1-.193-.2c-.515-.77-.89-1.602-.886-2.536.002-.687.125-1.373.198-2.097Z"></path>
</svg>