<svg width="46" height="46" fill="currentColor" viewBox="0 0 24 24" xmlns="http://www.w3.org/2000/svg">
  <path d="M21.64 13.46c-.207-1.49-.42-3.031-.387-4.578.012-.534-.216-.998-.677-1.376a2.938 2.938 0 0 0-1.904-.678c-.556-.002-1.12.012-1.666.026l-.852.02c-.184.002-.367.002-.562 0h-.178l-.023-.159c-.08-.568-.204-1.232-.524-1.85-.326-.633-.843-.946-1.535-.93l-.716.014c-.86.018-1.75.035-2.625.078a6.11 6.11 0 0 0-1.044.175c-.076.017-.153.035-.23.051a1.086 1.086 0 0 0-.85.822 5.33 5.33 0 0 0-.158.992c-.018.267-.014.53-.01.806l.004.25-.519.051c-.487.048-.965.096-1.444.142-.725.072-1.476.145-2.213.38-.83.266-1.275.835-1.359 1.741-.02.217-.026.438-.032.651l-.003.095c-.004.138-.01.276-.016.414-.015.34-.03.69-.014 1.037.053 1.164.118 2.347.181 3.491.029.51.056 1.021.084 1.531.01.195.017.39.024.584.014.39.029.795.071 1.192.089.822.514 1.279 1.339 1.437.319.061.643.092.968.092h.038c2.645-.02 5.38-.048 8.127-.082 1.584-.02 3.222-.04 4.87-.09.737-.023 1.485-.109 2.145-.184.707-.08 1.219-.463 1.478-1.105a3.55 3.55 0 0 0 .247-.857c.171-1.39.16-2.797-.035-4.184Zm-4.206-5.796a10.43 10.43 0 0 1 1.323.019c.302.03.615.17.882.302.39.192.558.49.58 1.025.046 1.081.152 2.223.342 3.703l.028.213c.15 1.158.305 2.355.236 3.542a8.94 8.94 0 0 1-.134 1.21c-.148.736-.386.954-1.105 1.014-1.406.117-2.581.19-3.697.227-1.254.043-2.531.065-3.766.087l-1.841.035c-.718.016-1.436.034-2.155.053l-.858.021v-.021h-.755c-.522.002-1.06.003-1.59-.004a6.456 6.456 0 0 1-.847-.067c-.518-.076-.663-.23-.7-.75-.022-.288-.036-.583-.05-.867a43.496 43.496 0 0 0-.037-.696c-.025-.376-.052-.752-.08-1.128a60.016 60.016 0 0 1-.186-5.82c.007-.348.125-.96.838-1.16.494-.147.997-.262 1.506-.342a46.869 46.869 0 0 1 5.532-.43 355.06 355.06 0 0 0 3.934-.097 919.203 919.203 0 0 1 2.6-.07Zm-3.282-2.52c.271.566.328 1.164.338 1.733h-.543l-.016-.11c-.024-.163-.05-.33-.08-.497-.164-.904-.656-1.355-1.546-1.419a8.282 8.282 0 0 0-2.287.16c-.658.138-.928.44-.995 1.115-.023.224-.037.449-.052.687l-.015.237h-.449v-.017c-.039-.635-.075-1.235.196-1.808a.505.505 0 0 1 .276-.235 4.96 4.96 0 0 1 1.099-.214 99.969 99.969 0 0 1 2.719-.068l.655-.01c.332-.006.55.135.7.446Zm-4.22.888a.272.272 0 0 1 .244-.22l.155-.023c.346-.05.704-.103 1.056-.129.137-.01.28-.015.43-.015.17 0 .348.006.54.02.388.026.522.15.599.554l.003.02a1 1 0 0 1 .023.163c.002.145.002.29.002.45v.09l-3.182.088a3.46 3.46 0 0 1 .13-.998Z"></path>
  <path d="M14.068 9.914c-1.275-.467-2.345-.61-3.365-.45-.942.148-1.71.581-2.283 1.289A4.623 4.623 0 0 0 7.381 13.6c-.035 1.25.517 2.19 1.64 2.796.67.36 1.383.448 2.25.469h.013c.068-.006.143-.011.223-.016.199-.013.424-.027.65-.063 1.111-.176 1.981-.591 2.658-1.268 1.374-1.373 1.075-3.654.344-4.705-.314-.45-.67-.744-1.091-.899ZM9.613 15.68c-.912-.388-1.384-1.145-1.327-2.133a4.164 4.164 0 0 1 .549-1.863 2.923 2.923 0 0 1 1.831-1.41 1.94 1.94 0 0 1 .497-.068c.087 0 .173.007.258.023a23.77 23.77 0 0 1 1.867.461c.757.215 1.245.749 1.45 1.587.38 1.558-.245 2.809-1.674 3.346a7.072 7.072 0 0 1-1.094.282c-.172.03-.345.049-.52.055-.08.005-.16.01-.24.017a3.83 3.83 0 0 1-1.597-.297Z"></path>
  <path d="M11.735 14.966c.225-.021.37-.194.368-.44 0-.217-.011-.436-.022-.648l-.015-.34a5.54 5.54 0 0 1-.001-.236v-.014l.113-.009a13.522 13.522 0 0 0 .581-.052c.179-.008.355-.038.526-.09.157-.053.27-.266.29-.399a.313.313 0 0 0-.066-.25.424.424 0 0 0-.308-.144 2.94 2.94 0 0 0-.47.018c-.2.021-.398.047-.608.075l-.157.02-.004-.042c-.01-.109-.019-.212-.034-.314-.045-.308-.097-.62-.147-.921l-.002-.012c-.054-.33-.236-.384-.378-.373-.297.024-.303.295-.306.426l-.001.037c-.001.057.001.114.008.171l.006.085.043.874.008.168-.025.005c-.073.015-.13.026-.188.034l-.46.06c-.277.036-.564.072-.846.116-.393.061-.49.177-.488.594v.103l.101.016c.395.063.772.018 1.172-.03a6.69 6.69 0 0 1 .774-.062v.042c-.005.11-.003.221.005.332.02.275.053.549.1.82.046.241.19.381.39.381.013 0 .027 0 .04-.002Z"></path>
</svg>