<svg width="46" height="46" fill="currentColor" viewBox="0 0 24 24" xmlns="http://www.w3.org/2000/svg">
  <path d="M22.686 12.767a47.915 47.915 0 0 0-.159-4.457c-.163-1.864-1.201-2.891-3.004-2.97-.765-.035-1.544-.009-2.298.015a64.78 64.78 0 0 1-1.045.029c-.111.002-.223 0-.319 0h-.053c-.04-.112-.077-.221-.114-.329a22.686 22.686 0 0 0-.28-.783c-.226-.582-.644-.868-1.245-.854-.565.015-1.139.026-1.694.036-.85.015-1.728.031-2.592.063-.81.03-.982.252-1.15 1l-.217.966H8.25l-.626.001c-.246.001-.493.002-.74.001-.596 0-1.212 0-1.818.02a5.926 5.926 0 0 0-2.147.49c-.955.409-1.433 1.082-1.46 2.057-.018.661-.044 1.333-.069 1.983-.021.566-.044 1.15-.061 1.726-.01.309-.01.623-.01.927-.002.534-.002 1.086-.052 1.623-.124 1.358-.102 2.448.07 3.43.154.888.57 1.605 1.202 2.074.575.44 1.273.688 1.997.71.377.01.755.022 1.133.035.94.03 1.91.061 2.866.069a716.782 716.782 0 0 0 8.21.019 42.782 42.782 0 0 0 3.011-.129c1.407-.104 2.363-.876 2.764-2.232.136-.454.21-.924.216-1.398.004-.69-.01-1.39-.025-2.067a77.668 77.668 0 0 1-.024-2.055Zm-8.103-7.312h-5.07c.202-.89.216-.89 1.146-.924a72.953 72.953 0 0 1 2.035-.037c.425-.004.865-.008 1.298-.017.228-.004.323.069.37.292.042.18.097.356.164.528l.057.158Zm6.948 11.474a3.106 3.106 0 0 1-.348 1.468c-.215.418-.53.666-.946.737-.451.09-.91.144-1.37.16-1.633.013-3.293.011-4.898.01a2018.727 2018.727 0 0 0-3.515 0c-1.433 0-2.913.001-4.37-.007A15.472 15.472 0 0 1 4.45 19.2c-1.01-.114-1.726-.817-1.917-1.88-.213-1.182-.189-2.394-.165-3.565.004-.205.008-.41.01-.614.018-1.23.068-2.48.116-3.689l.036-.922c.044-1.17.259-1.443 1.349-1.72a8.78 8.78 0 0 1 2.054-.278c1.439-.017 2.901-.015 4.316-.013 1.154.002 2.346.004 3.52-.005a54.603 54.603 0 0 0 1.997-.064c.52-.024 1.06-.048 1.589-.059.725-.015 1.476-.03 2.211.046 1.079.111 1.575.613 1.714 1.73.085.609.138 1.222.16 1.838.032 1.652.05 3.332.07 4.957.006.655.014 1.311.022 1.967Z"></path>
  <path d="m15.875 11.27-.055.001c-.078.002-.157.003-.236.007l-.92.047-1.674.084c-.095.005-.19.004-.301.003l-.1-.001-.012-.463c-.01-.402-.02-.792-.028-1.182-.002-.085 0-.174.003-.26a2.635 2.635 0 0 0-.028-.575.651.651 0 0 0-.368-.427.36.36 0 0 0-.299.018.499.499 0 0 0-.231.328 2.819 2.819 0 0 0-.091.627c-.008.47-.007.945-.005 1.446v.538l-2.99-.092c-.034-.001-.07-.005-.105-.008a.709.709 0 0 0-.29.011c-.108.036-.273.146-.3.28a.462.462 0 0 0 .156.393.842.842 0 0 0 .425.146c.412.048.828.085 1.235.111.452.03.908.052 1.349.074l.475.024v.732c0 .62.001 1.224-.001 1.828-.002.36.053.776.495.811a.508.508 0 0 0 .394-.122c.147-.127.228-.342.243-.639.028-.54.036-1.09.043-1.621l.01-.644c.002-.09.002-.181.001-.28v-.068l.071-.004c.096-.006.187-.011.275-.012.226-.001.452 0 .678 0 .468.001.951.002 1.427-.012.307-.014.612-.06.909-.14.296-.073.447-.298.395-.586-.07-.382-.43-.374-.55-.373Z"></path>
</svg>