<svg width="46" height="46" fill="currentColor" viewBox="0 0 24 24" xmlns="http://www.w3.org/2000/svg">
  <path d="m9.597 14.114-5.876.204v.388c-.02 1.907-.038 3.814-.064 5.722a3.036 3.036 0 0 1-.086.638.504.504 0 0 1-.47.386.51.51 0 0 1-.504-.343 2.068 2.068 0 0 1-.114-.59c-.026-1.042-.054-2.083-.047-3.125.02-2.895.052-5.79.094-8.684.025-1.569.094-3.137.152-4.705.011-.27.045-.539.102-.803.08-.373.241-.5.622-.517.38-.018.762-.026 1.144-.031 2.45-.034 4.902-.067 7.354-.098l.286-.007c.65-.02.88.124.973.901.043.36.064.724.097 1.113.091.014.183.022.274.024 1.837-.076 3.674-.154 5.511-.233.544-.023 1.088-.06 1.632-.078.516-.017.711.18.733.689.065 1.512.167 3.024.196 4.538.03 1.554-.009 3.11-.015 4.665 0 .105.016.21.044.313.116.43-.047.714-.496.797-.269.045-.54.072-.812.083-1.795.105-3.588.223-5.384.303-1.482.066-2.966.141-4.45.012l-.041-.004c-.688-.036-.842-.195-.855-.89-.004-.213 0-.426 0-.668ZM20.564 5.38l-10.227.37c.022.427.036.844.065 1.26.085 1.255.199 2.507.26 3.763.058 1.188.064 2.379.093 3.568.003.144.012.287.02.475 3.263-.075 6.47-.365 9.712-.595l.077-8.841ZM3.736 3.523v.488c.014 1.325.042 2.65.04 3.975-.004 1.677-.034 3.354-.05 5.03.005.092.015.183.031.273l5.838-.322c-.026-.803-.039-1.56-.078-2.314-.086-1.634-.152-3.267-.071-4.904a1.439 1.439 0 0 1 .6-1.138c.29-.224.586-.441.875-.666.113-.087.217-.186.363-.313l-7.548-.109Zm8.647.328-.844.783h.805c.017-.074.03-.149.037-.224.005-.16.002-.32.002-.56Z"></path>
</svg>