<svg width="46" height="46" fill="currentColor" viewBox="0 0 24 24" xmlns="http://www.w3.org/2000/svg">
  <path d="M3.926 14.28v.511l.01 5.699c.002.135-.013.27-.046.401-.075.29-.257.439-.51.44-.251 0-.446-.151-.513-.434a2.57 2.57 0 0 1-.056-.523c-.112-4.083-.124-8.166-.091-12.25.012-1.546-.062-3.092-.101-4.638-.01-.391.13-.586.548-.673a6.526 6.526 0 0 1 2.509-.041c1.11.192 2.19.525 3.215.991 1.172.542 2.38.972 3.667 1.176 1.969.313 3.896.14 5.808-.378.68-.184 1.371-.329 2.061-.475.16-.023.322-.017.479.017a.472.472 0 0 1 .407.446c.037.31.078.62.084.93.03 1.533.076 3.066.062 4.598-.013 1.519-.083 3.037-.143 4.556-.021.554-.29.96-.85 1.104-.827.212-1.656.418-2.49.598-1.837.394-3.675.253-5.509-.037-1.438-.227-2.824-.643-4.187-1.15-1.237-.462-2.51-.786-3.834-.866-.159-.01-.318-.001-.52-.001Zm16.506-8.887a1.173 1.173 0 0 0-.141.015c-.442.129-.884.26-1.327.387-2.476.708-4.966.839-7.48.203-1.06-.268-2.052-.699-3.029-1.17a11.83 11.83 0 0 0-3.208-1.002 5.27 5.27 0 0 0-1.45-.027c0 .54-.012 1.04.002 1.538.037 1.328.101 2.656.125 3.985.02 1.152 0 2.306-.002 3.459v.46c.185 0 .318-.004.451 0 .353.014.707.01 1.057.05 1.192.136 2.331.48 3.46.877 3.277 1.156 6.61 1.6 10.033.7.455-.12.908-.245 1.362-.369.175-3.06.03-6.068.147-9.106Z"></path>
</svg>