<svg width="46" height="46" fill="currentColor" viewBox="0 0 24 24" xmlns="http://www.w3.org/2000/svg">
  <path d="M11.135 21.352c-.88 0-1.76-.009-2.64.002-1.25.015-2.5.05-3.751.063-.41.003-.82-.037-1.23-.059a.935.935 0 0 1-.164-.024c-.99-.23-1.314-.884-.854-1.786a9.74 9.74 0 0 1 .756-1.226c1.606-2.25 3.271-4.453 5.083-6.542.072-.083.135-.174.21-.254a.925.925 0 0 0 .261-.738c-.026-.616.025-1.236.034-1.854.022-1.58.036-3.162.06-4.743.005-.356.041-.712.058-1.069.015-.292.182-.45.449-.515.158-.045.321-.07.486-.077 1.238.004 2.475.007 3.712.035.695.016.865.184.922.883.071.89.124 1.783.164 2.675.07 1.51.127 3.021.175 4.532.008.256.149.401.296.562.872.954 1.763 1.891 2.612 2.865 1.274 1.46 2.5 2.962 3.592 4.566a2.8 2.8 0 0 1 .373.816c.174.628-.042 1.13-.645 1.386-.41.173-.864.255-1.307.332-1.212.21-2.437.18-3.66.17-1.664-.015-3.328-.004-4.992-.004v.004Zm-7.598-1.274c.374.173.787.248 1.198.219 1.167-.043 2.336-.032 3.504-.045.948-.01 1.896-.034 2.844-.032.7.001 1.4.046 2.101.052 1.169.01 2.338-.013 3.506.013 1.126.029 2.253-.03 3.37-.176.854-.113.962-.295.464-.99-.695-.97-1.434-1.91-2.149-2.867-.193-.26-.38-.503-.764-.424-.085.018-.186-.037-.278-.063-.437-.12-.877-.23-1.31-.367-.782-.247-1.544-.183-2.295.123a5.35 5.35 0 0 0-.53.226c-.89.483-1.843.522-2.808.368a16.539 16.539 0 0 1-1.842-.423c-.996-.278-2.071.069-2.664.9-.56.782-1.122 1.561-1.667 2.353-.24.35-.438.727-.68 1.133ZM9.603 3.404c.03.718.06 1.39.089 2.06.07 1.607.116 3.215.223 4.82a2.594 2.594 0 0 1-.615 1.9c-.096.118-.185.24-.28.358l-1.642 2.066c-.061.077-.106.166-.181.286a3.83 3.83 0 0 1 1.683.044c.53.146 1.067.26 1.61.34.755.101 1.507.097 2.21-.286.282-.142.573-.266.871-.37.79-.304 1.6-.389 2.428-.189.34.082.675.184 1.011.276a25.518 25.518 0 0 0-1.47-1.744c-.461-.509-.914-1.029-1.408-1.504-.218-.209-.342-.418-.352-.706-.026-.742-.056-1.483-.074-2.225-.035-1.457-.06-2.914-.094-4.371-.006-.245-.033-.488-.052-.755H9.603Z"></path>
</svg>