<svg width="46" height="46" fill="currentColor" viewBox="0 0 24 24" xmlns="http://www.w3.org/2000/svg">
  <path d="M18.147 7.677c-.191-.131-.447-.15-.722-.055-.16.058-.313.131-.46.218l-.349.199c-.649.37-1.32.752-1.972 1.141a8.198 8.198 0 0 0-.956.665.729.729 0 0 1-.497.193h-.005c-1.21-.006-2.44-.005-3.63-.005l-1.236.001v.027l-1.245.023c-1.167.021-2.334.043-3.5.066-.46.009-.717.215-.81.647a4.492 4.492 0 0 0-.114.873 95.003 95.003 0 0 0-.002 2.437c.004.514.218.761.715.828.399.057.8.087 1.203.088.636-.006 1.281-.027 1.906-.047l.981-.03.5-.013a1126.2 1126.2 0 0 1 5.439-.134c.191-.009.382.024.56.095.656.292 1.318.598 1.959.895l1.073.494c.141.063.288.113.439.15.083.023.168.035.254.037.23 0 .371-.118.466-.37.1-.278.158-.57.17-.865l.005-.11a133.3 133.3 0 0 0 .167-3.933 52.179 52.179 0 0 0-.04-2.891c-.008-.276-.114-.497-.299-.624Zm-.691 1.163-.28 6.155-2.742-1.126-.214-3.269 3.236-1.76Zm-13.44 5.235-.445-.03c-.128-.607-.116-2.4.02-3.025l.573-.026-.148 3.08Zm9.26-3.33v3.044l-7.986.284a16.168 16.168 0 0 1-.143-1.874c-.015-.394-.03-.8-.064-1.21 1.33-.096 2.675-.104 3.975-.112 1.381-.009 2.809-.017 4.217-.132Z"></path>
  <path d="M20.812 11.06c-.463.042-.92.122-1.266.187a.42.42 0 0 0-.36.428c.001.217.14.371.372.413.156.025.314.042.472.049.075.005.153.01.236.017l.009.001.009-.001c.058-.008.12-.014.184-.02.172-.013.343-.041.51-.084.285-.081.435-.32.373-.593a.48.48 0 0 0-.54-.396Z"></path>
  <path d="M19.277 9.216c.02.01.04.02.06.033l.03.019.034-.009c.04-.01.077-.017.11-.024a.644.644 0 0 0 .188-.056l.069-.036c.346-.186.704-.377 1.046-.585.137-.088.253-.207.336-.348a.389.389 0 0 0 .023-.403.37.37 0 0 0-.352-.166 1.137 1.137 0 0 0-.497.157c-.262.154-.516.329-.762.497l-.178.121a.788.788 0 0 0-.258.232.513.513 0 0 0-.046.4.352.352 0 0 0 .197.168Z"></path>
  <path d="M20.597 14.468a13.912 13.912 0 0 0-.835-.397l-.132-.06a.438.438 0 0 0-.332-.023.294.294 0 0 0-.168.164c-.054.126-.075.375.028.497.329.391.771.653 1.392.823l.032.01.03-.018a.941.941 0 0 1 .09-.045c.094-.041.2-.089.246-.182.063-.127.032-.323-.032-.45a.774.774 0 0 0-.32-.319Z"></path>
  <path d="M9.26 13.516c.144.004.29.003.432.002h.11l.004.034.08-.008.263-.023c.208-.018.423-.037.634-.068a.354.354 0 0 0 .32-.407.36.36 0 0 0-.397-.335c-.447.024-.977.058-1.513.127a.449.449 0 0 0-.315.334.279.279 0 0 0 .064.22.427.427 0 0 0 .317.124Z"></path>
  <path d="M11.91 13.383h.001c.142 0 .437 0 .48-.327a.302.302 0 0 0-.07-.247.534.534 0 0 0-.406-.154c-.191-.002-.334.04-.42.126a.308.308 0 0 0-.088.23c.004.226.202.372.503.372Z"></path>
</svg>