<svg width="46" height="46" fill="currentColor" viewBox="0 0 24 24" xmlns="http://www.w3.org/2000/svg">
  <path d="M20.519 15.11c-.423-.798-.861-1.624-1.282-2.44l-.172-.333c-.507-.982-1.032-1.996-1.492-3.018-.673-1.496-1.532-2.876-2.205-3.91-.23-.356-.485-.479-.799-.387-.314.092-.446.31-.456.75v4.741a.082.082 0 0 0-.066.082c.009.404.016.808.022 1.212.016.926.033 1.885.066 2.828.018.51.053 1.027.086 1.527.031.46.063.937.082 1.406.023.592.214.846.817 1.088a1.2 1.2 0 0 0 .44.083h.032c.571-.016 1.143-.035 1.714-.055.892-.03 1.815-.061 2.723-.08.577-.01.974-.323 1.362-.67a.64.64 0 0 0 .185-.683 3.251 3.251 0 0 0-.213-.543c-.28-.533-.561-1.066-.844-1.598Zm-.46 2.191-4.36.314c-.182-1.969-.225-3.96-.266-5.887-.03-1.36-.06-2.764-.139-4.152l.025.049c.085.173.173.344.26.516.212.413.43.84.605 1.275.612 1.518 1.37 2.992 2.105 4.417l.504.982c.19.374.388.751.579 1.117.146.278.29.557.435.837.065.126.124.254.193.403l.06.13Z"></path>
  <path d="M3.226 18.497h.084l1.379.002a6266.479 6266.479 0 0 0 4.332 0c.301.002.603-.011.904-.04.411-.044.592-.223.643-.64l.016-.114c.019-.113.03-.227.032-.342-.002-.537-.005-1.075-.01-1.612l-.01-1.368a321.15 321.15 0 0 1 0-1.7v-.748c.068-1.935.003-3.85-.117-6.129-.01-.196-.025-.465-.29-.593-.227-.111-.473-.06-.691.144a3.56 3.56 0 0 0-.556.619c-.075.114-.151.23-.228.344-.429.646-.872 1.315-1.26 2.002a286.576 286.576 0 0 0-3.109 5.644c-.502.937-.98 1.907-1.44 2.845l-.322.653c-.179.363-.124.594-.046.724.114.192.353.299.689.31Zm.64-1.23 5.588-9.64-.245 9.708c-.96.042-1.903.01-2.9-.025-.656-.022-1.33-.046-2.013-.046-.143 0-.287.001-.43.004Z"></path>
  <path d="M11.595 14.61a926.86 926.86 0 0 0-.13 5.76c-.006.212.022.424.082.628a.646.646 0 0 0 .656.473.63.63 0 0 0 .622-.428c.066-.173.103-.356.11-.54v-.04c.028-1.1.056-2.235.061-3.354.022-4.788.035-9.482.045-13.443a3.67 3.67 0 0 0-.072-.746.551.551 0 0 0-.534-.461.558.558 0 0 0-.57.414c-.051.177-.08.36-.084.543l-.013.536c-.028 1.11-.056 2.258-.066 3.387-.01 1.079-.007 2.138-.005 3.163l.002 1.21-.039 1.013c-.025.657-.05 1.277-.065 1.885Z"></path>
</svg>