<svg width="46" height="46" fill="currentColor" viewBox="0 0 24 24" xmlns="http://www.w3.org/2000/svg">
  <path d="M12.889 21.663c-1.771-.03-3.543-.03-5.312-.102-1.195-.048-2.391-.132-3.57-.375-.68-.14-1.096-.524-1.2-1.209a9.032 9.032 0 0 1-.113-1.216c-.037-2.27-.04-4.541-.095-6.811-.041-1.712-.149-3.422-.218-5.133-.03-.745-.033-1.483.15-2.225.26-1.053.944-1.619 1.94-1.864a5.958 5.958 0 0 1 1.214-.15c1.484-.05 2.969-.072 4.453-.118 1.102-.035 2.204-.115 3.307-.127.884-.009 1.77.052 2.654.087.328.014.646.122.914.312.903.616 1.701 1.354 2.5 2.095a27.8 27.8 0 0 0 1.598 1.393c.364.288.547.629.542 1.081-.012 1.02-.019 2.04-.042 3.059-.039 1.699-.108 3.398-.129 5.097a18.505 18.505 0 0 1-.564 4.435c-.051.197-.116.39-.175.585-.162.54-.54.84-1.083.923a11 11 0 0 1-1.46.164c-1.524.032-3.05.033-4.575.045-.246.002-.49 0-.736 0v.054ZM5.612 3.75c-.39.06-.728.088-1.052.168-.5.124-.845.415-.927.96-.036.2-.089.398-.16.589-.163.475-.157.965-.117 1.452.114 1.408.286 2.813.355 4.223.09 1.832.104 3.668.143 5.503.02.897.02 1.794.038 2.691.014.739.071.831.79.913 1.162.133 2.328.3 3.494.316 2.914.04 5.83.014 8.745-.008.733-.005 1.468-.077 2.2-.143.487-.043.52-.08.62-.54.108-.49.197-.985.276-1.481.2-1.253.206-2.518.23-3.782.02-.951.049-1.902.072-2.854.032-1.318.06-2.636.098-3.954a.766.766 0 0 0-.323-.691c-.52-.415-1.007-.872-1.507-1.312-.694-.61-1.394-1.214-2.078-1.835-.309-.28-.663-.323-1.09-.318.016.292.043.56.041.828-.002.61.017 1.225-.037 1.831-.073.826-.441 1.208-1.241 1.404a2.79 2.79 0 0 1-.358.077c-.906.099-1.81.22-2.72.282-1.194.081-2.392.151-3.591.04-.867-.08-1.331-.443-1.581-1.284a7.457 7.457 0 0 1-.32-2.086c-.002-.31 0-.618 0-.99Zm8.493-.192c-.63 0-1.213-.014-1.795.002-1.333.038-2.665.093-3.998.135-.503.016-1.007.011-1.51.02a2.827 2.827 0 0 0-.317.042c.056.954.18 1.865.451 2.752.136.445.213.507.691.538.177.011.354.019.53.013 1.048-.032 2.097-.04 3.142-.114.798-.056 1.593-.186 2.386-.304.378-.056.433-.122.442-.508.016-.706.008-1.413.006-2.119 0-.134-.016-.268-.028-.458Z"></path>
  <path d="M13.838 10.474c.714.021 2.034.06 3.354.103.163.008.326.03.486.063.455.087.77.34.873.803.079.357.141.72.187 1.082.153 1.202.247 2.407.137 3.618a2.868 2.868 0 0 1-.091.48c-.152.567-.533.904-1.097 1.029a3.337 3.337 0 0 1-.728.09c-1.961-.008-3.923-.01-5.883-.05-1.048-.023-2.094-.115-3.14-.19a5.249 5.249 0 0 1-.843-.146c-.852-.206-1.244-.663-1.305-1.541a9.805 9.805 0 0 1 0-1.14c.038-.788.09-1.575.142-2.362.012-.135.034-.269.066-.4.137-.598.507-.947 1.122-1.017.73-.083 1.46-.186 2.194-.229 1.304-.076 2.612-.114 4.526-.193Zm3.63 1.313c-.565-.034-1.068-.093-1.57-.088-1.756.018-3.514.027-5.269.1-1.14.047-2.277.194-3.415.307-.31.03-.335.074-.378.376-.014.094-.02.189-.02.284.007.991.014 1.983.024 2.974a2.67 2.67 0 0 0 .021.366.357.357 0 0 0 .272.322c.116.04.235.068.356.086 1.058.084 2.115.206 3.174.23 1.77.04 3.542.021 5.313.017a11.62 11.62 0 0 0 1.18-.073c.479-.05.563-.13.575-.613.028-1.1.048-2.202-.123-3.296-.05-.32-.09-.64-.14-.992Z"></path>
</svg>