<svg width="46" height="46" fill="currentColor" viewBox="0 0 24 24" xmlns="http://www.w3.org/2000/svg">
  <path d="m3.466 17.238.167.231c.547.757 1.112 1.539 1.69 2.293a36.4 36.4 0 0 0 1.37 1.652c.29.336.486.382.843.2a7.5 7.5 0 0 0 1.971-1.423c.183-.186.225-.384.136-.64a1.902 1.902 0 0 0-.079-.187l-.03-.065c.094-.07.189-.139.283-.207a9 9 0 0 0 .682-.526c.326-.277.626-.585.895-.918.165-.229.312-.47.438-.722.047-.087.095-.177.145-.266.269.846.81 1.558 1.697 2.232.149.113.294.234.434.351l.174.144a1.084 1.084 0 0 0-.007.042.202.202 0 0 1-.017.067c-.196.323-.153.617.13.898a8.53 8.53 0 0 0 1.85 1.388c.1.06.215.092.332.095a.634.634 0 0 0 .464-.226l.108-.116c.197-.209.4-.425.585-.65a375.784 375.784 0 0 0 2.598-3.202c.143-.189.266-.392.366-.606.11-.22.061-.406-.146-.552a14.38 14.38 0 0 1-.616-.465 29.84 29.84 0 0 0-.267-.208 38.15 38.15 0 0 1-.275-.214c-.209-.163-.424-.332-.645-.486-.394-.275-.565-.263-.917.068-.05.047-.101.09-.166.145l-.08.066c-.013-.02-.027-.037-.04-.055a2.696 2.696 0 0 0-.125-.16 8.846 8.846 0 0 1-1.701-2.974A29.749 29.749 0 0 1 14.198 5.3a12.504 12.504 0 0 0-.396-2.064c-.065-.247-.236-.518-.508-.805-.268-.283-.636-.293-.984-.027a3.417 3.417 0 0 0-.106.087l-.018.014c-.27-.244-.527-.353-.767-.324-.237.029-.453.192-.643.486a3.208 3.208 0 0 0-.431 1.03 25.033 25.033 0 0 0-.38 2.236c-.2 1.592-.627 3.103-1.085 4.64-.497 1.667-1.056 2.85-1.812 3.84a7.59 7.59 0 0 1-.722.82l-.06-.064c-.052-.056-.095-.103-.14-.149-.33-.343-.5-.363-.911-.11-.102.062-.2.133-.294.201l-.014.01-.485.35a72.14 72.14 0 0 1-1.087.779c-.183.128-.238.286-.163.471.07.183.162.357.274.517Zm8.296-7.344-.005.003-.02.012c-.739-.104-1.204.14-1.51.792a3.83 3.83 0 0 0-.276.827c-.25 1.19-.32 2.252-.214 3.247l.003.025c.005.12.031.237.077.347.04.065.095.12.16.159.025.018.05.037.073.056l.032.028.027-.033a.976.976 0 0 1 .074-.078.388.388 0 0 0 .14-.207 6.74 6.74 0 0 0 .03-.61 12.247 12.247 0 0 1 .398-2.973 2.17 2.17 0 0 1 .338-.677.227.227 0 0 1 .16-.115c.067 0 .128.072.167.131.17.255.32.515.272.882a95.016 95.016 0 0 0-.367 3.565c-.106 1.179-.64 2.072-1.63 2.73a9.846 9.846 0 0 0-.508.37l-.23.172-2.16-2.79c.102-.113.203-.223.303-.331.238-.258.462-.501.675-.763.952-1.17 1.474-2.575 1.895-3.919a36.337 36.337 0 0 0 1.34-5.987c.058-.361.143-.717.253-1.066l.07-.245c.033-.1.078-.194.135-.283a3.06 3.06 0 0 0 .048-.085c.408 1.17.347 5.29.25 6.816Zm-7.813 6.775 1.517-1.08 3.328 4.263-1.456 1.074L3.95 16.67Zm8.61-5.024.029-.43a.503.503 0 0 1 .007-.066l.01-.05c.028-.144.054-.28.202-.312a.25.25 0 0 1 .054-.006c.11 0 .2.083.267.249.116.275.206.56.27.853.184.984.266 1.985.243 2.986 0 .027-.003.054-.005.082a.539.539 0 0 0 .013.218c.03.086.108.238.209.26.098.022.234-.1.282-.176a.785.785 0 0 0 .093-.33 9.962 9.962 0 0 0-.18-3.579 3.196 3.196 0 0 0-.421-.943c-.187-.292-.495-.456-.967-.517V9.48l-.005-.803a809.27 809.27 0 0 0-.02-2.702 7.894 7.894 0 0 0-.037-.745 5.772 5.772 0 0 1 .13-1.91 1.52 1.52 0 0 1 .043-.13l.015-.039.036.041c.039.037.07.082.09.13l.076.256c.098.306.176.618.233.933.069.431.126.873.18 1.3.087.673.177 1.37.316 2.046.37 1.803.763 3.56 1.49 5.234a8.137 8.137 0 0 0 1.77 2.63c.045.046.088.094.128.145l.053.062-2.235 2.713c-1.15-.747-2.217-1.668-2.289-3.307a21.72 21.72 0 0 0-.072-.978c-.054-.607-.11-1.234-.064-1.855l.057-.855Zm2.508 8.305.04-.06c.042-.068.089-.133.139-.195.898-1.075 1.797-2.148 2.711-3.238l.533-.636 1.452 1.1c-.925 1.19-1.873 2.28-2.877 3.434l-.627.722-1.334-1.037-.02-.047a.231.231 0 0 1-.014-.035l-.003-.009Z"></path>
  <path d="M7.657 20.222a.466.466 0 0 0 .464-.502.496.496 0 0 0-.488-.481h-.006a.426.426 0 0 0-.316.12.516.516 0 0 0-.12.386.506.506 0 0 0 .14.37.425.425 0 0 0 .326.107Z"></path>
  <path d="M16.188 20.38h.01c.273-.006.437-.196.437-.508 0-.285-.16-.46-.427-.47a.484.484 0 0 0-.47.31.493.493 0 0 0 .111.532.48.48 0 0 0 .339.136Z"></path>
</svg>