<svg width="46" height="46" fill="currentColor" viewBox="0 0 24 24" xmlns="http://www.w3.org/2000/svg">
  <path d="M12.109 12.938c.142 0 .267.004.39 0 .616-.023 1.23-.053 1.846-.067.196-.005.392.013.584.054.227.05.344.191.356.371.012.172-.099.329-.306.421-.314.14-.65.172-.986.18-.5.01-.999.005-1.498.007h-.37c-.012.103-.027.19-.03.278-.024.777-.044 1.554-.071 2.33-.005.116-.026.23-.062.34a.468.468 0 0 1-.435.343.441.441 0 0 1-.475-.284 1.587 1.587 0 0 1-.1-.607c.032-.73.09-1.459.138-2.188.003-.055 0-.11 0-.18a.908.908 0 0 0-.145-.019c-.765.03-1.53.065-2.296.091a3.07 3.07 0 0 1-.588-.025c-.225-.036-.345-.179-.358-.367-.014-.205.093-.371.336-.418.33-.06.665-.098 1-.117.568-.037 1.136-.058 1.704-.087.115-.005.229-.017.366-.027a2.68 2.68 0 0 0 .031-.275c.006-.51.005-1.02.014-1.531.002-.163.017-.324.044-.484a.366.366 0 0 1 .668-.103c.058.113.094.236.107.362.044.567.075 1.134.112 1.701.005.09.014.18.024.301Z"></path>
  <path d="M18.979 3.414c.336.037.672.068 1.008.112 1.087.144 1.627.742 1.67 1.843.07 1.776.023 3.549-.054 5.325-.068 1.582-.008 3.17-.02 4.755-.006.812-.004 1.629-.082 2.436-.167 1.726-1.15 2.62-2.886 2.684-.42.015-.842.004-1.263.003-2.173-.002-4.346.003-6.518-.01-1.86-.011-3.721-.03-5.581-.076a7.45 7.45 0 0 1-1.526-.221c-.747-.178-1.179-.688-1.308-1.442a3.887 3.887 0 0 1-.062-.727c.035-1.788.087-3.577.12-5.366.02-1.11.019-2.222.016-3.334a4.721 4.721 0 0 0-.082-.644c-.09-.626.132-1.115.728-1.337a6.202 6.202 0 0 1 1.65-.401 105.31 105.31 0 0 1 4.634-.245c.963-.034 1.929 0 2.893.005h.4c0-.368-.007-.69.003-1.012.01-.338.022-.677.06-1.013.08-.686.36-1.016 1.04-1.105.739-.096 1.487-.12 2.232-.168.432-.028.864-.042 1.297-.062h1.63ZM14.037 4.93c0 .493-.004.951.002 1.41.003.243.038.487.034.73-.01.5-.175.715-.661.828a3.94 3.94 0 0 1-.88.12c-.965 0-1.93-.025-2.894-.047a38.662 38.662 0 0 0-4.64.167c-.39.043-.777.115-1.157.216-.358.09-.395.154-.408.505-.01.27-.003.542.003.813.036 1.558.086 3.116.109 4.675.02 1.396.002 2.792.019 4.188.006.511.169.685.674.741.634.071 1.27.15 1.906.154 2.391.013 4.782-.006 7.173-.008 1.182 0 2.364.012 3.545.017.68.003 1.359.027 2.037.001.758-.029 1.143-.345 1.33-1.078.086-.341.132-.692.135-1.044.006-.949-.032-1.898-.032-2.847a260.61 260.61 0 0 1 .026-3.983c.014-1.03.059-2.06.066-3.09.005-.61-.028-1.22-.06-1.83-.03-.566-.092-.622-.641-.672-.135-.013-.271-.029-.406-.028-1.604.002-3.207.006-4.81.013a4.5 4.5 0 0 0-.47.049Z"></path>
</svg>