<svg width="46" height="46" fill="currentColor" viewBox="0 0 24 24" xmlns="http://www.w3.org/2000/svg">
  <path d="M20.2 3.414c.335.037.672.068 1.007.112 1.087.144 1.617.742 1.67 1.845.096 2.008-.009 4.011-.083 6.017-.05 1.354.015 2.71.008 4.066-.005.813-.005 1.63-.083 2.437-.168 1.724-1.155 2.621-2.892 2.677-.569.019-1.14-.001-1.71-.004l-4.48-.021c-2.389-.015-4.778-.023-7.167-.056a7.449 7.449 0 0 1-1.37-.176c-.69-.14-1.182-.585-1.56-1.15-.404-.604-.647-1.286-.826-1.981a205.215 205.215 0 0 1-1.138-4.652 33.18 33.18 0 0 1-.453-2.31c-.127-.8.224-1.276 1.02-1.426.466-.088.938-.138 1.427-.208l.043-.227c.083-.467.347-.816.788-.957a9.311 9.311 0 0 1 1.652-.394c2.473-.315 4.96-.25 7.444-.233.122.001.244-.002.366-.008.024 0 .047-.023.079-.04 0-.303-.007-.611.002-.92.01-.338.019-.677.056-1.013.082-.747.365-1.069 1.121-1.164.713-.09 1.434-.108 2.152-.152.432-.027.864-.042 1.297-.062h1.63ZM2.236 9.77c.01.203.029.406.059.608.37 1.772.735 3.546 1.127 5.314a10.39 10.39 0 0 0 1.2 3.085c.252.424.612.638 1.097.645.5.007 1 .001 1.502 0l7.615-.007c1.031 0 2.063.012 3.094.019.706.005 1.412.016 2.118.014a1.56 1.56 0 0 0 .954-.299c.378-.283.442-.597.217-1.012a4.662 4.662 0 0 1-.217-.435c-.62-1.5-1.261-2.992-1.843-4.506a12.572 12.572 0 0 0-1.332-2.593c-.438-.644-1.02-1.087-1.81-1.194a9.632 9.632 0 0 0-1.376-.117c-1.317.013-2.633.058-3.95.092-2.306.06-4.613.11-6.92.187-.494.017-.985.125-1.535.199Zm19.272 6.173.08-.003c0-.162.01-.324 0-.485-.137-2.128-.055-4.254.035-6.382.05-1.176-.012-2.358-.045-3.536-.015-.534-.094-.591-.628-.64-.162-.015-.325-.032-.487-.032-1.548.001-3.095.005-4.643.012-.187 0-.373.033-.565.051 0 .474-.005.918.002 1.362.004.27.044.541.037.811-.013.475-.183.689-.65.795a4.15 4.15 0 0 1-.92.122c-1.466-.006-2.933-.071-4.398-.042-1.22.025-2.437.142-3.653.243-.322.026-.665.065-.977.35.066.015.132.025.2.03 1.913-.035 3.827-.072 5.74-.11 1.615-.034 3.229-.102 4.843-.108 1.226-.004 2.308.424 3.065 1.416.505.653.943 1.356 1.306 2.098.503 1.047.898 2.145 1.337 3.222.111.274.215.55.321.826Z"></path>
</svg>