<svg width="46" height="46" fill="currentColor" viewBox="0 0 24 24" xmlns="http://www.w3.org/2000/svg">
  <path d="M18.942 3.414c.334.037.669.068 1.002.112 1.08.144 1.616.742 1.659 1.843.07 1.776.024 3.549-.053 5.325-.068 1.582-.008 3.17-.02 4.755-.006.812-.004 1.629-.082 2.436-.166 1.726-1.143 2.62-2.867 2.684-.418.015-.837.004-1.256.003-2.159-.002-4.318.003-6.476-.01-1.85-.011-3.698-.03-5.546-.076a7.381 7.381 0 0 1-1.517-.221c-.742-.178-1.171-.688-1.3-1.442a3.896 3.896 0 0 1-.061-.727c.035-1.788.087-3.577.119-5.365.02-1.112.019-2.223.016-3.335a4.748 4.748 0 0 0-.082-.644c-.089-.626.132-1.115.724-1.337a6.132 6.132 0 0 1 1.639-.401c1.532-.121 3.07-.192 4.606-.245.957-.034 1.916 0 2.874.005h.399c0-.368-.009-.69.002-1.012.01-.338.021-.677.06-1.013.08-.686.357-1.016 1.032-1.105.735-.096 1.478-.12 2.218-.168.43-.028.86-.042 1.29-.062h1.62Zm-4.91 1.516c0 .493-.005.951.001 1.41.003.243.038.487.034.73-.009.5-.174.715-.657.828-.286.073-.58.114-.875.12-.958 0-1.917-.025-2.875-.047a38.18 38.18 0 0 0-4.61.167 7.823 7.823 0 0 0-1.15.216c-.356.09-.393.154-.405.505-.01.27-.004.542.002.813.036 1.558.086 3.116.108 4.675.02 1.396.003 2.792.02 4.188.005.511.167.685.67.741.629.071 1.261.15 1.893.154 2.376.013 4.752-.006 7.128-.008 1.174 0 2.348.012 3.523.017.675.003 1.35.027 2.024.001.754-.029 1.136-.345 1.32-1.078.087-.342.133-.692.136-1.044.006-.949-.032-1.898-.033-2.847a267.19 267.19 0 0 1 .027-3.983c.013-1.03.058-2.06.065-3.09.005-.61-.028-1.22-.06-1.83-.029-.566-.09-.622-.636-.672-.135-.013-.27-.029-.404-.028-1.593.002-3.186.006-4.78.013a4.45 4.45 0 0 0-.466.049Z"></path>
  <path d="M12.176 13.946c-.853 0-1.706.008-2.558-.005a3.597 3.597 0 0 1-.773-.113.46.46 0 0 1-.376-.477c-.005-.247.093-.43.326-.517a1.52 1.52 0 0 1 .439-.12c1.898-.1 3.796-.193 5.695-.28.11-.006.219.003.326.025.348.075.592.38.575.701a.668.668 0 0 1-.578.625 19.07 19.07 0 0 1-1.569.105c-.502.017-1.005.004-1.507.004v.052Z"></path>
</svg>