<svg width="46" height="46" fill="currentColor" viewBox="0 0 24 24" xmlns="http://www.w3.org/2000/svg">
  <path d="M19 3.414c.336.037.673.068 1.008.112 1.088.144 1.627.742 1.67 1.843.07 1.776.024 3.549-.053 5.325-.068 1.582-.008 3.17-.02 4.755-.006.812-.005 1.629-.083 2.436-.166 1.726-1.15 2.62-2.885 2.684-.42.015-.843.004-1.264.003-2.172-.002-4.345.003-6.518-.01-1.86-.011-3.72-.03-5.58-.076a7.45 7.45 0 0 1-1.527-.221c-.747-.178-1.179-.688-1.308-1.442a3.88 3.88 0 0 1-.062-.727c.036-1.788.088-3.577.12-5.366.02-1.11.02-2.222.016-3.334a4.706 4.706 0 0 0-.082-.644c-.09-.626.132-1.115.729-1.337a6.202 6.202 0 0 1 1.649-.401 105.84 105.84 0 0 1 4.635-.245c.963-.034 1.928 0 2.892.005h.401c0-.368-.008-.69.002-1.012.01-.338.022-.677.061-1.013.08-.686.359-1.016 1.039-1.105.739-.096 1.487-.12 2.232-.168.432-.028.864-.042 1.297-.062H19ZM14.06 4.93c0 .493-.005.951 0 1.41.004.243.039.487.034.73-.008.5-.175.715-.66.828a3.94 3.94 0 0 1-.881.12c-.965 0-1.929-.025-2.893-.047a38.661 38.661 0 0 0-4.64.167c-.39.043-.777.115-1.157.216-.358.09-.395.154-.408.505-.01.27-.004.542.003.813.036 1.558.086 3.116.109 4.675.02 1.396.002 2.792.019 4.188.006.511.169.685.674.741.633.071 1.27.15 1.906.154 2.391.013 4.782-.006 7.173-.008 1.182 0 2.363.012 3.545.017.679.003 1.359.027 2.037.001.758-.029 1.143-.345 1.329-1.078.087-.341.133-.692.136-1.044.006-.949-.032-1.898-.033-2.847 0-1.328.008-2.655.027-3.983.013-1.03.059-2.06.066-3.09.004-.61-.029-1.22-.06-1.83-.03-.566-.092-.622-.641-.672-.135-.013-.271-.029-.407-.028-1.603.002-3.206.006-4.809.013a4.513 4.513 0 0 0-.47.049Z"></path>
</svg>