<svg width="46" height="46" fill="currentColor" viewBox="0 0 24 24" xmlns="http://www.w3.org/2000/svg">
  <path d="M18.961 3.414c.336.037.672.068 1.006.112 1.085.144 1.623.742 1.666 1.843.07 1.776.024 3.549-.053 5.325-.068 1.582-.008 3.17-.02 4.755-.006.812-.004 1.629-.082 2.436-.167 1.726-1.148 2.62-2.88 2.684-.42.015-.84.004-1.26.003-2.168-.002-4.336.003-6.503-.01-1.857-.011-3.713-.03-5.569-.076a7.418 7.418 0 0 1-1.523-.221c-.745-.178-1.176-.688-1.305-1.442a3.895 3.895 0 0 1-.062-.727c.036-1.788.088-3.577.12-5.366.02-1.11.019-2.222.016-3.334a4.716 4.716 0 0 0-.082-.644c-.089-.626.132-1.115.727-1.337a6.177 6.177 0 0 1 1.645-.401c1.539-.121 3.082-.192 4.625-.245.961-.034 1.924 0 2.886.005h.4c0-.368-.008-.69.002-1.012.01-.338.022-.677.061-1.013.08-.686.358-1.016 1.037-1.105.737-.096 1.484-.12 2.227-.168.43-.028.862-.042 1.294-.062h1.627Zm-4.93 1.516c0 .493-.004.951.002 1.41.003.243.037.487.033.73-.009.5-.174.715-.66.828a3.923 3.923 0 0 1-.878.12c-.962 0-1.925-.025-2.887-.047a38.492 38.492 0 0 0-4.63.167 7.818 7.818 0 0 0-1.154.216c-.357.09-.394.154-.406.505-.01.27-.004.542.002.813.036 1.558.086 3.116.109 4.675.02 1.396.002 2.792.019 4.188.006.511.168.685.672.741.633.071 1.268.15 1.902.154 2.386.013 4.772-.006 7.157-.008 1.18 0 2.358.012 3.537.017.678.003 1.356.027 2.033.001.757-.029 1.14-.345 1.326-1.078.087-.341.133-.692.136-1.044.006-.949-.032-1.898-.033-2.847a261.9 261.9 0 0 1 .027-3.983c.013-1.03.058-2.06.066-3.09.004-.61-.029-1.22-.06-1.83-.03-.566-.092-.622-.64-.672-.135-.013-.27-.029-.406-.028-1.6.002-3.199.006-4.798.013a4.496 4.496 0 0 0-.47.049Z"></path>
  <path d="M15.031 16.506c-.228.229-.589.234-.897.013a2.41 2.41 0 0 1-.336-.312l-.062-.066c-.322-.336-.643-.674-.98-1.03l-.488-.515-.4.422-.683.722a7.517 7.517 0 0 0-.188.207 4.308 4.308 0 0 1-.396.408 1.522 1.522 0 0 1-.536.32.538.538 0 0 1-.553-.117c-.128-.134-.16-.333-.087-.544.07-.201.21-.414.44-.67.252-.278.524-.55.788-.813.138-.138.276-.275.412-.415.064-.066.12-.135.191-.222l.123-.148.073-.087-.513-.484c-.358-.337-.712-.67-1.065-1.007l-.087-.083c-.15-.134-.29-.28-.416-.435a.33.33 0 0 1-.004-.438.407.407 0 0 1 .306-.171c.056 0 .112.014.161.04.27.128.525.28.765.456.368.288.724.586 1.1.903l.478.4.085.07.076-.08.378-.39c.307-.32.624-.649.94-.966.166-.175.348-.334.543-.476.211-.145.437-.146.59-.003a.432.432 0 0 1 .034.58c-.303.432-.642.852-.97 1.257l-.114.143a7.792 7.792 0 0 1-.387.433c-.068.073-.138.147-.21.227l-.081.09.09.08.443.39c.364.319.706.62 1.048.93.168.14.319.302.449.479.203.302.18.665-.06.902Z"></path>
</svg>