<svg width="46" height="46" fill="currentColor" viewBox="0 0 24 24" xmlns="http://www.w3.org/2000/svg">
  <path d="M12.032 8.75c.038-.435.101-.87.11-1.306.028-1.456.035-2.913.055-4.37.001-.151.019-.301.053-.448a.357.357 0 0 1 .357-.29.366.366 0 0 1 .366.28c.039.146.054.297.047.448-.027 1.594-.05 3.189-.096 4.783-.011.393-.1.786-.162 1.243a1.07 1.07 0 0 0 .329-.47 4.19 4.19 0 0 0 .327-1.521c.036-1.21.056-2.42.089-3.628.003-.22.026-.438.07-.653a.475.475 0 0 1 .431-.385.49.49 0 0 1 .47.338 1.3 1.3 0 0 1 .082.36c.095 1.4.156 2.803-.014 4.199a6.372 6.372 0 0 1-.415 1.543c-.302.764-.748 1.13-1.744 1.576.021.422.042.858.066 1.293.073 1.304.167 2.606.216 3.911.065 1.744.098 3.49.14 5.235 0 .15-.018.3-.054.446-.047.214-.209.32-.41.353-.182.03-.407-.123-.47-.334a1.82 1.82 0 0 1-.066-.487c-.02-.99-.022-1.98-.053-2.969-.036-1.181-.104-2.361-.14-3.543-.035-1.113-.047-2.227-.068-3.34-.003-.163 0-.325 0-.495-.123-.043-.21-.08-.3-.104-.9-.247-1.484-.834-1.71-1.725A8.32 8.32 0 0 1 9.3 7.022c-.05-1.139-.09-2.281.054-3.418.028-.218.053-.437.096-.653.068-.341.225-.491.47-.472.247.019.367.186.367.546 0 .55-.012 1.1-.017 1.65a20.023 20.023 0 0 0 .251 3.326c.073.453.198.887.57 1.2.072.05.145.097.22.14-.507-1.096-.456-2.2-.457-3.294-.001-.948.033-1.896.053-2.844 0-.11.008-.22.02-.329.02-.166.103-.294.283-.3.206-.009.281.137.309.316.008.055.013.11.015.164.053 1.36.1 2.72.16 4.079.025.548.079 1.094.248 1.62l.089-.003Z"></path>
</svg>