<svg width="46" height="46" fill="currentColor" viewBox="0 0 24 24" xmlns="http://www.w3.org/2000/svg">
  <path d="M6.886 17.994a.71.71 0 0 0 .411.128.81.81 0 0 0 .328-.07 3.54 3.54 0 0 0 .791-.527 128.79 128.79 0 0 0 2.524-2.123c.578-.5 1.255-1.098 1.895-1.73.314-.322.608-.662.883-1.018l.206-.256c.145-.178.274-.405.133-.737a.081.081 0 0 0-.08-.05c-.216.013-.335-.13-.474-.297l-.042-.05c-1.223-1.445-2.293-2.57-3.37-3.544A49.488 49.488 0 0 0 8.46 6.308c-.257-.212-.616-.452-1.13-.419-.438.029-.565.059-.577.55-.004.217-.005.436-.005.649 0 .177 0 .354-.003.532l-.008.515c-.038 2.47-.078 5.024-.122 7.537-.009.482-.03.998-.065 1.577a.83.83 0 0 0 .337.745ZM7.907 7.465l.38.36c.698.66 1.42 1.344 2.127 2.02.67.64 1.46 1.27 2.487 1.985l.203.142c-.257.18-.514.36-.77.537a58.4 58.4 0 0 0-1.947 1.39c-.628.475-1.23.969-1.866 1.492-.24.197-.483.398-.732.6a398.12 398.12 0 0 1-.096-8.715c.08.069.15.127.214.189Z"></path>
  <path d="M16.35 16.687c.04.292.082.594.115.89.028.26.178.315.299.316h.004c.169 0 .267-.106.293-.316.038-.32.083-.646.126-.96.093-.677.188-1.376.233-2.067.055-.847.07-1.696.087-2.68.008-.47.016-.955.03-1.492v-.004l-.016-.665c-.018-.781-.04-1.753-.07-2.725a3.91 3.91 0 0 0-.103-.738.419.419 0 0 0-.436-.337h-.002a.426.426 0 0 0-.436.334c-.043.148-.072.3-.084.455l-.042.57a34.312 34.312 0 0 0-.102 1.745l-.019.769c-.04 1.627-.082 3.31-.061 4.964.021.65.083 1.298.185 1.94Z"></path>
</svg>