<svg width="46" height="46" fill="currentColor" viewBox="0 0 24 24" xmlns="http://www.w3.org/2000/svg">
  <path d="M1.963 19.4c-.265 1.23.219 2.041 1.399 2.347.253.064.513.096.774.095.26-.002.519-.027.774-.075.507-.092.911-.368 1.241-.636 1.267.965 2.59.631 3.612.217.5.319 1.08.485 1.672.478.587-.01 1.115-.235 1.612-.687 1.03.578 2.06.598 3.064.059 1.034.514 1.904.522 2.733.028.542.311 1.022.404 1.508.29 1.024-.238 1.736-1.408 1.526-2.503a3.101 3.101 0 0 0-.7-1.43c.681-.394 1.006-.93.992-1.638-.013-.675-.283-1.247-.824-1.746l.027-.029.14-.147c.662-.712.679-1.644.043-2.374-.04-.047-.082-.092-.126-.14l-.011-.013c.343-.35.651-.758.674-1.337.021-.562-.197-1.001-.666-1.34.413-.476.595-.923.59-1.441a1.845 1.845 0 0 0-.616-1.393c.804-1.015.766-2.129-.111-3.143-.903-1.044-2.388-1.11-3.627-.167-.912-.565-1.827-.56-2.72.016-.376-.298-.814-.363-1.195-.387-.605-.039-1.125.131-1.546.505-1.09-.759-1.963-.768-3.076-.031C8.2 2.02 7.15 2.005 6.23 2.734 5.744 2.217 5.19 2 4.54 2.072c-.766.085-1.352.34-1.79.782-.406.408-.635.97-.662 1.626-.028.694-.006 1.357.554 1.845a2.46 2.46 0 0 0-.709 1.623c-.037.653.312 1.113.747 1.596a3.104 3.104 0 0 0-.608 1.592c-.058.676.296 1.143.702 1.543-.638.914-.651 1.825-.038 2.708-.69.98-.71 1.722-.071 2.694-.353.32-.577.742-.701 1.32ZM3.366 5.853c-.521-.632-.335-1.297-.056-1.922.218-.488.654-.708 1.411-.712h.003a1.5 1.5 0 0 1 .52.14c.05.02.1.04.15.057a.858.858 0 0 1 .164.092c.061.043.126.078.195.107.526.196.573.204.856-.097l.084-.088c.47-.488 1.239-.494 1.788-.015.125.11.253.213.39.323l.2.161a.083.083 0 0 0 .112-.008c1.09-1.181 2.168-.74 3.17-.089a.082.082 0 0 0 .118-.03c.247-.453.653-.636 1.32-.589.134.012.268.034.4.064l.198.039a.354.354 0 0 1 .31.221c.088.193.198.243.274.25.074.008.187-.015.304-.173.23-.31.558-.447 1.064-.448h.005c.22.005.44.027.657.064l.237.033.003.064c0 .08.008.161.023.24a.325.325 0 0 0 .185.25.334.334 0 0 0 .311-.057c.053-.039.103-.082.148-.13.024-.024.048-.048.074-.07a2.271 2.271 0 0 1 1.1-.526 1.442 1.442 0 0 1 1.12.255 1.58 1.58 0 0 1 .626 1.069c.078.59-.228 1.025-.57 1.406-.166.185-.228.335-.197.473.03.133.15.242.364.33.329.136.546.352.611.61.067.26-.022.56-.25.841-.088.114-.19.217-.304.305-.323.238-.392.522-.21.869.01.018.026.033.047.04.043.015.089.028.135.043.102.028.201.063.298.106.234.111.389.272.446.464.059.196.017.42-.122.647a1.679 1.679 0 0 1-.825.723.082.082 0 0 0-.051.07l-.045.524a.082.082 0 0 0 .039.078c.02.012.036.024.052.035.037.03.079.052.124.066a.887.887 0 0 1 .64.536.863.863 0 0 1-.135.802l-.115.16c-.199.27-.404.55-.506.934a.081.081 0 0 0 .002.048.08.08 0 0 0 .028.039c.028.021.056.044.085.068.07.055.14.112.22.164.402.266.623.667.605 1.1-.018.433-.27.813-.694 1.044-.077.042-.155.08-.234.12a6.058 6.058 0 0 0-.28.145c-.158.09-.246.211-.246.342 0 .128.084.246.238.333.476.27.733.718.807 1.41a1.03 1.03 0 0 1-.296.87 1.092 1.092 0 0 1-.924.273 9.64 9.64 0 0 0-.527-.057 14.814 14.814 0 0 1-.296-.029c-.297-.032-.331.196-.353.347a2.68 2.68 0 0 1-1.459.053c-.23-.058-.429-.108-.536-.333a.305.305 0 0 0-.217-.18.344.344 0 0 0-.296.103c-.313.297-.721.36-1.041.38a5.409 5.409 0 0 1-.968-.049.644.644 0 0 1-.51-.32.733.733 0 0 0-.215-.205 1.49 1.49 0 0 1-.091-.069.083.083 0 0 0-.113.006c-.758.784-1.518.997-2.392.67a1.709 1.709 0 0 1-.467-.28c-.214-.172-.36-.23-.49-.19-.13.04-.22.171-.3.436a.214.214 0 0 1-.017.033l-.007.011c-.56.153-1.158.289-1.781.173-.48-.088-.922-.213-1.053-.757a.22.22 0 0 0-.112-.123.682.682 0 0 1-.056-.04.083.083 0 0 0-.09-.01c-.087.045-.173.09-.26.133-.19.097-.386.197-.577.3a2.514 2.514 0 0 1-1.857.235c-.432-.108-.577-.297-.575-.748.005-.175.025-.349.059-.52l.013-.079c.07-.423.303-.686.713-.803a.628.628 0 0 0 .113-.049l.012-.006a.145.145 0 0 0 .05-.048.939.939 0 0 1 .028-.036.083.083 0 0 0 .003-.101 6.553 6.553 0 0 0-.143-.182 2.85 2.85 0 0 1-.302-.426c-.112-.21-.23-.458-.244-.698-.009-.26.042-.52.149-.758.075-.152.172-.293.287-.418.05-.06.103-.124.15-.188a.082.082 0 0 0 .003-.096c-.744-1.096-.71-2.081.09-2.704a.083.083 0 0 0 .021-.105 2.052 2.052 0 0 1-.035-.068 1.441 1.441 0 0 0-.096-.167c-.063-.09-.13-.178-.195-.267a6.51 6.51 0 0 1-.326-.467c-.25-.407-.159-1.317.165-1.65a.725.725 0 0 1 .228-.129c.052-.022.11-.048.17-.079a.083.083 0 0 0 .03-.12 36 36 0 0 1-.202-.295 15.785 15.785 0 0 0-.42-.6c-.563-.753-.532-1.425.098-2.116a.591.591 0 0 0 .036-.807Z"></path>
  <path d="M5.174 17.976c.075.267.278.416.574.42l.388.005c.232.004.468.008.705.008.103 0 .207 0 .31-.002 1.1-.02 2.22-.044 3.301-.068l1.277-.028a.082.082 0 0 0 .07-.042c.274 0 .547 0 .821.002a126.2 126.2 0 0 0 2.038-.005 87.674 87.674 0 0 0 3.054-.087c.11-.006.49-.04.73-.252a1.677 1.677 0 0 0 .572-1.33c-.01-.687-.005-1.385-.001-2.06.003-.568.007-1.155.002-1.733a50.71 50.71 0 0 0-.081-2.395 35.329 35.329 0 0 1-.04-1.604c-.01-.989-.021-2.011-.19-3.013-.076-.46-.16-.578-.636-.598-.062-.003-.123-.001-.182 0l-.11.002-1.244-.005c-.85-.004-1.728-.008-2.594-.007-2.47.002-5.046.007-7.88.016-.417.001-.677.214-.774.633a2.99 2.99 0 0 0-.071.545l-.033.756c-.037.86-.076 1.75-.093 2.625-.03 1.524-.036 3.073-.043 4.58a141.3 141.3 0 0 0 .02 2.97c.008.226.045.45.11.667Zm12.653-6.227c.01 1.745.019 3.55-.081 5.332L6.252 17.5 6.163 6.072l11.728.163.005.025c.01.038.015.076.016.115-.104 1.79-.094 3.612-.085 5.374Z"></path>
</svg>