<svg width="46" height="46" fill="currentColor" viewBox="0 0 24 24" xmlns="http://www.w3.org/2000/svg">
  <path d="M10.717 12.582v1.952c.44-.02.834-.037 1.227-.058.316-.016.631-.041.947-.051.123-.005.247.01.366.041.23.065.391.21.388.469a.43.43 0 0 1-.362.442 5.575 5.575 0 0 1-.896.086c-.534.013-1.067.004-1.631.004-.025.36-.038.7-.075 1.039a5.57 5.57 0 0 1-.144.85c-.098.364-.34.527-.619.466-.264-.058-.42-.333-.41-.68.014-.492.014-.986.017-1.479a1.484 1.484 0 0 0-.038-.214c-.438 0-.876.007-1.313-.004a.933.933 0 0 1-.435-.085.429.429 0 0 1-.193-.32.402.402 0 0 1 .226-.29c.198-.057.402-.084.607-.08.369-.012.738-.004 1.144-.004 0-.237.002-.399 0-.56l-.088-5.69a4.886 4.886 0 0 1 .005-.453c.04-.53.315-.804.844-.813 1.401-.024 2.803-.044 4.205-.048.232-.003.462.046.673.145a.613.613 0 0 1 .271.41c.028.186-.122.34-.316.375a3.48 3.48 0 0 1-.691.07c-1.21-.023-2.419-.06-3.628-.088-.133-.003-.267.01-.432.018l.252 3.528c.124 0 .24.003.357 0 1.059-.025 2.117-.057 3.175-.074.247-.004.494.021.735.075.245.055.42.219.415.494-.004.272-.174.438-.425.483a4.255 4.255 0 0 1-.777.059c-.962-.006-1.924-.025-2.886-.036-.163-.002-.326.013-.495.021Z"></path>
  <path d="M21.784 11.177a10.33 10.33 0 0 0-2.293-5.402c-1.047-1.285-2.174-2.201-3.444-2.799a7.341 7.341 0 0 0-3.177-.727c-.338 0-.675.022-1.01.066-1.395.18-2.81.585-4.449 1.274-2.217.932-3.76 2.534-4.587 4.76a10.756 10.756 0 0 0-.653 4.799c.174 1.829.614 3.247 1.385 4.46 1.113 1.752 2.515 2.905 4.287 3.526 1.075.376 2.257.565 3.72.595.862 0 1.664-.104 2.44-.205l.146-.019c1.694-.219 3.131-.83 4.397-1.866a8.24 8.24 0 0 0 2.6-3.664c.607-1.719.815-3.289.638-4.798Zm-1.998 5.456c-.958 1.94-2.57 3.212-4.791 3.782a11.39 11.39 0 0 1-.834.17c-.145.026-.296.053-.454.084-.691.104-1.624.12-2.138.12-.228 0-.374-.004-.379-.004-1.349-.016-2.51-.245-3.548-.7-1.383-.606-2.49-1.63-3.38-3.128-.537-.903-.878-1.973-1.072-3.365a10.27 10.27 0 0 1 .632-5.237c.697-1.77 1.952-3.113 3.73-3.99.41-.204 2.078-.693 2.517-.782a12.232 12.232 0 0 1 1.872-.225c2.489-.06 3.471.34 4.991 1.501 1.591 1.215 2.713 2.742 3.334 4.538.844 2.447.683 4.881-.48 7.236Z"></path>
</svg>