<svg width="46" height="46" fill="currentColor" viewBox="0 0 24 24" xmlns="http://www.w3.org/2000/svg">
  <path d="M20.334 11.32c-.269-.695-.909-1.05-1.63-.907a2.02 2.02 0 0 0-.495.195l-.186.09c-.508-.803-.737-.92-1.9-.978v-.07c0-.08.002-.163-.002-.246l-.035-.983c-.03-.825-.06-1.678-.109-2.517-.05-.862-.273-1.568-.68-2.158-.319-.464-.85-.602-1.35-.351a1.306 1.306 0 0 0-.626.616c-.101.218-.19.446-.277.668l-.087.221a3.868 3.868 0 0 0-.244-.38c-.325-.434-.77-.53-1.252-.27a1.163 1.163 0 0 0-.595.747 3.138 3.138 0 0 0-.116.698l-.015.403c-.035.908-.07 1.847-.07 2.771-.002.753.02 1.488.045 2.267.01.307.019.616.027.927l-.02-.015a3.594 3.594 0 0 0-.174-.135c-.833-.59-1.708-.792-2.6-.602a1.17 1.17 0 0 0-.94 1.282c.022.199.091.39.204.555.152.212.33.403.532.57l.007.005c.649.586 1.13 1.19 1.47 1.845a74.534 74.534 0 0 0 1.754 3.173c.175.3.454.547.679.727.423.341.929.62 1.592.879.587.231 1.213.35 1.844.35a6.178 6.178 0 0 0 2.094-.393 4.48 4.48 0 0 0 1.384-.83 4.397 4.397 0 0 0 1.251-1.788c.637-1.631.884-3.41.758-5.441a3.177 3.177 0 0 0-.238-.926Zm-8.19 7.351a1.473 1.473 0 0 1-.368-.363 13.573 13.573 0 0 1-.69-1.118 40.277 40.277 0 0 1-.91-1.799c-.522-1.098-1.171-1.938-1.985-2.566a.237.237 0 0 1-.026-.023l-.08-.082c-.155-.153-.302-.299-.224-.54.085-.262.321-.305.571-.305h.037c.876.013 1.53.337 1.943.964.079.136.136.282.171.435l.038.126c.054.176.142.358.387.382.201.02.373-.13.44-.382.028-.11.041-.223.039-.337-.018-.975-.039-1.973-.063-2.967a41.875 41.875 0 0 0-.023-.675c-.017-.427-.035-.868-.026-1.301.018-.81.068-1.632.117-2.427l.015-.247c.018-.296.092-.611.501-.712.265.2.426.488.491.88.109.653.18 1.24.218 1.793.055.794.097 1.603.137 2.385l.066 1.235a.73.73 0 0 0 .061.251.342.342 0 0 0 .42.204.31.31 0 0 0 .254-.341c-.002-.114 0-.231.003-.344a5.07 5.07 0 0 0-.012-.608c-.118-1.164-.053-2.346.011-3.49l.01-.165a43.6 43.6 0 0 1 .092-1.273c.019-.352.14-.69.35-.973.124-.162.227-.238.316-.23.088.007.177.098.274.278.293.551.37 1.159.422 1.734.123 1.343.124 2.764.004 4.607-.007.107-.02.216-.033.322a6.685 6.685 0 0 0-.032.292l-.003.038c-.015.177-.033.397.227.487.238.083.556-.053.682-.29a.948.948 0 0 0 .092-.284c.025-.15.038-.302.05-.454.017-.2.078-.337.183-.408.101-.07.245-.077.429-.023.357.106.58.34.644.675.033.196.051.395.056.593l.007.138c.011.2.053.395.283.463.267.079.398-.103.5-.28l.028-.05c.088-.163.188-.319.299-.466.184-.232.403-.347.603-.317.187.029.344.183.441.434.175.427.279.88.308 1.34.052 1.239-.175 2.444-.403 3.46a5.158 5.158 0 0 1-.82 1.816c-.42.603-1.065 1.046-1.914 1.316-1.596.506-3.146.234-4.608-.808Z"></path>
  <path d="M7.989 8.427a.313.313 0 0 0-.092-.23c-.205-.193-.43-.045-.505.004-.098.064-.19.137-.295.222l-.105.083-.12-1.69h1.654a7.48 7.48 0 0 1-.088.145 1.735 1.735 0 0 0-.204.397c-.04.132-.017.352.076.447.125.128.323.11.504-.045a.889.889 0 0 0 .17-.194l.097-.15c.143-.226.291-.458.42-.696.213-.39.16-.636-.197-.911a7.705 7.705 0 0 0-.398-.281 9.015 9.015 0 0 1-.343-.24c-.13-.098-.3-.19-.46-.039-.137.13-.135.31.006.502.06.083.124.163.19.248l.042.051h-1.5V4.567c.04.021.078.043.117.065.134.082.276.15.423.203a.489.489 0 0 0 .407-.074c.09-.076.159-.218-.026-.462a.603.603 0 0 0-.123-.127 11.496 11.496 0 0 1-.226-.168 4.295 4.295 0 0 0-.626-.418c-.184-.093-.47-.148-.66-.074-.543.213-.835.698-1.116 1.167l-.014.022c-.047.078-.013.266.056.313a.385.385 0 0 0 .341.032c.12-.07.231-.158.328-.26l.059-.055a7.21 7.21 0 0 0 .26-.262l.075-.078v1.695l-1.674.095.097-.117a3.5 3.5 0 0 0 .278-.364.312.312 0 0 0-.015-.303.353.353 0 0 0-.288-.082.445.445 0 0 0-.229.142l-.12.12c-.248.248-.504.504-.742.769-.184.203-.176.434.02.647.178.193.375.373.566.547a.42.42 0 0 0 .237.13c.122.008.292.01.367-.07.077-.085.068-.27.037-.376a.89.89 0 0 0-.146-.254l-.053-.075h1.706L6.23 8.81l-.46-.333a3.15 3.15 0 0 1-.124-.096 1.516 1.516 0 0 0-.32-.213c-.1-.044-.305-.022-.368.06-.05.066-.046.19.012.37a.399.399 0 0 0 .147.166l.035.028c.322.267.669.554 1.02.838a.553.553 0 0 0 .347.136.49.49 0 0 0 .313-.121c.352-.29.695-.594 1.018-.905a.439.439 0 0 0 .139-.313Z"></path>
</svg>