<svg width="46" height="46" fill="currentColor" viewBox="0 0 24 24" xmlns="http://www.w3.org/2000/svg">
  <path d="m19.016 9.242-3.09 3.05c.24.463.506.883.686 1.337.62 1.558.509 3.097-.241 4.583a3.207 3.207 0 0 1-1.82 1.594 6.3 6.3 0 0 1-3.733.227c-1.627-.403-2.57-1.506-2.99-3.09-.085-.317-.136-.642-.205-.977-.225-.05-.44-.09-.65-.149-1.6-.44-2.527-1.523-2.947-3.09-.388-1.443-.21-2.805.582-4.078.114-.188.252-.36.412-.512A5.374 5.374 0 0 1 7.582 6.82a5.503 5.503 0 0 1 2.687.11c.43.12.834.33 1.158.46l2.83-2.741c-.42 0-.788.003-1.155-.002a1.9 1.9 0 0 1-.41-.034.372.372 0 0 1 0-.721 1.43 1.43 0 0 1 .326-.03c.811-.018 1.622-.033 2.433-.05.377-.009.57.12.636.498.112.635.203 1.275.286 1.915.048.37-.19.675-.498.68-.287.004-.517-.267-.52-.628.004-.405-.013-.81-.051-1.214-1.14.942-2.127 2.019-3.204 3.052.593.85 1 1.768 1.091 2.826.735.155 1.479.255 2.028.713l2.797-2.733a1.943 1.943 0 0 0-.265-.046c-.33-.011-.66-.01-.99-.022-.377-.014-.566-.155-.557-.406.009-.245.2-.37.585-.376.193-.003.385.004.578 0 .618-.015 1.237-.029 1.855-.049.403-.013.595.11.665.51.114.65.21 1.302.288 1.957a.544.544 0 0 1-.476.621c-.278.023-.513-.213-.545-.557 0-.082.003-.164.012-.246.004-.137.014-.275.006-.412-.012-.204-.038-.406-.058-.61l-.098-.042Zm-6.939 1.67c.012-.05.02-.1.022-.15a3.405 3.405 0 0 0-.08-.404c-.396-1.304-1.103-2.28-2.55-2.559-1.158-.223-2.257-.209-3.285.45-.45.288-.824.635-1.07 1.117-.795 1.565-.581 3.071.326 4.496.483.758 1.254 1.12 2.177 1.235.353-2.608 1.959-3.886 4.46-4.186Zm1.119 1.115c-.034.165-.062.296-.087.429-.361 1.856-1.332 3.08-3.35 3.41-.416.068-.836.11-1.319.172.143.477.239.935.415 1.361.423 1.028 1.202 1.652 2.293 1.873 1.01.205 2 .103 2.966-.23.596-.204 1.071-.591 1.338-1.16.763-1.627.714-3.22-.313-4.73-.449-.66-1.096-1.02-1.943-1.125Zm-1.085-.121c-2.123-.154-3.686 1.604-3.61 3.211 2.194.054 3.507-.956 3.61-3.211Z"></path>
</svg>