<svg width="46" height="46" fill="currentColor" viewBox="0 0 24 24" xmlns="http://www.w3.org/2000/svg">
  <path d="M16.633 12.048a5.37 5.37 0 0 1-.412 2.158c-.43 1.074-1.194 1.794-2.305 2.13a6.54 6.54 0 0 1-3.298.167c-1.553-.329-2.55-1.289-3.046-2.768-.522-1.556-.405-3.064.492-4.464a3.33 3.33 0 0 1 .725-.78c.753-.602 1.619-.946 2.58-1.096 1.011-.158 1.97.018 2.907.358.53.192.93.582 1.261 1.03.725.977 1.126 2.066 1.096 3.265ZM11.78 8.302c-1.11.076-1.49.189-2.152.59a2.89 2.89 0 0 0-1.093 1.147c-.67 1.272-.559 2.549-.03 3.82.427 1.028 1.22 1.638 2.31 1.853.994.197 1.971.094 2.925-.23.596-.203 1.075-.584 1.344-1.152.777-1.64.72-3.24-.319-4.763a2.25 2.25 0 0 0-.956-.826c-.702-.303-1.438-.45-2.03-.44Z"></path>
</svg>