<svg width="46" height="46" fill="currentColor" viewBox="0 0 24 24" xmlns="http://www.w3.org/2000/svg">
  <path d="M3.853 5.803c-.076.001-.152 0-.228-.002a4.182 4.182 0 0 0-.429.007c-.533.045-.75.267-.775.793-.037.794-.068 1.601-.099 2.382l-.034.864c-.002.057-.002.114.001.17.039.728.312 1.028 1.044 1.146.063.01.126.017.19.024.216.024.421.046.608.19l.016.293c.014.234.028.476.03.713l.027 3.32c.009 1.224.019 2.448.03 3.671 0 .382.02.764.06 1.143.062.526.214.676.738.731l.19.02c.504.062 1.012.1 1.52.11a354.114 354.114 0 0 0 5.698-.022c.72-.009 1.45-.034 2.157-.06.52-.017 1.057-.036 1.585-.048a88.458 88.458 0 0 1 1.537-.018c.376-.002.764-.004 1.146-.01.435-.007.674-.208.752-.634.02-.13.03-.26.03-.39.002-.062.004-.124.008-.186.032-.494.064-.988.098-1.482.073-1.082.148-2.2.208-3.302.02-.353.057-.714.093-1.062.106-1.032.216-2.099-.105-3.177l.076-.017a2.14 2.14 0 0 1 .262-.048c.108-.01.22-.015.327-.02.16-.008.325-.016.487-.04.434-.063.683-.336.719-.787a2.13 2.13 0 0 0-.007-.319l-.001-.018-.215-3.021-.062-.862a.082.082 0 0 0-.07-.075 6.59 6.59 0 0 1-.14-.02 3.045 3.045 0 0 0-.28-.035c-.3-.019-.599-.036-.898-.053-.53-.03-1.08-.061-1.618-.1a.947.947 0 0 1-.264-.075 8.203 8.203 0 0 0-.058-.023l.072-.152c.069-.137.129-.28.179-.425a1.736 1.736 0 0 0-.1-1.356 1.76 1.76 0 0 0-1.082-.85 2.51 2.51 0 0 0-1.163-.069c-1.105.194-2.101.7-3.045 1.543a19.786 19.786 0 0 0-.487.452l-.084-.136c-.086-.138-.16-.258-.239-.376a2.687 2.687 0 0 0-.978-.9c-1.084-.577-2.244-.627-3.446-.15a1.906 1.906 0 0 0-.846.688c-.442.62-.424 1.135.06 1.723.066.077.137.15.211.219l.077.074-.661.009-2.822.035Zm1.629 6.329a16.164 16.164 0 0 0-.061-.745l.062-.012c.066-.016.133-.025.2-.028 1.66-.002 3.318-.002 5.037-.002h.991c0 .456-.004.906-.008 1.343a64.956 64.956 0 0 0 .02 3.068c.04 1.013.125 2 .216 3.047.037.424.075.862.109 1.299a5.96 5.96 0 0 0-.12.037 1.022 1.022 0 0 1-.286.063c-1.856.014-3.684.02-5.858.024h-.001a1.025 1.025 0 0 1-.201-.03 3.002 3.002 0 0 0-.079-.015 15.155 15.155 0 0 0-.013-.124 3.283 3.283 0 0 1-.025-.36 4012.474 4012.474 0 0 0 .047-6.666 14.84 14.84 0 0 0-.03-.899Zm4.807-5.198c.145 0 .29-.005.435-.01a8.82 8.82 0 0 1 .845 0c.091.57.132 2.213.074 3.006-.404.1-.83.093-1.242.086-.22-.003-.449-.007-.673.005-.612.033-1.236.038-1.84.042l-.486.004c-.566.006-1.151.011-1.725-.015-.156-.007-.315-.01-.469-.012-.496-.008-1.008-.017-1.54-.176l-.132-2.881c.289-.028.58-.023.867.014.146.014.297.028.446.032a54.22 54.22 0 0 0 2.765.004c.232-.008.467-.022.695-.035.198-.012.402-.024.603-.032.464-.017.927-.028 1.377-.032Zm-1.948-1.27-.503-.702c.04-.433.25-.684.678-.813.635-.19 1.22-.193 1.788-.01.645.206 1.056.641 1.361 1.444l-3.324.08Zm4.867-.18a4.929 4.929 0 0 1 2.813-1.633c.396-.081.845-.108 1.192.305.076.774.076.799-.145 1.297a4.082 4.082 0 0 0-.069.012 1.54 1.54 0 0 1-.254.032 455.1 455.1 0 0 1-3.482.036.315.315 0 0 1-.034-.029 1.446 1.446 0 0 0-.021-.02Zm-.37 10.23c.028-1.013.021-2.004.015-3.053-.003-.432-.006-.867-.006-1.306.809-.096 5.669-.319 6.479-.297l-.049.223c-.05.23-.103.466-.134.704a52.3 52.3 0 0 0-.256 2.344c-.07.86-.125 1.733-.177 2.579l-.047.745c-.023.353-.044.706-.064 1.059-.024.404-.047.807-.074 1.21a.432.432 0 0 1-.042.128l-.018.045H12.61c.024-.434.05-.865.075-1.294.062-1.014.125-2.062.153-3.088Zm7.58-9.192c.006.009.01.018.012.028l-.069 2.795-.005.24a9.128 9.128 0 0 0-.126.025 2.62 2.62 0 0 1-.36.06c-2.301.156-4.613.238-6.874.245-.115-.636-.15-2.272-.063-2.99.471-.106.968-.117 1.45-.127l.39-.01c.299-.011.603-.013.897-.015.318-.002.647-.004.972-.017a49.851 49.851 0 0 0 1.947-.127c.43-.033.86-.075 1.275-.115l.496-.048.027.025c.012.01.022.02.032.031Z"></path>
</svg>