<svg width="46" height="46" fill="currentColor" viewBox="0 0 24 24" xmlns="http://www.w3.org/2000/svg">
  <path d="M23.35 10.619c-.039-2.326-.984-4.312-2.81-5.9-1.464-1.276-3.263-2.205-5.344-2.763-.805-.215-1.656-.4-2.547-.4a5.844 5.844 0 0 0-1.39.164c-2.089.512-3.621 1.103-4.966 1.92C4.28 4.859 3.003 6.07 2.15 7.57.998 9.593.579 11.681.868 13.954c.17 1.338.661 2.659 1.545 4.155.697 1.179 1.59 2.025 2.732 2.585.6.296 1.19.582 1.803.842 1.62.69 3.28.97 5.387.905.131-.018.292-.037.475-.059.489-.059 1.158-.138 1.808-.256 1.82-.328 3.31-.884 4.555-1.7a5.808 5.808 0 0 0 1.13-.95 10.95 10.95 0 0 0 1.574-2.285c1.032-1.972 1.514-4.122 1.474-6.572ZM4.573 5.988c1.57-1.426 3.276-2.417 5.213-3.03l.336-.107-.255.242c-1.19 1.135-1.963 2.55-2.503 3.655l-.022.046-.052-.001c-.666-.006-2.13-.372-2.7-.674l-.102-.054.085-.077Zm-2.9 5.91c.188-1.893.888-3.573 2.14-5.135l.034-.042 3.12.922-.03.08a19.67 19.67 0 0 0-1.047 4.124l-.01.069-4.217.073.01-.091Zm1.523 5.953-.038-.058c-1.042-1.618-1.54-3.264-1.52-5.03l.001-.08H5.71l.094 4.058-2.61 1.11Zm3.63 2.708c-1.15-.506-2.34-1.03-3.195-2.091l-.06-.075.084-.046c.763-.428 1.551-.677 2.221-.865l.09-.024.013.09c.195 1.213.53 2.147 1.05 2.937l.152.23-.355-.156Zm4.284.98-.073.006a4.813 4.813 0 0 1-.4.017 7.855 7.855 0 0 1-1.627-.205.406.406 0 0 1-.233-.185l-.117-.19c-.31-.505-.623-.768-.931-1.547-.308-.777-.555-1.519-.635-2.199l-.008-.072.071-.016a23.026 23.026 0 0 1 4.03-.554l.09-.005-.167 4.95Zm.204-5.759-4.328.62-.011-.08c-.18-1.245-.151-2.514-.1-3.59l.003-.077h4.566l-.13 3.127Zm.155-3.96H6.991l.008-.088c.115-1.227.41-2.498.903-3.885l.021-.06 3.545.283v3.75Zm.027-4.581L8.24 7.04l.046-.106c.85-1.952 1.929-3.346 3.397-4.385l.141-.1-.33 4.789Zm3.85-4.123c1.33.391 3.04 1.008 4.468 2.323l.086.08-.21.106c-.675.344-1.312.668-2.082.788l-.054.009-.028-.048c-.113-.183-.223-.37-.333-.555-.54-.908-1.098-1.847-1.923-2.564l-.282-.244.358.105Zm-2.77.168.028-.61.005-.117.11.046c1.61.69 2.761 1.907 3.73 3.949l.046.095-.38.07c-1.198.225-2.33.438-3.537.477l-.082.003-.002-.082c-.038-1.286.02-2.522.081-3.831Zm-.096 4.814 4.427-.667.025.056c.526 1.183.774 2.506.758 4.046v.078l-5.21.194V8.098Zm-.05 4.522 5.248-.164-.003.086a21.39 21.39 0 0 1-.39 3.454l-.013.071-4.967-.354.125-3.093Zm1.946 8.67c-.54.087-1.08.16-1.652.237l-.597.081-.097.014.22-5.062.075-.003c1.38-.052 2.803.055 4.612.345l.099.015-.035.093-.11.29c-.318.85-.706 1.6-1.106 2.377-.44.855-1.262 1.59-1.41 1.613Zm5.985-3.404c-.8 1.534-2.178 2.217-3.547 2.727l-.227.084.129-.204c.599-.948.99-1.981 1.404-3.076l.11-.29 2.177.672-.046.087Zm1.945-5.508c-.144 1.73-.564 3.18-1.32 4.563l-.03.056-2.462-.642.422-3.952 3.398-.116-.008.09Zm.044-1.014-.01.07-3.43.12-.01-.074c-.03-.22-.056-.445-.082-.661-.057-.49-.117-.997-.219-1.482a15.692 15.692 0 0 0-.396-1.426c-.065-.21-.133-.425-.195-.642l-.02-.07 2.534-1.045.037.028c1.15.849 2.02 3.369 1.79 5.182Z"></path>
</svg>