<svg width="46" height="46" fill="currentColor" viewBox="0 0 24 24" xmlns="http://www.w3.org/2000/svg">
  <path d="M21.25 11.054a4.11 4.11 0 0 0-.428-.022l-1.409.018c-1.459.016-2.968.034-4.451.07-.558.028-1.113.096-1.66.205-.419.074-.656.359-.618.744.033.343.283.565.668.593.485.036.985.03 1.415.023.947-.018 1.893-.038 2.84-.06l.18-.003c.836-.018 1.672-.036 2.507-.052.153-.004.306.006.5.018l.027.002.152.01c-.129 3.034-1.297 5.192-3.57 6.596-2.434 1.505-5.085 2.049-7.878 1.62-1.85-.286-3.33-1.154-4.401-2.582-1.45-1.932-2.216-4.03-2.278-6.235-.1-3.62 1.624-6.425 4.855-7.902 1.249-.57 2.308-.892 3.333-1.015 2.861-.342 5.177.325 7.077 2.04.02.017.04.036.063.058.064.065.133.123.209.173.311.197.632.172.881-.067.268-.257.299-.608.08-.894a3.475 3.475 0 0 0-.683-.656 10.241 10.241 0 0 0-5.507-2.034c-2.842-.192-5.512.596-7.937 2.342-1.929 1.39-3.122 3.342-3.545 5.805-.42 2.44-.014 4.896 1.205 7.301.616 1.214 1.302 2.166 2.097 2.912 1.541 1.443 3.478 2.172 5.92 2.228.096.002.19.004.285.004 1.77 0 3.538-.377 5.404-1.15 1.88-.78 3.339-1.947 4.337-3.47.974-1.487 1.486-3.277 1.522-5.319.017-.94-.24-1.22-1.192-1.3Z"></path>
</svg>