<svg width="46" height="46" fill="currentColor" viewBox="0 0 24 24" xmlns="http://www.w3.org/2000/svg">
  <path d="M2.414 12.663a.082.082 0 0 0 .032.065l.02 1.174c.023 1.364.047 2.774.075 4.161-.001.224.023.447.072.666.444 1.774 1.981 2.817 3.916 2.659a15.472 15.472 0 0 1 1.54-.057c1.609.028 3.244.064 4.825.098l2.161.047c.112.002.226 0 .335-.002a4.59 4.59 0 0 1 .596.015c.294.034.59.05.886.05a8.579 8.579 0 0 0 1.818-.201c1.676-.362 2.995-2.06 2.941-3.787a107.53 107.53 0 0 1-.044-2.862c-.002-.74.001-1.494.004-2.223.005-1.416.01-2.881-.019-4.321-.02-.996-.172-1.98-.317-2.812-.175-1.004-.638-1.751-1.373-2.22-.783-.5-1.479-.72-2.192-.693-.222.009-.446.026-.663.043-.263.02-.535.042-.802.047-1.026.02-2.07.029-3.079.039-2.3.021-4.677.043-7.014.181a6.042 6.042 0 0 0-1.458.259c-1.19.375-2.134 1.542-2.196 2.714l-.016.294c-.021.387-.044.787-.045 1.18a867.346 867.346 0 0 0-.004 3.985l.001 1.5Zm8.041-9.009c.363-.007.725-.016 1.087-.024h.01c.035 0 .072.003.118.008l.019.002c-.205 2.704-.215 5.421-.207 7.767l-7.957.171-.01-.107c-.01-.117-.019-.217-.02-.318L3.49 9.818c-.002-.796-.005-1.62-.018-2.43a5.362 5.362 0 0 1 .314-1.927c.264-.737.76-1.202 1.517-1.42.78-.227 1.6-.265 2.394-.303h.01c.916-.044 1.848-.064 2.749-.084ZM3.51 17.19v-.055a611.333 611.333 0 0 1 .018-4.01l-.001-.108a2.487 2.487 0 0 1 0-.174c.01-.197.06-.256.231-.256l.038.001c.101.005.205.017.305.029.13.017.26.028.39.03.73.003 1.512 0 2.533-.012.852-.01 1.703-.02 2.555-.033l1.652-.022c.054 0 .108.003.162.008l.046.004-.07 7.717-.038.004a2.118 2.118 0 0 1-.186.011l-.752.002c-1.374.004-2.794.007-4.19.006-.67 0-1.229-.178-1.707-.542-.501-.383-.808-.936-.937-1.691a5.42 5.42 0 0 1-.05-.91Zm9.355-4.607h.33l1.527-.01c1.348-.007 2.741-.015 4.112-.033.399-.005.792-.032 1.208-.06.164-.011.33-.023.5-.033v.281l.005 1.442c.003 1.17.008 2.34.014 3.51.006 1.045-.875 2.243-1.886 2.566a6.89 6.89 0 0 1-2.269.306c-.861-.021-1.738-.064-2.585-.105-.321-.016-.643-.032-.964-.046a5.536 5.536 0 0 1-.327-.027l-.078-.008c.252-2.745.292-5.468.296-7.783h.117Zm7.694-2.212c-.005.344-.01.7-.008 1.047h-7.768l-.257-7.778.044-.008c.064-.013.13-.022.196-.024L14 3.59c1.147-.016 2.333-.032 3.498-.022a2.891 2.891 0 0 1 2.013.82c.211.211.37.47.46.756.16.53.29 1.07.386 1.615.234 1.192.217 2.421.2 3.61Z"></path>
</svg>