<svg width="46" height="46" fill="currentColor" viewBox="0 0 24 24" xmlns="http://www.w3.org/2000/svg">
  <path d="M2.515 14.928c.024.98.048 1.994.057 2.991.007.683.157 1.258.46 1.758.619 1.025 1.493 1.588 2.597 1.674.342.02.685.018 1.027-.003.198-.009.403-.018.604-.018.62 0 1.28.007 2.077.023a1238.038 1238.038 0 0 1 6.741.156l1.22.032h.013c.08-.012.177-.024.29-.037.299-.036.709-.085 1.108-.169 1.656-.346 2.967-2.03 2.921-3.753a109.546 109.546 0 0 1-.042-2.944c0-.876.005-1.768.01-2.63.004-.748.009-1.52.01-2.281 0-.158-.014-.316-.028-.47a3.948 3.948 0 0 1-.022-.587c.074-1.155-.109-2.293-.286-3.27-.152-.843-.463-1.471-.95-1.921-.775-.717-1.677-1.069-2.68-1.052-.24.005-.482.025-.716.044-.232.02-.472.04-.707.044-1.035.02-2.087.03-3.104.04-2.284.022-4.645.046-6.966.175a5.5 5.5 0 0 0-.861.097C3.79 3.15 2.873 4.025 2.562 5.429a3.967 3.967 0 0 0-.059.888c.001.09.002.18 0 .27-.004.449-.01.898-.018 1.348-.02 1.261-.04 2.566-.03 3.85.01 1.047.035 2.113.06 3.143Zm18.023-5.522v4.548l-4.609.098-.14-4.57 4.749-.076Zm-4.624 5.934.657-.005a87.211 87.211 0 0 0 1.637-.02c.545-.013 1.08-.037 1.645-.06l.679-.03.002.015c.011.065.018.13.02.196.001.231.008.467.014.695a12.99 12.99 0 0 1-.023 1.628c-.112 1.133-.68 1.95-1.687 2.425-.557.262-2.295.478-2.944.32V15.34Zm4.038-10.276c.136.424.249.856.337 1.293.077.39.133.792.187 1.18l.049.35c.01.088.017.177.019.267l.002.06-4.836.097-.21-4.774c.237.008.473.014.702.02.628.014 1.22.028 1.812.095.364.041.725.231 1.074.415l.06.032a1.625 1.625 0 0 1 .804.965ZM9.705 8.47a8.952 8.952 0 0 0-.012-.072 1.509 1.509 0 0 1-.028-.23L9.65 6.57l-.018-1.76a29.564 29.564 0 0 0-.027-.817 79.16 79.16 0 0 1-.013-.33l5.064-.09.067 4.767-5.018.128Zm.01 9.067a76.69 76.69 0 0 0 .067-2.077c1.61-.123 3.188-.12 4.857-.116h.199l-.1 5.12-5.088-.172c-.009-.914.03-1.85.066-2.755Zm.088-3.34L9.741 9.62c.537-.07 4.242-.152 5.024-.078.072 1.113.072 2.21.071 3.37 0 .369 0 .74.002 1.111l-5.035.172ZM8.17 3.725l.28.003c.08.002.16.003.242.003.056.153.039.317.02.49a2.795 2.795 0 0 0-.018.218c-.03.854-.065 1.722-.098 2.562l-.047 1.195a4.873 4.873 0 0 0-.001.231v.075c-1.73.076-3.371.119-5.014.132l-.008-.331c-.027-.984-.052-1.914.29-2.822.284-.758.789-1.23 1.543-1.442.675-.191 1.382-.235 2.066-.277l.418-.028c.109-.007.217-.01.327-.01ZM3.577 14.608V9.632h4.987c.067 1.524.07 3.058.008 4.685l-4.995.291Zm-.012 1.019v-.073H8.57l-.176 4.798a36.782 36.782 0 0 0-.806-.01c-.662-.006-1.287-.011-1.915-.076-.892-.093-1.549-.617-1.9-1.517a3.67 3.67 0 0 1-.235-1.53c.016-.315.02-.634.023-.943.001-.123.002-.246.005-.369v-.28Z"></path>
</svg>