<svg width="46" height="46" fill="currentColor" viewBox="0 0 24 24" xmlns="http://www.w3.org/2000/svg">
  <path d="M12.198 18.171c-.994.021-1.955-.137-2.845-.595-1.406-.725-2.192-1.855-2.174-3.474.007-.619.24-.83.864-.85 1.516-.052 3.034-.072 4.546-.173.944-.063 1.883-.225 2.816-.39.777-.136 1.438.41 1.37 1.228a5.056 5.056 0 0 1-1.518 3.266c-.686.677-1.544.932-2.479.987-.193.01-.386.001-.58.001Zm-3.353-1.955c1.971-1.526 3.98-1.91 6.15-.46a3.574 3.574 0 0 0 .589-1.928c.003-.242-.107-.36-.364-.303a8.59 8.59 0 0 1-.528.1c-2.152.342-4.322.256-6.487.256-.297 0-.428.102-.382.373.129.764.396 1.461 1.022 1.962Zm5.425.374c-1.073-1.063-3.6-.968-4.581.154 1.183.711 3.943.638 4.58-.154Z"></path>
  <path d="m9.374 9.896-.988-.93c-.442-.415-.423-.372-.865-.788-.192-.18-.348-.378-.15-.64.142-.188.415-.14.686.105.87.784 1.28 1.11 2.147 1.896.368.334.375.724.027 1.076a.921.921 0 0 1-.19.157c-1.012.575-2.089.83-3.251.656a1.615 1.615 0 0 1-.159-.047c-.225-.058-.366-.195-.366-.435a.406.406 0 0 1 .373-.426c.53-.085 1.065-.136 1.593-.23.373-.066.74-.179 1.109-.27l.034-.124Z"></path>
  <path d="M15.127 10.252c.617.04 1.177.072 1.735.115.262.016.521.047.778.095.202.04.388.174.332.397-.036.143-.225.288-.7.377-.104.02-1.774.019-2.807-.238-.399-.098-.464-.557-.146-.912.524-.583.4-.555.967-1.098.357-.341.771-.624 1.161-.931.076-.06.156-.143.24-.154.13-.017.545.118.303.391-.362.339-1.771 1.806-1.863 1.958Z"></path>
  <path d="M2.61 9.406c-.857 3.374-.106 6.35 2.236 8.847.061.065.124.13.186.19 1.258 1.259 2.825 2.036 4.067 2.576.533.233 3.268.516 4.008.406 4.397-.657 7.29-3.137 8.299-7.286a10.63 10.63 0 0 0 .285-2.481c.005-1.968-.824-4.255-2.532-5.968a40.087 40.087 0 0 1-.521-.442c-.368-.316-.747-.644-1.145-.923-3.036-2.137-6.191-2.149-9.377-1.015C5.232 4.335 3.38 6.387 2.611 9.406ZM8.13 4.32c2.795-1.162 5.599-1.367 8.334.373.5.318 1.833 1.396 2.043 1.558l.014.01.01.012c1.068 1.132 2.29 3.2 2.263 5.328a10.87 10.87 0 0 1-.367 2.692c-.694 2.526-2.355 4.366-5.078 5.625-2.767 1.325-6.736-.015-7.792-.712a12.332 12.332 0 0 1-3.019-2.934c-1.302-1.845-1.595-4.496-.895-6.92A7.86 7.86 0 0 1 8.13 4.32Z"></path>
</svg>