<svg width="46" height="46" fill="currentColor" viewBox="0 0 24 24" xmlns="http://www.w3.org/2000/svg">
  <path d="M21.619 4.73a.876.876 0 0 0-.071-.062.587.587 0 0 1-.111-.11 38.676 38.676 0 0 1-.32-.472c-.18-.267-.367-.545-.562-.809a1.987 1.987 0 0 0-.468-.438c-.235-.163-.48-.147-.708.044l-.031.027c-.362.304-.736.617-1.099.931-.496.43-.736.908-.734 1.465a3.093 3.093 0 0 1-.067.558l-.011.062a.402.402 0 0 1-.12.232c-.278.22-.56.432-.833.638l-.28.212-.025-.016a19.167 19.167 0 0 0-.29-.19 6.298 6.298 0 0 1-.576-.4c-.62-.518-1.4-.8-2.208-.798-.179 0-.358.013-.536.038-1.387.19-2.363.727-2.983 1.64a11.383 11.383 0 0 0-.905 1.695c-.261.581-.678.928-1.271 1.06l-.288.063-.397.087c-.766.175-1.758.445-2.637.995-1.16.726-2.23 2.318-1.837 4.096.493 2.238 1.702 4 3.593 5.242 1.267.832 2.607.883 3.984.154 1.195-.634 2.039-1.651 2.581-3.11.195-.556.358-1.122.49-1.696a1.19 1.19 0 0 1 .825-.894c.232-.08.469-.154.698-.227l.204-.066c1.476-.472 2.493-1.46 3.023-2.934.482-1.34.28-2.534-.599-3.546a1.832 1.832 0 0 1-.131-.176l-.064-.091-.023-.031.03-.025c.09-.075.18-.15.267-.225.24-.204.469-.397.707-.58.086-.066.232-.064.328-.062a8.6 8.6 0 0 1 .427.019c.268.022.536.024.804.006.291-.018.572-.113.815-.275a16.65 16.65 0 0 0 1.366-1.203l.05-.046a.524.524 0 0 0 .18-.365.592.592 0 0 0-.187-.417Zm-5.205 6.464c-.404 1.288-1.186 2.07-2.39 2.393a10.92 10.92 0 0 0-.863.267c-.79.285-1.302.81-1.522 1.561l-.085.288c-.073.24-.148.49-.207.74-.246 1.038-.735 1.901-1.452 2.567-.65.602-1.305.9-1.99.9a2.31 2.31 0 0 1-1.219-.335c-1.723-1.024-2.785-2.558-3.156-4.558-.2-1.074.225-2.003 1.228-2.687.616-.42 1.356-.63 1.951-.797.193-.054.39-.102.582-.147.087-.02.174-.04.26-.062 1.022-.251 1.726-.845 2.153-1.815.204-.464.489-1.063.88-1.585.968-1.29 2.98-1.58 4.308-.62.104.081.2.173.286.272.045.049.091.098.14.148l.03.03-3.308 3.24-.027-.016c-.807-.48-1.47-.444-2.084.116-.729.663-.89 1.52-.453 2.415l.014.028-2.333 2.106-.027-.02c-.037-.026-.071-.056-.105-.085a.488.488 0 0 0-.188-.122c-.129-.027-.296-.03-.378.031-.057.041-.09.246-.049.31.272.415.637.959 1.044 1.467a.33.33 0 0 0 .226.13c.1.008.197-.024.273-.088.134-.112.156-.324.052-.516a2.675 2.675 0 0 0-.202-.304 5.13 5.13 0 0 1-.107-.15l-.022-.031.179-.154c.106-.092.212-.182.316-.274l.41-.358c.437-.38.887-.773 1.326-1.164.158-.141.292-.204.514-.108.513.223 1.027.165 1.527-.17 1.065-.716 1.216-1.153.809-2.336l-.01-.025 3.085-2.94.027.036c.643.817.82 1.588.557 2.422Zm-4.3 1.042.006.086a.963.963 0 0 1-.244.726 1.312 1.312 0 0 1-.94.412l-.11.004 1.289-1.228Zm-2.132.724-.024-.059c-.156-.393 0-.883.399-1.247.332-.303.62-.341.998-.135l.048.026-1.421 1.415ZM20.45 5.17c-.106.101-.209.199-.31.299a2.392 2.392 0 0 0-.176.203c-.127.157-.258.32-.426.365-.284.076-.584.078-.902.08-.136.001-.276.002-.418.009l-.052.002.009-.05.066-.376c.055-.319.107-.62.178-.916.026-.112.147-.202.245-.276l.017-.013c.212-.16.426-.313.652-.475l.27-.194.019-.013.02.009c.18.072.27.223.356.368.036.064.076.125.12.183.108.133.214.266.326.408l.177.224-.17.163Z"></path>
</svg>