<svg width="46" height="46" fill="currentColor" viewBox="0 0 24 24" xmlns="http://www.w3.org/2000/svg">
  <path d="M14.72 8.28c.384-.172.731-.33 1.08-.485.175-.078.349-.161.53-.222.477-.16.703-.106.995.312.277.392.526.804.744 1.232a203.6 203.6 0 0 1 1.728 3.555c.135.282.229.584.343.881.146-.014.293-.04.44-.04a.448.448 0 0 1 .429.265.404.404 0 0 1-.065.495c-.18.165-.385.302-.607.405-1.428.67-2.864 1.324-4.295 1.99-.485.225-.958.477-1.444.7a.346.346 0 0 0-.233.335c-.02.302-.068.6-.145.892a2.545 2.545 0 0 1-2.283 1.853 4.14 4.14 0 0 1-1.227-.052c-1.69-.381-2.342-2.104-1.358-3.53.101-.146.215-.283.351-.461-1.46-3.575-3.06-7.107-4.671-10.683-.202.08-.375.148-.55.215-.27.102-.537.213-.811.298a.672.672 0 0 1-.402.024.568.568 0 0 1-.302-.288c-.058-.152.048-.294.203-.358.177-.074.369-.116.54-.199.396-.19.79-.387 1.173-.601.42-.235.718-.177.965.25.17.296.307.613.46.92.023.048.054.092.098.164.142-.065.275-.122.407-.185 1.612-.766 3.222-1.537 4.837-2.296.529-.249.802-.167 1.101.336.208.355.395.722.56 1.1.408.914.8 1.836 1.2 2.754.054.124.12.244.21.424Zm1.985.247c-2.636 1.118-5.123 2.328-7.623 3.543l1.577 3.655c1.198-.282 2.316-.109 3.3.722l5.183-2.423-2.437-5.497Zm-3.018.215a76.445 76.445 0 0 0-1.74-4.18l-5.172 2.39c.72 1.425 1.202 2.925 1.919 4.289l4.993-2.498Zm-2.355 10.72c1.085.004 1.729-.473 1.92-1.42.128-.641-.067-1.026-.668-1.277-.265-.111-.542-.193-.812-.293-.754-.278-.942-.234-1.453.379a2.664 2.664 0 0 0-.343.51c-.162.325-.241.67-.155 1.037.162.685.697 1.063 1.511 1.065Z"></path>
  <path d="M15.401 10.597c-.225-.063-.413-.114-.49-.322a.394.394 0 0 1 .166-.507 3.97 3.97 0 0 1 .782-.355.463.463 0 0 1 .56.24.414.414 0 0 1-.177.54c-.262.165-.559.272-.84.404Z"></path>
  <path d="M10.713 6.368c-.217-.068-.41-.094-.496-.305a.4.4 0 0 1 .154-.508c.238-.155.497-.273.77-.35a.427.427 0 0 1 .501.269.411.411 0 0 1-.162.541c-.24.145-.51.238-.768.353Z"></path>
</svg>