<svg width="46" height="46" fill="currentColor" viewBox="0 0 24 24" xmlns="http://www.w3.org/2000/svg">
  <path d="M5.853 13.76c.116.129.237.257.355.382.311.311.596.649.85 1.008.257.405.49.825.698 1.257.116.229.236.466.361.694l.07.128c.29.527.588 1.072.918 1.586.18.264.403.496.658.688.473.363.998.653 1.556.86a5.023 5.023 0 0 0 1.866.358 6.196 6.196 0 0 0 2.111-.398c.495-.187.951-.46 1.35-.807.527-.447.927-1.019 1.297-1.854.386-.873.518-1.812.646-2.721.038-.27.077-.548.122-.82.04-.286.064-.574.068-.863.007-.19.014-.387.032-.578.146-1.546.106-2.934-.122-4.243a7.128 7.128 0 0 0-.354-1.318c-.27-.707-.93-1.148-1.604-1.074-.128.018-.253.05-.373.093l-.132.04a6.532 6.532 0 0 1-.025-.137 2.266 2.266 0 0 0-.085-.366c-.025-.068-.048-.137-.071-.206a3.8 3.8 0 0 0-.333-.786 1.074 1.074 0 0 0-.745-.504 1.173 1.173 0 0 0-.934.258c-.056.046-.11.094-.16.138l-.023.021c-.046-.083-.09-.166-.134-.248a10.634 10.634 0 0 0-.354-.625c-.21-.333-.545-.475-.97-.412a1.185 1.185 0 0 0-.89.602c-.127.242-.24.491-.342.745l-.106.254a3.8 3.8 0 0 0-.251-.382c-.32-.417-.741-.509-1.22-.265-.548.279-.664.809-.704 1.183-.054.466-.082.934-.084 1.403.003 1.082.015 2.182.027 3.246.006.456.01.913.015 1.369.002.155.001.31 0 .466v.167a2.31 2.31 0 0 1-.056-.05c-.037-.031-.075-.065-.117-.095-.82-.597-1.694-.807-2.596-.625a1.18 1.18 0 0 0-.885.715 1.25 1.25 0 0 0 .156 1.18c.09.12.194.232.309.332.07.065.142.133.205.204Zm3.735-.684c-.016-.944-.037-1.928-.062-3.008-.006-.22-.015-.443-.024-.66-.017-.404-.035-.823-.025-1.234.02-.874.074-1.763.127-2.622l.006-.093c.025-.41.178-.626.495-.698.258.169.418.447.49.85.106.607.181 1.219.224 1.833.054.767.094 1.548.133 2.304.023.439.046.877.071 1.316a.675.675 0 0 0 .088.29.335.335 0 0 0 .404.15.296.296 0 0 0 .241-.307c0-.104.002-.208.005-.312.01-.213.006-.427-.012-.64-.115-1.108-.058-2.235-.002-3.325l.012-.248c.024-.482.064-.955.103-1.396.037-.413.162-.74.382-1 .117-.139.213-.202.29-.195.08.008.16.088.252.255.305.554.384 1.178.438 1.77.122 1.34.123 2.762.003 4.607a6.34 6.34 0 0 1-.031.306c-.015.127-.031.26-.036.39-.006.183.04.314.136.39.097.075.235.088.41.037a.589.589 0 0 0 .449-.54l.013-.14c.042-.379.066-.759.069-1.14-.009-.992-.037-2-.065-2.976l-.006-.237c-.003-.106-.014-.213-.023-.316-.029-.294-.056-.571.067-.844l.04-.09c.06-.157.14-.307.236-.446a.353.353 0 0 1 .317-.16.346.346 0 0 1 .264.227c.101.252.179.513.231.78.195.876.165 1.783.136 2.66l-.001.039c-.034 1.04-.049 2.08-.06 3.048-.003.318.1.455.412.543a.38.38 0 0 0 .334-.03.375.375 0 0 0 .139-.3c.012-.184.011-.371.011-.552v-.234l.006-.51c.003-.365.006-.73.012-1.095.003-.181.01-.363.015-.544.011-.322.022-.655.017-.982-.007-.337.146-.606.313-.847a.327.327 0 0 1 .202-.155.372.372 0 0 1 .273.088.974.974 0 0 1 .398.619l.057.28c.135.66.273 1.345.364 2.024.112.926.115 1.862.01 2.788a1.771 1.771 0 0 0-.004.338c.102 1.108-.131 2.231-.318 3.134a5.072 5.072 0 0 1-.878 1.965c-.434.598-1.067 1.018-1.934 1.286-1.585.489-3.067.225-4.533-.807a1.474 1.474 0 0 1-.373-.357c-.251-.36-.483-.731-.695-1.114a44.584 44.584 0 0 1-.967-1.909c-.49-1.024-1.116-1.831-1.915-2.466a1.39 1.39 0 0 1-.336-.39.317.317 0 0 1-.038-.26.38.38 0 0 1 .22-.216 1.22 1.22 0 0 1 .502-.105c.094 0 .187.01.279.027.702.132 1.172.393 1.48.822.108.17.192.356.248.55.017.05.034.1.052.148.069.188.165.363.401.365.212-.001.36-.128.416-.354.03-.123.046-.248.045-.375Z"></path>
</svg>