<svg width="46" height="46" fill="currentColor" viewBox="0 0 24 24" xmlns="http://www.w3.org/2000/svg">
  <path d="M11.833 16.243c-1.245.006-2.277-.21-3.144-.903-.292-.234-.517-.563-.732-.876-.124-.18-.107-.419.116-.54.189-.104.38-.046.513.132.79 1.068 1.934 1.303 3.156 1.295.464-.003.93-.11 1.389-.199.807-.156 1.457-.56 1.897-1.275.105-.162.228-.312.366-.447.175-.178.386-.293.625-.12.212.152.208.365.12.594a3.14 3.14 0 0 1-1.358 1.614c-.956.568-2.02.696-2.948.725Z"></path>
  <path d="m9.387 8.256-.535-.119c-1.197-.265-2.235-.03-3.053.946-.086.102-.27.12-.408.177-.04-.157-.163-.364-.105-.464.178-.302.38-.622.654-.828 1.13-.852 2.385-.897 3.685-.456.209.07.373.216.316.464-.056.244-.253.305-.554.28Z"></path>
  <path d="M8.556 9.473c.673.014 1.23.31 1.682.817.078.078.13.177.15.285.01.142.008.336-.076.417-.07.066-.282.039-.402-.014-.186-.082-.347-.22-.519-.335-.934-.618-1.768-.41-2.323.559-.074.127-.271.276-.395.262-.237-.025-.239-.265-.217-.462.086-.758.847-1.412 1.75-1.509.11-.012.221-.013.35-.02Z"></path>
  <path d="M15.951 6.905c.571-.02 1.105.15 1.61.424.121.065.235.143.34.232.165.145.278.33.154.547-.135.238-.365.22-.585.146a1.56 1.56 0 0 1-.33-.172c-.901-.569-1.794-.535-2.682.033a3.1 3.1 0 0 1-.462.272c-.087.036-.255.039-.298-.015a.43.43 0 0 1-.06-.336.7.7 0 0 1 .213-.295c.588-.548 1.263-.881 2.1-.836Z"></path>
  <path d="M16.125 9.136c.468-.016.945.175 1.347.544.133.12.247.26.34.412.172.293.139.616-.052.757-.2.148-.439.065-.702-.244-.716-.839-1.503-.89-2.342-.153-.031.027-.06.057-.091.085-.147.13-.31.293-.502.124-.207-.183-.106-.399.028-.591.399-.57 1.158-.946 1.974-.934Z"></path>
  <path d="M2.67 9.364c-.859 3.374-.107 6.35 2.235 8.847.061.065.123.129.186.191 1.258 1.258 2.825 2.035 4.067 2.576.533.232 3.268.515 4.008.405 4.397-.657 7.29-3.137 8.298-7.286a10.61 10.61 0 0 0 .286-2.48c.005-1.968-.824-4.256-2.532-5.97a34.028 34.028 0 0 1-.521-.441c-.368-.316-.748-.643-1.145-.922-3.037-2.137-6.191-2.15-9.377-1.016C5.291 4.293 3.44 6.345 2.67 9.364Zm5.517-5.086c2.795-1.161 5.6-1.366 8.335.373.5.319 1.833 1.396 2.043 1.558l.013.01.012.012c1.067 1.132 2.288 3.2 2.262 5.328-.01.91-.132 1.814-.367 2.693-.695 2.525-2.356 4.365-5.078 5.624-2.767 1.325-6.736-.015-7.792-.712a12.333 12.333 0 0 1-3.019-2.934c-1.303-1.845-1.595-4.496-.895-6.92a7.86 7.86 0 0 1 4.486-5.032Z"></path>
</svg>