<svg width="46" height="46" fill="currentColor" viewBox="0 0 24 24" xmlns="http://www.w3.org/2000/svg">
  <path d="M21.654 15.449c-.068-1.247-.14-2.537-.232-3.804a14.262 14.262 0 0 0-.835-3.905 8.18 8.18 0 0 0-1.525-2.612c-1.388-1.567-3.205-2.453-5.4-2.632-1.458-.119-2.864.186-4.047.5-2.128.564-3.844 1.744-5.1 3.507-1.3 1.824-1.992 3.94-2.06 6.286l-.018.566a24.68 24.68 0 0 0-.02 1.878c.024.567.098 1.14.169 1.693.025.191.05.382.072.573.042.355.28.58.671.635.142.017.284.026.427.026.102.002.207.004.308.012.102.012.203.03.303.054l.088.019.013.203c.012.174.023.339.024.5.002.48.137.958.424 1.508.363.697.984 1.067 1.796 1.07h.01c.85 0 1.485-.39 1.833-1.128.31-.656.448-1.172.448-1.672a29.19 29.19 0 0 0-.128-3.011C8.752 14.55 7.9 13.803 6.7 13.803h-.02c-.664.004-1.226.226-1.625.64-.402.418-.603.995-.581 1.67l.009.172c.016.246.03.48-.084.71l-.146-.006c-.21-.008-.41-.015-.59-.168-.043-1.434.022-2.887.093-4.253.058-1.157.3-2.298.714-3.38.658-1.716 1.665-3 3.08-3.922 1.925-1.254 4.076-1.501 5.926-1.577 3.157.335 5.125 1.89 6.015 4.753a15.08 15.08 0 0 1 .623 3.576l.017.267c.045.71.091 1.444.118 2.167.004.11.01.22.018.33.032.332.028.666-.014.996l-.755.187-.02-.04a.47.47 0 0 1-.05-.128c-.1-.71-.5-1.254-1.296-1.766a2.156 2.156 0 0 0-2.411.134c-.455.363-.734.91-.809 1.583-.043.463-.053.93-.028 1.394l.014.432c.008.644.051 1.287.13 1.926.159 1.124.92 1.837 2.087 1.957.76.077 1.37-.2 1.765-.803.513-.784.686-1.51.528-2.22a1.985 1.985 0 0 1 .065-1.113c.127.001.25.004.373.007.303.014.607.009.91-.015.68-.07.978-.426.939-1.122l-.042-.742ZM7.72 17.477a5.001 5.001 0 0 0-.006.214c0 .008 0 .015.003.022a2.29 2.29 0 0 1-.178 1.691l-.024.048c-.047.102-.103.2-.168.291a.938.938 0 0 1-.82.37.897.897 0 0 1-.727-.486 1.456 1.456 0 0 1-.176-.578 86.406 86.406 0 0 1-.116-2.833c-.013-.553.27-.909.795-1.002.088-.016.177-.024.266-.025.42 0 .704.213.865.647.128.377.22.765.274 1.16.02.159.024.32.012.48Zm10.292-.763c.002.093.002.187 0 .282-.014.29.01.583.073.867.152.563-.07 1.038-.287 1.496-.16.34-.373.489-.671.466-.444-.034-.71-.2-.835-.524a2.58 2.58 0 0 1-.197-.756 55.188 55.188 0 0 1-.097-2.833c-.001-.204.121-.411.337-.568.187-.137.412-.213.644-.216a.821.821 0 0 1 .255.038c.185.07.362.16.527.27.08.048.161.098.249.147l-.002.415c-.002.318-.003.62.004.916Z"></path>
</svg>