<svg width="46" height="46" fill="currentColor" viewBox="0 0 24 24" xmlns="http://www.w3.org/2000/svg">
  <path d="M3.188 13.432a6.8 6.8 0 0 1-.891-2.878c-.185-2.435.572-4.499 2.51-6.052a4.845 4.845 0 0 1 3.06-1.06 9.554 9.554 0 0 1 1.722.134c1.016.179 1.966.53 2.684 1.343.385-.244.752-.482 1.124-.71a6.43 6.43 0 0 1 2.794-.926c1.403-.131 2.588.387 3.607 1.316 1.435 1.307 1.899 2.97 1.753 4.853a8.26 8.26 0 0 1-.787 2.885c-.04.085-.072.175-.114.28.099.047.195.101.286.162.217.17.195.395-.052.524a.864.864 0 0 1-.313.095c-.334.028-.527.22-.712.487a22.45 22.45 0 0 1-4.004 4.364c-.8.672-1.63 1.305-2.46 1.939a8.377 8.377 0 0 1-.878.537.91.91 0 0 1-.945.017c-.344-.197-.665-.433-.993-.656-.398-.27-.783-.56-1.19-.815-1.803-1.132-3.461-2.438-4.882-4.03a12.744 12.744 0 0 1-.768-.969.438.438 0 0 0-.407-.214 4.1 4.1 0 0 1-.616-.046c-.167-.02-.298-.109-.292-.287.007-.195.14-.288.332-.292.122-.003.244-.001.432-.001Zm7.974-.627c.384-.265.801-.28 1.234-.226.34.05.683.077 1.026.084 1.897-.001 3.794-.018 5.691-.02.254 0 .394-.1.516-.313.72-1.258 1.104-2.597 1.03-4.055-.09-1.8-.972-3.078-2.57-3.877a3.128 3.128 0 0 0-1.683-.305 5.86 5.86 0 0 0-2.32.672c-.447.241-.877.513-1.317.768-.415.241-.689.212-1.03-.124a2.772 2.772 0 0 0-1.218-.744c-.516-.14-1.037-.29-1.565-.345-1.617-.168-3.067.223-4.19 1.466-1.76 1.948-2.065 4.795-.897 7.077.08.155.178.3.26.435.69-.08.796-.148 1.152-.654.156-.242.333-.471.527-.684.322-.326.687-.265.918.133.095.186.18.377.254.572.066-.19.113-.312.151-.438.113-.367.195-.747.343-1.1.11-.278.272-.533.477-.752.333-.338.74-.25.923.186.116.279.194.571.233.87.101.763.17 1.529.257 2.294.02.116.048.232.081.346.118-.378.19-.701.32-1 .094-.212.228-.404.395-.565.237-.229.493-.209.734.01.09.082.167.179.268.29Zm-2.747-1.794-.125-.014c-.06.165-.127.328-.177.496-.142.473-.264.953-.42 1.421a2.847 2.847 0 0 1-.33.704c-.192.284-.523.282-.725.005a2.146 2.146 0 0 1-.241-.517c-.055-.147-.082-.304-.134-.505-.252.324-.431.65-.697.87-.275.226-.634.35-1 .542.34.393.674.828 1.057 1.215a20.561 20.561 0 0 0 4.246 3.312c.531.312 1.038.666 1.57.978.28.165.597.231.896.031.365-.244.723-.5 1.077-.759a27.04 27.04 0 0 0 4.52-4.142c.31-.36.604-.734.943-1.148a2.392 2.392 0 0 0-.258-.043c-2.168-.073-4.345.042-6.504-.27a.864.864 0 0 0-.43.086c-.196.083-.392.302-.558.276-.187-.03-.342-.268-.534-.435-.059.17-.134.345-.18.528-.084.347-.137.701-.23 1.045-.058.24-.15.47-.274.683-.228.364-.664.342-.859-.037a2.404 2.404 0 0 1-.262-.732c-.104-.72-.173-1.443-.247-2.166-.05-.474-.083-.95-.124-1.424Z"></path>
</svg>