<svg width="46" height="46" fill="currentColor" viewBox="0 0 24 24" xmlns="http://www.w3.org/2000/svg">
  <path d="M13.324 12.178c.619-.039 1.237-.08 1.857-.115a2.01 2.01 0 0 1 .49.015c.88.17 1.099.456 1.062 1.352-.07 1.692-1.17 3.196-2.786 3.677-1.768.526-3.472.345-5.014-.729-1.148-.799-1.58-2.069-1.229-3.424.07-.27.193-.407.507-.429 1.704-.117 3.406-.261 5.109-.396l.004.05ZM9.936 16.09c.19-.644.638-.952 1.2-1.081 1.295-.296 2.55-.325 3.663.786l.9-1.468-.102-.12-7.194.328c.334.77.84 1.224 1.533 1.555Zm-1.63-2.199 7.478-.469-.08-.585-7.397.316v.738Zm5.733 2.307c-.696-.715-1.484-.647-2.276-.517-.437.072-.888.156-1.112.686 1.157.297 2.24.292 3.388-.17Z"></path>
  <path d="M15.873 7.994c.486-.482.989-.608 1.429-.374.43.228.73 1 .58 1.57-.176.68-.542 1.26-1.158 1.597-.276.151-.672.188-.99.136a2.71 2.71 0 0 1-1.652-.952c-.436-.518-.416-1.313.018-1.835.423-.508.942-.552 1.773-.142ZM14.53 9.15a.85.85 0 0 0 .092.256c.314.443.789.627 1.287.765a.147.147 0 0 0 .116-.021c.437-.38.925-.733 1.04-1.343.033-.181-.104-.394-.163-.592-.192.073-.453.092-.563.23-.278.351-.514.407-.905.154-.485-.313-.91-.056-.904.551Z"></path>
  <path d="M8.338 10.606c-.45-.042-1.18-.43-1.672-1.204a1.33 1.33 0 0 1 .175-1.641c.387-.396.915-.417 1.522-.103a.6.6 0 0 0 .465-.002c.76-.357 1.449-.034 1.645.79.263 1.102-.685 2.217-2.135 2.16Zm.559-.646c.283-.379.583-.714.794-1.097.075-.136-.014-.449-.137-.571-.078-.079-.417-.022-.534.087-.373.344-.646.302-.973-.064-.1-.111-.444-.171-.524-.095-.14.135-.253.415-.21.592.052.213.248.433.44.56.34.223.724.377 1.144.587Z"></path>
  <path d="M2.65 9.406c-.859 3.374-.107 6.35 2.235 8.847.061.065.123.13.185.19 1.259 1.259 2.826 2.036 4.068 2.576.533.233 3.267.516 4.007.406 4.398-.657 7.291-3.137 8.3-7.286a10.62 10.62 0 0 0 .285-2.481c.004-1.968-.824-4.255-2.533-5.968a33.088 33.088 0 0 1-.52-.442c-.368-.316-.748-.644-1.145-.923-3.037-2.137-6.192-2.149-9.377-1.015C5.27 4.335 3.419 6.387 2.649 9.406ZM8.166 4.32c2.795-1.162 5.6-1.367 8.335.373.5.318 1.833 1.396 2.043 1.558l.013.01.012.012c1.067 1.132 2.288 3.2 2.261 5.328a10.86 10.86 0 0 1-.366 2.692c-.695 2.526-2.356 4.366-5.078 5.625-2.767 1.325-6.736-.015-7.792-.712a12.332 12.332 0 0 1-3.019-2.934c-1.303-1.845-1.595-4.496-.896-6.92A7.859 7.859 0 0 1 8.167 4.32Z"></path>
</svg>