<svg width="46" height="46" fill="currentColor" viewBox="0 0 24 24" xmlns="http://www.w3.org/2000/svg">
  <path d="m11.497 19.34.089.028c.326.098.633.191.836.599a.082.082 0 0 0 .072.045.08.08 0 0 0 .045-.013c.15-.099.29-.188.424-.272.28-.178.522-.33.754-.509a13.818 13.818 0 0 0 2.258-2.14c.88-1.066 1.792-2.168 2.65-3.321.537-.722.994-1.528 1.38-2.227.388-.707.618-1.49.676-2.295.105-1.324-.207-2.517-.927-3.546-.8-1.146-1.866-1.704-3.164-1.66-1.464.049-2.752.614-3.827 1.679-.052.054-.1.112-.145.173-.083.11-.163.214-.282.256-1.255-1.234-2.214-1.717-3.649-1.84-1.472-.127-2.664.35-3.543 1.42-.436.529-.819 1.1-1.141 1.706-.688 1.3-.831 2.683-.425 4.11a10.275 10.275 0 0 0 1.776 3.507c1.622 2.09 3.69 3.536 6.143 4.3ZM5.423 7.67c.189-.359.399-.706.629-1.038.547-.807 1.318-1.214 2.297-1.214.12 0 .245.006.373.019 1.306.128 2.354.71 3.115 1.727.091.123.19.236.279.335l.099.114a.08.08 0 0 0 .048.028c.352.061.495-.123.6-.3.612-1.023 1.562-1.634 2.993-1.922a3.496 3.496 0 0 1 1.025-.026c.542.052 1.007.32 1.382.8a3.49 3.49 0 0 1 .727 1.91 4.42 4.42 0 0 1-.423 2.343 14.111 14.111 0 0 1-.905 1.63 98.96 98.96 0 0 1-1.94 2.75l-.224.31c-.48.668-.978 1.34-1.46 1.99l-.52.704c-.074.101-.152.2-.234.306l-.083.106-.676-.281c-.52-.216-1.015-.422-1.51-.631a10.913 10.913 0 0 1-3.644-2.482c-1.062-1.103-1.798-2.283-2.25-3.607-.412-1.209-.313-2.377.302-3.571Z"></path>
</svg>