<svg width="46" height="46" fill="currentColor" viewBox="0 0 24 24" xmlns="http://www.w3.org/2000/svg">
  <path d="M15.073 5.38c.025-.023.097-.088.163-.156.825-.844 1.65-1.69 2.503-2.566a1.91 1.91 0 0 0-.271-.05c-.358-.012-.716-.01-1.073-.026-.312-.015-.484-.168-.478-.398.006-.226.184-.37.5-.377.425-.01.852.003 1.278-.004.399-.007.797-.022 1.195-.045.45-.025.64.094.718.544.111.635.205 1.274.28 1.916a.545.545 0 0 1-.47.624c-.28.026-.516-.209-.55-.551-.008-.081.013-.165.01-.247-.003-.35-.028-.7-.074-1.046-1.125.956-2.125 2.023-3.185 3.057l.175.282c1.116 1.737 1.214 3.557.386 5.42-.514 1.158-1.483 1.778-2.7 2.01-.295.057-.443.18-.56.449-.53 1.228-1.516 1.874-2.795 2.128-.228.045-.457.083-.733.133l.083 2.1c.298-.02.565-.038.833-.06.217-.03.435-.048.654-.052.265.012.432.177.46.393a.48.48 0 0 1-.37.525 2.024 2.024 0 0 1-.49.05c-.328.008-.656.003-1.005.003 0 .172-.004.304.001.437.022.521.062 1.043.063 1.565.001.204-.049.406-.146.585a.404.404 0 0 1-.712-.007 1.196 1.196 0 0 1-.153-.503c-.042-.52-.058-1.043-.081-1.565-.007-.148-.001-.297-.001-.504-.352 0-.664.004-.974-.002-.166 0-.33-.016-.493-.045-.249-.05-.378-.214-.363-.427.015-.215.148-.326.436-.33.437-.009.875-.003 1.35-.003.026-.72.05-1.4.074-2.12-.183-.02-.37-.045-.558-.062-1.894-.173-3.217-1.278-3.733-3.1-.424-1.496-.267-2.914.57-4.232.18-.276.405-.521.664-.726.582-.466 1.223-.84 1.962-1.003a.55.55 0 0 0 .417-.338c.65-1.36 1.824-1.963 3.226-2.29.919-.214 1.804-.135 2.686.108.416.115.81.317 1.281.507ZM7.387 8.342c-.818.174-1.626.752-1.997 1.41-.847 1.502-.66 2.982.133 4.43a2.634 2.634 0 0 0 1.536 1.241c1.24.407 2.47.308 3.665-.175.58-.234.982-.676 1.239-1.284-.236-.024-.439-.046-.643-.065-1.997-.185-3.332-1.359-3.804-3.315-.176-.73-.198-1.462-.129-2.242Zm5.966 4.543c.097-.006.195-.02.29-.041.848-.26 1.414-.819 1.72-1.643.36-.931.415-1.952.156-2.916-.24-.895-.667-1.706-1.515-2.171-.935-.514-1.977-.616-3.003-.458-.753.126-1.442.5-1.96 1.061a4.476 4.476 0 0 0-.322.435c.372.042.686.069.997.115.87.129 1.696.354 2.313 1.045a5.348 5.348 0 0 1 1.29 2.582c.127.65.1 1.305.034 1.991Zm-1.13.18a.358.358 0 0 0 .057-.105c.242-1.428-.01-2.73-.997-3.836-.259-.291-.571-.529-.952-.622-.544-.133-1.095-.232-1.646-.332-.127-.023-.264.01-.396.018-.034.129-.064.22-.082.314-.174.924.018 1.803.365 2.652.54 1.316 1.85 2.112 3.65 1.91Z"></path>
</svg>