<svg width="46" height="46" fill="currentColor" viewBox="0 0 24 24" xmlns="http://www.w3.org/2000/svg">
  <path d="M7.598 7.37c0-.25-.18-.41-.307-.594-.37-.533-.756-1.057-1.114-1.598a3.854 3.854 0 0 1-.605-1.395.58.58 0 0 1 .156-.51.46.46 0 0 1 .504-.116c.267.118.452.325.63.537A377.86 377.86 0 0 1 9.005 6.26c.683.82 1.375 1.634 2.04 2.469.724.906 1.42 1.834 2.13 2.752.198.257.388.522.602.766.95 1.084 1.802 2.243 2.67 3.39.336.444.713.856 1.054 1.296.795 1.027 1.583 2.06 2.365 3.097.183.244.11.602-.114.738a.573.573 0 0 1-.647-.082 8.644 8.644 0 0 1-.38-.405l-3.13-3.554a.527.527 0 0 0-.498-.186c-.321.053-.64.12-.96.178-1.741.322-3.43.083-5.084-.487-1.458-.502-2.845-1.154-4.1-2.059a8.997 8.997 0 0 1-1.072-.885 4.493 4.493 0 0 1-.67-.88c-.41-.683-.362-1 .2-1.61a17.46 17.46 0 0 1 3.535-2.925c.232-.146.518-.227.652-.504Zm2.554 2.892c-.373-.59-.85-1.092-1.353-1.566-.084-.079-.262-.09-.393-.08-.137.02-.27.066-.39.136-1.366.709-2.595 1.614-3.744 2.63a.427.427 0 0 0-.05.613c.308.346.663.647 1.056.895 1.362.905 2.846 1.553 4.41 2.014 1.264.372 2.556.438 3.861.271a.563.563 0 0 0 .459-.323c-.128-.17-.268-.351-.405-.536-.347-.468-.737-.84-1.396-.653a1.06 1.06 0 0 1-.278.002c-.987 0-2.183-.814-2.012-2.313.041-.36.152-.714.235-1.09Z"></path>
  <path d="M17.62 15.435c-.336-.181-.555-.47-.753-.8a.5.5 0 0 1 .1-.64.982.982 0 0 1 .127-.092c.515-.316.992-.69 1.421-1.115 1.671-1.646 1.58-1.243 0-2.79-.98-.96-2.22-1.511-3.53-1.886-.807-.23-1.631-.374-2.477-.34-.232.008-.465.003-.698.008-.351.01-.628-.148-.855-.395-.125-.134-.225-.292-.337-.438-.069-.091.015-.298.13-.335.906-.3 1.836-.268 2.762-.155 2.542.307 4.678 1.458 6.524 3.18.302.28.55.623.8.955.19.267.291.587.287.914.004.18-.002.391-.089.537-.816 1.366-1.758 2.617-3.245 3.34-.054.021-.11.039-.166.053Z"></path>
  <path d="M14.693 11.23c-.023.18-.156.583-.223.5-.522-.641-1.31-1.581-1.81-2.24a.24.24 0 0 1-.01-.23.307.307 0 0 1 .243-.088c.413.065.797.251 1.103.534.472.43.763.998.697 1.524Z"></path>
</svg>