<svg width="46" height="46" fill="currentColor" viewBox="0 0 24 24" xmlns="http://www.w3.org/2000/svg">
  <path d="M20.925 10.365c-.115-.104-.234-.21-.347-.32-.946-.904-1.891-1.81-2.837-2.716-1.62-1.551-3.239-3.101-4.86-4.65-.583-.559-.837-.554-1.43.027l-.42.411C8.97 5.137 6.839 7.226 4.734 9.273c-.447.435-.914.864-1.366 1.28-.219.2-.437.402-.655.604-.094.087-.38.354-.134.64.165.192.385.18.654-.034.175-.14.35-.286.519-.427l.328-.272c.048-.04.098-.076.174-.13l.025-.018.001.493c.003.437.004.85-.003 1.261-.015.781-.032 1.563-.051 2.344-.023 1.019-.048 2.073-.065 3.11-.01.658-.017 1.357.036 2.038.057.735.338 1 1.114 1.055.471.032.95.07 1.414.106.917.071 1.865.145 2.8.188a295.481 295.481 0 0 0 6.978.234 15.205 15.205 0 0 0 1.957-.142c.973-.126 1.325-.467 1.45-1.401.156-1.172.26-2.407.321-3.774.054-1.209.074-2.396.095-3.653l.026-1.436c.082.078.154.145.229.21.297.258.618.28.835.058a.515.515 0 0 0 .152-.372.727.727 0 0 0-.242-.5c-.13-.126-.268-.25-.4-.37Zm-10.989 3.68 3.73-.354.117 7.097-3.993-.154.146-6.59Zm4.834.663c-.001-.36-.02-.724-.04-1.076l-.013-.27c-.013-.253-.082-.43-.212-.544-.132-.115-.324-.16-.585-.137a330.33 330.33 0 0 1-4.244.35c-.568.043-.76.25-.76.821.003 2.439.002 4.31-.002 6.066a4.524 4.524 0 0 1-.033.46l-.018.173-3.77-.235a10.682 10.682 0 0 0-.02-.172 3.361 3.361 0 0 1-.04-.449c.003-.655.011-1.322.019-1.967.008-.77.017-1.565.02-2.347.003-.737 0-1.487-.001-2.212-.002-.876-.005-1.782 0-2.673a.68.68 0 0 1 .16-.437c1.702-1.638 3.441-3.294 5.124-4.895l.785-.748c.251-.24.504-.477.763-.72l.32-.3c.227.219.453.436.68.652.522.5 1.062 1.018 1.587 1.53.668.65 1.334 1.303 2 1.957.849.831 1.727 1.691 2.593 2.533.178.174.26.313.21.59-.03.222-.03.448.002.671.016.144.024.29.024.434l-.009.333c-.034 1.344-.07 2.733-.135 4.098-.039.815-.103 1.643-.164 2.444l-.081 1.083-.001.017c-.003.034-.005.067-.01.1-.09.719-.153.783-.837.862a19.658 19.658 0 0 1-3.31.103v-1.577c.001-1.483.002-3.017-.002-4.518Z"></path>
</svg>