<svg width="46" height="46" fill="currentColor" viewBox="0 0 24 24" xmlns="http://www.w3.org/2000/svg">
  <path d="M19.6 12.492c-.017-.393-.134-.785-.247-1.165l-.014-.046a1.267 1.267 0 0 0-.754-.821c-.558-.235-1.081-.159-1.557.226-.22-.501-.579-.821-1.067-.952-.573-.154-1.038-.032-1.385.364-.587-.807-1.02-.891-1.949-.378l-.03-.458c-.023-.38-.047-.774-.086-1.159a58.853 58.853 0 0 0-.279-2.414 2.685 2.685 0 0 0-.518-1.22c-.321-.436-.766-.532-1.252-.27a1.173 1.173 0 0 0-.595.745c-.062.214-.1.434-.113.657l-.02.435a44.45 44.45 0 0 0-.072 2.202c.001.893.022 1.768.044 2.694l.024 1.087-.017-.016a1.734 1.734 0 0 0-.134-.113c-.833-.61-1.718-.823-2.632-.632a1.17 1.17 0 0 0-.943 1.279c.02.198.089.39.2.556.142.206.313.392.507.552a6.45 6.45 0 0 1 1.542 1.94 69.55 69.55 0 0 0 1.714 3.1c.17.27.388.509.644.703.512.403 1.086.72 1.7.936a5.034 5.034 0 0 0 1.774.322 6.156 6.156 0 0 0 2.087-.39 4.503 4.503 0 0 0 1.353-.8c.726-.6 1.231-1.421 1.546-2.509.42-1.446.598-2.95.53-4.454ZM10.488 13c-.016-.959-.037-1.971-.062-3.01-.005-.213-.015-.43-.024-.64a17.48 17.48 0 0 1-.025-1.17c.019-.84.068-1.692.116-2.517l.014-.24c.018-.328.092-.644.497-.739.26.17.42.449.49.852.107.607.182 1.218.225 1.832.056.803.097 1.62.138 2.41.02.403.042.807.064 1.21.014.253.117.398.313.445.198.049.362-.057.485-.314l.056-.116c.114-.24.233-.487.367-.719.081-.14.228-.296.47-.248a.479.479 0 0 1 .386.424 4.8 4.8 0 0 1 .06.768c.002.352.048.524.304.553.252.027.34-.121.438-.464.069-.261.165-.515.286-.757.155-.288.34-.352.683-.237.337.114.54.338.599.667.03.193.048.388.053.583l.009.15c.01.187.054.388.293.454.24.066.37-.084.474-.255l.09-.15c.083-.152.179-.296.286-.432.17-.202.364-.3.547-.277.184.023.348.167.462.405.289.603.394 1.3.312 2.073a38.28 38.28 0 0 1-.376 2.606 4.874 4.874 0 0 1-.88 2.006c-.432.597-1.064 1.018-1.935 1.288-1.587.49-3.07.227-4.532-.806a1.612 1.612 0 0 1-.4-.39 11.642 11.642 0 0 1-.67-1.08 46.03 46.03 0 0 1-.967-1.91c-.49-1.024-1.116-1.832-1.915-2.466a1.395 1.395 0 0 1-.336-.39.318.318 0 0 1-.038-.26.38.38 0 0 1 .22-.216c.157-.07.328-.107.5-.106.094 0 .188.01.28.027.747.144 1.219.417 1.53.887.09.154.16.32.206.492.014.047.03.093.045.14.061.18.157.364.4.365h.004c.207 0 .357-.128.412-.353a1.48 1.48 0 0 0 .046-.375Z"></path>
  <path d="M6.266 3.971c.062-.072.228-.265.035-.456-.12-.118-.275-.107-.427.032-.488.445-1.005.921-1.496 1.415-.098.098-.166.358-.096.46.377.55.787 1.105 1.222 1.648a.315.315 0 0 0 .246.112h.003a.328.328 0 0 0 .26-.126.562.562 0 0 0 .074-.445 1.05 1.05 0 0 0-.214-.355c-.02-.023-.038-.047-.056-.07a23.323 23.323 0 0 0-.538-.672l.02-.007a.209.209 0 0 1 .066-.017l1.065.006c.551.004 1.102.008 1.653.01h.04c.304.006.607-.005.908-.036a.413.413 0 0 0 .382-.396.39.39 0 0 0-.356-.415 5.447 5.447 0 0 0-.902-.042c-.61.024-1.23.058-1.828.09l-.695.038-.021-.034.176-.197c.158-.177.322-.36.479-.543Z"></path>
  <path d="m15.79 4.508-.708.019c-.443.01-.902.022-1.352.04a1.63 1.63 0 0 0-.571.115c-.1.043-.173.22-.168.337.004.102.16.203.245.23a.917.917 0 0 0 .303.027h.077a749.117 749.117 0 0 0 2.515-.003c.065 0 .132.006.216.013l.078.007-.107.118c-.106.118-.199.22-.285.327l-.063.076c-.11.12-.202.255-.276.4-.05.113-.044.323.038.414.075.081.225.086.358.09h.046a.315.315 0 0 0 .204-.108l.267-.294c.33-.364.67-.74.984-1.127.178-.22.158-.445-.058-.65-.408-.39-.832-.769-1.26-1.127-.085-.072-.28-.07-.378-.017-.087.046-.12.239-.096.336a.951.951 0 0 0 .21.366c.087.098.18.19.28.277l.111.103-.181.01c-.165.01-.295.018-.428.021Z"></path>
</svg>