<svg width="46" height="46" fill="currentColor" viewBox="0 0 24 24" xmlns="http://www.w3.org/2000/svg">
  <path d="M13.873 17.169c.26 0 .447-.012.633.002.322.024.484.178.52.502.017.2.022.4.015.6-.005.75-.011 1.497-.02 2.246-.006.62-.242.798-.868.805-1.137.013-2.273.076-3.41.114-.388.013-.776.027-1.164.015-.38-.011-.579-.206-.57-.578.02-.936.043-1.872.1-2.806.04-.63.142-.7.788-.755a.657.657 0 0 0 .132-.046c-.13-.533-.26-1.062-.39-1.6a.722.722 0 0 0-.204-.024c-.704.129-1.117-.281-1.476-.79-.696-.989-1.064-2.123-1.421-3.258-.441-1.403-.656-2.84-.526-4.313a6.148 6.148 0 0 1 .795-2.545c.614-1.067 1.547-1.725 2.739-2 1.56-.36 3.133-.406 4.691-.007 1.401.359 2.427 1.205 3.04 2.526 1.005 2.169.998 4.375.194 6.593-.222.644-.5 1.268-.829 1.864-.321.56-.739 1.07-1.162 1.561-.125.146-.412.211-.623.21-.416-.005-.59.175-.663.565-.068.364-.203.716-.322 1.119ZM12.643 3.24c.24.648.521 1.255.687 1.894.68 2.62.666 5.29.521 7.968-.027.514-.078 1.027-.124 1.604.448-.046.861-.03 1.228-.15.159-.053.224-.389.332-.595.013-.024.03-.045.043-.068.387-.76.828-1.497 1.15-2.284.615-1.5.84-3.063.451-4.668-.202-.832-.441-1.651-1.032-2.318-.87-.983-2.017-1.292-3.255-1.383Zm.05 11.485a2.57 2.57 0 0 0 .066-.274c.095-.998.215-1.994.274-2.994a24.497 24.497 0 0 0-.284-5.519c-.147-.873-.36-1.726-.83-2.496-.12-.198-.272-.22-.469-.217-.2.002-.33.075-.393.27-.124.38-.284.75-.377 1.137a18.888 18.888 0 0 0-.36 7.01c.128.939.35 1.865.532 2.795.028.143.05.293.26.29.52-.008 1.041-.003 1.582-.003ZM10.458 3.37c-1.434.186-2.482.871-3.048 2.223-.51 1.218-.6 2.481-.423 3.778.24 1.831.794 3.608 1.638 5.251a.411.411 0 0 0 .296.199c.358-.005.715-.053 1.105-.088-.808-3.822-.886-7.597.432-11.363Zm3.756 14.61h-4.5l.126 2.7 4.198-.154.176-2.546Zm-3.364-.74c.7 0 1.365.004 2.029-.004a.252.252 0 0 0 .192-.107c.216-.492.418-.99.625-1.487h-3.439c.202.553.383 1.052.566 1.55.013.036.038.068.027.048Z"></path>
</svg>