<svg width="46" height="46" fill="currentColor" viewBox="0 0 24 24" xmlns="http://www.w3.org/2000/svg">
  <path d="M10.183 4.636c.042-.29.053-.568.124-.83.158-.585.527-.982 1.124-1.15.383-.118.786-.15 1.182-.095.707.111 1.19.615 1.253 1.326.012.136.002.273.002.4a.552.552 0 0 0 .12.083c1.336.396 2.211 1.313 2.765 2.539.293.646.445 1.354.7 2.02.128.337.097.612-.05.933-.517 1.122-.988 2.266-1.505 3.388a494.174 494.174 0 0 1-2.723 5.823c-.343.718-.738 1.412-1.126 2.107-.275.491-.488.468-.998.24-.486-.217-.648-.598-.8-1.024a4952.5 4952.5 0 0 1-3.176-8.88c-.193-.543-.346-1.1-.506-1.654a.65.65 0 0 1 .006-.32 8.57 8.57 0 0 1 1.717-3.437 5.2 5.2 0 0 1 1.442-1.214c.155-.09.31-.176.45-.255Zm1.151 15.697h.094c.463-.949.915-1.903 1.39-2.846 1.192-2.367 2.39-4.73 3.592-7.092.08-.156.154-.314.227-.466-.041-.029-.053-.044-.064-.043-1.58.023-3.16.04-4.74.074-1.333.028-2.666.076-3.999.119-.113.011-.226.03-.338.055l3.838 10.2Zm5.22-11.383c-.192-.945-.471-1.764-.989-2.5-.562-.797-1.322-1.256-2.266-1.446-.48-.097-.957-.062-1.436-.004a4.257 4.257 0 0 0-2.67 1.343A7.61 7.61 0 0 0 7.59 8.961a2.324 2.324 0 0 0-.062.283c.118 0 .2.004.28 0 .727-.042 1.453-.105 2.18-.123 1.897-.047 3.794-.073 5.69-.112.27-.006.541-.036.877-.059ZM13.1 4.125c.019-.63-.24-.908-.859-.884a2.322 2.322 0 0 0-.564.097c-.447.132-.684.482-.687.975l2.11-.188Z"></path>
</svg>