<svg width="46" height="46" fill="currentColor" viewBox="0 0 24 24" xmlns="http://www.w3.org/2000/svg">
  <path d="M12.32 9.985a.083.083 0 0 0-.063-.03c-.268.005-.432.131-.488.375a5.77 5.77 0 0 0-.139.758 47.672 47.672 0 0 0-.207 6.093c.01.29.046.624.237.913a.59.59 0 0 0 .219.17c.038.021.077.044.115.069.016.01.034.015.053.012a.076.076 0 0 0 .048-.026c.032-.038.066-.072.1-.105a.554.554 0 0 0 .17-.232l.01-.04c.078-.282.158-.573.16-.866.018-1.77.022-3.569.026-5.309l.003-1.126a1.047 1.047 0 0 0-.04-.364.735.735 0 0 0-.15-.226 1.138 1.138 0 0 1-.054-.066Z"></path>
  <path d="M12.954 8.475c.237-.452.19-.922-.134-1.36-.344-.463-.794-.573-1.337-.325a.077.077 0 0 0-.038.04l-.084.196c-.156.358-.303.696-.259 1.096.05.453.337.784.748.866.07.014.14.02.21.02a.998.998 0 0 0 .894-.533Zm-.918-.74-.014.219c-.046-.04-.078-.073-.079-.092 0-.023.036-.067.093-.126Z"></path>
  <path d="M2.925 9.492c-.833 3.28-.103 6.174 2.17 8.602l.18.186c1.221 1.223 2.742 1.979 3.947 2.504.518.226 3.172.501 3.89.394 4.268-.638 7.077-3.05 8.055-7.084.186-.79.28-1.6.277-2.412.004-1.913-.8-4.138-2.458-5.803-.17-.142-.34-.288-.505-.43-.357-.307-.726-.626-1.112-.897-2.947-2.078-6.009-2.09-9.1-.988-2.8.997-4.597 2.992-5.344 5.928Zm5.356-4.946c2.712-1.129 5.434-1.328 8.089.363.485.31 1.779 1.357 1.983 1.515l.013.01.01.012c1.036 1.1 2.222 3.111 2.196 5.18a10.572 10.572 0 0 1-.356 2.618c-.674 2.455-2.286 4.245-4.928 5.468-2.686 1.289-6.538-.014-7.563-.691a11.98 11.98 0 0 1-2.93-2.854c-1.264-1.793-1.548-4.371-.869-6.728a7.645 7.645 0 0 1 4.355-4.893Z"></path>
</svg>