<svg width="46" height="46" fill="currentColor" viewBox="0 0 24 24" xmlns="http://www.w3.org/2000/svg">
  <path d="m17.3 6.797 1.866-1.664c-.075-.124-.159-.249-.227-.38-.062-.122-.147-.252-.148-.378 0-.132.05-.327.145-.382.098-.057.279.005.414.046.07.02.12.107.178.166.44.455.884.905 1.314 1.369.146.162.273.34.38.53.118.204.063.406-.097.564-.157.155-.355.14-.54.06a3.36 3.36 0 0 1-.393-.242L18.34 7.999c.232.26.411.485.615.686.434.429.34 1.002-.083 1.354-2.114 1.757-4.2 3.548-6.306 5.316-.348.29-.72.55-1.113.776-.458.265-.7.195-1.03-.22-.144-.18-.28-.369-.438-.578-.33.194-.637.401-.967.56-.215.102-.464.132-.697.198a.871.871 0 0 0-.254.09c-1.478 1.01-2.851 2.152-4.189 3.338a3.81 3.81 0 0 1-.42.33c-.225.15-.413.148-.523.013-.109-.135-.08-.337.111-.506.997-.886 1.991-1.774 3.003-2.643.53-.456 1.093-.873 1.679-1.338-.076-.362.154-.6.477-.809.285-.184.541-.412.826-.633-.14-.213-.262-.394-.38-.576-.29-.448-.273-.677.127-1.043.487-.446.986-.878 1.49-1.303 1.753-1.482 3.509-2.96 5.267-4.437.137-.115.264-.241.399-.358.333-.287.541-.288.858.02.177.169.33.362.508.56Zm-6.155 8.755c1.592-1.184 3.022-2.54 4.527-3.785l-1.978-2.858-4.615 3.88 2.066 2.763Zm3.232-7.206 2.171 2.681 1.848-1.684-1.965-2.607-2.054 1.61ZM9.33 14.39c-.66.5-.803.654-.863.979l1.06-.687-.197-.292Zm9.505-7.776-.06-.064c-.294.247-.59.49-.877.744-.034.03-.017.118-.026.192l.963-.872Z"></path>
</svg>