<svg width="46" height="46" fill="currentColor" viewBox="0 0 24 24" xmlns="http://www.w3.org/2000/svg">
  <path d="M21.437 5.485c-.286-2.347-2.261-3.29-4.092-3.181a99.758 99.758 0 0 1-3.443.129c-1.16.028-2.35.053-3.4.074a656.8 656.8 0 0 0-4.612.106c-1.776.05-3.208 1.193-3.484 2.783-.11.637-.114 1.28-.107 1.996.02 2.087.05 4.196.08 6.235l.004.221.034 2.462c.002.138.007.277.012.415v.011c.02.343.017.688-.01 1.03-.095.916.255 1.893.938 2.612.759.8 1.834 1.206 3.03 1.145 1.303-.067 2.633-.054 3.92-.042l.093.001c1.526.015 3.078.053 4.581.091l.758.02c.128.007.254.026.378.057.066.013.13.027.196.038a.127.127 0 0 0 .028.003h.822c.008 0 .016 0 .024-.002.165-.024.33-.046.494-.068l.013-.001c.369-.048.75-.098 1.122-.179 1.605-.348 2.964-2.012 2.969-3.634 0-.382.002-.764.004-1.146v-.192c.008-2.094.017-4.259-.028-6.391a46.171 46.171 0 0 0-.324-4.593Zm-.892 12.21c.005 1.252-1.087 2.424-2.487 2.668-1.072.188-2.167.124-3.227.062-.394-.022-.8-.046-1.205-.057a57.024 57.024 0 0 1-1.38-.058l-.04-.003c-.196-.01-.392-.02-.586-.028h-.01c-.494 0-.989 0-1.483-.002l-1.743-.002c-.77 0-1.404.002-1.994.005h-.026c-.865 0-1.579-.256-2.064-.742-.504-.505-.767-1.26-.76-2.182a560.45 560.45 0 0 0-.004-6.487c-.005-1.212-.01-2.466-.01-3.704a4.405 4.405 0 0 1 .47-2.057c.363-.7 1.013-1.07 2.045-1.168a50.673 50.673 0 0 1 3.676-.234c3.061-.067 5.417-.091 7.638-.077 1.62.01 2.556.772 2.861 2.33.338 1.727.333 3.503.328 5.22v.146c-.008 2.436-.007 4.46 0 6.37Z"></path>
  <path d="M12.456 7.418c-1.015-.019-1.919.188-2.687.611-.925.51-1.91 1.197-2.205 2.435-.38 1.59-.207 3.12.512 4.548.515 1.022 1.323 1.651 2.335 1.819.606.105 1.219.16 1.834.166.193 0 .384-.007.568-.02 1.363-.099 2.445-.645 3.218-1.625 1.196-1.516 1.403-3.253.618-5.161-.76-1.845-2.213-2.805-4.193-2.773Zm3.324 4.876c.006 2.074-1.384 3.458-3.542 3.527a7.914 7.914 0 0 1-1.636-.143c-.69-.123-1.214-.539-1.557-1.234-.572-1.16-.711-2.358-.413-3.562.23-.928.908-1.609 2.071-2.08a3.603 3.603 0 0 1 1.361-.26c.404.001.806.06 1.193.175 1.528.445 2.518 1.849 2.523 3.577Z"></path>
  <path d="M17.687 5.399h-.023a.883.883 0 0 0-.86.858.815.815 0 0 0 .222.601.834.834 0 0 0 .607.25.867.867 0 0 0 .839-.852c.007-.444-.36-.845-.785-.857Z"></path>
</svg>