<svg width="46" height="46" fill="currentColor" viewBox="0 0 24 24" xmlns="http://www.w3.org/2000/svg">
  <path d="m17.209 4.451-3.035 2.79c.24.453.48.84.655 1.254.65 1.549.563 3.09-.16 4.586-.54 1.112-1.5 1.681-2.68 1.921-.24.05-.482.09-.757.14l.088 2.099c.31-.023.58-.045.85-.064.23-.016.465-.056.694-.037a.416.416 0 0 1 .401.4.445.445 0 0 1-.314.48 1.79 1.79 0 0 1-.524.076c-.34.01-.682.003-1.043.003.027.554.055 1.06.075 1.567.013.22.011.44-.005.659-.032.331-.212.54-.452.56-.259.022-.481-.167-.529-.525-.058-.435-.074-.877-.094-1.316-.013-.299-.002-.598-.002-.95-.43 0-.798.006-1.166-.003a1.34 1.34 0 0 1-.405-.062.366.366 0 0 1-.264-.416c.027-.213.167-.308.371-.31.386-.005.77-.004 1.156-.007.068 0 .136-.012.257-.023l.075-2.09c-.141-.017-.298-.043-.456-.054-2.17-.152-3.513-1.514-3.94-3.531-.291-1.377-.062-2.653.687-3.83.2-.295.448-.556.732-.772a5.168 5.168 0 0 1 2.547-1.074c1.287-.179 2.482.048 3.596.715l2.955-2.72c-.18 0-.311-.002-.442 0-.33.009-.66.022-.99.03-.197.005-.374-.048-.381-.278-.007-.197.137-.284.322-.306.082-.01.163-.026.245-.035.683-.075 1.365-.164 2.05-.218.567-.045.703.092.743.669.031.466.055.933.08 1.4.007.095.005.191-.006.287a.482.482 0 0 1-.472.432.474.474 0 0 1-.432-.43 1.563 1.563 0 0 1 .015-.327c.016-.217.035-.434.053-.65l-.098-.04Zm-6.814 2.37c-1.11.078-1.501.195-2.158.593-.463.275-.84.673-1.09 1.15-.664 1.258-.557 2.523-.044 3.782.418 1.029 1.199 1.655 2.29 1.879 1.022.21 2.026.105 3.004-.239a2.205 2.205 0 0 0 1.304-1.14c.768-1.624.717-3.214-.3-4.73a2.284 2.284 0 0 0-.983-.857c-.702-.302-1.438-.45-2.023-.437Z"></path>
</svg>