<svg width="46" height="46" fill="currentColor" viewBox="0 0 24 24" xmlns="http://www.w3.org/2000/svg">
  <path d="M12.32 17.483c-1.434-.067-2.785-.375-3.91-1.344-.712-.614-1.06-1.393-1.056-2.331.003-.78.3-1.13 1.091-1.2a104.19 104.19 0 0 1 3.712-.27c1.212-.063 2.427-.08 3.64-.109.979-.022 1.314.36 1.02 1.305a8.905 8.905 0 0 1-.928 2.1c-.828 1.31-2.007 1.87-3.568 1.85Zm-3.344-1.98c1.923-1.857 4.049-1.748 6.351-.764l.548-1.597-7.771.18c-.038.929.199 1.66.872 2.181Zm.68.43c1.32.789 4.215 1.03 5.055-.44-1.06-1.068-4.008-.827-5.054.44Z"></path>
  <path d="M20.977 11.643c-.006.791-.715 1.387-1.529 1.335-.978-.063-1.924-.846-2.194-1.8-.097-.341.052-.57.316-.727.872-.52 1.767-.567 2.66-.056.495.284.714.743.747 1.248Zm-2.595-.462-.03.147a1.513 1.513 0 0 0 1.144.657c.162.013.339-.15.509-.231-.115-.165-.207-.444-.35-.474-.414-.087-.847-.073-1.273-.1Z"></path>
  <path d="M4.528 14.018a1.314 1.314 0 0 1-1.025-.667c-.287-.492-.124-.967.17-1.392.556-.803 1.353-1.186 2.314-1.23.397-.018.607.17.533.546a13.405 13.405 0 0 1-.535 2.02c-.185.505-.64.735-1.457.723Zm1.151-2.529c-.656.186-1.066.485-1.327.943-.127.222-.295.463.04.67.326.2.71.155.847-.174.182-.442.285-.917.44-1.44v.001Z"></path>
  <path d="M8.642 8.844c-.4-.359-.767-.686-1.13-1.019a7.273 7.273 0 0 1-.442-.435c-.152-.165-.326-.352-.122-.574.205-.223.397-.063.575.08.387.31.772.624 1.166.927.229.176.474.331.709.5.407.294.51.698.169 1.06-.469.485-.97.937-1.5 1.355-.219.178-.527.222-.75-.033-.24-.274-.13-.566.088-.778.374-.364.785-.69 1.237-1.083Z"></path>
  <path d="M15.336 8.987c.33.168.592.287.839.43.243.128.47.284.674.466a.486.486 0 0 1 .083.443c-.051.111-.3.248-.387.208-.691-.319-1.391-.635-2.03-1.043-.27-.173-.21-.59.046-.81A50.57 50.57 0 0 1 16.778 6.9c.085-.065.325-.013.429.068.057.044.025.3-.05.394-.152.19-.36.336-.545.5l-1.276 1.125Z"></path>
  <path d="M2.62 9.387c-.859 3.373-.107 6.35 2.235 8.847.061.064.123.129.185.19C6.3 19.683 7.866 20.46 9.107 21c.533.233 3.268.516 4.008.405 4.397-.656 7.291-3.136 8.299-7.286.192-.812.288-1.645.285-2.48.005-1.968-.823-4.255-2.532-5.969a33.45 33.45 0 0 1-.52-.442c-.368-.316-.748-.643-1.145-.922C14.465 2.17 11.31 2.157 8.125 3.29 5.24 4.316 3.389 6.367 2.619 9.387ZM8.136 4.3c2.795-1.162 5.6-1.367 8.334.373.5.318 1.834 1.396 2.044 1.558l.013.01.011.012c1.067 1.131 2.29 3.2 2.262 5.327-.009.91-.132 1.815-.366 2.693-.695 2.525-2.356 4.366-5.078 5.625-2.767 1.325-6.736-.015-7.792-.712a12.334 12.334 0 0 1-3.02-2.935c-1.302-1.844-1.594-4.495-.894-6.92A7.86 7.86 0 0 1 8.136 4.3Z"></path>
</svg>