<svg width="46" height="46" fill="currentColor" viewBox="0 0 24 24" xmlns="http://www.w3.org/2000/svg">
  <path d="M2.86 15.286c-.222.151-.332.293-.348.447-.015.145.057.297.22.465.273.293.583.55.921.762a166.51 166.51 0 0 0 3.902 2.276c.755.426 1.532.842 2.283 1.244l.972.521c.163.1.348.158.54.168a.692.692 0 0 0 .348-.095 144.9 144.9 0 0 0 1.893-1.1l.941-.558c2.125-1.256 4.321-2.554 6.477-3.839.314-.187.494-.463.494-.758 0-.3-.186-.583-.509-.775a43.298 43.298 0 0 0-.865-.496c-.109-.06-.22-.123-.335-.189l.389-.284c.34-.248.66-.483.979-.72.28-.21.427-.476.41-.75-.016-.28-.2-.536-.519-.72-.28-.16-.558-.323-.848-.492l-.3-.176.31-.235c.303-.229.59-.445.874-.674.236-.19.354-.423.333-.656-.022-.241-.188-.458-.47-.61a17.48 17.48 0 0 1-1.05-.604l-.143-.092c-2.373-1.51-4.827-3.071-7.417-4.31-.6-.287-1.124-.255-1.648.1-.664.45-1.324.885-1.999 1.328-.71.467-1.42.932-2.13 1.397-1.153.756-2.345 1.537-3.516 2.31-.315.207-.47.406-.489.624-.018.213.1.437.363.684.304.276.624.534.956.775.129.097.258.193.385.292.084.066.173.126.266.19l.048.032-.463.348c-.41.307-.798.598-1.178.904-.267.215-.39.407-.39.603.002.198.13.39.403.606.214.168.444.32.668.467.134.088.273.18.407.273a3.118 3.118 0 0 1 .316.264l-.409.294c-.367.266-.715.517-1.072.76Zm3.282-.097c.69.385 1.402.783 2.107 1.165.364.197.738.39 1.1.576.467.242.95.491 1.417.752.47.263.946.28 1.541.055 1.58-.598 3.004-1.444 4.189-2.192.567-.359 1.117-.72 1.7-1.103l.747-.49 1.361.838-1.03.639c-.856.53-1.663 1.03-2.493 1.533-.724.44-1.463.884-2.177 1.313-.943.567-1.919 1.153-2.874 1.738-.181.11-.302.082-.474-.012a1189.3 1189.3 0 0 0-1.816-1c-1.204-.663-2.449-1.348-3.67-2.026a72.243 72.243 0 0 1-1.454-.84l-.613-.36 1.557-1.077.881.491Zm12.925-5.682c-.835.589-1.623 1.145-2.448 1.671-.956.61-1.947 1.202-2.905 1.775-.552.33-1.123.671-1.682 1.012-.22.135-.38.132-.611-.011a823.607 823.607 0 0 0-3.526-2.17c-.968-.595-1.969-1.21-2.95-1.817a18.454 18.454 0 0 1-.938-.633l-.353-.247.8-.55c.653-.45 1.27-.875 1.903-1.293.739-.49 1.494-.983 2.224-1.459.711-.463 1.446-.943 2.166-1.42l.023-.015c.985-.652.985-.652 2.04-.09 2.103 1.117 4.25 2.431 6.963 4.26.076.05.15.11.244.185l.09.072c-.354.245-.702.49-1.04.73Zm-13.595 1.79c.205.135.41.272.616.41.489.328.994.666 1.503.985.794.498 1.606.995 2.391 1.476.45.275.899.55 1.348.827.402.248.766.094 1.005-.044.31-.18.622-.359.933-.537a134.91 134.91 0 0 0 2.966-1.737c.848-.516 1.653-1.073 2.542-1.695.231-.161.38-.164.59-.011.234.17.48.326.74.492l.261.166a68.27 68.27 0 0 0-.53.383c-.438.318-.851.618-1.284.892a277.066 277.066 0 0 1-5.182 3.208c-.31.175-.632.326-.965.453-.179.073-.364.148-.542.23a.8.8 0 0 1-.777-.036 998.4 998.4 0 0 0-3.388-1.825 2912.02 2912.02 0 0 1-3.34-1.8c-.203-.109-.4-.24-.61-.38a27.622 27.622 0 0 0-.225-.149l1.948-1.309Z"></path>
</svg>