<svg width="46" height="46" fill="currentColor" viewBox="0 0 24 24" xmlns="http://www.w3.org/2000/svg">
  <path d="m5.713 11.297.05-5.926c.005-.15.02-.298.048-.445a.299.299 0 0 1 .304-.274c.184-.006.326.083.364.263.048.24.08.483.098.728.244 3.199.16 6.4.08 9.602-.024.953-.035 1.907-.169 2.853-.02.19-.054.377-.103.561-.047.17-.122.331-.223.476-.226.305-.598.255-.734-.095a.906.906 0 0 1-.067-.436c.17-1.177.184-2.362.214-3.547.032-1.253.058-2.507.086-3.76h.052Z"></path>
  <path d="M13.281 16.927c-1.015.05-2.03.106-3.045.144-.555.02-1.11.011-1.666.01a1.293 1.293 0 0 1-.321-.047.46.46 0 0 1-.365-.435.47.47 0 0 1 .352-.447c.105-.024.213-.036.321-.036l6.742-.29c.88-.037 1.76-.074 2.64-.104.149-.01.297.003.442.037a.475.475 0 0 1 .379.472.49.49 0 0 1-.33.47 1.387 1.387 0 0 1-.354.08 17.13 17.13 0 0 1-.974.063c-1.273.037-2.546.069-3.82.103v-.02Z"></path>
  <path d="M11.028 11.562c.637 0 1.275-.004 1.911.003.149.003.296.027.438.07a.505.505 0 0 1 .353.431.511.511 0 0 1-.253.498 1.052 1.052 0 0 1-.498.13c-1.328-.027-2.655-.07-3.982-.11a1.648 1.648 0 0 1-.361-.05.428.428 0 0 1-.071-.818c.124-.052.257-.082.391-.09.69-.034 1.382-.055 2.072-.08v.016Z"></path>
</svg>