<svg width="46" height="46" fill="currentColor" viewBox="0 0 24 24" xmlns="http://www.w3.org/2000/svg">
  <path d="m12.142 15.494 4.61-.156a2.05 2.05 0 0 1 .407.027c.264.044.417.2.43.416.012.208-.096.37-.333.456-.14.053-.286.087-.435.101-.489.037-.978.078-1.467.082-2.205.018-4.41.018-6.614.037-.597.005-1.194.05-1.79.082-.211.01-.345-.06-.415-.244-.08-.212-.011-.464.203-.553.2-.083.413-.13.629-.137 1.238-.04 2.475-.066 3.714-.092.353-.007.707 0 1.06 0l.001-.02Z"></path>
  <path d="M8.015 11.088c-.324 0-.624.016-.921-.004-.291-.02-.442-.165-.45-.377-.006-.186.13-.37.38-.412.416-.069.837-.101 1.256-.141 2.634-.25 5.278-.219 7.919-.276.204-.005.408.013.608.053.25.052.38.208.388.41.008.209-.099.364-.353.436a2.993 2.993 0 0 1-.602.093c-.272.019-.545.02-.817.02-2.479.01-4.958-.013-7.408.198Z"></path>
  <path d="M9.155 13.677c-.666-.024-1.333-.046-2-.075-.334-.015-.445-.101-.467-.333-.023-.24.112-.41.4-.482.105-.023.214-.034.322-.033 1.212-.03 2.423-.062 3.634-.08.202.002.403.033.596.093a.419.419 0 0 1 .218.627.42.42 0 0 1-.195.158 1.969 1.969 0 0 1-.629.132c-.626.017-1.252.006-1.878.006v-.013Z"></path>
  <path d="M8.722 8.397c-.434.022-.869.048-1.304.063a.91.91 0 0 1-.397-.044.456.456 0 0 1-.212-.265.273.273 0 0 1 .184-.325c.125-.053.257-.086.392-.098a335.07 335.07 0 0 1 3.252-.253c.175-.012.352.001.524.038a.37.37 0 0 1 .296.343.367.367 0 0 1-.261.37 1.638 1.638 0 0 1-.396.079c-.692.043-1.384.078-2.077.116v-.024Z"></path>
</svg>