<svg width="46" height="46" fill="currentColor" viewBox="0 0 24 24" xmlns="http://www.w3.org/2000/svg">
  <path d="M14.355 16.833H10.26c0 .172-.005.303 0 .433.023.494.056.988.07 1.482.006.178-.016.356-.064.527-.063.21-.207.362-.45.354a.44.44 0 0 1-.42-.337 1.823 1.823 0 0 1-.089-.44c-.04-.644-.07-1.287-.106-1.996-.2 0-.398.005-.597-.002-.261-.008-.524-.01-.782-.042-.281-.035-.427-.197-.42-.42.006-.23.147-.343.46-.348.425-.006.85-.001 1.325-.001l.077-2.117c-.145-.017-.303-.043-.462-.054-2.163-.152-3.508-1.51-3.935-3.534A4.997 4.997 0 0 1 5.55 6.51c.15-.231.332-.439.543-.616A5.354 5.354 0 0 1 8.83 4.663c1.054-.161 2.049.019 3.021.401.156.062.278.123.46.03 1.227-.621 2.51-.702 3.842-.394.857.179 1.608.69 2.09 1.421 1.203 1.784 1.31 3.663.418 5.592-.525 1.135-1.503 1.711-2.7 1.952-.228.046-.458.082-.746.133l.083 2.116c.397-.04.749-.078 1.1-.108.15-.017.3-.02.45-.007a.418.418 0 0 1 .39.366.424.424 0 0 1-.275.498c-.181.06-.37.091-.561.093-.34.014-.68.004-1.04.004.027.544.055 1.036.075 1.529.013.22.013.44 0 .659-.027.356-.207.578-.458.598-.27.023-.492-.186-.535-.567-.052-.45-.068-.904-.088-1.357-.012-.258-.002-.517-.002-.79Zm-3.092-4.093c-1.8-2.218-1.868-4.484-.22-6.839-.247-.07-.478-.15-.715-.2-1.06-.22-2.088-.21-3.064.358-.59.343-1.05.782-1.334 1.409-.646 1.423-.435 2.788.29 4.106a2.654 2.654 0 0 0 1.454 1.222c1.189.436 2.372.322 3.589-.056Zm1.655.002c.089.037.18.07.272.098 1.102.273 2.183.171 3.239-.215.536-.196.98-.586 1.242-1.093.745-1.374.737-3.41-.32-4.799a2.71 2.71 0 0 0-1.464-1.004 6.506 6.506 0 0 0-2.075-.227c-.365.016-.668.137-.991.285 1.761 2.116 1.656 5.14.097 6.954Zm-1.107-6.35c-1.611 1.28-1.45 4.868.235 5.84 1.262-1.011 1.553-4.325-.235-5.84Zm2.537 9.474v-2.017a.58.58 0 0 0-.124-.03 5.757 5.757 0 0 1-1.962-.43c-.104-.045-.26.002-.383.036-.396.108-.787.235-1.183.344-.194.053-.394.084-.607.127l.095 1.97h4.165Z"></path>
</svg>