<svg width="46" height="46" fill="currentColor" viewBox="0 0 24 24" xmlns="http://www.w3.org/2000/svg">
  <path d="M15.895 8.805c-.947-.923-2.166-1.023-3.18-.26-.398.3-.781.72-1.17 1.286-.497.72-.625 1.6-.738 2.374-.2 1.371-.047 2.733.101 4.049.022.194.072.641.51.641h.043c.434-.029.435-.4.436-.646l.001-.069c.005-.294-.002-.594-.009-.883-.01-.414-.02-.841.007-1.257.05-.874.153-1.743.307-2.604a2.904 2.904 0 0 1 1.123-1.8c.626-.476 1.184-.42 1.707.17.397.444.66.99.763 1.576.116.68.196 1.38.273 2.057.03.264.06.528.093.791l-.014.002a.082.082 0 0 0-.072.076l-.025.358c-.02.288-.042.585-.057.878l-.002.036a3.45 3.45 0 0 0 .007.638c.05.375.314.645.656.67.33.026.636-.197.762-.554.029-.085.047-.173.053-.262.126-1.428.198-3.308-.369-5.182-.261-.867-.656-1.55-1.206-2.085Z"></path>
  <path d="M8.046 16.076c.005.256.07.508.187.735.074.143.319.217.47.217h.015c.142-.005.318-.176.356-.308.06-.218.084-.444.072-.67-.048-1.322-.104-2.666-.157-3.966l-.107-2.599c-.008-.198-.023-.566-.471-.603a.086.086 0 0 0-.043.008c-.345.167-.334.48-.325.733l.003.128a709.775 709.775 0 0 0 0 6.325Z"></path>
  <path d="M8.435 6.32a2.214 2.214 0 0 1-.16-.13.082.082 0 0 0-.087-.015c-.544.22-.579.6-.512.879a.821.821 0 0 0 .44.512.267.267 0 0 0 .097.016c.173 0 .406-.12.482-.243a.82.82 0 0 0 .066-.669c-.059-.143-.195-.248-.326-.35Z"></path>
  <path d="M21.416 5.47c-.286-2.347-2.261-3.29-4.091-3.18a99.564 99.564 0 0 1-3.443.128c-1.16.029-2.351.053-3.401.075a656.05 656.05 0 0 0-4.612.106c-1.776.049-3.208 1.193-3.484 2.782-.11.638-.113 1.281-.106 1.996.02 2.087.05 4.196.08 6.236l.003.22.035 2.462c.002.138.007.277.012.415v.011c.02.344.017.688-.01 1.031-.096.916.255 1.892.937 2.611.76.8 1.835 1.207 3.03 1.146 1.304-.068 2.634-.055 3.92-.043l.093.001c1.526.015 3.079.054 4.582.092l.758.018c.127.008.254.027.378.058a5.012 5.012 0 0 0 .223.041h.823c.008 0 .016 0 .024-.002.164-.024.33-.046.494-.067l.012-.002c.37-.048.751-.098 1.123-.178 1.604-.35 2.964-2.013 2.968-3.634l.004-1.146v-.192c.009-2.094.018-4.26-.027-6.392a46.224 46.224 0 0 0-.325-4.592Zm-.892 12.21c.005 1.252-1.087 2.424-2.486 2.669-1.072.187-2.168.123-3.228.062-.393-.023-.8-.047-1.204-.057-.46-.012-.927-.036-1.381-.06l-.04-.001-.586-.029h-.009c-.495 0-.99 0-1.484-.002l-1.743-.002c-.77 0-1.403.002-1.993.006h-.026c-.865 0-1.579-.257-2.064-.743-.504-.505-.767-1.26-.76-2.181.015-2.17.005-4.364-.004-6.488-.005-1.212-.01-2.466-.01-3.704a4.405 4.405 0 0 1 .47-2.056c.363-.7 1.013-1.071 2.045-1.169a50.667 50.667 0 0 1 3.676-.234 267.18 267.18 0 0 1 7.638-.077c1.62.01 2.555.772 2.86 2.33.338 1.727.334 3.503.328 5.22v.146c-.007 2.436-.007 4.46.001 6.37Z"></path>
</svg>