<svg width="46" height="46" fill="currentColor" viewBox="0 0 24 24" xmlns="http://www.w3.org/2000/svg">
  <path d="M3.922 17.371c.075-.482.276-.912.462-1.268.314-.603.767-1.116 1.206-1.612.072-.08.143-.162.214-.243.852-.976 1.733-1.984 2.737-2.89.726-.655 1.566-.905 2.565-.766.068.01.137.018.206.026.393.05.764.097 1.102.292.08.043.166.072.255.088a.4.4 0 0 0 .306-.07.47.47 0 0 0 .197-.309.704.704 0 0 0-.243-.654 2.179 2.179 0 0 0-1.05-.522 11.24 11.24 0 0 0-1.298-.194c-.965-.089-1.805.162-2.495.746a25.834 25.834 0 0 0-1.923 1.767c-.644.667-1.257 1.382-1.85 2.074l-.263.305a8.374 8.374 0 0 0-1.268 2.01 4.743 4.743 0 0 0-.421 1.85v.001c-.003 1.332.503 2.338 1.504 2.992.777.509 1.583.763 2.409.763a4.386 4.386 0 0 0 1.482-.267c.308-.11.583-.216.84-.324.905-.379 1.706-.991 2.596-1.986.52-.58 1.031-1.185 1.526-1.77l.756-.889c.084-.098.173-.196.26-.29a7.46 7.46 0 0 0 .439-.511c.14-.178.24-.383.294-.603a.475.475 0 0 0-.159-.456.537.537 0 0 0-.524-.109 1.299 1.299 0 0 0-.446.256 4.926 4.926 0 0 0-.44.474l-.063.072-.954 1.12c-.535.629-1.089 1.28-1.638 1.914-.866 1-1.946 1.615-3.21 1.827a3.075 3.075 0 0 1-1.34-.047c-1.297-.361-1.823-1.058-1.815-2.405.004-.113.016-.226.036-.338l.008-.054Z"></path>
  <path d="M19.484 2.344c-.582-.138-1.175-.135-1.749-.131h-.136c-.657.003-1.27.202-1.876.61a15.51 15.51 0 0 0-2.697 2.255 59.93 59.93 0 0 0-1.74 1.946c-.307.357-.59.816-.362 1.512a.082.082 0 0 0 .073.056.095.095 0 0 0 .033-.005c.548-.196.94-.427 1.273-.748l.018-.017c.418-.404.85-.82 1.253-1.254.98-1.054 1.862-1.843 2.776-2.481a2.655 2.655 0 0 1 1.55-.502c.43-.008.86.028 1.282.108.625.125 1.303.584 1.33 1.493.023.745-.128 1.319-.474 1.805-.141.198-.28.397-.42.597-.443.636-.901 1.293-1.415 1.883-.645.742-1.536 1.673-2.697 2.29a5.467 5.467 0 0 1-3.108.616 1.925 1.925 0 0 1-1.196-.522 3.757 3.757 0 0 0-.449-.37c-.216-.148-.47-.14-.629.018a.507.507 0 0 0-.114.615c.082.177.179.345.291.504.365.49.89.818 1.605 1a3.93 3.93 0 0 0 1 .123 6.533 6.533 0 0 0 1.539-.213c1.025-.248 1.973-.794 2.898-1.672 1.56-1.482 2.805-3.209 3.714-4.548a3.764 3.764 0 0 0 .65-2.035c.017-.577-.03-1.312-.547-1.89-.496-.553-1.044-.894-1.676-1.043Z"></path>
</svg>