<svg width="46" height="46" fill="currentColor" viewBox="0 0 24 24" xmlns="http://www.w3.org/2000/svg">
  <path d="M8.915 7.242c.144.098.308.163.48.191.3.038.602.058.905.06.49.01.98.02 1.469.033 1.246.028 2.533.058 3.804.058h.28a58.136 58.136 0 0 0 3.003-.115l.913-.05c.134-.013.265-.044.39-.092.07-.023.143-.047.226-.07a.083.083 0 0 0 .054-.047.08.08 0 0 0-.005-.072c-.211-.351-.474-.385-.685-.413a2.387 2.387 0 0 1-.089-.012c-1.26-.212-2.4-.388-3.579-.393-.394-.001-.79-.005-1.184-.01-.603-.005-1.225-.01-1.838-.009-1.122.004-2.25.02-3.349.047-.25.005-.5.054-.733.145a.402.402 0 0 0-.24.341.428.428 0 0 0 .178.408Z"></path>
  <path d="M20.665 12.522c-.027-.075-.052-.145-.12-.173a1.782 1.782 0 0 0-.492-.13c-.346-.035-.691-.073-1.037-.11-.885-.097-1.8-.197-2.704-.234-1.687-.07-3.404-.101-5.064-.131l-1.632-.031a1.625 1.625 0 0 0-.587.083.566.566 0 0 0-.292.344.4.4 0 0 0 .256.492c.232.093.476.154.725.182.928.073 1.874.13 2.787.186l.308.02c1.01.06 1.986.092 2.941.092 1.256 0 2.475-.054 3.677-.161l.188-.015c.341-.026.695-.052 1.042-.217a.08.08 0 0 0 .039-.107.953.953 0 0 1-.035-.09Z"></path>
  <path d="M20.276 16.961c-.03-.008-.058-.019-.085-.028a.662.662 0 0 0-.182-.046c-.3-.02-.599-.041-.898-.064-.747-.054-1.52-.11-2.281-.13-2.21-.056-4.458-.083-6.631-.11l-.308-.003a1.603 1.603 0 0 0-.66.138.436.436 0 0 0-.258.374.465.465 0 0 0 .217.433c.124.078.263.13.408.15l.168.023c.377.058.757.095 1.138.112a124.3 124.3 0 0 0 2.027.032c.46.005.935.01 1.402.018l.429.003c1.573 0 3.13-.149 4.466-.298l.153-.017c.217-.023.442-.048.661-.085.224-.039.322-.185.29-.434a.08.08 0 0 0-.056-.068Z"></path>
  <path d="M4.711 15.916c-.642-.055-1.023.346-1.311.745a.08.08 0 0 0-.014.062c.012.067.025.13.037.189.024.117.044.22.06.322a1.49 1.49 0 0 0 .772 1.128c.202.105.427.16.655.16.236-.002.47-.056.681-.159a1.18 1.18 0 0 0 .659-.732 1.122 1.122 0 0 0-.188-.933 1.729 1.729 0 0 0-1.35-.782Z"></path>
  <path d="M4.831 8.53c.038.002.076.004.114.004.303.007.6-.09.84-.274.239-.184.407-.445.474-.738.143-.62-.038-1.178-.526-1.613-.466-.415-1.02-.495-1.606-.231a3.274 3.274 0 0 0-.352.195c-.06.036-.122.074-.191.114a.082.082 0 0 0-.04.063c-.012.136-.027.268-.041.395a5.047 5.047 0 0 0-.049.792c.031.693.61 1.236 1.377 1.293Zm-.22-2.146a.867.867 0 0 1 .543.478c.1.21.09.374-.033.518-.097.114-.238.143-.442.091a.45.45 0 0 1-.355-.382c-.046-.285.045-.51.287-.705Z"></path>
  <path d="M5.2 11.026h-.01c-.973.01-1.55.527-1.581 1.42a1.144 1.144 0 0 0 .324.849 1.417 1.417 0 0 0 1.03.409h.01A1.439 1.439 0 0 0 6 13.291a1.249 1.249 0 0 0 .365-.91c-.016-.75-.538-1.356-1.166-1.356Zm-.132 1.426h-.376c-.094-.229-.047-.387.162-.544.182.1.283.241.214.544Z"></path>
</svg>