<svg width="46" height="46" fill="currentColor" viewBox="0 0 24 24" xmlns="http://www.w3.org/2000/svg">
  <path d="M11.706 7.461c-.128-.04-.22-.062-.308-.096a4.928 4.928 0 0 1-.675-.277c-.8-.457-1.09-1.264-.788-2.131.387-1.117 1.364-1.697 2.527-1.497.214.036.425.088.637.135.51.112.835.426 1.003.915.19.544.2 1.134.027 1.683a1.526 1.526 0 0 1-1.004 1.045c-.177.062-.36.113-.574.18v.27l.066 11.184c.001.379-.041.76-.072 1.138a1.09 1.09 0 0 1-.078.313.412.412 0 0 1-.446.283.399.399 0 0 1-.385-.31 1.88 1.88 0 0 1-.072-.48c.015-3.43.034-6.857.057-10.286.005-.598.056-1.195.085-1.792.003-.08 0-.162 0-.277Zm1.553-2.008c0-.068.004-.136-.001-.204-.033-.452-.227-.773-.704-.867-.306-.06-.608-.14-.915-.183a.534.534 0 0 0-.335.09c-.32.211-.494.532-.599.893-.142.492-.002.853.442 1.1a1.755 1.755 0 0 0 1.336.17c.604-.154.782-.368.776-1Z"></path>
</svg>