<svg width="46" height="46" fill="currentColor" viewBox="0 0 24 24" xmlns="http://www.w3.org/2000/svg">
  <path d="M9.134 16.88c-.807.164-1.84.452-2.657 1.236-.41.394-.614.866-.575 1.33.038.444.302.853.743 1.151.473.32.994.564 1.544.72a13.46 13.46 0 0 0 6.407.22c.876-.183 1.89-.459 2.762-1.118.422-.318.67-.71.718-1.131.048-.426-.108-.868-.452-1.278-.48-.573-1.116-.966-1.942-1.201a9.827 9.827 0 0 0-.941-.205 29.89 29.89 0 0 1-.306-.057c.125-.195.25-.39.377-.583.318-.49.648-.997.95-1.508.908-1.528 1.976-3.584 2.187-5.938.222-2.48-.56-4.257-2.39-5.43-1.27-.812-2.687-1.086-4.211-.812-2.304.415-3.81 1.762-4.476 4.005-.397 1.338-.251 2.69-.08 3.72.28 1.688.914 3.377 2.054 5.477.178.328.365.64.564.97l.209.348-.089.014a9.894 9.894 0 0 0-.396.07Zm2.963.822-.16.207c-1.072-.915-1.759-2.084-2.34-3.213-.749-1.454-1.55-3.203-1.807-5.156-.22-1.672-.055-2.906.535-4.003.732-1.362 2.187-2.222 3.893-2.301a5.4 5.4 0 0 1 .25-.006c1.569 0 2.957.693 3.747 1.884.503.758.725 1.642.7 2.78-.03 1.269-.38 2.576-1.104 4.115-.817 1.737-1.883 3.41-3.26 5.113-.154.19-.3.38-.454.58Zm-2.087-.196a.367.367 0 0 1 .231.096 5.066 5.066 0 0 0 1.76 1.298c.296.13.559.05.781-.237l.152-.197c.205-.266.418-.542.64-.801a.41.41 0 0 1 .263-.15c.758.062 1.556.178 2.249.605.292.186.553.416.775.682a.496.496 0 0 1 .148.367.516.516 0 0 1-.221.344c-.263.208-.55.383-.857.52-1.15.51-2.475.765-4.171.8-1.23-.045-2.429-.117-3.566-.5a4.46 4.46 0 0 1-1.05-.506c-.228-.154-.354-.334-.365-.52-.01-.177.085-.355.274-.518.41-.35.867-.637 1.36-.854.393-.171.831-.266 1.256-.358l.31-.068a.137.137 0 0 1 .03-.003Z"></path>
  <path d="M14.53 7.483v-.066a2.21 2.21 0 0 0-1.163-2.072 2.108 2.108 0 0 0-2.055.05c-.731.414-1.19 1.113-1.327 2.02-.178 1.177.659 2.33 1.865 2.568.163.033.328.05.494.05 1.015 0 1.844-.648 2.096-1.695a5.1 5.1 0 0 0 .089-.534c.01-.08.021-.162.033-.242a.082.082 0 0 0-.033-.08Zm-.913.097-.002.034a4.143 4.143 0 0 1-.008.134c-.042.51-.229.908-.54 1.149-.277.214-.639.29-1.047.22a1.62 1.62 0 0 1-1.041-.725 1.371 1.371 0 0 1-.147-1.14c.154-.526.381-1.034.998-1.189.149-.038.302-.058.455-.06a1.28 1.28 0 0 1 .808.263c.346.274.532.74.524 1.314Z"></path>
</svg>