<svg width="46" height="46" fill="currentColor" viewBox="0 0 24 24" xmlns="http://www.w3.org/2000/svg">
  <path d="M12.622 2.499c.184.035.369.068.553.106 1.58.32 2.61 1.26 3.113 2.784.249.753.35 1.536.4 2.326.042.652.076 1.304.115 1.956.005.094.019.188.03.298.118.043.227.094.342.124.82.213 1.191.796 1.314 1.586.027.175.05.35.06.527.123 2.244.16 4.488.023 6.732a3.029 3.029 0 0 1-.49 1.536c-.236.37-.6.64-1.02.762a7.403 7.403 0 0 1-2.094.281c-2.201.002-4.402-.016-6.603-.054a7.569 7.569 0 0 1-1.373-.169c-.953-.193-1.44-.724-1.552-1.69a9.681 9.681 0 0 1-.054-1.344c.042-1.728.09-3.456.157-5.182.029-.75.138-1.485.566-2.141.313-.48.72-.804 1.275-.943.105-.027.207-.065.354-.112.02-.182.044-.38.063-.577.083-.867.126-1.74.26-2.598.096-.603.26-1.194.492-1.76.514-1.25 1.521-1.942 2.792-2.287.233-.063.47-.108.705-.161h.572Zm-1.016 18.17.001-.055c.693 0 1.387.02 2.08-.005.895-.032 1.793-.025 2.678-.214.7-.15.995-.423 1.074-1.128.047-.46.068-.921.065-1.383.004-.503-.062-1.01-.027-1.51.09-1.283-.014-2.558-.081-3.835-.012-.231-.019-.464-.049-.693-.04-.305-.175-.541-.51-.604-.587-.11-1.169-.28-1.76-.32-1.18-.077-2.363-.093-3.545-.116-1.228-.024-2.44.15-3.647.352a1.053 1.053 0 0 0-.756.488c-.291.442-.355.944-.381 1.441-.108 2.012-.188 4.025-.273 6.038-.009.203.021.407.03.611.017.362.207.584.553.66.29.074.584.123.881.148 1.222.053 2.445.085 3.667.125Zm3.917-10.955c-.046-.77-.061-1.477-.137-2.178-.073-.673-.153-1.355-.33-2.006-.253-.937-.85-1.593-1.826-1.844a2.946 2.946 0 0 0-1.53-.014c-1.064.29-1.83.903-2.175 1.994-.338 1.068-.519 2.164-.653 3.27-.03.25-.05.5-.08.79l.856-.106c.04-.612.072-1.18.113-1.75.043-.598.129-1.19.343-1.754.338-.89 1.248-1.548 2.212-1.531.963.016 1.685.465 2.058 1.39.113.276.212.558.296.844.202.714.225 1.448.224 2.184 0 .213.015.426.024.656l.605.055Zm-1.912-.158c-.009-.75.07-1.508-.06-2.26a5.381 5.381 0 0 0-.309-1.092c-.213-.527-.74-.737-1.279-.554a1.37 1.37 0 0 0-.902.875c-.34.967-.39 1.982-.532 3.031h3.082Z"></path>
  <path d="M11.298 17.52c-.018-.335-.005-.655-.26-.95-.247-.288-.18-.742.07-1.06.237-.3.585-.39.982-.25.68.237.856.763.43 1.357a.584.584 0 0 0-.098.485c.052.321.069.647.05.971-.027.353-.286.582-.572.588-.3.006-.554-.241-.598-.61a4.437 4.437 0 0 1-.004-.53Z"></path>
</svg>