<svg width="46" height="46" fill="currentColor" viewBox="0 0 24 24" xmlns="http://www.w3.org/2000/svg">
  <path d="M5.977 12.336c.352.024.71.039 1.055.053l.332.014.107.005c.42.018.853.037 1.28.051a78.34 78.34 0 0 0 2.261.041l.433.005.428.005c.315.004.64.007.96.008.412 0 .899-.003 1.39-.018.204-.007.412-.018.612-.03.227-.013.46-.027.69-.032a7.16 7.16 0 0 0 .418-.025c.293-.033.588-.035.881-.005-.122.224-.261.44-.417.642a5.44 5.44 0 0 0-.312.458l-.018.032c-.238.405-.483.824-.704 1.247-.056.109-.119.218-.18.324-.167.29-.338.59-.421.933a.081.081 0 0 0 .029.083l.208.163a.082.082 0 0 0 .084.01l.075-.03a.55.55 0 0 0 .17-.087c1.042-.891 1.973-1.982 3.02-3.537.06-.095.114-.194.16-.297.176-.369.14-.705-.108-.998l-.082-.1a2.984 2.984 0 0 0-.186-.215l-.554-.57a43.47 43.47 0 0 0-1.513-1.515 10.863 10.863 0 0 0-1.066-.842c-.119-.087-.238-.173-.356-.261l-.013-.01c-.067-.05-.222-.17-.405.006a.082.082 0 0 0-.025.054c-.015.297.16.493.328.683.067.07.128.146.184.226a8.4 8.4 0 0 0 .673.85l.043.05c.118.137.246.27.369.398.117.122.239.25.351.379.077.089.163.172.246.253.17.151.317.325.439.517l-.026.003c-.069.01-.138.016-.207.017a298.37 298.37 0 0 1-1.337-.042c-.711-.023-1.447-.046-2.171-.062l-.68-.015c-2.026-.047-4.12-.095-6.178.088-.74.065-1.485.177-2.207.284l-.303.045a.878.878 0 0 0-.318.148c-.07.043-.148.092-.248.146a.082.082 0 0 0-.028.119.08.08 0 0 0 .035.028c.443.185.825.191 1.162.197.118.002.229.003.34.012.19.015.38.034.57.052.24.022.486.046.73.062Z"></path>
  <path d="M20.79 3.336c-.085-.473-.378-.74-.848-.769-.182-.011-.38-.026-.579-.041a34.9 34.9 0 0 0-.809-.055c-1.776.01-4.814.186-5.053.22a.33.33 0 0 0-.238.139.43.43 0 0 0-.027.36.08.08 0 0 0 .044.053c.461.211 2.95.27 4.766.313.71.017 1.283.03 1.56.05l.03.281c.023.222.043.414.048.607.018.772.037 1.685.037 2.6l.003 1.83c.003 1.907.007 3.878-.028 5.815a76.247 76.247 0 0 1-.166 3.427c-.03.473-.061.961-.087 1.442a2.362 2.362 0 0 1-.036.264l-.017.099a9.914 9.914 0 0 0-.124.02 3.48 3.48 0 0 1-.368.045c-.383.02-.765.037-1.147.053-.666.029-1.354.058-2.03.106-.723.051-1.934.123-2.59.162a.494.494 0 0 0-.333.829.495.495 0 0 0 .33.155c.991.063 3.168.188 4.87.188.399 0 .772-.006 1.098-.023l.117-.005a3.84 3.84 0 0 0 .785-.09c.456-.118.66-.39.684-.91.02-.414.041-.827.063-1.24.035-.658.072-1.338.093-2.007.047-1.472.075-2.803.084-4.068.004-.565.01-1.13.016-1.695.024-2.378.05-4.837-.064-7.256a6.978 6.978 0 0 0-.085-.899Z"></path>
</svg>