<svg width="46" height="46" fill="currentColor" viewBox="0 0 24 24" xmlns="http://www.w3.org/2000/svg">
  <path d="M8.366 11.412a454.595 454.595 0 0 1-1.558.077 1.62 1.62 0 0 0-.25.02c-.262.051-.394.199-.363.404.018.124.123.326.264.37.288.091.587.146.889.16.53.019 1.098.016 1.787-.007 1.894-.063 3.788-.128 5.681-.196l3.063-.107c.119-.004.24-.003.393-.002h.094l-.22.226c-.244.25-.454.464-.664.688-.2.212-.398.432-.59.644l-.396.436c-.214.232-.43.463-.644.693l-.284.304a.081.081 0 0 0-.012.095l.145.259a.08.08 0 0 0 .03.03.08.08 0 0 0 .069.007.859.859 0 0 1 .077-.025.581.581 0 0 0 .173-.072 44.012 44.012 0 0 0 4.084-3.216c.128-.11.24-.237.337-.376.211-.312.162-.65-.133-.903a1.815 1.815 0 0 0-.239-.165l-.467-.29c-.944-.584-1.92-1.188-2.883-1.779a1.26 1.26 0 0 0-.471-.203.503.503 0 0 0-.418.176c-.077.112-.098.35-.012.465.15.202.331.378.539.52.337.228.687.452 1.024.667.29.185.588.377.88.57.054.037.114.07.171.1.142.064.266.16.363.282a29.06 29.06 0 0 1-.278-.028 8.23 8.23 0 0 0-.884-.057l-.233.002c-1.862.014-3.788.03-5.682.082a132.4 132.4 0 0 0-3.382.149Z"></path>
  <path d="M10.922 2.691c-.237-.034-3.258-.21-5.029-.22-.25.013-.53.034-.8.055-.198.015-.394.03-.575.041-.467.03-.758.296-.842.77a7.009 7.009 0 0 0-.084.898c-.114 2.419-.088 4.877-.063 7.255.006.565.01 1.13.015 1.696.01 1.265.037 2.596.084 4.068.021.67.057 1.35.092 2.008.022.413.044.826.062 1.239.024.52.227.793.68.91.257.057.519.087.781.09l.117.005c.324.016.695.024 1.092.024 1.691 0 3.856-.126 4.841-.19a.491.491 0 0 0 .326-.83.49.49 0 0 0-.328-.153c-.654-.039-1.857-.111-2.575-.162a73.912 73.912 0 0 0-2.019-.106c-.38-.016-.76-.033-1.14-.053a3.432 3.432 0 0 1-.366-.046 9.933 9.933 0 0 0-.124-.019l-.016-.099a2.358 2.358 0 0 1-.036-.264c-.026-.48-.057-.968-.087-1.44a76.5 76.5 0 0 1-.165-3.429 289.205 289.205 0 0 1-.027-5.812l.002-1.832c0-.918.019-1.83.037-2.6.005-.194.025-.386.049-.608.01-.09.019-.182.028-.281.276-.02.846-.033 1.551-.05 1.807-.042 4.28-.101 4.74-.313a.082.082 0 0 0 .043-.052.436.436 0 0 0-.027-.361.327.327 0 0 0-.237-.139Z"></path>
</svg>