<svg width="46" height="46" fill="currentColor" viewBox="0 0 24 24" xmlns="http://www.w3.org/2000/svg">
  <path d="m10.385 9.84 1.095-.712c.061-.848.136-1.722.184-2.597.024-.45.007-.903 0-1.354-.003-.209.08-.36.283-.395a10.7 10.7 0 0 1 1.223-.155c.26-.013.47.268.492.618.03.48.045.961.05 1.442.008.755.002 1.51.002 2.268l.699.346c0-.164.003-.267 0-.37-.04-.77.034-1.541.218-2.29.114-.458.383-.863.761-1.146.48-.368.936-.393 1.455-.08.602.37 1.094.892 1.429 1.514.28.489.532.993.756 1.51.854 2.024 1.687 4.058 2.297 6.174.174.605.373 1.204.516 1.817.192.82-.164 1.4-.974 1.636-.249.08-.506.13-.767.149-1.264.055-2.53.123-3.784-.113-1.037-.196-1.708-.772-1.879-1.855-.21-1.342-.547-2.676-.462-4.044.032-.515-.16-.75-.568-.941-.497-.234-.956-.267-1.43.08-.542.395-1.114.748-1.621 1.086.018.401.058.753.046 1.103-.033.99-.079 1.978-.137 2.967a4.585 4.585 0 0 1-.398 1.674c-.222.48-.565.808-1.09.918-.322.068-.649.164-.973.164a75.513 75.513 0 0 1-3.09-.075 3.365 3.365 0 0 1-.845-.173C2.548 18.59 1.938 17.565 2.3 16.23c.225-.832.56-1.635.871-2.442.449-1.166.932-2.319 1.378-3.486.403-1.057.822-2.106 1.58-2.966a7.824 7.824 0 0 1 1.09-1c.417-.324.921-.416 1.446-.356.576.065.966.381 1.161.918.089.26.155.527.199.798.123.69.233 1.38.36 2.144Zm-.897 3.284-.103-.037c-.16.102-.32.206-.48.306-.142.087-.298.12-.409-.026-.118-.157-.06-.316.078-.439.122-.11.251-.214.385-.31.876-.616 1.776-1.202 2.627-1.851.792-.605 1.585-.656 2.405-.138.59.374 1.15.8 1.713 1.215a.467.467 0 0 1 .141.623c-.118.193-.376.252-.624.134-.115-.055-.221-.128-.389-.227.157 1.31.291 2.549.55 3.771.117.552.447.865.997.953 1.01.161 2.027.16 3.043.104a6.64 6.64 0 0 0 1.06-.145c.39-.086.491-.352.333-.714a7.373 7.373 0 0 1-.312-.846c-.194-.658-.34-1.331-.561-1.979a156.542 156.542 0 0 0-1.707-4.768c-.238-.625-.577-1.215-.904-1.802a2.47 2.47 0 0 0-.875-.914c-.212-.13-.384-.102-.558.057a1.576 1.576 0 0 0-.482.891 11.56 11.56 0 0 0-.157 2.742c.322.184.637.354.94.542.14.085.265.194.369.32a.41.41 0 0 1 .013.502c-.108.158-.276.182-.443.14a1.398 1.398 0 0 1-.374-.164c-.753-.453-1.488-.938-2.257-1.361-.597-.329-.79-.782-.682-1.433.097-.583.15-1.172.21-1.76.038-.363.054-.73.082-1.13l-.773.037c-.009.114-.02.194-.02.274-.005 1.03-.003 2.061-.018 3.092-.003.2-.015.442-.125.59a3.44 3.44 0 0 1-.744.746c-.75.532-1.527 1.029-2.294 1.537-.09.06-.191.14-.29.145-.123.005-.309-.021-.361-.102-.066-.104-.06-.287-.019-.414.034-.103.16-.183.256-.258.345-.266.695-.526 1.045-.79-.227-.907-.445-1.785-.667-2.663a2.45 2.45 0 0 0-.121-.35.551.551 0 0 0-.513-.351 1.381 1.381 0 0 0-.96.293c-.872.659-1.445 1.538-1.87 2.52-.284.655-.526 1.328-.785 1.993-.549 1.406-1.107 2.81-1.637 4.223a4.31 4.31 0 0 0-.233 1.082 1.184 1.184 0 0 0 .756 1.247c.301.133.622.215.95.245a43.68 43.68 0 0 0 3.047.072c1.027-.02 1.407-.327 1.514-1.357.14-1.35.16-2.71.233-4.067Z"></path>
</svg>