<svg width="46" height="46" fill="currentColor" viewBox="0 0 24 24" xmlns="http://www.w3.org/2000/svg">
  <path d="M18.15 9.355c-.116.204-.193.394-.317.545-.403.493-.825.97-1.237 1.455-2.55 2.998-5.364 5.74-8.161 8.5a9.693 9.693 0 0 1-.696.623c-.137.11-.288.2-.45.269a.625.625 0 0 1-.74-.162c-.827-.859-1.652-1.72-2.476-2.58-.283-.297-.313-.486-.064-.828.382-.524.762-1.059 1.209-1.524a147.344 147.344 0 0 1 3.972-4.016c1.472-1.42 2.993-2.789 4.498-4.175.318-.293.651-.572.988-.844.294-.239.393-.216.715-.003.936.62 1.682 1.446 2.438 2.258.123.133.205.305.322.482ZM7.047 19.645l7.73-8.044-1.841-2.01c-2.723 2.614-5.534 5.127-8.036 7.982l2.147 2.072Zm8.514-8.922 1.3-1.39a11.352 11.352 0 0 0-1.868-1.816l-1.355 1.36 1.923 1.846Z"></path>
  <path d="M18.608 4.858c-.184-.048-.34-.082-.494-.129a.302.302 0 0 1-.222-.305c-.004-.161.05-.302.213-.354.178-.056.364-.088.587-.14l.097-.404c.063-.26.16-.357.362-.36.2-.004.309.094.377.35.018.088.032.178.04.268.102.01.205.014.307.029.25.037.386.163.41.375.026.216-.064.376-.29.48a3.032 3.032 0 0 1-.331.112 4.34 4.34 0 0 1-.106.484c-.084.246-.238.365-.432.364-.205 0-.388-.15-.457-.393a3.293 3.293 0 0 1-.061-.377Z"></path>
  <path d="M12.024 5.998c-.046.525-.168.704-.466.701-.28-.002-.403-.18-.48-.704-.134-.038-.276-.075-.416-.118a.31.31 0 0 1-.227-.341.295.295 0 0 1 .249-.283c.142-.038.29-.05.454-.077.032-.102.071-.201.094-.304.04-.18.14-.293.325-.31.167-.015.28.1.344.332.014.063.025.127.033.19.161.039.318.046.44.115.105.058.236.187.237.285a.56.56 0 0 1-.193.366c-.093.082-.245.096-.394.148Z"></path>
  <path d="M19.642 11.043c.243.06.575-.003.631.363.053.34-.239.406-.413.489-.066.212-.146.42-.238.622-.033.062-.162.096-.249.102-.274.015-.403-.171-.513-.726-.193-.092-.514-.072-.51-.4.005-.327.292-.334.514-.37.107-.22.05-.539.403-.545.171-.003.215.055.375.465Z"></path>
</svg>