<svg width="46" height="46" fill="currentColor" viewBox="0 0 24 24" xmlns="http://www.w3.org/2000/svg">
  <path d="M22.724 11.528c-.047-.89-.085-1.796-.122-2.672-.036-.853-.073-1.735-.12-2.602-.066-1.26-.714-2.177-1.873-2.653-.41-.168-.913-.257-1.539-.272-1.657-.04-3.343-.058-4.973-.076l-1.74-.02a.081.081 0 0 0-.052-.018h-1.352a6953.775 6953.775 0 0 0-3.897 0 46.547 46.547 0 0 0-1.842.018c-.839.03-1.484.194-2.032.516-1.11.652-1.7 1.582-1.758 2.765-.03.623-.041 1.257-.051 1.87l-.006.384-.028 1.542c-.031 1.695-.064 3.447-.077 5.17-.005.687.03 1.498.325 2.317.437 1.21 1.242 1.993 2.462 2.393 1.136.362 2.32.549 3.51.551 2.962.039 6.068.057 9.724.057h.71a8.027 8.027 0 0 0 1.996-.217c1.499-.386 2.387-1.309 2.64-2.745.08-.487.136-.977.167-1.47.11-1.495.027-3.01-.052-4.476l-.02-.362Zm-13.848 7.91c-1.283-.005-2.653-.053-3.985-.382-.536-.132-.919-.286-1.225-.495l6.608-6.108.185.2.565.607c.555.589 1.1.637 1.713.152.252-.198.49-.423.72-.64l.266-.247 6.468 6.562c-.224.184-.494.223-.778.264l-.082.011c-.306.041-.614.06-.923.057l-1.81.007c-2.53.01-5.148.019-7.722.011ZM18.975 5.801c-.968.878-1.969 1.786-2.923 2.711a117.57 117.57 0 0 0-2.789 2.827c-.373.387-.76.787-1.14 1.178L4.086 4.596l.171-.046c.22-.06.426-.117.638-.159 1.05-.207 2.133-.179 3.18-.151.234.006.467.012.701.016.356.005.717.017 1.067.029.304.01.618.02.928.026l2.61.05c1.88.035 3.825.072 5.738.118.268.015.536.053.798.113.103.02.21.042.316.06v.003c-.418.384-.845.772-1.259 1.147ZM5.439 15.438a123.23 123.23 0 0 0-2.444 2.38c-.335-.793-.508-1.444-.56-2.097-.142-1.81-.083-3.611-.01-5.302.034-.77.048-1.554.06-2.313.01-.515.019-1.048.034-1.571.016-.556.2-.945.614-1.29l6.28 6.2c-1.279 1.417-2.65 2.726-3.975 3.994Zm15.83 2.244a3.797 3.797 0 0 1-.117.47l-.052.18-.025.008-6.657-6.519c2.301-2.386 4.484-4.42 6.666-6.215l.029.123c.039.145.064.294.077.444.073 1.51.133 3 .178 4.13.041 1.06.076 2.105.104 3.108.036 1.27.04 2.77-.203 4.271Z"></path>
</svg>