<svg width="46" height="46" fill="currentColor" viewBox="0 0 24 24" xmlns="http://www.w3.org/2000/svg">
  <path d="M21.006 9.55a2.34 2.34 0 0 1-.293-.232c-.3-.27-.598-.54-.897-.812a236.517 236.517 0 0 0-2.014-1.814.769.769 0 0 1-.273-.587 7.718 7.718 0 0 0-.145-1.281c-.087-.394-.242-.515-.692-.542-.137-.01-.279-.01-.416-.01-.107 0-.213-.002-.32-.006a1.568 1.568 0 0 1-.21-.026l-.082-.014a.038.038 0 0 1-.03-.02.04.04 0 0 1-.002-.037c.045-.099.092-.193.138-.287.1-.187.183-.382.252-.582.137-.444-.053-.852-.495-1.065a1.519 1.519 0 0 0-1.008-.118c-.539.114-1.007.373-1.544.725a.042.042 0 0 1-.045 0c-.563-.367-1.116-.383-1.642-.045a.041.041 0 0 1-.049-.002c-.085-.07-.167-.14-.247-.21a6.588 6.588 0 0 0-.524-.42c-.382-.267-.725-.395-1.062-.395-.096 0-.191.01-.285.03-.483.105-.89.47-1.087.973-.179.456-.148.923.084 1.25a.68.68 0 0 1 .066.135l.038.087a.041.041 0 0 1-.031.058c-.14.019-.276.036-.41.052-.29.037-.565.071-.838.123-.57.11-.642.198-.646.78a88.55 88.55 0 0 0 .006 1.63c0 .177-.011.336-.17.47-.733.622-1.457 1.257-2.006 1.739l-.014.012c-.428.376-.87.765-1.286 1.166-.116.113-.247.291-.264.453l-.008.069c-.082.732-.166 1.49-.175 2.234a336.74 336.74 0 0 0-.012 6.727c.002.386.12.787.222 1.141.19.656.67 1.055 1.385 1.157.577.089 1.16.143 1.743.161 1.046.018 2.111.015 3.14.013.387-.002.775 0 1.161-.003h.135c.223 0 .456.002.683-.009.34-.016.68-.036 1.019-.055a56.178 56.178 0 0 1 1.839-.087 67.183 67.183 0 0 1 1.792-.013c.433 0 .882.002 1.322-.004.185-.003.371-.004.557-.006.73-.006 1.483-.012 2.22-.072 1.052-.087 1.523-.483 1.737-1.46.12-.54.192-1.09.216-1.644.043-1.074.06-2.168.078-3.225l.012-.765c.006-.317.007-.64.008-.95 0-.37.001-.753.01-1.13.006-.284.022-.574.037-.854.016-.293.032-.596.038-.893.014-.692-.22-1.185-.716-1.51Zm-3.442 2.788c.154-.65.142-1.325.13-1.976l-.005-.36c-.003-.327-.025-.66-.046-.981a36.09 36.09 0 0 1-.03-.518 4.486 4.486 0 0 1-.002-.28v-.137a.05.05 0 0 1 .005-.02.043.043 0 0 1 .014-.015.042.042 0 0 1 .04-.002c.369.173 1.817 1.492 2.626 2.394.007.008.011.02.01.03a.042.042 0 0 1-.016.029l-2.61 1.994a.04.04 0 0 1-.024.009.045.045 0 0 1-.038-.024.662.662 0 0 0-.03-.06.113.113 0 0 1-.024-.082Zm-4.616-8.254c.486-.572 1.072-1.1 2.044-1.1h.037a.043.043 0 0 1 .033.018.042.042 0 0 1 .007.018c0 .007 0 .013-.003.02a2.23 2.23 0 0 1-.731.967.86.86 0 0 1-.576.19 2.871 2.871 0 0 1-.337-.025 2.219 2.219 0 0 0-.439-.02.042.042 0 0 1-.04-.023.04.04 0 0 1 .005-.045Zm-.373 1.032c.421-.148 2.578-.084 3.848.116a.04.04 0 0 1 .034.04v.202c0 .157.002.307 0 .458a7.855 7.855 0 0 1-.014.25 5.185 5.185 0 0 0-.009.133.042.042 0 0 1-.04.038h-3.7a.041.041 0 0 1-.04-.036l-.105-1.16a.042.042 0 0 1 .027-.042Zm.067 2.397c0-.007.003-.015.007-.022a.043.043 0 0 1 .018-.014c.29-.115 3.042-.155 3.729-.053a.04.04 0 0 1 .023.012.04.04 0 0 1 .011.024c.123 1.472.158 2.95.107 4.426a.04.04 0 0 1-.027.037c-.33.117-2.267.24-3.376.24a5.794 5.794 0 0 1-.638-.024.042.042 0 0 1-.037-.043l.183-4.583Zm-3.704-4.47c.112-.254.26-.338.524-.297a.932.932 0 0 1 .358.124c.548.35.921.741 1.176 1.231a.04.04 0 0 1 0 .038.042.042 0 0 1-.032.022c-.13.01-.257.026-.38.041a4.954 4.954 0 0 1-.597.05c-.057 0-.112-.002-.168-.006-.372-.031-.703-.215-.861-.48a.763.763 0 0 1-.02-.722ZM7.146 5.238c.756-.172 3.776-.285 4.488-.168a.041.041 0 0 1 .035.04v1.178a.04.04 0 0 1-.03.04c-.171.045-1.16.068-2.168.068-1.019 0-2.056-.023-2.28-.07a.04.04 0 0 1-.033-.038L7.114 5.28a.04.04 0 0 1 .032-.04v-.001Zm.153 2.702-.001-.674c0-.011.005-.022.013-.03a.05.05 0 0 1 .03-.01l4.238.18a.04.04 0 0 1 .04.042l-.103 4.672a.038.038 0 0 1-.014.03.042.042 0 0 1-.027.01l-.003-.001a19.146 19.146 0 0 0-1.524-.051c-.847-.007-1.725-.014-2.593-.222a.04.04 0 0 1-.03-.032c-.01-.058-.025-.114-.038-.17a1.453 1.453 0 0 1-.054-.36c.005-.317.018-.64.031-.953.013-.313.026-.637.031-.954.008-.487.007-.968.004-1.477Zm-3.506 2.708 2.385-2.034a.042.042 0 0 1 .058.004.04.04 0 0 1 .009.02l.029.132a.739.739 0 0 1 .028.189l-.03.845c-.02.469-.04.954-.048 1.43-.007.267.022.534.087.793a1.02 1.02 0 0 0 .73.76c.347.11.705.183 1.067.218.79.05 1.594.071 2.372.092l.242.005.628.018a74.68 74.68 0 0 0 2.644.041c.495-.003 1-.041 1.487-.078.247-.019.502-.039.754-.053.114-.007.225-.005.368-.003l.248.001a.04.04 0 0 1 .024.008.041.041 0 0 1 .015.02.04.04 0 0 1-.012.045 42.72 42.72 0 0 1-5.176 3.605.04.04 0 0 1-.021.005.031.031 0 0 1-.017-.004C10 15.921 4.404 11.655 3.785 10.7a.04.04 0 0 1 .008-.052Zm-.272 8.976c-.003 0-.007 0-.01-.002a.04.04 0 0 1-.03-.034l-.016-.094a1.184 1.184 0 0 1-.022-.201c-.002-.35-.003-.699-.002-1.047 0-.538 0-1.094-.006-1.64-.011-.925-.027-1.864-.042-2.773-.01-.54-.02-1.081-.027-1.621-.002-.09.004-.18.01-.268l.006-.123a.04.04 0 0 1 .024-.035.041.041 0 0 1 .043.005l3.753 3.097a.041.041 0 0 1 .006.057l-3.655 4.662a.042.042 0 0 1-.032.017Zm16.464 1.354a.043.043 0 0 1-.033.025l-.227.03a2.752 2.752 0 0 1-.383.04c-.552.003-1.106.002-1.66 0-.945 0-1.924-.002-2.885.013-.763.013-1.539.052-2.288.09-.34.018-.68.035-1.02.05h-.022l-.06.003c-.427.008-.855.018-1.283.028-.92.022-1.868.044-2.806.044H7.07a28.67 28.67 0 0 1-2.096-.112c-.186-.015-.372-.03-.558-.043a2.069 2.069 0 0 1-.41-.09 3.933 3.933 0 0 0-.209-.059.04.04 0 0 1-.016-.007.04.04 0 0 1-.01-.014.04.04 0 0 1-.002-.035c.232-.514 3.714-4.797 4.334-5.327a.042.042 0 0 1 .05-.003l.224.165c.166.123.336.25.512.368.432.29.865.58 1.3.867.382.255.766.508 1.147.765.298.2.556.086.79-.066l2.037-1.316 1.018-.658.27-.176.137-.092a.043.043 0 0 1 .056.01l4.335 5.459a.04.04 0 0 1 .005.04Zm.686-8.525a2.65 2.65 0 0 0-.032.511c.024.38.011.77-.001 1.145l-.007.203c-.006.215-.018.434-.03.646-.013.214-.026.435-.033.652-.006.23-.006.465-.007.692 0 .2 0 .408-.005.612-.005.216-.015.435-.024.648-.01.227-.02.462-.025.693-.005.3-.004.605-.002.9v.397a.041.041 0 0 1-.029.04l-.111.032a.076.076 0 0 1-.012.002.043.043 0 0 1-.017-.004.048.048 0 0 1-.013-.01c-.83-.87-1.59-1.828-2.324-2.754a57.237 57.237 0 0 0-1.6-1.959.04.04 0 0 1-.008-.014.04.04 0 0 1-.001-.017.043.043 0 0 1 .016-.027l4.201-3.22a.04.04 0 0 1 .039-.006.04.04 0 0 1 .017.012.04.04 0 0 1 .009.018 2.3 2.3 0 0 1-.002.808Z"></path>
</svg>