<svg width="46" height="46" fill="currentColor" viewBox="0 0 24 24" xmlns="http://www.w3.org/2000/svg">
  <path d="M2.348 15.691c0-1.089-.021-2.179.007-3.267.019-.718.135-1.434.155-2.152.011-.407.166-.688.46-.943.808-.707 1.601-1.43 2.407-2.14a.681.681 0 0 0 .234-.447c.181-1.15.664-2.129 1.7-2.747.6-.356 1.243-.55 1.949-.394.229.051.415-.014.612-.137.402-.252.813-.493 1.238-.705.727-.364 1.463-.38 2.188.023.213.119.435.226.641.356a.936.936 0 0 0 .815.102 2.856 2.856 0 0 1 1.726.03c.853.282 1.396.884 1.694 1.7.142.39.193.818.247 1.233.012.175.09.339.221.456.82.734 1.616 1.496 2.458 2.203.485.407.605.92.598 1.489-.014 1.141-.062 2.283-.087 3.425-.033 1.454-.04 2.91-.093 4.364a9.163 9.163 0 0 1-.226 1.694c-.21.924-.625 1.332-1.71 1.459a17.46 17.46 0 0 1-1.87.078c-1.414.013-2.828-.006-4.242.02-.88.016-1.76.094-2.64.14-.23.011-.462.008-.693.008-1.468 0-2.937.014-4.405-.009a14.214 14.214 0 0 1-1.74-.16c-.703-.099-1.218-.474-1.42-1.177a5.102 5.102 0 0 1-.23-1.234C2.31 17.87 2.33 16.78 2.33 15.69h.017Zm13.229-.93-.402.263-3.043 1.98c-.265.172-.53.274-.831.072-.802-.538-1.608-1.068-2.408-1.608-.266-.18-.518-.38-.765-.563-.633.523-4.145 4.88-4.284 5.326.193.05.382.129.576.143.893.066 1.787.152 2.68.157 1.427.007 2.853-.045 4.28-.072.026 0 .053-.003.08-.004 1.153-.048 2.305-.12 3.457-.14 1.455-.025 2.91-.007 4.365-.013.182 0 .363-.039.61-.067l-4.315-5.474Zm-3.135-3.607c.953-.733 1.863-1.422 2.761-2.126.603-.472 1.145-1.007 1.563-1.655.538-.833.538-1.802.011-2.528a1.21 1.21 0 0 0-.88-.532c-.296-.027-.613-.047-.891.033-1.485.427-2.473 1.366-2.854 2.896a4.318 4.318 0 0 1-.166.544c-.064.158-.211.2-.372.198a.325.325 0 0 1-.33-.253 1.34 1.34 0 0 1-.053-.279c-.077-.97-.544-1.732-1.282-2.324-.608-.487-1.454-.481-2.094-.037-1.17.813-1.328 2.573-.425 3.66.654.788 1.51 1.296 2.449 1.64.826.302 1.687.506 2.563.763Zm5.692-3.467c-.393.508-.717.98-1.095 1.403-.828.93-1.818 1.677-2.822 2.402-.444.313-.903.602-1.377.867a.793.793 0 0 1-.505.09c-1.5-.3-2.96-.727-4.274-1.54-.806-.498-1.52-1.103-1.985-1.952-.11-.199-.192-.413-.314-.68l-1.947 1.66c.088.135.187.264.295.384.326.307.65.62 1.001.898 1.184.936 2.361 1.881 3.575 2.777.939.693 1.929 1.317 2.862 1.949 1.011-.407 8.183-5.652 8.63-6.292l-2.044-1.966Zm2.16 11.162.086-.023.217-7.94-4.207 3.246c1.361 1.578 2.512 3.248 3.904 4.717Zm-13.12-4.672-3.738-3.102c-.006.128-.019.257-.017.386.023 1.482.052 2.963.07 4.444.01.884.003 1.769.007 2.653.006.098.019.195.037.292l3.64-4.673ZM10.68 4.21c.219.237.403.417.563.616.165.204.307.426.439.613l1.39-1.488c-.478-.43-1.002-.45-1.55-.19-.268.127-.524.278-.842.448Z"></path>
</svg>