<svg width="46" height="46" fill="currentColor" viewBox="0 0 24 24" xmlns="http://www.w3.org/2000/svg">
  <path d="M2.434 15.715c0-1.103-.02-2.207.007-3.309.019-.718.144-1.435.153-2.153.005-.42.182-.687.469-.937 1.418-1.239 2.83-2.484 4.25-3.72.715-.622 1.426-1.253 2.174-1.833.457-.355.973-.636 1.476-.925.895-.511 1.763-.43 2.65.084a23.134 23.134 0 0 1 2.951 2.009c.99.799 1.937 1.651 2.896 2.488.51.445.982.938 1.514 1.353.527.412.703.945.69 1.569-.02 1.102-.064 2.203-.088 3.304-.033 1.496-.039 2.993-.092 4.489a9.175 9.175 0 0 1-.224 1.694c-.21.924-.62 1.354-1.703 1.454-.951.087-1.913.07-2.871.083-1.04.014-2.082-.008-3.122.018-.903.024-1.804.096-2.706.141-.242.013-.486.01-.73.01-1.446 0-2.892.013-4.338-.01a14.039 14.039 0 0 1-1.729-.162c-.7-.099-1.207-.482-1.406-1.183a5.148 5.148 0 0 1-.226-1.236c-.032-1.075-.011-2.151-.011-3.227h.016Zm9.234.216c3.056-1.775 5.704-4.104 8.474-6.182-.233-.266-.424-.512-.642-.73a37.505 37.505 0 0 0-3.64-3.24c-.935-.717-1.887-1.406-2.924-1.977-.515-.284-.986-.268-1.458-.01-.505.26-.985.566-1.436.913-1.084.876-2.135 1.794-3.198 2.697-.825.701-1.65 1.403-2.474 2.106-.16.137-.312.284-.46.42.627.959 5.683 4.865 7.758 6.003Zm3.906-1.182c-.261.178-.48.336-.707.483-.906.593-1.813 1.183-2.722 1.773-.266.174-.532.258-.827.058a411.333 411.333 0 0 0-2.424-1.634c-.253-.17-.464-.41-.798-.524-.486.574-.972 1.137-1.445 1.71-.482.587-.97 1.17-1.422 1.78-.437.59-.955 1.122-1.364 1.82.259.064.448.14.642.155.86.063 1.722.15 2.583.154 1.444.006 2.888-.045 4.332-.072.027 0 .054-.003.082-.004 1.064-.048 2.127-.122 3.191-.14 1.527-.024 3.054-.006 4.581-.012.18-.001.377.034.544-.13l-4.246-5.418Zm.815-.626c1.355 1.585 2.499 3.263 3.961 4.802l.218-8.044-4.18 3.242Zm-12.891-3.07c0 .155-.003.29 0 .424.022 1.237.053 2.473.067 3.71.012 1.101.005 2.203.01 3.305 0 .113.015.227.025.363l3.628-4.686-3.73-3.116Z"></path>
</svg>