<svg width="46" height="46" fill="currentColor" viewBox="0 0 24 24" xmlns="http://www.w3.org/2000/svg">
  <path d="m17.138 7.146-3.092 3.053c.232.446.487.854.667 1.292.639 1.553.531 3.091-.198 4.584a3.194 3.194 0 0 1-1.797 1.618 6.281 6.281 0 0 1-3.81.237c-1.59-.401-2.52-1.485-2.95-3.03-.408-1.468-.233-2.858.577-4.156a2.32 2.32 0 0 1 .388-.479 5.34 5.34 0 0 1 2.556-1.328 5.495 5.495 0 0 1 2.686.101c.43.121.837.322 1.218.473l2.772-2.684a2.247 2.247 0 0 0-.284-.049c-.303-.01-.605-.01-.908-.018-.448-.013-.647-.142-.637-.41.01-.26.208-.373.667-.376.165 0 .33.004.495 0 .619-.014 1.236-.028 1.855-.048.402-.013.595.11.665.51.114.649.21 1.3.288 1.955a.546.546 0 0 1-.473.623c-.279.024-.514-.211-.547-.554a2.007 2.007 0 0 1 .011-.246c.004-.138.014-.275.006-.412-.012-.204-.037-.407-.057-.61l-.098-.046ZM9.916 9.772c-.454-.06-1.058.18-1.646.496a3.003 3.003 0 0 0-1.338 1.405c-.577 1.223-.45 2.437.043 3.635.422 1.028 1.206 1.649 2.297 1.87 1.009.204 2 .101 2.965-.231a2.242 2.242 0 0 0 1.358-1.198c.723-1.585.684-3.14-.287-4.626-.252-.385-.573-.713-.998-.902-.685-.307-1.41-.448-2.394-.45Z"></path>
</svg>