<svg width="46" height="46" fill="currentColor" viewBox="0 0 24 24" xmlns="http://www.w3.org/2000/svg">
  <path d="M12.434 2.5h6.837c.176 0 .352-.007.528-.009.946-.01 1.563.54 1.662 1.483.014.134.014.27.016.406.02 1.504.037 3.008.06 4.512.034 2.087.075 4.175.105 6.263.023 1.536-.183 3.056-.35 4.578-.061.572-.454.935-.9 1.243a1.172 1.172 0 0 1-.325.165c-.659.197-1.305.42-2.016.408-3.838-.064-7.677-.115-11.516-.154-.472 0-.944.024-1.414.073-.993.091-1.815-.213-2.446-.997a1.215 1.215 0 0 1-.274-.79c.018-1.573.038-3.145.062-4.716.038-2.305.084-4.61.123-6.914.019-1.098-.02-2.2.056-3.294.07-1.014.633-1.648 1.512-1.882.737-.197 1.478-.181 2.218-.204 2.02-.064 4.042-.089 6.063-.13V2.5Zm-.05 5.334c.003.03.009.06.016.09.542 1.63 1.088 3.26 1.619 4.894.065.202.196.267.359.343 1.08.507 2.156 1.02 3.233 1.531.084.04.17.076.235.105.04-.015.056-.016.065-.024.769-.803 1.54-1.604 2.301-2.413a.512.512 0 0 0 .124-.325c-.008-.814.006-1.63-.059-2.44a27.287 27.287 0 0 1-.01-3.657 8.36 8.36 0 0 0-.088-1.615c-.067-.478-.133-.576-.592-.617-.214-.02-.428-.063-.642-.068-.474-.011-.95.008-1.424-.013a.723.723 0 0 0-.544.211c-1.521 1.329-3.046 2.653-4.594 3.998ZM7.976 3.641c-.613 0-1.208-.002-1.803.001-.311.002-.625-.008-.934.024-1.099.112-1.62.7-1.55 1.885.1 1.676.132 3.357.129 5.036-.003 1.612-.088 3.224-.135 4.835-.003.098.012.196.018.3l6.772-4.411c-.725-2.586-1.587-5.105-2.497-7.67Zm2.81 8.878c-.058.027-.07.032-.082.04a16215.55 16215.55 0 0 1-6.951 4.355.315.315 0 0 0-.16.3c.001.637-.023 1.275.008 1.91.03.61.375 1.07.89 1.17.556.12 1.121.19 1.69.207 2.25.014 4.5-.01 6.749-.021.114 0 .228-.015.367-.025-1.04-2.597-1.654-5.29-2.511-7.936Zm3.822 1.866-.1.069 2.065 6.053c.702 0 1.394.026 2.083-.01.35-.03.694-.11 1.02-.24.361-.13.633-.39.656-.803.036-.62.054-1.24.054-1.862 0-.084-.127-.194-.22-.246-.509-.283-1.025-.553-1.54-.826-1.339-.713-2.678-1.424-4.018-2.136ZM8.984 3.678c.035.114.057.202.09.286.298.77.612 1.534.895 2.31.673 1.842 1.242 3.717 1.77 5.607.533 1.901 1.127 3.785 1.715 5.67.305.98.655 1.944.98 2.902h.883C13.165 14.938 11.641 9.25 9.715 3.678h-.731Zm3.037 3.119 3.804-3.144h-4.996l1.192 3.143Zm8.388 9.368V13.61l-.077-.024-1.497 1.75 1.574.83Z"></path>
  <path d="M16.835 9.575c.09.035.177.076.26.124.77.476 1.54.955 2.307 1.436.318.197.392.467.211.792a1.66 1.66 0 0 1-.189.264c-.358.422-.717.845-1.083 1.261-.088.1-.21.17-.307.262-.257.248-.531.23-.816.063-.397-.233-.793-.467-1.188-.703-.255-.153-.513-.303-.758-.47-.398-.273-.487-.657-.217-1.048.407-.59.839-1.163 1.264-1.74a.546.546 0 0 1 .516-.241Zm-.015.925-1.094 1.358 1.781.989 1.123-1.271-1.81-1.076Z"></path>
  <path d="M8.402 8.722c.166.102.37.172.491.314.228.266.428.556.596.863a1.046 1.046 0 0 1-.288 1.309c-.41.308-.838.592-1.281.851-.443.258-.813.12-1.021-.355-.158-.359-.29-.723-.58-1.01-.141-.141-.117-.328.054-.507a4.8 4.8 0 0 1 .552-.475c.343-.263.69-.519 1.044-.768.139-.084.284-.158.433-.222Zm-.77 2.328.97-.622-.381-.523-.993.629.404.516Z"></path>
  <path d="M7.12 15.337c.305-.02.494.074.602.254.236.394.482.787.653 1.21.167.417-.078.791-.368 1.044a9.614 9.614 0 0 1-1.362.953c-.375.226-.674.133-.901-.236-.234-.38-.451-.772-.659-1.168-.178-.34-.116-.661.17-.917.155-.133.32-.252.493-.358.355-.223.715-.44 1.078-.652.094-.05.193-.094.294-.13Zm-.06 1.078-1.178.622.589.708.923-.6-.334-.73Z"></path>
</svg>