<svg width="46" height="46" fill="currentColor" viewBox="0 0 24 24" xmlns="http://www.w3.org/2000/svg">
  <path d="M15.427 21.233c.257.051.517.083.779.096l.436.023c.658.036 1.339.073 2.01.077h.105c.624 0 1.273-.032 1.932-.094.615-.057.78-.232.8-.847.046-1.314.078-2.65.11-3.94l.017-.712a1.586 1.586 0 0 0-.04-.383c-.068-.304-.269-.494-.537-.508a.58.58 0 0 0-.595.445c-.06.217-.09.44-.092.664-.008.65-.008 1.31-.008 1.948v2.059l-.04.01a.513.513 0 0 1-.095.019 84.49 84.49 0 0 0-.502.024c-.448.021-.911.044-1.367.05-.5.009-1.01.006-1.502.004-.3-.002-.601-.003-.902-.002a2.484 2.484 0 0 0-.502.036c-.288.06-.471.258-.48.516-.004.156.05.43.473.515Z"></path>
  <path d="M7.66 20.176c-.858-.012-1.73-.016-2.574-.019a1094.287 1094.287 0 0 1-1.23-.003h-.144l-.008-.076a2.868 2.868 0 0 1-.016-.195c-.02-.564-.04-1.128-.058-1.692l-.079-2.306a3.702 3.702 0 0 0-.046-.54.405.405 0 0 0-.378-.351c-.212-.017-.373.094-.453.312a1.012 1.012 0 0 0-.052.259l-.01.11a9.189 9.189 0 0 0-.043.628 950.934 950.934 0 0 0-.109 4.367c-.01.46.26.753.741.806.157.015.315.02.472.018h.147l.707.01c1.064.012 2.164.026 3.246.031h.005a1.33 1.33 0 0 0 .497-.11.592.592 0 0 0 .293-.904.595.595 0 0 0-.287-.219 1.797 1.797 0 0 0-.62-.126Z"></path>
  <path d="M3.03 9.268h.012c.267 0 .48-.203.557-.531a1.27 1.27 0 0 0 .028-.26l.005-.215c.005-.225.011-.458.003-.688a282.46 282.46 0 0 0-.08-1.939l-.058-1.408a8.98 8.98 0 0 1-.002-.444l.001-.15.198-.002c.183-.003.356-.005.526.004 1.198.068 2.206.088 3.231-.036a1.45 1.45 0 0 0 .529-.164.443.443 0 0 0 .003-.778 1.11 1.11 0 0 0-.456-.135 4.345 4.345 0 0 0-.508-.007l-.153.003-2.17.032-1.661.025c-.272.004-.429.132-.48.39-.039.192-.06.387-.064.583-.013 1.31-.023 2.752-.032 4.534a4.09 4.09 0 0 0 .033.624c.052.345.253.555.538.562Z"></path>
  <path d="M20.285 4.481c-.021.265-.044.54-.06.81l-.022.36a38.906 38.906 0 0 0-.083 1.844c.001.27.066.536.19.776a.488.488 0 0 0 .418.287h.006a.5.5 0 0 0 .43-.281c.127-.236.204-.495.227-.762.117-1.417.043-2.853-.028-4.243l-.009-.169c-.016-.305-.176-.501-.465-.568a2.544 2.544 0 0 0-.664-.08c-1.14.036-2.343.084-3.785.149a1.68 1.68 0 0 0-.498.112.407.407 0 0 0-.266.44.366.366 0 0 0 .356.367l.145.017c.127.015.257.031.388.035.3.009.603.013.897.018l.61.01 1.607.039.65.016v.073a2.5 2.5 0 0 1-.002.218l-.042.532Z"></path>
</svg>