<svg width="46" height="46" fill="currentColor" viewBox="0 0 24 24" xmlns="http://www.w3.org/2000/svg">
  <path d="M11.398 6.176V4.992c-.394-.17-.756-.407-.9-.867a1.368 1.368 0 0 1 .046-.889c.215-.606.99-1.06 1.693-.994.568.052.955.427 1.036 1.002.141 1-.118 1.48-1.018 1.83l-.05.825c.24-.182.42-.324.605-.456.262-.2.534-.387.815-.559.908-.515 1.787-.416 2.638.157.386.26.779.515 1.177.757a5.824 5.824 0 0 0 2.357.815c.218.028.434.073.644.135.76.215.951.897.387 1.441-.781.755-1.748 1.14-2.812 1.243a10.139 10.139 0 0 1-3.238-.228c-.737-.167-1.478-.314-2.218-.467-.145-.03-.293-.046-.458-.071v3.672c.561-.215 1.063-.39 1.413-.818.126-.162.214-.35.26-.549.08-.331-.015-.435-.315-.609a3.776 3.776 0 0 1-.683-.517.468.468 0 0 1-.1-.57.445.445 0 0 1 .504-.272c.235.046.504.106.676.255 1.277 1.107 1.053 2.567-.03 3.39-.216.166-.455.303-.717.475.123.04.222.075.322.107.49.144.944.387 1.335.715.65.569.719 1.296.184 1.971-.475.599-1.109.977-1.806 1.26-.2.081-.403.151-.658.246.184.131.33.224.463.333.5.406.812.893.66 1.573a1.3 1.3 0 0 1-.649.861c-.183.11-.348.248-.549.393.24.11.434.181.61.285.155.092.3.226.214.437-.083.205-.27.23-.452.174-.312-.097-.615-.22-.942-.338-.103.26-.094.642-.457.642-.167 0-.335-.219-.545-.369-.107.038-.282.113-.464.164-.15.041-.318.041-.391-.128-.072-.167.035-.295.165-.383.19-.13.393-.244.544-.337-.372-.211-.764-.407-1.129-.645-.94-.615-.807-1.613-.275-2.249.08-.094.166-.182.283-.308-.812-.457-1.513-1.01-1.525-2.029-.01-.987.536-1.669 1.376-2.19-.113-.092-.198-.152-.272-.224a4.8 4.8 0 0 1-.492-.495c-.517-.666-.568-1.37-.15-2.114.345-.616.863-1.022 1.492-1.305.27-.121.48-.07.624.13a.468.468 0 0 1-.113.66c-.21.155-.438.283-.679.382a1.115 1.115 0 0 0-.687.76.914.914 0 0 0 .072.717c.298.552.812.817 1.38.956.2.05.446-.085.714-.146l.105-3.883a4.197 4.197 0 0 0-.46.032c-1.11.202-2.217.405-3.324.619-1.004.194-2.008.338-3.028.12-.542-.115-1.063-.285-1.496-.65-.242-.205-.429-.453-.306-.788a.885.885 0 0 1 .298-.422 4.73 4.73 0 0 1 .875-.45c1.06-.416 2.036-.963 2.886-1.726.184-.165.378-.318.571-.474.412-.333.875-.43 1.394-.324.78.159 1.407.601 2.03 1.055.172.126.333.27.54.438Zm.67 1.763c.704.107 1.355.193 2.002.307 1.082.192 2.16.388 3.269.35a4.746 4.746 0 0 0 2.338-.698c.097-.07.19-.148.277-.23-.335-.07-.617-.114-.89-.189-1.153-.318-2.184-.877-3.138-1.592-.712-.533-1.217-.547-1.964-.068a3.78 3.78 0 0 0-.336.237c-.427.345-.843.704-1.28 1.035-.173.13-.26.265-.253.477-.001.124-.01.248-.024.371Zm-.603-.479c-.319-.237-.569-.402-.795-.596a6.96 6.96 0 0 0-1.76-1.126c-.453-.196-.864-.168-1.249.198-1.068 1.017-2.316 1.749-3.698 2.258a3.82 3.82 0 0 0-.4.213c.27.119.453.212.645.28.853.3 1.725.289 2.599.115 1.077-.214 2.15-.446 3.226-.659.468-.092.94-.157 1.432-.238V7.46Zm-.19 6.439c-.61 0-1.575.457-1.903.887-.364.474-.368 1.06.084 1.391.389.285.854.476 1.306.66.243.098.416-.056.43-.325.035-.614.06-1.23.081-1.845.01-.256.002-.513.002-.768Zm.864 2.582c.307-.115.593-.206.865-.328.44-.199.846-.456 1.158-.835.218-.264.217-.419-.031-.636-.56-.488-1.236-.654-1.992-.7v2.5Zm-1.076 1.575c-.506-.066-1.077.314-1.163.718a.464.464 0 0 0 .167.478c.269.227.543.447.86.707l.136-1.902ZM12.426 3.79c.004-.527-.186-.697-.759-.734-.258-.017-.436.115-.502.571-.054.367.247.635.714.665.429.027.545-.079.547-.501Zm-.461 14.626c-.028.274-.066.544-.08.816-.014.275-.003.552-.003.87.338-.194.488-.457.6-.756.19-.505.058-.758-.517-.93Z"></path>
</svg>