<svg width="46" height="46" fill="currentColor" viewBox="0 0 24 24" xmlns="http://www.w3.org/2000/svg">
  <path d="M3.307 14.895c.517.478 1.181.737 2.03.79.447.03.901.025 1.341.022.195-.002.39-.003.585-.002h.208l.003.006c.004.01.008.017.01.017l-.049 1.109c-.031.704-.063 1.432-.09 2.148a5.45 5.45 0 0 0 .03.7.552.552 0 0 0 .359.467 3.87 3.87 0 0 0 1.577.307c.196 0 .392-.01.587-.031.345-.035.426-.196.46-.501.133-1.21.134-2.43.005-3.64-.017-.158-.028-.318-.042-.502a27.155 27.155 0 0 0-.011-.145l.281.155c.266.145.518.283.762.423.62.355 1.245.726 1.85 1.085 1.284.764 2.612 1.553 3.975 2.233.088.044.176.09.264.137.448.237.91.48 1.491.438.407-.03.584-.093.573-.556a17.52 17.52 0 0 0-.018-.408 9.224 9.224 0 0 1-.02-.647c.024-1.368.058-2.705.088-3.832.005-.19.022-.384.04-.572l.016-.194a2.275 2.275 0 0 0 1.312-.634c.355-.35.585-.806.655-1.299.089-.633.02-1.129-.218-1.558-.392-.71-1.094-1.007-1.734-1.222v-.316a717.93 717.93 0 0 0-.023-1.391 385.954 385.954 0 0 1-.048-3.379c-.002-.298-.122-.445-.223-.517-.15-.107-.37-.124-.6-.047-.09.033-.176.075-.256.126l-.084.047-.242.135c-.142.08-.289.164-.436.238-.431.218-.863.434-1.297.648-.87.432-1.771.88-2.644 1.345a55.287 55.287 0 0 0-3.186 1.845l-.13.083c-.345.22-.642.411-1.056.263a.387.387 0 0 0-.16-.011l-.035.002c-.183.009-.366.015-.55.022-.424.014-.862.03-1.292.071-.961.093-1.681.242-2.335.484-.964.357-1.589.844-1.965 1.534a4.526 4.526 0 0 0-.57 2.597c.052.595.191 1.352.812 1.927Zm5.998.613v4.01h-.837l-.112-3.83.95-.18ZM4.051 10.57c.297-.476.79-.825 1.423-1.011a11.05 11.05 0 0 1 1.62-.36c.561-.078 1.12-.125 1.71-.175.225-.018.45-.037.68-.058l-.081 5.484-.074.011c-.104.018-.21.029-.316.033a25.96 25.96 0 0 0-1.151.06c-.825.055-1.677.111-2.513-.011l-.019-.003a5.367 5.367 0 0 1-.496-.089c-.682-.166-1.087-.572-1.238-1.244a3.404 3.404 0 0 1 .455-2.637Zm6.515-1.622c.933-.655 6.982-3.692 8.092-4.07.063 3.18.016 6.414-.028 9.543a615.879 615.879 0 0 0-.053 4.447 105.233 105.233 0 0 1-2.996-1.648c-1.628-.919-3.311-1.87-5.051-2.645.1-2.19.111-3.981.037-5.627Zm9.075 3.786v-2.656c.586.173.967.754.937 1.45-.026.599-.414 1.09-.937 1.206Z"></path>
</svg>