<svg width="46" height="46" fill="currentColor" viewBox="0 0 24 24" xmlns="http://www.w3.org/2000/svg">
  <path d="M11.801 13.125a1.035 1.035 0 0 0 .952-.637.966.966 0 0 0 .068-.383c-.015-.523-.507-1.025-1.031-1.052a.788.788 0 0 0-.572.232 1.237 1.237 0 0 0-.378.873.951.951 0 0 0 .264.688.963.963 0 0 0 .695.279h.002Z"></path>
  <path d="M16.588 12.524a.948.948 0 0 0 .637.229c.083 0 .166-.009.247-.026a1.1 1.1 0 0 0 .785-.585.775.775 0 0 0-.066-.78c-.232-.367-.75-.549-1.177-.413-.43.136-.73.605-.711 1.115 0 .015.005.028.012.04.015.024.03.055.047.09.055.123.131.235.226.33Z"></path>
  <path d="M6.501 13.094a.902.902 0 0 0 .666-.195 1.013 1.013 0 0 0 .375-.683c.054-.508-.286-.996-.742-1.064a.884.884 0 0 0-.672.184 1.098 1.098 0 0 0-.416.747.896.896 0 0 0 .79 1.01Z"></path>
</svg>