<svg width="46" height="46" fill="currentColor" viewBox="0 0 24 24" xmlns="http://www.w3.org/2000/svg">
  <path d="M4.943 16.352c-.036.23.153.495.414.576.136.042.277.067.42.073l.357.014c.278.013.564.026.849.026.114 0 .229-.003.343-.008.555-.023 1.118-.059 1.663-.093.652-.041 1.327-.084 1.99-.107 1.728-.06 3.462-.297 5.14-.527l.217-.03a20.285 20.285 0 0 0 1.25-.198c.16-.027.4-.068.462-.434a.082.082 0 0 0-.058-.092 2.287 2.287 0 0 1-.117-.038.892.892 0 0 0-.233-.056l-.253-.015a55.4 55.4 0 0 0-1.78-.086 47.371 47.371 0 0 0-5.048.13c-1.082.088-2.184.16-3.249.229-.54.035-1.079.07-1.619.107a1.36 1.36 0 0 0-.34.059.575.575 0 0 0-.408.47Z"></path>
  <path d="M5.231 12.198a.459.459 0 0 0 .249.421c.13.064.273.102.418.112a9.9 9.9 0 0 0 .6.022c.1 0 .202-.003.303-.009.603-.034 1.215-.075 1.807-.115 1.11-.074 2.256-.15 3.384-.19 1.536-.052 3.08-.24 4.574-.423l1.173-.142.095-.009c.229-.021.514-.047.805-.359a.079.079 0 0 0 .019-.034.08.08 0 0 0-.017-.074.082.082 0 0 0-.031-.023c-.531-.219-.99-.249-1.453-.262l-.405-.012c-1.279-.037-2.602-.076-3.908-.025-2.196.084-4.347.298-6.729.548a2.01 2.01 0 0 0-.645.183.428.428 0 0 0-.239.39Z"></path>
  <path d="M5.683 8.058c.155.076.323.122.494.136l.283.022c.435.034.884.068 1.328.068h.104c.84-.01 1.694-.03 2.52-.05 1.096-.024 2.23-.05 3.343-.056 1.595-.007 3.198-.19 4.747-.366l.05-.006a.802.802 0 0 0 .275-.108c.057-.03.12-.063.2-.1a.083.083 0 0 0 .047-.073.08.08 0 0 0-.046-.074 3.917 3.917 0 0 1-.21-.112.856.856 0 0 0-.31-.13l-.305-.037c-.592-.071-1.203-.145-1.809-.17-3.26-.137-6.572-.009-9.774.115l-.574.022a1.282 1.282 0 0 0-.258.037.461.461 0 0 0-.373.4.453.453 0 0 0 .268.482Z"></path>
</svg>