<svg width="46" height="46" fill="currentColor" viewBox="0 0 24 24" xmlns="http://www.w3.org/2000/svg">
  <path d="M5.43 16.454c.298.204.338.353.182.69a34.042 34.042 0 0 0-1.02 2.4c-.085.228-.091.673.092.852.15.146.404.166.65.186.072.005.14.01.205.02l.032.001a.566.566 0 0 0 .251-.086l.032-.017.809-.415c.77-.395 1.567-.804 2.342-1.22l.007-.005c.934-.5 1.814-.974 2.896-.766a.57.57 0 0 0 .137.005.899.899 0 0 1 .043-.002c2.57-.023 4.55-.555 6.231-1.674 2.576-1.713 3.732-4.165 3.173-6.727-.518-2.373-1.539-3.849-3.31-4.786-1.8-.953-3.83-1.5-5.714-1.542h-.002c-2.325.01-4.267.391-6.113 1.203-2.237.983-3.463 2.396-3.75 4.32a8.6 8.6 0 0 0-.043 2.364c.31 2.39 1.248 4.092 2.87 5.2Zm.787 1.934c.156-.554.303-1.076.486-1.577.287-.785-.137-1.226-.538-1.523-.61-.45-1.227-.97-1.608-1.707-.986-1.905-1.12-3.69-.41-5.456.384-.958 1.165-1.67 2.458-2.238 1.784-.786 3.56-1.179 5.316-1.179 1.748.008 3.474.39 5.062 1.119 1.833.824 2.85 2.182 3.199 4.276.287 1.717-.19 3.148-1.501 4.502-1.168 1.206-2.742 1.915-4.954 2.233-1.115.16-2.434.293-3.76.062-.167-.028-.352.076-.502.16-.898.503-1.788 1.008-2.73 1.543l-.69.391.172-.606Z"></path>
  <path d="M8.507 11.903h.01a.944.944 0 0 0 .672-.284.796.796 0 0 0 .224-.583.888.888 0 0 0-.851-.832.882.882 0 0 0-.626.265.93.93 0 0 0-.288.654.746.746 0 0 0 .222.537c.172.162.4.25.637.243Z"></path>
  <path d="M12.285 12.124h.008a.822.822 0 0 0 .576-.242.846.846 0 0 0 .257-.591c.002-.223-.122-.486-.323-.687a.794.794 0 0 0-.53-.263h-.002c-.412.003-.823.453-.829.91a.858.858 0 0 0 .843.873Z"></path>
  <path d="M15.881 12.032h.005a.844.844 0 0 0 .808-.768.768.768 0 0 0-.237-.533 1.153 1.153 0 0 0-.76-.378.55.55 0 0 0-.4.162.885.885 0 0 0-.252.637.86.86 0 0 0 .836.88Z"></path>
</svg>