<svg width="46" height="46" fill="currentColor" viewBox="0 0 24 24" xmlns="http://www.w3.org/2000/svg">
  <path d="M3.313 19.627c.541.314 1.155.467 1.876.467h.005a2225.7 2225.7 0 0 1 5.871 0c1.825 0 3.676-.002 5.505-.01a29.36 29.36 0 0 0 3.15-.145c1.094-.123 1.558-.631 1.6-1.754.102-2.772.187-5.543.253-8.235.023-.979-.603-1.674-1.596-1.771a11.915 11.915 0 0 0-1.151-.06l-3.357.013c-1.977.008-4.203.017-5.128.018l.165-.268c.15-.24.28-.45.395-.665l.237-.435c.31-.541.59-1.1.837-1.673.12-.294.064-.769-.121-1.017-.153-.204-.644-.22-.926-.151a5.79 5.79 0 0 0-1.385.537c-1.222.664-2.457 1.35-3.652 2.014-.806.447-1.64.91-2.46 1.361-.576.317-.833.796-.835 1.555-.005 1.741-.032 3.512-.058 5.224l-.03 2.118c-.002.145-.005.29-.009.434-.009.394-.018.8.002 1.201.027.526.3.944.812 1.242ZM9.597 6.374c-.344.578-.699 1.176-1.053 1.76l-.055.09c-.17.273-.364.582-.159.967.228.426.643.485 1.021.482l5.139-.015c1.398-.005 2.795-.01 4.193-.013.154-.001.309.007.46.014.17.009.347.018.522.015.287-.008.415.129.442.46a.627.627 0 0 1 .003.072l-.063 2.269-.133 4.828c-.008.316-.012.647-.01.982.002.323-.11.445-.415.452-.566.012-1.14.034-1.697.054-.704.026-1.431.053-2.146.062-2.273.03-4.335.04-6.303.03a154.01 154.01 0 0 1-4.661-.099c-.782-.027-.972-.227-.97-1.02.005-.94-.006-6.176-.083-7.877-.017-.37.061-.524.348-.689a550.544 550.544 0 0 0 3.957-2.29l1.768-1.03c.074-.04.15-.076.23-.107l.032-.013-.367.616Z"></path>
  <path d="M7.502 12.967h-.008a.884.884 0 0 0-.605.291.996.996 0 0 0-.285.704c.014.477.412.835.926.835h.005c.483-.002.854-.322.865-.743.007-.28-.198-.614-.405-.821-.1-.1-.294-.266-.493-.266Z"></path>
  <path d="M15.604 15.011h.025a.754.754 0 0 0 .747-.743c-.007-.425-.534-.879-1.026-.884a.682.682 0 0 0-.663.691c-.006.456.448.92.917.936Z"></path>
  <path d="M11.551 14.846h.017c.262-.012.51-.126.688-.318a.727.727 0 0 0 .217-.512.727.727 0 0 0-.24-.505.84.84 0 0 0-.595-.221.862.862 0 0 0-.611.27.78.78 0 0 0-.203.57.745.745 0 0 0 .727.716Z"></path>
</svg>