<svg width="46" height="46" fill="currentColor" viewBox="0 0 24 24" xmlns="http://www.w3.org/2000/svg">
  <path d="M16.147 4.392c-.246-.657-.59-1.407-1.276-1.992-1.031-.878-2.298-1.176-3.872-.91-1.795.305-3.051 1.424-3.632 3.238a11.395 11.395 0 0 0-.504 4.524c.055.604.1 1.22.144 1.814.052.694.105 1.411.173 2.116.059.582.16 1.159.304 1.726.234.94.814 1.604 1.724 1.97a7.865 7.865 0 0 0 2.944.597 7 7 0 0 0 1.58-.18c1.453-.336 2.364-1.168 2.71-2.473.133-.475.218-.962.254-1.453.05-.86.077-1.735.103-2.582.01-.345.022-.69.033-1.034a.08.08 0 0 0-.06-.081v-.294a28.24 28.24 0 0 1 .003-.807c.036-1.59-.17-2.956-.628-4.179Zm-.804 5.103v.65a.08.08 0 0 0 .05.077c-.018.308-.035.617-.051.925-.046.827-.093 1.683-.167 2.52-.036.399-.167.8-.293 1.187l-.03.09c-.113.348-.366.613-.775.813-.679.33-1.453.458-2.302.38-.639-.06-1.288-.222-1.898-.384-.598-.158-.997-.588-1.153-1.241a7.3 7.3 0 0 1-.203-1.184c-.13-1.892-.265-3.924-.367-5.959a6.93 6.93 0 0 1 .1-1.64c.32-1.682 1.615-2.882 3.224-2.987a5.395 5.395 0 0 1 1.318.082c.92.173 1.546.71 1.813 1.555.273.866.491 1.768.691 2.618.04.218.055.44.042.66a8.877 8.877 0 0 0-.002.213c.004.542.003 1.093.003 1.625Z"></path>
  <path d="M7.475 18.089c.734.593 1.588.9 2.402 1.145.395.118.805.207 1.201.293.158.034.316.068.473.104v1.721l-.024.004a1.147 1.147 0 0 1-.128.017l-.059.003c-.915.046-1.862.094-2.794.137-.246.011-.506.066-.571.384-.059.285.096.52.403.61.2.057.407.085.615.084h.01c.495-.002.999-.009 1.486-.015.61-.008 1.24-.016 1.86-.015.68 0 1.372.011 2.041.022.422.006.843.013 1.264.017h.044a1.58 1.58 0 0 0 .422-.046.572.572 0 0 0 .416-.578c-.03-.275-.176-.461-.412-.523a2.097 2.097 0 0 0-.502-.062c-.51-.006-1.02-.01-1.53-.012l-1.001-.007c-.075 0-.151-.008-.24-.016l-.07-.007-.073-1.672.325-.034c.258-.026.494-.05.729-.076 1.634-.178 2.97-.986 3.969-2.402.744-1.055 1.105-2.302 1.169-4.044a2.049 2.049 0 0 0-.093-.582c-.085-.329-.274-.51-.533-.513a.58.58 0 0 0-.58.404c-.1.296-.18.599-.236.906-.043.236-.073.478-.101.713-.052.426-.105.867-.24 1.27-.521 1.568-1.546 2.533-3.047 2.867-1.439.32-2.892.202-4.444-.363-2.201-.8-3.53-2.828-3.384-5.165l.004-.053a3.04 3.04 0 0 0-.01-.694.575.575 0 0 0-.314-.37c-.187-.08-.384.013-.5.237a.857.857 0 0 0-.078.21c-.15.69-.306 1.406-.15 2.162.353 1.695 1.099 2.984 2.28 3.939Z"></path>
</svg>