<svg width="46" height="46" fill="currentColor" viewBox="0 0 24 24" xmlns="http://www.w3.org/2000/svg">
  <path d="M9.116 15.902a1.768 1.768 0 0 0 1.2.957c1.55.391 3.019.18 4.28-.835 1.048-.843 1.392-2.048 1.396-3.346a5.625 5.625 0 0 0-.572-2.42c-.782.098-.884.078-1.462-.285l-3.559 2.46a2.204 2.204 0 0 1-.139.09c-.5.295-.724.254-1.105-.218-.47.323-.938.65-1.412.97-.168.12-.345.224-.531.312-.304.134-.54.063-.706-.22-.215-.367-.403-.75-.606-1.124-.118-.219-.077-.392.126-.535a645.39 645.39 0 0 0 1.877-1.332.134.134 0 0 0-.005-.045c-.453-.785-.329-.768.239-1.26a52.862 52.862 0 0 1 4.637-3.638c.645-.444 1.263-.927 1.894-1.391.463-.341.606-.332 1.025.063.04.037.083.068.13.106.806-.587 1.61-1.162 2.404-1.753.394-.294.636-.29.947.094.208.257.402.524.581.8.313.483.221.82-.253 1.152-.642.449-1.272.914-1.905 1.376-.13.095-.247.209-.39.331.082.113.142.2.208.281.313.388.267.672-.148.962-.27.189-.532.386-.79.574.027.259.048.489.079.717a.377.377 0 0 0 .072.185c.74.914 1.1 1.988 1.282 3.124.185 1.155.138 2.302-.292 3.41-.611 1.573-1.786 2.567-3.3 3.211-.136.058-.274.109-.414.164l.524 1.286c.14.013.342.024.543.049.621.074.957.638.713 1.207-.103.24-.33.263-.556.27-.687.02-1.374.057-2.061.058-1.182.003-2.364-.016-3.546-.03a1.166 1.166 0 0 1-.286-.04c-.296-.079-.395-.26-.313-.56.15-.551.547-.882 1.123-.931.136-.012.273-.017.408-.026l.346-.84c-.968-.136-1.929-.296-2.744-.873-.824-.584-1.346-1.398-1.714-2.368-.353 0-.722.01-1.09-.004a3.887 3.887 0 0 1-.733-.092.483.483 0 0 1-.387-.475.487.487 0 0 1 .35-.503c.181-.061.37-.095.562-.098 1.568-.008 3.135-.008 4.703-.002.15.007.298.034.44.081.172.051.317.18.284.356a.72.72 0 0 1-.26.38c-.099.08-.253.097-.387.121-.226.04-.455.064-.707.097Zm7.471-9.066c-.757-.6-1.034-1.493-1.62-2.158-1.17.637-6.246 4.512-6.607 5.042l1.506 2.002 3.613-2.508c-.117-.702-.237-1.412.505-1.881.668-.422 1.343-.567 2.028-.023l.575-.474Zm-.762 3.174c.557 1.033.723 1.476.753 2.702.038 1.53-.425 2.9-1.695 3.838-1.456 1.075-3.119 1.294-4.857.874-.736-.177-1.275-.677-1.717-1.28-.067-.093-.176-.226-.261-.222-.291.013-.598-.021-.87.124.191.936 1.019 1.919 1.94 2.281a6.143 6.143 0 0 0 2.342.398 6.72 6.72 0 0 0 2.93-.733c1.457-.727 2.46-1.836 2.777-3.467.25-1.284.094-2.545-.357-3.768-.144-.39-.318-.771-.49-1.184l-.495.437Zm1.045-4.488 2.055-1.695-.409-.678-2.286 1.598c.166.211.299.384.436.553.059.073.127.14.204.222ZM14 8.174c.075.304.107.58.21.826.242.586.68.682 1.176.287.339-.269.39-.587.168-1.025-.162-.32-.448-.446-.828-.343-.223.06-.436.151-.726.255ZM11.432 19.32l-.154.646h2.126l-.205-.875-1.767.229Zm-1.748 1.724c1.744.036 3.488.055 5.241-.12-.104-.092-.22-.171-.338-.172-.298-.005-.596.042-.894.04-.96-.008-1.919-.03-2.878-.047-.398-.007-.792.004-1.13.299Zm-1.36-10.045L6.59 12.16l.452.537c.565-.405 1.15-.71 1.584-1.24L8.323 11Z"></path>
</svg>