<svg width="46" height="46" fill="currentColor" viewBox="0 0 24 24" xmlns="http://www.w3.org/2000/svg">
  <path d="M21.569 8.144a1.424 1.424 0 0 0-.499-.126c-1.392-.05-2.884-.098-4.697-.15-.268-.008-.535-.005-.818-.003l-.348.001a6.9 6.9 0 0 0-.014-.103 3.15 3.15 0 0 1-.035-.324 1949.327 1949.327 0 0 0-.152-4.204 2.393 2.393 0 0 0-.055-.46c-.06-.257-.222-.39-.45-.38-.236.011-.39.16-.422.409l-.016.115c-.023.14-.037.28-.042.421-.028 1.448-.06 3.162-.086 4.9-.005.376.067.627.228.788.166.166.418.239.818.233 1.134-.013 2.418-.027 3.677-.018.43.004.867.023 1.29.042.326.014.664.03.996.037h.032c.188-.002.374-.034.553-.094a.59.59 0 0 0 .04-1.084Z"></path>
  <path d="M4.37 15.505a289.09 289.09 0 0 0 2.376-.096c.46-.02.92-.038 1.381-.057.07 0 .141.003.211.01l.06.005v.342l.007.962c.005.686.009 1.373.012 2.06 0 .324-.002.649-.004.973-.002.302-.004.603-.003.905-.005.156.009.312.04.464.083.336.372.585.675.585h.014c.314-.008.581-.262.65-.617.02-.128.026-.257.014-.385-.025-.406-.052-.812-.08-1.217-.05-.736-.102-1.497-.142-2.246-.02-.37-.024-.747-.03-1.112a32.164 32.164 0 0 0-.023-1.011c-.015-.335-.088-.544-.234-.676-.146-.132-.363-.184-.703-.165-1.591.088-3.182.178-4.772.27l-.533.03c-.026.002-.052.002-.08.003a.529.529 0 0 0-.28.052c-.073.047-.252.174-.312.35-.067.194.033.388.256.494a.771.771 0 0 0 .31.062l.235.007c.312.01.636.02.954.008Z"></path>
  <path d="M3.226 9.515h.042c.533 0 1.067-.001 1.6-.004a167.99 167.99 0 0 1 3.883.015h.05c.623 0 .894-.249.933-.851a74.8 74.8 0 0 0 .106-2.434l.005-.137c.034-1.049.055-1.917.064-2.732a1.53 1.53 0 0 0-.111-.626.464.464 0 0 0-.368-.286.485.485 0 0 0-.435.202 1.382 1.382 0 0 0-.224.508c-.159.668-.147 1.352-.136 2.012.004.227.008.461.005.69a68.7 68.7 0 0 1-.054 1.788l-.029.745-.076.009a1.6 1.6 0 0 1-.165.015l-2.105.037-2.308.041-.2.004c-.324.005-.66.01-.99.034-.43.03-.521.265-.522.457-.001.152.062.417.502.486.176.023.355.032.533.027Z"></path>
  <path d="M20.927 13.831a1.148 1.148 0 0 0-.176-.002l-.73.037c-.564.027-1.147.055-1.72.098-.773.06-1.557.129-2.315.196-.436.04-.873.077-1.309.115-.517.044-.727.26-.75.77-.008.162-.011.326-.015.485-.003.138-.006.276-.012.414l-.055 1.39c-.034.855-.07 1.739-.101 2.609-.008.222.003.445.034.666.052.371.232.597.473.597l.026-.001c.352-.023.386-.475.397-.623.041-.55.08-1.1.119-1.65.042-.604.086-1.207.13-1.811.03-.398.067-.791.106-1.208l.048-.515c.223-.02.442-.042.657-.063a45.63 45.63 0 0 1 1.516-.133c.785-.05 1.584-.089 2.357-.126l1.028-.05.102-.004c.092 0 .185-.007.275-.024.338-.07.548-.322.523-.624-.025-.296-.263-.51-.608-.543Z"></path>
</svg>