<svg width="46" height="46" fill="currentColor" viewBox="0 0 24 24" xmlns="http://www.w3.org/2000/svg">
  <path d="M12.59 12.947v3.144a.488.488 0 0 0 .11-.072c1.115-1.374 2.594-2.08 4.31-2.35.231-.037.46-.082.69-.121.434-.073.716.117.804.557.086.46.073.935-.039 1.39-.305 1.357-1.148 2.321-2.267 3.07a7.53 7.53 0 0 1-2.792 1.169c-.254.048-.516.054-.826.085.007.21-.001.42-.026.629-.051.28-.127.556-.226.824a.398.398 0 0 1-.428.259.42.42 0 0 1-.397-.36 8.387 8.387 0 0 1-.12-.813 3.764 3.764 0 0 1-.003-.411c-.377-.053-.721-.074-1.051-.153-2.135-.508-3.759-1.689-4.753-3.674a3.017 3.017 0 0 1-.258-.734c-.11-.533.138-.98.664-1.114 1.6-.408 3.163-.316 4.633.494.308.17.565.43.887.682.106-.809.114-1.617.176-2.436-.484-.056-.937-.08-1.377-.164-1.928-.373-3.242-1.459-3.734-3.391-.355-1.393-.1-2.732.602-3.977a6.24 6.24 0 0 1 1.468-1.766c.678-.56 1.49-.801 2.32-1.005 1.21-.298 2.408-.198 3.577.18A3.689 3.689 0 0 1 16.692 4.7c.72 1.334 1.028 2.76.72 4.258-.406 1.986-1.67 3.189-3.598 3.723-.395.11-.802.175-1.224.265Zm-1.263-9.493c-1.162-.016-1.716.19-2.497 1.037-.927 1.006-1.475 2.187-1.493 3.569-.02 1.621.757 3.27 2.806 3.772a6.59 6.59 0 0 0 3.932-.249c1.362-.506 2.158-1.508 2.38-2.955.175-1.132-.099-2.183-.584-3.189-.434-.9-1.177-1.455-2.14-1.652-.791-.162-1.602-.225-2.404-.333Zm.095 15.425c0-.514.004-1.032-.005-1.55a.416.416 0 0 0-.097-.218c-.223-.295-.457-.582-.678-.88a2.66 2.66 0 0 0-1.325-.931 6.094 6.094 0 0 0-2.638-.287 2.42 2.42 0 0 0-.313.075c.7 2.334 3.377 3.89 5.056 3.79Zm6.092-4.35a1.63 1.63 0 0 0-.25-.01c-.822.11-1.619.303-2.346.72-.797.457-1.499 1.018-1.963 1.831a2.73 2.73 0 0 0-.377 1.659c.121.008.243.007.364-.002 1.622-.27 2.984-1.005 3.99-2.315a2.75 2.75 0 0 0 .582-1.882Z"></path>
  <path d="M12.482 10.521c-.023.198-.037.389-.07.576-.051.287-.197.436-.408.441-.206.005-.366-.14-.435-.42-.049-.197-.074-.401-.11-.6-.305-.106-.602-.203-.896-.313a1.418 1.418 0 0 1-.285-.163c-.18-.12-.26-.292-.181-.498.083-.219.281-.194.457-.157.295.06.586.139.942.226l.074-1.533c-.204-.064-.374-.113-.541-.172-.863-.305-.98-1.008-.63-1.685.215-.413.485-.635 1.204-1.006-.007-.159-.016-.332-.022-.506-.006-.169.06-.333.229-.334a.501.501 0 0 1 .355.205c.095.141.118.33.173.5.285.12.578.227.853.368a.435.435 0 0 1 .199.275c.028.158-.098.25-.247.274-.241.038-.484.062-.742.094-.007.067-.018.119-.018.17v1.194c.139.05.226.084.314.111.157.049.318.087.473.14 1.079.372 1.072 1.163.636 1.89-.226.377-.574.62-.975.791-.112.049-.228.087-.349.132Zm-.036-2.306v1.399c.377-.119.655-.295.815-.62.136-.275.088-.447-.182-.57a6.05 6.05 0 0 0-.633-.209Zm-.862-1.96c-.441.174-.68.411-.634.658.062.322.346.33.634.404V6.255Z"></path>
</svg>