<svg width="46" height="46" fill="currentColor" viewBox="0 0 24 24" xmlns="http://www.w3.org/2000/svg">
  <path d="M19.59 9.162c-.248-.27-.56-.482-.86-.687l-.179-.122c-.075-.052-.175-.04-.29-.024a2.034 2.034 0 0 1-.174.018.082.082 0 0 0-.067.123l.214.363c.141.242.274.47.42.684.132.196.278.386.419.57.103.135.21.274.31.414.073.1.155.197.234.289.153.16.28.342.377.54l-.023.017-.042.031c-2.084.047-4.294.095-7.166.153-.005-.002-.012-.008-.017-.011l-.015-.01a.413.413 0 0 1-.039-.03V9.996a17807.737 17807.737 0 0 0-.002-4.654c-.002-.326-.003-.65-.002-.972a.31.31 0 0 1 .03-.051l.01-.013.14.094c.148.097.302.198.44.309.622.491 1.33.85 2.014 1.197.18.09.36.182.538.275a.404.404 0 0 0 .318.046.348.348 0 0 0 .201-.193.089.089 0 0 0 .008-.029l.003-.02a.173.173 0 0 0-.003-.097l-.014-.036a.893.893 0 0 0-.095-.2c-.87-1.254-2.069-2.18-3.234-2.995-.436-.306-.874-.293-1.3.038-.051.04-.103.077-.155.115-.1.075-.205.151-.302.237-.131.117-.263.233-.395.348-.395.344-.803.7-1.18 1.078-.438.437-.85.91-1.25 1.367l-.234.266-.023.025c-.087.097-.25.277-.044.525a.082.082 0 0 0 .086.026c.315-.094.565-.293.808-.485.112-.09.228-.181.346-.26.327-.215.642-.456.946-.69l.24-.183c.133-.101.256-.208.387-.321a6.1 6.1 0 0 1 .634-.499l.011.049c.019.06.029.12.03.183-.041.751-.07 1.515-.097 2.254-.059 1.583-.12 3.22-.31 4.81-.805.191-3.152.334-6.47.391-.143 0-.285-.007-.426-.021l-.14-.011.076-.118a3.63 3.63 0 0 1 .244-.356c.504-.616.819-1.339 1.083-2.027.035-.112.051-.229.048-.346.002-.065.005-.138.012-.218a.081.081 0 0 0-.115-.082c-.066.03-.126.052-.179.072a.701.701 0 0 0-.257.136 24.627 24.627 0 0 0-2.4 2.68c-.464.609-.458 1.017.022 1.56a29.22 29.22 0 0 0 1.693 1.775c.237.226.535.388.823.545l.146.08a.404.404 0 0 0 .315.052.427.427 0 0 0 .245-.23.082.082 0 0 0-.003-.08l-.151-.247a7.048 7.048 0 0 0-.398-.61 7.463 7.463 0 0 0-.427-.504c-.106-.119-.216-.241-.318-.365a3.752 3.752 0 0 0-.207-.228 1.736 1.736 0 0 1-.38-.502l.016-.004a.542.542 0 0 1 .138-.023c1.45.037 2.92-.03 4.34-.097.717-.033 1.458-.068 2.187-.088.102 0 .204.008.304.024l.095.013c-.024.463-.052.931-.08 1.384-.112 1.87-.228 3.802-.084 5.786l-.164-.113a7.41 7.41 0 0 0-.48-.313c-.953-.55-1.926-1.1-2.763-1.574-.141-.08-.257-.098-.354-.055-.094.04-.16.138-.196.288a.081.081 0 0 0 .014.067c.017.022.033.047.05.072.042.066.089.127.14.185a19.717 19.717 0 0 0 3.204 2.792c.322.223.639.335.956.335.342-.01.673-.125.948-.33.623-.428 1.283-.89 1.906-1.41a8.22 8.22 0 0 0 .883-.907l.247-.278a.813.813 0 0 0 .138-.254c.015-.037.03-.075.047-.11a.082.082 0 0 0-.026-.102c-.237-.173-.42-.087-.572.007-.609.377-1.218.752-1.827 1.127l-1.02.628.059-.664c.053-.606.103-1.177.146-1.755.03-.41.053-.829.075-1.233.022-.396.045-.806.074-1.208.024-.333.029-.67.034-.998-.004-.483.023-.967.08-1.447l.067-.027a.399.399 0 0 1 .127-.041c2.294-.052 4.56-.1 7.256-.155v.012l.002.036-.176.19a37.52 37.52 0 0 1-.49.523c-.57.59-1.011 1.271-1.405 1.92-.06.099-.116.216-.08.332a.308.308 0 0 0 .187.183.078.078 0 0 0 .048.005.7.7 0 0 1 .048-.006.327.327 0 0 0 .137-.037c1.204-.717 2.167-1.684 3.028-2.621.462-.503.477-1.11.042-1.664a34.816 34.816 0 0 0-1.794-2.12Z"></path>
</svg>