<svg width="46" height="46" fill="currentColor" viewBox="0 0 24 24" xmlns="http://www.w3.org/2000/svg">
  <path d="M18.187 2.727a18.63 18.63 0 0 0-2.254-.298c-.638-.056-1.18 0-1.66.168-.389.137-.67.39-.791.711-.12.318-.078.688.12 1.04l.05.097.001.003a1.327 1.327 0 0 0-.686.826c-.114.385-.033.736.25 1.071-.219.163-.442.368-.467.7a1.197 1.197 0 0 0 .202.757l-.29.02-.302.021c-.484.037-.984.076-1.482.127-.671.069-1.27.154-1.803.5-.293.19-.45.468-.431.765.018.295.209.552.521.703.208.096.432.152.66.165.563.037 1.216.075 1.859.069.72-.007 1.43-.03 2.188-.053l.825-.026-.007.01c-.05.072-.09.13-.129.189a2.67 2.67 0 0 0-.405 1.74c.04.425.233.705.577.83.133.05.274.077.417.079.23 0 .451-.084.625-.235.114-.1.22-.208.317-.324l.06-.068c.453-.503.883-.847 1.355-1.083.49-.244.978-.51 1.45-.766l.263-.142c.553-.3 1.239-.743 1.633-1.522.23-.456.453-.952.522-1.495.17-1.355-.146-2.464-.97-3.39-.528-.595-1.254-.984-2.218-1.189Zm-2.39 7.439c.229-.038.352-.175.338-.377-.014-.21-.164-.34-.413-.355a3.366 3.366 0 0 0-.38.006 3.82 3.82 0 0 1-.242.01h-1.277c-.011.001-1.078.073-1.347.07-.827-.014-1.683-.028-2.527-.05-.183 0-.365-.033-.536-.099-.12-.05-.191-.124-.194-.203-.002-.076.06-.15.17-.206.246-.133.514-.22.79-.259.569-.06 1.149-.097 1.71-.134a205.862 205.862 0 0 0 2.029-.147l.03-.002c.336 0 .414-.219.415-.303.002-.113-.042-.294-.173-.334l-.011-.003a3.457 3.457 0 0 1-.628-.24.353.353 0 0 1-.156-.454l.005-.01c.057-.112.111-.217.223-.255.147-.038.3-.052.453-.042h.115c.168 0 .399 0 .432-.277.03-.261-.182-.319-.326-.358l-.051-.014-.089-.026a2.373 2.373 0 0 1-.404-.142.478.478 0 0 1-.276-.298c-.03-.123.011-.265.118-.41a.706.706 0 0 1 .55-.282c.049-.003.1-.004.15-.004.106.005.213-.006.316-.032a.484.484 0 0 0 .295-.272c.036-.11-.08-.266-.16-.339a1.118 1.118 0 0 0-.223-.142 1.597 1.597 0 0 1-.136-.079c-.193-.13-.351-.256-.32-.49.028-.215.205-.288.41-.373.414-.17.88-.232 1.426-.188.58.047 1.16.129 1.756.215a4.247 4.247 0 0 1 1.69.656c.508.328.862.835 1.08 1.55.357 1.164.168 2.29-.56 3.349a1.359 1.359 0 0 1-.408.411 38.16 38.16 0 0 1-2.05 1.137c-.946.48-1.582.972-2.059 1.597a.822.822 0 0 1-.192.18.283.283 0 0 1-.24.063.299.299 0 0 1-.163-.202.865.865 0 0 1-.058-.296c.008-.551.362-1.425 1.099-1.547Z"></path>
  <path d="M14.764 13.884a2.05 2.05 0 0 0-.581-.126l-.08-.005c-.542-.033-1.102-.068-1.655-.063-.612.005-1.234.027-1.84.047l-.88.029c-.112.003-.223.002-.353.001h-.062a2.672 2.672 0 0 0 .547-1.897c-.035-.456-.226-.74-.585-.87-.408-.148-.77-.085-1.075.185-.097.09-.188.185-.273.286l-.07.08c-.45.502-.881.846-1.355 1.082-.583.29-1.16.597-1.713.912l-.125.07c-.392.22-.797.448-1.085.824-1.005 1.317-1.251 2.752-.73 4.264a3.34 3.34 0 0 0 1.362 1.772 4.55 4.55 0 0 0 1.823.707l.22.032c.585.084 1.189.17 1.787.22.181.014.346.021.505.021a3.37 3.37 0 0 0 1.276-.22 1.145 1.145 0 0 0 .609-1.688l-.074-.134a1.32 1.32 0 0 0 .688-.827c.112-.376.03-.734-.244-1.064.545-.483.604-.784.278-1.458l.563-.044c.515-.04 1-.077 1.495-.127.626-.064 1.232-.149 1.767-.478.257-.159.514-.373.462-.762a.9.9 0 0 0-.602-.77Zm-4.49 1.537a1.035 1.035 0 0 0-.342.05c-.108.043-.272.164-.284.292-.01.12.11.25.214.339a.445.445 0 0 0 .175.078c.036.008.07.02.103.036l.074.04c.13.064.252.142.365.233a.329.329 0 0 1 .132.3.321.321 0 0 1-.226.224 1.54 1.54 0 0 1-.406.066 4.642 4.642 0 0 0-.143.012.648.648 0 0 1-.105-.003.46.46 0 0 0-.198.013c-.095.035-.235.143-.235.247a.396.396 0 0 0 .183.32c.101.045.206.08.314.104.08.02.16.043.238.072.254.101.419.186.404.442a.62.62 0 0 1-.462.562 2.15 2.15 0 0 1-.391.045 5.281 5.281 0 0 0-.17.01c-.174.016-.365.05-.418.279-.055.237.125.34.257.416l.067.038c.087.047.171.1.252.157.2.147.3.307.282.45-.017.14-.146.264-.363.352-.218.1-.451.163-.69.185-1.606.065-2.8-.131-3.871-.634-.676-.317-1.135-.848-1.404-1.623-.446-1.29-.242-2.498.607-3.59.226-.29.585-.495.933-.694l.137-.078c.356-.206.732-.395 1.096-.579.203-.101.412-.207.62-.316a4.92 4.92 0 0 0 1.52-1.227l.01-.014c.077-.1.164-.193.26-.277a.39.39 0 0 1 .23-.105c.015 0 .03.002.045.006.074.02.136.098.18.223.026.07.042.145.048.22.022.569-.35 1.466-1.079 1.6-.328.061-.373.255-.354.408.015.118.092.318.432.332.15.007.3-.001.452-.01l.212-.01c.25-.007.5-.016.75-.026h.018a48.958 48.958 0 0 1 1.786-.047c.87 0 1.778.032 2.58.061l.138.005c.282.01.484.072.55.336-.136.215-.365.29-.551.33-.385.09-.776.151-1.17.185-.609.046-1.23.08-1.835.112l-.88.05-.087.003Z"></path>
</svg>