<svg width="46" height="46" fill="currentColor" viewBox="0 0 24 24" xmlns="http://www.w3.org/2000/svg">
  <path d="M7.775 13.923c-.191-.09-.389-.183-.574-.285a.797.797 0 0 0-.355-.067c-1.352-.038-2.455.467-3.283 1.5-.768.959-1.052 2.107-.845 3.412.255 1.61 1.292 2.648 2.847 2.85.182.023.367.035.55.035a5.106 5.106 0 0 0 1.928-.405c1.654-.669 2.6-2.498 2.2-4.254a2.784 2.784 0 0 1-.066-.548c-.037-1.486-.069-2.997-.1-4.458l-.004-.19c-.003-.137-.002-.275-.002-.408l.001-.132c3.053-1.174 6.306-2.265 9.94-3.333l.111 3.427-.107-.018a.95.95 0 0 1-.314-.082c-.898-.506-1.928-.633-3.148-.388-1.34.268-2.25.963-2.706 2.065-.739 1.782-.513 3.497.653 4.957.897 1.124 2.077 1.566 3.41 1.278 1.07-.231 1.974-.799 2.69-1.687.324-.404.547-.88.65-1.388a7.441 7.441 0 0 0-.046-3.15 2.114 2.114 0 0 1-.066-.5c.01-.408.027-.822.042-1.223.027-.682.055-1.386.055-2.08 0-1.342-.03-2.705-.057-4.023l-.02-.956a5.658 5.658 0 0 0-.084-.78c-.046-.287-.205-.453-.434-.458l-.041-.001c-.303-.007-.616-.014-.907.066-.871.238-1.791.516-2.735.825-1.028.336-2.06.712-3.058 1.076-1.447.528-2.944 1.073-4.45 1.505a.66.66 0 0 0-.328.169l-.014.017c-.123.143-.262.304-.287.486a5.908 5.908 0 0 0-.044 1.154c.094 1.589.197 3.204.297 4.766l.128 1.991c.004.061.003.123.002.188-.39-.466-.918-.714-1.43-.953ZM8.81 16.04c.47.676.58 1.61.283 2.435a2.44 2.44 0 0 1-1.639 1.557c-.308.086-.63.152-.94.216-.143.029-.286.058-.429.09-1.292-.063-2.113-.785-2.31-2.036-.227-1.434.306-3.309 2.552-3.876.104-.027.211-.041.319-.042.21 0 .416.064.589.183.706.474 1.207.942 1.575 1.473Zm1.463-6.312c-.092.036-.183.072-.276.104l-.02-.003-.105-2.478 10.133-3.645v3.18c-3.473.519-6.701 1.661-9.675 2.82l-.057.022Zm9.896 3.973.001.154a.082.082 0 0 0 .056.078c-.017.15-.032.304-.046.452a7.737 7.737 0 0 1-.164 1.144c-.312 1.25-1.877 2.31-3.16 2.138-.768-.102-1.392-.563-1.804-1.334-.581-1.086-.66-2.186-.233-3.27.203-.55.611-1 1.138-1.255a4.009 4.009 0 0 1 1.758-.434c.363 0 .724.059 1.069.173.721.237 1.45.638 1.387 1.815a5.22 5.22 0 0 0-.002.34Z"></path>
</svg>