<svg width="46" height="46" fill="currentColor" viewBox="0 0 24 24" xmlns="http://www.w3.org/2000/svg">
  <path d="M4.764 20.972c.466.355 1.032.55 1.615.555a2.98 2.98 0 0 0 1.269-.3c.91-.427 1.373-1.196 1.378-2.285a36.953 36.953 0 0 0 .004-.575v-1.722l.001-4.43a.71.71 0 0 1 .006-.092c.116-.047.23-.09.34-.132a6.15 6.15 0 0 0 .736-.314c1.256-.673 2.53-1.362 3.762-2.029 1.204-.65 2.45-1.323 3.676-1.981.368-.197.74-.37 1.135-.552.144-.066.289-.133.434-.202v6.738l-.112-.092a4.648 4.648 0 0 0-.502-.38c-.703-.437-1.437-.45-2.122-.037-.902.543-1.437 1.396-1.546 2.466-.136 1.322.588 2.38 1.8 2.633 1.172.245 2.292-.1 3.07-.947.726-.79 1.015-1.856.756-2.783a1.287 1.287 0 0 1-.028-.344v-.082l-.024-3.247c-.018-2.31-.036-4.619-.056-6.928a3.422 3.422 0 0 0-.099-.873c-.052-.186-.216-.418-.393-.47-.357-.104-.781-.178-1.225.065a87.52 87.52 0 0 1-3.388 1.75c-2.657 1.304-4.748 2.463-6.578 3.647-.144.093-.305.31-.315.499-.1 1.896-.19 3.894-.268 5.939-.017.452-.013.907-.009 1.388l.005.593-.126-.05a6.69 6.69 0 0 1-.305-.127 6.478 6.478 0 0 1-.282-.139 3.347 3.347 0 0 0-.574-.252c-1.056-.311-1.901-.123-2.513.56a3.139 3.139 0 0 0-.73 2.37 3.144 3.144 0 0 0 1.207 2.162h.001Zm3.322-2.449c.001.056.002.109-.001.162-.062 1.062-.53 1.606-1.52 1.765-.792.127-1.625-.41-1.937-1.249-.27-.73-.173-1.454.291-2.148.23-.342.565-.508 1.042-.508.412.002.818.102 1.186.29.765.376 1.063.882.94 1.595l-.002.014.001.08Zm.98-7.264V8.601l10.117-5.099v2.095L9.066 11.26Zm10.132 4.894c-.17.431-.564.662-.864.78-.246.096-.507.17-.76.242-.11.03-.22.062-.329.095-.907-.072-1.479-.702-1.425-1.57a2.374 2.374 0 0 1 .928-1.762c.207-.174.467-.271.737-.275.177 0 .352.044.511.124.828.408 1.205.907 1.22 1.618.003.07.008.142.013.214.014.188.028.384-.031.534Z"></path>
</svg>