<svg width="46" height="46" fill="currentColor" viewBox="0 0 24 24" xmlns="http://www.w3.org/2000/svg">
  <path d="M3.084 16.492c.164.045.333.069.504.069.75-.004 1.63-.046 2.496-.326l.2.135c.161.109.314.212.472.308 1.898 1.15 3.93 2.029 6.197 2.977a.54.54 0 0 0 .204.048.256.256 0 0 0 .135-.036c.085-.052.132-.153.143-.31a1.16 1.16 0 0 1 .036-.25c.425-1.402.67-2.561.773-3.649.039-.417.087-.84.133-1.25.082-.725.167-1.475.206-2.216.11-2.038-.031-4.102-.168-6.098l-.05-.744a2.354 2.354 0 0 0-.094-.536.462.462 0 0 0-.239-.299.51.51 0 0 0-.415.013 7.78 7.78 0 0 1-.348.134c-.11.042-.221.083-.33.127-.147.06-.294.118-.441.176-.39.154-.791.313-1.175.497-.59.281-1.196.602-1.802.953a318.54 318.54 0 0 0-2.793 1.644l-1.16.688a1.6 1.6 0 0 0-.15.002l-.574.033c-.48.026-.976.052-1.462.103-.449.047-.678.28-.743.757-.018.15-.028.302-.03.453L2.538 13.7 2.5 15.68a.78.78 0 0 0 .584.81Zm9.694 1.972c.008.072.013.145.018.23-.83-.642-1.762-1.35-2.782-1.881-.711-.371-1.423-.75-2.112-1.115l-.84-.446.02-.944c.02-.747.037-1.453.025-2.17-.012-.72-.052-1.426-.094-2.173-.017-.311-.035-.626-.05-.944a1.65 1.65 0 0 1 .139-.091l1.522-.854c1.174-.66 2.389-1.34 3.578-2.02.281-.169.553-.352.814-.55.09-.066.181-.133.275-.2.004.045.006.09.005.135l-.063 1.68a287.38 287.38 0 0 1-.176 4.263c-.073 1.43-.179 2.981-.332 4.884a11.85 11.85 0 0 0 .053 2.196Zm-6.76-3.426-.01.005a.257.257 0 0 1-.099.046c-.582.005-1.175.004-1.748.002h-.325a.26.26 0 0 1-.039-.008l-.004-.001a1.289 1.289 0 0 1-.03-.226l-.03-1.494a646.55 646.55 0 0 0-.042-2.107c-.006-.265-.022-.533-.037-.793a38.6 38.6 0 0 1-.024-.46c-.004-.078-.003-.158-.002-.242v-.052l2.264-.134c-.092 1.634-.143 3.55.126 5.464Z"></path>
  <path d="M21.387 13.674c-.369-.432-.75-.865-1.119-1.284L20 12.086a4.656 4.656 0 0 0-.165-.176l.165-.177a125.964 125.964 0 0 0 .667-.724c.195-.21.398-.429.585-.654.3-.361.342-.691.118-.907-.13-.124-.418-.266-.897.177-.082.076-.163.155-.243.234-.046.045-.091.09-.138.134l-1.177 1.13a3.326 3.326 0 0 1-.22-.173c-.214-.184-.428-.37-.64-.556-.328-.286-.657-.57-.986-.855a3.122 3.122 0 0 0-.464-.35.593.593 0 0 0-.739.08c-.166.18-.178.44-.03.696a1.9 1.9 0 0 0 .27.377c.33.343.767.795 1.225 1.243.136.134.285.256.442.385l.154.126-.02.015c-.06.04-.114.087-.164.138-.595.658-1.196 1.33-1.78 1.979l-.117.131a.316.316 0 0 0-.104.27c.018.088.088.16.214.22a.083.083 0 0 0 .073-.002c1.012-.523 1.866-1.253 2.791-2.084l.147.104c.7.494 1.385.978 2.07 1.464.013.01.025.02.036.031a.26.26 0 0 0 .125.078l.012.002c.104.02.233.045.316-.018a.347.347 0 0 0 .09-.338c-.05-.15-.128-.29-.23-.412Z"></path>
</svg>