<svg width="46" height="46" fill="currentColor" viewBox="0 0 24 24" xmlns="http://www.w3.org/2000/svg">
  <path d="M18.069 19.432c-.14-.68-.284-1.382-.485-2.057-.792-2.663-1.746-5.75-3.06-8.68-.328-.734-.62-1.5-.904-2.241-.126-.33-.256-.672-.388-1.007l-.285-.726c-.16-.408-.324-.83-.49-1.243-.186-.465-.513-.658-.998-.592a.08.08 0 0 0-.057.036l-.093.135c-.08.106-.148.22-.204.339l-.094.211c-.185.4-.349.81-.49 1.229A97.27 97.27 0 0 0 9.49 8.27c-.115.408-.228.816-.34 1.224-.843 3.043-1.714 6.19-2.861 9.193-.134.35-.234.719-.33 1.074l-.028.102a1.57 1.57 0 0 0 .009.933.57.57 0 0 0 .323.353.495.495 0 0 0 .18.034.544.544 0 0 0 .263-.07c.172-.1.334-.215.487-.342l.051-.041 1.589-1.256c.723-.573 1.447-1.145 2.172-1.716.154-.122.316-.234.488-.353l.213-.15c.102.06.203.117.303.174.249.141.484.275.712.423.648.422 1.333.879 2.091 1.398.903.616 1.903 1.036 2.768 1.38.094.034.19.058.288.073.063.011.134.024.22.043a.08.08 0 0 0 .065-.014.08.08 0 0 0 .033-.059c.007-.08.016-.15.025-.211.02-.1.024-.202.01-.303a58.562 58.562 0 0 1-.153-.727Zm-1.722-1.029a6.605 6.605 0 0 1-.222-.157c-.198-.15-.395-.301-.592-.453-.42-.323-.854-.658-1.3-.962a15.28 15.28 0 0 0-1.683-.995c-.658-.334-1.245-.222-1.848.355-.704.673-1.463 1.314-2.197 1.933-.29.244-.578.489-.866.735a.255.255 0 0 1-.07.021h-.002l-.004-.021a.352.352 0 0 1-.01-.068C8.83 15.358 9.74 11.9 10.705 8.239c.296-1.124.602-2.283.917-3.434.185.444.33.904.431 1.375.073.294.141.572.235.85l.26.78c.17.505.343 1.027.52 1.538.157.454.321.912.48 1.356.114.316.226.633.338.95.117.33.233.663.347.995.15.431.304.877.46 1.314.283.793.565 1.567.838 2.3.194.52.394 1.04.606 1.592l.21.548Z"></path>
</svg>