<svg width="46" height="46" fill="currentColor" viewBox="0 0 24 24" xmlns="http://www.w3.org/2000/svg">
  <path d="M12.477 12.273c-1.332 0-2.648.027-3.962-.008-1.287-.034-2.574-.121-3.86-.207a7.42 7.42 0 0 1-1.08-.191 1.195 1.195 0 0 1-.408-.176c-.29-.199-.269-.547.033-.727.035-.02.072-.038.108-.056 2.955-1.46 5.903-2.935 8.868-4.374 2.22-1.079 4.46-2.116 6.696-3.16.454-.213.922-.396 1.394-.563.541-.192.903.1.816.667-.096.63-.233 1.255-.354 1.882-.534 2.746-1.044 5.498-1.613 8.237-.276 1.327-.668 2.63-.996 3.947-.193.777-.343 1.565-.554 2.337-.121.401-.28.79-.474 1.162-.13.265-.305.286-.578.16-.592-.274-.955-.755-1.184-1.34-.665-1.692-1.449-3.336-1.987-5.079-.261-.842-.573-1.667-.865-2.51Zm7.415-8.264C14.75 6.248 9.785 8.708 4.787 11.11c.13.042.267.064.404.067 1.602.008 3.203.028 4.805.014.909-.008 1.817-.077 2.726-.11.37-.014.635.17.663.515.041.502.243.945.43 1.394.852 2.057 1.709 4.112 2.57 6.165a.651.651 0 0 0 .068.11c1.459-4.982 2.54-10.06 3.44-15.255Z"></path>
</svg>