<svg width="46" height="46" fill="currentColor" viewBox="0 0 24 24" xmlns="http://www.w3.org/2000/svg">
  <path d="M17.444 15.693c.48-.029.965-.03 1.44-.095.391-.054.772-.183 1.157-.281.186-.047.369-.115.558-.145.276-.044.524.031.686.274.152.23.115.466 0 .705-.59 1.238-1.528 2.174-2.613 2.968-1.329.972-2.852 1.466-4.47 1.664-1.495.182-2.992.189-4.473-.14-2.144-.478-3.993-1.462-5.364-3.222-1.348-1.729-1.867-3.705-1.677-5.875A11.24 11.24 0 0 1 4.711 6c.667-.953 1.461-1.789 2.461-2.407.377-.233.77-.426 1.225-.45.472-.024.636.21.427.635-.298.606-.554 1.225-.679 1.893-.172.92-.113 1.83.094 2.74.445 1.957 1.298 3.698 2.718 5.137a6.786 6.786 0 0 0 4.223 2.031c.751.08 1.507.111 2.26.165l.004-.05Zm1.617 1.391-.06-.099c-.218.011-.437.012-.654.034a14.84 14.84 0 0 1-2.882-.016c-2.486-.233-4.508-1.322-6.064-3.267A11.686 11.686 0 0 1 7.078 8.7c-.276-1.364-.265-2.7.242-4.013.01-.026-.014-.066-.03-.132-.175.154-.336.281-.481.426-1.992 1.989-3.002 4.401-3.05 7.206-.033 1.876.566 3.531 1.856 4.921 1.146 1.235 2.587 1.93 4.201 2.292 1.578.354 3.17.322 4.755.06 1.278-.211 2.466-.666 3.494-1.472.352-.275.665-.6.996-.903Z"></path>
</svg>