<svg width="46" height="46" fill="currentColor" viewBox="0 0 24 24" xmlns="http://www.w3.org/2000/svg">
  <path d="M11.795 16.98v-2.081c-.297-.034-.626-.05-.945-.11-1.873-.354-3.045-1.59-3.433-3.54-.27-1.351-.026-2.593.688-3.753.288-.467.71-.798 1.17-1.084.104-.064.21-.124.355-.21-.192-.086-.348-.15-.5-.223-.695-.338-1.285-.794-1.65-1.495a1.468 1.468 0 0 1-.147-.38c-.04-.202-.005-.396.208-.488.205-.088.377-.011.51.156.059.076.112.156.16.24.303.497.759.884 1.299 1.103a5.434 5.434 0 0 0 2.204.448c.651-.006 1.286-.057 1.898-.307.53-.205.972-.59 1.248-1.086.108-.19.236-.37.383-.532.143-.158.328-.248.555-.148.238.105.259.306.223.519a2.08 2.08 0 0 1-.138.511c-.232.514-.61.909-1.067 1.232-.122.087-.246.17-.376.26 2.11 1.296 2.851 4.31 1.7 6.714-.548 1.143-1.504 1.75-2.717 1.997-.24.049-.483.088-.764.14l.086 2.107c.374-.036.71-.07 1.047-.098.162-.02.326-.026.49-.015a.422.422 0 0 1 .408.396.435.435 0 0 1-.306.485 1.79 1.79 0 0 1-.524.08c-.34.01-.682.003-1.05.003.025.521.051.998.071 1.476.01.22.018.44.007.659a1.15 1.15 0 0 1-.085.356.424.424 0 0 1-.407.295.419.419 0 0 1-.415-.285 1.646 1.646 0 0 1-.108-.478c-.035-.534-.053-1.07-.079-1.606-.005-.12-.016-.24-.027-.416-.359 0-.699.005-1.038-.003a2.01 2.01 0 0 1-.45-.051.387.387 0 0 1-.313-.425c.02-.2.147-.312.405-.32.384-.01.77-.003 1.155-.007.09-.007.18-.02.269-.036Zm.139-2.89c.465-.082 1.025-.148 1.57-.28.924-.228 1.525-.829 1.845-1.722.269-.767.35-1.589.237-2.394-.2-1.59-1.173-2.702-2.715-3.017-1.08-.221-2.149-.207-3.136.41-.513.321-.923.718-1.199 1.267-.622 1.24-.508 2.479-.01 3.709.418 1.028 1.196 1.66 2.287 1.88.336.067.68.09 1.12.146Z"></path>
</svg>