<svg width="46" height="46" fill="currentColor" viewBox="0 0 24 24" xmlns="http://www.w3.org/2000/svg">
  <path d="M2.727 11.809c0-1.774.005-3.549-.003-5.323-.002-.504-.046-1.008-.062-1.512-.04-1.332.872-2.31 2.29-2.337 2.953-.059 5.907-.186 8.862-.085.313.011.627-.01.94.003a2.3 2.3 0 0 1 .559.092.387.387 0 0 1 .278.368c.012.18-.053.34-.214.407-.2.083-.41.14-.623.17a3.08 3.08 0 0 1-.57.001c-2.465-.106-4.93-.093-7.394-.049a17.72 17.72 0 0 0-1.99.159c-.412.054-.79.24-.95.677-.072.175-.11.362-.115.552.019.722.063 1.443.098 2.165.012.245.036.49.039.735.025 2.239.058 4.477.064 6.715.004 1.392-.042 2.784-.05 4.176.01.367.039.734.088 1.099.025.246.162.396.418.422.082.008.162.036.243.036.761 0 1.523.01 2.284-.008.966-.022 1.932-.09 2.898-.097 2.356-.016 4.712-.014 7.068-.007.667.002 1.334.046 2 .068a1.094 1.094 0 0 0 1.121-.774.867.867 0 0 0 .043-.276c-.009-.723-.07-1.447-.028-2.166.143-2.496.142-4.993.142-7.49 0-.26.003-.52.018-.778.007-.15.03-.299.071-.443a.398.398 0 0 1 .356-.296c.191-.022.368.027.45.208.082.17.134.354.154.543.06.83.101 1.661.148 2.492.144 2.608-.003 5.212-.08 7.817a3.003 3.003 0 0 1-.15.8 1.797 1.797 0 0 1-1.101 1.184 4.29 4.29 0 0 1-1.595.292c-1.756-.004-3.513.001-5.27 0-.666-.002-1.334-.029-2-.017-1.58.028-3.158.076-4.737.109-.64.013-1.28.028-1.92.005-1.015-.036-1.66-.707-1.673-1.738-.034-2.633-.057-5.266-.084-7.899h-.023Z"></path>
  <path d="M10.085 13.845c.013-.12.038-.237.073-.352.202-.563.406-1.126.632-1.68.088-.2.206-.385.35-.55 2.317-2.754 4.672-5.476 7.23-8.013.105-.107.216-.208.333-.301.333-.254.68-.262 1.012-.007.203.161.395.334.576.52.32.316.628.643.943.963.281.286.214.645-.002.883-.175.19-.361.37-.546.552-2.144 2.116-4.31 4.212-6.42 6.36a8.811 8.811 0 0 1-2.048 1.582c-.37.204-.75.387-1.127.575-.097.05-.199.09-.304.118-.456.117-.717-.092-.702-.65Zm2.925-1.623 5.56-5.768-.843-1.264-5.69 6.14.973.892Zm5.406-7.668 1.013 1.024.783-.696-.973-1.143-.823.815Zm-6.87 7.589-.254.591.308.345.47-.275-.524-.661Z"></path>
</svg>