<svg width="46" height="46" fill="currentColor" viewBox="0 0 24 24" xmlns="http://www.w3.org/2000/svg">
  <path d="M12.092 7.792c.03-.074.05-.1.05-.124-.005-.477.052-.547.536-.544a1.14 1.14 0 0 0 .684-.245c.235-.166.344-.383.293-.674a.855.855 0 0 1-.023-.285c.061-.356.476-.551.754-.317.322.27.667.205 1.016.176a.58.58 0 0 0 .46-.306c.322-.525.696-.544 1.047-.044.247.354.627.36.98.446.133.032.275.024.407.057.32.08.405.193.422.518.025.468.1.56.55.66.135.03.272.05.403.088.39.113.533.443.349.802a.749.749 0 0 1-.165.235c-.293.245-.271.539-.172.863a1.2 1.2 0 0 1 .064.479c-.033.266-.138.343-.407.378-.258.035-.258.035-.396.159.101.709.212 1.397.294 2.09.088.734.158 1.472.216 2.21.045.574.057 2.124.09 2.7.034.62-.24.902-.79 1.177a4.092 4.092 0 0 1-1.712.401c-1.386.049-2.774.065-4.16.093-1.47.03-2.94.053-4.409.085-.96.021-1.921.066-2.882.074-.865.008-1.25-.311-1.455-1.15-.176-.722-.301-2.276-.31-3.022-.014-1.428-.046-2.856-.055-4.284 0-.425.024-.85.073-1.273.09-.811.576-1.2 1.4-1.284 2.14-.216 4.283-.112 6.425-.139.148-.002.295 0 .423 0Zm5.922 3.805c-.5-.133-.78-.034-1.089.403-.349.494-.773.477-1.072.06a.435.435 0 0 0-.517-.158c-.144.05-.279.125-.399.22-.188.168-.385.269-.635.199-.267-.075-.258-.324-.314-.531-.044-.166-.094-.33-.16-.557-.22.108-.392.18-.553.272-.203.116-.4.114-.575-.033a.47.47 0 0 1-.145-.558c.046-.128.084-.261.13-.39a.643.643 0 0 0-.081-.65c-.237.045-.491.053-.666-.165-.183-.228-.075-.484.005-.756-2.137.033-4.24-.072-6.36.15a.526.526 0 0 0-.477.5v.004c-.029 1.245-.063 2.491-.072 3.737-.007.68.021 1.359.085 2.035.03.324.059 1.018.144 1.576a.776.776 0 0 0 .783.655h.006c1.483-.027 2.965-.069 4.449-.081 2.075-.017 4.15-.006 6.226-.025.408-.004.817-.086 1.222-.152a.474.474 0 0 0 .396-.502c-.111-1.589-.22-3.774-.331-5.253Zm-3.118-.694c.457-.186.884-.198 1.312-.015a.284.284 0 0 0 .231-.038c.386-.276.841-.44 1.314-.474.074-.555.33-.978.722-1.222V8.11c-.208-.184-.42-.325-.568-.516-.155-.2-.248-.449-.37-.679-.257-.075-.538-.118-.779-.239-.315-.157-.6-.246-.916-.021a.626.626 0 0 1-.276.072c-.338.042-.676.078-1.04.12-.197.515-.637.794-1.07 1.028l-.224 1.092c.446.288.52.766.56 1.267.485.048.891.192 1.104.67Z"></path>
  <path d="M8.675 12.235c1.139 0 2.278-.009 3.417.006.288.01.573.055.85.13.275.069.409.262.406.5a.521.521 0 0 1-.448.516 3.842 3.842 0 0 1-.695.075c-.933.011-1.866.01-2.799.014-.399.001-.798-.007-1.197.006-.466.016-.931.06-1.397.073a1.987 1.987 0 0 1-.608-.06.538.538 0 0 1-.374-.536c.022-.217.157-.378.433-.432.403-.08.811-.145 1.22-.186.396-.04.795-.043 1.192-.061v-.045Z"></path>
  <path d="M8.346 11.45c-.616-.034-1.232-.066-1.847-.104-.094-.006-.214-.014-.272-.072-.099-.098-.219-.237-.216-.357.002-.12.124-.26.23-.347.073-.06.207-.06.315-.064.781-.032 1.562-.056 2.343-.088.178-.007.355-.03.532-.046.054-.01.109-.016.164-.02.353.003.65.217.676.484.024.248-.156.437-.529.532a3.225 3.225 0 0 1-.447.054h-.948l-.001.028Z"></path>
  <path d="M15.1 15.333c-.38-.034-.762-.061-1.141-.108a.446.446 0 0 1-.286-.136c-.072-.1-.136-.257-.106-.363.029-.105.166-.208.28-.252.135-.053.295-.047.445-.058.559-.042 1.118-.085 1.678-.117.123.001.245.018.363.052a.38.38 0 0 1 .316.38c.011.211-.076.385-.286.448a3.02 3.02 0 0 1-.602.117c-.217.02-.438.005-.658.005l-.002.032Z"></path>
  <path d="M14.743 9.389c.044-.077.096-.246.208-.35.461-.431.936-.847 1.417-1.254a.781.781 0 0 1 .378-.15.472.472 0 0 1 .507.667c-.07.148-.174.278-.301.381-.46.37-.93.726-1.4 1.082a.815.815 0 0 1-.253.134c-.29.087-.562-.126-.556-.51Z"></path>
  <path d="M15.646 7.685c.011.271-.279.584-.538.58-.236-.004-.507-.277-.51-.514-.003-.277.275-.606.516-.609.246-.003.522.278.532.543Z"></path>
  <path d="M16.58 9.525c-.02-.279.242-.565.53-.578a.524.524 0 0 1 .518.481.603.603 0 0 1-.493.575.507.507 0 0 1-.555-.478Z"></path>
</svg>