<svg width="46" height="46" fill="currentColor" viewBox="0 0 24 24" xmlns="http://www.w3.org/2000/svg">
  <path d="M19.845 6.534c-.264-.19-.637-.2-1.023-.03a3.947 3.947 0 0 0-.78.475C17.41 7.458 16.872 8.1 16.35 9l-.14.235-.002.003a6.755 6.755 0 0 1-.008-.772l.006-.247.007-.371c.01-.635.023-1.292.005-1.938-.015-.58-.125-1.056-.336-1.453-.168-.318-.41-.522-.697-.59-.288-.068-.594.007-.887.216a2.5 2.5 0 0 0-.29.254l-.09.086-.014-.092a2.659 2.659 0 0 0-.056-.314 5.4 5.4 0 0 1-.043-.172 3.156 3.156 0 0 0-.2-.618c-.171-.353-.432-.58-.736-.636-.311-.06-.649.062-.95.341-.43.398-.61.93-.719 1.347-.32 1.225-.42 2.464-.509 3.842-.03.477-.043.951-.056 1.453l-.018.635-.072-.04c-.07-.038-.124-.068-.18-.095-.505-.25-1.114-.5-1.795-.462l-.083.004a5.876 5.876 0 0 0-.947.103c-1.223.27-2.082 1.002-2.552 2.175-.144.359-.14.695.013.971.155.283.459.48.855.554.378.073.771.002 1.1-.2l.24-.148c.094-.06.19-.119.286-.176.496-.292 1.03-.328 1.588-.106a1.447 1.447 0 0 1 .824.869 1.403 1.403 0 0 1-.09 1.157 2.594 2.594 0 0 1-.472.6 1.407 1.407 0 0 1-1.836.123 5.43 5.43 0 0 1-.631-.59c-.092-.095-.186-.193-.282-.286a8.523 8.523 0 0 1-.231-.237 3.846 3.846 0 0 0-.547-.504c-.403-.285-.878-.344-1.273-.159-.394.185-.65.587-.688 1.075-.022.319-.003.639.056.952.123.692.436 1.32.773 1.957.718 1.358 1.697 2.317 2.908 2.854 1.16.513 2.317.77 3.463.77a7.761 7.761 0 0 0 2.314-.356c1.387-.432 2.365-1.346 2.907-2.716.374-.947.61-1.998.723-3.215.079-.851.16-1.615.247-2.334.016-.198.076-.39.177-.562.31-.464.633-.932.945-1.383.287-.415.583-.844.869-1.27.276-.411.53-.838.758-1.278a2.09 2.09 0 0 0 .22-.76c.037-.423-.094-.774-.358-.963Zm-9.225 8.818c.388-.592.431-1.333.118-2.033-.35-.782-1.069-1.36-1.83-1.475-.74-.111-1.383.012-1.966.377-.045.028-.089.059-.133.089a1.617 1.617 0 0 1-.318.184 1.134 1.134 0 0 1-.493.086c-.137-.015-.23-.058-.277-.128-.05-.075-.052-.19-.007-.342.196-.646.632-1.123 1.298-1.417.881-.39 1.704-.394 2.515-.013l.043.02c.41.193.799.375 1.036.785.122.212.323.3.537.234.265-.08.278-.324.287-.503.02-.387.038-.775.056-1.163.04-.887.082-1.804.152-2.703.07-.897.184-1.953.499-2.995.078-.245.186-.479.32-.697a.748.748 0 0 1 .199-.192c.027-.02.055-.042.08-.063.206.146.237.339.253.557l.032.393c.057.55.08 1.104.071 1.658a126.313 126.313 0 0 1-.186 3.34l-.078 1.227a2.069 2.069 0 0 1-.026.204 2.978 2.978 0 0 0-.022.162c-.035.353.086.597.323.653a.353.353 0 0 0 .282-.056.693.693 0 0 0 .263-.473c.058-.36.099-.75.126-1.192.048-.805.091-1.624.133-2.416l.053-1c.029-.544.247-1.045.667-1.534.127-.147.241-.214.332-.193.087.02.158.123.205.298.101.352.157.716.165 1.083.001.85-.032 1.714-.065 2.55l-.007.168c-.017.455-.044.916-.069 1.364l-.044.818c-.006.112-.002.225.012.336a.382.382 0 0 0 .307.357c.188.04.335-.036.448-.23.387-.666.795-1.359 1.21-2.058.468-.79.949-1.348 1.512-1.757.136-.094.277-.181.422-.26l.177-.102.069.047a5.14 5.14 0 0 0-.05.163 1.843 1.843 0 0 1-.151.398c-.263.455-.55.889-.77 1.215l-.065.098a64.538 64.538 0 0 1-1.292 1.87c-.584.804-.787 1.703-.913 2.805-.132 1.16-.282 2.474-.71 3.704-.466 1.34-1.4 2.15-2.777 2.41a7.707 7.707 0 0 1-4.2-.356c-1.157-.435-2.07-1.253-2.715-2.43-.345-.631-.665-1.257-.774-1.97a1.682 1.682 0 0 1-.008-.478.173.173 0 0 1 .083-.14.12.12 0 0 1 .052-.012.215.215 0 0 1 .107.033c.124.077.238.17.337.278l.053.056c.217.225.441.457.64.703.373.461.878.796 1.545 1.022.737.249 1.461.114 2.096-.391.363-.29.648-.694.83-.973Z"></path>
</svg>