<svg width="46" height="46" fill="currentColor" viewBox="0 0 24 24" xmlns="http://www.w3.org/2000/svg">
  <path d="m16.116 11.574 1.828.108a3.798 3.798 0 0 0-.214-.318c-.196-.23-.403-.45-.598-.681-.245-.29-.266-.524-.073-.686.186-.156.42-.1.676.175.253.271.497.552.75.822.292.311.587.618.887.921.322.325.358.536.075.899-.388.498-.798.98-1.207 1.461a.703.703 0 0 1-.27.18.462.462 0 0 1-.56-.135.443.443 0 0 1-.045-.54 1.93 1.93 0 0 1 .298-.333c.24-.24.485-.474.801-.783-.836-.127-1.57-.14-2.348-.172-.017.155-.021.287-.047.415-.03.188-.078.373-.14.553a.486.486 0 0 1-.899-.05 2.355 2.355 0 0 1-.073-.524c.004-.149.02-.297.044-.443l-1.01-.064c-.049.171-.09.326-.135.48-.583 1.947-1.88 3.19-3.795 3.795a3.174 3.174 0 0 1-2.449-.207 6.31 6.31 0 0 1-2.79-2.72c-.648-1.22-.614-2.466.004-3.683.796-1.564 2.037-2.567 3.797-2.867.176-.033.355-.043.533-.03a5.365 5.365 0 0 1 2.711.986 5.553 5.553 0 0 1 1.762 2.086c.195.388.314.814.497 1.3.226.009.523.024.82.03.16.005.202-.11.221-.243.028-.19.047-.383.09-.57.072-.322.26-.496.482-.467.216.028.355.208.373.522.015.244.004.489.004.783Zm-10.944.348c-.001.611.196 1.16.51 1.673.47.765 1.115 1.354 1.865 1.832.803.512 1.645.565 2.519.198.844-.354 1.559-.884 2.073-1.639 1.032-1.514 1.022-2.715.175-3.979-.038-.057-.068-.12-.107-.176-.577-.858-1.313-1.515-2.347-1.745-.382-.085-.796-.146-1.178-.094-1.984.267-3.2 2.069-3.465 3.438a4.817 4.817 0 0 0-.045.491Z"></path>
</svg>