<svg width="46" height="46" fill="currentColor" viewBox="0 0 24 24" xmlns="http://www.w3.org/2000/svg">
  <path d="M20.231 11.094c-.228-.619-.783-.954-1.45-.876a2.432 2.432 0 0 0-.612.187c-.081.032-.165.066-.25.096a1.524 1.524 0 0 0-1.06-.902c-.562-.147-1.022-.023-1.37.37-.576-.81-1.095-.906-1.944-.358l-.03-.475c-.026-.394-.05-.766-.086-1.14a64.142 64.142 0 0 0-.276-2.414 2.736 2.736 0 0 0-.508-1.225c-.327-.458-.783-.556-1.283-.277a1.182 1.182 0 0 0-.582.755 2.94 2.94 0 0 0-.102.574l-.027.416c-.035.512-.071 1.04-.068 1.562.006 1.006.03 2.028.053 3.017.01.422.02.845.028 1.268.002.058.001.115 0 .187v.044l-.02-.018c-.05-.043-.089-.078-.13-.11-.792-.605-1.662-.828-2.588-.662a1.19 1.19 0 0 0-.93.734 1.278 1.278 0 0 0 .207 1.238c.085.105.18.201.283.288.075.066.146.135.214.207.109.122.223.243.333.36.309.31.59.645.842 1.002.255.405.488.824.696 1.256.116.229.237.466.362.695l.073.134c.288.525.585 1.068.914 1.58.18.263.402.496.657.689.46.355.971.64 1.516.846.608.246 1.26.373 1.916.372a5.998 5.998 0 0 0 2.097-.399c.465-.173.884-.47 1.308-.785.738-.547 1.24-1.351 1.58-2.531a13.72 13.72 0 0 0 .524-4.414 4.339 4.339 0 0 0-.287-1.291Zm-12.45.902c.086-.26.332-.303.57-.303h.04c.876.015 1.53.34 1.941.968.078.134.134.279.17.43.012.044.024.089.038.131.054.176.143.357.39.38.199.017.371-.134.438-.386.027-.11.04-.223.037-.336-.016-.892-.037-1.863-.062-2.968a55.785 55.785 0 0 0-.023-.708c-.017-.47-.035-.957-.026-1.434.015-.733.064-1.478.111-2.198l.02-.31c.02-.296.095-.61.503-.71.266.206.427.496.49.885.107.66.178 1.26.218 1.834.052.746.091 1.504.13 2.239.023.446.046.893.072 1.34.016.278.14.442.35.46.277.025.377-.183.459-.35.033-.067.065-.136.097-.205.097-.228.218-.446.36-.65.12-.155.274-.231.422-.208.158.024.29.154.362.354.052.173.082.35.088.53.003.036.005.071.009.106a1.54 1.54 0 0 1-.006.245 2.482 2.482 0 0 0-.008.163.32.32 0 0 0 .298.354.324.324 0 0 0 .384-.256l.025-.091c.012-.049.024-.098.04-.145l.04-.141c.033-.123.074-.244.124-.361l.012-.026c.117-.255.226-.496.552-.478.269.015.62.117.766.517.067.214.107.435.12.658l.01.095c.005.043.006.087.008.13.007.189.014.402.278.495.23.08.355-.048.563-.388.111-.2.248-.386.405-.553a.542.542 0 0 1 .448-.173.552.552 0 0 1 .387.296 2.7 2.7 0 0 1 .38 1.516 49.14 49.14 0 0 1-.276 2.782c-.091.76-.394 1.439-.68 2.004-.429.853-1.158 1.434-2.228 1.776-1.553.495-3.078.228-4.532-.795a1.576 1.576 0 0 1-.401-.387c-.25-.36-.48-.733-.69-1.117a40.473 40.473 0 0 1-.91-1.799c-.522-1.098-1.172-1.937-1.986-2.566a.236.236 0 0 1-.026-.022 3.457 3.457 0 0 0-.079-.08c-.155-.155-.303-.301-.222-.544Z"></path>
  <path d="M8.097 8.729a.448.448 0 0 0 .141-.318.311.311 0 0 0-.088-.226c-.138-.134-.303-.135-.505-.002-.098.065-.19.139-.296.224l-.106.085-.12-1.669h1.639l-.076.123a1.712 1.712 0 0 0-.2.391c-.042.134-.023.35.07.449.123.13.32.115.503-.04a.868.868 0 0 0 .172-.192l.092-.143c.145-.227.295-.462.427-.702.214-.391.162-.639-.192-.913a7.747 7.747 0 0 0-.397-.28c-.114-.077-.233-.157-.345-.241-.133-.1-.329-.21-.49-.012-.12.147-.098.335.06.503.07.072.144.14.22.205l.062.053c-.115.007-.227.016-.338.024-.434.033-.844.064-1.277-.009v-.307l.001-1.086a.558.558 0 0 1 .014-.105l.143.076c.145.085.296.157.454.217.109.037.32-.005.373-.095.052-.09.032-.22.014-.335a3.56 3.56 0 0 1-.01-.063.269.269 0 0 0-.12-.153L7.7 4.026a9.596 9.596 0 0 0-.691-.476c-.3-.182-.629-.158-.858.062-.313.309-.603.64-.87.99-.07.089-.053.3.011.387a.232.232 0 0 0 .156.095A.38.38 0 0 0 5.722 5a2.39 2.39 0 0 0 .258-.236l.076-.076c.076-.075.15-.152.24-.243l.072-.073V6.07l-1.68.096.096-.11a2.47 2.47 0 0 0 .261-.333c.052-.083.073-.291.002-.34-.093-.065-.236-.061-.351-.05a.319.319 0 0 0-.175.116l-.015.015-.18.184c-.217.219-.441.445-.65.678-.185.206-.18.436.015.648.15.164.316.318.476.466l.088.082c.052.06.122.1.2.116l.046.003c.133.01.285.02.357-.055.104-.11.036-.38.028-.41a.673.673 0 0 0-.139-.23l-.06-.078h1.72l.074 1.925-.129-.092-.328-.237c-.042-.03-.084-.064-.126-.097a1.519 1.519 0 0 0-.318-.212c-.103-.046-.305-.028-.37.054s-.031.245.007.369a.393.393 0 0 0 .147.168l.035.028c.387.321.71.587 1.02.838a.55.55 0 0 0 .348.135.54.54 0 0 0 .347-.136 17.2 17.2 0 0 0 .983-.882Z"></path>
</svg>