<svg width="46" height="46" fill="currentColor" viewBox="0 0 24 24" xmlns="http://www.w3.org/2000/svg">
  <path d="M18.444 4.303c.422 0 .768-.032 1.106.006.67.079 1.193.398 1.47 1.043a4.03 4.03 0 0 1 .22 2.7c-.17.64-.58 1.08-1.155 1.377a6.482 6.482 0 0 1-2.2.66c-1.185.143-2.378.23-3.568.334-.436.039-.874.06-1.331.09-.267.95-.166 1.9-.225 2.893.17 0 .315-.009.46.002.19.01.38.035.569.072.165.037.235.166.24.339.033.877.075 1.753.105 2.63.029.838.038 1.677.07 2.514.027.712.07 1.424.113 2.136a.497.497 0 0 1-.317.521.936.936 0 0 1-.323.053 234.12 234.12 0 0 1-2.516-.042 1.56 1.56 0 0 1-.366-.06c-.344-.091-.505-.288-.521-.648-.085-1.867-.139-3.735-.003-5.603.029-.397.04-.797.09-1.19.05-.383.305-.607.686-.646.23-.024.462-.031.734-.049.027-.354.052-.693.08-1.031.051-.63.075-1.263.165-1.887.11-.767.441-1.04 1.204-1.09 1.221-.08 2.443-.147 3.663-.244a9.621 9.621 0 0 0 2.457-.493c.894-.316 1.199-.699 1.206-1.643.003-.405-.099-.814-.186-1.214-.095-.436-.407-.675-.83-.763-.308-.065-.623-.097-.988-.152.02.194.04.367.052.54.025.342.056.685.065 1.028.016.644-.371 1.14-1.08 1.168-2.088.08-4.172.234-6.26.32-1.77.074-3.544.112-5.317.128-.657.006-1.315-.088-1.97-.149a1.97 1.97 0 0 1-.479-.119c-.455-.164-.743-.493-.779-.972-.08-1.072-.075-2.144.197-3.194.163-.627.54-1.048 1.224-1.105.712-.06 1.423-.14 2.136-.155a311.31 311.31 0 0 1 6.764-.08c1.208.004 2.416.095 3.623.172.356.03.707.1 1.047.212.64.198.838.578.695 1.23-.017.119-.026.24-.027.36ZM10.431 3.01v.047c-1.485.033-2.97.055-4.453.103-.616.02-1.231.09-1.846.145-.241.022-.414.147-.456.402-.1.615-.028 1.208.29 1.747.214.36.385.36.672.056.198-.21.39-.426.605-.619.289-.26.617-.456 1.016-.503.628-.074 1.09.202 1.448.688.203.277.38.573.6.836.407.488.785.466 1.178-.029.214-.268.42-.552.674-.777.262-.218.547-.406.85-.561a.724.724 0 0 1 .748.045c.19.132.366.285.523.456.22.225.415.477.641.696.258.248.324.229.572-.025.192-.214.403-.41.63-.587.44-.312.91-.354 1.389-.061.15.095.308.178.471.248.558.228.998.103 1.308-.41.174-.31.324-.634.448-.968.113-.276.069-.353-.207-.463a1.181 1.181 0 0 0-.277-.077c-.612-.081-1.223-.2-1.838-.227-1.66-.074-3.324-.11-4.986-.162Zm7.559 2.166-.096-.024-.21.241a1.412 1.412 0 0 1-1.284.505c-.38-.038-.706-.2-1.026-.391-.398-.236-.66-.218-1.01.082-.187.16-.348.352-.519.53-.324.339-.623.379-1.024.125a1.493 1.493 0 0 1-.288-.231c-.207-.22-.407-.446-.602-.676-.399-.468-.617-.498-1.11-.117-.151.119-.29.252-.416.397-.218.247-.42.508-.632.76-.293.349-.652.468-1.104.349-.374-.1-.7-.332-.915-.654-.16-.224-.303-.458-.467-.678-.452-.608-.947-.677-1.544-.197a7.795 7.795 0 0 0-.711.685c-.48.493-.908.482-1.359-.044-.08-.094-.158-.19-.278-.335v.822c0 .055-.001.11.003.165.036.554.15.716.695.79.583.085 1.172.133 1.762.143.975.01 1.95-.023 2.925-.052 1.03-.03 2.06-.06 3.088-.118a448.36 448.36 0 0 0 5.057-.319c.366-.024.73-.082 1.065-.12V5.177Zm-4.675 15.549c.141-.978.145-5.902.011-6.495l-2.305-.085.125 6.488 2.169.092Z"></path>
</svg>