<svg width="46" height="46" fill="currentColor" viewBox="0 0 24 24" xmlns="http://www.w3.org/2000/svg">
  <path d="M21.452 3.27a.482.482 0 0 0-.28-.294 1 1 0 0 0-.348-.077l-.154-.006c-.37-.014-.751-.029-1.128-.02-1.762.037-3.112.886-4.015 2.521-.233.41-.35.876-.337 1.347.006.17-.059.258-.198.383-.423.38-.86.772-1.269 1.182-.404.404-.81.82-1.202 1.223a97.367 97.367 0 0 1-1.695 1.711c-1.79 1.75-3.619 3.52-5.388 5.233l-2.07 2.006c-.548.532-.79 1.071-.761 1.698a.93.93 0 0 0 .605.864c.203.09.423.136.645.137.287-.003.568-.08.815-.223.55-.308 1.125-.65 1.587-1.14.772-.818 1.581-1.655 2.405-2.491.727-.738 1.475-1.48 2.198-2.199 1.982-1.969 4.033-4.005 5.883-6.17.199-.233.366-.387.713-.25l.025.01.024-.007c.075-.018.155-.034.238-.051.214-.038.423-.093.627-.167a2.589 2.589 0 0 0 1.597-1.709c.159-.506.273-1.014.363-1.444.148-.708.4-1.137.841-1.433a.77.77 0 0 0 .22-.232.482.482 0 0 0 .059-.402ZM3.598 20.101a.23.23 0 0 1-.044-.196.897.897 0 0 1 .323-.653c.407-.355.796-.743 1.172-1.119.164-.163.327-.326.492-.487l6.358-6.188a.718.718 0 0 1 .064-.051l.017-.013.489.62c-.02.024-.041.046-.06.067-.067.073-.128.139-.19.203l-.257.26a17538.32 17538.32 0 0 1-5.648 5.739l-.06.06c-.517.526-1.053 1.07-1.71 1.436a3.885 3.885 0 0 1-.777.329.2.2 0 0 1-.17-.007Zm16.41-16.268c-.382.492-.533 1.045-.679 1.582-.041.153-.084.31-.132.462-.08.273-.184.537-.312.79-.318.61-.947.906-1.641.776a22.05 22.05 0 0 1-.563-.116c-.389-.084-.541-.282-.51-.664.012-.183.053-.363.124-.532.606-1.352 1.522-2.101 2.803-2.29.12-.016.24-.023.362-.022.103 0 .21.004.325.008.073.002.147.005.224.006Zm-3.882 4.424-2.803 2.918-.543-.61 2.698-2.853.648.545Z"></path>
</svg>