<svg width="46" height="46" fill="currentColor" viewBox="0 0 24 24" xmlns="http://www.w3.org/2000/svg">
  <path d="M19.51 9.55c.038.017.073.035.111.048 1.772.602 2.695 1.935 3.085 3.694.121.55.05 1.117-.127 1.657a1.652 1.652 0 0 1-.91 1.018 1.633 1.633 0 0 1-1.36-.023c-.314-.149-.585-.389-.872-.593-.196-.14-.384-.288-.612-.46-.057.419-.082.781-.16 1.132-.389 1.782-1.285 3.255-2.718 4.38-.304.227-.63.424-.973.587-.894.449-1.78.381-2.645-.1a4.809 4.809 0 0 1-1.327-1.13l-.273-.324c-.284.148-.553.304-.836.43-.333.147-.678.268-1.018.4-.075.03-.168.04-.223.09-.22.206-.474.17-.73.12a16.273 16.273 0 0 1-.754-.163 4.017 4.017 0 0 1-1.269-.527c-1.92-1.26-3.213-3.013-4-5.163a9.644 9.644 0 0 1-.574-3.815 2.7 2.7 0 0 1 .422-1.391c.16-.243.349-.45.649-.525a.912.912 0 0 0 .288-.146c2.128-1.494 4.422-2.705 6.69-3.96 1.128-.624 2.276-1.214 3.39-1.862.617-.36 1.22-.293 1.836-.092.6.196 1.117.553 1.592.964 1.602 1.384 2.608 3.147 3.22 5.156.046.197.078.397.097.598Zm-1.874 4.81c-.102-.086-.161-.139-.223-.188-.519-.417-1.044-.824-1.482-1.335A16 16 0 0 1 12.75 7.14a7.454 7.454 0 0 1-.342-2.5c.006-.169.02-.338.033-.552-.166.083-.288.138-.404.202-.58.324-1.162.646-1.74.975-2.016 1.148-4.03 2.299-6.043 3.452-.517.298-.994.667-1.518.95a.764.764 0 0 0-.435.624c-.12.755-.007 1.498.135 2.232.388 1.997 1.344 3.693 2.739 5.153.794.83 1.699 1.477 2.817 1.783.126.044.26.056.392.035.673-.184 1.245-.57 1.824-.913-1.021-2.66-1.011-5.338-.52-8.049-.539-.393-.64-.682-.446-1.28.116-.358.397-.583.757-.561.781.046 1.002.2 1.152.692.047.197.044.404-.01.6-.08.34-.42.433-.72.632-.046.78-.12 1.582-.134 2.384-.01.639.043 1.28.089 1.918.067.912.257 1.81.565 2.67.052.146.124.285.183.42l6.512-3.646Zm-2.153-3.827c.92-.78 1.99-1.017 3.122-1.097a1.847 1.847 0 0 0-.051-.197 17.827 17.827 0 0 0-1.606-3.113 7.678 7.678 0 0 0-1.94-2.015c-.237-.173-.52-.287-.79-.41a1.208 1.208 0 0 0-.354-.073.26.26 0 0 0-.308.204 1.364 1.364 0 0 0-.079.357c-.013.422-.005.844.023 1.265.091.973.426 1.88.787 2.778.316.808.716 1.58 1.196 2.301Zm.354.513a.525.525 0 0 0 .026.112c.04.07.084.14.13.208.523.763 1.14 1.456 1.836 2.064.206.196.472.317.755.344a2.25 2.25 0 0 1 1.465.71c.157.168.331.32.52.453.454.311.935.135 1.07-.4.095-.382.148-.773.07-1.173a4.14 4.14 0 0 0-1.488-2.459 2.475 2.475 0 0 0-1.333-.556c-1.085-.11-2.092.144-3.05.697Zm-4.214 7.873c.256.264.444.48.654.67.9.812 1.71.876 2.735.231a.999.999 0 0 0 .068-.045c1.412-1.015 2.217-2.413 2.597-4.168l-6.054 3.312Z"></path>
</svg>