<svg width="46" height="46" fill="currentColor" viewBox="0 0 24 24" xmlns="http://www.w3.org/2000/svg">
  <path d="M14.188 14.644a2.926 2.926 0 0 0-.033.343c.02.796.062 1.593.064 2.39 0 .822-.024 1.646-.065 2.468a2.473 2.473 0 0 1-.185.713 1.036 1.036 0 0 1-.58.614c-.575.245-1.22.27-1.813.073-.472-.154-.78-.505-.818-.994-.06-.765-.08-1.534-.073-2.301.007-.824.064-1.647.097-2.47.006-.148 0-.296 0-.504-.21 0-.37.008-.53-.002-.615-.038-1.238-.033-1.843-.136-.873-.149-1.417-.695-1.579-1.579-.072-.39-.115-.787-.159-1.183-.075-.68-.176-1.362-.205-2.045-.072-1.688-.109-3.378-.16-5.067-.011-.398-.034-.797-.026-1.194.014-.16.057-.316.126-.461.15-.362.43-.455.816-.465 1.25-.03 2.497-.121 3.746-.161 1.249-.04 2.499-.045 3.748-.065.536-.009 1.072-.023 1.608-.024.488-.001.683.132.764.621.1.568.161 1.142.182 1.719.044 1.746.137 3.486.427 5.211.021.122.033.246.034.37.004.616.002 1.232.001 1.848 0 .097-.008.193-.012.289-.032.793-.44 1.306-1.174 1.575a6.775 6.775 0 0 1-1.934.383l-.424.034Zm.509-9.789c-.21.455-.174.861-.242 1.248-.081.458-.147.926-.298 1.362-.186.542-.72.691-1.215.402a1.07 1.07 0 0 1-.524-.71c-.086-.401-.128-.812-.183-1.219-.034-.244-.045-.492-.094-.733a.279.279 0 0 0-.192-.179c-.058-.006-.16.095-.188.17-.087.23-.144.471-.22.706-.081.247-.207.45-.5.483-.301.034-.555-.057-.714-.312-.106-.171-.16-.375-.235-.565-.05-.13-.095-.26-.143-.391l-.112.019a5.196 5.196 0 0 0-.078.682c.007.452.071.905.06 1.357-.01.396-.06.79-.147 1.176a.66.66 0 0 1-.558.543c-.334.05-.575-.134-.708-.397a4.702 4.702 0 0 1-.358-1c-.092-.372-.119-.76-.19-1.138-.037-.195-.052-.413-.255-.527-.423.183-.47.24-.454.63.027.66.062 1.318.102 1.976.038.59.088 1.178.135 1.767.028.354.066.388.427.406h.082c1.292-.017 2.584-.015 3.875-.057 1.565-.05 3.129-.137 4.693-.21.097-.011.192-.029.287-.053l-.268-3.835c-.49.049-.891-.061-1.242-.334-.38-.296-.296-.802-.544-1.267Zm-7.314 6.457c.041.61.14 1.216.295 1.809.129.49.428.787.92.887.161.037.324.06.488.073.576.029 1.153.048 1.73.07.334.014.54.185.602.512.059.254.096.512.11.772.018 1.002.008 2.005.026 3.007.008.494.04.989.092 1.48.017.165.084.377.205.47.278.216.62.183.948.095.28-.075.349-.308.356-.544.024-.822.049-1.646.032-2.467-.02-.989-.087-1.976-.125-2.964-.005-.15.017-.3.063-.444.09-.288.296-.4.6-.383.162.007.324 0 .484-.022.273-.033.546-.068.815-.122.444-.079.885-.18 1.32-.303.163-.05.358-.207.412-.36.192-.546.208-1.118.162-1.743-.208 0-.37-.006-.53 0-1.579.067-3.156.148-4.735.2-1.028.032-2.058.028-3.087.029-.381 0-.761-.033-1.183-.052Zm3.444-5.4.1-.002c.049-.12.103-.238.143-.361.068-.21.11-.427.193-.63.144-.351.38-.47.758-.405.305.053.54.215.656.504.066.18.11.367.134.557.061.421.091.847.168 1.265.042.186.123.36.239.511.1.135.254.116.331-.044.075-.147.128-.304.156-.467.07-.502.118-1.008.18-1.512.037-.303.106-.597.317-.834.29-.327.683-.334.957.004.112.155.201.326.265.506.056.139.068.295.114.438.13.408.423.486.752.224a.467.467 0 0 0 .196-.423c-.018-.357-.019-.715-.044-1.07-.018-.27-.064-.536-.1-.829-3.163-.237-6.265.043-9.413.159l.161 1.825.227-.065c.457-.126.782-.002.999.413.093.184.16.379.202.58.094.444.16.893.251 1.337.042.2.119.395.18.592.229-.305.242-.61.212-.927-.045-.478-.1-.957-.112-1.437-.009-.399.04-.8.307-1.13.338-.419.824-.386 1.07.093.117.227.16.493.242.74.045.132.105.259.158.388Z"></path>
</svg>