<svg width="46" height="46" fill="currentColor" viewBox="0 0 24 24" xmlns="http://www.w3.org/2000/svg">
  <path d="M3.969 12.773c0-1.979 0-3.958.002-5.937 0-.412.013-.825.044-1.236.04-.51.334-.89.694-1.222.452-.418 1.003-.67 1.571-.883 1.035-.39 2.118-.59 3.206-.736a51.74 51.74 0 0 1 3.77-.386c.693-.042 1.401.037 2.094.126.802.103 1.601.25 2.39.43a2.97 2.97 0 0 1 1.438.766c.378.37.56.806.504 1.337-.036.355-.002.715.1 1.058.198.708.198 1.438.186 2.168-.01.7-.016 1.4.012 2.098.123 2.982.202 5.964.06 8.947-.04.847-.195 1.125-1.014 1.371-.711.207-1.436.366-2.168.475-2.286.359-4.587.543-6.902.423-1.372-.07-2.747-.12-4.1-.395a4.827 4.827 0 0 1-1.338-.517.735.735 0 0 1-.395-.588 2.83 2.83 0 0 1-.01-.37l-.065-6.93-.08.001Zm14.984-.7c-.037 0-.058-.006-.063 0a6.828 6.828 0 0 0-.169.23c-.632.912-1.394 1.662-2.488 2a.29.29 0 0 0-.143.07c-.208.272-.496.255-.789.237a5.176 5.176 0 0 0-.536-.01c-1.177.051-2.347.131-3.524-.105-.985-.197-1.972-.362-2.88-.819-1.373-.692-2.415-1.749-3.282-2.998a2.35 2.35 0 0 0-.164-.19l.25 9.59c.26.074.555.202.861.236.968.108 1.94.19 2.911.265 3.01.234 5.983-.072 8.94-.602.372-.067.754-.136 1.076-.36v-7.545Zm-.119-3.113c-.484.15-.89-.04-1.268-.308-.404-.287-.65-.297-1.053.18-.176.207-.295.462-.444.692-.412.634-.967.768-1.625.394-.369-.209-.627-.522-.866-.865-.347-.498-.594-.483-.907.043-.094.167-.17.344-.223.528-.07.221-.1.456-.17.677-.106.325-.184.672-.359.957-.572.933-1.465.881-2.145.338a2.018 2.018 0 0 1-.704-1.18c-.065-.295-.098-.597-.176-.888a2.683 2.683 0 0 0-.264-.684c-.153-.258-.368-.306-.64-.174a2.33 2.33 0 0 0-.514.334c-.577.505-1.227.56-1.93.353-.112-.033-.225-.063-.36-.1 0 .05.009.101.023.15 1.39 2.48 3.42 4.004 6.321 4.213.11.008.227-.051.338-.09.189-.065.371-.186.563-.2.904-.067 1.81-.11 2.715-.151.373-.017.748-.01.955.372 1.755-.743 2.749-3.399 2.733-4.59ZM4.827 5.377c.18.124.332.265.512.346.236.113.486.191.744.233.965.127 1.933.245 2.903.333 2 .187 4.012.185 6.011-.005 1.005-.098 1.983-.307 2.877-.8.23-.122.446-.27.642-.441.296-.27.284-.45-.024-.714a1.893 1.893 0 0 0-.483-.312c-.328-.138-.66-.289-1.006-.354a72.284 72.284 0 0 0-3.413-.566c-.554-.077-1.13-.126-1.68-.056a64.045 64.045 0 0 0-3.818.626 7.376 7.376 0 0 0-2.426.883c-.319.19-.622.402-.839.827Zm-.111.881c.032.66.054 1.247.094 1.834.02.109.07.21.144.29.471.59 1.438.695 2.038.233a4.5 4.5 0 0 1 .64-.447c.591-.314 1.19-.176 1.537.397.187.309.278.68.387 1.03.098.313.141.643.243.955a1.161 1.161 0 0 0 .627.727c.358.165.646.125.872-.194.141-.217.248-.454.317-.704.106-.34.161-.695.259-1.038a1.88 1.88 0 0 1 .667-1.016c.41-.31.822-.289 1.184.076.154.154.255.36.407.516.198.223.422.422.668.592.307.192.536.114.738-.183.093-.136.155-.293.251-.425.159-.24.339-.464.538-.672.397-.377.895-.406 1.362-.122.14.086.274.184.422.256.358.174.737-.014.747-.403.016-.63-.018-1.26-.032-1.944-.244.124-.436.221-.627.32-1.307.668-2.725.823-4.159.885a38.5 38.5 0 0 1-5.6-.165c-1.24-.128-2.498-.184-3.724-.798Z"></path>
</svg>