<svg width="46" height="46" fill="currentColor" viewBox="0 0 24 24" xmlns="http://www.w3.org/2000/svg">
  <path d="M14.877 12.094c.07-1.773.082-3.546-.056-5.316a10.188 10.188 0 0 0-.285-1.773c-.312-1.197-1.222-1.782-2.445-1.602-.38.058-.753.16-1.11.304A1.838 1.838 0 0 0 9.906 4.88a9.395 9.395 0 0 0-.385 1.626c-.282 2.096-.479 4.2-.419 6.32.03 1.035.071 2.07.102 3.107 0 .149-.01.298-.034.445a.3.3 0 0 1-.31.275.333.333 0 0 1-.346-.238.98.98 0 0 1-.045-.24c-.194-1.942-.33-3.888-.174-5.838a93.1 93.1 0 0 1 .442-4.228c.07-.526.204-1.042.398-1.537.334-.865.973-1.45 1.886-1.686a7.874 7.874 0 0 1 1.417-.24 2.791 2.791 0 0 1 1.631.42c.487.304.866.751 1.085 1.28.214.545.36 1.114.438 1.694.239 1.637.268 3.287.21 4.938-.068 1.922-.119 3.845-.208 5.765-.037.802-.154 1.6-.236 2.4a1.095 1.095 0 0 1-.03.16c-.33 1.27-1.196 1.957-2.525 1.992a3.496 3.496 0 0 1-.74-.034c-1.085-.207-1.8-.796-1.908-2.137-.095-1.179-.062-2.37-.036-3.556.034-1.567.104-3.135.184-4.7.056-1.074.05-2.16.344-3.206a4.78 4.78 0 0 1 .495-1.158c.353-.586.932-.761 1.698-.56.409.109.609.417.674.801.106.631.21 1.265.266 1.902.147 1.702.087 3.407.039 5.111-.023.79-.006 1.582-.01 2.373a1.49 1.49 0 0 1-.034.364.46.46 0 0 1-.473.353.467.467 0 0 1-.438-.395 2.025 2.025 0 0 1-.01-.367c.024-1.964.08-3.928.063-5.891-.008-1.034-.14-2.066-.221-3.098-.014-.17 0-.37-.231-.43-.2-.052-.408.044-.547.275a3.818 3.818 0 0 0-.521 1.749c-.1 1.674-.178 3.35-.251 5.025a165.938 165.938 0 0 0-.117 3.597c-.01.49.014.982.034 1.473.043 1.086.675 1.64 1.768 1.556.096-.007.192-.02.287-.035.688-.108 1.19-.444 1.31-1.162a17.61 17.61 0 0 0 .233-1.945c.092-1.7.147-3.404.217-5.107Z"></path>
</svg>