<svg width="46" height="46" fill="currentColor" viewBox="0 0 24 24" xmlns="http://www.w3.org/2000/svg">
  <path d="M10.258 12.802c1.58-1.57 3.298-3.06 4.783-4.335a14.11 14.11 0 0 0 1.847-1.927c.05-.062.115-.146.175-.235a.418.418 0 0 0-.025-.55.393.393 0 0 0-.511-.074c-.16.086-.312.186-.454.299-.457.373-.907.754-1.287 1.076a76.456 76.456 0 0 0-5.894 5.563c-.318.335-.608.706-.887 1.064-.126.16-.256.327-.386.487-.39.48-.548 1.064-.483 1.788.063.714.424 1.363.963 1.735.499.344 1.114.427 1.78.24a4.213 4.213 0 0 0 1.485-.738l.39-.306c.613-.482 1.248-.979 1.807-1.538a333.216 333.216 0 0 0 4.296-4.412l1.148-1.192a5.355 5.355 0 0 0 1.031-1.499c.457-1.006.552-1.946.292-2.875-.272-.971-.919-1.803-1.73-2.226-.774-.404-1.685-.44-2.636-.109-.818.291-1.588.7-2.287 1.215-1.517 1.096-2.68 2.06-3.66 3.034A1077.837 1077.837 0 0 0 5.27 12.04l-.312.313c-.588.592-.935 1.2-1.06 1.861a18.35 18.35 0 0 0-.17 1.119c-.022.166-.043.332-.067.497a.082.082 0 0 0 .049.087l-.001.066c-.002.104-.004.212.004.32.005.085.02.169.033.25.008.053.017.105.024.158.209 1.716 1.135 3.068 2.752 4.016a3.377 3.377 0 0 0 1.737.457c.147 0 .294-.009.44-.024.934-.098 1.765-.472 2.455-.824a17.154 17.154 0 0 0 3.414-2.272c1.089-.942 2.169-1.93 3.213-2.884l.8-.73c.404-.368.783-.75 1.201-1.177a1.61 1.61 0 0 0 .322-.453c.135-.3.103-.576-.09-.778-.224-.236-.504-.296-.765-.165a2.8 2.8 0 0 0-.634.397c-1.06.96-2.1 1.926-2.979 2.744-1.011.942-2.01 1.853-3.103 2.646-.947.688-1.99 1.389-3.187 1.863-1.184.47-2.204.242-3.115-.693-.714-.733-1.098-1.56-1.173-2.523-.111-1.447.179-2.393.971-3.163.96-.933 1.92-1.897 2.849-2.83.575-.578 1.17-1.176 1.759-1.76.977-.97 2.086-1.905 3.489-2.945.59-.438 1.39-.98 2.327-1.287.524-.17.927-.186 1.31-.048.827.298 1.498 1.442 1.38 2.353-.1.778-.437 1.472-1.03 2.121-.365.4-.743.792-1.097 1.156l-1.098 1.135c-1 1.035-2.034 2.106-3.074 3.135-.572.567-1.205 1.094-1.818 1.604l-.361.301a3.382 3.382 0 0 1-1.222.66c-.452.132-.784.008-.99-.368-.266-.49-.275-.935-.026-1.357.5-.849 1.175-1.567 1.83-2.217Z"></path>
</svg>