<svg width="46" height="46" fill="currentColor" viewBox="0 0 24 24" xmlns="http://www.w3.org/2000/svg">
  <path d="M8.237 3.285c.05-.543.37-.805.871-.841a93.48 93.48 0 0 1 3.025-.184c.758-.03 1.518-.001 2.277-.02.629-.014 1.126.155 1.305.794.584 0 1.138-.008 1.692.001 1.546.026 2.511.862 2.622 2.397a59.44 59.44 0 0 1 .146 4.507c-.008 2.056-.08 4.112-.144 6.167a34.552 34.552 0 0 1-.157 2.25c-.142 1.48-1.585 3.32-3.76 3.32-3.02.001-6.041.053-9.062.072a4.408 4.408 0 0 1-.902-.11c-1.464-.3-2.286-1.302-2.286-2.795 0-1.68.014-3.361.023-5.042.013-2.232-.005-4.464.06-6.695.021-.74.206-1.488.408-2.206.305-1.082.91-1.532 2.063-1.608.59-.04 1.185-.007 1.819-.007Zm.105.671c-.787.09-1.501.16-2.211.26-.35.048-.633.266-.714.603-.204.85-.518 1.712-.512 2.567.027 3.939.142 7.876-.055 11.813-.038.76.416 1.373 1.166 1.556a6.669 6.669 0 0 0 1.533.209 142.16 142.16 0 0 0 4.287-.062c1.541-.039 3.083-.077 4.622-.162.413-.022.894-.112 1.208-.348.702-.529 1.257-1.203 1.317-2.149.04-.625.117-1.248.133-1.873.048-1.768.09-3.536.101-5.305.011-1.78.01-3.56-.041-5.338-.022-.741-.287-1.47-1.11-1.66-.673-.156-1.39-.123-2.112-.176.01.155.014.229.02.303.062.675-.159 1.007-.813 1.202a2.88 2.88 0 0 1-.663.15c-1.73.083-3.46.163-5.19.22-.467.015-.732-.305-.79-.796-.037-.32-.109-.635-.176-1.014Zm3.99-1.018-.005-.059-2.867.228c-.294.022-.39.167-.323.452.065.242.107.49.122.74.009.3.154.388.428.386.91-.006 1.82.022 2.73-.008.78-.026 1.559-.121 2.34-.17.322-.02.372-.18.31-.449a5.183 5.183 0 0 1-.123-.703c-.027-.311-.173-.43-.49-.422-.707.017-1.415.005-2.122.005Z"></path>
</svg>