<svg width="46" height="46" fill="currentColor" viewBox="0 0 24 24" xmlns="http://www.w3.org/2000/svg">
  <path d="M9.062 6.658a2.646 2.646 0 0 0-.083-.58.495.495 0 0 0-.496-.39c-.24.01-.407.157-.472.414a3.39 3.39 0 0 0-.087.658 175.4 175.4 0 0 1-.042.784c-.044.81-.09 1.65-.106 2.476a256.84 256.84 0 0 0-.041 5.056c.006.93.125 1.858.355 2.76a.775.775 0 0 0 .174.287c.04.05.082.101.124.161a.082.082 0 0 0 .067.036h.002a.083.083 0 0 0 .067-.039c.043-.067.077-.115.101-.15a.315.315 0 0 0 .075-.149c.08-.84.146-1.584.204-2.271.165-1.955.177-3.945.188-5.869l.01-1.307c.005-.57-.015-1.147-.034-1.707l-.006-.17Z"></path>
  <path d="M16.033 6.097c-.053-.139-.3-.196-.42-.196-.124 0-.275.144-.306.257-.058.215-.09.436-.097.658l-.035.868c-.06 1.477-.121 3.005-.163 4.509-.031 1.118-.063 2.274.116 3.431.106.689.254 1.368.397 2l.004.02c.036.162.097.433.52.436h.001a.082.082 0 0 0 .082-.081l-.002-.524c-.003-.386-.007-.75.006-1.12.01-.316.031-.637.051-.948.023-.356.047-.724.056-1.087.03-1.253.068-2.905.077-4.565a51.634 51.634 0 0 0-.066-2.773 2.94 2.94 0 0 0-.221-.885Z"></path>
</svg>