<svg width="46" height="46" fill="currentColor" viewBox="0 0 24 24" xmlns="http://www.w3.org/2000/svg">
  <path d="M18.564 7.52c-.145-.08-.292-.157-.446-.24l-.181-.096c0-.162.003-.317.005-.467.006-.339.01-.66-.01-.975-.115-1.736-1.426-3.572-3.634-3.572h-.025c-.243.001-.49-.002-.73-.006a22.342 22.342 0 0 0-1.168.004c-1.642.062-3.55.138-5.433.247-.705.04-.78.154-.933.841a12.65 12.65 0 0 0-.148.84l-.06.381-.524 3.118a14875.4 14875.4 0 0 0-1.614 9.633c-.052.313-.023.527.092.672.111.14.302.215.6.235.149.006.299 0 .448-.015.098-.008.2-.016.298-.018.341-.004.683-.003 1.044-.003l.384.001-.012.154a4.33 4.33 0 0 1-.046.433c-.046.26-.098.523-.148.778-.059.302-.12.613-.172.922-.062.366-.043.576.067.725.105.144.291.226.62.27 1.218.169 2.342.298 3.438.395.094.009.18.013.26.013.597 0 .826-.247.962-.954.12-.627.201-1.27.28-1.893l.06-.474c.086-.657.167-1.328.245-1.977l.097-.8.576-.045c.438-.033.846-.065 1.255-.094 1.637-.117 2.846-.42 3.92-.983a4.37 4.37 0 0 0 2.284-4.722c-.204-1.058-.76-1.841-1.65-2.328ZM5.091 15.134c.064-.29.13-.591.175-.89.095-.624.213-1.256.327-1.868l.149-.808.132-.734c.111-.621.224-1.241.337-1.862.107-.578.215-1.155.325-1.732l.178-.94.355-1.897.15-.8.228-.022c.184-.02.342-.036.501-.038 1.747-.023 3.523-.041 5.241-.06l.7-.006c.103-.001.208.003.324.01.843.043 1.539.4 1.958 1.006.428.62.523 1.427.268 2.279-.1-.01-.201-.024-.302-.036a7.106 7.106 0 0 0-.84-.073c-2.17-.015-3.824-.014-5.364.002-.818.009-.992.142-1.24.955-.648 2.134-1.171 4.515-1.645 7.494-.052.328-.11.657-.172 1.006l-.082.466-.262.038c-.248.036-.482.07-.722.099-.22.027-.437.047-.688.07l-.27.026c-.003-.583.12-1.143.239-1.685ZM16.21 7.98c-.132.836-.646 1.372-1.527 1.596a16.95 16.95 0 0 1-2.25.397c-.77.088-1.543.148-2.361.211-.328.025-.663.051-1.007.08l.542-2.554c1.562-.24 5.549-.075 6.603.27Zm-7.455 3.842c.443-.039.879-.073 1.309-.108 1.089-.087 2.118-.169 3.155-.29a11.079 11.079 0 0 0 2.093-.49c1.042-.335 1.753-1.019 2.115-2.034.042-.118.09-.231.146-.363l.057-.135c.673.215 1.087.639 1.265 1.295.4 1.476-.265 2.938-1.619 3.554a8.98 8.98 0 0 1-2.178.645c-.632.098-1.269.16-1.908.187-.237.014-.474.029-.71.047-1.239.093-1.295.143-1.502 1.321-.132.753-.257 1.519-.377 2.26l-.258 1.56c-.042.252-.095.504-.151.771l-.072.34c-.833.052-1.646-.017-2.505-.09l-.064-.005 1.204-8.465Z"></path>
</svg>