<svg width="46" height="46" fill="currentColor" viewBox="0 0 24 24" xmlns="http://www.w3.org/2000/svg">
  <path d="M21.33 2.779c-.276-.2-.573-.144-.834-.095-.058.01-.116.022-.173.03a38.918 38.918 0 0 0-7.149 1.69c-1.431.488-2.837.953-4.177 1.382-.509.163-.837.46-1.034.937-.604 1.464-.966 2.73-1.14 3.983a6.358 6.358 0 0 0-.03.246c-.02.232-.06.46-.12.685l-.162-.156c-.17-.165-.331-.32-.497-.466-.32-.28-.54-.3-.904-.079a1.81 1.81 0 0 0-.344.252c-.641.63-1.282 1.268-1.904 1.894a.74.74 0 0 0-.229.745.08.08 0 0 0 .018.037c.139.161.28.33.423.505.335.403.68.819 1.06 1.212a287.543 287.543 0 0 0 4.122 4.167c.383.38.792.747 1.187 1.102.183.163.365.327.545.492a.082.082 0 0 0 .056.021h.49a.082.082 0 0 0 .076-.05c.007-.017.013-.036.019-.055a.217.217 0 0 1 .02-.053c.331-.289.663-.577.996-.865.405-.35.81-.703 1.214-1.055.218-.191.444-.435.474-.8v-.017c-.046-.324-.262-.523-.471-.715-.158-.145-.307-.283-.388-.471l.039-.02c.06-.033.124-.062.189-.087.393-.14.787-.279 1.18-.416a109.03 109.03 0 0 0 2.581-.93c.502-.19.978-.46 1.439-.722l.024-.013c.372-.211.605-.56.694-1.038.072-.385.163-.781.272-1.177.993-3.59 1.756-6.337 2.476-8.905.128-.46.126-.817-.01-1.16a.083.083 0 0 0-.028-.035Zm-7.773 9.165a.876.876 0 0 1-1.08-.536c-.184-.464-.007-.89.452-1.085a2.397 2.397 0 0 1 .844-.185.635.635 0 0 1 .446.146c.123.114.184.293.184.534-.002.487-.382.992-.846 1.127Zm5.216-7.24c-.26.251-.506.489-.741.745-.247.269-.506.535-.756.794-.344.355-.7.722-1.032 1.1-.396.451-.762.913-1.15 1.401l-.48.602-.085-.025c-.101-.03-.207-.062-.312-.09a2.736 2.736 0 0 0-1.73.136c-.868.345-1.325 1.12-1.19 2.024a2.162 2.162 0 0 0 1.169 1.64 2.03 2.03 0 0 0 1.893-.056 2.432 2.432 0 0 0 1.052-1.053c.36-.716.332-1.343-.087-1.92a1.286 1.286 0 0 0-.037-.048.425.425 0 0 1-.092-.163l-.013-.033v-.014a.148.148 0 0 1 0-.03.08.08 0 0 1 .016-.034l4.854-4.805c-.012.086-.03.171-.053.254-.222.721-.445 1.441-.669 2.161-.363 1.17-.738 2.38-1.1 3.57-.209.69-.408 1.429-.592 2.196a1.58 1.58 0 0 1-.885 1.11c-.41.202-.794.386-1.173.56-.366.17-.748.324-1.117.474-.922.374-1.876.76-2.698 1.407l-4.278-4.23c.006-.057.008-.111.011-.163 0-.104.015-.207.043-.307.46-1.323.935-2.669 1.395-3.97l.367-1.041c.65-.224 1.307-.457 1.943-.683 2.718-.963 5.526-1.96 8.508-2.516a16.5 16.5 0 0 1-.982 1.007Zm-6.784 13.71-1.756 1.681c-1.106-.862-5.85-5.48-6.517-6.344.41-.614 1.244-1.53 1.747-1.92l.013.007c.042.024.08.051.115.083a6417.35 6417.35 0 0 1 5.61 5.554l.097.096c.255.25.518.507.691.843Z"></path>
</svg>