<svg width="46" height="46" fill="currentColor" viewBox="0 0 24 24" xmlns="http://www.w3.org/2000/svg">
  <path d="m17.12 4.968.522-.494c-.246-.254-.551-.267-.851-.264a1.9 1.9 0 0 0-1.086.375c-.585.42-1.157.858-1.715 1.316-.723.593-1.409 1.235-2.146 1.81-.33.257-.746.404-1.128.592-.051.026-.127.004-.263.004.04-.169.036-.338.113-.451.185-.275.375-.564.623-.776a94.327 94.327 0 0 1 3.16-2.6 6.906 6.906 0 0 1 1.507-.902c.873-.374 1.725-.292 2.465.371.338-.115.669-.256 1.014-.34a1.445 1.445 0 0 1 1.547.589c.372.551.412 1.274.011 1.766-.419.515-.91.971-1.417 1.503.136.38-.052.736-.386 1.052-1.232 1.17-2.429 2.379-3.697 3.509-1.757 1.566-3.568 3.071-5.351 4.609-.649.558-1.302 1.114-1.917 1.708a6.293 6.293 0 0 1-2.177 1.382c-.662.25-1.323.502-1.988.743a1.547 1.547 0 0 1-.505.11c-.397.003-.629-.325-.53-.715a.773.773 0 0 1 .055-.15c.573-1.163 1.148-2.325 1.724-3.486a1.21 1.21 0 0 1 .238-.317c1.628-1.589 3.253-3.18 4.892-4.757a753.733 753.733 0 0 1 5.258-5.014c.33-.313.695-.588 1.022-.903.298-.285.617-.414 1.006-.27Zm-6.455 9.948c2.65-2.25 5.223-4.517 7.609-7.004L16.727 5.84 9 13.146l1.665 1.77Zm-2.28-1.161-2.718 2.538c.477.613.905 1.248 1.397 1.822l2.742-2.5-1.42-1.86Zm10.309-7.03c.278-.21.547-.388.785-.6.236-.215.457-.447.658-.695.188-.23.172-.506.028-.75-.145-.247-.392-.3-.662-.252-.08.01-.158.027-.234.05a4.321 4.321 0 0 0-1.63 1.044l1.055 1.202ZM4.97 17.055l-.825 2.226.074.05 1.808-.686-1.057-1.59Z"></path>
</svg>