<svg width="46" height="46" fill="currentColor" viewBox="0 0 24 24" xmlns="http://www.w3.org/2000/svg">
  <path d="M3.517 21.046c-.385-.004-.587-.2-.594-.537a.997.997 0 0 1 .036-.282c.282-1.065.581-2.126.847-3.195a2.99 2.99 0 0 1 .731-1.386c.99-1.036 1.963-2.088 2.965-3.113 2.634-2.696 5.396-5.257 8.232-7.741.615-.54 1.22-1.09 1.85-1.613.375-.31.519-.304.897.019.54.46 1.06.943 1.584 1.422.282.258.552.528.83.79.359.34.358.703.016 1.064-.546.574-1.076 1.16-1.622 1.733-.197.206-.424.383-.63.581l-9.646 9.288c-.51.492-1.022.983-1.545 1.46a1.462 1.462 0 0 1-.459.263c-1.006.387-2.014.766-3.025 1.139a3.28 3.28 0 0 1-.467.108Zm2.798-3.325L17.148 7.324l-.728-.681C12.7 9.969 9.315 13.617 5.797 17.164l.518.557Zm1.007 1.034c3.616-3.49 7.246-6.873 10.712-10.412l-.316-.403c-3.74 3.363-7.296 6.842-10.94 10.211l.544.604Zm-2.014-2.038C8.765 13.081 12.234 9.56 15.873 6.17l-.374-.332A155.694 155.694 0 0 0 4.944 16.224c.086.108.147.18.203.255.05.066.092.136.161.238Zm14.92-10.656c-.603-.769-1.896-2.034-2.279-2.234L16.242 5.31l2.587 2.282 1.399-1.532ZM4.44 16.691c-.133.684-.253 1.28-.36 1.878a.362.362 0 0 0 .062.26c.246.307.507.601.772.911l1.591-.607L4.44 16.69Z"></path>
</svg>