<svg width="46" height="46" fill="currentColor" viewBox="0 0 24 24" xmlns="http://www.w3.org/2000/svg">
  <path d="M6.889 19.138c.111.013.223.019.335.017l.616.001h.727a.082.082 0 0 0 .076-.052.773.773 0 0 1 .117.002c.405.048.691-.083.876-.4a.789.789 0 0 1 .167-.178c.036-.032.071-.063.104-.097.13-.132.262-.263.394-.393.29-.286.588-.582.86-.895a206.414 206.414 0 0 1 6.371-6.982l1.071-1.125c.736-.773 1.497-1.572 2.242-2.36.198-.21.294-.442.278-.672-.015-.233-.145-.454-.374-.638-.196-.158-.394-.312-.591-.467l-.402-.315-.345-.277a23.96 23.96 0 0 0-.645-.509c-.307-.231-.492-.225-.788.026-.04.034-.075.07-.11.106l-.04.041-.945.942-1.972 1.964a92.095 92.095 0 0 0-7.722 8.736 2.285 2.285 0 0 0-.429.904c-.099.423-.216.85-.33 1.262l-.127.465a.723.723 0 0 0 .067.6.713.713 0 0 0 .519.294Zm1.777-.942-.695.1-.57-.727.136-.779 1.129 1.406ZM16.426 6.7l1.424 1.744-8.654 9.365-1.342-1.691A110.501 110.501 0 0 1 16.427 6.7Zm.552-.573 1.5-1.422 1.565 1.475c-.259.316-.535.616-.828.9-.245.246-.498.5-.738.78l-1.5-1.733Z"></path>
  <path d="M2.975 16.642c.032.095.072.186.12.273.32.542.408 1.001.285 1.49a2.248 2.248 0 0 0-.047.53c0 .059 0 .117-.003.175a.825.825 0 0 0 .317.715c.235.192.496.348.775.465.125.047.258.071.392.072a1.33 1.33 0 0 0 .857-.35c.148-.124.296-.308.127-.628a.082.082 0 0 0-.106-.037l-.157.073c-.11.05-.214.099-.319.142-.304.124-.592.073-.907-.162-.215-.161-.202-.355-.154-.656l.002-.016c.068-.359.104-.723.108-1.088-.013-.644-.58-1.205-1.263-1.252a.085.085 0 0 0-.072.034.083.083 0 0 0-.009.078l.054.142Z"></path>
</svg>