<svg width="46" height="46" fill="currentColor" viewBox="0 0 24 24" xmlns="http://www.w3.org/2000/svg">
  <path d="M17.191 16.263a989.624 989.624 0 0 0-.352-9.685 67.228 67.228 0 0 0-.179-2.649l-.05-.629c-.051-.642-.397-.959-1.057-.966-.026-.001-.053 0-.08.001l-.701.013c-.604.01-1.207.022-1.81.034-.166 0-.332.015-.496.047-.394.085-.516.225-.544.622-.014.26-.016.519-.003.778l.215 6.375.063 1.87.021 1.14c.019.976.038 1.985.042 3.016.004.791-.005 1.596-.014 2.374-.006.59-.013 1.201-.014 1.803-.002.854.325 1.193 1.167 1.211.091.002.183.003.275.003.51 0 1.017-.028 1.51-.055.558-.03 1.007-.072 1.415-.132.438-.064.611-.282.596-.752v-.026a42.447 42.447 0 0 1-.03-1.511c.002-.355.01-.716.018-1.065.013-.596.027-1.211.008-1.817Zm-3.897 2.828.154-.024c.156-.024.303-.045.447-.08.414-.102.5-.35.5-.539 0-.195-.087-.445-.507-.523a12.353 12.353 0 0 1-.412-.087l-.15-.032v-1.023l.076-.008c.113-.01.225-.025.336-.047l.073-.016a1.28 1.28 0 0 0 .447-.153.458.458 0 0 0 .21-.443.537.537 0 0 0-.354-.436 3.585 3.585 0 0 0-.581-.145l-.214-.042v-.983l.13-.025a37.2 37.2 0 0 1 .448-.084c.108-.02.436-.079.455-.42.019-.362-.323-.445-.452-.476-.156-.038-.314-.062-.481-.088l-.165-.027v-.997l.024-.003a2.395 2.395 0 0 0 .362-.058.74.74 0 0 0 .36-.135c.111-.098.256-.318.216-.48a.653.653 0 0 0-.389-.4 1.727 1.727 0 0 0-.5-.059 6.815 6.815 0 0 1-.158-.004v-1.1a9.82 9.82 0 0 1 .1-.013c.14-.016.287-.033.434-.059.327-.057.51-.24.491-.489-.024-.313-.26-.395-.487-.433l-.126-.023c-.065-.012-.13-.025-.194-.034a4.194 4.194 0 0 0-.234-.023l-.06-.006V7.976l.101-.028c.133-.037.277-.077.42-.12.155-.046.52-.155.484-.543-.034-.364-.363-.41-.58-.439a4.964 4.964 0 0 0-.397-.032l-.129-.008-.078-1.092.154-.022c.163-.024.317-.047.47-.076.469-.09.516-.367.502-.525-.032-.377-.37-.434-.514-.459a4.809 4.809 0 0 0-.226-.03 7.882 7.882 0 0 1-.137-.018l-.226-.034-.076-.012-.052-.951 2.871-.098.075 1.542c.241 4.989.491 10.146.334 15.243l-2.794.11v-1.293Z"></path>
  <path d="M7.07 16.548c.02.663.075 1.324.165 1.98.091.695.513 1.215 1.221 1.505.251.105.52.161.792.163.443.002.87-.168 1.19-.474.534-.5.834-1.128.846-1.77a15.57 15.57 0 0 0-.035-1.147c-.011-.206-.024-.42-.03-.63l-.12-3.808-.06-1.964-.012-.696a615.95 615.95 0 0 1-.056-3.501 1.342 1.342 0 0 0-.259-.799c-.18-.251-.35-.516-.517-.771a41.557 41.557 0 0 0-.265-.407l-.148-.222c-.23-.347-.47-.707-.712-1.056-.194-.28-.395-.335-.528-.33-.134.004-.329.068-.505.354a2.965 2.965 0 0 0-.238.53l-.027.074c-.244.66-.497 1.343-.73 2.02a2.186 2.186 0 0 0-.14.691c-.006.815 0 1.678.02 2.8l.012.686c.038 2.22.079 4.515.135 6.772Zm1.163-11.26.163-.494c.078-.006.154-.016.228-.026.18-.025.35-.048.46.01.121.062.21.21.313.382a6.8 6.8 0 0 0 .078.128H8.233ZM9.51 19.035a.896.896 0 0 1-.711-.185c-.307-.253-.429-.59-.512-1.047l2.012-.172c.014.385-.09.765-.296 1.088a.7.7 0 0 1-.493.316Zm-1.212-2.543-.26-9.902h1.688l.316 9.902H8.298Z"></path>
</svg>