<svg width="46" height="46" fill="currentColor" viewBox="0 0 24 24" xmlns="http://www.w3.org/2000/svg">
  <path d="M2.857 20.063c.01-.07.022-.14.039-.208.249-.88.505-1.757.745-2.639a.757.757 0 0 1 .356-.489c.09-.053.172-.117.245-.19 2.86-2.908 5.909-5.611 8.915-8.36 1.262-1.155 2.479-2.358 3.736-3.517.477-.44 1.003-.829 1.52-1.223.28-.214.448-.214.708.001.603.5 1.203 1.005 1.781 1.532.377.343.383.72.027 1.088-.509.524-1.042 1.023-1.565 1.533-.056.055-.114.107-.168.165-1.895 2.06-3.966 3.939-6.021 5.832-1.479 1.362-3.009 2.668-4.51 4.006-.43.382-.842.783-1.256 1.18a5.116 5.116 0 0 1-2.134 1.248c-.613.179-1.216.39-1.832.557-.391.106-.609-.097-.586-.516Zm14.23-14.392c-.259.214-.506.406-.738.613a20263.36 20263.36 0 0 0-8.524 7.627 32.13 32.13 0 0 0-2.723 2.758c-.109.124-.206.256-.316.394l.429.466c4.314-3.685 8.355-7.642 12.727-11.325l-.855-.533ZM6.207 18.65c1.91-1.358 11.72-10.516 12.515-11.685l-.298-.351c-.105.082-.19.14-.267.21-2.583 2.301-5.172 4.596-7.744 6.91-1.534 1.379-3.025 2.807-4.665 4.062-.06.04-.123.076-.188.108l.647.746ZM17.775 4.922l1.555 1.444.938-.803-1.455-1.43-1.038.79ZM4.112 17.712c-.08.342-.143.58-.186.823a.383.383 0 0 0 .049.252c.14.217.3.422.466.65l.786-.31-1.115-1.414Z"></path>
</svg>