<svg width="46" height="46" fill="currentColor" viewBox="0 0 24 24" xmlns="http://www.w3.org/2000/svg">
  <path d="M17.376 6.669c.1.031.175.06.252.078.261.062.39.235.412.492.016.19.026.38.032.57.011.328.01.328.373.536.08-.115.159-.236.246-.35.221-.291.494-.38.779-.172.404.3.787.627 1.145.98.203.197.16.497-.072.731-.22.22-.47.412-.732.638l.07.384c.165 0 .313-.003.46 0 .34.007.56.147.604.485.06.47.084.945.068 1.42-.012.336-.269.52-.59.59-.118.03-.241.04-.364.03-.294-.036-.458.095-.542.367.164.126.336.238.484.377.374.35.41.749.047 1.104-.28.277-.595.516-.937.711-.477.27-.775.154-1.045-.32-.04-.07-.076-.142-.114-.213-.218-.025-.318.045-.29.267.012.122.013.244.002.366-.043.574-.148.696-.706.832-.062.63-.104 1.266-.194 1.895a14.123 14.123 0 0 1-.328 1.635c-.244.913-.866 1.483-1.75 1.786-1.045.359-2.127.47-3.222.439-1.661-.048-3.324-.102-4.97-.358-.687-.106-1.365-.234-2-.544-.777-.38-1.218-.99-1.298-1.84a21.138 21.138 0 0 1-.088-1.748c-.01-.924.01-1.847.014-2.77.003-1.075-.006-2.149.004-3.223.015-1.74.026-3.48.07-5.22.023-.936.082-1.872.31-2.79.239-.955.784-1.601 1.775-1.806.412-.091.83-.154 1.25-.189 2.299-.153 4.6-.246 6.905-.18.368.01.734.054 1.093.133 1.582.348 2.396 1.21 2.648 2.81.082.522.11 1.052.161 1.58.016.16.025.32.038.487Zm-1.16-.01c-.069-.743-.109-1.449-.205-2.146-.13-.947-.689-1.538-1.618-1.777a3.037 3.037 0 0 0-.478-.102c-.583-.051-1.168-.139-1.75-.124-1.73.042-3.457.118-5.185.201-.434.03-.866.093-1.29.188-.62.126-1.014.497-1.132 1.133-.04.214-.116.422-.134.637-.096 1.122-.218 2.244-.255 3.369-.093 2.811-.144 5.624-.212 8.436a7.922 7.922 0 0 0 .173 1.796l11.404-.574.08-1.18c-.6-.185-.69-.28-.738-.876-.021-.264-.114-.398-.38-.401-.096.147-.174.29-.274.418-.263.331-.551.358-.883.096-.181-.143-.375-.273-.543-.43a3.48 3.48 0 0 1-.55-.596c-.203-.309-.111-.594.202-.797.11-.072.22-.141.332-.212-.197-.288-.197-.288-.505-.301-.393-.018-.62-.141-.653-.424a11.09 11.09 0 0 1-.088-1.422c.006-.416.243-.631.665-.691.158-.023.318-.022.48-.031l.075-.293.073-.27c-.145-.124-.284-.232-.412-.353-.34-.324-.342-.622.011-.934.327-.287.665-.563 1.008-.83.296-.23.57-.211.843.044.096.09.18.193.272.294.135-.123.28-.234.433-.333.175-.096.323-.171.308-.415-.01-.173.042-.35.066-.524l.007-.04c.072-.318.198-.442.512-.495.092-.015.186-.022.341-.04ZM4.283 19.023c-.025.748.237 1.22.9 1.477.407.153.829.263 1.258.328 1.796.294 3.612.273 5.424.283a7.162 7.162 0 0 0 2.214-.325c.924-.293 1.423-1.125 1.255-2.139-3.685.016-7.369.19-11.051.376Zm14.94-4.568c-.128-.165-.248-.283-.324-.425a1.286 1.286 0 0 1-.17-.487c-.025-.344.634-1.25.965-1.368l.276-.1v-.71c-.176-.03-.337-.049-.494-.084-.165-.038-.33-.109-.337-.303-.022-.661-.235-1.38.51-1.83.014-.008.01-.047.017-.095l-.5-.41c-.148.133-.265.244-.386.35-.299.258-.527.263-.837.025a1.118 1.118 0 0 0-.266-.185c-.385-.143-.434-.45-.41-.795.012-.158.04-.314.069-.527-.207 0-.381-.011-.554.002-.65.047-.623-.126-.776.65-.033.163-.1.354-.215.46a4.633 4.633 0 0 1-.76.542c-.625.373-.75.352-1.155-.028a1.748 1.748 0 0 0-.186-.132l-.577.515c.07.082.145.16.224.234.235.194.317.419.222.723-.056.178-.054.375-.072.564-.034.362-.081.41-.44.438-.225.018-.45.04-.72.064l.12.9c.054.016.11.028.167.037.694.05.626.073.844.725.177.53.015.847-.42 1.166l.557.46c.13-.15.222-.267.326-.373.31-.315.532-.341.906-.108.138.086.26.201.403.275a.46.46 0 0 1 .262.384c.029.227.053.455.083.715h1.18c.036-.304.074-.586.101-.869a.47.47 0 0 1 .396-.455c.53-.117 1.06-.216 1.421.35.006.01.024.011.064.028l.487-.323Z"></path>
  <path d="M10.036 20.381c-.314.002-.642-.316-.64-.622.001-.28.237-.47.596-.482a.556.556 0 0 1 .59.53.553.553 0 0 1-.546.574Z"></path>
  <path d="M18.823 11.281c0 1.612-1.119 2.734-2.917 2.66a3.017 3.017 0 0 1-.949-.21c-.993-.386-1.41-1.302-1.078-2.319.182-.556.526-1.008.96-1.39.254-.224.502-.468.793-.63.226-.126.512-.164.777-.192.212-.023.433.025.65.047 1.062.11 1.636.684 1.748 1.752.011.108.013.217.016.282Zm-1.134.172c-.006-.108-.008-.217-.019-.325-.043-.403-.236-.674-.652-.777-1.05-.26-1.296-.28-2.014.743a1.394 1.394 0 0 0-.083.14c-.522.928-.201 1.604.855 1.739.852.108 1.93-.276 1.913-1.52Z"></path>
</svg>