<svg width="46" height="46" fill="currentColor" viewBox="0 0 24 24" xmlns="http://www.w3.org/2000/svg">
  <path d="M8.802 8.973c.338.313.751.452 1.341.452h.009l.066-.005c.066-.005.158-.011.248-.025a1.941 1.941 0 0 0 1.31-.776 1.917 1.917 0 0 0 .32-1.458c-.099-.576-.373-.944-.813-1.094a2.267 2.267 0 0 0-2.514.757 2.16 2.16 0 0 0-.381.818c-.121.517.018.965.414 1.331Zm1.628-2.02h.048c.267 0 .477.033.579.301a.78.78 0 0 1-.216.84c-.289.264-.906.334-1.245.143-.218-.123-.284-.275-.23-.526.113-.512.45-.753 1.064-.758Z"></path>
  <path d="M6.536 21.322c.196-.008.399-.016.596-.016 1.204.006 2.304.018 3.363.037 1.696.03 3.428.066 5.147.109.14.007.28.027.417.058a5.846 5.846 0 0 0 .214.038h.823c.163-.024.326-.046.49-.068.352-.046.716-.094 1.071-.17 1.628-.345 2.934-2.018 2.911-3.73a214.337 214.337 0 0 1-.01-3.435c.003-.808.005-1.644 0-2.465a75.785 75.785 0 0 0-.056-2.253l-.017-.474a78.686 78.686 0 0 1-.016-.533 25.779 25.779 0 0 0-.09-1.782c-.06-.584-.17-1.161-.325-1.727-.432-1.607-1.965-2.363-3.292-2.398-.38-.01-.763.017-1.134.043-.28.02-.569.04-.852.044-.77.011-1.553.016-2.31.02-.997.007-2.028.013-3.041.034l-.153.004c-1.453.03-2.956.061-4.428.176-1.588.123-2.64.887-3.129 2.268-.082.21-.13.432-.142.657l-.008.666c-.024 1.942-.049 3.952-.043 5.928.002.887.032 1.789.061 2.66.016.49.033.995.045 1.492.012.541.017.996-.003 1.457-.071 1.673 1.383 3.278 3.05 3.368.287.016.579.004.861-.008ZM3.552 7.179a4.244 4.244 0 0 1 .485-2.03c.299-.555.74-.901 1.274-1.001.847-.158 1.676-.302 2.51-.324a555.78 555.78 0 0 1 6.365-.124c1.052-.017 2.104-.034 3.155-.053.563-.01 1.12.156 1.758.522.695.4.917 1.12 1.042 1.773.263 1.37.379 2.52.365 3.615-.005.433-.009.866-.011 1.3l-.09-.082a108.8 108.8 0 0 0-1.245-1.017c-.493-.4-1.003-.812-1.495-1.228-.643-.543-1.018-.53-1.605.06-1.398 1.4-2.827 2.826-4.21 4.205l-1.563 1.56-.028-.023-.134-.11-.654-.531c-.531-.433-1.081-.88-1.63-1.31-.397-.312-.682-.308-1.05.015a938.112 938.112 0 0 0-3.225 2.852c-.01-2.492-.018-5.252-.014-8.069Zm.124 9.07.616-.524c.388-.33.79-.67 1.188-1 .427-.353.869-.708 1.296-1.05l.53-.427.705.57c.608.493 1.184.958 1.766 1.438.462.38.743.366 1.155-.057.138-.142.274-.286.41-.43.178-.189.362-.384.547-.57a4103.11 4103.11 0 0 1 4.219-4.205l.603-.6c.058-.058.12-.114.17-.16l.006-.004.767.605c.76.6 1.477 1.167 2.221 1.731.189.131.396.234.614.303-.004 1.496.001 2.991.007 4.454l.004 1.334c.004 1.077-.86 2.257-1.887 2.576a7.025 7.025 0 0 1-2.371.295 455.4 455.4 0 0 1-3.274-.15c-.447-.02-.893-.042-1.34-.063H6.347c-.8 0-1.4-.201-1.886-.634-.598-.53-.879-1.258-.884-2.289l-.005-1.058.104-.086Z"></path>
</svg>