<svg width="46" height="46" fill="currentColor" viewBox="0 0 24 24" xmlns="http://www.w3.org/2000/svg">
  <path d="M19.465 12.115a1.542 1.542 0 0 0-.224-.01l-1.936.019c-1.396.014-2.84.028-4.259.039-.315.002-.625-.006-.953-.015a94.94 94.94 0 0 0-.395-.01l-.008-.035a.376.376 0 0 1-.013-.063l-.173-3.879-.097-2.18a2.913 2.913 0 0 1-.002-.111 1.17 1.17 0 0 0-.028-.3c-.146-.545-.246-.68-.83-.65a8.096 8.096 0 0 0-2.057.353c-1.87.591-3.247 1.58-4.208 3.02-.865 1.297-1.418 2.808-1.644 4.49-.28 2.088.306 3.932 1.696 5.333 2.014 2.03 4.368 3.05 7.025 3.05.982-.006 1.96-.133 2.912-.378 1.15-.289 2.05-.771 2.75-1.476 1.35-1.357 2.265-3.032 2.797-5.12.157-.613.192-1.121.11-1.6-.045-.27-.135-.434-.463-.477ZM5.3 17.381c-1.092-1.067-1.602-2.478-1.475-4.08.143-1.812.722-3.42 1.72-4.78.567-.77 1.336-1.392 2.352-1.9a9.945 9.945 0 0 1 2.486-.834.802.802 0 0 1 .153-.01h.025l.001.006a.83.83 0 0 1 .011.11c.011 1.987.02 3.974.029 5.96 0 .091-.005.185-.01.276-.003.063-.007.127-.008.19-.008.272.052.466.183.593.129.125.32.177.584.158.05-.003.103-.002.157-.001h.05l.961.013c.694.01 1.412.021 2.118.019.879-.001 1.773-.01 2.637-.02l1.374-.013a.247.247 0 0 1 .05.015l.02.007c-.024.132-.044.265-.064.394a6.283 6.283 0 0 1-.202.972c-.439 1.362-1.017 2.49-1.768 3.45-.62.794-1.374 1.33-2.238 1.593-3.53 1.076-6.608.364-9.146-2.118Z"></path>
  <path d="M21.161 9.69c-.263-.64-.535-1.3-.902-1.908-1.533-2.541-3.69-4.16-6.41-4.81a3.855 3.855 0 0 0-.756-.104c-.19-.008-.331.035-.429.13-.1.096-.15.243-.15.447-.002.243.01.509.036.835l.012.153c.11 1.375.223 2.797.14 4.2v.942c0 .127-.002.253-.004.38-.003.279-.007.567.006.85.022.476.141.594.606.594h.011c.156 0 .313-.016.464-.03.107-.01.217-.02.324-.026l2.222-.106 2.678-.128a57.623 57.623 0 0 0 1.896-.115c.22-.018.387-.107.473-.251.086-.144.085-.333 0-.535a40.625 40.625 0 0 1-.217-.519Zm-.919.27-.025.004a1.777 1.777 0 0 1-.218.027c-.352.014-.704.026-1.057.038-.603.02-1.228.042-1.842.072-.768.038-1.547.087-2.301.134l-1.095.067a2.225 2.225 0 0 1-.145.001h-.048c.14-2.378.106-4.51-.103-6.51 3.02.452 5.749 2.914 6.834 6.167Z"></path>
</svg>