<svg width="46" height="46" fill="currentColor" viewBox="0 0 24 24" xmlns="http://www.w3.org/2000/svg">
  <path d="M5.722 19.236c.227.114.304.273.255.532a2.793 2.793 0 0 0-.007.803c.054.501.323 1.08.784 1.166.31.06.627.092.943.095.425.004.848-.072 1.245-.224.492-.19.724-.619.62-1.15l-.078-.378-.016-.078c.173.016.343.035.508.053.437.055.877.087 1.318.096.442 0 .87-.04 1.325-.085.161-.016.327-.032.494-.046a7.046 7.046 0 0 1-.01.071 2.178 2.178 0 0 0-.028.323c.007.512.142.908.39 1.143.199.187.466.275.794.261.711-.03 1.297-.08 1.845-.155.395-.055.627-.323.635-.736a19.63 19.63 0 0 0-.021-1.133c-.005-.116-.01-.232-.013-.348a6.834 6.834 0 0 0-.024-.361l-.008-.095.57-.245c.459-.197.892-.383 1.327-.583 1.062-.49 1.825-1.227 2.267-2.191.021-.046.047-.09.075-.137l.012-.021.107.015c.119.016.23.032.345.038.186.01.37.007.541.001.592-.02.824-.24.886-.838.114-1.11-.049-2.214-.207-3.281l-.007-.05c-.083-.564-.314-.76-.915-.776a23.054 23.054 0 0 0-.766-.004l-.28.002C20.01 9.136 19 8.093 17.455 7.646c.123-.26.23-.528.317-.802.149-.429.288-.834.57-1.18.173-.215.196-.437.06-.594a.608.608 0 0 0-.468-.166c-1.503.14-2.58.704-3.293 1.725a1.764 1.764 0 0 1-.111.138l-.006.008-.235-.02a4.817 4.817 0 0 0-.547-.03c-.517.012-1.082.036-1.727.074-2.265.133-4.2.711-5.917 1.766-1.561.96-2.488 2.243-2.834 3.926-.039.192-.114.305-.237.357l-.019-.239a3.757 3.757 0 0 0-.106-.758.835.835 0 0 0-.908-.61.852.852 0 0 0-.72.777c-.01.237.003.475.04.71.013.1.027.204.035.304.002.019.01.036.023.05-.139.163-.296.38-.1.64.186.248.463.199.685.16l.065-.012a1.08 1.08 0 0 1 .272-.03c.177.013.356.036.547.06.06.009.12.016.183.024v.01c-.004.062-.007.125-.013.187-.077.67.014 1.348.264 1.974.045.111.087.228.126.34.062.186.134.368.217.545.141.302.315.588.52.852.41.501.903 1.064 1.583 1.404ZM17.099 5.982a4.907 4.907 0 0 0-.246.584c-.133.412-.25.853-.351 1.312-.07.313.057.5.384.573 1.024.227 1.81.836 2.403 1.863.186.342.335.703.443 1.076.135.428.281.622.794.638.233.008.468.006.717.004l.29-.001.197 2.68-.27.06c-.25.053-.487.103-.714.177-.163.053-.37.165-.456.325-.766 1.395-2.084 2.046-3.272 2.498l-.155.06c-.3.113-.61.231-.913.355-.296.122-.314.437-.323.589-.023.381-.033.769-.042 1.144l-.01.419a4.902 4.902 0 0 0-.002.175v.051l-1.199.125c-.015-.1-.032-.196-.048-.292a6.39 6.39 0 0 1-.097-.743c-.017-.335-.124-.576-.32-.717-.209-.15-.512-.174-.877-.07-.733.207-1.452.211-2.127.199a6.343 6.343 0 0 1-.61-.051 9.182 9.182 0 0 0-.444-.045 2.344 2.344 0 0 0-.552.023c-.458.079-.693.316-.786.794-.03.152-.047.308-.062.455-.01.092-.014.185-.02.293l-.005.093-1.282.088c-.011-.12-.024-.237-.037-.353a8.256 8.256 0 0 1-.07-.928c.001-.293-.042-.6-.36-.853l-.173-.136a13.325 13.325 0 0 1-1.13-.968 4.212 4.212 0 0 1-1.276-3.275c.045-1.047.253-1.946.637-2.75.306-.641.798-1.2 1.503-1.707 1.679-1.21 3.671-1.838 6.09-1.924.293-.01.59-.015.879-.02.437-.007.889-.015 1.333-.041.21-.013.41-.25.467-.322.549-.704 1.055-1.134 1.642-1.394.135-.06.275-.113.438-.176l.079-.03-.067.143Z"></path>
  <path d="M10.003 2.123c-.756.065-1.393.512-1.793 1.257-.27.503-.35.989-.237 1.445.226.913.953 1.378 2.163 1.382.03.002.061.003.091.003.731 0 1.388-.455 1.77-1.232.345-.702.36-1.28.045-1.767-.5-.773-1.223-1.16-2.039-1.088Zm.93 2.339c-.24.443-.574.697-.893.672h-.006c-.452-.002-.784-.124-.96-.353-.151-.196-.187-.472-.102-.797a1.75 1.75 0 0 1 .206-.503.78.78 0 0 1 .662-.37.83.83 0 0 1 .344.077c.206.089.4.204.577.341.355.289.397.516.171.933Z"></path>
  <path d="M11.69 8.493c-1.471.115-2.743.457-3.89 1.048a3.31 3.31 0 0 0-.585.407c-.218.181-.267.432-.124.623a.33.33 0 0 0 .277.139.721.721 0 0 0 .312-.088c.912-.45 1.956-.758 3.192-.938.363-.054.732-.12 1.095-.197.281-.06.44-.237.447-.497v-.002a.457.457 0 0 0-.144-.345c-.127-.118-.328-.17-.58-.15Z"></path>
  <path d="M15.82 10.547a.794.794 0 0 0 .807.848.799.799 0 0 0 .556-.227.832.832 0 0 0 .256-.602c-.002-.437-.323-.785-.73-.792-.511-.005-.87.302-.888.773Z"></path>
</svg>