<svg width="46" height="46" fill="currentColor" viewBox="0 0 24 24" xmlns="http://www.w3.org/2000/svg">
  <path d="M12.096 20.198c-.661.673-1.518.831-2.372.986a5.297 5.297 0 0 1-2.25-.038c-1.436-.358-3.056-1.642-3.244-3.781-.104-1.191-.183-2.38-.17-3.58.015-1.29-.078-2.58-.097-3.872-.011-.782-.05-1.577.063-2.347.19-1.3.396-2.621 1.378-3.632.808-.832 1.758-1.365 2.951-1.324.315.015.625.082.917.199a3.987 3.987 0 0 1 1.892 1.535c.782 1.176 1.23 2.48 1.412 3.875.09.693.143 1.39.216 2.125.128-.034.254-.065.38-.101 1.482-.43 2.951-.425 4.407.126a2.952 2.952 0 0 1 1.717 1.622c.659 1.472.884 2.993.537 4.581-.238 1.088-.778 1.985-1.677 2.658-1.203.9-2.546 1.395-4.056 1.391-.68 0-1.333-.163-2.004-.423Zm-7.127-8.544c.727 0 1.4.01 2.072-.003 1.236-.022 2.472-.057 3.708-.092a.468.468 0 0 0 .252-.091c.21-.154.411-.32.601-.5a.48.48 0 0 0 .143-.301c.008-.495.006-.99-.015-1.485-.063-1.428-.32-2.81-1.014-4.083a3.636 3.636 0 0 0-1.241-1.35c-.692-.445-1.418-.513-2.163-.192-.88.38-1.556 1.013-1.911 1.902a8.027 8.027 0 0 0-.592 3.058c.01.92.073 1.84.115 2.76.006.121.028.242.045.377Zm6.182 8.04c-.223-.187-.396-.322-.559-.47a4.092 4.092 0 0 1-1.25-1.994c-.412-1.532-.124-2.963.606-4.333l.212-.398c-.693-.104-4.786-.043-5.16.078 0 .212-.007.43.002.647.026.618.047 1.236.091 1.852.06.82.12 1.642.215 2.459C5.463 18.869 6.71 20 7.887 20.21c1.004.179 1.965.004 2.911-.318a2.4 2.4 0 0 0 .353-.198Zm6.937-7.466a1.952 1.952 0 0 0-.996-.845 17.696 17.696 0 0 0-1.55-.549c-.325-.095-.682-.194-1.007-.153a5.302 5.302 0 0 0-2.273.799c-1.107.725-1.694 1.81-2.051 3.04-.264.906-.266 1.816.058 2.714.057.16.139.311.21.469 2.451-1.997 5.123-3.595 7.61-5.475Zm-7.084 6.177c.784.76 1.645 1.183 2.648 1.284 1.456.145 2.732-.336 3.876-1.206a3.181 3.181 0 0 0 1.199-1.87 6.14 6.14 0 0 0 .062-2.374c-.053-.33-.15-.652-.243-1.04l-7.542 5.206Z"></path>
</svg>