<svg width="46" height="46" fill="currentColor" viewBox="0 0 24 24" xmlns="http://www.w3.org/2000/svg">
  <path d="M2.913 21.482a.455.455 0 0 0 .202-.05c.103-.05.2-.11.29-.181.168-.137.333-.282.492-.423l1.037-.915c1.213-1.07 2.466-2.175 3.696-3.267.071-.063.144-.125.217-.187.266-.224.54-.456.745-.77.096.122.19.245.282.366.261.341.507.664.78.974.379.434.785.856 1.177 1.264l.327.34c.192.201.438.23.693.083l.022-.013c.092-.05.18-.108.261-.173 1.604-1.353 2.243-2.975 1.953-4.957l.634-.136c.541-.117 1.053-.227 1.575-.343.963-.214 2.101-.47 3.247-.737.206-.045.404-.118.59-.218.417-.231.556-.717.329-1.156-.619-1.196-1.413-2.365-2.499-3.678-.547-.662-1.118-1.323-1.67-1.963l-.79-.917a55.782 55.782 0 0 1-.4-.476 26.572 26.572 0 0 0-.846-.979c-.25-.272-.502-.4-.75-.381-.254.02-.493.193-.71.517-.764 1.139-1.366 2.346-2.036 3.81a101.2 101.2 0 0 0-.603 1.348l-.245.553c-.209.018-.42.034-.625.05-.489.036-.995.073-1.485.153a6.748 6.748 0 0 0-2.918 1.258c-.303.223-.345.44-.15.773.045.073.095.143.151.209a1918.863 1918.863 0 0 0 2.86 3.386l.24.282-.169.125a6.609 6.609 0 0 0-.463.366l-.009.007c-.834.743-1.697 1.512-2.532 2.284a267.46 267.46 0 0 0-2.336 2.197l-.628.595c-.107.095-.2.204-.278.325a.414.414 0 0 0 .04.513.408.408 0 0 0 .302.142Zm10.651-5.722c-.11.563-.525 1.306-1.042 1.874-1.075-1.137-2.054-2.379-3.001-3.58-.852-1.081-1.733-2.198-2.687-3.244a4.063 4.063 0 0 1 1.467-.552c.544-.083 1.102-.138 1.643-.192.231-.023.463-.046.694-.072.025-.002.045 0 .08-.002.874-.04.91-.064 1.29-.852.233-.484.464-.968.694-1.454.374-.787.76-1.6 1.153-2.395.174-.354.373-.69.583-1.045l.233-.396c1.67 2.045 3.147 4.121 4.71 6.318l.787 1.105c-.13.032-.256.065-.38.097-.342.087-.665.17-.99.245l-.427.099c-1.248.289-2.538.588-3.81.864-.4.088-.622.325-.678.726-.026.19-.046.384-.066.571-.016.158-.033.321-.054.48l-.04.319c-.043.357-.089.728-.159 1.086Z"></path>
</svg>