<svg width="46" height="46" fill="currentColor" viewBox="0 0 24 24" xmlns="http://www.w3.org/2000/svg">
  <path d="M17.093 5.983a5.586 5.586 0 0 0-2.896-2.165c-1.26-.423-2.635-.413-3.975.03a7.277 7.277 0 0 0-3.347 2.33c-1.14 1.42-1.56 3.12-1.28 5.194.059.336.158.663.294.976l.037.096a.415.415 0 0 0 .22.24.361.361 0 0 0 .293-.013c.223-.1.185-.296.16-.424a7.83 7.83 0 0 1-.236-1.547c-.14-2.954 1.658-5.348 4.581-6.1 2.047-.525 3.765-.01 5.108 1.529a6.734 6.734 0 0 1 1.42 2.767 4.246 4.246 0 0 1-2.803 5.116 8.69 8.69 0 0 1-1.469.338c-.283.03-.568.036-.852.018l-.308-.008.013-.075c.018-.101.033-.19.05-.277.226-1.142.46-2.474.367-3.825a5.182 5.182 0 0 0-.308-1.506c-.17-.44-.442-.724-.787-.825-.359-.105-.76-.004-1.163.292-.502.369-.84.783-1.036 1.266-.208.518-.424 1.054-.548 1.605-.392 1.736.282 3.22 1.85 4.07a.385.385 0 0 1 .068.054l.006.006-.122.478c-.097.38-.197.772-.307 1.152-.138.473-.285.953-.427 1.417-.13.426-.265.866-.392 1.3-.127.43.01.793.34.904a.617.617 0 0 0 .198.035c.273 0 .502-.205.633-.58.089-.253.167-.513.242-.765l.03-.103c.25-.833.5-1.666.748-2.499l.294-.98c.16-.012.324-.02.483-.028.406-.013.811-.048 1.213-.103 1.723-.27 2.917-.87 3.758-1.89.996-1.207 1.417-2.484 1.287-3.905-.108-1.183-.565-2.326-1.437-3.595Zm-5.788 4.069a38.7 38.7 0 0 1-.207 2.576c-.037.339-.106.668-.179 1.016l-.075.365c-.866-.43-1.397-1.466-1.218-2.406.12-.627.356-1.248.568-1.78.147-.37.434-.668.853-.888.198.337.288.727.258 1.117Z"></path>
</svg>