<svg width="46" height="46" fill="currentColor" viewBox="0 0 24 24" xmlns="http://www.w3.org/2000/svg">
  <path d="M15.576 15.032c-.257.03-.368.235-.496.406-.523.697-1.057.884-1.899.652-.647-.18-.826-.095-1.139.513a4.34 4.34 0 0 1-.395.675 1.19 1.19 0 0 1-1.858.021 1.468 1.468 0 0 0-.11-.122c-.209-.194-.422-.154-.498.124-.064.236-.066.488-.094.733-.043.368-.078.737-.129 1.104-.02.122-.058.241-.113.352-.278.588-.965.655-1.31.102-.17-.271-.246-.605-.339-.918-.074-.25-.09-.516-.17-.762-.097-.304-.241-.35-.535-.218a4.4 4.4 0 0 1-.527.23c-.637.189-1.228-.153-1.408-.792-.084-.3-.126-.559.15-.817.183-.17.274-.44.398-.67A83.964 83.964 0 0 1 9.345 8.63c.819-1.222 1.651-2.435 2.482-3.648.155-.226.34-.432.498-.657.197-.282.46-.371.79-.325.668.094 1.262.38 1.814.744 2.213 1.457 3.658 3.454 4.217 6.062.117.548.286 1.088.204 1.668-.028.194.067.403.085.607.04.33-.024.665-.184.956-.158.274-.368.423-.709.377-.4-.054-.482.013-.549.413-.056.338-.085.681-.136 1.02a2.86 2.86 0 0 1-.105.44c-.145.46-.396.661-.825.675-.473.015-.843-.217-.988-.654-.065-.193-.07-.404-.115-.604-.054-.233-.015-.503-.248-.672Zm-1.118-4.636c-.006-.012-.008-.03-.018-.036a1.144 1.144 0 0 0-.178-.095c-.537-.194-.85-.582-.988-1.125-.047-.186-.09-.373-.147-.556a4.408 4.408 0 0 0-.243-.696c-.238-.467-.74-.656-1.386-.576-.464.058-.56.434-.764.776.672.087.968.495 1.04 1.06a2.348 2.348 0 0 1-.703 2.028c-.622.621-1.48.702-2.236.253-.08-.047-.156-.1-.27-.175L5.519 16.17l.053.077 2.108-.676c.01-.094.015-.134.016-.174.002-.055-.005-.11 0-.165.09-.944.448-1.716 1.35-2.16.92-.452 2.344-.344 2.91.858.028.05.06.098.094.145.165-.057.32-.107.474-.162.162-.059.322-.123.48-.184-.4-1.275.191-2.597 1.455-3.332ZM8.06 19.36l.115-.027c.196-.297.194-.643.228-.98.037-.383.041-.772.117-1.146.114-.56.587-.859 1.099-.724.221.058.444.119.605.318.147.182.364.29.583.163a.897.897 0 0 0 .337-.393c.2-.439.529-.808.943-1.056a1.184 1.184 0 0 1 1.019-.164c.132.038.26.09.395.114.349.064.654.003.864-.323.085-.125.18-.243.283-.354.297-.337.647-.584 1.118-.445.451.133.614.516.689.943.038.216.065.434.105.65.028.153.077.308.268.314.192.006.187-.17.23-.292a.95.95 0 0 0 .039-.201c.04-.341.077-.682.116-1.023.094-.801.623-1.104 1.23-1.012.023.003.05-.02.121-.05l.102-.77c-.65.18-1.225.314-1.785.495-2.664.862-5.319 1.751-7.987 2.601-1.188.379-2.399.689-3.6 1.03-.082.023-.166.04-.264.063.282.402.432.454.806.29.125-.054.239-.135.363-.193.12-.065.247-.114.38-.145.467-.076.85.153 1.014.644.116.35.16.722.254 1.08.053.202.14.395.213.593Zm9.14-6.975a3.324 3.324 0 0 0-.047-.365c-.464-1.798-1.256-3.429-2.523-4.802-.645-.698-1.46-1.135-2.37-1.431l-.76 1.095c.164 0 .247.007.328 0 .845-.076 1.444.472 1.685 1.226.075.234.139.473.202.71.121.456.361.793.846.916.131.04.258.096.376.166.508.275.819.693.847 1.277a9.71 9.71 0 0 1-.042.986c-.011.212-.03.423-.047.661l1.507-.44Zm1.396-.36c-.011-.14-.014-.222-.025-.303-.325-2.487-1.393-4.556-3.454-6.046a8.346 8.346 0 0 0-1.383-.803c-.64-.296-.709-.25-1.076.36-.011.018-.002.049-.002.073.024.016.049.03.074.041.078.028.157.05.234.08.914.342 1.719.841 2.373 1.583a11.514 11.514 0 0 1 2.342 4.173l.315.99.602-.148Zm-7.262 2.296c-.19-.594-.68-.864-1.32-.768-.909.136-1.512.812-1.513 1.727l2.833-.959Zm-2.363-3.64c.595.469 1.177.432 1.56-.078.237-.308.363-.686.359-1.074-.005-.467-.18-.646-.697-.702L8.972 10.68Zm5.97 2.394c.054-.384.105-.723.148-1.063.044-.347.163-.695.02-1.046-.935.182-1.588 1.53-1.186 2.447l1.018-.338Z"></path>
</svg>