<svg width="46" height="46" fill="currentColor" viewBox="0 0 24 24" xmlns="http://www.w3.org/2000/svg">
  <path d="M11.737 21.73c-1.758.04-3.375-.18-4.857-.963-2.388-1.261-3.84-3.268-4.47-5.874-.242-1.004-.379-2.03-.323-3.065.082-1.549.403-3.042 1.113-4.44a7.937 7.937 0 0 1 3.778-3.664 17.774 17.774 0 0 1 4.294-1.394c2.758-.526 5.098.307 7.119 2.165 1.803 1.658 2.968 3.683 3.392 6.113.325 1.862.082 3.669-.584 5.418-1.152 3.028-3.384 4.787-6.527 5.433-.966.194-1.95.285-2.935.272ZM5.257 6.224C3.97 7.307 2.784 11.057 3.222 12.63l7.764-.755a44.376 44.376 0 0 0-5.727-5.652ZM18.602 18.22c1.644-1.505 2.348-4.935 2.07-6.193-1.24.12-2.482.26-3.727.353-1.252.094-2.507.139-3.825.208a123.983 123.983 0 0 0 5.482 5.632Zm-6.29-6.927 5.628-5.46c-1.388-1.702-4.874-2.938-6.224-2.226l.595 7.685ZM5.314 18.27l5.546-5.598c-2.581.346-5.115.26-7.598.696.169 1.875.802 3.506 2.05 4.901h.002Zm5.854 2.416.218-7.373c-1.973 1.795-3.758 3.634-5.56 5.456 1.199 1.287 3.498 1.991 5.342 1.916Zm.954.02c2.1-.075 4.05-.39 5.669-1.722l-5.514-5.61c-.074 2.45-.168 4.866-.155 7.332ZM5.835 5.552c.99.839 1.957 1.607 2.863 2.442.91.84 1.76 1.748 2.636 2.626l.086-.035-.32-6.94c-.34.001-.642-.015-.942.005-.355.024-.734.008-1.055.133-.727.286-1.438.613-2.128.98-.405.211-.759.52-1.14.789Zm7.267 6.069c2.546-.002 5.03-.263 7.51-.63-.24-1.745-.978-3.213-2.092-4.56l-5.418 5.19Z"></path>
  <path d="M8.176 11.08a.55.55 0 0 1-.567-.573c.002-.28.356-.641.632-.644.352-.004.591.223.582.55a.664.664 0 0 1-.647.666Z"></path>
  <path d="M5.423 9.318a.76.76 0 0 1-.232-.019c-.34-.143-.622-.687-.562-1.058.021-.136.068-.245.226-.232.146.011.156.117.143.24-.028.264.113.466.262.665.078.104.15.214.225.322l-.062.082Z"></path>
  <path d="M6.527 10.693c-.009.064.003.133-.025.165-.246.27-.495.54-.754.799a.247.247 0 0 1-.209.067.24.24 0 0 1-.09-.195c.013-.318.593-.873.915-.884a.587.587 0 0 1 .163.048Z"></path>
  <path d="M18.684 13.264c.396-.005.588.165.585.517-.003.344-.22.57-.556.578a.623.623 0 0 1-.624-.621c.001-.29.229-.47.596-.474Z"></path>
  <path d="M17.753 16.025c-.506-.038-.949-.554-.89-.982a.374.374 0 0 1 .199-.259c.152-.053.207.083.223.216.034.288.202.467.46.575.025.01.057.019.07.038.058.085.173.205.15.255-.041.086-.171.13-.212.157Z"></path>
  <path d="M15.78 13.21c.213.09.397.143.551.244a.292.292 0 0 1 .08.276c-.029.063-.19.122-.266.097-.258-.085-.496-.127-.749.024-.06.035-.237 0-.249-.037-.027-.09-.026-.253.03-.291a4.9 4.9 0 0 1 .603-.313Z"></path>
  <path d="M14.125 8.307c.024.289-.118.511-.367.665a.684.684 0 0 1-.737.01c-.276-.158-.438-.69-.317-1.017a.716.716 0 0 1 .828-.441c.374.07.59.348.593.783Zm-1.036-.052c.08.363.169.477.306.394a.343.343 0 0 0 .137-.287c-.06-.26-.248-.167-.443-.107Z"></path>
  <path d="M12.62 5.975c.018-.39.22-.638.579-.764.24-.089.473-.196.696-.321.15-.08.29-.188.441-.03.104.106.07.35-.105.47a1.875 1.875 0 0 1-.62.29c-.269.063-.447.168-.478.462-.018.172-.086.356-.29.323-.221-.036-.223-.246-.222-.43Z"></path>
  <path d="M16.037 6.541c-.283.006-.52-.137-.586-.35-.074-.242.018-.45.274-.619a.714.714 0 0 1 .071-.04c.257-.143.604-.139.772.008.185.163.157.37.1.569-.075.254-.344.427-.631.432Z"></path>
  <path d="M8.202 13.519c.305.002.503.194.489.473-.013.26-.277.473-.572.465-.299-.009-.455-.188-.444-.51.01-.274.203-.431.527-.428Z"></path>
  <path d="M6.56 14.765c-.453.38-1.122.172-1.233-.34a.256.256 0 0 1 .078-.202.183.183 0 0 1 .178.017c.177.323.47.379.797.387.052.002.1.075.18.138Z"></path>
  <path d="M6.261 16.01c-.185.377-.331.697-.502 1.004a.256.256 0 0 1-.24.068.285.285 0 0 1-.128-.223c0-.332.413-.76.87-.85Z"></path>
  <path d="M10.257 18.483a.589.589 0 0 1 .588.608.659.659 0 0 1-.68.63c-.348 0-.645-.255-.653-.559-.009-.337.371-.684.745-.679Z"></path>
  <path d="M10.226 15.477c.338.008.529.212.513.55-.015.33-.315.638-.627.643a.531.531 0 0 1-.537-.548.645.645 0 0 1 .65-.645Z"></path>
  <path d="M7.753 19.07c-.006-.4.388-1.02.686-1.133a.317.317 0 0 1 .263.012.26.26 0 0 1 .033.251c-.207.348-.431.686-.659 1.02-.03.045-.151.087-.168.07a1.363 1.363 0 0 1-.155-.22Z"></path>
  <path d="M14.376 18.685c.008-.44.3-.732.713-.712.377.017.641.317.63.715-.01.444-.34.801-.722.786-.414-.015-.631-.291-.621-.79Z"></path>
  <path d="M12.627 16.589c.004-.396.195-.601.56-.603.396-.002.636.222.629.588-.007.339-.323.605-.702.59-.316-.011-.492-.219-.488-.575Z"></path>
  <path d="M13.638 17.91c.055-.118.12-.231.192-.34.186-.24.36-.476.4-.795.01-.077.13-.174.216-.196.055-.015.18.077.207.147.12.323.024.62-.174.885-.186.25-.403.457-.758.37-.022-.006-.04-.033-.083-.071Z"></path>
  <path d="M9.823 7.638c.069-.125.153-.359.304-.535.177-.206.562-.09.722.187.22.38-.064.96-.498 1.015-.255.033-.523-.252-.528-.667Z"></path>
  <path d="M8.193 6.024c-.365-.001-.594-.23-.587-.59.004-.264.278-.491.594-.494.343-.003.64.268.628.573-.011.292-.285.512-.635.51Z"></path>
  <path d="m9.687 5.83.81-.185c.115.242.078.34-.187.465-.289.137-.484.052-.623-.28Z"></path>
  <path d="M18.323 9.926c-.347.005-.553-.198-.564-.557-.014-.41.326-.798.708-.807.387-.01.631.216.638.59.007.444-.32.767-.782.774Z"></path>
  <path d="M16.535 10.918c-.489-.016-.775-.195-.94-.55a.515.515 0 0 1-.053-.272.245.245 0 0 1 .138-.174.254.254 0 0 1 .2.085c.063.068.082.173.138.247.093.122.208.231.38.149.149-.073.295-.112.393.053.042.07.06.211.017.26-.08.08-.173.148-.273.202Z"></path>
</svg>