<svg width="46" height="46" fill="currentColor" viewBox="0 0 24 24" xmlns="http://www.w3.org/2000/svg">
  <path d="m6.755 10.975 2.54-1.634-1.981-2.34c-.13-.153-.259-.308-.391-.458-.303-.344-.303-.698.003-1.031.027-.03.058-.056.087-.083 1.08-1.01.836-.888 2.047-.457 1.105.394 2.195.847 3.257 1.347.697.33 1.253.407 1.929-.112a6.847 6.847 0 0 1 3.099-1.345c.922-.148 1.83-.14 2.74.118 1.24.352 1.186 1.617.596 2.217a6.851 6.851 0 0 1-1.058.854A91.734 91.734 0 0 1 16.73 9.93a1.113 1.113 0 0 0-.548.768c-.47 2.098-.963 4.191-1.453 6.284-.057.22-.125.437-.204.65a1.278 1.278 0 0 1-.679.756c-.579.277-1.16.551-1.749.804-.61.261-.928.025-.89-.638.098-1.668.195-3.337.294-5.005.005-.092 0-.185 0-.341l-.467.267c-1.389.802-2.745 1.673-4.255 2.236a8.005 8.005 0 0 1-1.857.455c-.617.072-1.096-.233-1.365-.836a5.658 5.658 0 0 1-.51-1.886c-.07-.919-.138-1.838-.192-2.758-.031-.52.201-.865.687-1.103 1.115-.547.99-.468 1.74.186.434.378.88.742 1.32 1.111.05.035.1.067.153.095Zm5.335 7.229.105.048c.266-.122.523-.272.8-.36.468-.146.593-.505.7-.926a705.242 705.242 0 0 1 1.778-6.857 1.939 1.939 0 0 1 .925-1.205c.837-.5 1.64-1.057 2.449-1.603.387-.262.765-.54 1.126-.838.305-.25.258-.442-.11-.567-.802-.272-1.624-.314-2.457-.207-1.075.138-2.006.637-2.903 1.204a1869.26 1869.26 0 0 0-7.445 4.735c-.442.282-.51.287-.902-.072-.494-.452-.976-.916-1.467-1.37-.13-.12-.253-.322-.472-.169-.225.158-.592.195-.553.598.127 1.288.203 2.584.4 3.861.155 1 .483 1.136 1.46.845 1.059-.315 2.03-.82 2.973-1.383.998-.596 1.986-1.211 2.98-1.815.435-.265.755-.117.826.38.035.197.053.397.054.598a464.025 464.025 0 0 1-.113 3.73c-.005.132-.043.262-.057.395-.035.325-.065.652-.097.978Zm-1.994-9.368 2.38-1.518A28.71 28.71 0 0 0 8.39 5.442c-.103-.037-.255-.06-.338-.01-.255.153-.488.344-.644.459L8.73 7.34l1.365 1.495Z"></path>
</svg>