<svg width="46" height="46" fill="currentColor" viewBox="0 0 24 24" xmlns="http://www.w3.org/2000/svg">
  <path d="M17.826 10.382a2.178 2.178 0 0 0-.199-.158c-.204-.145-.41-.298-.61-.445a16.735 16.735 0 0 0-1.397-.962c-2.086-1.238-4.442-2.373-7.202-3.47a70.72 70.72 0 0 0-1.313-.502c-.221-.083-.45-.168-.688-.259a.082.082 0 0 0-.1.037c-.024.042-.053.085-.08.127a.848.848 0 0 0-.153.314c-.081.43-.134.866-.159 1.303l-.037.882a183.064 183.064 0 0 0-.16 4.736c-.023 1.512-.017 3.05-.011 4.536l.005 1.82v.02c-.004.161.005.322.029.48a.698.698 0 0 0 .346.514.633.633 0 0 0 .3.073.812.812 0 0 0 .326-.071c.105-.05.205-.11.3-.178a1.95 1.95 0 0 1 .125-.084l.77-.485c.56-.354 1.141-.72 1.716-1.074.817-.503 1.635-1.005 2.453-1.505 1.02-.623 2.074-1.268 3.108-1.907.969-.6 1.838-1.347 2.646-2.062.33-.292.484-.554.485-.824.001-.275-.158-.547-.5-.856ZM6.927 5.816l.02.008a.9.9 0 0 1 .206.1c.834.617 1.721 1.124 2.797 1.694 1.584.84 2.908 1.552 4.224 2.295.467.263.92.573 1.358.873.159.109.319.218.48.325.105.075.207.155.304.24l.138.116c-.356.401-.758.76-1.197 1.068-.724.503-1.435.993-2.168 1.44-1.571.958-3.177 1.918-4.73 2.847l-1.209.723a.855.855 0 0 1-.18.071l-.008.003c-.124-1.255-.15-10.087-.034-11.803Z"></path>
</svg>