<svg width="46" height="46" fill="currentColor" viewBox="0 0 24 24" xmlns="http://www.w3.org/2000/svg">
  <path d="M20.562 12.621c.022 2.021.052 4.042.062 6.063.004.714-.052 1.429-.056 2.143-.006 1.025-.799 1.649-1.731 1.669-1.91.04-3.822.085-5.732.076-2.214-.011-4.428-.07-6.64-.128a14.116 14.116 0 0 1-1.558-.166c-.628-.087-1.242-.807-1.276-1.49a55.195 55.195 0 0 1-.066-1.977c-.04-3.066-.076-6.133-.108-9.2-.02-1.8-.027-3.602-.055-5.403-.008-.511-.044-1.023.162-1.502.111-.28.262-.542.447-.778.228-.272.565-.374.925-.384.742-.02 1.486-.026 2.226-.074 2.612-.173 5.224-.038 7.837-.019.556.004.978.187 1.387.576.837.795 1.735 1.525 2.602 2.288.33.29.637.608.972.893.31.262.428.592.44.98.02.687.053 1.374.063 2.061.02 1.458.03 2.915.043 4.373h.056ZM14.77 2.48c-.242-.02-.445-.046-.648-.05-1.732-.029-3.464-.055-5.196-.08-.783-.01-1.566-.015-2.349-.02-.398-.002-.797-.014-1.193.006-.554.029-.726.188-.826.732a5.348 5.348 0 0 0-.07 1.559c.033.3.05.602.05.905.008 4.852.015 9.705.019 14.558-.004.11.001.22.015.329.103.63.433 1.003 1.118 1.03 2.653.107 5.306.107 7.96.062 1.346-.023 2.694-.034 4.04-.049.33-.004.66.01.99-.008.539-.03.822-.327.817-.875-.011-1.099-.037-2.197-.058-3.296-.012-.564-.024-1.127-.043-1.69-.045-1.333-.116-2.664-.137-3.997-.023-1.484 0-2.97.001-4.454 0-.106-.01-.211-.016-.32a.915.915 0 0 0-.14-.022c-.84.016-1.677.043-2.516.048a3.194 3.194 0 0 1-.775-.09c-.517-.127-.68-.326-.735-.856-.05-.478-.082-.958-.124-1.437l-.184-1.986Zm1.483 3.373 2.465-.153-2.81-2.55-.06.036.405 2.667Z"></path>
  <path d="M8.054 16.856c-.275-.012-.533-.02-.791-.034-.137 0-.274-.012-.409-.036-.316-.071-.482-.25-.487-.575-.003-.316.02-.631.069-.943.042-.28.185-.398.473-.428.38-.039.762-.061 1.175-.093v-1.143c-.344 0-.672.014-.997-.003-.559-.029-.683-.158-.735-.726a4.316 4.316 0 0 1-.031-.617c.02-.385.194-.577.576-.634.353-.053.71-.092 1.066-.115.389-.025.56.136.571.525.01.354.002.71.002 1.081h1.201c0-.28-.006-.538.001-.795.014-.486.184-.66.67-.705.288-.026.575-.067.862-.078.449-.016.625.13.718.564.06.281.116.564.175.845.002.012.016.022.053.071.364.064.75-.041 1.154-.06.1-.188.056-.375.036-.563-.062-.567.127-.823.688-.916a8.12 8.12 0 0 1 .778-.088c.36-.025.548.094.646.438.093.327.15.664.233 1.033h1.587a.91.91 0 0 1 .14.205c.073.263.144.527.2.795.104.512-.09.83-.598.95-.27.05-.543.084-.817.104-.12.014-.241.025-.388.04v1.105c.095.005.185.014.275.015.356.007.712.015 1.068.015.216 0 .35.114.373.31.052.38.081.764.086 1.148a.54.54 0 0 1-.408.518c-.157.05-.32.073-.485.07-.385-.008-.769-.037-1.152-.064-.239-.017-.341-.116-.343-.37-.002-.382.02-.764.033-1.173l-1.413.093c.024.282.059.54.065.8.011.438-.174.678-.603.743a5.88 5.88 0 0 1-1.026.07c-.433-.01-.645-.237-.679-.672-.021-.271-.028-.543-.04-.79h-1.39c.027.17.054.289.062.41.02.19.025.382.015.574-.04.428-.154.535-.59.592-.273.035-.548.052-.82.087-.577.073-.892-.196-.886-.778.001-.178.04-.355.053-.533 0-.09-.005-.18-.016-.27Zm4.12-1.658v1.14c.444-.055.866.035 1.31-.088v-1.2l-1.31.147Zm1.744-.71h1.252V13.26l-1.252.126v1.102Zm-2.396.111-.074-1.09-1.25.133.23 1.036 1.094-.079Zm-1.873.684h-.953v1.066l.953-.081v-.986Z"></path>
</svg>