<svg width="46" height="46" fill="currentColor" viewBox="0 0 24 24" xmlns="http://www.w3.org/2000/svg">
  <path d="M5.748 17.493a5.622 5.622 0 0 0 1.851.83c1.358.33 2.531.487 3.64.487.195 0 .388-.005.58-.015a4.31 4.31 0 0 0 1.291-.288c.65-.244.998-.877.868-1.576a2.158 2.158 0 0 0-.186-.505 3.801 3.801 0 0 1-.087-.194c1.075-.797 1.217-1.406.576-2.475.292-.197.566-.44.649-.851.079-.397-.081-.712-.31-1.071l.455-.028c.372-.021.723-.042 1.076-.077l.31-.03c.733-.072 1.49-.146 2.23-.266.356-.057.695-.23 1.023-.396l.018-.01c.408-.206.604-.514.565-.89-.049-.473-.292-.814-.685-.962a4.371 4.371 0 0 0-.916-.199l-.094-.014a2.992 2.992 0 0 0-.462-.019c-.068.001-.136.002-.203 0a182.82 182.82 0 0 1-.94-.02c-.718-.016-1.461-.033-2.192-.036-.567-.002-1.127.013-1.72.028-.24.007-.483.013-.732.018l.049-.063c.054-.072.096-.127.137-.184.482-.676.7-1.505.617-2.33-.043-.532-.279-.882-.7-1.04-.513-.195-.97-.126-1.356.203a2.56 2.56 0 0 0-.232.235 2.79 2.79 0 0 1-.2.207c-.124.111-.248.228-.368.341-.306.307-.64.587-.995.835-.411.257-.837.491-1.275.7-.237.12-.482.242-.72.371-.554.302-1.144.627-1.717.985-.235.15-.442.342-.61.566-1.253 1.642-1.587 3.433-.993 5.325a4.451 4.451 0 0 0 1.758 2.408Zm4.885-8.271c-.001.206.128.357.355.414.123.03.25.045.376.045l1.6-.005c1.815-.008 4.557-.02 5.53.011.232.011.462.039.69.082a.706.706 0 0 1 .283.119c.128.093.195.199.19.299-.007.093-.075.18-.2.248a3.058 3.058 0 0 1-.827.32 8.482 8.482 0 0 1-1.26.169 45.3 45.3 0 0 1-1.312.056c-.3.01-.608.02-.912.034a66.29 66.29 0 0 0-1.77.11c-.28.02-.444.144-.461.348-.024.274.184.376.35.459l.179.086c.237.103.462.23.672.381.152.12.226.271.203.418-.024.15-.145.276-.332.345a2.06 2.06 0 0 1-.543.091l-.174.016a1.032 1.032 0 0 1-.196-.006c-.043-.003-.086-.007-.128-.008h-.012c-.202 0-.326.096-.36.277-.04.203.058.35.274.415.04.012.08.02.121.03a.97.97 0 0 1 .155.04l.158.06c.178.06.35.135.516.225.265.155.328.339.223.656-.112.34-.335.544-.663.608-.193.032-.388.05-.583.055l-.107.006c-.19.01-.425.022-.502.287-.076.264.106.397.283.501l.04.024c.138.081.28.165.411.258.285.204.39.397.353.647-.041.272-.255.382-.508.488-.623.25-1.3.337-1.965.252a43.05 43.05 0 0 1-2.528-.365 5.004 5.004 0 0 1-2.05-.889c-.588-.417-1.02-1.053-1.286-1.89-.506-1.596-.233-3.146.812-4.608a1.46 1.46 0 0 1 .363-.368 13.64 13.64 0 0 1 1.12-.687c.578-.31 1.173-.609 1.767-.887 1.112-.522 1.967-1.172 2.617-1.99.091-.115.201-.213.326-.29a.421.421 0 0 1 .219-.073c.027 0 .054.004.08.012a.411.411 0 0 1 .235.248c.187.426.077.852-.04 1.175-.293.808-.741 1.238-1.41 1.355-.236.04-.372.185-.373.396Z"></path>
</svg>