<svg width="46" height="46" fill="currentColor" viewBox="0 0 24 24" xmlns="http://www.w3.org/2000/svg">
  <path d="M18.018 8.923a90.452 90.452 0 0 1-1.126-.604c-.57-.309-1.16-.628-1.75-.926a6.183 6.183 0 0 1-1.82-1.438l-.068-.077a3.947 3.947 0 0 0-.3-.316c-.412-.374-.891-.457-1.424-.248-.442.173-.67.542-.7 1.127-.044.888.185 1.666.68 2.313.036.048.068.1.097.152l.026.047a87.658 87.658 0 0 1-.345-.024c-.286-.021-.555-.04-.824-.046-1.577-.03-3.365-.063-5.116.075-.333.024-.66.096-.971.214-.394.154-.635.498-.679.968-.043.462.28.718.568.89l.046.028c.126.084.262.15.406.195l.291.078a8.05 8.05 0 0 0 1.199.258c.66.072 1.333.114 1.985.155.285.017.57.035.854.055.079.006.158.014.24.023l.066.006c-.482.967-.428 1.257.35 1.938-.311.392-.434.825-.355 1.252.088.48.428.916.96 1.23v.002a.445.445 0 0 1-.033.069c-.287.463-.357.953-.198 1.381.155.414.513.727 1.008.88a5.26 5.26 0 0 0 1.306.216c.13.006.26.009.391.008 1.041 0 2.082-.181 2.936-.33a7.412 7.412 0 0 0 2.288-.835 3.758 3.758 0 0 0 1.45-1.41c1.107-1.874 1.129-3.8.064-5.726-.42-.76-.897-1.26-1.502-1.58Zm-6.925 7.767c.108-.077.22-.149.337-.214.062-.037.124-.073.185-.111.197-.124.268-.273.216-.456-.067-.237-.27-.277-.417-.287l-.182-.011a9.43 9.43 0 0 1-.555-.044.825.825 0 0 1-.56-.335c-.159-.204-.222-.407-.181-.586.04-.175.176-.325.396-.435.14-.065.285-.12.433-.161l.181-.058c.037-.013.076-.023.114-.034a1.47 1.47 0 0 0 .163-.051.343.343 0 0 0-.128-.657h-.024a2.2 2.2 0 0 0-.157.007 1.367 1.367 0 0 1-.227.004 5.503 5.503 0 0 0-.131-.011 2.046 2.046 0 0 1-.545-.094c-.184-.068-.305-.191-.33-.336-.026-.145.045-.302.195-.43.148-.118.308-.22.477-.305l.142-.079a.757.757 0 0 1 .15-.058c.039-.012.078-.024.116-.04.148-.063.342-.176.32-.439-.018-.211-.181-.336-.46-.352-.511-.03-1.023-.055-1.535-.082-.67-.034-1.364-.07-2.046-.111a16.424 16.424 0 0 1-1.634-.167c-.287-.047-.565-.179-.834-.306-.107-.051-.232-.202-.224-.24a.71.71 0 0 1 .284-.38c.167-.083.35-.126.536-.124.939-.043 3.876-.038 5.82-.035.759.001 1.359.002 1.64 0 .17.007.34-.027.494-.098a.539.539 0 0 0 .233-.35c.029-.166-.078-.312-.278-.38-.065-.022-.133-.04-.198-.058a1.738 1.738 0 0 1-.341-.118c-.545-.279-.869-.758-1.05-1.554a1.272 1.272 0 0 1 .036-.786c.064-.16.154-.261.26-.29.103-.03.22.006.351.104.137.11.261.235.37.372a6.516 6.516 0 0 0 2.103 1.658c.25.127.502.252.754.377.467.231.95.47 1.418.718l.072.038c.362.19.735.387 1.036.652.31.283.571.616.77.986.508.92.726 1.777.668 2.619-.091 1.289-.5 2.28-1.25 3.03-.145.14-.307.262-.483.363-.812.483-1.574.762-2.33.854a62.052 62.052 0 0 1-2.703.275c-.396.03-.823-.057-1.344-.277-.291-.123-.465-.3-.49-.5-.024-.203.106-.421.367-.617Z"></path>
</svg>