<svg width="46" height="46" fill="currentColor" viewBox="0 0 24 24" xmlns="http://www.w3.org/2000/svg">
  <path d="M6.52 18.24a5.625 5.625 0 0 1-.83-1.851c-.33-1.358-.487-2.531-.487-3.64 0-.195.005-.388.015-.58a4.33 4.33 0 0 1 .288-1.292c.244-.648.877-.997 1.576-.868.175.041.345.104.504.186.064.03.129.06.195.088.797-1.075 1.406-1.218 2.475-.577.197-.291.44-.566.851-.648.397-.08.712.081 1.071.309l.027-.454c.022-.372.043-.723.078-1.077l.03-.309c.072-.733.146-1.49.265-2.23.058-.356.23-.695.397-1.023l.01-.018c.206-.408.514-.604.89-.565.473.049.814.292.962.685.099.297.166.604.2.916l.013.094c.018.153.024.308.018.462v.203l.02.94c.017.718.034 1.461.037 2.192.002.567-.013 1.127-.028 1.72-.006.24-.013.483-.018.731l.063-.048a3.423 3.423 0 0 1 2.514-.754c.532.043.882.278 1.04.699.195.513.127.97-.203 1.357-.073.082-.152.16-.235.232-.072.063-.142.13-.207.2-.111.124-.228.248-.341.368a7.34 7.34 0 0 0-.835.994 12.74 12.74 0 0 0-.7 1.276c-.12.237-.242.482-.371.719a33.667 33.667 0 0 1-.985 1.717 2.349 2.349 0 0 1-.566.61c-1.642 1.253-3.433 1.587-5.325.994A4.452 4.452 0 0 1 6.52 18.24Zm8.271-4.885c-.206.001-.357-.128-.414-.356a1.56 1.56 0 0 1-.045-.376l.005-1.6c.008-1.814.02-4.556-.011-5.53a5.013 5.013 0 0 0-.082-.689.704.704 0 0 0-.119-.283c-.092-.128-.199-.195-.299-.19-.094.006-.18.075-.248.199a3.09 3.09 0 0 0-.32.828 8.482 8.482 0 0 0-.169 1.26c-.027.436-.042.882-.056 1.312-.01.299-.02.608-.034.911a69.51 69.51 0 0 1-.11 1.771c-.02.28-.144.444-.348.461-.274.023-.376-.184-.459-.35l-.086-.18a3.592 3.592 0 0 0-.382-.671c-.118-.152-.27-.226-.417-.203-.15.024-.276.145-.345.332a2.055 2.055 0 0 0-.092.543 4.835 4.835 0 0 1-.015.173c-.004.066-.002.132.006.197.003.043.007.085.008.128v.012c0 .202-.096.326-.277.36-.203.039-.35-.059-.415-.274-.012-.04-.02-.08-.03-.121a.988.988 0 0 0-.04-.155 8.215 8.215 0 0 1-.06-.158 3.264 3.264 0 0 0-.225-.516c-.155-.265-.34-.328-.657-.223-.34.111-.543.335-.607.663-.032.192-.05.387-.055.583l-.006.107c-.01.19-.022.425-.287.502-.264.076-.397-.106-.501-.283l-.024-.04a5.466 5.466 0 0 0-.258-.411c-.204-.285-.397-.39-.647-.353-.272.041-.382.255-.488.508-.25.623-.337 1.3-.252 1.965.081.74.197 1.543.365 2.527.138.742.442 1.443.889 2.051.417.588 1.053 1.02 1.89 1.286 1.596.506 3.146.232 4.608-.812a1.46 1.46 0 0 0 .368-.363c.202-.302.463-.702.687-1.12.31-.578.609-1.173.887-1.767.522-1.112 1.173-1.968 1.99-2.617a1.27 1.27 0 0 0 .29-.326.424.424 0 0 0 .073-.22.277.277 0 0 0-.012-.08.412.412 0 0 0-.248-.234c-.426-.187-.852-.077-1.175.04-.808.293-1.239.74-1.355 1.41-.04.236-.185.371-.396.372Z"></path>
</svg>