<svg width="46" height="46" fill="currentColor" viewBox="0 0 24 24" xmlns="http://www.w3.org/2000/svg">
  <path d="M17.503 5.745c.386.561.668 1.188.83 1.85.33 1.358.487 2.531.487 3.64 0 .195-.005.388-.015.58-.03.442-.127.878-.288 1.292-.244.648-.877.997-1.576.867a2.158 2.158 0 0 1-.505-.185 4.943 4.943 0 0 0-.194-.088c-.797 1.075-1.407 1.218-2.475.576-.198.292-.44.566-.851.649-.397.079-.712-.081-1.071-.309-.01.154-.02.305-.028.453-.022.373-.042.724-.077 1.078l-.03.308c-.072.734-.146 1.492-.266 2.23-.058.356-.23.696-.396 1.024l-.01.018c-.206.408-.514.604-.89.565-.473-.049-.815-.292-.962-.685a4.375 4.375 0 0 1-.2-.916l-.013-.094a2.99 2.99 0 0 1-.019-.463c0-.067.002-.135 0-.202l-.02-.94c-.016-.718-.033-1.461-.036-2.192-.002-.567.013-1.127.028-1.72.006-.24.013-.483.018-.732l-.064.049a3.424 3.424 0 0 1-2.514.754c-.531-.043-.881-.279-1.04-.7-.194-.513-.126-.969.204-1.356.073-.082.152-.16.235-.232.072-.063.141-.13.207-.2.11-.124.228-.248.34-.368a7.38 7.38 0 0 0 .836-.995c.257-.411.491-.837.7-1.275.12-.237.242-.482.37-.72.303-.554.628-1.143.985-1.717.151-.235.343-.442.567-.61 1.642-1.252 3.433-1.587 5.324-.993a4.451 4.451 0 0 1 2.409 1.759ZM9.23 10.629c.206-.001.357.128.415.356.03.123.045.249.044.375.001.288-.001.868-.004 1.6-.008 1.815-.02 4.557.011 5.53.011.232.038.462.082.69a.706.706 0 0 0 .118.283c.093.128.2.195.3.19.093-.006.18-.075.248-.2.146-.258.254-.537.32-.827.088-.415.144-.836.168-1.26.028-.436.042-.882.057-1.312.01-.299.02-.608.034-.911.024-.514.059-1.077.109-1.771.02-.28.145-.444.35-.461.272-.024.375.184.457.35l.087.18c.102.236.23.461.381.67.12.153.271.227.418.204.15-.024.276-.145.345-.332.055-.176.085-.359.091-.543l.015-.174a1.04 1.04 0 0 0-.005-.196c-.003-.043-.007-.085-.008-.128v-.012c0-.202.096-.326.277-.36.203-.04.35.058.415.274.012.04.02.08.029.121.01.053.023.105.04.155.021.052.041.105.06.158.06.178.136.35.225.516.155.265.34.328.657.223.34-.112.544-.335.608-.663.032-.193.05-.387.055-.583l.005-.107c.01-.19.023-.425.288-.502.263-.076.397.106.5.283l.025.04c.08.138.165.28.258.411.204.285.397.39.646.353.273-.041.383-.255.488-.508.251-.623.338-1.3.253-1.965a43.124 43.124 0 0 0-.365-2.528 5.006 5.006 0 0 0-.889-2.05c-.417-.588-1.053-1.02-1.89-1.286-1.596-.506-3.147-.233-4.608.812a1.475 1.475 0 0 0-.368.363c-.203.302-.463.702-.688 1.12a37.36 37.36 0 0 0-.887 1.767c-.52 1.112-1.172 1.967-1.99 2.617a1.304 1.304 0 0 0-.29.326.422.422 0 0 0-.072.22c0 .026.004.053.012.08a.41.41 0 0 0 .248.234c.426.187.851.077 1.175-.04.808-.293 1.238-.741 1.355-1.41.04-.236.185-.372.395-.372Z"></path>
</svg>