<svg width="46" height="46" fill="currentColor" viewBox="0 0 24 24" xmlns="http://www.w3.org/2000/svg">
  <path d="M13.292 16.343c.033.323.059.606.091.887.104.896.015 1.784-.118 2.667a1.79 1.79 0 0 1-.656 1.114c-.37.31-.706.243-1.036-.11-.298-.32-.382-.681-.38-1.092.002-1.127 0-2.254-.002-3.38a1.366 1.366 0 0 0-.025-.165c-.554-.029-1.114-.046-1.671-.09a16.23 16.23 0 0 1-1.223-.16.582.582 0 0 1-.324-.16c-.07-.076-.13-.248-.09-.318.127-.224.1-.454.093-.683-.036-1.236-.082-2.471-.124-3.707-.035-1.057-.088-2.114-.098-3.172-.01-1.1.196-2.162.727-3.137.561-1.03 1.355-1.813 2.538-2.062 1.389-.291 2.525.213 3.379 1.301.341.435.576.964.802 1.477.47 1.086.746 2.246.813 3.428.116 1.782.21 3.565.308 5.348.022.41.046.822-.154 1.21-.052.102-.022.242-.043.362-.05.295-.125.384-.426.401-.506.029-1.014.031-1.522.04-.271.006-.543.002-.86.002Zm2.02-.858c-.03-.253-.063-.413-.07-.575-.06-1.62-.101-3.24-.176-4.86-.05-1.056-.13-2.113-.418-3.137-.216-.767-.475-1.522-.9-2.203-.769-1.232-2.455-1.627-3.657-.511-.859.797-1.267 1.806-1.348 2.92-.09 1.244-.07 2.498-.052 3.747.02 1.373.104 2.746-.026 4.118-.011.118-.001.239-.001.397 2.227.096 4.417.15 6.649.104Zm-3.137 4.528h.112c.259-1.222.174-2.454.098-3.705h-.417l.207 3.705Z"></path>
</svg>