<svg width="46" height="46" fill="currentColor" viewBox="0 0 24 24" xmlns="http://www.w3.org/2000/svg">
  <path d="M10.404 12.246c.643-.05 1.258-.104 1.873-.147.163-.012.327-.007.489.015a.392.392 0 0 1 .352.352c.034.215-.048.407-.244.475-.27.097-.552.157-.838.178-.478.029-.96.008-1.483.008-.045.978-.327 1.827-.837 2.68 1.219.069 2.364.16 3.51.181.4.008.806-.143 1.204-.245.435-.113.652-.075.756.172.111.265-.03.498-.427.688a3.408 3.408 0 0 1-1.65.297 35.147 35.147 0 0 1-2.584-.232 2.54 2.54 0 0 0-1.663.323c-.43.254-.661.122-.627-.38.03-.269.12-.528.261-.758.398-.69.843-1.355 1.011-2.152.02-.094.037-.188.047-.284 0-.066-.005-.132-.016-.198-.28 0-.551.003-.823 0a1.907 1.907 0 0 1-.41-.028c-.22-.052-.376-.195-.361-.436.014-.234.16-.372.4-.394l1.076-.095c-.101-.36-.187-.7-.293-1.034-.287-.906-.113-1.75.391-2.519.89-1.358 2.985-2.233 4.725-.914.243.2.46.43.645.685.09.12.133.27.123.42a.502.502 0 0 1-.218.352c-.107.05-.3.017-.409-.053-.169-.11-.289-.292-.446-.425-1.574-1.33-3.59-.27-3.938 1.239a1.771 1.771 0 0 0-.048.53c.022.219.065.435.128.646.094.34.207.677.324 1.053Z"></path>
  <path d="M21.85 11.177a10.33 10.33 0 0 0-2.292-5.402c-1.048-1.285-2.174-2.201-3.444-2.799a7.341 7.341 0 0 0-3.177-.727 7.74 7.74 0 0 0-1.01.066c-1.396.18-2.81.585-4.449 1.274-2.217.932-3.761 2.534-4.587 4.76a10.756 10.756 0 0 0-.654 4.799c.175 1.829.615 3.247 1.385 4.46 1.114 1.752 2.516 2.905 4.288 3.526 1.074.376 2.257.565 3.72.595.862 0 1.664-.104 2.439-.205l.147-.019c1.693-.219 3.13-.83 4.396-1.866a8.242 8.242 0 0 0 2.602-3.664c.605-1.719.814-3.289.637-4.798Zm-1.998 5.456c-.958 1.94-2.569 3.212-4.79 3.782-.267.069-.543.118-.834.17-.145.026-.296.053-.455.084-.69.104-1.623.12-2.137.12-.228 0-.375-.004-.379-.004-1.35-.016-2.51-.245-3.548-.7-1.384-.606-2.49-1.63-3.38-3.128-.537-.903-.878-1.973-1.072-3.365a10.269 10.269 0 0 1 .631-5.237c.698-1.77 1.953-3.113 3.73-3.99.411-.204 2.08-.693 2.518-.782a12.236 12.236 0 0 1 1.872-.225c2.489-.06 3.471.34 4.991 1.501 1.591 1.215 2.713 2.742 3.334 4.538.843 2.447.682 4.881-.48 7.236Z"></path>
</svg>