<svg width="46" height="46" fill="currentColor" viewBox="0 0 24 24" xmlns="http://www.w3.org/2000/svg">
  <path d="M8.798 12.959c0 .53.007 1.039-.002 1.547-.009.535-.02 3.483-.058 4.017a1.586 1.586 0 0 1-.168.629c-.198.364-.653.367-.868.012a1.233 1.233 0 0 1-.157-.504c-.042-.424-.086-3.262-.074-3.687.066-2.35.137-4.701.233-7.05.027-.672.138-1.34.225-2.007.02-.191.072-.378.154-.552.07-.137.19-.291.325-.343 2.112-.81 4.171-.621 6.173.377a3.653 3.653 0 0 1 1.547 1.385c.571.95.584 1.9-.031 2.832-.55.832-1.298 1.456-2.169 1.926-1.571.848-3.244 1.344-5.04 1.384a.352.352 0 0 0-.09.034Zm-.026-1.32c.36-.049.672-.097.986-.132a10.144 10.144 0 0 0 3.663-1.171 4.919 4.919 0 0 0 1.662-1.388c.4-.536.397-1.09.067-1.653-.249-.425-.615-.733-1.029-.988-1.438-.887-3.005-1.07-4.641-.826-.638.095-.702.184-.706.831-.012 1.675-.015 3.351-.02 5.026-.001.094.01.188.018.301Z"></path>
</svg>