<svg width="46" height="46" fill="currentColor" viewBox="0 0 24 24" xmlns="http://www.w3.org/2000/svg">
  <path d="M13.805 6.205c.549 0 1.052-.004 1.556 0 .45.005.904-.021 1.347.036.948.123 1.49.683 1.587 1.635.062.617.062 1.24.091 1.9.233.038.463.09.69.153 1.014.332 1.781.938 2.12 1.98.335 1.038.07 1.898-.79 2.572-.499.39-1.05.68-1.738.771.05.44.107.864.145 1.291.05.54.087 1.08.124 1.62a1.53 1.53 0 0 1-.02.324c-.15.978-.613 1.407-1.613 1.44-.956.031-1.914.017-2.87.047-.695.02-1.133-.286-1.376-.924a7.651 7.651 0 0 0-.436-.917c-.568-1.045-1.902-1.119-2.687-.497-.544.43-.86 1.007-1.062 1.653-.03.09-.05.184-.058.279-.024.3-.192.482-.477.532-.495.087-.997.22-1.493.208-.927-.021-1.851-.132-2.776-.208a1.317 1.317 0 0 1-.24-.054c-.767-.212-1.067-.582-1.073-1.371-.007-1.004.006-2.008.01-3.012 0-.122.002-.244-.003-.365-.014-.374.135-.54.522-.571.312-.025.624-.053.937-.07.994-.05 1.787-1.673 1.076-2.677-.288-.406-.719-.614-1.222-.658-.23-.02-.462-.04-.692-.068a.348.348 0 0 1-.333-.353c-.001-.974-.152-1.952.069-2.92.02-.092.047-.184.077-.274.22-.655.667-1.06 1.363-1.123.556-.05 1.117-.04 1.676-.049.422-.007.843-.001 1.281-.001.024-.072.051-.147.075-.223.43-1.34 1.37-2.18 2.71-2.521 1.211-.308 2.77.157 3.298 1.772.072.218.14.437.205.643ZM3.77 10.478h.309c1.687-.004 2.793 1.368 2.575 2.964-.076.553-.346 1.021-.654 1.473a2.053 2.053 0 0 1-1.066.786 2.45 2.45 0 0 1-1.38.094 1.001 1.001 0 0 0-.017.177c.085.863.166 1.727.262 2.589.033.295.107.362.42.399.501.059 1.004.125 1.508.14.761.025 1.524.007 2.288.007.006-.007.018-.016.022-.027.027-.091.05-.183.08-.273.256-.804.638-1.53 1.343-2.04.609-.442 1.289-.65 2.043-.534 1.294.2 2.027 1.025 2.433 2.199.056.164.097.333.149.509.156 0 .29.004.425 0 .546-.02 1.092-.037 1.638-.061a21.29 21.29 0 0 0 1.104-.072c.377-.037.451-.103.463-.48.013-.377-.012-.758-.03-1.136-.03-.595-.067-1.19-.106-1.784a1.812 1.812 0 0 0-.063-.437c-.147-.454-.04-.698.417-.834.3-.089.61-.142.915-.216.4-.092.77-.29 1.066-.573a.973.973 0 0 0 .315-.726 1.792 1.792 0 0 0-.315-1.076c-.366-.509-.87-.816-1.465-.98a.688.688 0 0 0-.385.04c-.378.134-.611.023-.679-.377a5.987 5.987 0 0 1-.072-.85c-.011-.447.015-.895-.004-1.342-.027-.642-.234-.87-.861-.996a1.891 1.891 0 0 0-.325-.036c-.656-.016-1.311-.026-1.967-.045-.18-.005-.327-.008-.482.138-.221.207-.494.156-.669-.097a1.789 1.789 0 0 1-.21-.48c-.086-.271-.143-.55-.224-.823-.132-.448-.436-.743-.868-.91-.649-.25-1.286-.225-1.894.119-.829.468-1.437 1.124-1.667 2.065-.072.295-.251.405-.516.426-.191.01-.382.008-.573-.005-.737-.029-1.47-.103-2.21-.007-.459.059-.7.274-.826.709-.222.77-.122 1.56-.247 2.383Z"></path>
</svg>