<svg width="46" height="46" fill="currentColor" viewBox="0 0 24 24" xmlns="http://www.w3.org/2000/svg">
  <path d="M14.834 18.362c-.036.24-.06.428-.095.615-.123.67-.43 1.26-.816 1.809-.32.454-.789.705-1.32.828-1.297.298-2.448-.031-3.473-.85a1.927 1.927 0 0 1-.635-.934c-.173-.545-.337-1.094-.338-1.675 0-.052-.011-.104-.023-.203-.206 0-.406-.003-.606 0-.913.011-1.822-.025-2.716-.235a5.348 5.348 0 0 1-.588-.162c-.72-.258-1.17-.753-1.192-1.538a39.3 39.3 0 0 1 .028-2.328c.017-.53.072-1.06.103-1.59.092-1.524.175-3.047.274-4.57.025-.27.072-.54.14-.803.112-.494.415-.833.905-.954a7.12 7.12 0 0 1 1.32-.225c.706-.038 1.414-.012 2.122-.013h.357c.098-.737.303-1.42.823-1.965.368-.385.74-.765 1.235-.988a3.494 3.494 0 0 1 1.426-.306c.922-.006 1.788.186 2.48.85.672.645.996 1.476 1.187 2.377h.425c.992-.012 1.985-.046 2.976-.031 1.287.018 1.74.742 1.803 1.774.027.446.016.895.023 1.342a.87.87 0 0 0 .013.12c.065.436.028.488-.414.526-.326.03-.64.132-.924.297-.76.43-1.108 1.14-1.292 1.945-.057.292-.071.59-.042.886.028.4.285.664.624.852.358.2.765.297 1.175.279.177-.007.353-.028.53-.021.134.002.268.027.396.072.279.107.39.36.252.624a1.15 1.15 0 0 0-.103.548 97.514 97.514 0 0 1-.066 2.164 2.35 2.35 0 0 1-.077.442c-.107.449-.385.757-.824.877a4.098 4.098 0 0 1-1 .158c-1.211.018-2.422.006-3.633.006h-.44Zm4.525-9.8v-1.26c0-.082-.006-.164-.014-.246-.035-.368-.085-.432-.464-.493-.348-.057-.7-.107-1.05-.13a18.543 18.543 0 0 0-2.935.005c-.287.026-.356-.02-.44-.305-.074-.247-.119-.502-.178-.753-.14-.582-.388-1.104-.853-1.498-.689-.584-1.496-.572-2.319-.43a1.381 1.381 0 0 0-.526.206c-.645.438-1.171.975-1.34 1.778-.035.16-.081.317-.122.475-.068.262-.214.428-.5.458-.662.067-1.323.143-1.983.218-.432.05-.87.069-1.292.16-.776.168-.683.175-.766.84-.126 1-.194 2.007-.262 3.012a94.282 94.282 0 0 0-.156 3.06 39.615 39.615 0 0 0-.014 2.125c.01.516.118.63.625.749.223.06.451.1.682.12.773.043 1.547.065 2.32.098.204 0 .407.014.61.041.461.082.61.285.615.756 0 .573.1 1.142.296 1.68.107.286.25.55.499.733.754.559 1.581.823 2.526.62a1.234 1.234 0 0 0 .86-.622c.29-.504.414-1.05.535-1.613.204-.946.424-1.169 1.307-1.201.108-.004.217-.013.325-.013 1.115.002 2.23.008 3.344.009.255 0 .515.04.8-.08l.207-2.437c-.073-.01-.138-.02-.204-.028a3.642 3.642 0 0 1-1.491-.51c-.763-.477-1.145-1.188-1.064-2.066.146-1.565.8-2.819 2.364-3.42a.272.272 0 0 0 .058-.037Z"></path>
</svg>