<svg width="46" height="46" fill="currentColor" viewBox="0 0 24 24" xmlns="http://www.w3.org/2000/svg">
  <path d="M14.37 14.658c0 .165.002.33-.001.494-.008.35-.088.476-.306.496-.395.037-.597-.083-.647-.446a16.074 16.074 0 0 1-.16-1.636c-.027-.81.002-1.62-.013-2.43-.011-.659-.055-1.316-.075-1.974a2.643 2.643 0 0 1 .039-.575c.034-.175.103-.344.34-.345.238-.002.354.121.383.342.064.49.151.978.182 1.47.094 1.534.166 3.07.247 4.604h.01Z"></path>
  <path d="M4.826 8.824c-.009-.15.013-.3.063-.443.063-.142.175-.332.363-.268.145.06.26.176.323.32.063.197.094.402.092.608.02.439.03.878.031 1.318.004 1.497.001 2.995.001 4.492 0 .11.003.22-.002.33-.015.32-.117.464-.337.482-.264.021-.54-.163-.593-.412a1.581 1.581 0 0 1-.02-.328c-.001-1.017.074-5.082.079-6.099Z"></path>
  <path d="M9.503 15.752a.378.378 0 0 1-.38-.363c-.03-.733-.057-1.428-.088-2.122-.07-1.535-.142-3.07-.217-4.606-.024-.485.132-.66.543-.575.214.045.354.242.373.574.03.52.05 1.042.065 1.564.048 1.687.09 3.376.139 5.064.011.392-.047.46-.431.463h-.004Z"></path>
  <path d="M6.853 15.668a.324.324 0 0 1-.323-.271.593.593 0 0 1-.006-.056c-.073-1.303-.154-2.605-.208-3.909-.039-.947-.042-1.895-.057-2.843-.003-.172-.059-.377.18-.448.152-.045.363.14.399.393.053.38.08.765.098 1.149.062 1.33.114 2.662.172 3.993.023.522.055 1.043.075 1.564.002.038.001.075 0 .114a.33.33 0 0 1-.33.314Z"></path>
  <path d="M17.32 15.647a.354.354 0 0 1-.352-.333 1.794 1.794 0 0 1-.004-.123c.007-1.813.016-3.627.027-5.441.003-.357.036-.713.061-1.07.007-.094.01-.21.064-.275.079-.093.2-.198.309-.203.073-.004.17.147.225.246.036.065.02.16.02.243a8428.161 8428.161 0 0 1 .002 6.622.351.351 0 0 1-.352.334Z"></path>
  <path d="M8.074 15.674a.291.291 0 0 1-.292-.273c-.156-2.36-.388-4.704-.306-7.073a.24.24 0 0 1 .476-.022c.143 1.096.417 5.822.414 7.076a.292.292 0 0 1-.292.292Z"></path>
  <path d="M11.535 15.745a.29.29 0 0 1-.281-.225 1.563 1.563 0 0 1-.042-.259c-.044-.74-.1-1.479-.108-2.218-.017-1.455-.006-2.91-.004-4.364 0-.057.003-.115.007-.171a.33.33 0 0 1 .347-.315c.14.011.172.115.184.372.052 1.165.1 2.33.133 3.494.032 1.097.043 2.194.06 3.292 0 .046-.003.092-.009.137a.29.29 0 0 1-.287.257Z"></path>
  <path d="M16.1 15.666a.285.285 0 0 1-.284-.268c-.024-.389-.05-.775-.06-1.161-.036-1.47-.066-2.939-.09-4.408-.01-.48-.011-.96.007-1.44a.384.384 0 0 1 .172-.283c.18-.09.313.028.332.278.036.493.072.986.087 1.48.051 1.647.097 3.294.136 4.941.005.195-.005.39-.014.59a.285.285 0 0 1-.285.271Z"></path>
  <path d="M3.778 15.583a.32.32 0 0 1-.318-.284 1.473 1.473 0 0 1-.01-.168c.017-2.209.036-4.418.058-6.627 0-.054-.016-.123.01-.161.053-.082.128-.2.2-.204.07-.004.281.109.293.184.057.379.028.762.034 1.144.028 1.879.042 3.758.059 5.638 0 .058-.002.116-.006.177a.32.32 0 0 1-.32.3Z"></path>
  <path d="M12.965 15.182c-.002.388-.094.529-.315.517-.204-.01-.28-.14-.288-.505-.037-1.535-.07-3.07-.113-4.605-.017-.644-.059-1.287-.078-1.93-.005-.178-.074-.413.21-.46.173-.028.283.123.304.453.072 1.134.137 2.27.197 3.405.016.3.087 2.385.083 3.125Z"></path>
  <path d="M15.314 15.005a2.106 2.106 0 0 1-.044.367c-.03.156-.133.266-.288.218a.39.39 0 0 1-.23-.236 3.44 3.44 0 0 1-.066-.655 717.759 717.759 0 0 1-.123-3.503c-.027-.81-.054-1.62-.079-2.43a.757.757 0 0 1 .027-.325.33.33 0 0 1 .224-.183c.082-.002.192.087.243.167.048.073.04.185.045.28.092 1.716.297 5.916.291 6.3Z"></path>
  <path d="M18.649 15.392a.244.244 0 0 1-.19.218c-.29.068-.397-.072-.392-.449.031-2.117.05-4.234.075-6.35a1.7 1.7 0 0 1 .033-.45c.024-.084.157-.21.208-.197a.363.363 0 0 1 .233.22c.032.232.046.465.04.699.02 1.512.046 3.024.053 4.536.003.59-.037 1.18-.06 1.771v.002Z"></path>
  <path d="M19.576 11.749c0 1.057-.002 2.115.001 3.172.001.37-.061.501-.266.515-.226.016-.34-.136-.341-.5-.004-1.772-.003-3.543.003-5.315.002-.342.047-.684.081-1.025a.738.738 0 0 1 .087-.314.292.292 0 0 1 .223-.127.289.289 0 0 1 .18.178c.024.107.03.217.02.326.002 1.03.002 2.06.001 3.09h.011Z"></path>
  <path d="M10.711 15.756a.251.251 0 0 1-.25-.235 24.737 24.737 0 0 0-.03-.408c-.079-.985-.177-1.97-.236-2.955-.071-1.18-.109-2.36-.16-3.54a.782.782 0 0 1 .006-.287.393.393 0 0 1 .183-.228c.143-.05.227.06.258.195.029.106.048.214.058.323.067 1.358.119 2.717.2 4.075.052.89.146 1.778.219 2.668.004.046.005.093.004.142a.252.252 0 0 1-.252.25Z"></path>
  <path d="M19.934 8.708v-.206c.002-.173.015-.366.237-.36.223.007.214.21.219.376l.169 6.172c.004.138-.003.275-.02.41-.021.149-.099.26-.269.258-.175 0-.238-.117-.249-.268-.023-.356-.052-.713-.056-1.07-.008-.781-.031-4.324-.031-5.312Z"></path>
  <path d="M20.875 15.975c-.023-.405-.058-.772-.06-1.14a3.272 3.272 0 0 1 .073-.769.397.397 0 0 1 .276-.244c.168-.017.185.15.202.295.07.57.16 1.14.223 1.71.067.594-.105.771-.689.796-.478.02-.956.068-1.434.104-.123.009-.245.021-.368.027-.15.007-.285-.028-.302-.204-.016-.165.095-.259.24-.285.499-.088.998-.165 1.498-.245.093-.015.187-.025.341-.045Z"></path>
  <path d="M2.967 16.526c.411 0 .82-.005 1.23.003a1.64 1.64 0 0 1 .525.062c.103.037.232.183.23.277-.002.099-.133.215-.235.285-.07.048-.185.04-.28.04-.507.004-1.014.01-1.521-.001-.484-.011-.64-.17-.648-.648-.008-.41-.004-.822-.001-1.233.001-.176-.024-.38.227-.411.17-.022.28.128.31.41.034.312.06.626.093.94.018.093.04.185.07.276Z"></path>
  <path d="M20.852 7.311c-.415-.015-.836-.032-1.258-.046a3.652 3.652 0 0 0-.206 0c-.157.002-.326-.002-.335-.208-.01-.2.168-.246.314-.256.259-.02.52-.004.78-.003.288 0 .575.008.862-.002.31-.01.495.097.507.4.025.63.01 1.261.005 1.891 0 .066-.017.232-.06.275a.48.48 0 0 1-.302.136c-.07.008-.206-.138-.229-.234a3.4 3.4 0 0 1-.075-.69c-.011-.396-.003-.792-.003-1.263Z"></path>
  <path d="M2.941 7.566c-.049.504-.092.939-.133 1.374-.011.11.005.228-.033.326l-.001.003a.22.22 0 0 1-.396.006.535.535 0 0 1-.024-.243c.005-.467.007-.934.023-1.401.012-.377.157-.564.53-.617.515-.073 1.036-.112 1.555-.16a.494.494 0 0 1 .281.032.399.399 0 0 1 .178.243.265.265 0 0 1-.146.214 3.86 3.86 0 0 1-.642.114c-.38.042-.762.07-1.192.109Z"></path>
</svg>