<svg width="46" height="46" fill="currentColor" viewBox="0 0 24 24" xmlns="http://www.w3.org/2000/svg">
  <path d="M14.932 5.24a6.028 6.028 0 0 0-3.127-.765 7.02 7.02 0 0 0-2.778.482c-.82.329-1.42.774-1.835 1.36a1.85 1.85 0 0 0-.283.696c-.055.28.045.484.276.56.267.089.436-.084.579-.285l.05-.071c.16-.224.324-.456.53-.61a4.48 4.48 0 0 1 1.038-.573c.79-.308 1.665-.407 2.752-.31.753.066 1.388.24 1.943.534.793.418 1.299.95 1.546 1.624.35.955.156 1.721-.573 2.277-.417.303-.852.578-1.304.824l-.021.012c-.218.125-.45.236-.675.344-.158.076-.32.155-.479.238-1.086.57-1.833 1.322-2.283 2.3a2.884 2.884 0 0 0-.242.751 1.477 1.477 0 0 0 .286 1.138c.122.164.248.199.332.199h.003a.373.373 0 0 0 .298-.166l.197-.25c.175-.22.355-.448.514-.686.495-.747 1.17-1.356 2.12-1.918a19.736 19.736 0 0 0 1.71-1.1 5.4 5.4 0 0 0 1.032-.997c.626-.8.833-1.713.615-2.715-.27-1.239-1.017-2.211-2.221-2.892Z"></path>
  <path d="M10.412 19.513a1.4 1.4 0 0 0 .204.015c.33-.004.65-.113.915-.312s.46-.477.56-.795a1.633 1.633 0 0 0-.303-1.4 1.216 1.216 0 0 0-1.017-.499c-.262.001-.305.02-.735.273-.3.167-.533.432-.663.752-.13.319-.148.673-.052 1.004.16.554.527.877 1.091.962Zm.179-2.115.07.091c.07.078.126.167.168.262a.767.767 0 0 1 .03.418.285.285 0 0 1-.141.155.427.427 0 0 1-.29.066c-.052-.015-.211-.058-.2-.37.011-.336.118-.52.363-.622Z"></path>
</svg>