<svg width="46" height="46" fill="currentColor" viewBox="0 0 24 24" xmlns="http://www.w3.org/2000/svg">
  <path d="M7.961 6.173c.288.177.472-.03.607-.182l.013-.015c.417-.468.973-.754 1.803-.928 1.277-.268 2.357-.058 3.3.64 1.182.876 1.811 2.713.767 4.155-.28.376-.611.71-.984.991-.47.364-.97.706-1.454 1.037-.192.13-.383.262-.573.394a3.739 3.739 0 0 0-1.563 2.287c-.092.401-.149.806-.21 1.235a34.87 34.87 0 0 1-.087.6.083.083 0 0 0 0 .023c.01.072.018.148.027.226.018.207.052.411.1.613.073.268.298.433.603.44h.02a.631.631 0 0 0 .608-.4c.078-.195.128-.4.15-.61.028-.223.05-.449.07-.668.03-.3.06-.61.106-.912a2.424 2.424 0 0 1 .998-1.644c.156-.114.314-.224.471-.334.295-.207.6-.42.885-.65l.068-.054c.502-.403 1.02-.82 1.472-1.29a3.798 3.798 0 0 0 1.07-2.39c.117-1.722-.549-3.085-1.98-4.052-1.599-1.08-3.346-1.144-5.342-.196-.42.207-.77.535-1.006.941-.178.293-.152.612.061.743Z"></path>
  <path d="M10.57 18.332c-.277 0-.5.075-.653.228-.154.154-.233.377-.233.663a1.035 1.035 0 0 0 .299.74.817.817 0 0 0 .572.24h.021c.455-.013.882-.467.896-.953a.88.88 0 0 0-.248-.639.91.91 0 0 0-.654-.279Z"></path>
</svg>