<svg width="46" height="46" fill="currentColor" viewBox="0 0 24 24" xmlns="http://www.w3.org/2000/svg">
  <path d="M15.575 6.457c.157-.104.292-.198.43-.286.998-.635 2.082-.766 3.21-.48 1.917.486 2.586 2.477 1.988 4.005-.186.477-.489.919-.79 1.34-.332.464-.838.698-1.381.843-.291.078-.587.135-.91.207-.033.125-.07.254-.102.385-.172.696-.555 1.277-1.015 1.813-.345.402-.81.622-1.313.726-.685.142-1.378.255-2.073.335-1.834.214-3.68.178-5.521.213a8.6 8.6 0 0 1-2.53-.292c-1.491-.423-2.39-1.403-2.757-2.882a5.19 5.19 0 0 1 .076-2.842C3.37 7.996 4.45 6.996 5.884 6.335c.235-.1.425-.283.533-.515.8-1.576 2.063-2.634 3.815-2.907 1.749-.273 3.252.328 4.388 1.724.364.45.645.96.829 1.507.034.101.08.199.126.313ZM8.736 14.55c.358 0 .716.017 1.072-.003 1.482-.084 2.962-.191 4.445-.263a3.46 3.46 0 0 0 1.388-.337c1.01-.495 1.485-1.315 1.399-2.43-.067-.866-.607-1.532-1.454-1.735-1.058-.255-2.022-.055-2.841.686-.224.202-.42.434-.63.65-.219.226-.42.279-.62.168-.195-.107-.28-.326-.193-.608.127-.418.06-.812-.093-1.204a4.284 4.284 0 0 0-.741-1.228C9.502 7.107 7.77 6.61 6.424 7.148c-1.791.715-3.062 2.226-2.84 4.432.193 1.937 1.133 2.562 2.522 2.867.04.009.082.014.122.022.83.164 1.67.142 2.508.08Zm3.524-4.981a.36.36 0 0 0 .062-.019c.047-.028.095-.054.139-.087.82-.61 1.746-.847 2.758-.763 1.362.112 2.356.801 2.775 2.14.027.086.067.169.121.304.302-.12.587-.213.854-.343.98-.477 1.44-1.275 1.375-2.361-.053-.906-.604-1.588-1.487-1.792-1.062-.246-2.022-.033-2.835.714-.221.204-.416.437-.628.652-.2.204-.396.25-.589.15-.198-.103-.29-.326-.205-.603.133-.432.065-.84-.103-1.241a5.716 5.716 0 0 0-.17-.375c-1.081-2.143-3.618-2.627-5.229-1.64a5.423 5.423 0 0 0-1.526 1.363c-.056.09-.105.183-.147.28 2.479.1 4.07 1.33 4.835 3.62Z"></path>
  <path d="M14.32 17.838c.048-.16.108-.315.177-.467.2-.372.413-.738.625-1.103.055-.093.11-.209.197-.254a.642.642 0 0 1 .378-.065c.156.027.192.178.188.323a.55.55 0 0 1-.034.2c-.204.476-.41.95-.624 1.421a.758.758 0 0 1-.176.223c-.14.133-.325.202-.485.088-.116-.082-.171-.249-.247-.366Z"></path>
  <path d="M7.098 16.424c-.049.146-.08.25-.119.35-.151.394-.308.787-.458 1.181-.147.39-.391.555-.661.438-.23-.1-.292-.363-.135-.716.182-.411.388-.812.591-1.213a.59.59 0 0 1 .197-.256c.108-.06.27-.112.37-.073.1.038.151.196.215.29Z"></path>
  <path d="M9.826 18.049c.073-.195.119-.352.19-.497.171-.356.355-.707.535-1.059.029-.061.063-.12.101-.177.091-.12.231-.19.358-.117a.63.63 0 0 1 .233.3.436.436 0 0 1-.027.28c-.147.41-.295.82-.463 1.223a.651.651 0 0 1-.254.31c-.118.064-.299.104-.413.058-.115-.046-.178-.212-.26-.321Z"></path>
  <path d="M18.126 18.442a2.317 2.317 0 0 1-.073.285c-.136.328-.261.662-.423.977a1.23 1.23 0 0 1-.364.43c-.246.177-.503.038-.516-.267a.82.82 0 0 1 .076-.397c.194-.376.41-.741.623-1.108a.302.302 0 0 1 .142-.142c.113-.032.252-.07.346-.03.09.041.137.179.189.252Z"></path>
  <path d="M8.466 19.396c-.192.571-.38 1.082-.703 1.527-.15.207-.371.239-.54.127-.155-.103-.201-.286-.124-.508a.716.716 0 0 1 .065-.15c.24-.379.479-.758.725-1.134.088-.132.22-.24.377-.141.097.06.145.198.2.279Z"></path>
  <path d="M12.932 19.507c-.225.445-.429.876-.66 1.292a.349.349 0 0 1-.47.145c-.184-.082-.185-.261-.154-.426a1.32 1.32 0 0 1 .129-.387c.157-.288.324-.572.503-.847.1-.154.274-.22.431-.123.097.06.138.208.221.346Z"></path>
  <path d="M19.953 13.55c-.21.499-.387.973-.608 1.426a.344.344 0 0 1-.214.187.339.339 0 0 1-.281-.04.332.332 0 0 1-.147-.461c.217-.442.46-.87.71-1.295.071-.12.22-.2.355-.105.086.061.124.189.185.289Z"></path>
</svg>