<svg width="46" height="46" fill="currentColor" viewBox="0 0 24 24" xmlns="http://www.w3.org/2000/svg">
  <path d="M14.367 8.369c.168-.118.3-.214.436-.304 1.37-.914 2.85-1.098 4.41-.62 1.892.581 2.67 2.447 2.508 3.952-.137 1.275-.765 2.305-1.686 3.164-.358.334-.82.519-1.29.613a31.24 31.24 0 0 1-2.593.428c-2.215.254-4.443.242-6.67.278-1.045.016-2.089-.003-3.11-.266a10.303 10.303 0 0 1-.905-.272c-1.649-.59-2.575-1.821-2.984-3.465-.384-1.543-.293-3.08.461-4.49 1.097-2.052 2.8-3.38 5.156-3.57 2.12-.172 3.893.646 5.201 2.372.488.643.822 1.36 1.066 2.18Zm-4.372 6.289c.536-.022 1.072-.035 1.608-.067 1.784-.107 3.566-.24 5.35-.323a4.339 4.339 0 0 0 1.88-.532c1.014-.542 1.516-1.403 1.574-2.532.064-1.255-.606-2.278-1.738-2.586-1.298-.353-2.512-.16-3.56.732-.312.266-.58.584-.872.874a1.46 1.46 0 0 1-.309.267c-.293.162-.612.04-.755-.262a.63.63 0 0 1-.01-.517c.167-.448.103-.89-.046-1.33a5.53 5.53 0 0 0-.975-1.707C10.82 5.039 8.212 4.52 6.42 5.524 3.912 6.93 2.988 9.176 3.61 11.758c.294 1.227 1.02 2.119 2.265 2.506.38.118.766.211 1.158.28.981.173 1.972.14 2.962.114Z"></path>
  <path d="M15.09 19.58c.035-.122.079-.242.132-.358.22-.428.45-.85.68-1.271a.741.741 0 0 1 .176-.226.313.313 0 0 1 .514.181.778.778 0 0 1-.023.405 16.28 16.28 0 0 1-.545 1.287.99.99 0 0 1-.357.384c-.277.171-.566-.009-.577-.401Z"></path>
  <path d="M6.812 18.28c-.03.088-.061.207-.108.32-.157.381-.317.76-.48 1.138-.04.102-.095.197-.165.282a.459.459 0 0 1-.563.1.394.394 0 0 1-.144-.508c.265-.54.556-1.07.85-1.596a.31.31 0 0 1 .396-.132c.173.06.205.205.214.397Z"></path>
  <path d="M10.719 20.205a.354.354 0 0 1-.344-.226.353.353 0 0 1-.023-.143.652.652 0 0 1 .074-.277c.25-.44.508-.878.767-1.313a.322.322 0 0 1 .14-.146c.108-.035.253-.086.332-.04.08.045.115.195.14.306.013.056-.036.128-.064.19-.187.412-.378.821-.56 1.235-.096.214-.233.37-.462.414Z"></path>
</svg>