<svg width="46" height="46" fill="currentColor" viewBox="0 0 24 24" xmlns="http://www.w3.org/2000/svg">
  <path d="M12.193 18.525c-1.803-.038-3.5-.432-5.01-1.429-1.415-.933-2.3-2.223-2.431-3.93a7.202 7.202 0 0 1 .752-3.768c.359-.731.795-1.415 1.375-2 1.173-1.184 2.608-1.785 4.27-1.887 1.141-.07 2.267-.023 3.353.38.924.336 1.795.801 2.584 1.383 1.364 1.016 2.16 2.34 2.244 4.046.094 1.9-.417 3.6-1.722 5.038-1.04 1.145-2.356 1.77-3.867 2.019-.51.083-1.032.1-1.548.148Zm.082-1.225c.207-.011.564-.013.916-.054 1.33-.153 2.501-.632 3.41-1.65 1.176-1.319 1.51-2.865 1.293-4.565a3.517 3.517 0 0 0-1.262-2.296c-2.204-1.86-4.712-2.38-7.498-1.602a.746.746 0 0 1-.235.06c-.215-.016-.363.098-.511.22-.148.12-.299.237-.434.37a6.587 6.587 0 0 0-1.99 4.112c-.078.737-.1 1.486.193 2.198a4.429 4.429 0 0 0 1.935 2.18c1.245.725 2.604 1.016 4.183 1.027Z"></path>
  <path d="M12.047 9.209c.792-.004 1.356.273 1.786.822.058.075.12.147.185.216.736.761.89 1.653.548 2.621-.75 2.12-3.174 2.66-4.79 1.494-.85-.614-1.18-1.463-.958-2.49.327-1.512 1.971-2.716 3.229-2.663Z"></path>
</svg>