<svg width="46" height="46" fill="currentColor" viewBox="0 0 24 24" xmlns="http://www.w3.org/2000/svg">
  <path d="M12.138 6.87h6.115c.26-.001.52.012.778.04.45.054.677.316.677.767 0 .298-.019.596-.025.894-.029 1.435-.047 2.87-.085 4.305-.03 1.096-.031 2.195-.223 3.28a3.331 3.331 0 0 1-.151.546c-.119.33-.358.489-.719.49-2.585.017-5.17.043-7.756.055-1.75.01-3.502.002-5.253.002-.123 0-.247.003-.37-.005-.534-.035-.775-.313-.764-.849.025-1.124.05-2.247.06-3.371.011-1.423-.003-2.845.018-4.267.008-.527.08-1.053.136-1.578.037-.341.12-.42.469-.42.695 0 1.391.025 2.087.027 1.669.004 3.337.001 5.006.001v.082Zm6.094 9.289c.153-.59.353-7.543.238-8.01-4.395-.102-8.793.03-13.182-.18-.065.408.107 8.012.19 8.292 4.239.015 8.488.036 12.754-.102Z"></path>
</svg>