<svg width="46" height="46" fill="currentColor" viewBox="0 0 24 24" xmlns="http://www.w3.org/2000/svg">
  <path d="M11.91 15.5c1.217.018 2.347.032 3.478.054.444.009.887.028 1.33.057.175.01.347.045.511.104a.437.437 0 0 1 .268.558c-.073.23-.197.27-.509.246-.469-.037-.94-.056-1.41-.06-2.234-.014-4.469-.017-6.703-.035a22.072 22.072 0 0 1-1.531-.08 1.722 1.722 0 0 1-.504-.13.404.404 0 0 1-.282-.44.435.435 0 0 1 .357-.386c.158-.033.32-.047.481-.041 1.533.05 3.067.103 4.513.153Z"></path>
  <path d="M10.893 9.91c1.816.104 3.635.12 5.443.34.147.018.298.003.443.028.143.026.31.05.413.137a.552.552 0 0 1 .17.374.299.299 0 0 1-.278.302 4.532 4.532 0 0 1-.643.03c-.659-.028-1.317-.089-1.976-.103-2.128-.045-4.256-.074-6.384-.113a4.982 4.982 0 0 1-.603-.052 1.053 1.053 0 0 1-.305-.098.382.382 0 0 1-.227-.394c.01-.166.094-.3.245-.337.246-.064.498-.101.751-.11.984-.011 1.967-.004 2.95-.004Z"></path>
  <path d="M14.859 13.707c-.606 0-1.212.009-1.818-.005a1.937 1.937 0 0 1-.586-.112.426.426 0 0 1 .02-.817c.152-.05.31-.077.47-.08 1.253.021 2.505.05 3.756.085.134.005.266.034.39.087a.386.386 0 0 1 .24.46c-.035.195-.121.277-.373.29-.7.033-1.4.054-2.099.08v.012Z"></path>
  <path d="M15.27 8.462c-.671-.038-1.342-.072-2.013-.117a1.415 1.415 0 0 1-.427-.1.298.298 0 0 1-.2-.355.525.525 0 0 1 .226-.3.887.887 0 0 1 .429-.07c.457.016.913.046 1.368.081.657.05 1.313.107 1.969.168.133.013.265.042.39.088a.324.324 0 0 1-.052.624 1.36 1.36 0 0 1-.359.02c-.443-.018-.886-.043-1.33-.065l-.001.026Z"></path>
</svg>