<svg width="46" height="46" fill="currentColor" viewBox="0 0 24 24" xmlns="http://www.w3.org/2000/svg">
  <path d="M18.5 11.497c.05 1.771.1 3.72.166 5.667.016.461.098.92.133 1.381.014.162-.004.324-.054.478-.135.375-.53.428-.759.097a1.357 1.357 0 0 1-.229-.559c-.096-.687-.213-1.377-.228-2.068a367.553 367.553 0 0 1-.097-7.808c0-1.115.11-2.23.175-3.346.008-.15.034-.298.077-.442a.33.33 0 0 1 .341-.242c.172 0 .292.082.321.254.032.174.05.35.054.526.008 1.186.002 2.372.017 3.557.01.776.05 1.552.083 2.505Z"></path>
  <path d="M10.766 16.962c-1.558-.057-3.115-.112-4.673-.174a1.718 1.718 0 0 1-.479-.09.478.478 0 0 1-.329-.47.456.456 0 0 1 .35-.453c.158-.042.32-.059.484-.051.792.025 1.585.055 2.377.092 2.022.091 4.043.184 6.065.278.355.016.711.01 1.066.028.135.005.268.034.394.086a.396.396 0 0 1 .235.398.413.413 0 0 1-.291.407 1.76 1.76 0 0 1-.525.071 291.552 291.552 0 0 1-3.198-.086c-.492-.016-.983-.044-1.475-.067v.03Z"></path>
  <path d="M13.156 11.549c.67.024 1.34.044 2.009.078.15.008.296.043.433.103a.401.401 0 0 1 .248.43.406.406 0 0 1-.332.372 2.456 2.456 0 0 1-.405.053c-.3.013-.601.012-.902.02-.998.03-1.995.067-2.993.086a1.364 1.364 0 0 1-.552-.099.514.514 0 0 1-.183-.799.515.515 0 0 1 .265-.165 1.56 1.56 0 0 1 .402-.062c.67-.006 1.34-.003 2.01-.003v-.014Z"></path>
</svg>