<svg width="46" height="46" fill="currentColor" viewBox="0 0 24 24" xmlns="http://www.w3.org/2000/svg">
  <path d="M20.273 11.109a1.336 1.336 0 0 0-.855-.757 1.474 1.474 0 0 0-1.229.19c-.042.027-.083.056-.127.086l-.021.015a1.74 1.74 0 0 0-1.212-.976 1.41 1.41 0 0 0-1.254.374c-.268-.388-.539-.598-.851-.657-.325-.062-.686.042-1.102.32l-.003-.025c-.005-.046-.01-.08-.012-.115a158 158 0 0 1-.055-.87c-.04-.646-.08-1.312-.14-1.967-.063-.69-.169-1.485-.615-2.177-.21-.324-.515-.516-.839-.527-.324-.011-.635.154-.869.466a1.24 1.24 0 0 0-.235.539c-.042.286-.063.579-.083.863l-.03.407c-.145 1.657-.074 3.34-.004 4.967l.004.103c.006.15.005.301.003.46l-.002.158a.586.586 0 0 1-.056-.038.744.744 0 0 1-.052-.046.77.77 0 0 0-.074-.063c-.823-.594-1.696-.801-2.597-.616a1.177 1.177 0 0 0-.874.706 1.222 1.222 0 0 0 .137 1.157c.097.133.208.255.332.364.07.067.142.135.206.206.116.129.237.256.355.38.304.3.581.627.828.976.26.412.497.839.709 1.278.118.234.24.476.368.71l.021.037c.306.556.621 1.131.967 1.675.171.254.383.478.627.663a6.056 6.056 0 0 0 1.628.897c.584.225 1.204.34 1.829.34a5.996 5.996 0 0 0 2.107-.403c.459-.172.88-.471 1.306-.788.735-.547 1.235-1.352 1.574-2.534a13.57 13.57 0 0 0 .52-4.415 3.976 3.976 0 0 0-.33-1.363Zm-8.112 7.486a1.462 1.462 0 0 1-.37-.36c-.25-.36-.48-.733-.692-1.116a42.95 42.95 0 0 1-.949-1.873c-.507-1.06-1.142-1.876-1.942-2.497a.29.29 0 0 1-.027-.023l-.073-.072c-.172-.167-.334-.324-.232-.582.097-.245.336-.286.588-.286h.038c.748.011 1.34.269 1.762.766.165.195.259.458.35.713.094.266.203.439.433.433.211-.006.375-.179.428-.451.017-.098.022-.197.018-.296-.012-.432-.027-.865-.042-1.298-.031-.925-.064-1.881-.064-2.822 0-.902.045-1.82.09-2.707l.035-.75c.014-.296.084-.613.499-.725.258.185.419.47.49.87.106.565.18 1.135.22 1.708.059.856.102 1.727.144 2.57l.058 1.133c.01.191.057.418.33.475.252.051.384-.148.488-.372l.058-.125c.101-.245.229-.477.381-.693.127-.166.287-.246.44-.22.16.027.293.164.362.376.047.169.073.343.077.519.004.053.007.107.012.16a1.09 1.09 0 0 1-.006.198 1.858 1.858 0 0 0-.008.127c-.005.205.095.336.281.368.201.034.342-.05.397-.237.01-.037.02-.075.028-.112.012-.055.027-.11.046-.162l.067-.186c.06-.182.133-.36.222-.53.15-.27.333-.335.65-.235.341.108.555.334.618.653.023.13.036.261.04.393.004.128.016.256.036.382a.71.71 0 0 0 .212.399.26.26 0 0 0 .207.061.466.466 0 0 0 .302-.222c.055-.08.105-.167.154-.25.071-.129.153-.253.243-.37.173-.214.373-.32.561-.297.188.022.354.171.47.419.288.636.395 1.34.307 2.034-.1.96-.252 1.897-.372 2.606-.114.678-.407 1.354-.871 2.01-.427.605-1.056 1.031-1.924 1.303-1.599.502-3.094.238-4.57-.807Z"></path>
  <path d="M7.822 9.22c-.023-.152-.136-.294-.345-.435l-.017-.011c-.36-.241-.718-.483-1.075-.726-.232-.158-.381-.215-.499-.19a.26.26 0 0 0-.168.124c-.142.222.006.411.272.627.134.109.27.214.43.336l.145.113c-.432-.01-.86-.1-1.26-.263-.627-.267-.973-.775-1.029-1.51-.062-.819.25-1.579.928-2.258.591-.592 1.335-.853 2.095-.736a2.47 2.47 0 0 1 1.804 1.31c.066.128.124.265.179.397.033.08.067.162.103.241.05.112.155.343.41.293.198-.04.299-.185.307-.447a1.026 1.026 0 0 0-.016-.213c-.133-.739-.611-1.438-1.312-1.918-.7-.48-1.524-.672-2.26-.53-1.506.292-2.506 1.242-2.972 2.822-.239.811-.134 1.651.286 2.306.427.663 1.122 1.08 2.011 1.207l.64.09-.155.174c-.14.155-.26.29-.381.43-.238.278-.297.537-.154.677a.318.318 0 0 0 .226.087c.131 0 .292-.066.456-.232A17.51 17.51 0 0 0 7.66 9.669c.13-.163.184-.31.163-.45Z"></path>
</svg>