<svg width="46" height="46" fill="currentColor" viewBox="0 0 24 24" xmlns="http://www.w3.org/2000/svg">
  <path d="M17.84 16.846c.063-2.266-.454-4.406-1.484-6.42a12.152 12.152 0 0 0-2.664-3.519c-.37-.334-.8-.603-1.203-.9-.076-.056-.185-.089-.23-.162-.067-.106-.145-.257-.114-.356a.379.379 0 0 1 .296-.207c.224.009.48.033.661.149.537.34 1.085.683 1.554 1.107 2.025 1.825 3.291 4.113 4 6.718.387 1.428.55 2.908.48 4.386-.008.216-.044.43-.108.637a.604.604 0 0 1-.622.432c-.268-.024-.485-.224-.549-.526a1.624 1.624 0 0 1-.016-.323c-.002-.339 0-.678 0-1.016Z"></path>
  <path d="M15.975 17.534c.01.175.009.35-.004.526a.635.635 0 0 1-.562.561c-.258.024-.514-.147-.613-.44a1.816 1.816 0 0 1-.079-.476c-.08-1.4-.312-2.765-.823-4.081-.83-2.136-2.317-3.698-4.236-4.896-.114-.071-.25-.133-.327-.235-.073-.096-.141-.263-.105-.358a.475.475 0 0 1 .31-.264.92.92 0 0 1 .506.083c.294.141.578.302.849.482.903.586 1.764 1.23 2.453 2.065a11.053 11.053 0 0 1 2.368 5.1c.118.639.19 1.285.284 1.928l-.02.005Z"></path>
  <path d="M7.022 18.336a2.167 2.167 0 0 1-1.26-.364c-.706-.458-.983-1.219-.732-2.017.16-.51.47-.958.889-1.29a1.562 1.562 0 0 1 1.38-.326c.264.058.535.09.8.152.744.175 1.094.549 1.2 1.303a2.437 2.437 0 0 1-.305 1.607c-.38.646-.992.938-1.972.935Zm1.35-2.119c-.006-.529-.15-.723-.664-.88-.208-.063-.42-.11-.629-.173-.542-.164-.625-.141-.94.329a2.35 2.35 0 0 0-.244.466c-.273.704.026 1.268.767 1.442.184.046.375.065.565.057.767-.048 1.152-.474 1.144-1.24Z"></path>
  <path d="M11.294 17.102a4.63 4.63 0 0 0-.916-2.844c-.618-.84-1.337-1.568-2.272-2.06-.215-.113-.446-.196-.67-.29-.269-.112-.374-.273-.317-.489.052-.197.211-.312.48-.275.257.028.507.095.743.198 2.29 1.086 3.748 2.812 4.112 5.363.037.24.059.484.065.727.001.148-.024.295-.075.434a.534.534 0 0 1-.527.374.527.527 0 0 1-.521-.38c-.064-.246-.07-.505-.102-.758Z"></path>
</svg>