<svg width="46" height="46" fill="currentColor" viewBox="0 0 24 24" xmlns="http://www.w3.org/2000/svg">
  <path d="M9.394 16.32c-.368-.035-.694-.06-1.02-.098a1.22 1.22 0 0 1-.353-.096c-.184-.083-.286-.254-.22-.436a.574.574 0 0 1 .313-.323c.204-.063.434-.039.652-.05l.662-.03v-1.366a3.105 3.105 0 0 1-.536-.035c-.263-.06-.543-.116-.768-.252-.328-.2-.324-.575.004-.773.227-.122.474-.205.73-.245.182-.038.38-.007.626-.007 0-.188-.002-.335 0-.481.02-1.457.038-2.914.065-4.37.005-.26.046-.52.073-.78.03-.298.192-.463.49-.522 1.123-.225 2.24-.18 3.355.045.842.169 1.652.404 2.351.935 1.491 1.134 1.76 3.36.551 4.758-.618.714-1.444 1.105-2.35 1.267-1.013.182-2.04.274-3.062.404-.094.012-.19.017-.312.028v1.384c.424-.035.854-.08 1.285-.103a2.17 2.17 0 0 1 .606.04c.253.06.389.257.402.514a.508.508 0 0 1-.323.529 1.816 1.816 0 0 1-.636.117c-.438.001-.875-.035-1.368-.06-.021.362-.036.7-.063 1.036a2.645 2.645 0 0 1-.079.527c-.082.284-.302.463-.528.434-.253-.032-.44-.175-.484-.436a5.263 5.263 0 0 1-.061-.693c-.01-.284-.002-.57-.002-.862Zm1.224-3.723c1.372-.04 2.688-.07 3.948-.518a3.09 3.09 0 0 0 .785-.439 1.729 1.729 0 0 0 .706-1.214c.115-.992-.19-1.842-1.062-2.376-.46-.281-.99-.466-1.508-.632-.951-.305-1.933-.359-2.995-.238l.126 5.416Z"></path>
  <path d="M21.782 11.177a10.33 10.33 0 0 0-2.293-5.402c-1.047-1.285-2.174-2.201-3.444-2.799a7.341 7.341 0 0 0-3.177-.727 7.74 7.74 0 0 0-1.01.066c-1.396.18-2.81.585-4.449 1.274-2.217.932-3.761 2.534-4.587 4.76a10.756 10.756 0 0 0-.653 4.799c.174 1.829.614 3.247 1.384 4.46 1.114 1.752 2.516 2.905 4.288 3.526 1.074.376 2.257.565 3.72.595.862 0 1.664-.104 2.44-.205l.146-.019c1.693-.219 3.13-.83 4.396-1.866a8.24 8.24 0 0 0 2.602-3.664c.605-1.719.814-3.289.637-4.798Zm-1.999 5.456c-.957 1.94-2.569 3.212-4.79 3.782-.267.069-.543.118-.834.17-.145.026-.296.053-.455.084-.69.104-1.623.12-2.137.12-.229 0-.375-.004-.379-.004-1.35-.016-2.51-.245-3.548-.7-1.384-.606-2.49-1.63-3.38-3.128-.537-.903-.878-1.973-1.073-3.365a10.271 10.271 0 0 1 .632-5.237c.698-1.77 1.953-3.113 3.73-3.99.41-.204 2.08-.693 2.518-.782a12.234 12.234 0 0 1 1.872-.225c2.488-.06 3.471.34 4.991 1.501 1.591 1.215 2.713 2.742 3.334 4.538.843 2.447.682 4.881-.48 7.236Z"></path>
</svg>