<svg width="46" height="46" fill="currentColor" viewBox="0 0 24 24" xmlns="http://www.w3.org/2000/svg">
  <path d="M6.392 20.971a.967.967 0 0 1-.816-.315c-.82-.849-1.631-1.707-2.432-2.574-.243-.263-.209-.494.059-.791.972-1.08 1.946-2.157 2.922-3.233 2.575-2.838 5.384-5.441 8.148-8.09.941-.9 1.87-1.814 2.803-2.725a.817.817 0 0 1 1.105-.053c.322.27.627.56.928.854.535.522 1.086 1.029 1.583 1.584.5.56.631 1.133.067 1.753a143.384 143.384 0 0 1-9.046 9.09c-1.552 1.42-3.124 2.82-4.686 4.229-.184.166-.362.34-.635.271ZM17.707 3.968c-4.723 4.545-9.49 8.929-13.782 13.822.852.734 1.599 1.605 2.6 2.198l.569-.616c-.061-.048-.138-.102-.207-.165a2.598 2.598 0 0 1-.226-.234c-.196-.233-.227-.463-.09-.624.153-.18.392-.188.658.01.182.135.34.302.52.467.085-.074.17-.14.245-.213.082-.08.155-.17.184-.202-.178-.208-.33-.382-.48-.558-.143-.169-.213-.353-.07-.553.113-.158.322-.18.551-.041.24.146.462.322.716.502l.497-.472a2.387 2.387 0 0 1-.261-.248 38.161 38.161 0 0 1-.845-1.142.305.305 0 0 1 .059-.439c.147-.12.307-.092.448.02.094.078.183.162.266.252.307.323.612.649.94.998l.277-.298c-.161-.192-.312-.349-.437-.524-.173-.245-.162-.473.006-.626.155-.14.368-.136.592.042.18.143.34.31.554.506l.432-.55a5.527 5.527 0 0 1-.433-.397c-.194-.215-.21-.422-.076-.587.136-.168.342-.19.59-.048.115.072.224.152.328.24.091.073.177.153.262.227l.567-.589c-.275-.351-.554-.7-.825-1.056-.09-.118-.199-.241-.233-.378a.562.562 0 0 1 .054-.406c.102-.153.288-.146.435-.038.128.1.247.21.357.33.305.304.607.611.93.938l.421-.407c-.083-.12-.144-.207-.203-.296a3.009 3.009 0 0 1-.197-.308c-.12-.242-.089-.482.066-.596.158-.116.388-.075.583.119.131.13.248.274.386.429l.412-.39c-.075-.124-.131-.215-.185-.307a2.43 2.43 0 0 1-.16-.283c-.11-.26-.054-.502.132-.618.181-.114.38-.074.585.125.104.101.199.212.336.359l.298-.303c-.247-.357-.467-.665-.677-.98-.165-.249-.17-.47-.034-.595.152-.14.395-.112.62.09.13.12.253.247.367.38.121.138.234.283.365.44l.51-.57c-.129-.269-.246-.498-.348-.733-.086-.198-.05-.382.14-.499.2-.122.367-.025.503.127.117.13.22.272.353.44l.366-.384c-.074-.106-.13-.182-.18-.262a3.27 3.27 0 0 1-.171-.277c-.146-.269-.142-.476.006-.594.165-.131.362-.074.597.176.098.105.192.213.303.336l.33-.376c-.164-.253-.307-.468-.444-.686a3.525 3.525 0 0 1-.285-.49c-.07-.168-.077-.36.1-.477a.4.4 0 0 1 .492.038c.084.07.162.144.235.225.192.21.38.422.591.656l.376-.425-2.261-2.632Z"></path>
</svg>