<svg width="46" height="46" fill="currentColor" viewBox="0 0 24 24" xmlns="http://www.w3.org/2000/svg">
  <path d="M13.065 10.175h-1.201c-.399 0-.798.008-1.196 0-.134-.004-.292-.01-.395-.08-.11-.075-.232-.226-.232-.343 0-.118.123-.276.235-.337.136-.074.316-.082.478-.09.756-.033 1.511-.057 2.267-.086.079-.008.157-.02.235-.035-.006-.655-.265-.988-.875-1.113a3.058 3.058 0 0 0-.572-.058c-.948-.013-1.896-.013-2.845-.028a8.586 8.586 0 0 1-.863-.066.337.337 0 0 1-.324-.36c-.004-.222.14-.316.329-.358a1.18 1.18 0 0 1 .245-.02l5.36-.103c.247-.005.494-.028.741-.04.26-.013.522-.038.783-.032.347.008.545.168.565.422.02.266-.14.45-.485.501-.298.044-.601.058-.903.074-.2.01-.4.002-.616.002l.42 1.155c.273-.017.557-.047.842-.051.272-.01.545 0 .815.032.232.03.353.21.367.438.013.225-.08.428-.303.485-.302.077-.623.163-.925.135-.576-.055-.989.01-1.257.639-.153.359-.545.645-.883.892-.754.55-1.628.841-2.53 1.053l-.503.114c.13.099.217.177.316.238 1.442.906 2.885 1.81 4.329 2.712.06.034.117.072.172.113.25.199.326.493.19.728s-.433.312-.727.185a1.168 1.168 0 0 1-.178-.103c-1.56-1.027-3.124-2.05-4.679-3.087a6.395 6.395 0 0 1-.866-.695c-.43-.41-.29-.913.294-1.039.616-.132 1.247-.199 1.864-.328a5.373 5.373 0 0 0 1.92-.82c.251-.158.455-.381.59-.646Z"></path>
  <path d="M21.809 11.177a10.33 10.33 0 0 0-2.294-5.402c-1.047-1.285-2.173-2.201-3.443-2.799a7.341 7.341 0 0 0-3.177-.727c-.338 0-.676.022-1.011.066-1.395.18-2.809.585-4.448 1.274-2.217.932-3.761 2.534-4.588 4.76a10.756 10.756 0 0 0-.653 4.799c.175 1.829.615 3.247 1.385 4.46 1.113 1.752 2.516 2.905 4.288 3.526 1.074.376 2.257.565 3.72.595.862 0 1.664-.104 2.439-.205l.147-.019c1.693-.219 3.13-.83 4.396-1.866a8.242 8.242 0 0 0 2.602-3.664c.605-1.719.813-3.289.637-4.798Zm-1.999 5.456c-.958 1.94-2.569 3.212-4.79 3.782-.267.069-.543.118-.835.17-.144.026-.295.053-.454.084-.69.104-1.623.12-2.137.12-.229 0-.375-.004-.379-.004-1.35-.016-2.51-.245-3.549-.7-1.383-.606-2.489-1.63-3.379-3.128-.537-.903-.879-1.973-1.073-3.365a10.271 10.271 0 0 1 .632-5.237c.698-1.77 1.953-3.113 3.73-3.99.41-.204 2.079-.693 2.518-.782a12.234 12.234 0 0 1 1.872-.225c2.488-.06 3.471.34 4.99 1.501 1.592 1.215 2.714 2.742 3.335 4.538.843 2.447.682 4.881-.48 7.236Z"></path>
</svg>