<svg width="46" height="46" fill="currentColor" viewBox="0 0 24 24" xmlns="http://www.w3.org/2000/svg">
  <path d="M12.923 13.798c1.274-.002 2.324.25 3.312.745.214.096.404.236.557.412.098.126.151.4.078.515-.087.135-.334.238-.506.23-.206-.007-.419-.125-.606-.235-1.45-.851-2.995-.95-4.596-.577-.852.198-1.521.69-2.073 1.355-.061.074-.116.155-.177.229-.129.155-.253.4-.49.24-.232-.159-.175-.42-.046-.63.543-.888 1.288-1.535 2.277-1.888a7.468 7.468 0 0 1 2.27-.396Z"></path>
  <path d="M8.826 12.068c-.56-.026-1.064-.212-1.446-.663-.161-.19-.289-.421-.073-.623.21-.196.396-.033.564.136.704.702 1.613.484 1.946-.46.046-.13.089-.262.141-.39.083-.2.244-.348.447-.256a.564.564 0 0 1 .279.395A1.578 1.578 0 0 1 10.1 11.6c-.363.306-.79.44-1.274.468Z"></path>
  <path d="M15.145 11.482a2.029 2.029 0 0 1-1.577-1.016 1.171 1.171 0 0 1-.14-.63c.005-.123.162-.315.274-.334.105-.017.307.128.351.245.117.31.27.567.56.74.508.303.836.215 1.106-.307.218-.421.428-.563.671-.451.227.104.281.401.148.818-.185.583-.659.931-1.393.935Z"></path>
  <path d="M7.258 8.885a6.694 6.694 0 0 1-.72-.41c-.062-.046-.06-.234-.025-.335.017-.046.199-.081.28-.051.807.303 1.404-.095 1.966-.585.164-.143.278-.341.422-.509.14-.164.31-.315.53-.165.215.146.152.372.056.558-.39.757-1.063 1.13-1.853 1.328-.2.05-.406.07-.61.104l-.046.065Z"></path>
  <path d="M15.899 8.398c-.732-.052-1.332-.292-1.791-.822a.926.926 0 0 1-.225-.386c-.023-.11.026-.297.108-.35.082-.053.302-.026.36.047.48.603 1.122.751 1.847.721.214-.009.436.054.45.322.014.247-.165.365-.384.414-.133.03-.271.04-.365.054Z"></path>
  <path d="M2.607 9.364c-.858 3.374-.106 6.35 2.236 8.847.061.065.123.129.185.191 1.259 1.258 2.826 2.035 4.068 2.576.532.232 3.267.515 4.007.405 4.397-.657 7.291-3.137 8.299-7.286a10.61 10.61 0 0 0 .285-2.48c.005-1.968-.823-4.256-2.532-5.97a34.528 34.528 0 0 1-.52-.441c-.368-.316-.748-.643-1.145-.922-3.037-2.137-6.192-2.15-9.377-1.016-2.884 1.025-4.737 3.077-5.506 6.096Zm5.518-5.086c2.795-1.161 5.6-1.366 8.334.373.5.319 1.834 1.396 2.044 1.558l.013.01.011.012c1.067 1.132 2.29 3.2 2.262 5.328a10.86 10.86 0 0 1-.366 2.693c-.695 2.525-2.356 4.365-5.078 5.624-2.767 1.325-6.736-.015-7.792-.712a12.333 12.333 0 0 1-3.02-2.934c-1.302-1.845-1.594-4.496-.895-6.92a7.86 7.86 0 0 1 4.487-5.032Z"></path>
</svg>