<svg width="46" height="46" fill="currentColor" viewBox="0 0 24 24" xmlns="http://www.w3.org/2000/svg">
  <path d="M18.338 19.34c.055.453.12.872.155 1.294.037.458-.177.728-.612.766-.808.07-1.617.12-2.426.178-.055.004-.11.001-.165 0-.593-.004-.79-.211-.777-.796.008-.344.003-.688.001-1.031-.002-.05-.009-.1-.018-.15h-5.53c.026.197.053.34.062.485.03.287.04.575.032.863-.024.34-.23.547-.556.549-.811.005-1.623.01-2.433-.03-.577-.028-.694-.207-.677-.795.011-.357.002-.715.002-1.122l-.842-.11c-.44-.057-.86-.161-1.247-.395a1.455 1.455 0 0 1-.694-.93 10.808 10.808 0 0 1-.297-2.738c.011-1.443.048-2.887.067-4.33.023-1.827.034-3.655.06-5.482.01-.708.276-1.336.646-1.929.38-.612.964-.894 1.647-.964a31.8 31.8 0 0 1 2.467-.17c1.25-.026 2.503.013 3.754-.01 1.21-.022 2.419-.117 3.628-.125 1.511-.01 3.024.019 4.534.065.363.011.728.136 1.08.248a1.326 1.326 0 0 1 .896.95c.195.688.36 1.386.349 2.107-.023 1.443-.088 2.886-.083 4.33.004 1.208.074 2.417.13 3.625.047 1.029.19 2.053.047 3.086a3.163 3.163 0 0 1-.868 1.784c-.346.365-.803.52-1.282.611-.347.065-.698.11-1.05.166Zm-1.56-.694c.821-.043 1.64-.17 2.454-.288.606-.088.986-.473 1.139-1.055.095-.33.146-.67.152-1.013a62.502 62.502 0 0 0-.11-2.966 42.259 42.259 0 0 1-.034-3.999c.049-1.4.047-2.803.053-4.205 0-.23-.065-.462-.106-.691-.101-.573-.426-.904-1.022-.947-.163-.012-.325-.061-.489-.066-1.071-.033-2.143-.093-3.214-.079-2.875.038-5.748.095-8.622.173-.766.022-1.53.149-2.295.235-.418.048-.71.29-.887.658a3.933 3.933 0 0 0-.41 1.627c-.026 1.084-.067 2.168-.086 3.253-.037 2.063-.08 4.125-.085 6.188-.001.683.112 1.366.166 2.05.051.648.415.988 1.038 1.085.108.017.215.05.324.058.795.057 1.59.138 2.385.154 1.278.026 7.713-.07 9.649-.172Zm.591.762-2.16.14.17 1.126 1.99-.13v-1.136Zm-9.264 1.314c-.02-.394-.039-.729-.06-1.104h-2.03l.106 1.066c.097.017.195.03.294.037.544.002 1.089.001 1.69.001Z"></path>
  <path d="M14.892 11.45c-.117.446-.183.871-.342 1.259-.153.374-.401.71-.62 1.085.085.093.164.193.233.3.084.124.14.265.164.413a.413.413 0 0 1-.656.37c-.203-.147-.346-.376-.512-.564l-2.033.545c0 .062-.003.168 0 .274.004.096.015.192.02.288.023.465-.162.756-.491.773-.337.018-.552-.286-.547-.771.002-.191 0-.382 0-.616-.728-.105-1.457-.231-2.118-.67-.18.17-.35.344-.534.502a1.856 1.856 0 0 1-.432.306.39.39 0 0 1-.489-.1.4.4 0 0 1-.039-.498 1.92 1.92 0 0 1 .316-.373c.142-.128.307-.23.47-.35-.18-.322-.384-.627-.526-.96-.139-.323-.214-.674-.327-1.044-.206.011-.435.034-.664.033a2.796 2.796 0 0 1-.489-.053.306.306 0 0 1-.275-.312.32.32 0 0 1 .285-.35c.283-.052.57-.078.857-.113.094-.012.19-.014.33-.024.148-.815.431-1.578.995-2.21-.155-.159-.295-.304-.437-.448-.097-.098-.203-.188-.291-.292-.177-.21-.194-.404-.061-.556.13-.148.353-.172.56-.014.282.215.542.46.844.72.668-.543 1.513-.717 2.354-1.002.012-.172.021-.347.038-.52.017-.178.009-.368.073-.528.049-.12.188-.266.3-.277.112-.01.272.106.352.212.075.1.083.256.103.39.029.202.042.406.064.638.852.02 1.56.35 2.178.904.087-.075.161-.133.23-.199.079-.075.152-.159.23-.235.327-.319.651-.383.867-.174.23.223.157.548-.206.883-.16.148-.33.285-.46.397.371.6.74 1.156.74 2.23.07-.003.214-.018.358-.016.204 0 .408.013.611.037a.335.335 0 0 1 .295.346.34.34 0 0 1-.277.363 3.3 3.3 0 0 1-.61.045 3.84 3.84 0 0 1-.431-.044Zm-4.474 2.522c.937-.022 1.61-.132 2.248-.42a1.91 1.91 0 0 0 1.099-1.263c.316-1.097.141-2.13-.478-3.073-.349-.53-1.33-1.614-3.278-1.264a1.44 1.44 0 0 0-.314.079c-1.39.604-2.161 1.658-2.258 3.173-.076 1.2.612 2.19 1.764 2.533.47.14.966.188 1.217.235Z"></path>
  <path d="M19.412 11.582c0 .769-.002 1.537 0 2.306.002.347-.099.513-.433.602a2.789 2.789 0 0 1-.69.102c-.475.003-.89-.42-.91-.939-.015-.397.013-.796.03-1.194.041-1 .087-2.002.132-3.003.006-.137.025-.274.02-.41-.014-.386.234-.589.667-.614.218-.013.439.005.658.013.298.01.392.078.434.381.045.326.071.655.078.984.012.59.003 1.181.003 1.771h.01Zm-1.066 1.957c.272.038.267-.098.269-.223l.075-4.119a1.117 1.117 0 0 0-.035-.202h-.383l.074 4.545Z"></path>
  <path d="M8.692 10.975a2.044 2.044 0 0 1 .872-1.647c.18-.123.39-.196.607-.21a4.54 4.54 0 0 1 .944.046c1.113.153 1.673 1.287 1.117 2.266-.44.776-1.169.996-1.998.976-.36-.006-.71-.12-1.005-.329-.38-.269-.543-.643-.537-1.102Zm1.618.592c.289.008.574-.076.811-.242.438-.343.368-.954-.152-1.14-.292-.104-.612-.135-.921-.189a.287.287 0 0 0-.332.183c-.056.11-.107.221-.152.336-.223.661.051 1.046.746 1.051Z"></path>
</svg>