<svg width="46" height="46" fill="currentColor" viewBox="0 0 24 24" xmlns="http://www.w3.org/2000/svg">
  <path d="M13.288 20.195c-3.502-.045-6.018-.07-8.534-.115a6.417 6.417 0 0 1-1.305-.162c-.64-.147-.908-.49-.908-1.143a442.6 442.6 0 0 1 .04-5.526c.019-1.333.069-2.665.11-3.998.015-.457.21-.67.673-.718.285-.03.603.047.855-.052.25-.099.423-.379.655-.545 1.776-1.278 3.651-2.397 5.567-3.45.229-.125.458-.25.676-.393.74-.482 1.533-.56 2.365-.311.197.058.387.14.566.242a24.468 24.468 0 0 1 3.124 2.142c.364.293.73.587 1.071.905.38.354.748.725 1.094 1.113a.609.609 0 0 0 .533.231c.26-.013.522-.009.784 0 .362.013.523.14.6.499.037.202.06.407.067.613.054.863.157 1.728.146 2.59-.03 2.227-.104 4.453-.173 6.678-.028.893-.413 1.254-1.321 1.273-2.556.051-5.113.097-6.685.127ZM3.479 9.328v9.805c.167.04.337.07.507.088.714.03 1.43.064 2.144.066 2.434.006 4.869.017 7.303-.007 1.952-.02 3.904-.086 5.856-.14.31-.009.619-.066.977-.106.078-3.28.396-6.523.188-9.808l-16.975.102Zm7.85-4.276C10.027 5.616 5.9 8.138 5.64 8.54l12.44-.117.027-.096c-1.399-1.286-2.872-2.474-4.523-3.454-.274.833-.457 1.009-1.034 1.025-.648.02-.964-.196-1.222-.846Zm1.298-.138c.002-.214-.114-.343-.309-.344-.18 0-.28.113-.282.318-.002.186.132.31.34.316.204.007.245-.126.251-.29Z"></path>
  <path d="m11.717 14.86-1.761.114c-.014.152-.024.284-.04.415-.044.409-.072.82-.145 1.224-.046.261-.2.36-.395.33-.226-.033-.29-.213-.288-.392.002-.356.023-.712.065-1.066.126-1.062.264-2.123.4-3.184a1.148 1.148 0 0 1 1.61-.896c.486.22.8.613 1.027 1.082.29.603.401 1.253.46 1.91.051.573.07 1.15.098 1.725.022.462-.175.747-.512.75-.336.004-.526-.275-.52-.743.006-.407.001-.815.001-1.269Zm-.032-.87a2.841 2.841 0 0 0-.035-.31c-.052-.226-.083-.463-.179-.67a2.524 2.524 0 0 0-.45-.72c-.333-.338-.773-.222-.867.243-.103.514-.11 1.047-.164 1.619l1.695-.163Z"></path>
  <path d="M6.976 11.667c.195.051.386.117.57.197.21.107.253.317.212.535-.044.236-.257.336-.419.17a.538.538 0 0 0-.556-.163c-.286.064-.56.167-.73.425-.411.623-.157 1.141.47 1.236.244.033.487.082.725.15.29.08.572.189.84.327.563.315.769.88.545 1.482-.281.753-1.027 1.474-2.105 1.258a4.861 4.861 0 0 1-.94-.284 1.545 1.545 0 0 1-.48-.377c-.132-.14-.167-.352-.043-.494a.676.676 0 0 1 .425-.18c.141-.012.29.066.435.107.29.082.576.184.87.246a1.002 1.002 0 0 0 1.122-.57c.125-.271.095-.46-.169-.593a6.8 6.8 0 0 0-.92-.343c-.143-.047-.297-.058-.443-.095-.576-.143-1.015-.453-1.117-1.07-.112-.667.116-1.223.683-1.61a2.195 2.195 0 0 1 1.025-.354Z"></path>
  <path d="m17.864 12.103.167 1.66c.2 0 .388-.01.574.002.186.012.36.057.388.288a.373.373 0 0 1-.263.42c-.188.067-.393.088-.65.142.04.533.079 1.07.12 1.644.358-.02.67-.048.984-.052.161-.002.342 0 .479.07a.547.547 0 0 1 .249.333c.039.174-.085.313-.252.379a.963.963 0 0 1-.281.058c-.466.032-.932.07-1.399.085-.421.014-.593-.179-.606-.597-.043-1.386-.095-2.77-.142-4.156a4.608 4.608 0 0 1-.003-.576c.024-.266.156-.398.424-.415.493-.03.987-.054 1.481-.053.386 0 .587.146.598.374.01.243-.205.4-.607.414-.246.009-.494-.014-.74-.02-.161-.003-.322 0-.52 0Z"></path>
  <path d="M14.723 16.244c.462 0 .886-.005 1.31.003.178-.002.356.018.529.06a.36.36 0 0 1-.026.706 2.452 2.452 0 0 1-.49.046 82.531 82.531 0 0 1-1.566-.027c-.505-.012-.69-.194-.711-.7-.033-.74-.052-1.48-.094-2.22-.036-.644-.096-1.287-.145-1.93-.01-.136-.044-.278-.017-.408.022-.103.108-.258.185-.27a.44.44 0 0 1 .35.125.849.849 0 0 1 .157.415c.117.801.226 1.603.328 2.406.07.57.122 1.143.19 1.794Z"></path>
</svg>