<svg width="46" height="46" fill="currentColor" viewBox="0 0 24 24" xmlns="http://www.w3.org/2000/svg">
  <path d="m13.134 15.178-.27-.22c-.471.422-.934.842-1.403 1.256-.23.203-.464.404-.71.588-.319.239-.52.213-.802-.077-.1-.104-.192-.216-.317-.358-.042.379-.064.717-.12 1.05a3.637 3.637 0 0 1-.843 1.792c-.458.532-.802.565-1.322.113-.333-.29-.655-.592-.984-.887a.413.413 0 0 0-.101-.04c-.255.21-.602.326-.634.776-.019.272-.27.416-.547.449a.7.7 0 0 1-.72-.403c-.124-.263-.12-.521.075-.751.049-.058.137-.133.197-.125.495.068.68-.34.979-.602-.183-.187-.366-.36-.53-.547-.299-.34-.595-.681-.876-1.035-.166-.21-.083-.437.037-.639.482-.81 1.204-1.319 2.09-1.59.337-.102.704-.113 1.076-.168a1.437 1.437 0 0 0-.09-.18c-.363-.548-.34-.704.153-1.158.58-.533 1.155-1.071 1.736-1.61-.101-.235-.22-.21-.375-.085a5.09 5.09 0 0 1-.582.426c-.361.215-.585.189-.902-.091-.41-.363-.82-.726-1.214-1.104a461.17 461.17 0 0 1-3.088-2.986c-.408-.397-.413-.495-.07-.945.1-.124.209-.243.323-.355.825-.876 1.656-1.746 2.474-2.628.375-.406.561-.476.985-.121.84.704 1.642 1.452 2.456 2.186.695.627 1.38 1.266 2.077 1.89.44.395.471.566.144 1.05-.082.12-.14.26-.23.374a3.823 3.823 0 0 1-.328.328l.242.354c.196-.159.381-.303.56-.454.624-.525 1.248-1.05 1.867-1.58.334-.286.511-.291.999.025.107-.067.226-.146.35-.22 1.147-.69 2.63-.115 2.915 1.144.151.67-.099 1.238-.538 1.727-.163.181-.25.334-.197.598.075.37-.191.613-.43.856-.545.552-1.08 1.113-1.65 1.7l.246.304c.15-.182.311-.355.48-.52.403-.35.758-.338 1.13.033 1.28 1.276 2.574 2.537 3.824 3.841.833.87.766 1.063-.03 1.921a12.82 12.82 0 0 1-3.303 2.523c-.703.382-1.012.311-1.538-.278-1.105-1.238-2.219-2.467-3.329-3.7a2.538 2.538 0 0 1-.203-.25c-.25-.362-.241-.472.072-.797.25-.258.505-.512.79-.8Zm-2.579.862c2.026-1.77 3.766-3.743 5.622-5.606L13.92 7.86c-2.08 1.659-4.071 3.403-5.963 5.353l2.598 2.826Zm-2.53 2.755c.512-.685.957-1.84.782-2.59-.19-.808-.729-1.27-1.386-1.289-.754-.022-1.74.289-2.25.802.891 1.002 1.967 2.079 2.855 3.077Zm6.47-3.858-1.579 1.364 1.266 1.125 1.42-1.212-1.107-1.277Zm2.983-.38-1.101-1.293-1.36 1.199 1.239 1.201 1.222-1.107ZM4.738 5.191 3.41 6.384l1.314 1.132 1.154-1.239-1.141-1.086Zm1.698-1.568L5.17 4.807l1.184.988 1.066-1.1-.985-1.072Zm13.868 13.95-.9-.846-1.495 1.09.929 1.114 1.466-1.359Zm-2.36-2.484-1.314 1.103.925 1.129 1.383-1.163-.994-1.07ZM7.81 8.222 6.774 9.32l1.198 1.105.882-1.02L7.81 8.221Zm9.07 9.645-.88-1.16-1.367 1.132 1.009.993 1.237-.965Zm.053 2.534 1.224-.891-.953-1.145-1.254.879.983 1.157ZM9.415 6.761l-1.02.988 1.157 1.053.91-1.06-1.047-.98Zm-4.12 1.246.796.709 1.152-.996-.834-.878-1.114 1.165Zm2.767-2.692L6.937 6.362l.879.817 1.058-.99-.812-.874ZM16.4 9.179c.498-.645.528-1.128.126-1.498-.402-.37-1.05-.357-1.498.061L16.4 9.179Zm-1.911 4.293-.981.89.228.31.994-1.045-.241-.155Zm-4.204-4.105c-.688.62-.688.62-.459.872l.754-.672-.295-.2Z"></path>
</svg>