<svg width="46" height="46" fill="currentColor" viewBox="0 0 24 24" xmlns="http://www.w3.org/2000/svg">
  <path d="M6.442 19.654c-.12.434-.188.557-.31.96a.696.696 0 0 1-.583.52c-.787.116-1.576.254-2.377.14-.735-.104-1.204-.565-1.24-1.306-.063-1.263-.085-2.528-.118-3.792-.01-.371-.014-.743.009-1.113.047-.751.4-1.151 1.149-1.202.822-.056 1.649-.043 2.473-.044.324 0 .524.216.667.483.07.131.12.274.177.402.513-.073 1.01-.164 1.51-.209.915-.081 1.817.016 2.67.371.992.414 2.017.502 3.074.401a3.2 3.2 0 0 1 .78.025c.845.129 1.252.757 1.04 1.58-.017.066-.042.129-.088.267.297-.021.56-.031.82-.06 1.117-.127 2.159-.525 3.207-.898.466-.165.927-.349 1.402-.479.28-.071.568-.096.855-.075.509.032.746.402.616.89-.107.402-.352.71-.653.981-.871.788-1.891 1.314-2.991 1.698-1.549.54-3.13.946-4.762 1.135-2.164.263-4.39.266-6.452-.442-.294-.102-.6-.144-.875-.233Zm.015-.78c.498.132.96.256 1.422.375 1.446.372 2.917.584 4.408.483 2.226-.15 4.36-.724 6.428-1.544a7.29 7.29 0 0 0 2.175-1.321c.14-.139.27-.285.393-.44l-.069-.103c-.296.088-.595.166-.887.266-1.013.346-2.017.724-3.038 1.045-.806.254-1.637.358-2.483.174a.574.574 0 0 0-.351.055c-1.075.546-2.236.644-3.41.65a3.039 3.039 0 0 1-.805-.147.307.307 0 0 1-.242-.26.31.31 0 0 1 .009-.125.606.606 0 0 1 .25-.336c.15-.07.313-.107.478-.11.452-.036.906-.056 1.359-.081.635-.036 1.263-.119 1.845-.387.235-.107.446-.263.618-.456.21-.246.098-.487-.225-.52a4.769 4.769 0 0 0-.782.01c-1.07.068-2.116-.006-3.113-.443a5.317 5.317 0 0 0-.58-.212 5.427 5.427 0 0 0-3.05-.055c-.39.105-.386.122-.365.512.032.632.076 1.263.087 1.895.007.34-.044.682-.072 1.075Zm-1.145-4.281c-.66 0-1.289-.006-1.918.002-.564.007-.705.15-.717.713-.031 1.442-.078 2.884-.08 4.326-.001.61.302.81.736.777a38.48 38.48 0 0 0 1.721-.163c.302-.037.356-.13.35-.447a6.005 6.005 0 0 1-.002-.782c.153-1.333.045-2.663-.021-3.994a4.215 4.215 0 0 0-.07-.432Z"></path>
  <path d="M13.421 7.639c.88.601 1.205 1.49 1.303 2.502.171 1.774-.881 2.88-2.116 3.352-1.017.389-2.06.586-3.143.268-1.255-.368-1.995-1.375-2.042-2.68-.058-1.63.92-3.116 2.522-3.77.976-.399 2.871-.086 3.476.328Zm-2.983 5.377c.531.063 1.498-.165 1.977-.376.883-.388 1.53-1.103 1.38-2.408-.126-1.089-.679-1.918-1.733-2.136-.55-.114-1.624-.165-2.17.067-1.194.506-1.658 1.704-1.596 3.012.061 1.28 1.35 1.746 2.142 1.841Z"></path>
  <path d="M3.978 16.372c-.358.004-.61-.225-.622-.569-.015-.393.296-.738.666-.74.43-.002.762.25.765.579.003.355-.407.725-.81.73Z"></path>
  <path d="M11.26 9.338v.976c.142.053.276.098.404.153.505.217.629.691.298 1.128-.137.18-.244.252-.646.437l-.113.573c-.02.106-.07.188-.186.19-.122.004-.165-.095-.187-.192-.041-.18-.069-.363-.106-.565l-.469-.126a1.45 1.45 0 0 1-.227-.074.274.274 0 0 1-.177-.32c.026-.128.135-.209.304-.198.185.012.368.044.546.066.075-.206.084-.328.051-.679-.125-.047-.26-.088-.386-.146-.513-.237-.626-.75-.262-1.183.15-.189.347-.334.572-.42a.267.267 0 0 0 .197-.276.712.712 0 0 1 .063-.282.207.207 0 0 1 .163-.1.21.21 0 0 1 .14.13c.022.114.035.23.036.345.123.028.243.062.362.102.19.075.28.222.256.39-.02.148-.1.198-.24.137-.12-.053-.233-.132-.393-.066Zm-.468.193c-.26.154-.392.318-.344.44.057.146.19.183.344.203V9.53Zm.486 1.83c.172-.064.33-.14.325-.315-.004-.147-.166-.177-.297-.197-.008 0-.016.006-.05.018 0 .102-.002.214.001.326.001.049.012.097.02.168Z"></path>
  <path d="M17.832 4.89v.976c.142.053.275.097.404.152.505.217.629.692.298 1.128-.137.18-.244.253-.646.437-.038.193-.076.303-.113.493-.02.106-.07.188-.186.191-.122.003-.165-.096-.187-.192-.041-.18-.069-.283-.106-.486-.148-.04-.309-.081-.469-.126a1.465 1.465 0 0 1-.227-.073.274.274 0 0 1-.177-.32c.026-.128.136-.21.304-.198.185.012.367.043.546.065.075-.205.084-.328.051-.679-.125-.046-.26-.088-.386-.146-.513-.237-.626-.75-.263-1.182.15-.19.348-.334.573-.421a.267.267 0 0 0 .197-.276.708.708 0 0 1 .062-.282.208.208 0 0 1 .163-.1.21.21 0 0 1 .14.131c.023.114.035.23.037.345.122.027.243.062.362.102.19.074.279.221.256.389-.02.148-.101.198-.24.137-.12-.052-.233-.131-.393-.066Zm-.468.193c-.26.154-.392.318-.344.44.057.146.19.182.344.203v-.643Zm.486 1.83c.172-.064.33-.14.325-.315-.004-.147-.166-.177-.297-.197-.008-.001-.016.006-.05.018 0 .102-.002.214.001.326.001.049.012.097.02.167Z"></path>
  <path d="M19.907 3.203c.879.601 1.204 1.49 1.302 2.502.172 1.774-.88 2.88-2.115 3.351-1.018.39-2.06.587-3.143.27-1.256-.37-1.996-1.376-2.042-2.681-.058-1.63.92-3.116 2.522-3.77.976-.399 2.871-.086 3.476.328ZM16.924 8.58c.531.063 1.498-.165 1.977-.376.883-.388 1.53-1.103 1.38-2.408-.126-1.089-.679-1.918-1.733-2.136-.55-.114-1.624-.165-2.171.067-1.194.506-1.657 1.703-1.595 3.012.06 1.28 1.35 1.747 2.142 1.841Z"></path>
</svg>