<svg width="46" height="46" fill="currentColor" viewBox="0 0 24 24" xmlns="http://www.w3.org/2000/svg">
  <path d="M18.377 8.433c.024-1.044.038-2.105.051-3.133l.008-.62c0-.18-.01-.36-.029-.54-.065-.69-.405-1.195-1.01-1.5-.441-.224-.924-.269-1.296-.283h-.029a424.536 424.536 0 0 0-5.29-.178l-.223-.006c-.715-.02-1.453-.04-2.171.033-1.665.169-2.109.837-2.285 1.86-.108.628-.159 1.276-.207 1.903l-.038.476c-.034.402-.053.812-.07 1.21l-.024.478c-.01.206-.023.412-.036.618-.03.472-.06.96-.063 1.442-.006.805 0 1.623.006 2.414.004.588.009 1.196.008 1.793 0 .564-.005 1.137-.01 1.692-.007.864-.015 1.759-.006 2.638.015.496.076.99.182 1.474.147.72.603 1.191 1.357 1.402.588.165 1.24.246 2.05.256.896.011 1.716.017 2.484.017.815 0 1.573-.007 2.303-.019.638-.01 1.284-.067 1.91-.122l.56-.047c.488-.04.853-.304 1.083-.784.09-.187.166-.38.226-.58.294-.988.371-1.992.396-3.193.03-1.378.043-2.78.056-4.136.005-.573.01-1.147.017-1.721v-.04l-.012-.001c.01-.28.022-.559.033-.838.026-.644.053-1.31.069-1.965ZM6.64 18.041a5.334 5.334 0 0 0-.014-.092 1.2 1.2 0 0 1-.022-.208l.02-1.181c.035-2.045.071-4.16.115-6.24.031-1.455.065-2.88.13-4.324.036-.537.098-1.072.19-1.602l.034-.23a.919.919 0 0 1 .725-.799l.105-.027c.235-.073.48-.116.726-.128h.005c1.719.006 3.485.026 5.4.06.7.013 1.412.052 2.1.089l.288.015c.16.011.318.044.47.099.324.112.521.335.57.642.051.31.08.622.085.935.004.837.004 1.83-.023 2.842-.02.761-.047 1.534-.074 2.282-.027.765-.055 1.555-.075 2.333a236.67 236.67 0 0 0-.047 2.628l-.023 1.496c-.004.248-.014.496-.025.758l-.013.343c-2.592-.103-5.207.035-7.736.169-.953.05-1.938.102-2.911.14Zm10.564.634a6.41 6.41 0 0 0-.01.116c-.005.115-.02.229-.042.341-.12.533-.22.938-.324 1.315-.08.29-.281.447-.596.469-.246.016-.493.037-.739.057a23.79 23.79 0 0 1-1.56.096c-1.69.028-3.174.029-4.536.001-.543-.01-1.254-.053-1.939-.283-.37-.124-.586-.348-.679-.704l-.027-.103c-.093-.358-.19-.727-.132-1.124l.195-.01c7.708-.363 9.92-.297 10.39-.171Z"></path>
  <path d="M10.077 10.489v.007l.043.286c.033.226.066.459.11.687.02.108.066.35.295.35a.364.364 0 0 0 .054-.004c.224-.033.221-.23.22-.372v-.029l-.008-.243a3.175 3.175 0 0 1 .007-.532l.015-.117c.044-.349.09-.71.215-1.03a1.136 1.136 0 0 1 .67-.667 1.24 1.24 0 0 1 1.016.09c.039.02.077.043.116.065.067.04.137.08.21.114.273.13.38.017.42-.062a.466.466 0 0 0-.022-.415 1.334 1.334 0 0 0-.462-.413c-.426-.211-.962-.229-1.47-.05a1.955 1.955 0 0 0-1.14.993c-.185.423-.283.88-.29 1.342Z"></path>
  <path d="M10.416 14.031a1.823 1.823 0 0 0-.458-.041h-.083a37.818 37.818 0 0 0-.758-.003H8.81v-.23c.001-.188.002-.357 0-.525l-.002-.078a3.685 3.685 0 0 0-.025-.462c-.017-.13-.047-.344-.291-.344h-.01c-.213.005-.246.171-.272.304l-.003.016a2.66 2.66 0 0 0-.046.331c-.01.159-.02.317-.028.476-.009.157-.017.314-.028.47-.037.544.168.802.683.864.308.034.617.05.926.048.123 0 .243-.002.356-.005a.849.849 0 0 0 .473-.178.475.475 0 0 0 .158-.382c-.015-.107-.167-.23-.284-.26Z"></path>
  <path d="M14.182 8.276c.266-.004.527-.003.804-.002h.325v.384c-.001.302-.002.588.002.871.005.452.206.56.375.571h.025c.234 0 .399-.21.433-.56a.952.952 0 0 0 .003-.085l.004-.34c.003-.253.007-.516.002-.774-.006-.306-.07-.507-.205-.632-.137-.127-.346-.178-.663-.16-.39.022-.784.053-1.151.083-.19.015-.322.068-.396.156a.298.298 0 0 0-.062.231c.023.22.21.261.504.257Z"></path>
  <path d="M16.133 13.77a7.66 7.66 0 0 1-.092-.576c-.014-.104-.028-.208-.044-.312l-.012-.09a.751.751 0 0 0-.069-.28.46.46 0 0 0-.284-.229.24.24 0 0 0-.197.056.323.323 0 0 0-.104.245c-.002.178.014.358.028.532l.01.126c.013.156.029.313.045.484l.02.206a18.54 18.54 0 0 0-.164.018c-.136.015-.264.03-.39.036-.092.005-.187.005-.279.005a3.652 3.652 0 0 0-.42.016c-.27.032-.432.2-.424.442a.388.388 0 0 0 .418.394h.067c.477 0 .908-.01 1.323-.098.505-.107.686-.417.568-.976Z"></path>
  <path d="M8.437 10.134h.033c.206 0 .33-.122.356-.356.026-.221.03-.447.033-.666l.005-.196c.003-.128.002-.257.001-.394v-.165c.1-.005.198-.01.293-.013.258-.012.502-.023.748-.041a.881.881 0 0 0 .408-.096c.1-.065.23-.23.21-.35-.015-.106-.144-.187-.257-.259l-.034-.021a.304.304 0 0 0-.186-.022l-.04.002c-.44.023-.872.045-1.31.072-.417.026-.549.16-.564.57-.014.359-.023.723-.033 1.075l-.009.318a.724.724 0 0 0 .008.176c.037.181.104.352.338.366Z"></path>
  <path d="M11.802 10.826c.016.097.04.191.071.284l.025.067c.06.187.145.366.25.533.1.141.307.212.392.237a.23.23 0 0 0 .224-.043.211.211 0 0 0 .052-.206c-.02-.09-.038-.181-.056-.272a6.549 6.549 0 0 0-.26-1.003.625.625 0 0 0-.387-.377.769.769 0 0 0-.643.078.943.943 0 0 0-.49.807c-.006.434.104.86.319 1.237a.393.393 0 0 0 .29.175h.006a.19.19 0 0 0 .145-.056.337.337 0 0 0 .065-.26 5.032 5.032 0 0 0-.04-.364 6.615 6.615 0 0 1-.035-.287c-.003-.04-.01-.082-.016-.125-.025-.166-.048-.325.072-.505l.016.08Z"></path>
  <path d="M13.805 10.138a2.942 2.942 0 0 0-.102-.402.364.364 0 0 0-.183-.225.215.215 0 0 0-.18.006.488.488 0 0 0-.221.274 1.532 1.532 0 0 0-.294-.58c-.177-.197-.443-.286-.787-.266-.32-.016-.55.063-.703.242a.485.485 0 0 0-.088.4.172.172 0 0 0 .093.114c.087.039.2-.003.277-.038.306-.138.564-.06.815.244.011.015.022.03.03.047a.246.246 0 0 0 .079.091l.074.049a.53.53 0 0 0 .262.119.257.257 0 0 0 .209-.125l.009-.02c.002.066.008.131.015.195l.014.17a5.454 5.454 0 0 1-.229 1.69c-.06.186-.093.379-.101.574 0 .153.061.271.163.316a.22.22 0 0 0 .089.018.334.334 0 0 0 .222-.1 1.48 1.48 0 0 0 .407-.62 4.46 4.46 0 0 0 .13-2.173Z"></path>
  <path d="M11.557 13.079c.296 0 .55-.094.684-.257a.391.391 0 0 0 .055-.329.295.295 0 0 0-.277-.14c-.463.127-.793.095-1.104-.108a.176.176 0 0 0-.19-.004.297.297 0 0 0-.14.268l.004.014c.003.01.008.02.011.033a.704.704 0 0 0 .044.108c.117.217.414.374.775.408.047.005.093.007.138.007Z"></path>
  <path d="M12.373 13.015a7.757 7.757 0 0 0-.962.188c-.091.023-.214.142-.21.227a.378.378 0 0 0 .177.283.93.93 0 0 0 .302.068c.056.006.117.014.186.025l.009.002.01-.003c.05-.015.105-.03.165-.046.156-.043.333-.092.507-.158a.375.375 0 0 0 .228-.214.277.277 0 0 0-.027-.236c-.062-.104-.27-.15-.385-.136Z"></path>
  <path d="m12.213 20.276.06.003a.607.607 0 0 0 .59-.537c.028-.319-.205-.557-.58-.591a.661.661 0 0 0-.497.124.5.5 0 0 0-.172.354c-.025.294.266.609.6.647Z"></path>
</svg>