<svg width="46" height="46" fill="currentColor" viewBox="0 0 24 24" xmlns="http://www.w3.org/2000/svg">
  <path d="M15.393 21.211c.257.05.517.083.779.096l.436.023c.658.035 1.34.072 2.01.076h.105c.624 0 1.273-.031 1.932-.093.615-.058.78-.231.8-.844.046-1.308.078-2.638.11-3.924l.017-.709a1.574 1.574 0 0 0-.04-.382c-.068-.302-.269-.491-.537-.505a.582.582 0 0 0-.595.443c-.059.216-.09.438-.092.661-.008.647-.008 1.304-.007 1.94v2.05l-.04.01a.513.513 0 0 1-.096.02l-.502.023c-.448.022-.911.044-1.367.051-.5.008-1.01.005-1.502.003-.3-.001-.601-.003-.901-.002a2.492 2.492 0 0 0-.503.036c-.288.06-.471.257-.48.514-.004.155.05.428.473.513Z"></path>
  <path d="M7.626 20.159c-.858-.013-1.73-.016-2.573-.02a547.211 547.211 0 0 1-1.23-.003h-.145l-.008-.076a2.793 2.793 0 0 1-.016-.194l-.058-1.684-.079-2.297a3.667 3.667 0 0 0-.045-.537.403.403 0 0 0-.379-.35c-.212-.017-.373.093-.453.31a.994.994 0 0 0-.052.258l-.01.11a10 10 0 0 0-.043.626 921.837 921.837 0 0 0-.109 4.349c-.01.457.26.749.741.802.157.015.315.02.472.018h.147l.707.01c1.064.012 2.164.025 3.246.031h.005c.172-.004.34-.042.497-.11a.592.592 0 0 0 .006-1.118 1.808 1.808 0 0 0-.62-.125Z"></path>
  <path d="M2.996 9.295h.012c.268 0 .48-.201.557-.528.018-.085.028-.172.028-.26l.005-.213c.005-.225.011-.456.003-.685a246.93 246.93 0 0 0-.079-1.93c-.02-.468-.04-.936-.058-1.404a8.893 8.893 0 0 1-.003-.441l.001-.15.198-.002c.183-.003.356-.005.526.004 1.198.068 2.206.088 3.231-.036a1.45 1.45 0 0 0 .529-.163.443.443 0 0 0 .23-.38.45.45 0 0 0-.226-.395 1.114 1.114 0 0 0-.457-.135 4.365 4.365 0 0 0-.508-.007l-.153.004c-.723.01-1.447.02-2.17.032l-1.66.025c-.273.004-.43.13-.48.388-.04.191-.061.385-.065.58-.013 1.306-.023 2.74-.032 4.516-.005.207.006.415.033.621.052.343.253.552.538.56Z"></path>
  <path d="M20.251 4.529c-.022.264-.044.537-.06.807l-.022.357c-.036.602-.075 1.224-.083 1.837.001.269.066.534.19.773a.49.49 0 0 0 .418.286h.006a.502.502 0 0 0 .43-.28 1.92 1.92 0 0 0 .227-.76c.117-1.41.043-2.84-.028-4.224l-.009-.168c-.016-.304-.177-.5-.465-.567a2.551 2.551 0 0 0-.664-.08c-1.14.037-2.343.084-3.785.15a1.68 1.68 0 0 0-.498.111.406.406 0 0 0-.266.44.364.364 0 0 0 .356.364c.049.005.097.01.145.017.127.015.257.03.388.034.3.01.603.014.898.018l.61.011 1.606.038.65.016v.073c.002.085.002.151-.002.217l-.042.53Z"></path>
  <path d="M15.923 12.111a1.36 1.36 0 0 0 .423-.079c.363-.126.417-.38.398-.571-.025-.258-.224-.449-.507-.487a3.207 3.207 0 0 0-.542-.013l-3.45.12-1.034.037a.08.08 0 0 0-.053.022l-.827.013-3.97.062a.447.447 0 0 1-.063-.002.365.365 0 0 0-.22.035c-.122.078-.253.176-.299.306-.065.188.039.367.26.447.096.034.196.055.298.064.126.011.253.025.38.04.315.04.633.063.95.07h.018c2.652-.011 5.348-.036 7.956-.06l.282-.004Z"></path>
</svg>