<svg width="46" height="46" fill="currentColor" viewBox="0 0 24 24" xmlns="http://www.w3.org/2000/svg">
  <path d="M18.392 8.402c.026-1.074.04-2.165.052-3.221l.006-.45a4.911 4.911 0 0 0-.032-.623c-.076-.657-.4-1.142-.965-1.442-.458-.242-.952-.29-1.332-.304l-.99-.039a296.13 296.13 0 0 0-5.155-.171 11.447 11.447 0 0 0-2.1.144c-.999.164-1.606.762-1.756 1.728-.115.74-.186 1.5-.245 2.213-.04.487-.062.983-.083 1.462a91.077 91.077 0 0 1-.054 1.113c-.028.506-.057 1.03-.06 1.545-.006.758 0 1.528.006 2.273.005.567.01 1.152.009 1.728a470.803 470.803 0 0 1-.027 4.287c-.01.54.054 1.08.191 1.602.192.706.622 1.148 1.312 1.351.595.175 1.24.258 2.091.269.893.01 1.71.016 2.479.016.814 0 1.574-.006 2.308-.019.631-.01 1.272-.066 1.892-.12.192-.016.384-.033.577-.048.5-.04.872-.315 1.106-.816.087-.189.16-.383.217-.583.318-1.072.367-2.19.388-3.153.03-1.367.042-2.758.055-4.103l.018-1.713-.014-.038.034-.86c.027-.664.055-1.351.072-2.028Zm-1.17 10.322-.065.315c-.092.45-.188.916-.299 1.37-.078.32-.296.494-.648.516-.269.017-.543.038-.807.06-.503.039-1.023.08-1.534.089-1.617.028-3.06.029-4.412.002-.611-.012-1.329-.057-2.018-.297-.34-.118-.54-.324-.631-.649l-.006-.022c-.11-.395-.225-.804-.168-1.272a160.74 160.74 0 0 0 3.389-.122c2.345-.1 4.77-.203 7.149-.086l.026.049c.01.015.018.03.024.047Zm-10.57-.678a4.295 4.295 0 0 0-.013-.094 1.227 1.227 0 0 1-.022-.209l.021-1.201c.035-2.039.071-4.146.115-6.22.03-1.457.064-2.884.13-4.324.035-.54.099-1.079.19-1.612l.034-.22a.919.919 0 0 1 .726-.797l.106-.027c.235-.073.479-.116.725-.128h.005c1.704.007 3.47.027 5.401.061.688.013 1.433.045 2.346.102.817.05 1.137.383 1.14 1.185.005 1.516-.023 3.058-.052 4.55l-.007.393c-.012.658-.033 1.326-.053 1.972-.016.529-.033 1.076-.045 1.614-.021.927-.038 1.87-.055 2.782l-.03 1.63a1.287 1.287 0 0 1-.017.162l-.01.071c-2.58-.102-5.192.036-7.718.169-.955.05-1.942.102-2.916.14Z"></path>
  <path d="M10.439 14.037a1.495 1.495 0 0 0-.43-.043h-.072a41.455 41.455 0 0 0-.794-.003h-.326v-.33c.002-.26.004-.504-.002-.747-.008-.292-.05-.563-.31-.563h-.002c-.235.001-.3.225-.326.56-.014.187-.024.376-.033.56-.008.156-.016.313-.027.47-.037.547.164.808.674.87.315.036.633.053.95.05.115 0 .226-.001.331-.003a.864.864 0 0 0 .476-.175.481.481 0 0 0 .166-.378c-.012-.116-.17-.236-.275-.268Z"></path>
  <path d="M14.176 8.275c.03-.001.058-.004.088-.003h1.078v.423l-.007.302c-.005.198-.01.404-.006.606.007.295.137.477.357.5a.346.346 0 0 0 .04.003c.206 0 .37-.177.421-.464a.765.765 0 0 0 .014-.13c0-.118.002-.237.004-.356.005-.289.01-.587 0-.882-.008-.26-.073-.444-.2-.562-.127-.118-.312-.17-.57-.16-.39.015-.784.048-1.167.08l-.148.013a.369.369 0 0 0-.254.093.47.47 0 0 0-.12.311c.008.089.134.18.221.208.082.02.166.026.249.018Z"></path>
  <path d="M16.159 13.823a12.49 12.49 0 0 1-.097-.614l-.052-.355a2.097 2.097 0 0 1-.01-.072.661.661 0 0 0-.068-.258c-.058-.097-.165-.217-.277-.236a.242.242 0 0 0-.201.05.32.32 0 0 0-.108.241c0 .187.008.373.027.559l.008.099c.013.156.029.31.047.487l.023.223-.21.015c-.168.012-.314.023-.461.03a4.637 4.637 0 0 1-.22.004 2.718 2.718 0 0 0-.4.021c-.243.037-.393.2-.39.426.004.228.151.376.405.407.18.023.361.035.543.036.318.004.635-.046.937-.147.429-.147.594-.447.504-.916Z"></path>
  <path d="M8.468 10.138h.004a.34.34 0 0 0 .367-.336c.022-.287.031-.57.04-.86.004-.129.003-.255.002-.401v-.178l.277-.013c.254-.012.494-.023.735-.041l.024-.002a.898.898 0 0 0 .389-.086.513.513 0 0 0 .24-.333.254.254 0 0 0-.056-.192.402.402 0 0 0-.279-.127 1.756 1.756 0 0 0-.266.003l-.067.004-.917.051-.065.004-.103.004c-.09.002-.18.01-.27.022-.212.035-.35.173-.359.362-.031.64-.046 1.216-.044 1.764a.363.363 0 0 0 .1.262.346.346 0 0 0 .248.093Z"></path>
  <path d="M12.18 19.15a.589.589 0 0 0-.428.178.51.51 0 0 0-.128.38c.014.283.356.577.67.577h.007a.615.615 0 0 0 .576-.57.5.5 0 0 0-.15-.377.724.724 0 0 0-.548-.187Z"></path>
</svg>