<svg width="46" height="46" fill="currentColor" viewBox="0 0 24 24" xmlns="http://www.w3.org/2000/svg">
  <path d="M17.36 2.6c-.444-.225-.925-.27-1.295-.285l-1.062-.04a298.335 298.335 0 0 0-5.083-.17 11.507 11.507 0 0 0-2.1.145c-.999.163-1.607.76-1.757 1.726a30.708 30.708 0 0 0-.245 2.214c-.04.485-.062.98-.083 1.458l-.023.518-.031.601c-.028.505-.057 1.028-.06 1.542-.006.759 0 1.53.006 2.275.005.566.01 1.151.009 1.726a463.408 463.408 0 0 1-.027 4.288A5.81 5.81 0 0 0 5.8 20.2c.192.707.62 1.15 1.31 1.351.606.178 1.264.261 2.133.27.717.009 1.559.015 2.461.015.734 0 1.508-.004 2.284-.017a27.46 27.46 0 0 0 1.89-.12l.58-.049c.5-.04.873-.314 1.107-.814.086-.19.16-.384.217-.584.32-1.085.369-2.218.389-3.194.028-1.356.041-2.735.054-4.068.005-.57.011-1.138.018-1.707l-.014-.038.034-.861c.027-.664.055-1.351.072-2.027.025-1.038.038-2.094.051-3.116l.007-.555c0-.194-.01-.388-.029-.58-.063-.692-.401-1.198-1.004-1.505ZM6.57 18.796c1.069-.027 2.154-.074 3.203-.119 2.418-.103 4.916-.21 7.405-.092l-.003.027c-.085.715-.164 1.39-.493 1.988a.588.588 0 0 1-.326.23 2.75 2.75 0 0 1-.719.122l-.857.015c-1.787.031-3.634.064-5.45.06-.764 0-1.379-.093-1.936-.289-.344-.12-.547-.325-.639-.643-.124-.43-.224-.826-.185-1.3v.001Zm10.273-1.111c-2.11-.083-4.193.015-6.145.123-.948.052-1.913.097-2.846.14l-.818.039a5.297 5.297 0 0 1-.313.002l-.161-.001v-.462l.027-1.948c.02-1.55.04-3.154.074-4.732.037-1.717.093-3.42.168-5.065.031-.47.09-.937.178-1.399l.045-.267a.926.926 0 0 1 .732-.793l.107-.028c.235-.072.478-.114.723-.125h.006c1.702.006 3.468.027 5.4.062.688.012 1.433.044 2.346.1.802.05 1.13.384 1.133 1.15.005 1.554-.024 3.133-.052 4.66l-.006.325c-.012.66-.033 1.33-.053 1.978-.016.527-.033 1.072-.045 1.608-.022.982-.04 1.98-.057 2.947l-.028 1.507a1.114 1.114 0 0 1-.01.112l-.009.067h-.103c-.1.001-.196.002-.293-.002Z"></path>
  <path d="M13.599 8.114c-.487-.28-1.034-.449-1.772-.546-.972-.127-2.077.322-2.815 1.146a3.244 3.244 0 0 0-.751 3.012c.069.259.155.513.258.761.038.097.076.195.113.295l-.102-.019c-.123-.023-.24-.045-.36-.063-.239-.036-.566-.05-.642.237-.063.238.061.391.43.528.18.067.367.128.548.186.269.087.546.177.808.29.127.058.264.09.403.093a.639.639 0 0 0 .3-.07c.196-.103.331-.314.391-.609.088-.432.14-.878.192-1.309l.029-.242a1.01 1.01 0 0 0-.042-.381.34.34 0 0 0-.187-.252.295.295 0 0 0-.274.058.994.994 0 0 0-.352.41 4.722 4.722 0 0 0-.193.618c-.022.084-.044.169-.068.252l-.051.186-.013.046-.012-.012a.51.51 0 0 1-.067-.078c-.733-1.185-.682-2.9.837-3.887.827-.537 1.723-.532 2.818.016a1.547 1.547 0 0 1 .823.99c.306 1.063.23 1.994-.232 2.848a3.028 3.028 0 0 0-.246.57c-.05.167-.04.29.03.368.071.078.195.1.368.066.278-.055.438-.256.558-.445.724-1.144.805-2.4.255-3.953-.163-.46-.484-.823-.982-1.11Z"></path>
  <path d="M12.226 20.238h.008a.589.589 0 0 0 .412-.181.574.574 0 0 0 .175-.413c-.008-.314-.258-.525-.637-.538a.62.62 0 0 0-.473.156.506.506 0 0 0-.144.38c.005.29.337.59.659.596Z"></path>
</svg>