<svg width="46" height="46" fill="currentColor" viewBox="0 0 24 24" xmlns="http://www.w3.org/2000/svg">
  <path d="M9.152 19.213c.17.293.454.538.652.696.482.373 1.019.67 1.59.881.59.234 1.22.354 1.855.354a6.19 6.19 0 0 0 2.121-.402 4.42 4.42 0 0 0 1.316-.783c.733-.61 1.243-1.443 1.559-2.548.41-1.433.586-2.924.52-4.414-.017-.39-.132-.78-.243-1.157l-.016-.054a1.268 1.268 0 0 0-.751-.824c-.56-.238-1.078-.168-1.54.207-.286-.539-.744-.895-1.264-.98a1.418 1.418 0 0 0-1.224.387c-.58-.79-1.028-.873-1.935-.352l-.03-.458c-.024-.38-.048-.774-.086-1.158a61.322 61.322 0 0 0-.278-2.414 2.698 2.698 0 0 0-.516-1.221c-.32-.437-.764-.536-1.25-.277a1.187 1.187 0 0 0-.6.743c-.055.187-.09.38-.104.575l-.027.398c-.035.517-.072 1.052-.071 1.579.001 1.082.018 2.141.036 3.262l.02 1.257-.008-.006a1.524 1.524 0 0 0-.13-.11c-.81-.604-1.681-.822-2.591-.648a1.188 1.188 0 0 0-.914.73 1.268 1.268 0 0 0 .192 1.218c.129.161.274.308.433.44l.066.06a6.395 6.395 0 0 1 1.443 1.814 82.28 82.28 0 0 0 1.775 3.205Zm.437-8.79a25.684 25.684 0 0 0-.024-.612c-.016-.353-.034-.718-.025-1.075.023-.933.078-1.882.13-2.799l.002-.04c.017-.296.09-.612.5-.716.265.197.426.485.492.879.109.648.18 1.234.219 1.792.056.813.098 1.64.139 2.44.02.394.04.787.062 1.18.01.18.056.423.343.464.28.04.386-.18.465-.34.036-.073.07-.147.104-.22.095-.224.213-.438.352-.637.121-.16.28-.238.432-.213.156.025.285.152.352.348.052.183.08.373.083.564.004.065.008.13.014.195a.81.81 0 0 1-.005.144.52.52 0 0 0 .012.234.43.43 0 0 0 .275.252.45.45 0 0 0 .343-.149.414.414 0 0 0 .08-.204.727.727 0 0 1 .03-.116l.068-.182a5.93 5.93 0 0 1 .255-.61c.137-.271.407-.247.556-.21.385.1.616.33.686.683.034.196.052.393.056.591l.007.14c.012.215.059.422.322.476.263.054.38-.15.458-.285l.044-.076a3.81 3.81 0 0 1 .258-.409c.195-.257.416-.382.624-.352.194.028.358.194.462.468.168.415.267.855.295 1.302.037 1.024-.091 2.103-.415 3.499a5.073 5.073 0 0 1-.807 1.777c-.441.626-1.093 1.065-1.992 1.34-1.567.48-3.037.217-4.495-.804a1.577 1.577 0 0 1-.402-.385c-.25-.36-.48-.733-.69-1.117a39.802 39.802 0 0 1-.91-1.799c-.524-1.1-1.173-1.94-1.985-2.567a.227.227 0 0 1-.026-.023l-.083-.083c-.154-.153-.3-.297-.224-.539.083-.264.32-.306.572-.306h.033c.891.011 1.553.346 1.966.995.07.128.123.266.155.409.01.04.022.078.033.117.053.176.14.36.385.385.201.02.378-.132.442-.38.03-.123.043-.25.038-.376a499.662 499.662 0 0 0-.061-3.05Z"></path>
  <path d="M12.614 4.84c.163.042.331.062.5.058a267.724 267.724 0 0 0 2.68-.05c.066-.002.132-.001.212 0h.06l-.211.275c-.184.24-.358.466-.524.694-.12.163-.168.313-.142.432a.253.253 0 0 0 .129.17.35.35 0 0 0 .175.051c.16 0 .275-.135.365-.241.4-.47.828-.977 1.237-1.494.15-.19.205-.325.181-.448-.024-.125-.129-.233-.352-.362l-.216-.125c-.443-.255-.902-.52-1.347-.79-.275-.166-.47-.23-.596-.042-.119.176-.039.363.239.555.215.148.431.287.682.447l.265.17h-.003c-.05.006-.08.009-.111.01l-.788.034c-.606.026-1.233.053-1.85.083-.195.005-.39.032-.578.08a.364.364 0 0 0-.207.26c-.016.085.118.21.2.233Z"></path>
</svg>