<svg width="46" height="46" fill="currentColor" viewBox="0 0 24 24" xmlns="http://www.w3.org/2000/svg">
  <path d="M16.723 20.105c.724-.602 1.23-1.423 1.543-2.511a13.7 13.7 0 0 0 .528-4.455 4.252 4.252 0 0 0-.28-1.25 1.31 1.31 0 0 0-1.399-.893c-.223.032-.44.092-.648.178-.089.033-.18.067-.274.097a1.542 1.542 0 0 0-1.043-.887c-.565-.153-1.03-.028-1.385.37-.19-.304-.447-.612-.896-.691-.39-.069-.706.084-1.076.36 0-.046 0-.087.002-.126a3.11 3.11 0 0 0-.005-.313l-.057-.72c-.064-.801-.13-1.629-.214-2.44-.069-.664-.261-1.212-.588-1.674-.335-.473-.802-.571-1.314-.276a1.156 1.156 0 0 0-.556.726 3.14 3.14 0 0 0-.117.699l-.014.4a74.59 74.59 0 0 0-.07 2.814c-.001.742.021 1.468.045 2.236.01.303.02.608.027.916l-.021-.018a3.127 3.127 0 0 0-.174-.135c-.833-.59-1.709-.792-2.6-.601a1.17 1.17 0 0 0-.938 1.282c.02.199.09.39.203.555.154.214.335.407.538.575.65.585 1.13 1.189 1.47 1.845a74.587 74.587 0 0 0 1.753 3.171c.176.302.455.548.678.728.424.341.93.62 1.592.879.587.231 1.214.35 1.845.35a6.18 6.18 0 0 0 2.092-.39 4.481 4.481 0 0 0 1.353-.801Zm-6.375-.828a1.459 1.459 0 0 1-.37-.361c-.248-.36-.48-.733-.69-1.117a42.492 42.492 0 0 1-.93-1.836c-.517-1.082-1.16-1.91-1.963-2.532a.242.242 0 0 1-.027-.022 3.945 3.945 0 0 0-.077-.077c-.169-.166-.329-.323-.225-.578.106-.261.377-.284.625-.284h.004a2.358 2.358 0 0 1 1.687.675c.226.213.376.493.43.798.07.394.299.445.428.44.21-.008.373-.182.426-.454.015-.098.021-.197.016-.296a861.52 861.52 0 0 0-.063-3.091 42.88 42.88 0 0 0-.023-.678c-.016-.426-.034-.866-.024-1.298.018-.849.075-1.693.13-2.509.03-.43.1-.538.495-.726.266.193.424.471.496.875.104.565.178 1.136.22 1.709.057.85.1 1.716.142 2.553l.059 1.15c.01.18.055.423.335.47.285.047.402-.19.471-.333l.066-.135c.112-.232.228-.473.361-.697.067-.114.217-.294.476-.232a.485.485 0 0 1 .365.4c.038.2.063.402.075.604.003.075.001.149-.006.223a2.605 2.605 0 0 0-.01.145c-.003.204.097.334.285.365a.32.32 0 0 0 .394-.24l.03-.104c.011-.044.024-.088.037-.133l.044-.148c.03-.12.07-.24.118-.355l.007-.014c.122-.275.237-.534.588-.502.388.036.647.23.772.578.043.138.072.28.086.425l.012.09a.978.978 0 0 1 .005.171 1.42 1.42 0 0 0 0 .113c.011.332.102.484.313.526.26.051.372-.131.47-.293l.013-.02.067-.11c.09-.164.198-.319.319-.462.164-.181.361-.268.538-.238.165.028.303.154.388.354.141.335.331.836.35 1.327a11.814 11.814 0 0 1-.499 3.853 5.671 5.671 0 0 1-.719 1.506c-.415.617-1.051 1.053-1.945 1.334-1.6.502-3.094.237-4.572-.809Z"></path>
  <path d="m6.634 7.428-.141-.12c-.14-.12-.273-.231-.406-.337-.151-.12-.307-.124-.428-.012-.189.176-.02.358.035.418l.128.137c.343.371.699.755 1.058 1.123a.489.489 0 0 0 .34.175h.019a.416.416 0 0 0 .3-.186c.28-.365.553-.745.816-1.113l.155-.217a.419.419 0 0 0 .106-.247c-.007-.088-.044-.25-.138-.303-.096-.053-.256-.005-.335.032a.314.314 0 0 0-.123.144.732.732 0 0 1-.038.063l-.493.706-.024-.012a4.809 4.809 0 0 0-.014-.095 2.043 2.043 0 0 1-.028-.244C7.39 6.26 7.36 5.181 7.33 4.101l-.02-.711c-.002-.04-.002-.081-.002-.122a2.054 2.054 0 0 0-.01-.252c-.035-.29-.193-.34-.32-.331-.16.011-.248.125-.262.337l-.02.283c-.019.244-.038.497-.04.747-.004.673-.003 1.358-.002 2.02l.001 1.111a1.906 1.906 0 0 1-.02.245Z"></path>
</svg>