<svg width="46" height="46" fill="currentColor" viewBox="0 0 24 24" xmlns="http://www.w3.org/2000/svg">
  <path d="M18.247 17.758c.415-1.432.591-2.924.521-4.414a3.986 3.986 0 0 0-.33-1.363 1.337 1.337 0 0 0-.854-.758 1.473 1.473 0 0 0-1.228.187c-.043.028-.084.057-.127.087l-.023.016a1.745 1.745 0 0 0-1.216-.974 1.419 1.419 0 0 0-1.26.382c-.185-.288-.435-.582-.867-.67-.417-.083-.746.12-1.064.317l-.002.002-.031-.474a31.882 31.882 0 0 0-.126-1.56c-.062-.656-.127-1.335-.246-1.994-.065-.356-.224-.743-.486-1.182-.152-.256-.351-.41-.59-.456-.227-.044-.485.015-.746.17a1.175 1.175 0 0 0-.542.736 2.98 2.98 0 0 0-.1.574l-.027.396c-.034.518-.07 1.054-.069 1.582.002 1.071.019 2.166.036 3.224l.018 1.258a.38.38 0 0 1-.088-.07.785.785 0 0 0-.073-.063c-.822-.594-1.695-.802-2.597-.617a1.176 1.176 0 0 0-.875.704 1.222 1.222 0 0 0 .135 1.157c.096.132.207.254.33.362.07.067.143.136.208.209.116.13.239.26.357.386.31.31.593.647.846 1.005.256.404.488.823.696 1.254.116.23.236.468.362.697l.028.05c.303.553.616 1.123.96 1.663.17.254.382.478.626.663a6.062 6.062 0 0 0 1.627.898 5.07 5.07 0 0 0 1.831.34 6 6 0 0 0 2.105-.402c.46-.171.88-.47 1.307-.788.734-.546 1.235-1.351 1.574-2.534ZM9.593 10.74c-.005-.2-.014-.404-.024-.601-.016-.343-.033-.698-.024-1.045.025-1.015.08-2.005.132-2.84.028-.452.104-.566.503-.727.254.173.408.446.485.856.107.551.18 1.108.221 1.667.06.874.103 1.764.145 2.624l.056 1.12c.01.204.057.42.322.48.258.06.395-.15.494-.361l.065-.142c.1-.239.224-.466.372-.678.128-.17.29-.253.446-.227.158.027.289.161.358.37.049.177.075.36.078.544.004.059.007.117.012.175a.816.816 0 0 1-.007.146.538.538 0 0 0 .008.231c.046.12.137.217.254.272a.286.286 0 0 0 .326-.071.313.313 0 0 0 .064-.107 1.2 1.2 0 0 0 .052-.184 1.27 1.27 0 0 1 .048-.17l.056-.148c.066-.194.148-.382.245-.563.138-.239.303-.301.588-.222.364.1.592.328.66.66.035.193.055.39.06.588l.009.183c.012.187.057.386.301.449.24.06.367-.092.47-.265l.072-.124c.075-.137.16-.27.252-.396.187-.24.41-.362.612-.333.192.028.353.188.454.45.172.414.274.853.3 1.3a11.486 11.486 0 0 1-.456 3.612 6.263 6.263 0 0 1-.784 1.7c-.405.605-1.044 1.036-1.955 1.318-1.576.489-3.059.223-4.531-.81a1.456 1.456 0 0 1-.373-.36c-.25-.359-.481-.731-.693-1.114a44.576 44.576 0 0 1-.967-1.91c-.497-1.035-1.125-1.84-1.921-2.461a.532.532 0 0 1-.058-.05l-.065-.067c-.16-.16-.313-.313-.219-.559.101-.263.364-.29.623-.293h.027c.8 0 1.962.515 2.103 1.503.037.26.185.407.407.407h.006c.22-.002.366-.14.422-.4.024-.11.034-.222.032-.335a496.29 496.29 0 0 0-.063-3.092Z"></path>
  <path d="m7.5 3.695.126.152c.17.204.338.407.508.608.088.109.185.21.291.3a.392.392 0 0 0 .286.098.261.261 0 0 0 .179-.108.498.498 0 0 0 .06-.407 1.298 1.298 0 0 0-.272-.4l-.014-.016a75.895 75.895 0 0 0-.78-.871l-.294-.327c-.166-.184-.291-.262-.42-.263-.123 0-.244.073-.392.237a48.68 48.68 0 0 0-1.243 1.448l-.31.37a.375.375 0 0 0-.103.27.28.28 0 0 0 .108.192c.14.118.313.094.461-.062.1-.104.195-.215.288-.322.068-.078.136-.156.206-.233a7.51 7.51 0 0 0 .132-.15 4.85 4.85 0 0 1 .362-.386v.077l.001.207.021.763c.023.817.046 1.663.077 2.494.012.236.049.47.111.697a.35.35 0 0 0 .356.264l.037-.001a.348.348 0 0 0 .337-.324 2.17 2.17 0 0 0 .021-.418 78.84 78.84 0 0 0-.053-.813 43.34 43.34 0 0 1-.081-1.367 26.31 26.31 0 0 1-.009-1.245c.002-.153.003-.307.003-.464Z"></path>
</svg>