<svg width="46" height="46" fill="currentColor" viewBox="0 0 24 24" xmlns="http://www.w3.org/2000/svg">
  <path d="M19.746 11.524c-.27-.693-.908-1.049-1.63-.905-.174.043-.342.11-.498.196-.066.032-.133.066-.202.097a1.497 1.497 0 0 0-1.057-.923c-.563-.152-1.025-.028-1.373.368-.237-.381-.538-.615-.875-.678-.34-.063-.7.046-1.071.323l-.031-.475a32.817 32.817 0 0 0-.128-1.567c-.062-.653-.126-1.329-.244-1.984a3.62 3.62 0 0 0-.48-1.184c-.147-.25-.338-.406-.567-.461-.243-.06-.52.002-.8.176-.462.29-.565.77-.604 1.157-.052.522-.08.994-.084 1.443-.012 1.157-.013 2.35-.003 3.545.003.386.023.777.043 1.155l.023.48a3.082 3.082 0 0 1-.073-.058 1.632 1.632 0 0 0-.112-.09c-.817-.598-1.69-.81-2.594-.631a1.181 1.181 0 0 0-.896.723 1.264 1.264 0 0 0 .177 1.2c.13.167.277.319.44.454l.056.05a6.49 6.49 0 0 1 1.468 1.845 74.023 74.023 0 0 0 1.755 3.171c.174.3.455.546.68.726.411.33.905.605 1.553.862.597.24 1.233.362 1.877.362a6.196 6.196 0 0 0 2.099-.393 4.56 4.56 0 0 0 2.633-2.62c.635-1.634.881-3.413.756-5.44a3.166 3.166 0 0 0-.238-.924Zm-8.848 1.736c-.018-1.027-.04-2.033-.061-2.968a55.785 55.785 0 0 0-.023-.708c-.017-.47-.035-.956-.026-1.433.015-.747.065-1.506.114-2.24l.018-.269c.028-.417.176-.627.495-.7.255.166.412.437.49.85.109.551.183 1.108.223 1.668.055.81.095 1.634.135 2.431l.067 1.313c.017.312.138.479.36.494.272.02.373-.19.453-.357.03-.062.058-.125.087-.188.093-.223.208-.436.346-.634.133-.176.299-.26.454-.233.163.029.296.174.365.398.044.174.067.353.069.532l.01.19a.699.699 0 0 1-.006.126.453.453 0 0 0 .008.211c.045.12.132.218.245.278a.296.296 0 0 0 .333-.063.296.296 0 0 0 .064-.101c.026-.062.047-.125.063-.19l.025-.089.049-.17a2.57 2.57 0 0 1 .124-.372l.004-.01c.119-.262.231-.51.563-.488.269.018.619.124.762.524.066.214.105.434.118.657l.01.097c.004.042.005.085.007.128.007.194.014.414.288.489.288.08.4-.12.497-.295.019-.034.037-.068.057-.1l.055-.088c.078-.134.167-.261.267-.38.165-.183.35-.271.526-.248.172.023.327.154.436.368.256.503.37.99.337 1.449-.066.953-.174 1.9-.28 2.782-.088.733-.385 1.406-.662 1.967-.442.891-1.17 1.469-2.29 1.818-1.557.484-3.026.219-4.492-.811a1.578 1.578 0 0 1-.4-.389 12.54 12.54 0 0 1-.687-1.118 43.91 43.91 0 0 1-.95-1.871c-.49-1.025-1.115-1.832-1.915-2.468a1.418 1.418 0 0 1-.337-.39.32.32 0 0 1-.038-.26.376.376 0 0 1 .217-.216 1.22 1.22 0 0 1 .504-.107c.093 0 .185.01.276.027.701.13 1.172.39 1.482.82.109.172.193.358.25.553l.05.145c.07.188.165.364.4.367h.007c.205 0 .354-.128.41-.351.032-.123.048-.25.047-.377Z"></path>
  <path d="M4.209 5.016c.366.374.793.807 1.219 1.225a.38.38 0 0 0 .242.104h.009c.075-.003.255-.02.32-.113a.375.375 0 0 0-.005-.346 1.284 1.284 0 0 0-.26-.281l-.059-.052c-.144-.131-.29-.26-.46-.408l-.164-.143h1.016c.558.001 1.134.003 1.7-.016l.129-.003c.35-.008.711-.016 1.068-.228l.038-.022-.025-.037a.575.575 0 0 0-.49-.277 69.831 69.831 0 0 0-2.713-.034h-.475l.877-.69.062-.045c.126-.092.3-.217.162-.425a.243.243 0 0 0-.16-.12c-.1-.016-.192.055-.273.118a1.46 1.46 0 0 1-.076.056c-.244.155-.49.317-.727.473-.29.192-.59.39-.89.577a.391.391 0 0 0-.186.498.484.484 0 0 0 .12.189Z"></path>
</svg>