<svg width="46" height="46" fill="currentColor" viewBox="0 0 24 24" xmlns="http://www.w3.org/2000/svg">
  <path d="M6.702 14.941c1.331.23 2.659.127 4.06-.317a9.45 9.45 0 0 0 2.315-1.079c.136.151.27.302.402.452.326.367.635.713.957 1.061 1.576 1.7 3.286 3.317 4.94 4.88l.9.854c.236.216.494.405.771.563a.543.543 0 0 0 .457.003.332.332 0 0 0 .17-.2.408.408 0 0 0-.029-.31 4.268 4.268 0 0 0-.477-.776c-.3-.357-.619-.698-.956-1.021-.784-.764-1.585-1.536-2.36-2.283l-1.61-1.555a430.575 430.575 0 0 1-1.664-1.621l-.701-.686.03-.034c.045-.048.08-.086.116-.122.892-.868 1.38-1.955 1.453-3.23.126-2.212-.615-4.09-2.204-5.583A4.703 4.703 0 0 0 10.41 2.64a7.46 7.46 0 0 0-3.091.353c-1.525.522-2.82 1.522-3.848 2.974-.885 1.25-1.24 2.638-1.055 4.124.121.97.511 1.889 1.266 2.98.712 1.03 1.7 1.643 3.02 1.871ZM8.279 4.134c.354-.03.721-.062 1.081-.074a5.99 5.99 0 0 1 .182-.003c1.642 0 2.903.749 3.752 2.228.76 1.324.974 2.592.657 3.878a3.242 3.242 0 0 1-.635 1.317 4.93 4.93 0 0 1-1.375 1.161 8.343 8.343 0 0 1-3.927 1.096 30.87 30.87 0 0 0-.397-.041 13.79 13.79 0 0 1-.887-.107 2.971 2.971 0 0 1-1.856-1.059 5.816 5.816 0 0 1-1.202-2.307 4.437 4.437 0 0 1 .263-2.954c.473-1.057 1.101-1.837 1.92-2.384.657-.437 1.255-.662 1.883-.708.18-.013.36-.028.54-.043Z"></path>
</svg>