<svg width="46" height="46" fill="currentColor" viewBox="0 0 24 24" xmlns="http://www.w3.org/2000/svg">
  <path d="M20.724 4.802c-.127.099-.205.148-.269.21-2.499 2.46-4.996 4.92-7.49 7.382-.592.585-1.143 1.21-1.712 1.816-.097.115-.204.22-.32.315a.367.367 0 0 1-.458.012.33.33 0 0 1-.1-.407c.062-.166.15-.32.26-.458.575-.691 1.122-1.412 1.75-2.053 2.399-2.443 4.825-4.859 7.24-7.285.111-.112.218-.228.384-.401-.524 0-.959.012-1.392-.004a4.035 4.035 0 0 1-.809-.104c-.28-.07-.402-.297-.327-.52.061-.182.225-.274.498-.275.696-.003 1.392.006 2.088-.012.422-.01.843-.06 1.264-.095.54-.044.742.212.618.742a5.47 5.47 0 0 0-.094.808c-.06.732-.106 1.465-.172 2.196a1.46 1.46 0 0 1-.14.466.502.502 0 0 1-.528.307.462.462 0 0 1-.388-.463c-.01-.353.02-.707.036-1.06.016-.35.038-.701.06-1.117Z"></path>
  <path d="M15.958 2.995c-.031.349-.327.532-.678.526-1.335-.021-2.18.102-3.515.074-1.72-.035-3.44-.09-5.16-.093a14.056 14.056 0 0 0-2.261.176c-.498.08-.8.128-1.007 1.046-.094.418-.168 6.516-.158 8.274.012 2.044-.001 4.088-.004 6.133-.001.27.017.54.054.809a.895.895 0 0 0 .833.77c.05.003.1.005.15.005 2.541-.003 5.083.007 7.624-.032 1.967-.03 3.932-.145 5.9-.06.464.02.93.022 1.394.01.119-.005.238-.016.355-.032a.685.685 0 0 0 .59-.612c.042-.447.092-.897.09-1.345-.016-2.403.097-6.792.093-9.472a.581.581 0 0 1 .748-.56.584.584 0 0 1 .42.56c.001 2.983-.05 6.93-.054 9.71a6.881 6.881 0 0 1-.196 1.542 1.652 1.652 0 0 1-1.456 1.263c-.29.028-.58.039-.872.032a111.12 111.12 0 0 0-7.732.06c-1.937 0-4.478.005-7.02-.007a5.08 5.08 0 0 1-1.05-.144c-.406-.089-.77-.359-.846-.766a9.731 9.731 0 0 1-.144-1.734c-.007-2.111.04-4.223.052-6.334.011-2.003-.004-4.006.01-6.009.008-.966.04-1.932.096-2.897.036-.608.357-1.044.95-1.258.74-.268 1.51-.31 2.29-.322 1.597-.025 3.196-.04 4.793-.003 2.04.047 3.046.055 4.988.13.382.014.756.18.723.56Z"></path>
</svg>