<svg width="46" height="46" fill="currentColor" viewBox="0 0 24 24" xmlns="http://www.w3.org/2000/svg">
  <path d="M5.06 11.435c.022-1.387.049-3.217.082-5.047a3.1 3.1 0 0 1 .07-.562c.099-.48.338-.61.79-.41.593.264 1.174.554 1.766.818C10.2 7.32 12.624 8.42 15.07 9.472c.941.404 1.932.693 2.9 1.035.165.058.332.115.493.184a.672.672 0 0 1 .398.435c.02.065.031.132.057.194.223.538.193.7-.31.998-1.303.772-2.609 1.54-3.93 2.279a75.86 75.86 0 0 1-6.99 3.428c-.557.24-1.147.404-1.723.6a.865.865 0 0 1-.238.043c-.26.01-.378-.074-.414-.336a12.34 12.34 0 0 1-.14-1.33c-.047-1.707-.071-3.415-.112-5.567Zm1.32 6.124a101.98 101.98 0 0 0 10.424-5.399c-.329 0-.578-.012-.826.003-.728.043-1.457.096-2.185.146-1.025.07-2.05.155-3.075.21-1.43.074-2.858.26-4.294.119a.702.702 0 0 0-.158.032l.114 4.89Zm-.117-5.854c.179.01.312.028.445.024.77-.029 1.54-.04 2.308-.1 1.873-.143 3.744-.309 5.617-.466l1.352-.117C12.625 9.7 9.412 8.072 6.097 6.559c.023 1.755.085 3.44.166 5.146Z"></path>
</svg>