<svg width="46" height="46" fill="currentColor" viewBox="0 0 24 24" xmlns="http://www.w3.org/2000/svg">
  <path d="M5.287 9.64c0-.31-.012-.538.004-.763.015-.217-.09-.272-.281-.293a9.777 9.777 0 0 1-1.151-.163c-.56-.13-.853-.446-.858-1.012-.009-1.03.036-2.059.068-3.087.008-.289.148-.533.416-.64.354-.143.724-.322 1.094-.339 2.794-.13 5.59-.25 8.386-.32 1.793-.045 3.588-.014 5.381.008.495.012.988.066 1.474.162.671.126.946.43 1.038 1.1.127.931.18 1.867.012 2.8-.161.897-.604 1.296-1.512 1.385-.28.027-.561.029-.842.043-.4.019-.411.035-.332.495.123.01.253.022.384.03.28.02.562.028.841.057 1.12.12 1.437.4 1.536 1.513.075.772.087 1.548.035 2.322-.076.997-.546 1.424-1.534 1.532-.517.057-1.038.083-1.59.126l.037.722c.137.013.266.024.394.038.518.062 1.04.1 1.552.193.489.09.827.39.91.899.164 1.009.223 2.024.033 3.036-.158.845-.611 1.271-1.479 1.318-1.108.06-2.22.07-3.33.085-3.052.04-6.104.078-9.156.096-.788.005-1.578-.064-2.366-.108a3.364 3.364 0 0 1-.554-.087c-.684-.154-.977-.46-.983-1.166-.008-.976.041-1.952.072-2.927.01-.321.159-.585.458-.7.442-.17.9-.295 1.434-.466l.085-.614c-.323-.05-.613-.083-.897-.142-.64-.133-.946-.446-.964-1.097-.027-.989-.004-1.98.005-2.969.004-.32.147-.588.446-.707a8.62 8.62 0 0 1 1.133-.352c.173-.043.365-.007.601-.007Zm6.727 4.065v-.055c.454 0 .909.011 1.363-.002 1.912-.054 3.824-.113 5.736-.176.582-.02.726-.133.746-.71.026-.733-.011-1.468-.024-2.202-.005-.25-.118-.395-.389-.406-.253-.01-.505-.057-.758-.066-3.173-.118-6.338.058-9.503.268-1.68.112-3.363.213-5.045.301-.268.015-.308.152-.295.364.052.828.106 1.655.153 2.482.016.287.175.402.44.405 1.19.013 2.38.06 3.57.027 1.336-.039 2.67-.15 4.006-.23Zm-.582 2.6-.002.053c-.908.048-1.816.105-2.725.142-1.55.065-3.1.121-4.652.17-.278.007-.343.137-.333.374.032.775.058 1.55.09 2.326.02.463.06.537.542.56 1.149.055 2.299.113 3.448.098 2.288-.03 4.574-.116 6.862-.165 1.43-.032 2.863-.033 4.294-.059.537-.01.694-.126.725-.647.044-.746.027-1.494.031-2.242.002-.25-.115-.397-.38-.418-.294-.024-.585-.088-.878-.093-2.34-.039-4.681-.067-7.022-.1Zm.006-12.338-.002.062c-.775.039-1.55.083-2.325.115-1.644.068-3.288.137-4.932.188-.276.008-.396.085-.383.365.034.762.059 1.524.09 2.285.022.525.053.593.572.618 1.135.054 2.273.108 3.408.093 2.221-.03 4.441-.116 6.662-.164 1.498-.033 2.997-.037 4.495-.063.556-.01.702-.118.738-.676a25.86 25.86 0 0 0 .032-2.121c-.008-.428-.056-.454-.495-.522a4.704 4.704 0 0 0-.638-.07c-2.407-.04-4.815-.077-7.222-.11Zm5.278 10.615-10.75.37.106.651 10.604-.359.04-.662ZM6.385 9.535l10.505-.58a.806.806 0 0 0 .039-.156 1.946 1.946 0 0 0-.024-.27l-10.64.13c.029.29.05.515.075.74.01.047.026.092.045.136Z"></path>
  <path d="M8.674 12.427c-.753.035-1.728.083-2.703.126-.173.007-.365.038-.515-.023-.135-.056-.29-.212-.313-.344-.017-.104.132-.306.248-.348.254-.085.518-.131.785-.138 1.938-.076 3.876-.144 5.814-.204.187-.004.374.009.56.037.218.032.384.153.393.387.01.233-.151.377-.362.417a4.785 4.785 0 0 1-.835.086c-.95.01-1.9.004-3.072.004Z"></path>
  <path d="M18.653 12.285a.514.514 0 0 1-.502-.516c.012-.308.22-.536.487-.53a.561.561 0 0 1 .53.544.51.51 0 0 1-.515.502Z"></path>
  <path d="M16.938 12.34a.516.516 0 0 1-.515-.507c-.003-.283.178-.446.493-.444.325.002.53.189.52.474a.501.501 0 0 1-.498.476Z"></path>
  <path d="M14.914 11.457a.494.494 0 0 1 .474.449.433.433 0 0 1-.466.434.445.445 0 0 1-.424-.444.417.417 0 0 1 .416-.439Z"></path>
  <path d="M8.778 18.607H5.853a4.8 4.8 0 0 1-.48-.01c-.22-.024-.389-.13-.399-.373-.009-.225.144-.345.34-.384.236-.052.475-.082.716-.09 1.963-.03 3.927-.054 5.892-.071.172-.002.367-.01.51.064.146.074.332.243.334.375.003.132-.172.313-.314.393-.14.079-.336.077-.508.078-1.055.006-2.11.003-3.166.003v.015Z"></path>
  <path d="M18.469 17.567a.552.552 0 0 1 .546.532.51.51 0 0 1-.47.51.51.51 0 0 1-.537-.484c-.01-.3.198-.55.46-.558Z"></path>
  <path d="M16.274 18.122c-.004-.28.184-.453.488-.45.321.004.527.192.519.476a.497.497 0 0 1-.493.476.514.514 0 0 1-.514-.502Z"></path>
  <path d="M14.802 18.578a.437.437 0 0 1-.421-.273.441.441 0 0 1-.033-.174.425.425 0 0 1 .42-.434.499.499 0 0 1 .464.457.421.421 0 0 1-.43.424Z"></path>
  <path d="M8.882 6.265H5.997c-.16 0-.32.007-.48 0-.235-.009-.438-.09-.463-.35-.028-.291.189-.394.427-.434.237-.043.477-.067.717-.074a927.59 927.59 0 0 1 5.532-.07c.253-.003.518-.007.755.065a.621.621 0 0 1 .366.356c.064.22-.117.372-.329.428a2.1 2.1 0 0 1-.513.067c-1.042.006-2.084.003-3.127.003v.01Z"></path>
  <path d="M18.606 6.27a.504.504 0 0 1-.522-.497c-.001-.302.213-.546.476-.545a.561.561 0 0 1 .53.509.502.502 0 0 1-.484.533Z"></path>
  <path d="M16.872 6.284a.506.506 0 0 1-.52-.49c-.008-.284.173-.458.478-.457.324.002.53.185.527.467a.49.49 0 0 1-.485.48Z"></path>
  <path d="M14.835 6.244a.437.437 0 0 1-.406-.491c.034-.236.165-.39.42-.386a.479.479 0 0 1 .458.498.43.43 0 0 1-.472.38Z"></path>
</svg>