<svg width="46" height="46" fill="currentColor" viewBox="0 0 24 24" xmlns="http://www.w3.org/2000/svg">
  <path d="m20.659 19.584-.044-.005.044-.002a6.147 6.147 0 0 1-.007-.143 804.13 804.13 0 0 0-.039-1.388 552.898 552.898 0 0 1-.095-3.627 55.083 55.083 0 0 1-.005-1.556l.003-.71v-.16l-.035-.001.028-1.055.077-3 .011-.444c.018-.69.036-1.404.044-2.107.002-.211-.007-.424-.017-.635a12.21 12.21 0 0 1-.016-.558c.001-.544-.348-.812-.61-.966a5.493 5.493 0 0 0-1.577-.594c-1.867-.433-3.777-.565-5.4-.638a27.027 27.027 0 0 0-3.51.046 19.65 19.65 0 0 0-3.58.618c-.748.205-1.353.498-1.848.896-.398.32-.576.69-.546 1.131a2.85 2.85 0 0 1-.007.366c-.003.058-.007.116-.008.175-.013.374-.03.747-.046 1.123-.035.818-.072 1.664-.074 2.502-.005 1.693.02 3.412.042 5.075l.014.979a304.8 304.8 0 0 0 .086 4.341c.01.204.034.407.071.607.02.128.042.26.055.389a.535.535 0 0 0 .36.452c.795.351 1.656.703 2.559.893a22.19 22.19 0 0 0 4.627.452c.505 0 1.032-.014 1.566-.041a31.926 31.926 0 0 0 4.398-.568c.924-.178 2.01-.431 3.053-.963.295-.151.433-.364.434-.67-.001-.073-.005-.145-.008-.214ZM18.548 5.113c-.83.396-1.758.643-2.836.755-.989.103-2.154.203-3.3.16l-.297-.01c-1.644-.06-3.343-.12-4.966-.523a23.38 23.38 0 0 1-1.823-.56l-.021-.007c-.207-.07-.414-.14-.622-.207l-.024-.008c-.206-.067-.294-.11-.303-.206-.008-.086.062-.143.221-.249.024-.016.047-.03.069-.046.61-.433 1.318-.64 1.93-.785a20.893 20.893 0 0 1 4.879-.55c.306 0 .62.005.931.017 2.085.076 3.675.242 5.156.537.489.103.97.238 1.442.405.169.065.331.147.484.244l.015.009.107.062c-.22.426-.543.723-1.042.962ZM4.24 6.24h.044l-.001-.806.114.047c.235.096.459.188.684.277 1.154.455 2.44.755 4.046.946 1.785.212 3.567.207 5.075.174 1.306-.029 2.84-.14 4.302-.75.332-.138.643-.296.972-.463l.047-.024.165-.083c.001.085 0 .169-.002.254l-.037 1.017c-.025.658-.05 1.34-.067 2.01-.006.25-.064.368-.223.45-.1.053-.194.113-.288.172a2.117 2.117 0 0 1-.455.238c-1.791.58-3.444.923-5.053 1.052-2.295.183-4.701-.085-7.358-.819-.399-.11-.8-.238-1.188-.362l-.016-.005-.357-.114c-.268-.085-.37-.232-.367-.525.01-.89.009-1.76.007-2.682L4.24 6.24Zm15.244 6.036-.001.137c-.005.644-.01 1.288-.013 1.932v.03c-.001.202-.002.348-.038.395-.043.054-.232.102-.399.144-.92.233-1.964.496-2.996.691a21.57 21.57 0 0 1-5.074.323c-1.327-.063-3.07-.182-4.79-.542a13.57 13.57 0 0 1-1.311-.37l-.513-.16-.075-4.603c5.365 1.99 10.345 2.088 15.22.3l.002.09-.012 1.633ZM7.63 16.654c1.637.232 3.289.348 4.942.349a23.21 23.21 0 0 0 5.084-.614c.449-.105.89-.214 1.363-.33l.459-.113.101 3.618a6.08 6.08 0 0 1-1.615.592c-1.39.274-2.458.464-3.465.618a21.85 21.85 0 0 1-4.01.235c-1.647-.054-3.576-.194-5.395-.83a3.667 3.667 0 0 1-.39-.155 2.457 2.457 0 0 1-.224-.13l-.045-.03-.073-4.063c.912.41 1.922.673 3.269.853Z"></path>
</svg>