<svg width="46" height="46" fill="currentColor" viewBox="0 0 24 24" xmlns="http://www.w3.org/2000/svg">
  <path d="M20.832 10.08a24.21 24.21 0 0 1-.595.002h-.113l-1.072-2.007c.063-.075.13-.15.198-.228.199-.228.404-.463.595-.717.24-.32.22-.689-.052-.965l-.017-.017a63.993 63.993 0 0 0-2.103-2.07c-.205-.19-.386-.275-.567-.267-.192.008-.38.123-.596.361-.156.172-.306.344-.465.527l-.158.18c-.475-.48-1.07-.768-1.91-.923l.001-.144c.002-.154.004-.3-.003-.448-.043-.856-.285-1.09-1.126-1.09h-.007c-.526 0-1.06.018-1.578.036-.246.009-.49.017-.736.024-.378.01-.61.218-.653.586-.028.24-.046.48-.062.692l-.015.194L7.899 4.88a23.638 23.638 0 0 1-.119-.147c-.131-.163-.267-.33-.413-.494-.21-.233-.413-.35-.62-.36-.202-.007-.406.085-.622.287a51.067 51.067 0 0 0-1.751 1.71c-.446.458-.467.843-.076 1.374.14.19.295.368.42.512.036.042.07.08.1.117l-.846 2.28c-.088.009-.177.016-.267.023-.248.02-.503.041-.757.075-.463.063-.643.266-.643.726 0 .888.01 1.627.028 2.325.007.26.08.453.217.572.14.123.341.168.614.137.153-.017.306-.037.458-.057l.04-.005a.084.084 0 0 0 .007.025l.958 2.09-.37.283-.405.31c-.394.303-.467.649-.218 1.028.409.62.89 1.338 1.422 1.993.472.58.854.622 1.516.166.276-.19.55-.382.826-.575l.323-.226c.72.573 1.439.834 2.236.822l-.021.194c-.02.185-.038.345-.05.508-.029.426.029.691.186.86.154.163.404.236.81.236h.027c.55-.004 1.11-.014 1.65-.023l.67-.011c.312-.005.532-.084.674-.24.141-.156.198-.383.172-.694a67.555 67.555 0 0 0-.054-.62l-.016-.173 1.663-.702.034.047.187.256.091.13c.055.08.11.16.171.238.298.38.626.46 1.064.261.145-.06.28-.14.404-.236l.426-.354c.58-.48 1.18-.978 1.75-1.49.26-.234.378-.429.386-.634.008-.208-.103-.422-.36-.693a87.87 87.87 0 0 0-.55-.573l-.175-.18 1.098-2.099.145-.014c.173-.015.389-.036.601-.06.454-.054.615-.203.72-.662.213-.934.048-1.847-.12-2.537-.086-.352-.331-.531-.708-.527Zm-1.883 3.248c-.232.936-.559 1.588-1.06 2.115-.203.214-.196.513.02.821.197.28.401.551.618.839.077.102.156.206.235.313l-1.874 1.492a32.548 32.548 0 0 1-.154-.184 17.732 17.732 0 0 0-.433-.51c-.39-.438-.596-.42-1.098-.131-.398.22-.818.4-1.252.536-.997.333-1.072.777-1.077 1.47 0 .089-.006.18-.013.275l-.004.075h-1.848l-.01-.223-.029-.605c-.028-.558-.146-.76-.75-.782-.906-.032-1.668-.298-2.33-.811-.251-.196-.542-.18-.89.05-.259.17-.514.346-.784.533l-.304.21-1.182-1.587.217-.183c.204-.174.398-.339.601-.495.336-.258.364-.41.142-.773-.401-.659-.816-1.457-.848-2.38-.01-.325-.2-.495-.563-.506a15.813 15.813 0 0 0-.657-.004l-.25.001-.08-1.555.34-.038c.293-.033.57-.064.846-.077.34-.016.538-.197.59-.539.153-.996.435-1.768.887-2.43a.54.54 0 0 0 .005-.66l-.501-.723-.154-.221 1.513-1.543.179.175c.174.17.354.347.535.518.354.336.455.29.824.042.467-.314.967-.64 1.49-.87.45-.198.852-.429.833-1.06a1.65 1.65 0 0 1 .054-.396l.031-.156h2.108l.002.132c.003.158.007.321-.005.48-.045.623.163.887.741.943.61.059 1.145.33 1.73.882.313.293.485.348.83.074.23-.183.443-.376.669-.58l.234-.211 1.511 1.594-.114.119c-.155.162-.331.345-.505.537-.467.514-.47.707-.02 1.216.478.525.814 1.163.978 1.853.091.4.32.594.72.612l.602.03.25.014.09 1.67h-.82c-.492.005-.706.165-.816.612Z"></path>
  <path d="M12.68 6.952a5.012 5.012 0 0 0-4.193 1.641 5.033 5.033 0 0 0-1.194 4.348c.398 1.892 1.378 3.09 2.993 3.66.477.164.978.245 1.482.24.42-.004.837-.044 1.25-.122 2.665-.477 4.132-2.351 4.131-5.277v-.002a4.6 4.6 0 0 0-.874-2.54c-.847-1.135-2.057-1.79-3.596-1.948Zm3.204 5.72c-.316 1.585-1.315 2.507-3.053 2.817-.562.1-1.3.187-2.019-.03-1.25-.38-2.002-1.26-2.296-2.695a6.146 6.146 0 0 1-.09-.764c-.009-.12-.018-.238-.03-.356A3.546 3.546 0 0 1 9.47 9.086c.727-.702 1.749-1.066 2.87-1.03 1.21.04 2.169.475 2.85 1.295.737.887.964 1.974.695 3.32Z"></path>
</svg>