<svg width="46" height="46" fill="currentColor" viewBox="0 0 24 24" xmlns="http://www.w3.org/2000/svg">
  <path d="M2.98 18.36c.222.032.438-.046.643-.23.304-.273.63-.533.944-.785.124-.1.249-.199.372-.3l.5-.4.171-.136c.125.164.251.325.374.481.382.486.744.946 1.043 1.462l-.028.025c-.044.04-.083.075-.123.107l-.673.544c-.465.375-.946.762-1.414 1.15-.245.202-.358.383-.358.568.001.188.12.37.374.578.377.315.829.528 1.312.618.316.056.636.085.957.085.299 0 .597-.025.89-.076 2.23-.384 3.836-2.463 3.655-4.733a4.149 4.149 0 0 0-.331-1.354l4.95-4.104c.12.03.236.061.347.091.244.07.49.128.74.172a4.083 4.083 0 0 0 3.087-.785 4.515 4.515 0 0 0 1.783-3.03c.155-1.1-.197-2.08-.521-2.808l-.042-.088a1.174 1.174 0 0 1-.091-.231c-.054-.236-.147-.38-.283-.444-.126-.058-.281-.04-.463.052a3.11 3.11 0 0 0-.667.495c-.451.419-.902.85-1.338 1.268l-.462.442-2.012-1.695.005-.009a.588.588 0 0 1 .048-.083c.49-.644 1.084-1.39 1.79-2.046a1.61 1.61 0 0 0 .255-.278c.121-.183.102-.382-.045-.484a20.8 20.8 0 0 1-.101-.07c-.228-.158-.463-.322-.726-.392a3.532 3.532 0 0 0-1.114-.086 5.78 5.78 0 0 0-2.554.741c-1.447.833-2.184 2.047-2.191 3.609a2.978 2.978 0 0 0 .376 1.474c-1.617 1.266-3.064 2.429-4.354 3.765-.653-.328-1.331-.298-1.913-.224-1.524.195-2.639.913-3.314 2.134a5.24 5.24 0 0 0-.642 2.989c.046.6.194 1.094.452 1.506.183.292.435.48.691.515Zm5.52-6.49c.506-.427 1.013-.852 1.522-1.276.574-.48 1.148-.961 1.721-1.443.197-.166.39-.342.577-.512.168-.153.342-.31.517-.46.162-.139.158-.293.13-.44-.167-.856-.183-1.613-.05-2.312a2.799 2.799 0 0 1 1.175-1.818 4.712 4.712 0 0 1 3.023-.851c.07.006.138.017.206.034-.048.05-.09.093-.13.138l-.522.558c-.44.47-.895.956-1.336 1.44-.297.328-.295.561.007.891a100.96 100.96 0 0 0 1.762 1.863c.121.118.254.223.397.312.513.342.74.377 1.26-.046a50.3 50.3 0 0 0 1.375-1.175 157.996 157.996 0 0 1 .806-.703l.021-.019c.16.72.297 1.403.12 2.089-.445 1.73-1.65 2.65-3.483 2.658-.221.001-.445-.005-.663-.011a18.688 18.688 0 0 0-.759-.01.776.776 0 0 0-.451.146l-.24.194a79.944 79.944 0 0 0-2.305 1.905c-.564.49-1.12 1.009-1.658 1.51a196.097 196.097 0 0 1-.735.684 1.943 1.943 0 0 1-.127.102.82.82 0 0 0-.267.27.997.997 0 0 0-.07.426c0 .043-.001.085-.004.126-.007.134-.012.269-.017.403-.006.187-.013.38-.03.57-.01.137-.02.276-.028.415a6.856 6.856 0 0 1-.135 1.145c-.29 1.222-1.098 1.97-2.405 2.223a3.919 3.919 0 0 1-1.585.01 4.058 4.058 0 0 1-.342-.095 8.812 8.812 0 0 0-.066-.02l.4-.306c.406-.31.789-.602 1.163-.907a6.27 6.27 0 0 0 .553-.528l.177-.182c.232-.234.263-.527.09-.847a3.385 3.385 0 0 0-.415-.622 58.248 58.248 0 0 0-1.42-1.574c-.363-.387-.59-.4-1.017-.06-.411.328-.822.657-1.232.988l-.704.566c-.046.037-.095.073-.152.116l-.007.005a3.97 3.97 0 0 1-.06-2.026c.069-.3.16-.594.273-.88.44-1.11 1.269-1.72 2.534-1.87l.538-.063c.479-.057.958-.113 1.437-.167a.433.433 0 0 0 .403-.29.747.747 0 0 1 .228-.274Z"></path>
</svg>