<svg width="46" height="46" fill="currentColor" viewBox="0 0 24 24" xmlns="http://www.w3.org/2000/svg">
  <path d="M17.878 18.14c-.052.17-.088.313-.14.452-.32.884-1.004 1.315-1.882 1.489-.7.14-1.426 0-2.025-.39-.587-.363-.87-.91-.928-1.623-.116-.01-.232-.028-.348-.029-2.535-.02-5.07-.033-7.605-.059a24.733 24.733 0 0 1-1.662-.086.696.696 0 0 1-.405-.16.624.624 0 0 1-.154-.388c-.01-.167.123-.262.283-.297.079-.018.16-.028.24-.03 1.002-.02 2.004-.043 3.006-.054 1.911-.022 3.823-.039 5.734-.052.406-.003.811 0 1.168 0 .284-.332.514-.654.797-.921.692-.656 1.526-.795 2.419-.542.624.178 1.074.567 1.205 1.246.012.066.04.13.08.252.127 0 .271-.002.415 0 .854.011 1.709.018 2.562.04.19.005.376.04.555.1a.518.518 0 0 1 .357.537.508.508 0 0 1-.358.495c-.18.055-.368.082-.556.078-.773-.01-1.545-.038-2.318-.058-.134-.003-.27 0-.44 0Zm-1.227-.556c-.002-.398-.095-.793-.278-1.036a.52.52 0 0 0-.283-.19c-.8-.161-1.655.447-1.86 1.157-.178.617.018 1.008.619 1.228.988.361 1.808-.165 1.802-1.16Z"></path>
  <path d="M9.65 11.192c.39 0 .74.008 1.091-.002 1.654-.047 3.308-.098 4.962-.151 1.519-.051 3.037-.114 4.555-.168.19-.014.38-.01.568.011a.579.579 0 0 1 .517.545c.003.248-.174.46-.471.54-.131.033-.266.05-.401.05-2.455.055-4.91.108-7.364.16-1.098.025-2.196.059-3.295.09-.066.002-.132.015-.232.027-.26 1.258-1.153 1.787-2.325 1.795-1.046.008-1.84-.51-2.174-1.578-.529-.023-1.042-.04-1.554-.073a2.716 2.716 0 0 1-.557-.101.347.347 0 0 1-.263-.368.338.338 0 0 1 .298-.337c.147-.026.295-.038.444-.034.528-.004 1.055-.002 1.588-.002.055-.162.1-.273.131-.388a2.4 2.4 0 0 1 .717-1.164 1.71 1.71 0 0 1 .785-.387c.427-.074.861-.1 1.294-.078.816.028 1.315.501 1.584 1.247.041.114.065.234.101.366Zm-2.484-.474c-.16.036-.443.033-.648.159-.493.301-.48 1.436.006 1.758.442.294.92.28 1.39.06.424-.2.47-.62.477-1 .01-.535-.123-.883-.807-.938-.108-.009-.215-.02-.418-.04Z"></path>
  <path d="M14.352 6.708h-.311l-9.884.079a17.65 17.65 0 0 1-.854-.014 2.355 2.355 0 0 1-.443-.058c-.235-.055-.382-.224-.375-.42a.411.411 0 0 1 .335-.407 2.66 2.66 0 0 1 .478-.077c3.493-.225 6.992-.232 10.49-.265.202-.002.404 0 .615 0 .075-.158.141-.289.2-.423.14-.344.402-.625.733-.79.488-.237.997-.429 1.546-.467.944-.066 1.519.316 1.834 1.207.04.113.076.228.125.376.489-.023.973-.05 1.458-.067.175-.011.351 0 .524.031a.528.528 0 0 1 .34.816.528.528 0 0 1-.273.207 2.006 2.006 0 0 1-.514.106c-.525.047-1.051.08-1.6.12-.326 1.176-1.177 1.656-2.32 1.624-1.021-.028-1.798-.479-2.104-1.578Zm.997-.612c-.086.546.446 1.131 1.016 1.113.851-.029 1.359-.508 1.358-1.145 0-.717-.337-1.103-1.127-1.14-.75-.035-1.241.45-1.247 1.172Z"></path>
</svg>