<svg width="46" height="46" fill="currentColor" viewBox="0 0 24 24" xmlns="http://www.w3.org/2000/svg">
  <path d="M7.975 14.39c-.708 0-1.402-.006-2.096.003-.723.008-1.446.038-2.17.044a3.5 3.5 0 0 1-.69-.069c-.575-.111-.738-.482-.425-.984.215-.345.454-.678.696-1.006 1.311-1.773 2.63-3.54 3.939-5.316.38-.515.737-1.046 1.093-1.577.102-.16.187-.33.253-.507.208-.525.677-.653 1.097-.277.148.14.283.294.404.458.79 1.007 1.578 2.016 2.364 3.026.05.063.107.12.172.193.863-.58 1.85-.95 2.882-1.08 2.116-.277 3.775.456 4.932 2.252.58.901.99 1.873 1.107 2.951.184 1.694-.29 3.198-1.439 4.437-1.628 1.757-3.685 2.668-6.088 2.605-2.075-.054-3.691-1.055-4.85-2.761-.473-.697-.896-1.43-1.113-2.257a.676.676 0 0 0-.068-.134Zm1.312-.035c.112.261.191.492.307.702.184.349.388.687.61 1.013.805 1.147 1.886 1.91 3.3 2.037 2.28.205 4.204-.593 5.749-2.268a3.77 3.77 0 0 0 .974-2.246c.16-1.698-.47-3.11-1.651-4.302-.407-.41-.928-.612-1.48-.737-.86-.195-1.708-.087-2.546.137a4.605 4.605 0 0 0-1.338.549c.106.155.195.29.286.422.697 1.007 1.38 2.023 1.908 3.132.122.242.222.495.298.755.169.632-.153.982-.81.957-1.732-.067-3.464-.118-5.195-.172-.12-.005-.24.012-.412.021Zm5.085-.878c-1.501-2.814-3.476-5.136-5.436-7.52-1.575 2.603-3.423 4.99-5.222 7.536 3.589-.116 7.078-.213 10.657-.016Z"></path>
</svg>