<svg width="46" height="46" fill="currentColor" viewBox="0 0 24 24" xmlns="http://www.w3.org/2000/svg">
  <path d="M5.471 16.601c1.44 2.179 3.17 3.72 5.289 4.71a2.164 2.164 0 0 0 1.676.103c1.38-.463 2.408-1.043 3.234-1.826.49-.463.87-.854 1.198-1.232 2.026-2.33 3.462-5.175 4.521-8.954.128-.454.136-.938.128-1.352-.004-.228-.07-.403-.195-.52-.136-.128-.345-.188-.617-.176h-.011a1.355 1.355 0 0 1-.296-.008c-.939-.174-2.027-.393-3.052-.798-1.27-.503-2.246-1.018-3.07-1.622a3.921 3.921 0 0 1-1.068-1.118 6.593 6.593 0 0 1-.437-.9c-.104-.253-.286-.415-.498-.446-.208-.03-.424.07-.591.277-.08.1-.149.21-.204.327a6.252 6.252 0 0 1-2.085 2.452c-.902.643-2 1.326-3.304 1.52-.864.127-1.703.204-2.71.291-.657.057-.824.228-.847.873a3.28 3.28 0 0 0-.001.174v.119c.014.138.025.28.037.423.027.34.056.69.111 1.04.082.51.193 1.014.331 1.512.46 1.655 1.242 3.285 2.461 5.131ZM3.528 8.297 3.8 8.29l.668-.02c1.364-.045 2.52-.269 3.535-.683a11.086 11.086 0 0 0 3.293-2.13c.168-.163.321-.339.46-.526.043-.055.085-.11.129-.164.088-.108.169-.221.255-.343l.06-.084.147.224c.324.497.73.937 1.2 1.3 1.495 1.15 3.216 1.96 5.262 2.477.293.074.587.142.898.214l.382.09c-.013.069-.024.139-.036.21a4.42 4.42 0 0 1-.127.6c-.875 2.794-1.806 4.802-3.018 6.512-.879 1.24-1.765 2.221-2.708 3-.602.498-1.314.901-2.308 1.31-.181.074-.32.02-.511-.07-1.951-.923-3.547-2.318-4.877-4.266a18.732 18.732 0 0 1-2.512-5.186c-.209-.699-.313-1.413-.422-2.17l-.042-.287Z"></path>
  <path d="M8.428 12.358c.154.088.328.136.505.139.502.018 1.012.024 1.505.03l.374.005c.164.002.328.002.511 0h.203v.072c-.001.098-.002.19.001.281l.015.461c.017.515.034 1.048.067 1.572.016.19.082.37.191.526a.446.446 0 0 0 .36.208h.02a.441.441 0 0 0 .355-.247 1.22 1.22 0 0 0 .15-.578c0-.493-.013-.994-.027-1.479l-.016-.596a7.079 7.079 0 0 1 0-.212v-.044l.08-.007c.1-.01.19-.017.28-.024.181-.013.363-.024.545-.036.436-.028.887-.057 1.33-.107.24-.03.47-.117.67-.253a.412.412 0 0 0 .205-.372.426.426 0 0 0-.287-.337 1.287 1.287 0 0 0-.549-.104c-.36.018-.725.05-1.079.08l-.55.047c-.173.013-.344.022-.525.031l-.167.01-.01-.076a3.096 3.096 0 0 1-.026-.244c-.025-.501-.049-1.003-.07-1.505l-.027-.566a7.262 7.262 0 0 1-.004-.103c-.003-.088-.006-.178-.015-.267a.361.361 0 0 0-.327-.344.374.374 0 0 0-.44.262 1.34 1.34 0 0 0-.077.379c-.029.684-.051 1.38-.073 2.052l-.003.102c-.003.1-.003.201-.002.308v.09l-.082.014c-.087.018-.175.03-.263.036-.599.025-1.208.046-1.797.066l-.568.02a.583.583 0 0 1-.072-.002.394.394 0 0 0-.204.025c-.196.099-.288.185-.296.278a.491.491 0 0 0 .189.409Z"></path>
</svg>