<svg width="46" height="46" fill="currentColor" viewBox="0 0 24 24" xmlns="http://www.w3.org/2000/svg">
  <path d="M20.828 8.646c.035 2.281-.527 4.421-1.591 6.432-.7 1.322-1.537 2.545-2.617 3.586a16.382 16.382 0 0 1-3.282 2.486 4.75 4.75 0 0 1-.63.285.613.613 0 0 1-.68-.127.859.859 0 0 0-.351-.184c-2.203-.566-3.928-1.83-5.273-3.636-1.412-1.895-2.334-4.022-2.847-6.32-.234-1.05-.416-2.115-.385-3.2.013-.71.12-1.415.322-2.096a1.52 1.52 0 0 1 .187-.403c.09-.133.236-.204.394-.129.634.302 1.32.313 1.996.345 1.405.065 2.733-.27 3.98-.903.803-.408 1.47-.984 1.87-1.82.028-.063.06-.123.096-.181.194-.29.566-.315.745-.022.667 1.09 1.681 1.75 2.787 2.307 1.083.545 2.229.674 3.418.552.27-.027.542-.048.813-.063.375-.02.529.075.69.442a4.35 4.35 0 0 1 .354 1.545c.018.367.003.736.003 1.104ZM12.539 3.95c-.059.061-.108.106-.149.157-.421.54-.95.986-1.552 1.31-1.972 1.07-4.061 1.334-6.248.84-.1-.023-.201-.04-.324-.063a7.371 7.371 0 0 0-.071 2.268c.09.785.23 1.563.42 2.33a16.365 16.365 0 0 0 2.788 5.992c1.248 1.672 2.86 2.815 4.906 3.307.136.033.252.056.386-.028 1.16-.723 2.26-1.523 3.206-2.516 1.324-1.39 2.285-3.014 2.97-4.799.706-1.834.93-3.746.814-5.702a3.795 3.795 0 0 0-.086-.457c-1.354.343-2.637.18-3.869-.333-1.232-.513-2.336-1.228-3.19-2.306h-.001Z"></path>
  <path d="m11.5 14.671.601-.699a34.84 34.84 0 0 1 3.243-3.29c.12-.111.254-.207.397-.285a.56.56 0 0 1 .671.114c.146.166.165.417.027.648-.077.128-.17.247-.276.352-.46.466-.938.915-1.388 1.39-.77.81-1.526 1.634-2.282 2.457-.606.66-.865.704-1.607.202-.62-.42-1.232-.852-1.835-1.298a8.433 8.433 0 0 1-.7-.626.853.853 0 0 1-.153-.19c-.119-.202-.106-.42.03-.57a.44.44 0 0 1 .524-.11c.17.085.33.187.48.304.746.525 1.49 1.052 2.269 1.601Z"></path>
</svg>