<svg width="46" height="46" fill="currentColor" viewBox="0 0 24 24" xmlns="http://www.w3.org/2000/svg">
  <path d="M6.252 16.249c-.156-.404-.304-.86-.505-1.292-.36-.776-.751-1.536-1.129-2.304a5.442 5.442 0 0 1-.168-.364c-.236-.595-.013-.912.625-.961 1.36-.105 2.718-.233 4.076-.352l1.526-.134c.008-.17.024-.323.022-.477-.022-2.087-.045-4.174-.07-6.261v-.321c.003-.238.043-.457.295-.563.238-.1.413.024.576.172l3.213 2.91c.357.323.717.643 1.084.955.41.347.408.726-.064.994a5.587 5.587 0 0 1-1.176.499c-1.024.299-2.06.559-3.148.85l-.055 1.157c.448 0 .885.01 1.32-.002 1.645-.046 3.29-.095 4.934-.15.375-.011.749-.038 1.123-.048.665-.017.9.293.704.938-.404 1.329-.817 2.655-1.225 3.983-.031.1-.056.202-.097.348.87-.1 1.509.302 2.11.824.165.144.405.199.59.324.11.074.259.215.25.311-.014.129-.151.331-.256.346a1.39 1.39 0 0 1-.72-.074c-.25-.111-.454-.324-.672-.5-.701-.571-1.179-.561-1.836.043-.198.18-.389.37-.595.54-.583.48-1.29.564-1.937.174a4.976 4.976 0 0 1-.922-.758c-.36-.361-.606-.476-1.066-.248a4.647 4.647 0 0 0-1.081.74c-1.239 1.145-2.592 1.192-3.88.096a4.562 4.562 0 0 1-.416-.378c-.3-.327-.653-.366-1.017-.161-.36.202-.685.464-1.039.678-.477.288-.948.601-1.46.815-.272.114-.627.075-.936.034-.112-.015-.274-.235-.276-.364-.004-.206.21-.186.373-.183.466.008.854-.2 1.207-.474.559-.433 1.108-.877 1.718-1.362Zm.854-.121c.513-.04.93.282 1.308.682.055.059.118.11.177.164.97.886 1.847.858 2.831-.023.385-.35.82-.638 1.291-.857.788-.353 1.394-.163 1.989.456.224.228.475.427.747.594.302.189.616.136.899-.079.282-.214.521-.444.558-.835.021-.221.12-.436.198-.65.238-.666.496-1.325.721-1.997.244-.73.46-1.469.691-2.215-4.39-.02-8.737.176-13.075.758l1.665 4.002Zm4.456-11.681-.115.05V8.64l3.612-.977-3.497-3.216Z"></path>
  <path d="M3.853 20.722c-.233-.049-.48-.066-.695-.158-.112-.049-.166-.23-.246-.352.115-.068.236-.202.346-.194.908.066 1.632-.32 2.296-.88.202-.175.417-.335.643-.478.683-.418 1.37-.394 2.041.031.166.112.326.234.478.365a2.85 2.85 0 0 0 1.417.615c.57.082 1.07-.01 1.487-.483a4.931 4.931 0 0 1 1.04-.864c.53-.339 1.092-.31 1.625.035.158.1.31.21.457.325.418.338.904.509 1.421.612a1.076 1.076 0 0 0 .936-.23c.838-.67 1.734-.83 2.723-.314.241.126.536.151.809.212.213.047.393.136.413.371.02.249-.139.414-.36.468a2.06 2.06 0 0 1-.628.037.916.916 0 0 1-.415-.138c-.73-.472-1.362-.268-1.974.241a1.571 1.571 0 0 1-1.275.346c-.812-.113-1.55-.385-2.186-.92-.554-.465-.797-.46-1.371-.01a2.14 2.14 0 0 0-.346.333c-.658.821-1.533.957-2.5.793a3.755 3.755 0 0 1-1.736-.78 5.978 5.978 0 0 0-.385-.289c-.314-.212-.651-.256-.984-.064-.289.166-.558.365-.836.55-.664.443-1.359.802-2.195.82Z"></path>
</svg>