<svg width="46" height="46" fill="currentColor" viewBox="0 0 24 24" xmlns="http://www.w3.org/2000/svg">
  <path d="M15.93 15.366c.055.665-.238 1.224-.608 1.718-.34.454-.901.514-1.402.368a5.999 5.999 0 0 1-1.485-.68c-.633-.398-.652-.43-1.265.02-.267.196-.527.404-.811.572-.595.353-1.22.241-1.68-.276-.667-.746-.709-1.06-.244-2 .207-.418.386-.862.66-1.234 1.154-1.561 3.329-2.14 5.034-1.376 1.25.56 1.699 1.616 1.8 2.888Zm-3.418-2.335c-1.664.007-3.144 1.184-3.55 2.818-.087.348.066.59.322.784.245.186.47.072.675-.091.302-.24.589-.5.902-.723.664-.47 1.194-.472 1.874-.037.267.17.513.39.802.504.934.365 1.239.094 1.317-.875.116-1.435-.894-2.386-2.342-2.38Z"></path>
  <path d="M9.417 9.607c-.089.286-.1.507-.213.638-.128.147-.359.304-.528.287-.167-.016-.437-.238-.446-.382a4.24 4.24 0 0 1 .114-1.28c.078-.306.405-.33.59-.11.218.257.343.593.483.847Z"></path>
  <path d="M16.107 9.479c-.005.558-.224.864-.53.904-.318.042-.583-.178-.66-.599a2.053 2.053 0 0 1-.016-.736c.028-.145.177-.346.305-.375.17-.039.45.002.546.12.19.233.286.543.354.686Z"></path>
  <path d="M15.367 6.628c.362.12.701.195.997.351.13.068.169.304.25.465-.162.07-.323.196-.485.198-.198.003-.395-.128-.597-.146-.282-.025-.568.01-.852.002a2.341 2.341 0 0 1-.4-.081c.043-.146.043-.374.137-.424.294-.157.624-.246.95-.365Z"></path>
  <path d="M9.368 7.777c-.587.094-1.076.163-1.56.252-.32.058-.523-.127-.446-.435.092-.37.69-.627 1.26-.54.471.071.733.356.714.779 0 .011-.012.022.032-.056Z"></path>
  <path d="M2.627 9.406c-.858 3.373-.107 6.35 2.235 8.847.061.064.124.129.186.19 1.258 1.259 2.825 2.036 4.067 2.576.533.233 3.268.516 4.008.405 4.397-.656 7.29-3.136 8.299-7.286.192-.812.288-1.645.285-2.48.005-1.968-.824-4.255-2.532-5.969a33.98 33.98 0 0 1-.52-.442c-.369-.316-.748-.643-1.146-.922-3.036-2.137-6.191-2.149-9.377-1.016-2.884 1.026-4.736 3.077-5.505 6.097ZM8.145 4.32c2.795-1.162 5.599-1.367 8.334.373.5.318 1.833 1.396 2.043 1.558l.014.01.01.012c1.068 1.131 2.29 3.2 2.263 5.327-.01.91-.132 1.815-.367 2.693-.694 2.525-2.355 4.366-5.078 5.625-2.767 1.325-6.736-.015-7.792-.712a12.33 12.33 0 0 1-3.019-2.935c-1.302-1.844-1.595-4.495-.895-6.92A7.86 7.86 0 0 1 8.145 4.32Z"></path>
</svg>