<svg width="46" height="46" fill="currentColor" viewBox="0 0 24 24" xmlns="http://www.w3.org/2000/svg">
  <path d="m9.526 15.184.573 2.226h.557l6.476-.049c.289-.001.578.02.865.041.124.01.245.036.361.077.451.154.529.493.198.842-.027.028-.053.059-.08.09.184.14.36.29.526.45.59.634.47 1.477-.273 1.924-.6.36-1.212.333-1.791-.04-.634-.407-.755-1.21-.298-1.845.095-.132.21-.248.353-.416-1.821-.032-3.595-.084-5.468-.035.45.334.727.674.721 1.168a1.275 1.275 0 0 1-.37.892c-.52.54-1.54.537-2.147 0-.583-.513-.53-1.247.165-2.092-.577-.047-.85-.438-.998-.917-.165-.535-.272-1.09-.412-1.634-.296-1.155-.624-2.303-.89-3.466-.454-1.993-.87-3.994-1.303-5.993-.087-.402-.18-.803-.254-1.208a.413.413 0 0 0-.304-.343 132.72 132.72 0 0 1-1.926-.73 8.39 8.39 0 0 1-.798-.332c-.289-.148-.38-.384-.275-.603.1-.207.299-.271.607-.172.64.205 1.278.42 1.918.629.313.102.626.205.942.296.36.103.593.312.687.689.233.931.482 1.859.724 2.789l.124.493c.371 0 .726.004 1.08 0 .413-.006.825-.027 1.237-.025.355.002.548.136.563.36.016.229-.2.413-.558.423-.522.015-1.045-.002-1.568-.004h-.595l1.402 5.495h8.48l2.397-5.667-1.266-.06c-.22-.01-.441-.005-.659-.035-.302-.04-.441-.18-.438-.4.003-.208.117-.339.419-.363a22.07 22.07 0 0 1 1.564-.06c.26-.002.521.062.78.054.506-.017.705.346.684.956a1.319 1.319 0 0 1-.143.47c-.432.965-.877 1.923-1.305 2.889a62.233 62.233 0 0 0-.966 2.273 2.6 2.6 0 0 1-.602.87.707.707 0 0 1-.361.177c-.23.042-.462.061-.695.057-2.186-.043-4.372-.094-6.558-.14-.354-.008-.708-.001-1.102-.001Zm8.737 4.515c-.003-.208-.273-.464-.495-.472-.17-.006-.349.212-.352.43-.002.212.195.373.453.37.23-.004.397-.144.394-.328Zm-7.47.222c.096-.073.232-.13.284-.23.076-.148 0-.292-.149-.377a1.414 1.414 0 0 0-.258-.122c-.15-.05-.299-.072-.38.116-.078.182-.037.379.121.47.124.057.252.105.383.143Z"></path>
  <path d="M13.593 9.879c0-.222.002-.358 0-.493l-.132-5.603a2.248 2.248 0 0 1 .014-.41c.032-.194.14-.332.352-.343a.362.362 0 0 1 .4.283c.039.117.065.238.078.361.06.932.114 1.864.171 2.796.058.945.119 1.89.181 2.836.007.107.037.212.069.39.188-.216.34-.387.488-.56.233-.272.463-.544.695-.816.036-.042.073-.082.113-.12.252-.242.54-.284.733-.109.214.194.204.494-.043.768-.58.642-1.166 1.278-1.748 1.918-.111.122-.216.249-.323.374-.233.275-.478.333-.804.182a1.642 1.642 0 0 1-.283-.167c-.786-.58-1.531-1.208-2.174-1.949a1.673 1.673 0 0 1-.247-.42.373.373 0 0 1 .119-.48.593.593 0 0 1 .458-.055c.17.063.311.214.45.342.405.371.801.751 1.203 1.125.073.055.15.105.23.15Z"></path>
</svg>