<svg width="46" height="46" fill="currentColor" viewBox="0 0 24 24" xmlns="http://www.w3.org/2000/svg">
  <path d="M2.87 11.747c-.234-.073-.435-.12-.623-.2-.5-.207-.808-.55-.924-1.114a2.537 2.537 0 0 1 .224-1.716C2.28 7.254 3.069 5.824 4.136 4.57c.478-.564 1.044-.916 1.827-.96 2.896-.173 5.8-.194 8.697-.063.727.036 1.45.127 2.176.183.287.022.577.03.864.024.409-.01.796.057 1.142.281.242.157.5.3.707.495 1.277 1.197 2.3 2.58 2.987 4.199.207.49.197.988.067 1.493-.215.843-.736 1.358-1.602 1.51a.9.9 0 0 0-.12.032c-.025.008-.05.022-.114.05-.03.593-.059 1.207-.094 1.82-.078 1.372-.139 2.745-.25 4.114-.044.528-.187 1.052-.324 1.567-.121.455-.448.744-.893.898a5.78 5.78 0 0 1-1.94.334l-8.948-.064c-1.059-.008-2.118.003-3.176-.023a5.605 5.605 0 0 1-1.22-.164c-.786-.198-1.288-.71-1.32-1.536a48.466 48.466 0 0 1-.034-3.623c.036-1.027.182-2.051.28-3.076.008-.095.014-.19.023-.313Zm10.234 7.85a.718.718 0 0 0 .039-.142c.027-1.318.058-2.636.074-3.955.005-.43.034-.848.196-1.252.205-.512.572-.793 1.126-.815.577-.023 1.154-.05 1.731-.056a7.6 7.6 0 0 1 1.027.056.846.846 0 0 1 .768.7c.067.308.107.621.119.937.044 1.451.074 2.904.109 4.378.09-.02.204-.052.322-.069.347-.05.529-.251.577-.593.05-.367.142-.73.162-1.099.094-1.77.172-3.54.252-5.312.012-.259.002-.518.002-.704l-1.17-.999c-.327.51-.81.853-1.489.877-.669.024-1.22-.233-1.673-.7-1.033.968-2.316.935-3.336-.081-.412.644-1.036.884-1.764.86-.701-.024-1.345-.231-1.856-.765-.446.541-.983.834-1.657.852a2.621 2.621 0 0 1-1.775-.613 1.53 1.53 0 0 1-1.184.656.973.973 0 0 0-.036.152c-.047 1.263-.114 2.527-.133 3.79a47.57 47.57 0 0 0 .065 2.802c.028.638.268.892.908.951.697.064 1.398.096 2.098.11 1.195.024 2.391.027 3.587.033.962.005 1.923 0 2.911 0Zm3.886-5.189c-.748.027-1.418.043-2.087.078-.476.024-.53.078-.629.53-.02.108-.032.217-.034.327-.06 1.274-.076 2.55-.302 3.812a2.395 2.395 0 0 0-.003.426h3.055v-5.173ZM9.6 4.632c-.136.749-.266 1.449-.387 2.15-.15.877-.279 1.759-.447 2.632-.093.485.057.944.507 1.128.304.12.626.189.953.202.447.02.775-.206.978-.623.173-.356.281-.71.189-1.109a1.911 1.911 0 0 1-.045-.45c.014-1.123.034-2.248.051-3.372.003-.185 0-.37 0-.558H9.6Zm7.416.135c.244.586.47 1.115.686 1.648.345.85.683 1.7 1.025 2.55.02.051.04.12.08.14.278.135.342.414.464.656.291.579.744.904 1.411.879.659-.026 1.068-.661.845-1.284a9.196 9.196 0 0 0-1.283-2.336c-.57-.775-1.17-1.521-1.967-2.09-.388-.278-.777-.266-1.261-.163ZM8.72 4.671H7.268c-.048.118-.087.204-.12.292-.616 1.659-1.23 3.319-1.853 4.974a.31.31 0 0 0 .106.397c.47.389 1.006.51 1.579.313a.908.908 0 0 0 .472-.417 4.65 4.65 0 0 0 .354-1.047c.31-1.406.598-2.818.891-4.228a2.25 2.25 0 0 0 .024-.284Zm3.563.014a.333.333 0 0 0-.025.086c.03 1.51.04 3.02.105 4.529.027.646.462 1.27 1.332 1.178.663-.07 1.136-.808.92-1.44-.154-.452-.27-.918-.387-1.383-.247-.98-.483-1.965-.729-2.97h-1.216Zm-5.88.022c-.223.022-.399.048-.575.054-.368.013-.628.172-.862.468C3.947 6.518 3.175 7.957 2.4 9.394a2.85 2.85 0 0 0-.24.74c-.064.288.005.412.27.522a2.2 2.2 0 0 0 1.21.152c.267-.042.399-.203.484-.442.258-.72.505-1.446.794-2.155.47-1.154.97-2.296 1.484-3.504Zm8.01-.017c-.006.05-.005.1.001.15.655 1.605 1.03 3.293 1.471 4.961a.695.695 0 0 0 .41.483c.426.188.888.195 1.183-.302.126-.212.331-.38.16-.697-.68-1.26-1.136-2.609-1.51-3.987-.045-.17-.108-.335-.166-.512l-1.55-.096Z"></path>
  <path d="M8.366 12.615c.909.053 1.801.09 2.69.161.748.06 1.082.374 1.106 1.122.025.81.002 1.619-.067 2.425-.057.675-.38 1.019-1.135 1.018-1.428-.003-2.856.05-4.284.066-.33 0-.659-.03-.984-.086-.715-.116-1.088-.53-1.087-1.273.001-.74.046-1.483.108-2.221A1.129 1.129 0 0 1 5.75 12.78c.875-.078 1.754-.113 2.616-.165Zm2.715 3.762c.19-.79.232-1.607.127-2.412-.01-.077-.125-.17-.211-.202a1.293 1.293 0 0 0-.405-.063c-.784-.025-1.567-.058-2.35-.06-.66 0-1.32.027-1.98.063-.684.038-.839.212-.824.89.009.386.03.77.054 1.154.033.552.084.64.622.655 1.36.037 2.72.043 4.08.05.286.001.572-.047.887-.075Z"></path>
</svg>