<svg width="46" height="46" fill="currentColor" viewBox="0 0 24 24" xmlns="http://www.w3.org/2000/svg">
  <path d="M3.628 4.383c.063.037.13.068.198.093l.454.163c.423.153.86.311 1.295.456.565.189 1.144.367 1.703.54l.224.069a.532.532 0 0 1 .405.455c.045.248.096.5.146.742.045.22.092.447.133.67.065.35.131.7.198 1.048a74 74 0 0 1 .505 2.837c.08.53.128 1.076.176 1.603.043.481.087.98.156 1.467l.018.129c.087.619.17 1.203.161 1.816-.015 1.147.441 1.628 1.628 1.718.906.068 1.818.092 2.727.092 1.063 0 2.121-.032 3.162-.064.843-.026 1.717-.053 2.575-.062h.021c.11.004.22-.007.328-.032l.054-.015c.163-.035.32-.096.466-.179a.69.69 0 0 0 .33-.601.66.66 0 0 0-.356-.555 1.486 1.486 0 0 0-.709-.166c-.65.011-1.312.03-1.951.05-.834.024-1.697.05-2.545.055a97.23 97.23 0 0 1-2.857-.034l-1.1-.022a1.533 1.533 0 0 1-.215-.026l-.101-.017-.297-1.53.261-.025c.229-.023.439-.043.649-.061l1.218-.105c1.54-.132 3.132-.27 4.698-.399.606-.05 1.01-.34 1.234-.888l.07-.172c.133-.35.288-.69.463-1.02.474-.85.821-1.765 1.157-2.65l.087-.229c.188-.495.403-1.155.395-1.872-.006-.591-.274-.876-.87-.925a3.004 3.004 0 0 0-.254-.006l-2.006.007c-1.683.005-3.423.01-5.134.031-.672.008-1.353.047-2.013.084-.318.018-.637.036-.956.05-.069.003-.14.002-.216.002l-.054-.001-.063-.267c-.059-.247-.114-.481-.175-.719-.159-.62-.515-1.003-1.09-1.174a160.68 160.68 0 0 1-2.588-.798l-1.228-.385a1.141 1.141 0 0 0-.262-.046c-.196-.013-.465.005-.543.31-.059.236.035.418.288.558Zm5.846 3.343.263-.013c.259-.014.503-.027.75-.027.539-.002 1.087 0 1.617.003a353.308 353.308 0 0 0 3.62 0c1.016-.003 2.032-.004 3.048-.004.216 0 .437.015.671.031l.269.018c-.035.119-.067.235-.098.347a6.424 6.424 0 0 1-.275.848 74.991 74.991 0 0 1-.934 2.044l-.352.752c-.151.328-.305.654-.47 1.008l-.23.49-6.966.66c-.104-1.843-.395-3.805-.913-6.157Z"></path>
  <path d="M18.216 20.416c.307-.002.6-.125.817-.343a.984.984 0 0 0 .297-.698c-.004-.551-.532-1.058-1.107-1.064h-.01a1.085 1.085 0 0 0-1.088 1.057.995.995 0 0 0 .29.724 1.105 1.105 0 0 0 .797.324h.004Z"></path>
  <path d="M11.636 20.495h.008a1.06 1.06 0 0 0 1.044-1.015c.008-.585-.512-1.149-1.07-1.16-.27.004-.527.114-.716.306a1.14 1.14 0 0 0-.358.796 1.045 1.045 0 0 0 .32.736c.202.21.48.33.771.337Z"></path>
</svg>