<svg width="46" height="46" fill="currentColor" viewBox="0 0 24 24" xmlns="http://www.w3.org/2000/svg">
  <path d="M10.074 17.396h2.194c1.691-.003 3.383-.01 5.074-.006.303-.006.605.022.901.082.56.129.65.49.251.911-.017.019-.023.048-.017.036.225.22.469.406.647.643.369.49.3 1.098-.133 1.533-.587.589-1.642.606-2.25.036-.453-.425-.52-1.105-.152-1.656.098-.147.225-.274.381-.463-1.811-.046-3.581-.08-5.448-.045.473.371.774.76.698 1.316a1.27 1.27 0 0 1-.435.819c-.583.496-1.591.429-2.146-.14-.51-.522-.431-1.249.24-2.01-.747-.096-.948-.68-1.115-1.257-.163-.566-.251-1.153-.395-1.725-.36-1.437-.762-2.863-1.094-4.306-.39-1.698-.723-3.41-1.082-5.115-.051-.242-.137-.48-.154-.724-.02-.285-.176-.402-.416-.488a103.15 103.15 0 0 1-1.852-.694 7.602 7.602 0 0 1-.795-.336c-.273-.142-.355-.357-.265-.573.09-.217.292-.292.593-.2.381.116.759.243 1.137.367.575.187 1.146.386 1.724.559.375.112.614.322.712.715.258 1.038.534 2.072.803 3.108.01.039.024.077.044.14.1.008.206.025.312.024.605-.008 1.21-.024 1.815-.031.15-.004.301.006.45.03a.34.34 0 0 1 .294.306.309.309 0 0 1-.219.353c-.14.055-.287.087-.436.095-.495.007-.99-.006-1.485-.01-.163-.002-.326 0-.539 0a82.84 82.84 0 0 0 1.394 5.488h8.456l2.392-5.662c-.507-.02-.959-.035-1.41-.057a4.079 4.079 0 0 1-.614-.055c-.239-.049-.357-.205-.338-.4.02-.211.157-.311.356-.335.19-.031.381-.05.573-.056.604.006 1.21.006 1.812.051.57.043.826.436.694 1.007-.049.2-.115.395-.198.583-.19.441-.395.875-.59 1.315-.544 1.23-1.095 2.456-1.622 3.693-.14.312-.337.596-.58.837a.689.689 0 0 1-.355.187c-.243.045-.49.065-.736.061-2.131-.042-4.262-.089-6.393-.14-.302-.007-.604-.02-.907-.026-.105-.002-.211.01-.343.016l.567 2.199Zm7.734 2.65c.214.018.417-.113.438-.281.027-.218-.246-.505-.49-.516-.16-.008-.327.175-.352.386-.026.226.134.39.404.412Zm-7.034-.104c.096-.072.234-.127.286-.227.077-.148.001-.293-.147-.379a1.407 1.407 0 0 0-.258-.122c-.149-.05-.298-.074-.38.114-.079.18-.038.38.117.47.124.058.252.106.383.145Z"></path>
  <path d="M13.661 4.706c-.145.126-.27.227-.387.337-.513.479-1.021.963-1.535 1.44-.11.1-.23.216-.365.258a.429.429 0 0 1-.366-.07c-.075-.076-.093-.251-.068-.37.023-.11.122-.213.209-.298.81-.805 1.621-1.607 2.436-2.407.245-.242.536-.267.84-.157.194.071.38.16.558.264.703.404 1.404.811 2.1 1.228.151.094.287.21.403.346a.447.447 0 0 1 .063.538c-.106.181-.297.207-.474.16a2.188 2.188 0 0 1-.566-.23c-.554-.33-1.098-.68-1.646-1.021-.08-.05-.164-.095-.295-.17-.008.178-.02.319-.02.459.019 2.173.041 4.346.055 6.519a2.13 2.13 0 0 1-.083.607.464.464 0 0 1-.729.25.457.457 0 0 1-.159-.237 1.79 1.79 0 0 1-.085-.564c.031-1.417.078-2.832.112-4.248.02-.825.026-1.65.037-2.476a.932.932 0 0 0-.035-.158Z"></path>
</svg>