<svg width="46" height="46" fill="currentColor" viewBox="0 0 24 24" xmlns="http://www.w3.org/2000/svg">
  <path d="M11.654 12.691c-.382.403-.74.77-1.087 1.149-.752.819-1.654 1.43-2.648 1.912-.567.275-1.175.388-1.802.44-1.004.085-2-.018-3-.08a.762.762 0 0 1-.2-.029.242.242 0 0 1-.18-.2.245.245 0 0 1 .113-.243.684.684 0 0 1 .339-.113c.405-.017.81-.01 1.216-.019.46-.009.92-.008 1.378-.04 1.595-.109 2.819-.953 3.914-2.022.415-.405.78-.862 1.165-1.297.052-.06.094-.128.15-.205-.994-1.264-2.095-2.382-3.578-3.053-.613-.278-1.272-.373-1.938-.394-.608-.02-1.217.005-1.826-.005a3.279 3.279 0 0 1-.638-.085.252.252 0 0 1-.207-.303c.02-.141.122-.204.257-.214 1.214-.084 2.428-.213 3.645-.032 1.122.167 2.074.711 2.926 1.408.645.528 1.206 1.16 1.804 1.745.058.057.111.117.179.188.245-.261.486-.513.72-.77 1.031-1.132 2.365-1.699 3.832-1.95 1.01-.172 2.041-.224 3.063-.33l.267-.03-.58-.525c-.25-.227-.51-.445-.749-.683-.188-.188-.207-.372-.096-.548.108-.174.343-.238.578-.136.136.062.262.141.376.237a91.4 91.4 0 0 1 1.588 1.327c.138.128.265.27.377.421a.65.65 0 0 1 .031.826c-.535.8-1.136 1.546-1.872 2.174a.783.783 0 0 1-.1.07c-.221.138-.425.141-.56.012-.147-.139-.15-.364.014-.59.215-.294.45-.575.667-.867.126-.17.237-.35.38-.564-.286 0-.514-.014-.74.002-1.16.08-2.317.168-3.448.486-1.281.36-2.262 1.119-3.076 2.163.033.07.071.136.114.2 1.053 1.367 2.454 2.133 4.155 2.347.9.114 1.804.176 2.707.258.104.01.21.002.407.002l-.937-1.258a2.2 2.2 0 0 1-.213-.295c-.085-.167-.095-.343.056-.483a.362.362 0 0 1 .452-.04c.156.082.297.188.42.314.526.598 1.06 1.19 1.548 1.82.365.471.323.78-.1 1.217-.253.261-.546.485-.824.721-.32.27-.637.546-.97.801a1.663 1.663 0 0 1-.494.264.371.371 0 0 1-.458-.169.385.385 0 0 1 .05-.487c.138-.148.285-.288.439-.42.295-.269.593-.536.937-.846-.561-.04-1.044-.067-1.525-.11-.957-.089-1.907-.208-2.832-.49-1.31-.397-2.38-1.141-3.25-2.184-.104-.124-.21-.246-.336-.395Z"></path>
</svg>