<svg width="46" height="46" fill="currentColor" viewBox="0 0 24 24" xmlns="http://www.w3.org/2000/svg">
  <path d="M19.67 4.741a1.053 1.053 0 0 0-.307-.252 1.71 1.71 0 0 1-.114-.075.083.083 0 0 0-.066-.015c-.211.046-.36.137-.44.273a.568.568 0 0 0-.038.457c.113.396.265.778.456 1.142.895 1.68 1.196 3.604.92 5.882a10.6 10.6 0 0 1-1.453 4.244c-.149.245-.282.504-.411.755-.08.153-.16.312-.245.466-.159.29-.324.58-.499.888l-.249.441a.08.08 0 0 0-.005.07.08.08 0 0 0 .052.048l.043.013c.22.07.338.106.434.106a.526.526 0 0 0 .276-.1c.713-.417 1.22-.831 1.592-1.302 1.182-1.492 1.85-2.86 2.103-4.305.1-.622.147-1.25.139-1.88-.002-.805-.004-1.638-.125-2.442-.266-1.764-1.192-3.221-2.063-4.414Z"></path>
  <path d="M6.76 19.19a1.384 1.384 0 0 0-.231-.257c-.53-.413-.959-.968-1.309-1.694a63.384 63.384 0 0 1-.516-1.104c-.61-1.331-.855-2.771-.749-4.402.142-2.172.546-4.082 1.234-5.838a2.24 2.24 0 0 0 .155-.565.483.483 0 0 0-.476-.537.475.475 0 0 0-.255.075 1.397 1.397 0 0 0-.48.48c-.304.516-.576 1.05-.815 1.599-.465 1.12-.774 2.364-1.002 4.031-.276 2.017.102 3.985 1.157 6.016.462.892 1.08 1.595 1.833 2.091.35.215.72.397 1.105.542.02.008.042.013.064.013a.561.561 0 0 0 .228-.08c.05-.026.103-.052.159-.074a.082.082 0 0 0 .05-.094.082.082 0 0 0-.017-.035 3.497 3.497 0 0 1-.134-.168Z"></path>
  <path d="m11.376 14.798.013.001c1.31-.003 2.245-.42 2.946-1.313.528-.673.685-1.418.466-2.215-.296-1.079-1.559-2.097-2.701-2.178-1.977-.14-3.178 1.307-3.345 2.809-.148 1.332.602 2.424 1.91 2.78.197.05.396.084.597.102l.114.014Zm1.593-2.197c-.544.596-1.236.813-2.058.645-.522-.107-.803-.437-.86-1.01a1.968 1.968 0 0 1 1.605-2.15c.121-.018.243-.026.366-.024.045 0 .09 0 .13-.002.672.289.915.78 1.078 1.267.16.48.072.908-.26 1.274Z"></path>
  <path d="M16.12 14.15c-.099.408-.2.83-.295 1.245a.62.62 0 0 0 .03.287c.012.053.026.108.037.17a.082.082 0 0 0 .106.064c.592-.193.885-.556 1.114-.92.95-1.509 1.243-3.095.872-4.714a7.018 7.018 0 0 0-.94-2.177 2.744 2.744 0 0 0-.425-.51c-.144-.139-.381-.199-.556-.045a.837.837 0 0 0-.25.445.715.715 0 0 0 .073.373l.022.058c.059.16.124.32.186.473l.113.282c.433 1.105.535 2.214.302 3.298-.12.56-.257 1.125-.39 1.672Z"></path>
  <path d="M8.139 9.15c.098-.147.186-.3.263-.46a.344.344 0 0 0-.049-.342.37.37 0 0 0-.324-.164c-.148.014-.315.04-.429.134-.231.19-.47.388-.64.636-.99 1.457-1.376 3.055-1.148 4.75.094.696.442 1.32 1.036 1.855.204.185.474.372.852.372.18-.003.357-.039.522-.107a.082.082 0 0 0 .043-.113c-.07-.135-.134-.264-.194-.386a7.23 7.23 0 0 0-.377-.696c-.387-.603-.574-1.295-.572-2.115a6.105 6.105 0 0 1 .95-3.259l.067-.105Z"></path>
</svg>