<svg width="46" height="46" fill="currentColor" viewBox="0 0 24 24" xmlns="http://www.w3.org/2000/svg">
  <path d="M21.818 13.16c.15-1.934-.287-3.892-1.374-6.162-.528-1.102-1.287-2.05-2.319-2.9-1.185-.975-2.646-1.616-4.597-2.017-1.814-.372-3.197-.389-4.477-.054-.127-.051-.25-.103-.373-.155-.29-.122-.565-.237-.852-.333-.924-.308-1.737-.342-2.484-.104-1.946.618-3.22 1.931-3.788 3.904-.378 1.314-.033 2.6.355 3.684.165.46.193.826.096 1.221-.34 1.386-.298 2.714.127 3.948l.02.06c.18.559.395 1.106.645 1.637 1.138 2.281 2.501 3.741 4.29 4.596.923.438 1.884.79 2.871 1.05 1.12.298 2.324.53 3.544.213.13-.033.346.037.611.198a4.51 4.51 0 0 0 2.376.68 5.267 5.267 0 0 0 1.662-.283c1.23-.409 2.468-.954 3.187-2.166 1.367-2.303 1.568-4.409.614-6.436a1.26 1.26 0 0 1-.134-.581Zm-6.696 7.57c-.469-.245-.9-.362-1.337-.362a2.48 2.48 0 0 0-.292.017c-1.553.183-3.148-.089-5.02-.856-1.842-.756-3.252-2.116-4.31-4.159a11.401 11.401 0 0 1-.38-.845l-.15-.355c-.473-1.09-.585-2.318-.345-3.755.127-.754.067-1.339-.198-1.954a4.927 4.927 0 0 1-.154-3.494c.29-.913.996-1.673 1.936-2.083.943-.411 1.985-.412 2.858 0 .614.288 1.19.284 1.773.254 3.732-.195 6.313.575 8.37 2.497.396.369.741.788 1.028 1.247.997 1.6 1.565 3.43 1.65 5.313-.208.71.036 1.386.295 2.103l.053.148c.644 1.802.297 3.57-1.03 5.253-.733.929-1.901 1.417-3.473 1.45-.414.01-.876-.212-1.273-.42Z"></path>
  <path d="M14.025 11.18a13.06 13.06 0 0 0-1.603-.358 25.56 25.56 0 0 1-.815-.156c-.119-.025-.239-.048-.358-.072a6.233 6.233 0 0 1-1.064-.272c-.721-.28-.953-.82-.672-1.562a2.01 2.01 0 0 1 1.334-1.264c2.025-.608 3.437-.352 4.578.827.038.035.083.06.132.074.026.01.058.023.095.04a.083.083 0 0 0 .1-.025c.346-.454.387-.577.083-.96-.389-.49-.929-.842-1.605-1.047a6.498 6.498 0 0 0-3.14-.162c-1.43.274-2.363 1.048-2.773 2.301-.372 1.135.002 2.152 1 2.721.484.277 1.046.432 1.482.536.337.08.685.133 1.021.183.306.045.622.092.926.16.411.093.886.217 1.293.443.804.446 1.225 1.163 1.187 2.017-.038.86-.73 1.268-1.402 1.555l-.029.012c-.086.04-.175.073-.267.098-1.839.461-3.443.215-4.903-.753a1.122 1.122 0 0 1-.104-.082.576.576 0 0 0-.266-.155c-.193-.031-.451-.044-.591.075-.14.118-.2.397-.169.583a.918.918 0 0 0 .32.529l.146.116c.318.255.647.52 1.02.68a7.3 7.3 0 0 0 2.907.627 6.793 6.793 0 0 0 2.057-.322c.874-.276 1.532-.708 2.01-1.32.595-.76.762-1.592.498-2.473-.401-1.34-1.218-2.213-2.428-2.593Z"></path>
</svg>