<svg width="46" height="46" fill="currentColor" viewBox="0 0 24 24" xmlns="http://www.w3.org/2000/svg">
  <path d="M11.711 15.916c-.58 0-1.427-.27-2.222-.709-.44-.243-.819-.564-1.045-1.027a.9.9 0 0 1-.121-.39c.003-.132.008-.256.137-.311a.368.368 0 0 1 .381.087c.157.151.242.384.41.514 1.14.883 2.401 1.27 3.828.828.664-.206 1.125-.673 1.474-1.26.084-.142.144-.322.268-.41.14-.097.376-.193.5-.137.126.056.227.3.229.464.002.177-.098.37-.196.531-.752 1.236-1.861 1.835-3.643 1.82Z"></path>
  <path d="M8.176 8.235c.948-.021 1.525.294 2.006.809a.93.93 0 0 1 .197.31c.113.314-.111.584-.429.484a1.851 1.851 0 0 1-.618-.386c-.435-.376-.907-.475-1.46-.324-.814.223-1.46.633-1.791 1.447-.076.186-.198.358-.437.278-.255-.084-.284-.326-.2-.514.166-.37.337-.763.6-1.063.613-.699 1.45-.963 2.132-1.041Z"></path>
  <path d="M18 9.28c-.043.057-.114.244-.232.282a.536.536 0 0 1-.439-.11c-.138-.122-.216-.315-.31-.482a.63.63 0 0 0-.65-.349c-.723.063-1.372.27-1.84.883-.07.093-.32.095-.366.052-.1-.09-.192-.207-.157-.322.069-.208.187-.396.344-.549.625-.612 1.403-.857 2.263-.833.65.017 1.363.72 1.387 1.428Z"></path>
  <path d="M7.617 11.766c.136.064.284.255.29.395a.548.548 0 0 1-.254.418c-.513.262-1.066.367-1.636.21-.212-.058-.418-.165-.434-.436-.015-.263.148-.42.36-.498.305-.113 1.458-.191 1.674-.09Z"></path>
  <path d="M17.01 12.129c-.378-.15-.472-.55-.178-.825a1.32 1.32 0 0 1 .598-.314c.235-.05.493-.02.738.007.239.027.46.115.525.388a.54.54 0 0 1-.266.637c-.246.132-1.228.18-1.417.107Z"></path>
  <path d="M2.605 9.364c-.859 3.374-.107 6.35 2.235 8.847.061.065.124.129.186.191 1.258 1.258 2.825 2.035 4.067 2.576.533.232 3.268.515 4.008.405 4.397-.657 7.29-3.137 8.298-7.286a10.62 10.62 0 0 0 .286-2.48c.005-1.968-.824-4.256-2.532-5.97a33.553 33.553 0 0 1-.52-.441c-.368-.316-.748-.643-1.146-.922-3.036-2.137-6.191-2.15-9.377-1.016-2.884 1.025-4.736 3.077-5.505 6.096Zm5.518-5.086c2.795-1.161 5.599-1.366 8.334.373.5.319 1.833 1.396 2.043 1.558l.014.01.01.012c1.068 1.132 2.29 3.2 2.263 5.328-.01.91-.132 1.814-.367 2.693-.695 2.525-2.356 4.365-5.078 5.624-2.767 1.325-6.736-.015-7.792-.712a12.333 12.333 0 0 1-3.019-2.934c-1.302-1.845-1.595-4.496-.895-6.92a7.86 7.86 0 0 1 4.487-5.032Z"></path>
</svg>