<svg width="46" height="46" fill="currentColor" viewBox="0 0 24 24" xmlns="http://www.w3.org/2000/svg">
  <path d="M12.186 15.783c-.981-.021-1.734-.164-2.452-.48a2.884 2.884 0 0 1-1.303-1.11c-.116-.182-.208-.399-.02-.564.208-.183.414-.062.575.116.961 1.072 2.212 1.317 3.547 1.119C13.659 14.697 14.51 14.059 15 13c.058-.125.097-.285.196-.357.14-.101.352-.214.493-.175.144.04.335.257.335.396.004.272-.067.54-.206.775-.9 1.374-2.175 2.108-3.632 2.144Z"></path>
  <path d="M14.649 9.048c.058-.314.088-.545.146-.768.07-.273.239-.471.532-.506.299-.036.536.098.71.334.316.424.281 1.514-.055 1.92-.302.364-.855.349-1.068-.074-.15-.295-.193-.645-.265-.906Z"></path>
  <path d="M8.986 9.063c-.083.316-.116.582-.222.816-.198.44-.692.491-.958.094-.353-.528-.38-1.13-.174-1.707.164-.46.767-.504 1.027-.082.167.271.23.607.327.88Z"></path>
  <path d="M2.611 9.364c-.858 3.374-.107 6.35 2.236 8.847.06.065.123.129.185.191 1.258 1.258 2.825 2.035 4.067 2.576.533.232 3.268.515 4.008.405 4.397-.657 7.29-3.137 8.299-7.286.192-.813.288-1.646.285-2.48.005-1.968-.824-4.256-2.532-5.97a34.539 34.539 0 0 1-.52-.441c-.368-.316-.748-.643-1.146-.922-3.036-2.137-6.191-2.15-9.377-1.016C5.232 4.293 3.38 6.345 2.611 9.364Zm5.518-5.086c2.795-1.161 5.599-1.366 8.334.373.5.319 1.833 1.396 2.043 1.558l.014.01.01.012c1.068 1.132 2.29 3.2 2.263 5.328-.009.91-.132 1.814-.367 2.693-.694 2.525-2.355 4.365-5.077 5.624-2.768 1.325-6.737-.015-7.793-.712a12.333 12.333 0 0 1-3.018-2.934c-1.303-1.845-1.596-4.496-.896-6.92A7.86 7.86 0 0 1 8.13 4.278Z"></path>
</svg>