<svg width="46" height="46" fill="currentColor" viewBox="0 0 24 24" xmlns="http://www.w3.org/2000/svg">
  <path d="m20.997 16.012-.24-.173-.227-.166c-1.405-1.01-2.089-2.459-2.214-4.695l.398-.302c.399-.302.793-.6 1.184-.902l.07-.053c.164-.117.315-.249.453-.394.272-.306.281-.713.021-.968-.24-.236-.56-.265-.877-.078a1.92 1.92 0 0 0-.302.236c-.034.03-.068.061-.103.09l-1.049.874-.018-.102a6.124 6.124 0 0 0-.122-.576c-.06-.211-.113-.43-.165-.642l-.003-.013c-.136-.554-.277-1.128-.524-1.65-.776-1.645-2.097-2.767-3.82-3.244-2.136-.592-4.542.368-5.85 2.334-.795 1.197-1.05 2.53-1.182 3.558l-.088.676-.013.094-.166-.16a83.262 83.262 0 0 0-.783-.749l-.04-.038a2.422 2.422 0 0 0-.433-.349.715.715 0 0 0-.952.166.672.672 0 0 0 .024.885c.152.172.32.33.501.47.422.35.856.702 1.238 1.014l.404.329c-.016 1.384-.374 2.735-1.009 3.808-.543.919-1.274 1.421-2.232 1.536-.128.015-.492-.038-.58.323-.148.61.06.814.692 1.121.492.24 1.01.44 1.515.636.279.108.567.22.847.336.18.076.363.163.469.285.536.615.96.73 1.681.46.177-.067.347-.15.514-.232l.1-.049c.525-.254.985-.21 1.447.14.427.324.892.594 1.385.805.402.177.835.272 1.275.278a2.735 2.735 0 0 0 1.692-.602l.269-.201.192-.143a2.567 2.567 0 0 1 2.054-.5l.22.039.014-.08-.004.082c.284.063.575.092.867.087.48-.026.82-.134 1.01-.32.252-.245.368-.773.693-.851.766-.185 1.701-.01 2.146-.83.469-.867.433-1.016-.38-1.6Zm-.597 1.09c-.58.616-1.517-.047-2.067.504-.178.178-.02.788-.493.877-.16.03-.717.038-.857-.018-1.136-.457-2.226-.279-3.332.546a3.669 3.669 0 0 0-.268.217c-.696.629-1.457.706-2.325.238l-.099-.053a6.485 6.485 0 0 1-.8-.481c-.427-.318-.873-.478-1.325-.478-.41.01-.812.122-1.168.326-.59.32-.707.206-1.013-.032-.453-.353-.61-.514-.948-.597a17.75 17.75 0 0 1-1.256-.358 4.657 4.657 0 0 1-.49-.202l-.046-.021c1.217-.498 2.088-1.46 2.661-2.936.385-.992.537-2.028.671-3.091l.054-.427c.133-1.064.27-2.164.476-3.23.172-.899.638-1.73 1.384-2.47 1.303-1.292 3.724-1.826 5.644-.27 1.134.92 1.796 2.16 2.022 3.791.134.97.264 1.957.39 2.911l.07.52c.246 1.863 1.178 3.362 2.769 4.456.096.066.188.143.294.233l.052.044Z"></path>
</svg>