<svg width="46" height="46" fill="currentColor" viewBox="0 0 24 24" xmlns="http://www.w3.org/2000/svg">
  <path d="M10.656 11.689c-.434-.44-.786-.8-1.145-1.158-.243-.242-.456-.567-.752-.69-.294-.122-.673-.033-1.015-.044-.55-.019-1.1-.044-1.65-.066-.186-.008-.365-.034-.417-.255-.043-.189.084-.365.343-.44a2.46 2.46 0 0 1 .526-.08c.396-.028.794-.044 1.247-.067a2.943 2.943 0 0 0-.192-.251c-.278-.286-.57-.56-.838-.854a.814.814 0 0 0-.572-.278 72.024 72.024 0 0 1-2.055-.181 7.683 7.683 0 0 1-.848-.164c-.19-.042-.327-.154-.33-.366-.001-.177.153-.307.401-.333a2.26 2.26 0 0 1 .368.01c.583.034 1.166.07 1.749.106l.038-.084c-.213-.226-.426-.453-.64-.678-.152-.159-.312-.311-.459-.475-.267-.297-.306-.573-.118-.766.21-.214.473-.178.793.125.249.236.486.487.73.729.075.074.159.14.292.256-.02-.366-.044-.665-.052-.963-.008-.178 0-.357.026-.533a.474.474 0 0 1 .396-.418c.191-.019.384.102.447.349.067.294.114.592.141.892.067.573.121 1.147.188 1.72.006.095.04.186.099.262.366.386.744.761 1.17 1.194.045-.44.077-.8.119-1.16.015-.178.046-.354.094-.526a.473.473 0 0 1 .47-.332.449.449 0 0 1 .418.392c.02.205.017.411-.007.615a43.63 43.63 0 0 1-.138 1.52.745.745 0 0 0 .254.692c.465.429.906.884 1.359 1.326.066.065.139.123.252.222l.192-5.01-2.096-1.959c-.09-.084-.184-.166-.268-.257-.232-.255-.274-.531-.112-.697.157-.16.405-.15.67.062.442.35.874.712 1.306 1.074.166.138.321.288.555.5.004-.326-.005-.566.013-.804.022-.301.054-.602.103-.9.031-.188.14-.334.359-.33.185.002.297.15.319.409.008.095.002.192.007.288.019.398.04.796.064 1.255.096-.067.189-.138.277-.215.406-.411.806-.827 1.211-1.24.091-.102.193-.194.304-.276a.505.505 0 0 1 .611.047.483.483 0 0 1 .081.606c-.053.095-.12.183-.2.259-.65.633-1.295 1.271-1.962 1.887-.217.201-.327.397-.331.704-.02 1.403-.067 2.805-.104 4.207-.004.15 0 .3 0 .497.07-.037.137-.08.2-.129.495-.477.984-.96 1.483-1.434a.636.636 0 0 0 .22-.507c-.01-.605-.008-1.21-.006-1.814.002-.371.087-.522.301-.553.206-.03.353.107.433.458.091.4.155.805.236 1.24.089-.069.167-.119.233-.182.35-.33.692-.67 1.046-.996a.62.62 0 0 0 .2-.428c.097-.888.212-1.773.324-2.66.012-.11.04-.217.08-.319.057-.137.174-.238.323-.194a.436.436 0 0 1 .263.213c.049.157.068.321.057.485-.015.562-.044 1.124-.07 1.745.133-.122.232-.21.327-.301.395-.384.784-.773 1.183-1.15.245-.232.468-.266.614-.12.147.147.128.38-.086.626-.244.28-.512.539-.768.807-.092.096-.18.196-.336.366.42-.037.747-.061 1.071-.096.264-.029.522-.05.746.136.292.243.288.527-.018.75-.259.19-.564.194-.866.219-.657.055-1.314.114-1.97.181a.543.543 0 0 0-.298.113c-.462.418-.896.864-1.3 1.338.347-.05.694-.105 1.043-.145a1.36 1.36 0 0 1 .444.01.468.468 0 0 1 .368.443.474.474 0 0 1-.301.49 1.052 1.052 0 0 1-.317.077c-.74.066-1.479.122-2.217.19a.519.519 0 0 0-.299.103c-.518.507-1.025 1.027-1.583 1.592.19.01.306.02.423.02 1.376.003 2.751-.001 4.126.011a.747.747 0 0 0 .582-.229c.49-.48 1-.943 1.505-1.41.177-.163.377-.28.632-.227.455.094.61.595.282.961-.192.214-.424.392-.634.59-.097.09-.186.188-.332.337.342 0 .61-.003.878 0 .178.003.357.007.534.024a.36.36 0 0 1 .048.704 2.164 2.164 0 0 1-.485.072c-.383.01-.767.003-1.226.003.06.093.124.183.194.27.304.318.619.626.915.95.125.128.223.279.29.444.037.11.01.301-.065.372a.5.5 0 0 1-.4.104 1.285 1.285 0 0 1-.457-.265c-.7-.556-1.374-1.141-1.941-1.86h-5.03c.049.082.104.16.165.234.3.303.62.587.904.904a.824.824 0 0 0 .797.293c.424-.045.85-.063 1.276-.054.178.003.355.036.521.099a.448.448 0 0 1 .296.412.414.414 0 0 1-.267.427 1.78 1.78 0 0 1-.514.116c-.215.02-.432.004-.702.004.032.066.07.13.114.189.54.55 1.086 1.093 1.62 1.647a.5.5 0 0 0 .512.165c.788-.158 1.589-.119 2.386-.12a.935.935 0 0 1 .284.035c.163.052.266.188.231.345-.025.114-.13.266-.23.296a3.137 3.137 0 0 1-.73.103c-.316.016-.633-.001-.95.009-.171.005-.342.036-.584.063.27.281.491.505.703.736.204.223.404.45.596.684.075.098.139.203.19.315a.33.33 0 0 1-.106.44.338.338 0 0 1-.453-.02c-.105-.09-.2-.19-.296-.288-.402-.411-.803-.824-1.274-1.308-.039.555-.064 1.01-.107 1.462-.016.174-.037.367-.124.51-.064.107-.231.185-.364.209a.309.309 0 0 1-.348-.235 1.741 1.741 0 0 1-.086-.521 44.73 44.73 0 0 1 .085-1.937.617.617 0 0 0-.203-.545c-.557-.529-1.101-1.072-1.715-1.673-.02.22-.032.363-.047.506-.03.287-.047.576-.096.86-.049.281-.184.401-.39.4-.22-.002-.359-.142-.375-.453a23.304 23.304 0 0 1-.041-1.69c.008-.382-.08-.683-.393-.934-.306-.245-.57-.54-.912-.872-.012.188-.024.29-.024.393 0 1.43.006 2.861 0 4.292a.659.659 0 0 0 .223.547c.499.431.992.869 1.494 1.297.22.188.462.348.678.539.236.207.272.428.132.616-.13.175-.38.21-.631.035-.509-.352-1-.728-1.499-1.094l-.34-.251v.456c.004.22.024.44.012.66-.024.417-.188.621-.466.61-.263-.01-.404-.208-.424-.605-.009-.178-.003-.358-.01-.536-.004-.107-.02-.214-.035-.372-.11.096-.193.159-.265.232-.319.323-.629.655-.954.972a1.23 1.23 0 0 1-.376.243.453.453 0 0 1-.558-.623 2.04 2.04 0 0 1 .277-.352c.58-.643 1.16-1.287 1.748-1.923.14-.152.128-.325.125-.502-.02-1.21-.04-2.42-.062-3.63-.004-.274 0-.548 0-.886-.126.097-.213.153-.287.224-.286.277-.563.565-.855.837a.685.685 0 0 0-.23.505c-.024.535-.056 1.07-.102 1.605a1.45 1.45 0 0 1-.135.508.402.402 0 0 1-.45.223.39.39 0 0 1-.343-.313 2.241 2.241 0 0 1-.032-.527c.011-.244.048-.486.08-.8-.13.104-.205.156-.27.219-.257.248-.493.522-.77.746a1.764 1.764 0 0 0-.67 1.221c-.072.573-.185 1.14-.286 1.708a1.633 1.633 0 0 1-.12.391.27.27 0 0 1-.341.16.43.43 0 0 1-.247-.234 1.817 1.817 0 0 1-.03-.53c.012-.354.037-.708.06-1.137-.151.117-.248.184-.338.262-.29.253-.573.514-.866.764a1.1 1.1 0 0 1-.312.193.4.4 0 0 1-.458-.09.413.413 0 0 1-.087-.494c.071-.132.164-.251.274-.353.297-.286.607-.56.909-.84.066-.063.124-.134.24-.26-.375 0-.674.008-.971-.003a1.973 1.973 0 0 1-.443-.073.395.395 0 0 1-.294-.404.408.408 0 0 1 .306-.437 1.46 1.46 0 0 1 .402-.057c.578.006 1.156.017 1.733.04a.69.69 0 0 0 .554-.21c.475-.472.96-.934 1.509-1.464-.374 0-.655.002-.936 0a3.242 3.242 0 0 1-.492-.024c-.233-.04-.333-.159-.33-.351a.315.315 0 0 1 .295-.338c.394-.05.79-.097 1.186-.123.315-.022.633-.001.948-.023a.652.652 0 0 0 .376-.124c.445-.405.872-.83 1.357-1.296-.163-.012-.265-.029-.366-.027-1.458.021-2.916.05-4.374.063a.614.614 0 0 0-.55.28c-.297.412-.603.82-.933 1.207-.18.205-.387.384-.617.531-.161.105-.38.13-.538-.029a.474.474 0 0 1-.078-.574c.085-.155.187-.3.304-.434.263-.315.535-.622.86-.997-.396-.022-.716-.034-1.036-.058a6.77 6.77 0 0 1-.693-.082.272.272 0 0 1-.246-.287c.005-.165.12-.247.266-.267.15-.014.3-.018.45-.013a6.04 6.04 0 0 0 1.083-.069c-.194-.163-.386-.33-.582-.49-.225-.182-.46-.35-.679-.538-.227-.195-.28-.403-.168-.573.116-.18.368-.221.626-.06.407.255.8.534 1.196.807.406.28.806.566 1.215.842.07.04.151.06.233.055 1.43-.03 2.86-.063 4.385-.1Z"></path>
</svg>