<svg width="46" height="46" fill="currentColor" viewBox="0 0 24 24" xmlns="http://www.w3.org/2000/svg">
  <path d="M9.136 10.328c-.005-.011-.009-.043-.027-.058-1.052-.874-1.389-2.01-1.2-3.325.177-1.23.628-2.35 1.577-3.184.965-.85 2.097-1.292 3.413-1.111.177.022.35.068.516.136 1.35.583 2.435 1.457 2.952 2.88.44 1.21.22 2.36-.486 3.413-.234.35-.548.647-.845.99 1.205.35 1.96 1.233 2.6 2.289l.457-.298a5.45 5.45 0 0 1 .557-.351c.64-.309 1.128-.761 1.43-1.41.05-.097.114-.188.188-.27.122-.145.27-.255.464-.143.193.112.164.3.118.478a2.384 2.384 0 0 1-.092.23c-.046.125-.09.253-.138.391.165.086.314.151.45.238.243.153.332.351.265.546a.44.44 0 0 1-.573.271c-.436-.179-.76-.013-1.105.212-.39.255-.8.482-1.198.727-.139.085-.268.186-.413.289.19.698.3 1.393.24 2.095-.172 2-.873 3.743-2.568 4.95-1.279.912-2.721 1.2-4.268 1.03a7.2 7.2 0 0 1-2.11-.53c-2.156-.942-3.374-2.574-3.542-4.937-.05-.69.09-1.369.303-2.028l.112-.337-2.171-1.75c-.301 0-.615.003-.93 0a.936.936 0 0 1-.244-.033c-.173-.049-.298-.16-.305-.346-.007-.19.116-.308.288-.356.12-.026.243-.041.366-.046.134-.011.268-.018.4-.027 0-.193-.002-.354 0-.516.002-.294.075-.418.263-.44.228-.026.344.124.374.306.102.634.478 1.023 1.019 1.34.47.274.883.65 1.314.974.393-.435.746-.893 1.168-1.273.416-.374.902-.669 1.381-1.016Zm7.746 4.907c.042-1.822-1.088-3.542-3.049-4.047-.328-.085-.679-.185-1.005-.149-.76.086-1.505.087-2.246-.105a.627.627 0 0 0-.548.085c-.26.18-.535.338-.785.53-1.506 1.155-2.332 2.646-2.186 4.582.125 1.643 1.007 2.795 2.471 3.472a6.022 6.022 0 0 0 3.504.47c1.24-.193 2.249-.779 2.945-1.843.593-.907.872-1.915.899-2.995ZM8.899 7.448c-.016 1.315.596 2.14 1.75 2.445.331.09.672.143 1.015.155 1.375.036 2.508-.47 3.248-1.652.493-.787.563-1.649.137-2.513-.465-.944-1.26-1.523-2.214-1.858-1.152-.406-2.69.073-3.32 1.302a5.592 5.592 0 0 0-.616 2.12Z"></path>
  <path d="M12.23 12.795a.514.514 0 0 1-.516.521.49.49 0 0 1-.518-.512c-.003-.292.194-.525.454-.538.266-.013.572.265.58.529Z"></path>
  <path d="M11.635 15.126c.253-.001.539.304.54.577a.48.48 0 0 1-.48.461.546.546 0 0 1-.532-.52.503.503 0 0 1 .472-.518Z"></path>
  <path d="M11.737 18.852a.44.44 0 0 1-.47-.455.51.51 0 0 1 .497-.538.477.477 0 0 1 .445.66.52.52 0 0 1-.472.333Z"></path>
  <path d="M12.212 6.692c.036 0 .072.005.106.017.453.227.925.432 1.27.82.22.247.222.51.042.707-.173.19-.438.194-.708.002a7.502 7.502 0 0 1-.693-.518 1.75 1.75 0 0 1-.401-.509c-.135-.275.062-.528.384-.52Z"></path>
  <path d="M14.049 5.988a.403.403 0 0 1-.402.425.385.385 0 0 1-.397-.381.402.402 0 0 1 .222-.404.399.399 0 0 1 .157-.04.39.39 0 0 1 .42.4Z"></path>
  <path d="M10.996 6.055a.394.394 0 0 1-.385.4.384.384 0 0 1-.407-.374.41.41 0 0 1 .407-.427.394.394 0 0 1 .385.401Z"></path>
</svg>