<svg width="46" height="46" fill="currentColor" viewBox="0 0 24 24" xmlns="http://www.w3.org/2000/svg">
  <path d="M14.38 7.504c.152-.106.284-.201.42-.292 1.37-.913 2.849-1.095 4.409-.62 1.893.578 2.67 2.44 2.51 3.938-.135 1.272-.763 2.298-1.683 3.156-.358.333-.819.518-1.289.613-.858.172-1.723.327-2.592.426-2.215.254-4.444.242-6.669.277-1.046.016-2.09-.002-3.11-.264a9.6 9.6 0 0 1-.905-.271c-1.298-.474-2.214-1.343-2.71-2.638-.778-2.035-.67-4.021.509-5.861.983-1.535 2.398-2.601 4.217-2.915 2.29-.395 4.225.346 5.712 2.155a5.84 5.84 0 0 1 1.074 2.02c.026.087.066.17.107.276Zm-4.412 6.28c.535-.02 1.072-.032 1.607-.064 1.796-.108 3.592-.24 5.39-.325a4.325 4.325 0 0 0 1.843-.516c1.014-.534 1.539-1.384 1.593-2.51.06-1.242-.542-2.387-1.986-2.674-1.206-.24-2.328-.038-3.286.779-.312.266-.583.58-.875.87-.09.103-.19.195-.302.274-.303.18-.658.065-.775-.266a.78.78 0 0 1-.012-.47c.162-.498.096-.973-.078-1.447a5.015 5.015 0 0 0-1.01-1.68c-1.273-1.386-2.856-1.836-4.675-1.46-.721.15-1.34.55-1.92.999-1.944 1.5-2.371 3.61-1.869 5.612.285 1.135.924 2.017 2.083 2.416a9.08 9.08 0 0 0 1.31.344c.98.178 1.971.147 2.962.118Z"></path>
  <path d="M11.486 16.63c-.329-.002-.618-.275-.618-.584a.688.688 0 0 1 .658-.654.612.612 0 0 1 .583.614.628.628 0 0 1-.623.624Z"></path>
  <path d="M5.623 19.57c-.336.004-.652-.262-.656-.553-.005-.302.295-.567.64-.565.323.001.599.252.605.551.006.3-.266.562-.589.566Z"></path>
  <path d="M14.467 16.677a.59.59 0 0 1 1.18.01.614.614 0 0 1-.62.585.592.592 0 0 1-.56-.595Z"></path>
  <path d="M17.203 19.08c-.332.003-.625-.276-.618-.588a.587.587 0 0 1 .553-.557c.336-.01.67.286.668.59-.003.3-.278.552-.603.555Z"></path>
  <path d="M18.178 16.218c-.325.005-.566-.221-.56-.524.007-.308.295-.567.637-.57.327-.004.561.217.557.525-.005.314-.284.565-.634.57Z"></path>
  <path d="M11.236 21.001a.568.568 0 0 1-.562-.583c.006-.335.229-.523.606-.51.32.01.563.244.56.537-.002.294-.294.562-.604.556Z"></path>
  <path d="M7.997 20.392a.586.586 0 0 1-.542.606.51.51 0 0 1-.539-.538c.005-.335.24-.605.537-.615a.544.544 0 0 1 .544.547Z"></path>
  <path d="M13.683 18.837a.581.581 0 0 1-.592.562.566.566 0 0 1 .062-1.132.555.555 0 0 1 .53.57Z"></path>
  <path d="M10.062 18.954a.55.55 0 0 1-.56.572c-.307-.004-.545-.27-.538-.602a.543.543 0 0 1 .74-.493.555.555 0 0 1 .358.523Z"></path>
  <path d="M4.695 15.041a.504.504 0 0 1 .52.518c-.006.312-.303.58-.635.576a.474.474 0 0 1-.494-.49.636.636 0 0 1 .609-.604Z"></path>
  <path d="M7.828 16.821c.01.288-.203.509-.51.528a.55.55 0 0 1-.597-.535c-.005-.293.184-.516.45-.53.331-.017.647.24.657.537Z"></path>
  <path d="M15.205 19.919a.457.457 0 0 1 .454.477c-.004.35-.209.602-.487.599-.279-.003-.515-.275-.512-.587.003-.286.238-.497.545-.49Z"></path>
</svg>