<svg width="46" height="46" fill="currentColor" viewBox="0 0 24 24" xmlns="http://www.w3.org/2000/svg">
  <path d="M19.312 9.752a.46.46 0 0 0 .108.043c1.119.044 1.655.783 1.953 1.723.265.833.26 1.705.165 2.574-.06.559-.093 1.121-.149 1.68a3.164 3.164 0 0 1-.444 1.358c-.24.394-.574.675-1.038.74-.666.094-1.335.16-2.004.235-.121.013-.244.013-.418.022.074.338.14.652.211.965.057.254.125.506.176.762.028.12.035.243.022.365a.543.543 0 0 1-.84.4.517.517 0 0 1-.208-.3 8.998 8.998 0 0 1-.17-.971c-.058-.376-.112-.753-.167-1.115H7.42c-.079.459-.153.915-.236 1.37a4.83 4.83 0 0 1-.16.68c-.122.362-.383.536-.67.479-.293-.058-.485-.361-.41-.747.093-.484.236-.959.356-1.437.03-.118.055-.236.096-.41-.428-.048-.831-.081-1.23-.141-.38-.052-.757-.125-1.13-.218-.705-.188-1.149-.649-1.237-1.38-.112-.927-.187-1.857-.27-2.787-.037-.423-.076-.849-.072-1.273-.007-.37.031-.738.113-1.098.286-1.087 1.22-1.735 2.342-1.67.106.007.212.017.33.026-.128-1.34-.059-2.655.052-3.968.09-1.065.592-1.686 1.614-1.991.798-.24 1.624-.3 2.447-.306 2.42-.017 4.84-.002 7.26.008.288-.004.576.023.86.082.875.203 1.422.76 1.588 1.641.12.606.2 1.22.236 1.836.04.822.013 1.648.014 2.473v.35Zm-1.9 1.607c.077-.16.163-.314.256-.464.154-.226.405-.416.473-.66.073-.26-.032-.567-.036-.854-.01-.879.01-1.759-.02-2.637a14.206 14.206 0 0 0-.17-1.553c-.064-.445-.35-.705-.782-.792a2.996 2.996 0 0 0-.613-.058c-1.085.008-2.17.02-3.256.043-1.4.03-2.803.05-4.202.116-.6.029-1.198.144-1.79.255-.498.094-.758.419-.841.933-.232 1.427-.326 2.864-.373 4.306 0 .106.035.21.1.295a3.5 3.5 0 0 1 .737 1.588c.006.031.022.06.045.081.533-.103 1.025-.248 1.525-.285 1.74-.125 3.482-.239 5.224-.305 1.22-.047 2.441-.009 3.723-.009Zm-4.679 5.693v-.033c1.595 0 3.19.014 4.784-.007.63-.008 1.26-.088 1.888-.146a.807.807 0 0 0 .726-.583c.059-.195.091-.397.097-.6.025-.44 0-.883.052-1.317.104-.777.119-1.563.043-2.343a1.884 1.884 0 0 0-.39-.936c-.156-.21-.361-.278-.612-.259-.455.035-.852.388-.983.923-.12.493-.215.992-.307 1.492-.091.493-.368.843-.783 1.107-.326.208-.699.33-1.084.356-.864.061-1.727.15-2.592.166-1.676.029-3.354.036-5.031.006-.556-.01-1.111-.152-1.663-.255-.533-.1-.78-.482-.853-.983-.05-.351-.061-.71-.083-1.066-.035-.582-.117-1.148-.493-1.628-.324-.411-.732-.527-1.205-.31-.336.154-.613.388-.685.77-.08.36-.124.728-.13 1.098.018.699.083 1.397.141 2.095.04.479.108.955.15 1.434.036.394.234.632.621.714.08.022.16.04.241.051.971.087 1.941.22 2.914.243 1.745.04 3.491.011 5.237.011Zm4.405-4.618a5.96 5.96 0 0 0-.617-.08 95.678 95.678 0 0 0-8.197.252c-.349.026-.697.14-1.033.25-.242.079-.225.305-.21.522.015.217.147.28.323.3.45.052.898.123 1.35.142 2.515.103 5.025-.091 7.538-.165.301-.009.546-.14.657-.415.095-.233.12-.494.19-.806Z"></path>
</svg>