<svg width="46" height="46" fill="currentColor" viewBox="0 0 24 24" xmlns="http://www.w3.org/2000/svg">
  <path d="M3.516 11.517a.083.083 0 0 0-.049.073l-.034 1.5a419.86 419.86 0 0 1-.088 3.523c-.035 1.097.1 2.194.4 3.25.379 1.348 1.234 2.128 2.615 2.384.606.102 1.217.171 1.83.207.217.017.434.034.651.054a43 43 0 0 0 3.916.154 123 123 0 0 0 2.462-.03 13.638 13.638 0 0 0 1.963-.152c1.476-.246 2.455-1.084 2.912-2.49.321-.99.413-1.997.494-3.115.042-.582.088-1.258.101-1.92l.01-.457c.023-1.11.048-2.256.028-3.384-.02-1.163-.075-2.345-.128-3.488l-.039-.84a38.253 38.253 0 0 1-.016-.432 11.286 11.286 0 0 0-.122-1.53c-.328-1.898-1.827-3.317-3.646-3.451l-.03-.002a10.213 10.213 0 0 0-.747-.037h-.003c-1.4 0-2.8.002-4.2.005l-4.257.004c-.889 0-1.741.237-2.606.723a2.05 2.05 0 0 0-.59.48c-.532.667-.825 1.499-.871 2.47-.022.45-.002.909.016 1.352.012.28.024.57.026.854.006 1.03.005 2.077.003 3.09v1.205ZM4.71 9.842a31.03 31.03 0 0 1-.02-1.09c.001-.272.028-.551.054-.821.014-.144.028-.288.039-.432.007-.104.012-.21.017-.314.006-.15.013-.306.029-.456.02-.187.037-.375.054-.562.035-.5.1-1 .192-1.492.195-.935 1.111-1.703 2.086-1.749 1.117-.052 2.227-.085 3.3-.117.437-.013.864-.026 1.279-.04h4.569c.492-.006.978.11 1.414.338.83.434 1.33 1.118 1.485 2.032.08.521.126 1.047.135 1.574l.028.926c.053 1.797.109 3.656.122 5.483.006.8-.044 1.615-.093 2.404-.019.312-.038.624-.054.937-.04.786-.086 1.632-.147 2.486-.043.609-.176 1.381-.83 1.95a2.099 2.099 0 0 1-1.06.48 10.4 10.4 0 0 1-1.568.175l-.244.004c-1.34.024-2.725.048-4.083-.003-1.52-.057-3.137-.14-4.736-.461a3.617 3.617 0 0 1-.387-.098c-.592-.19-.964-.56-1.137-1.132-.357-1.18-.518-2.275-.492-3.35.046-1.882.058-3.75.069-5.557.002-.372-.01-.75-.02-1.115Z"></path>
  <path d="M9.203 19.323c.973.438 1.887.657 2.793.671h.011c.12-.013.241-.023.363-.033.274-.016.547-.05.816-.103.875-.187 1.517-.48 2.02-.923.54-.46.969-1.036 1.258-1.684.743-1.72.79-3.172.147-4.565a3.267 3.267 0 0 0-.811-1.097c-.705-.626-1.563-1.03-2.7-1.27a2.611 2.611 0 0 0-1.569.138c-.207.09-.421.162-.64.217-1.14.274-2.045.886-2.689 1.82-.222.333-.41.687-.56 1.057-.307.717-.644 1.672-.532 2.694.166 1.512.85 2.519 2.093 3.078Zm-.824-4.068c.12-.66.355-1.295.696-1.872a3.853 3.853 0 0 1 2.006-1.696c.194-.062.396-.096.6-.102.095-.008.193-.016.29-.029.537.007 1.083.117 1.768.357.5.184.95.485 1.312.877.106.128.19.273.247.43.434.984.3 1.983.113 2.83a3.733 3.733 0 0 1-.745 1.61c-.412.508-.963.823-1.682.964-1.22.238-2.442.014-3.631-.665-.531-.302-.738-.822-.92-1.372-.127-.386-.145-.821-.054-1.332Z"></path>
  <path d="M12.028 8.46c.204-.002.407-.027.605-.076 1.078-.26 1.708-.922 1.928-2.025.15-.747-.105-1.349-.777-1.838-.639-.465-1.352-.451-1.965-.376-1.108.135-2.018 1.234-2.029 2.451a1.252 1.252 0 0 0 .347.96c.608.608 1.22.904 1.891.903Zm-1.117-2.206c.028-.351.182-.68.433-.927h1.19c.02 0 .04.003.058.008.347.101.544.225.62.39.073.156.046.37-.086.67a1.237 1.237 0 0 1-.9.703 1.3 1.3 0 0 1-1.166-.346c-.122-.117-.166-.266-.148-.498Z"></path>
</svg>