<svg width="46" height="46" fill="currentColor" viewBox="0 0 24 24" xmlns="http://www.w3.org/2000/svg">
  <path d="M10.382 15.414c0-.522.007-1.044-.002-1.566-.017-.99-.032-1.98-.075-2.968-.008-.173-.12-.36-.231-.506-.307-.405-.66-.776-.957-1.187-.781-1.074-.908-2.242-.439-3.477.435-1.146 1.09-2.132 2.156-2.783 1.388-.847 2.872-.57 3.85.788.917 1.275 1.085 2.698.642 4.2a4.503 4.503 0 0 1-.633 1.379c-.393.547-.809 1.076-1.201 1.622a.677.677 0 0 0-.118.37c-.006 1.456.04 2.915-.013 4.37-.05 1.4-.191 2.796-.313 4.192-.031.3-.104.595-.216.876-.256.672-1.145.996-1.793.684a.98.98 0 0 1-.53-.652 3.984 3.984 0 0 1-.167-.97c-.018-1.458-.008-2.915-.008-4.372h.048Zm1.341 5.178c.243-.249.288-.322.32-.638.051-.492.108-.985.121-1.478.042-1.524.076-3.05.09-4.574.006-.742-.052-1.484-.059-2.226-.007-.8.154-1.552.71-2.175.192-.215.348-.461.531-.684.419-.51.663-1.095.819-1.733a3.515 3.515 0 0 0-.454-2.805c-.514-.821-1.362-1.075-2.215-.68a2.68 2.68 0 0 0-.97.75 4.792 4.792 0 0 0-.978 2.108 2.468 2.468 0 0 0 .348 1.892c.162.255.337.502.526.738.42.52.823 1.04.743 1.768a17.72 17.72 0 0 1 .336 3.357c.029 1.705.049 3.41.077 5.114.007.396.034.793.055 1.266Z"></path>
</svg>