<svg width="46" height="46" fill="currentColor" viewBox="0 0 24 24" xmlns="http://www.w3.org/2000/svg">
  <path d="M4.63 10.204c.03.008.062.012.093.01l.058.002c.03 0 .06-.004.088-.014a.983.983 0 0 0 .234-.13c1.426-1.05 3.1-1.69 4.976-1.905a18.49 18.49 0 0 1 1.962-.147c2.473-.018 4.525.156 6.486 1.066.08.04.164.069.251.088a.704.704 0 0 0 .815-.457c.109-.32-.006-.601-.322-.792a1.375 1.375 0 0 0-.338-.13c-.046-.013-.093-.026-.139-.042C15.87 6.765 12.8 6.56 9.405 7.13a9.897 9.897 0 0 0-4.189 1.713 3.859 3.859 0 0 0-.75.774.373.373 0 0 0-.08.322.405.405 0 0 0 .244.264Z"></path>
  <path d="M17.825 12.189a2.421 2.421 0 0 0-.162-.054c-2.758-.773-5.484-.949-8.102-.522-.963.156-1.91.427-2.722.668-.369.11-.702.333-1.025.55l-.071.048a.647.647 0 0 0-.235.492c.003.118.079.222.153.323.029.04.059.08.082.12a.083.083 0 0 0 .103.033c.196-.082.376-.163.55-.242a7.75 7.75 0 0 1 .991-.394 16.577 16.577 0 0 1 6.89-.537 20.81 20.81 0 0 1 2.101.432c.362.087.735.178 1.105.256.482.102.829-.039.927-.377.07-.241.026-.575-.585-.796Z"></path>
  <path d="M16.273 16.287a2.922 2.922 0 0 0-.6-.31c-2.208-.8-4.21-.934-6.123-.409-.658.18-1.29.468-1.849.721-.207.094-.37.294-.512.47l-.042.051a.377.377 0 0 0 .013.408c.1.104.235.168.379.178l.031-.002a.938.938 0 0 0 .315-.112 1.54 1.54 0 0 1 .16-.073c.137-.05.274-.101.41-.153.347-.138.7-.258 1.059-.36 1.692-.45 3.43-.361 5.31.271.228.077.455.142.718.218l.417.121a.082.082 0 0 0 .069-.01c.03-.02.072-.043.115-.066a.906.906 0 0 0 .352-.27c.146-.224.06-.489-.222-.674Z"></path>
  <path d="M22.758 11.099a11.336 11.336 0 0 0-2.517-5.927c-1.15-1.41-2.385-2.415-3.779-3.071a8.054 8.054 0 0 0-3.486-.799c-.37 0-.741.025-1.109.073-1.53.198-3.082.642-4.88 1.398C4.552 3.796 2.86 5.554 1.952 7.997a11.802 11.802 0 0 0-.717 5.265c.191 2.007.674 3.563 1.52 4.894 1.221 1.922 2.76 3.188 4.704 3.869 1.18.413 2.477.62 4.083.653.945 0 1.825-.114 2.676-.225l.162-.02c1.857-.241 3.435-.912 4.823-2.049 1.341-1.1 2.302-2.453 2.855-4.02.664-1.886.892-3.609.699-5.265Zm-2.193 5.987c-1.052 2.129-2.82 3.525-5.257 4.15-.293.076-.596.13-.915.187-.159.028-.325.058-.499.092-.758.114-1.781.131-2.345.131-.25 0-.411-.003-.416-.003-1.48-.018-2.755-.27-3.894-.769-1.518-.665-2.73-1.788-3.708-3.431-.59-.992-.964-2.165-1.177-3.693a11.268 11.268 0 0 1 .693-5.747C3.813 6.06 5.19 4.587 7.141 3.624c.45-.223 2.28-.76 2.762-.857a13.437 13.437 0 0 1 2.054-.248c2.73-.065 3.809.375 5.476 1.648 1.746 1.333 2.977 3.009 3.658 4.98.926 2.684.75 5.355-.526 7.939Z"></path>
</svg>