<svg width="46" height="46" fill="currentColor" viewBox="0 0 24 24" xmlns="http://www.w3.org/2000/svg">
  <path d="M5.52 12.197c.04-.857.083-1.714.118-2.57.028-.721.045-1.443.072-2.163.012-.327.034-.653.053-.979.01-.162.069-.304.234-.346.336-.088.673-.207 1.015-.226 1.228-.069 2.458-.111 3.688-.145 1.392-.039 2.785-.096 4.176-.072 1.12.02 2.239.142 3.357.234.417.034.606.288.59.678-.046 1.155-.077 2.312-.125 3.467-.07 1.714-.15 3.427-.227 5.14-.03.653-.073 1.305-.097 1.958-.024.675-.2.82-.857.827-1.446.015-2.892.06-4.338.1-.851.024-1.702.06-2.553.092-1.445.055-2.89.112-4.335.169-.095.003-.19.002-.284-.002-.5-.02-.72-.228-.71-.736a95.99 95.99 0 0 1 .093-2.571c.045-.952.102-1.903.154-2.854l-.023-.001Zm11.887 4.928c.19-1.164.52-9.538.401-10.125-.236-.02-.477-.047-.718-.062-1.08-.063-2.159-.176-3.238-.17-1.69.008-3.378.096-5.067.152-.779.026-1.556.057-2.308.084L6.25 17.48l11.157-.355Z"></path>
</svg>