<svg width="46" height="46" fill="currentColor" viewBox="0 0 24 24" xmlns="http://www.w3.org/2000/svg">
  <path d="M11.944 16.349c-1.909 1.394-3.776 2.755-5.639 4.121-.137.1-.241.244-.373.353-.305.25-.593.15-.663-.24a1.092 1.092 0 0 1 .022-.469c.195-.699.38-1.402.616-2.087.448-1.297.928-2.584 1.396-3.875.048-.134.101-.267.143-.376a84.542 84.542 0 0 1-3.76-3.675 2.517 2.517 0 0 1-.41-.576c-.138-.265-.042-.442.25-.48.287-.04.577-.06.868-.06 1.108.007 2.216.031 3.325.038.434.002.869-.026 1.326-.041.211-.528.418-1.04.62-1.554.534-1.35 1.066-2.703 1.597-4.055.018-.05.04-.098.064-.144.154-.282.442-.308.634-.047.08.12.146.25.196.388.417 1.028.815 2.064 1.252 3.084.255.593.57 1.16.866 1.753.127 0 .23.002.334 0 1.293-.03 2.585-.067 3.878-.087.619-.01 1.238.018 1.857.02.202 0 .37.05.46.242a.454.454 0 0 1-.118.544c-.407.396-.813.794-1.237 1.17-1.127 1-2.264 1.988-3.396 2.982-.107.094-.207.196-.307.29.011.062.027.122.048.181.861 1.856 1.395 3.814 1.803 5.811a8 8 0 0 1 .162.855c.041.46-.113.525-.554.596-.618.1-.993-.226-1.385-.586-1.023-.938-2.046-1.876-2.94-2.944-.304-.364-.604-.732-.935-1.133Zm-5.294 2.81.056.052c.074-.052.15-.102.222-.158l4.567-3.55c.378-.294.588-.29.946.022.24.207.467.43.678.666.982 1.114 2.088 2.098 3.177 3.1.044.04.096.073.183.139-.013-.1-.015-.15-.027-.198-.447-1.725-.9-3.449-1.541-5.115-.171-.443-.126-.788.255-1.128 1.262-1.126 2.497-2.282 3.742-3.427l.365-.338c-.224 0-.355-.002-.486 0-1.425.02-2.851.019-4.276.069-.614.021-.999-.239-1.264-.753a.614.614 0 0 1-.017-.036c-.253-.595-.523-1.183-.755-1.786-.243-.628-.448-1.27-.673-1.906-.043-.12-.1-.236-.18-.42-.168.416-.323.76-.446 1.117a199.113 199.113 0 0 0-1.132 3.382c-.236.73-.77 1.04-1.468.991-1.04-.071-2.082-.113-3.123-.16-.285-.013-.571-.002-.907-.002.357.322.69.618 1.016.921.872.807 1.745 1.614 2.608 2.43.138.142.251.306.335.485.118.233.078.42-.142.547-.162.092-.21.222-.26.372-.265.802-.54 1.601-.791 2.408-.235.755-.443 1.517-.663 2.276Z"></path>
</svg>