<svg width="46" height="46" fill="currentColor" viewBox="0 0 24 24" xmlns="http://www.w3.org/2000/svg">
  <path d="M19.824 19.155c-.07.16-.14.32-.213.48a1.223 1.223 0 0 1-1.01.753 2.804 2.804 0 0 1-1.57-.234c-.572-.27-.813-.694-.772-1.325a1.863 1.863 0 0 1 1.313-1.669c.078-.024.152-.058.257-.098-.017-.903.11-1.812-.083-2.708a1.852 1.852 0 0 0-.36-.719c-.184-.235-.458-.265-.7-.088a2.27 2.27 0 0 0-.54.553c-.435.652-.663 1.384-.768 2.156-.114.844-.202 1.691-.332 2.533-.306 1.98-2.376 3.02-4.165 2.1-.873-.447-1.266-1.215-1.283-2.152-.016-.85.054-1.701.112-2.55.042-.617.126-1.23.188-1.845.006-.097.006-.194.002-.29-.752-.271-1.49-.492-2.19-.797-1.931-.839-3.016-2.36-3.41-4.396a5.876 5.876 0 0 1 .176-2.976c.44-1.341 1.369-2.224 2.701-2.681.118-.038.24-.063.362-.076.192-.023.356-.049.489-.24.164-.235.399-.2.573.038a.811.811 0 0 1 .024.821c-.187.284-.407.28-.75-.016-1.134.15-2.554 1.368-2.81 2.953-.155.954-.16 1.907.167 2.811.476 1.312 1.305 2.352 2.635 2.903.52.215 1.064.368 1.586.578.873.352 1.725.175 2.448-.284 1.452-.923 2.704-2.09 3.495-3.65.643-1.27.654-2.566-.068-3.828-.496-.866-1.278-1.335-2.22-1.576-.162-.04-.285-.02-.395.129-.122.164-.298.248-.508.162-.196-.081-.284-.248-.317-.45-.08-.491.03-.706.431-.77.12-.02.257.036.38.075.137.044.264.141.402.158 1.332.165 2.348.823 3.025 1.972.874 1.486.808 3.015.115 4.544-.427.942-1.085 1.719-1.836 2.414a40.389 40.389 0 0 1-1.747 1.508 2.292 2.292 0 0 1-1.444.528c-.135.01-.27.025-.402.048a.584.584 0 0 0-.045.133c-.057 1.043-.126 2.086-.161 3.13-.018.507 0 1.016.052 1.521.117 1.08.847 1.623 1.92 1.468.92-.133 1.379-.54 1.543-1.46.117-.648.17-1.307.245-1.962.13-1.14.348-2.253.992-3.238.311-.477.701-.844 1.26-1.002.487-.139.923-.02 1.317.283.629.484.834 1.17.901 1.916.084.814.03 1.636-.16 2.432.057.038.116.072.178.101.483.19.8.52.907 1.038.007.036.042.066.064.1v.74Zm-1.538.445c.417-.047.586-.176.687-.56.096-.363-.045-.796-.324-.992-.366-.257-.74-.297-1.027-.081a1.122 1.122 0 0 0-.443 1.045.484.484 0 0 0 .254.33c.271.116.567.175.853.257Z"></path>
  <path d="M18.606 18.699a.455.455 0 0 1-.445.448.503.503 0 0 1-.505-.488.432.432 0 0 1 .444-.442.487.487 0 0 1 .467.292.48.48 0 0 1 .04.19Z"></path>
</svg>