<svg width="46" height="46" fill="currentColor" viewBox="0 0 24 24" xmlns="http://www.w3.org/2000/svg">
  <path d="M10.13 6.348c.02-.395.042-.785.066-1.235-.211 0-.397.007-.583-.002-.294-.014-.403-.094-.418-.287-.015-.204.114-.333.396-.373a4.13 4.13 0 0 1 .448-.032c1.116-.038 2.232-.075 3.348-.11a.833.833 0 0 1 .201.016c.24.052.375.206.373.415a.421.421 0 0 1-.376.416c-.185.031-.376.03-.592.046v1.083c1.188.117 2.19.678 3.202 1.352.244-.199.504-.39.74-.606.687-.624 1.066-.58 1.567.117.129.158.268.307.417.446.386.402.395.714.017 1.132-.254.28-.524.547-.794.828.178.322.358.637.528.957.971 1.826.832 4.542-.74 6.31-1.308 1.473-2.915 2.362-4.84 2.722-1.825.341-3.575.074-5.265-.653-1.177-.506-1.986-1.402-2.43-2.563-.894-2.337-.746-4.637.444-6.856.456-.85 1.168-1.456 1.95-1.984.452-.3.923-.573 1.409-.815.285-.145.608-.215.932-.324ZM6.054 13.42c-.001.74.117 1.476.35 2.18.417 1.226 1.184 2.117 2.452 2.523 2.847.911 5.437.47 7.68-1.537 1.67-1.492 2.011-3.703.918-5.647-.874-1.555-2.193-2.601-3.874-3.191a6.096 6.096 0 0 0-2.413-.319c-.976.061-1.848.435-2.674.923a4.493 4.493 0 0 0-1.913 2.2c-.373.894-.485 1.823-.526 2.868Zm5.02-8.241.062 1.037h.905l.156-1.037h-1.123ZM18.41 8.15l-.627-.695-.758.8.506.557.879-.662Z"></path>
  <path d="M12.346 12.66c.556.015 1.085.026 1.613.044.162 0 .325.018.483.052a.42.42 0 0 1 .342.405.449.449 0 0 1-.347.449 1.375 1.375 0 0 1-.441.06c-.735-.037-1.468-.086-2.202-.13-.323-.02-.48-.149-.515-.46a2.082 2.082 0 0 1 .011-.445c.093-.901.188-1.803.287-2.703.018-.148.045-.294.081-.438.043-.176.15-.289.342-.293.215-.005.324.124.36.316a2.2 2.2 0 0 1 .048.443c-.016.784-.04 1.568-.062 2.353-.002.094 0 .188 0 .347Z"></path>
</svg>