<svg width="46" height="46" fill="currentColor" viewBox="0 0 24 24" xmlns="http://www.w3.org/2000/svg">
  <path d="M22.628 12.705a47.543 47.543 0 0 0-.157-4.4c-.16-1.842-1.185-2.856-2.96-2.935-.755-.033-1.523-.008-2.265.016-.338.01-.687.022-1.03.028-.111.002-.221.001-.317 0h-.05c-.04-.11-.076-.218-.113-.324a22.918 22.918 0 0 0-.267-.747l-.01-.037a.924.924 0 0 0-.26-.44c-.233-.27-.556-.403-.966-.392-.555.014-1.12.025-1.668.034-.837.016-1.704.031-2.555.063-.458.017-.708.097-.87.3a.68.68 0 0 0-.253.264c-.203.433-.32.9-.343 1.378h-.76c-.242.002-.484.002-.725.002-.589 0-1.198 0-1.796.02-.73.027-1.447.19-2.116.482-.942.405-1.412 1.07-1.439 2.032-.018.654-.043 1.32-.068 1.962-.02.558-.043 1.134-.06 1.7-.01.306-.01.616-.01.916a18.119 18.119 0 0 1-.05 1.603c-.123 1.342-.102 2.418.067 3.388.153.876.563 1.584 1.185 2.048a3.41 3.41 0 0 0 1.968.7l1.118.035c.925.03 1.882.06 2.824.068a709.462 709.462 0 0 0 8.09.019 42.33 42.33 0 0 0 2.969-.127c1.386-.103 2.328-.865 2.723-2.204.135-.448.206-.913.213-1.381a76.51 76.51 0 0 0-.024-2.041 73.732 73.732 0 0 1-.025-2.03Zm-1.162 2.166.023 1.943a3.073 3.073 0 0 1-.344 1.45c-.21.413-.522.658-.928.728-.446.09-.899.143-1.354.16-1.608.011-3.245.01-4.827.008a3268.03 3268.03 0 0 0-3.467 0c-1.41 0-2.869.002-4.303-.006a15.24 15.24 0 0 1-1.612-.098c-.995-.112-1.701-.806-1.89-1.856-.21-1.167-.185-2.364-.162-3.521a89.29 89.29 0 0 1 .033-1.632c.212.042.428.068.645.077.517.018 1.042.016 1.55.015.243 0 .485-.002.727 0 .094 0 .187.006.295.012l.088.005v.284c-.002.254-.003.494.002.734.01.513.223.758.71.818.46.05.923.073 1.386.07h.016c.892 0 1.228-.344 1.24-1.262v-.642h5.951v.057c0 .1-.001.19.002.282.005.167.01.307.024.451.055.544.293.775.824.799.423.018.877.015 1.348-.01.46-.025.738-.284.805-.75a7.74 7.74 0 0 0 .055-.627l.016-.25h.663c.654 0 1.294 0 1.934-.002.172 0 .345-.008.517-.024l.033 2.787ZM10.774 4.57c.547-.02 1.103-.027 1.648-.033.577.014 1.17.028 1.754.038a.68.68 0 0 1 .145.015.4.4 0 0 1 .102.215c.037.16.085.318.144.471.01.07.023.138.036.207h-4.96c.201-.878.214-.879 1.131-.912Zm6.45 7.586-.01.076a2.68 2.68 0 0 1-.06.378.217.217 0 0 1-.109.118c-.24.026-.48.037-.736.05a27.93 27.93 0 0 0-.206.01l-.071-.632h1.191Zm-9.082.009v.758H6.914l-.1-.719c.259-.094.885-.113 1.329-.039Zm13.181-1.26a26.491 26.491 0 0 1-1.417.058c-1.424.02-2.848.037-4.272.053a4848.426 4848.426 0 0 0-11.125.147l-1.85.026c.02-.591.044-1.18.067-1.76l.035-.91c.044-1.156.255-1.426 1.33-1.7a8.64 8.64 0 0 1 2.024-.274c1.419-.017 2.86-.015 4.256-.012 1.136.001 2.311.003 3.467-.005.657-.005 1.324-.035 1.969-.064.513-.023 1.043-.047 1.565-.058.715-.015 1.454-.03 2.18.045 1.062.11 1.552.605 1.689 1.708.083.602.136 1.208.156 1.815l.017.927c-.03 0-.06.003-.09.005Z"></path>
</svg>