<svg width="46" height="46" fill="currentColor" viewBox="0 0 24 24" xmlns="http://www.w3.org/2000/svg">
  <path d="m16.603 12.238-.005-.01a.75.75 0 0 0-.148-.173 1.085 1.085 0 0 1-.1-.105.305.305 0 0 1-.018-.4c.15-.228.235-.398.192-.536-.042-.138-.197-.225-.45-.33-.201-.084-.3-.157-.328-.246-.03-.089.005-.205.115-.39.088-.15.108-.291.056-.408-.051-.117-.167-.196-.335-.23a4.338 4.338 0 0 0-.232-.037 2.654 2.654 0 0 1-.36-.07.33.33 0 0 1-.263-.387c.027-.294.038-.452-.044-.544-.085-.094-.244-.1-.569-.103-.434-.004-.688-.162-.821-.51-.086-.224-.177-.337-.295-.367-.12-.031-.262.03-.457.198-.265.228-.346.222-.58-.04-.154-.17-.25-.255-.348-.242-.095.013-.165.117-.26.304-.118.235-.22.328-.487.218-.151-.061-.272-.07-.37-.027-.098.044-.171.139-.229.296-.164.452-.246.511-.726.507-.171 0-.388.039-.498.152-.17.174-.042.351.06.494l.045.063a.217.217 0 0 1 .005.04l.005.058-.082.048a1.525 1.525 0 0 1-.274.14 1.314 1.314 0 0 1-.27.052c-.054.006-.11.013-.164.024-.17.032-.278.093-.33.186-.052.096-.046.222.02.395.13.337.102.418-.21.614-.024.015-.048.03-.072.043a1.196 1.196 0 0 0-.138.088c-.13.101-.2.214-.2.325a.362.362 0 0 0 .159.28c.194.157.15.296.06.49a.925.925 0 0 1-.096.152 1.384 1.384 0 0 0-.08.117c-.096.165-.125.296-.092.412.033.117.13.214.301.304l.119.064.041.023c-.011.062-.026.125-.04.187-.067.292-.137.595.082.882l.01.014.018.002c.558.06.675.208.629.791l-.003.029a.53.53 0 0 0-.005.056.4.4 0 0 0 .123.332.385.385 0 0 0 .34.048c.43-.101.527-.063.745.297.226.372.283.412.65.204.233-.13.43-.11.621.064.117.11.225.23.326.355.122.145.209.204.3.204h.001c.092 0 .18-.062.3-.212.226-.278.458-.35.776-.238.122.048.24.107.352.177l.073.042c.2.115.353.141.468.082.112-.057.178-.19.203-.407.024-.21.064-.424.258-.552l.025.001a.12.12 0 0 1 .039.005c.248.117.405.17.52.112.112-.058.162-.21.214-.471.034-.175.095-.288.184-.344.092-.059.225-.065.407-.019.189.048.34.024.425-.069.055-.06.107-.175.04-.384-.141-.435.03-.699.351-.983.213-.188.35-.478.444-.71.048-.115-.047-.288-.123-.427Zm-7.58-1.891a1.25 1.25 0 0 0 .397-.197c.18-.15.32-.342.405-.56l.01-.025c.06-.163.096-.261.279-.306.233-.059.387-.229.536-.394.052-.057.105-.116.16-.169.113-.106.278-.157.452-.21.1-.029.196-.063.291-.104a.465.465 0 0 0 .155-.146l.052-.063c.346.221.663.258.993.115.295.464.776.6 1.216.668.058.543.362.9.927 1.088.003.406.07.856.503 1.156a.167.167 0 0 1 .053.129c-.17.66.17 1.146.504 1.501-.513.261-.775.675-.78 1.23a1.219 1.219 0 0 0-.964.776c-.483.016-.81.3-.995.867-.542-.141-1.107-.197-1.586.276-.26-.284-.566-.558-.975-.558a1.07 1.07 0 0 0-.41.085c-.206-.32-.498-.678-.945-.716l-.66-1.087a1.02 1.02 0 0 0-.274-1.163v-.296c-.001-.271-.002-.527.004-.779a.476.476 0 0 1 .071-.195c.108-.2.219-.397.345-.622l.152-.271a.784.784 0 0 1 .084-.03Z"></path>
  <path d="M12.096 14.675h.047c.99 0 1.701-.463 2.116-1.377.336-.74.292-1.495.216-2.07a1.667 1.667 0 0 0-.983-1.36 4.292 4.292 0 0 0-.825-.257 9.73 9.73 0 0 1-.373-.094l-.04-.011-.022.084h-.046c-.057 0-.113-.002-.169 0-1.416.06-2.573.964-2.878 2.249-.169.71-.055 1.276.35 1.728.652.73 1.505 1.093 2.607 1.108Zm-2.2-2.408c.042-.706.403-1.26 1.044-1.602.357-.19.769-.371 1.221-.371.143 0 .285.018.423.054.71.188 1.171.782 1.235 1.59a2.3 2.3 0 0 1-.426 1.515c-.288.418-.705.61-1.394.638-.114-.022-.23-.042-.344-.062a5.645 5.645 0 0 1-.753-.166c-.757-.24-1.058-.718-1.006-1.595Z"></path>
</svg>