<svg width="46" height="46" fill="currentColor" viewBox="0 0 24 24" xmlns="http://www.w3.org/2000/svg">
  <path d="M12.782 9.576a4.802 4.802 0 0 0-.63-.124 10.351 10.351 0 0 1-.288-.046h-.008c-1.397.023-2.485.972-2.647 2.309-.139 1.146.352 2.015 1.345 2.383.455.173.938.264 1.425.267.17 0 .34-.012.51-.036.642-.092 1.13-.404 1.448-.926.18-.29.318-.603.412-.93.354-1.287-.32-2.533-1.567-2.897Zm.495 3.612c-.307.412-.753.603-1.364.583l-.263-.036a7.05 7.05 0 0 1-.571-.09c-.883-.185-1.23-.67-1.203-1.673.017-.595.24-1.09.643-1.431.46-.388 1.136-.565 1.812-.473.796.109 1.318.704 1.396 1.593a2.18 2.18 0 0 1-.45 1.527Z"></path>
  <path d="M8.732 14.529c-.067-.06-.264-.006-.336.058-.456.407-.926.843-1.399 1.296a.818.818 0 0 0-.152.23l-.031.06-.005.008-.001.01c-.015.178.016.296.092.361a.25.25 0 0 0 .167.054.54.54 0 0 0 .128-.018.427.427 0 0 0 .202-.09c.505-.504.95-.956 1.363-1.384a.356.356 0 0 0 .1-.25c-.011-.11-.042-.258-.128-.335Z"></path>
  <path d="M12.042 15.318a.228.228 0 0 0-.197-.027c-.113.032-.223.2-.24.318a9.76 9.76 0 0 0-.063.758l-.018.29-.001.04.022.002-.003.183c-.007.17-.004.338.008.507a.514.514 0 0 0 .168.368.31.31 0 0 0 .245.065c.227-.032.34-.19.327-.458a58.06 58.06 0 0 0-.116-1.771.362.362 0 0 0-.132-.275Z"></path>
  <path d="M15.775 15.466a68.634 68.634 0 0 0-.94-1.027.448.448 0 0 0-.174-.1.37.37 0 0 1-.05-.02l-.01-.005h-.01a.33.33 0 0 0-.292.177.342.342 0 0 0 .044.35c.235.33.495.65.747.959.084.102.168.205.25.308a.27.27 0 0 0 .159.107l.08.009c.057.008.113.013.17.014a.205.205 0 0 0 .155-.049c.07-.077.075-.2.08-.32l.007-.102a.19.19 0 0 0-.066-.135l-.15-.166Z"></path>
  <path d="M8.067 12.172a.297.297 0 0 0 .058-.232c-.031-.268-.267-.265-.437-.263h-.013c-.176.002-.35.015-.553.03l-.295.02-.218-.003a6.05 6.05 0 0 0-.714.015c-.127.012-.324.154-.345.277a.199.199 0 0 0 .033.163c.065.083.195.098.312.106.099.007.198.017.297.027.167.016.34.034.51.035h.049c.29 0 .61-.014 1.002-.045a.436.436 0 0 0 .314-.13Z"></path>
  <path d="M11.6 6.525c.002.345.008.695.014 1.034l.007.366-.003.047a.21.21 0 0 0 .018.133l.055.091c.067.114.137.233.241.265.03.01.06.014.09.014a.24.24 0 0 0 .121-.032c.112-.064.165-.206.19-.314.024-.12.038-.243.043-.366l.008-.13.052-.016-.008-.037a28.46 28.46 0 0 1-.067-.32 9.792 9.792 0 0 0-.2-.849.454.454 0 0 0-.348-.268.21.21 0 0 0-.152.053c-.068.068-.064.181-.062.28l.001.05Z"></path>
  <path d="M14.526 9.513a.711.711 0 0 0 .549-.257c.324-.34.641-.699.948-1.045l.213-.24a.573.573 0 0 0 .134-.22c.013-.045.035-.218-.039-.256a.415.415 0 0 0-.276-.01.323.323 0 0 0-.14.104 1.527 1.527 0 0 0-1.507 1.633 3.784 3.784 0 0 1-.115.208l-.03.05.057.01c.068.015.137.022.206.023Z"></path>
  <path d="M18.255 11.691a1.377 1.377 0 0 0-.345-.05c-.407.012-.821.036-1.22.058l-.437.025h-.03a.16.16 0 0 0-.113.025c-.021.02-.046.038-.07.058-.086.069-.175.14-.189.23a.196.196 0 0 0 .04.166.342.342 0 0 0 .267.087h.01c.16-.002.319-.002.478-.002.361-.001.734-.002 1.1-.023.255-.015.54-.084.728-.476l.022-.048-.052-.01a4.174 4.174 0 0 1-.19-.04Z"></path>
  <path d="m9.21 9.883.046.027.014-.052c.104-.404.099-.506-.188-.768a23.981 23.981 0 0 0-1.208-1.022.41.41 0 0 0-.24-.057.985.985 0 0 1-.106-.007l-.049-.008.002.05c0 .034-.001.07-.005.104-.007.088-.015.18.034.237.394.465.943 1.055 1.7 1.496Z"></path>
</svg>