<svg width="46" height="46" fill="currentColor" viewBox="0 0 24 24" xmlns="http://www.w3.org/2000/svg">
  <path d="M18.804 10.732a.371.371 0 0 0 .264-.226.4.4 0 0 0-.07-.378 1.653 1.653 0 0 0-.287-.278l-.012-.01c-.399-.33-.522-.717-.374-1.19.027-.087.056-.177.076-.268.04-.185.017-.337-.069-.441-.085-.104-.225-.158-.416-.158h-.004a2.724 2.724 0 0 0-.275.02c-.085.01-.171.018-.256.02-.634.01-1.149-.395-1.247-.98-.01-.054-.015-.107-.022-.161a3.35 3.35 0 0 0-.021-.16c-.038-.227-.108-.362-.22-.423-.113-.06-.27-.047-.492.047a3.801 3.801 0 0 1-.758.257 1.054 1.054 0 0 1-.812-.196.738.738 0 0 1-.309-.508c-.014-.18-.066-.295-.159-.35-.09-.054-.21-.048-.368.018a.946.946 0 0 0-.313.269c-.554.635-1.207.693-1.838.164l-.022-.02a.452.452 0 0 0-.043-.035c-.16-.113-.323-.15-.463-.103A.496.496 0 0 0 10 5.99c-.017.055-.03.11-.044.166a2.41 2.41 0 0 1-.062.221c-.134.38-.376.556-.752.55a1.559 1.559 0 0 1-.42-.088c-.065-.019-.13-.039-.196-.055l-.61-.151.007.058c.009.072.016.133.021.187.007.084.02.168.036.251.093.422-.06.739-.444.915a1.982 1.982 0 0 1-1.058.15 1.062 1.062 0 0 0-.454.036.31.31 0 0 0-.22.202.338.338 0 0 0 .094.306.832.832 0 0 0 .092.088.91.91 0 0 1 .084.08c.256.304.348.643.26.955-.088.312-.344.554-.722.683a3.566 3.566 0 0 1-.103.033 1.22 1.22 0 0 0-.286.114.395.395 0 0 0-.189.316.345.345 0 0 0 .138.301.924.924 0 0 0 .34.13l.014.003c.401.096.523.274.464.68a1.267 1.267 0 0 1-.517.854c-.279.212-.364.509-.447.795l-.017.059a.262.262 0 0 0 .046.275c.074.07.202.082.352.033a.499.499 0 0 1 .252-.029c.391.09.639.235.756.446.108.192.106.438-.005.75a3.45 3.45 0 0 1-.189.41c-.047.09-.095.185-.137.28-.102.233-.067.427.102.564.171.138.37.131.576-.02l.063-.048c.061-.05.127-.095.198-.131.213-.1.39-.122.525-.064.133.057.235.195.303.41.127.395.173.727-.015 1.061-.042.075-.02.175 0 .272.01.039.017.078.022.118l.004.043.043-.007c.036-.005.073-.01.11-.013a.957.957 0 0 0 .259-.052.534.534 0 0 0 .153-.11.597.597 0 0 1 .11-.085c.065-.034.129-.07.193-.107.187-.117.388-.213.597-.285.746-.223 1.202.009 1.477.751l.012.039a.502.502 0 0 0 .458.361.53.53 0 0 0 .353-.146c.041-.04.08-.082.114-.126l.076-.089c.46-.479.845-.523 1.42-.163.262.163.43.214.565.172.153-.049.248-.218.354-.474.14-.358.4-.658.738-.848.372-.218.726-.219 1.115-.002a.4.4 0 0 0 .383.024.508.508 0 0 0 .249-.411c.005-.054.007-.108.005-.161l.001-.085a1.09 1.09 0 0 1 .383-.865 1.122 1.122 0 0 1 .92-.254.533.533 0 0 0 .43-.11.435.435 0 0 0 .127-.348 3.323 3.323 0 0 0-.159-.831c-.152-.502-.037-.846.372-1.114.241-.159.356-.31.351-.463-.005-.152-.127-.295-.373-.436-.242-.139-.44-.275-.407-.54.037-.284.126-.589.513-.689Zm-.859 1.557c-.64.658-.761 1.355-.372 2.128-.951.105-1.548.658-1.82 1.687-.916-.038-1.602.367-2.1 1.237-.857-.65-1.697-.285-2.267.064-.464-.546-.987-.723-1.496-.723a3.366 3.366 0 0 0-1.113.225c-.043-.097-.084-.197-.124-.294a4.844 4.844 0 0 0-.355-.744c-.23-.367-.652-.41-1.07-.44.152-.992-.213-1.611-1.115-1.892.56-.691 1.015-1.526.319-2.505.661-.604.828-1.321.497-2.133.754-.14 1.527-.43 1.672-1.44.468.102.86.086 1.227-.047.464-.169.671-.551.798-.88.332.184.772.358 1.286.184.427-.134.81-.377 1.113-.704.552.986 1.32 1.066 2.371.863.199 1.073.914 1.65 2.127 1.718-.111.768.08 1.359.57 1.758-.045.098-.092.192-.137.285a5.485 5.485 0 0 0-.29.657c-.127.378.055.702.28.996Z"></path>
  <path d="M14.043 8.03a6.891 6.891 0 0 0-1.444-.287c-1.128-.13-2.468.386-3.413 1.316a4.193 4.193 0 0 0-1.038 1.613 4.149 4.149 0 0 0-.206 1.9c.156 1.354.886 2.293 2.17 2.79a7.001 7.001 0 0 0 2.701.45c.609-.01 1.119-.126 1.56-.352 1.309-.67 2.011-1.807 2.213-3.58v-.005c-.081-2.082-.865-3.267-2.543-3.844Zm1.209 4.848c-.21.547-.427.982-.799 1.324-.514.474-1.159.707-1.97.713a35.014 35.014 0 0 0-.505-.079c-.362-.055-.736-.111-1.097-.191-1.95-.432-2.35-2.038-2.074-3.397.23-1.131 1.12-2.457 2.93-2.785.161-.03.325-.045.49-.046.356-.001.707.086 1.02.254.11.06.222.113.338.158a2.755 2.755 0 0 1 1.597 1.462c.358.822.384 1.748.07 2.587Z"></path>
</svg>