<svg width="46" height="46" fill="currentColor" viewBox="0 0 24 24" xmlns="http://www.w3.org/2000/svg">
  <path d="M10.41 15.436c.68.188 1.412.263 2.102.316a3.207 3.207 0 0 0 1.764-.36c1.304-.681 2.002-1.828 2.195-3.607v-.007c-.09-2.087-.869-3.272-2.526-3.843a6.94 6.94 0 0 0-1.565-.304c-.884-.086-1.932.25-2.8.9-.984.736-1.606 1.774-1.753 2.92-.248 1.948.741 3.475 2.583 3.985ZM8.624 11.67c.106-1.915 1.574-3.023 2.914-3.422a.96.96 0 0 1 .274-.036c.289 0 .616.097.888.19a8.75 8.75 0 0 1 1.426.68c.398.229.711.58.89 1.002.594 1.357.424 2.654-.504 3.855-.47.607-1.176.909-2.16.921-.184-.033-.37-.062-.55-.091a11.788 11.788 0 0 1-1.204-.234c-1.736-.466-2.031-1.815-1.974-2.865Z"></path>
  <path d="M12.897 17.502c-.042-.133-.178-.298-.305-.323-.101-.02-.235.037-.41.172-.07.055-.091.164-.11.26l-.005.022c-.146.706-.066 1.414.043 2.075a.76.76 0 0 0 .072.202c.09.183.219.282.36.282a.324.324 0 0 0 .11-.019.629.629 0 0 0 .338-.344c.06-.161.047-.355.035-.527l-.001-.01c-.021-.31-.051-.621-.08-.922l-.034-.357c0-.054.004-.107.007-.16a.957.957 0 0 0-.02-.351Z"></path>
  <path d="M17.76 11.757c.008.235.166.362.47.38.23.013.463.025.636.033l.158.008h.002c.165 0 .316.002.456.004.122.002.236.004.347.004.155 0 .301-.004.447-.014.32-.024.522-.198.515-.446-.006-.23-.196-.381-.535-.427a.512.512 0 0 0-.088-.006l-.22.007-1.74.06c-.297.012-.456.152-.448.397Z"></path>
  <path d="M17.472 17.073a96.904 96.904 0 0 0-1.316-1.096c-.194-.16-.38-.175-.536-.047-.19.155-.133.366-.06.531.028.068.07.13.123.181l.132.122c.358.33.73.672 1.104.998.075.057.16.1.252.125.026.009.05.017.068.025l.016.004h.011c.2 0 .352-.067.428-.19a.383.383 0 0 0-.01-.39.9.9 0 0 0-.212-.263Z"></path>
  <path d="M12.023 4.311c.03.4.042.808.055 1.202v.04c.004.085 0 .172-.003.257a3.798 3.798 0 0 0-.003.268c.01.268.154.434.397.456a.542.542 0 0 0 .05.003c.215 0 .376-.136.435-.373.028-.126.044-.255.046-.385.002-.04.004-.078.007-.109v-.008c-.01-.094-.016-.18-.023-.261a3.661 3.661 0 0 0-.054-.459 6.09 6.09 0 0 0-.234-.857c-.08-.221-.265-.32-.47-.252-.235.076-.22.269-.206.438l.003.04Z"></path>
  <path d="M5.668 17.776c.074.089.206.136.382.136h.044l.009-.006c.017-.01.041-.02.068-.032a.798.798 0 0 0 .258-.16c.339-.355.685-.74 1.06-1.175.165-.193.167-.41.006-.568-.11-.108-.298-.186-.565.055-.388.35-.765.707-1.12 1.06a.782.782 0 0 0-.198.368.363.363 0 0 0 .056.322Z"></path>
  <path d="M7.186 8.488c.077.075.18.117.289.117a.187.187 0 0 0 .085-.017.475.475 0 0 0 .171-.228c.02-.039.04-.079.062-.116l.011-.019-.009-.02a2.825 2.825 0 0 1-.07-.166 1.406 1.406 0 0 0-.167-.328 38.069 38.069 0 0 0-.925-1.16l-.063-.077a.36.36 0 0 0-.49-.1.32.32 0 0 0-.157.209.363.363 0 0 0 .06.28c.364.523.757 1.055 1.203 1.625Z"></path>
  <path d="M16.633 7.492a.437.437 0 0 0 .223.05 1.52 1.52 0 0 0 .26-.028c.09-.016.17-.109.237-.198.293-.393.6-.813.91-1.247a.826.826 0 0 0 .09-.177l.022-.053.004-.016a.305.305 0 0 0-.114-.267.26.26 0 0 0-.244-.026.692.692 0 0 0-.24.176c-.299.31-.62.646-1.01 1.062a1.38 1.38 0 0 0-.179.232.475.475 0 0 0-.078.338.245.245 0 0 0 .12.154Z"></path>
  <path d="M3.58 12.539c.199.037.401.063.598.088.083.01.167.021.25.033l.043.006.004-.044h.085c.094.002.192.003.288-.001.098-.005.195-.016.29-.033.233-.042.414-.14.485-.262a.22.22 0 0 0 .02-.19c-.104-.287-.383-.28-.585-.276l-.457.01-.93.024c-.123.003-.38.011-.414.27-.027.191.094.332.324.375Z"></path>
</svg>