<svg width="46" height="46" fill="currentColor" viewBox="0 0 24 24" xmlns="http://www.w3.org/2000/svg">
  <path d="M11.716 16.876a7.502 7.502 0 0 1-2.427-.434c-1.438-.525-2.237-1.58-2.51-3.058-.16-.868-.068-1.726.162-2.57A4.276 4.276 0 0 1 8.17 8.797a1.2 1.2 0 0 0 .288-.429c.083-.215.244-.327.427-.423.71-.372 1.472-.59 2.25-.78 1.575-.384 2.971-.01 4.225.955 1.322 1.017 1.91 2.38 1.773 4.041-.082.988-.34 1.918-.987 2.706-.848 1.03-1.946 1.635-3.241 1.886-.39.075-.791.083-1.188.122Zm-3.85-4.528c.019.265.025.472.047.677.128 1.158.706 1.971 1.835 2.345a6.01 6.01 0 0 0 3.051.216c.899-.172 1.687-.592 2.282-1.304.784-.937.86-2.049.712-3.197a2.595 2.595 0 0 0-.512-1.203c-1.223-1.659-3.147-2.025-4.865-1.376-1.294.489-2.233 1.447-2.46 2.916-.05.325-.064.656-.09.926Z"></path>
  <path d="M12.275 19.785c-.006.046-.012.1-.022.154-.063.34-.255.536-.526.54-.285.004-.498-.21-.538-.568-.006-.137 0-.274.017-.41.028-.424.052-.85.09-1.274.007-.137.04-.27.096-.396a.36.36 0 0 1 .636-.01.7.7 0 0 1 .09.272c.058.56.106 1.122.157 1.692Z"></path>
  <path d="M6.829 7.463c-.077-.044-.242-.1-.352-.21-.347-.35-.682-.711-1.004-1.085-.165-.192-.16-.414-.032-.564a.415.415 0 0 1 .56-.07c.468.285.903.619 1.242 1.058a.9.9 0 0 1 .152.333c.074.309-.173.578-.566.538Z"></path>
  <path d="M17.939 17.863c-.012.427-.302.658-.627.553a1.015 1.015 0 0 1-.43-.295c-.233-.27-.438-.563-.647-.853a.971.971 0 0 1-.144-.293c-.058-.199-.026-.388.152-.517a.452.452 0 0 1 .542-.01c.091.061.174.134.246.217.24.265.482.529.703.81.082.121.15.251.205.388Z"></path>
  <path d="M18.213 5.355c.385.01.563.33.394.63a1.64 1.64 0 0 1-.355.393c-.328.29-.665.57-1.002.852-.083.07-.172.169-.267.181a.66.66 0 0 1-.415-.064c-.132-.086-.136-.263-.065-.412a.829.829 0 0 1 .161-.235c.412-.402.824-.803 1.248-1.191.091-.067.193-.119.302-.154Z"></path>
  <path d="M11.863 5.083c.067-.426.13-.846.203-1.263a.62.62 0 0 1 .118-.26.348.348 0 0 1 .606.062c.05.113.078.234.084.357.025.369.045.738.05 1.108a1.187 1.187 0 0 1-.075.4.474.474 0 0 1-.477.322.443.443 0 0 1-.425-.329c-.04-.128-.057-.264-.084-.397Z"></path>
  <path d="M5.487 17.88c.036-.11.089-.216.156-.311.292-.329.6-.643.907-.957a.775.775 0 0 1 .208-.13.36.36 0 0 1 .423.057.376.376 0 0 1 .119.446.86.86 0 0 1-.114.218c-.23.29-.454.588-.707.858a1.27 1.27 0 0 1-.472.314c-.296.11-.554-.121-.52-.494Z"></path>
  <path d="M4.385 12.583c-.26 0-.523.015-.782-.004-.284-.02-.42-.144-.436-.349-.014-.197.127-.384.378-.415.517-.063 1.038-.098 1.557-.138.083 0 .165.012.243.037.229.058.347.193.352.394a.391.391 0 0 1-.292.403 1.969 1.969 0 0 1-.485.067c-.178.011-.357.003-.535.003v.002Z"></path>
  <path d="M19.527 11.718c.232-.021.465-.03.697-.027a.897.897 0 0 1 .455.137.362.362 0 0 1-.05.596 1.1 1.1 0 0 1-.544.13c-.465-.011-.929-.06-1.393-.097a1.725 1.725 0 0 1-.242-.044c-.178-.04-.299-.136-.297-.335a.32.32 0 0 1 .308-.328c.285-.034.573-.03.86-.04.069-.003.137 0 .206 0v.008Z"></path>
</svg>