<svg width="46" height="46" fill="currentColor" viewBox="0 0 24 24" xmlns="http://www.w3.org/2000/svg">
  <path d="M14.025 14.532c-.08.274-.194.828-.409 1.34-.3.718-.87 1.15-1.668 1.144-.805-.005-1.39-.427-1.715-1.156-.433-.971-.393-1.94.197-2.837.577-.878 2.12-1.102 2.957-.46.558.429.595 1.053.638 1.969Zm-.787-.217c.052-.576-.097-1.04-.504-1.178-.447-.152-.896-.616-1.413-.211-.596.466-.72 1.123-.67 1.902.802-.639 1.665-.66 2.587-.513Zm-1.17.61-.047-.103c-.34.157-.687.298-1.01.482-.077.043-.132.249-.097.342.22.59 1.055.896 1.553.52.263-.197.4-.56.594-.848-.29-.131-.579-.264-.87-.39a.337.337 0 0 0-.123-.003Z"></path>
  <path d="M8.34 10.384c.079-.308.1-.52.19-.7.077-.153.228-.372.353-.376.21.006.408.095.553.247.295.328.216 1.004-.144 1.26-.145.102-.434.175-.554.099-.19-.12-.292-.377-.398-.53Z"></path>
  <path d="M15.627 9.723c-.082.287-.091.484-.189.616-.095.128-.293.277-.422.258a.685.685 0 0 1-.46-.325c-.166-.354-.23-.77.06-1.083.115-.125.48-.2.585-.115.207.166.311.46.426.649Z"></path>
  <path d="M8.96 7.382c-.317.137-.632.277-.95.41-.104.037-.21.068-.317.093-.022-.136-.1-.297-.055-.404.158-.37.48-.561.87-.605a1.9 1.9 0 0 1 .73.026c.143.043.24.245.357.376-.13.069-.256.147-.391.203A.569.569 0 0 1 9 7.485l-.04-.103Z"></path>
  <path d="M16.226 7.24c-.215-.08-.38-.182-.55-.195a5.977 5.977 0 0 0-.831.034c-.119.008-.236.031-.354.048.02-.152-.007-.403.068-.438.286-.135.612-.291.91-.268.318.024.627.23.926.384.067.035.128.219.094.277-.05.085-.188.117-.263.158Z"></path>
  <path d="M2.615 9.406c-.858 3.373-.106 6.35 2.236 8.847.06.064.123.129.185.19 1.258 1.259 2.826 2.036 4.067 2.576.533.233 3.268.516 4.008.405 4.397-.656 7.291-3.136 8.299-7.286a10.61 10.61 0 0 0 .285-2.48c.005-1.968-.823-4.255-2.532-5.969a33.98 33.98 0 0 1-.52-.442c-.368-.316-.748-.643-1.146-.922-3.036-2.137-6.19-2.149-9.376-1.016-2.884 1.026-4.736 3.077-5.506 6.097ZM8.133 4.32c2.795-1.162 5.6-1.367 8.334.373.5.318 1.834 1.396 2.044 1.558l.013.01.011.012c1.067 1.131 2.29 3.2 2.262 5.327-.009.91-.132 1.815-.366 2.693-.695 2.525-2.356 4.366-5.078 5.625-2.768 1.325-6.736-.015-7.792-.712a12.33 12.33 0 0 1-3.02-2.935c-1.302-1.844-1.594-4.495-.894-6.92A7.859 7.859 0 0 1 8.133 4.32Z"></path>
</svg>