<svg width="46" height="46" fill="currentColor" viewBox="0 0 24 24" xmlns="http://www.w3.org/2000/svg">
  <path d="M18.478 14.112a2.434 2.434 0 0 0-.583-.322c-.744-.29-1.44-.341-2.127-.158a.655.655 0 0 1-.129.014l-.04.002.16-.305c.132-.25.257-.488.37-.73l.165-.353c.656-1.403 1.334-2.854 1.847-4.346.146-.426.207-.785.187-1.1-.026-.4-.22-.72-.532-.876-.318-.159-.713-.12-1.057.105a1.854 1.854 0 0 0-.483.404l-.108.143c-.346.439-.666.897-.957 1.374-.3.516-.577 1.056-.844 1.58-.128.25-.257.502-.388.752a.373.373 0 0 1-.072.084l-.01.011c-.572-.796-.947-.883-1.923-.457-.174-.472-.531-.759-1.06-.852-.514-.092-.972.044-1.398.414-.008-.01-.016-.017-.024-.025a.444.444 0 0 1-.053-.059c-.312-.458-.737-.724-1.195-.748-.448-.024-.883.186-1.229.59a5.47 5.47 0 0 0-.72 1.11c-.517 1.037-.799 2.171-1.048 3.171a7.115 7.115 0 0 0-.179 2.181c.07 1.153.558 2.161 1.449 2.998 1.09 1.023 2.372 1.54 3.818 1.54.157 0 .315-.006.476-.018.695-.053 1.498-.18 2.184-.715.312-.244.631-.487.94-.723.53-.403 1.076-.82 1.6-1.249a6.496 6.496 0 0 1 2.191-1.16 2.72 2.72 0 0 0 .755-.346 1.187 1.187 0 0 0 .51-.95 1.205 1.205 0 0 0-.493-.981ZM5.755 15.156c.021-.157.04-.315.058-.473.038-.383.096-.764.173-1.142.247-1.112.53-1.993.888-2.775.197-.435.484-.823.84-1.14.212-.188.43-.26.614-.204.186.057.328.241.4.519.035.154.06.31.075.467l.022.18c.024.173.077.357.3.406.2.043.354-.045.471-.269l.106-.209c.069-.136.14-.276.217-.409a.848.848 0 0 1 .562-.401c.252-.06.462-.033.606.078.14.107.22.296.23.546.001.153-.008.306-.027.458l-.016.152a1.026 1.026 0 0 1-.02.13c-.01.052-.018.103-.022.155a.346.346 0 0 0 .66.173c.028-.065.054-.133.078-.199.038-.113.087-.222.146-.326.101-.187.236-.354.396-.494a.411.411 0 0 1 .377-.086.402.402 0 0 1 .253.28c.057.213.093.43.105.65.006.064.011.127.018.19.004.05.002.1-.005.15a.52.52 0 0 0 .009.226c.045.13.146.284.263.319.117.034.276-.049.39-.125a.44.44 0 0 0 .134-.196 288.749 288.749 0 0 0 .554-1.1c.382-.757.776-1.54 1.175-2.304.23-.435.487-.857.77-1.26.15-.208.334-.389.543-.537.135-.1.27-.128.373-.079.105.051.168.18.173.354 0 .187-.034.372-.101.547a73.27 73.27 0 0 0-.155.43c-.2.558-.408 1.135-.654 1.684-.442.983-.906 1.977-1.356 2.937-.265.567-.53 1.134-.792 1.701a1.424 1.424 0 0 0-.162.56c-.001.138.121.309.235.388.137.094.316.05.457-.111a1.41 1.41 0 0 0 .082-.109l.067-.09c.276-.332.782-.556 1.353-.599.552-.04 1.065.099 1.37.374.152.136.224.27.21.39-.015.118-.113.224-.29.316-.107.055-.22.098-.337.128-.95.246-1.827.717-2.681 1.44-.518.437-1.076.904-1.657 1.358-.34.265-.71.506-1.068.738l-.014.009c-.363.236-.794.27-1.21.304l-.04.003c-1.768.144-3.227-.47-4.336-1.825-.557-.68-.802-1.431-.73-2.232l.004-.045h-.084Z"></path>
  <path d="M9.16 7.358a.427.427 0 0 0 .222-.069 3.6 3.6 0 0 0 .436-.319c1.066-.896 2.282-1.38 3.614-1.438.056 0 .113.006.168.019l.012.002-.103.063c-.128.078-.238.145-.342.224-.175.132-.295.31-.305.452a.196.196 0 0 0 .052.158c.152.154.378.176.62.06l.127-.062a9.39 9.39 0 0 0 1.177-.634c.219-.147.335-.32.335-.501 0-.194-.13-.383-.375-.549-.383-.258-.79-.536-1.322-.903-.116-.08-.293-.202-.456-.026-.12.132-.105.287.047.461.106.122.219.239.338.363l.126.132a.086.086 0 0 1-.009.003 2.41 2.41 0 0 1-.161.007c-1.432 0-2.757.508-4.054 1.553a2.63 2.63 0 0 0-.396.427c-.125.158-.123.332.004.467a.332.332 0 0 0 .246.11Z"></path>
</svg>