<svg width="46" height="46" fill="currentColor" viewBox="0 0 24 24" xmlns="http://www.w3.org/2000/svg">
  <path d="M5.928 16.248c.127.054.26.095.39.136l.12.038c.744.232 1.439.6 2.05 1.083.994.796 2 1.545 2.852 2.173.238.173.507.298.793.368.538.135 1.09.205 1.644.21a5.29 5.29 0 0 0 3.278-1.118c1.308-.988 1.97-2.25 1.966-3.75 0-.592-.06-1.183-.178-1.764a14.525 14.525 0 0 0-1.065-3.296c-.258-.545-.558-.963-.916-1.278a1.44 1.44 0 0 0-1.128-.361 1.46 1.46 0 0 0-1.026.626l-.095.14-.03.045c-.443-.358-.893-.495-1.374-.42-.466.073-.671.225-1.13.847-.962-.5-1.45-.19-1.903.485l-.216-.413c-.177-.34-.344-.66-.524-.977A59.414 59.414 0 0 0 8.183 6.89a2.646 2.646 0 0 0-1.005-.928c-.453-.241-.853-.16-1.188.241a1.162 1.162 0 0 0-.243 1.082c.07.265.166.527.258.78.047.13.095.26.139.39.52 1.538 1.247 3.013 1.949 4.439l.116.236c.06.12.114.24.176.38l.066.145-.064-.011a7.42 7.42 0 0 1-.215-.04 3.478 3.478 0 0 0-2.31.328c-.54.27-.789.641-.761 1.132.032.567.31.965.827 1.183Zm2.96-1.31c.197.215.376.272.55.175.18-.1.25-.276.202-.507a1.816 1.816 0 0 0-.14-.396c-.21-.45-.423-.901-.637-1.351a134.45 134.45 0 0 1-1.299-2.794 36.976 36.976 0 0 1-.81-2.027l-.233-.616a1.115 1.115 0 0 1-.1-.5.664.664 0 0 1 .22-.414c.04-.03.235.02.35.106.197.141.37.313.513.51.281.404.539.825.77 1.26.392.75.78 1.518 1.154 2.262l.547 1.08.013.025c.042.096.098.184.166.263a.358.358 0 0 0 .637-.171.798.798 0 0 0 .01-.222.857.857 0 0 1-.001-.152c.007-.073.012-.147.017-.22.007-.21.036-.42.086-.623a.4.4 0 0 1 .705-.2c.134.14.247.297.335.469l.075.126c.038.07.068.143.09.22.013.04.026.08.041.118.082.21.238.293.44.236.181-.051.267-.193.24-.398a6.904 6.904 0 0 0-.037-.248c-.013-.08-.027-.16-.037-.24a1.717 1.717 0 0 1-.014-.282l.002-.043c.01-.261.019-.508.292-.621.343-.143.668-.091.916.144.122.128.226.271.31.426l.082.134c.027.046.05.095.07.145a.652.652 0 0 0 .13.222c.097.095.267.18.384.154.117-.025.238-.172.285-.3.032-.1.05-.206.054-.312.005-.06.01-.123.02-.181.019-.134.051-.264.098-.39.085-.213.225-.352.393-.392a.52.52 0 0 1 .463.145c.27.237.602.555.784.921.72 1.45 1.137 2.93 1.238 4.4.005.072.004.148.003.22l-.002.106v.002c.094 2.32-2.395 3.96-4.15 4.068-1.343.084-2.448-.285-3.378-1.126a32.705 32.705 0 0 0-1.978-1.625A6.166 6.166 0 0 0 6.7 15.472l-.019-.005a3.021 3.021 0 0 1-.553-.2c-.163-.084-.258-.194-.27-.31-.011-.113.053-.228.185-.335.185-.152.399-.264.63-.328a2.93 2.93 0 0 1 .722-.1c.366-.005.726.098 1.033.297.144.105.275.228.389.367l.072.08Z"></path>
  <path d="M10.543 5.532a5.94 5.94 0 0 1 3.603 1.363l.116.096c.109.09.22.183.339.263a.555.555 0 0 0 .302.112.327.327 0 0 0 .239-.107c.217-.22.031-.457-.03-.535a2.053 2.053 0 0 0-.287-.306c-.952-.808-2.005-1.319-3.128-1.516a9.406 9.406 0 0 0-.826-.096c-.105-.01-.21-.018-.317-.029l.11-.116c.123-.132.24-.257.352-.386.13-.15.142-.306.032-.428-.165-.184-.347-.058-.456.017-.447.309-.886.61-1.322.904-.248.166-.38.358-.38.553 0 .18.114.351.33.496.36.23.737.434 1.127.61l.177.086a.85.85 0 0 0 .423.046.274.274 0 0 0 .23-.124.262.262 0 0 0-.014-.25 1.181 1.181 0 0 0-.295-.356 2.475 2.475 0 0 0-.327-.215l-.109-.064.01-.002a.453.453 0 0 1 .1-.016Z"></path>
</svg>