<svg width="46" height="46" fill="currentColor" viewBox="0 0 24 24" xmlns="http://www.w3.org/2000/svg">
  <path d="M16.19 3.301a.08.08 0 0 0-.012.103c.921 1.435 2.155 2.696 3.876 3.96l-.722.006a43.62 43.62 0 0 1-1.807-.01c-4.173-.13-8.565.044-13.822.546a6.027 6.027 0 0 0-.615.082c-.252.05-.405.23-.384.448.023.219.163.353.396.38.047.004.093.01.14.016.145.02.291.033.438.035.86-.006 1.74-.017 2.613-.033 3.314-.064 6.264-.122 9.017-.179.667-.014 1.334-.03 2.002-.048l1.505-.037c.19-.004.381-.003.584-.002h.164l-.002.004-.122.206-.531.903a602.523 602.523 0 0 0-1.933 3.31c-.094.164-.145.35-.15.539a.475.475 0 0 0 .245.432.497.497 0 0 0 .52-.045c.108-.078.2-.174.272-.283.174-.249.352-.516.543-.816.206-.324.41-.65.614-.974.718-1.149 1.461-2.336 2.31-3.424a6.14 6.14 0 0 0 .355-.507.915.915 0 0 0 .155-.482.774.774 0 0 0-.284-.576 4.294 4.294 0 0 0-.47-.356 8.23 8.23 0 0 1-.224-.157 92.474 92.474 0 0 0-.519-.378 67.23 67.23 0 0 1-1.314-.973 8.254 8.254 0 0 1-.474-.402c-.157-.14-.319-.285-.49-.415-.428-.328-.88-.631-1.27-.89-.095-.063-.346-.23-.604.017Z"></path>
  <path d="m6.962 11.686.052-.044c.108-.09.272-.228.146-.493a.081.081 0 0 0-.057-.045.75.75 0 0 1-.068-.017.941.941 0 0 0-.202-.037 1.38 1.38 0 0 0-.961.336l-.013.01c-.406.345-.826.702-1.179 1.11l-.427.502c-.505.597-1.027 1.215-1.615 1.753a1.8 1.8 0 0 0-.3.36c-.226.356-.177.707.14 1.014l.133.127c.263.254.536.515.785.788.315.345.631.699.936 1.042.361.405.734.823 1.108 1.228.367.397.766.773 1.151 1.138l.042.04c.135.123.29.227.456.306.165.08.338.018.45-.162.133-.212-.032-.363-.093-.42a12.46 12.46 0 0 0-.13-.118 4.617 4.617 0 0 1-.444-.437C6.04 18.68 5.2 17.67 4.387 16.694l-.28-.338a.244.244 0 0 1-.033-.059l.55.03 1.394.077c.385.02.77.043 1.156.066.889.051 1.808.104 2.714.136 1.469.052 2.938.077 4.569.102 2.165.034 3.928.051 5.548.055.282-.006.559-.071.812-.193a.434.434 0 0 0 .264-.387.469.469 0 0 0-.177-.356 1.223 1.223 0 0 0-.578-.272 8.405 8.405 0 0 0-1.15-.07c-1.62-.01-3.241-.02-4.862-.028-1.643-.008-3.285-.018-4.928-.028-1.07-.008-2.158-.021-3.211-.034l-1.602-.02H4.14a18.088 18.088 0 0 0 2.36-3.208c.106-.183.287-.335.462-.481Z"></path>
</svg>