<svg width="46" height="46" fill="currentColor" viewBox="0 0 24 24" xmlns="http://www.w3.org/2000/svg">
  <path d="M22.65 12.25c0-.22-.007-.444-.013-.655l-.061-1.961-.087-2.81-.011-.381c-.025-.797-.05-1.622-.064-2.432a.63.63 0 0 0-.329-.574 1.318 1.318 0 0 0-.532-.146 12.655 12.655 0 0 0-1.145-.025c-1.902.045-3.775.096-5.568.149-.346.01-.695.048-1.033.085l-.023.002c-.257.028-.405.184-.428.448l-.052.565c-.049.52-.1 1.059-.127 1.59a434.532 434.532 0 0 0-.165 3.475l-.072 1.578a1.25 1.25 0 0 1-.015.126c0 .007-.002.013-.003.02l-1.964.109a.85.85 0 0 0-.007-.022.293.293 0 0 1-.018-.06l-.105-2.213-.133-2.8c-.046-.938-.087-1.714-.132-2.444-.02-.336-.138-.475-.466-.554a1.853 1.853 0 0 0-.42-.05l-.502-.005c-.49-.006-.997-.012-1.495.012-.734.035-1.48.08-2.202.122-.993.058-2.021.119-3.032.158-.626.024-.933.31-1.026.956a2.377 2.377 0 0 0-.03.337c0 .36-.002.721-.004 1.082-.004.903-.008 1.837.013 2.756.016.717.048 1.445.08 2.15.037.872.077 1.773.087 2.66a199.01 199.01 0 0 1-.008 4.305l-.014 1.732c-.003.564.14.724.694.779.05.005.102.007.153.008l.094.004c.206.012.412.022.618.032.449.023.913.046 1.366.09 1.456.142 2.939.172 4.373.2a180.46 180.46 0 0 1 1.404.03 1.21 1.21 0 0 0 .17-.009.55.55 0 0 0 .386-.198.515.515 0 0 0 .082-.396c-.13-.887-.08-1.792-.034-2.668a41.8 41.8 0 0 0 .04-.86c.011-.338.027-.681.042-1.013.044-.98.09-1.99.03-2.99a.63.63 0 0 1 .02-.162l.005-.031 1.912-.085.006.028a.606.606 0 0 1 .016.099c.012.383.023.765.032 1.148.02.774.042 1.573.076 2.36.046 1.062.122 2.168.184 3.056.021.303.066.603.134.898.09.404.257.472.619.478.859.015 1.718.03 2.576.049l1.365.027.245.005c.254.005.516.011.774.007.693-.013 1.397-.03 2.078-.047l.722-.018c.1 0 .198-.005.297-.015.418-.052.54-.17.589-.574.03-.246.044-.494.042-.742.002-2.247 0-4.532-.003-6.74l-.001-.035Zm-6.838-.065a.657.657 0 0 1-.077.118 26.42 26.42 0 0 1-.386.421l-.248.268c-.245.268-.28.56-.09.762a.432.432 0 0 0 .312.142h.006c.156 0 .32-.081.474-.236.126-.126.244-.263.359-.396l.027-.031a220.29 220.29 0 0 1 .848-.99c.163-.19.232-.35.216-.502-.016-.151-.112-.29-.304-.437a316.77 316.77 0 0 0-1.434-1.094l-.314-.238c-.24-.182-.434-.191-.578-.026-.143.165-.125.39.047.59.113.125.235.242.364.35l.086.075.046.04c.076.062.145.132.208.207l-1.36.053c-.074-.732.038-6.037.145-6.833l7.365-.14.004.023c.012.065.02.131.023.197a4187.148 4187.148 0 0 1 .196 10.812c.01.525.025 1.06.039 1.576.012.454.025.907.035 1.36.005.267.004.532.002.812v.317H14.23l-.29-7.122a15.4 15.4 0 0 1 1.872-.078ZM2.569 15.97l-.002-.483a98.39 98.39 0 0 0-.043-3.11c-.025-.718-.064-1.447-.102-2.152-.067-1.257-.137-2.557-.127-3.837.003-.434.009-.868.015-1.316l.007-.556c1.096.005 2.197-.049 3.263-.1 1.363-.066 2.772-.134 4.162-.079l.119 7.08-.314.023c-.285.02-.555.04-.827.047-.347.01-.7.015-1.042.019-.298.003-.606.007-.91.014-.17 0-.34.027-.502.08a.4.4 0 0 0-.22.3c-.012.114.118.252.209.287.147.054.303.083.46.087.804.028 1.621.05 2.412.07l.31.008c.11.003.217.002.341.001H9.9l.01.116c.01.129.02.25.02.371l-.002 2.265a1573.78 1573.78 0 0 0-.001 3.245c0 .315.014.626.028.956l.016.385c-2.525.017-5.046-.152-7.417-.327v-.333l.007-.956c.005-.69.01-1.403.008-2.105Z"></path>
</svg>