<svg width="46" height="46" fill="currentColor" viewBox="0 0 24 24" xmlns="http://www.w3.org/2000/svg">
  <path d="M19.485 15.445c-.217-.05-.505-.023-.652.392-.208.589-.584 1.065-.925 1.454-.97 1.106-2.237 1.883-3.763 2.31-1.153.322-2.524.61-3.95.294-2.129-.47-3.861-1.643-5.149-3.487-.572-.82-.9-1.602-1.004-2.394a11.285 11.285 0 0 1 .182-4.044c.076-.326.178-.653.287-1.003l.05-.158c.072.137.135.252.205.367l.018.03c.135.231.285.453.45.665.23.282.56.367.822.212.207-.123.369-.416.143-.838a29.738 29.738 0 0 0-.977-1.711c-.282-.451-.634-.573-1.143-.396-.857.3-1.68.622-2.37.897a1.064 1.064 0 0 0-.486.385c-.102.16-.081.423-.004.574.104.205.328.262.6.152a62.491 62.491 0 0 1 1.633-.623c.082-.03.17-.056.26-.08-.483 1.119-.75 2.38-.815 3.85-.077 1.744.187 3.037.856 4.193 1.157 1.997 2.877 3.438 5.113 4.28a6.94 6.94 0 0 0 2.077.433c.181.01.365.015.547.015a10.834 10.834 0 0 0 3.095-.469c1.704-.502 3.061-1.32 4.15-2.502.53-.575.867-1.12 1.059-1.714.056-.155.09-.318.1-.482.01-.417-.217-.558-.41-.602Z"></path>
  <path d="M22.811 11.285c-.112-.148-.308-.212-.536-.175-.249.04-.483.201-.636.329-.258.215-.505.447-.765.692l-.01.008-.056.053c.1-.858.092-1.726-.025-2.582a7.798 7.798 0 0 0-2.348-4.614c-1.282-1.218-2.942-1.963-4.8-2.154-1.911-.197-3.827.122-5.695.95-.589.26-1.268.601-1.84 1.15a1.72 1.72 0 0 0-.362.55c-.06.139.019.422.171.492a.56.56 0 0 0 .472-.045c.091-.056.176-.12.254-.194.053-.05.11-.095.17-.137 2.355-1.54 4.867-2.063 7.467-1.554 1.592.312 2.89 1.082 3.861 2.289 1.12 1.392 1.637 3.047 1.54 4.92a9.954 9.954 0 0 1-.125 1.025l-.036.235c-.098-.11-.198-.222-.293-.337a90.28 90.28 0 0 1-.61-.749l-.013-.015a86.849 86.849 0 0 0-.437-.538 1.583 1.583 0 0 0-.214-.229c-.21-.173-.454-.185-.652-.033a.467.467 0 0 0-.13.61c.079.155.17.302.275.439.592.763 1.174 1.502 1.664 2.124.207.262.402.379.631.379.16-.007.316-.051.457-.129a8.696 8.696 0 0 0 2.358-1.756c.119-.12.216-.26.288-.412.101-.222.092-.438-.025-.592Z"></path>
</svg>