<svg width="46" height="46" fill="currentColor" viewBox="0 0 24 24" xmlns="http://www.w3.org/2000/svg">
  <path d="M9.091 21.397a1.2 1.2 0 0 1-.767-.338c-.548-.542-1.109-1.07-1.662-1.606-.72-.698-1.456-1.383-2.154-2.103-.535-.55-1.024-1.146-1.528-1.726a2.437 2.437 0 0 1-.2-.312c-.214-.34-.21-.678.027-1 .406-.555.78-1.14 1.238-1.648 1.7-1.891 3.418-3.767 5.152-5.628 1.145-1.226 2.33-2.414 3.498-3.618a6.37 6.37 0 0 1 .421-.396c.504-.433 1.116-.53 1.68-.186.525.322 1.054.667 1.491 1.094 1.467 1.43 2.897 2.898 4.333 4.36.21.217.398.455.563.71.252.382.233.623-.075.966a92.289 92.289 0 0 1-1.87 2.035c-2.289 2.397-4.599 4.774-7.023 7.036-.683.638-1.365 1.277-2.057 1.905-.264.238-.539.48-1.067.455Zm4.907-18.063-.342.359c-2.09 2.166-4.19 4.322-6.264 6.503-1.05 1.105-2.057 2.252-3.071 3.39-.326.367-.611.77-.918 1.16.079.126.166.247.26.363.451.48.895.97 1.367 1.428.838.814 1.692 1.61 2.543 2.41.587.552 1.18 1.097 1.774 1.647 3.806-3.497 7.326-7.237 10.947-10.939-.287-.316-.547-.614-.82-.9a939.63 939.63 0 0 0-3.056-3.182c-.533-.553-1.06-1.114-1.613-1.648-.232-.224-.524-.387-.807-.591Z"></path>
  <path d="M6.997 17.244c-.26.02-.408-.164-.34-.362a1.1 1.1 0 0 1 .239-.377c.764-.81 1.519-1.63 2.308-2.415a1138.46 1138.46 0 0 1 6.61-6.52c.123-.128.265-.236.423-.319a.342.342 0 0 1 .318.055c.06.067.065.233.025.326-.07.134-.163.254-.276.355-1.199 1.193-2.406 2.379-3.603 3.574-1.76 1.76-3.518 3.522-5.272 5.287-.152.152-.318.292-.432.396Z"></path>
  <path d="M11.188 14.911c-.068-.839 1-1.624 1.785-1.11.356.234.643.473.834.867.373.768-.173 1.572-.97 1.665-.69.08-1.672-.531-1.649-1.422Zm.831-.112c-.01.315.384.663.691.598a.391.391 0 0 0 .201-.125c.136-.16-.038-.874-.229-.963a.315.315 0 0 0-.12-.023c-.257-.009-.534.253-.543.513Z"></path>
  <path d="M10.34 18.701c-.672.006-1.435-.643-1.528-1.267a1.116 1.116 0 0 1 .743-1.232c.896-.316 1.754.314 2.002.994.217.598-.312 1.358-1.011 1.483-.081.015-.164.018-.205.022Zm.396-1.235c.006-.21-.376-.672-.567-.686-.241-.018-.524.213-.516.423.008.242.42.633.67.637.201.003.407-.183.413-.374Z"></path>
  <path d="M16.11 12.65a1.23 1.23 0 0 1-1.415 1.238 1.508 1.508 0 0 1-1.26-.99 1.027 1.027 0 0 1 .097-.946c.356-.595 1.415-1.067 2.103-.302.354.393.47.556.474 1Zm-.819-.119c.002-.397-.128-.622-.362-.622-.347 0-.741.318-.734.592.007.245.354.547.634.552.262.005.46-.22.462-.522Z"></path>
  <path d="M17.309 11.26a1.85 1.85 0 0 1-1.165-.559c-.362-.362-.41-.838-.157-1.284.265-.465.963-.816 1.465-.736.542.086 1.135.623 1.25 1.132.177.771-.418 1.449-1.393 1.446Zm-.002-.765c.396-.012.544-.24.444-.541-.105-.315-.379-.454-.63-.617-.15-.099-.275-.06-.405.052-.349.299-.336.67.062.903.17.084.346.152.529.203Z"></path>
  <path d="M15.103 6.977c.017.313-.152.56-.39.76-.378.318-.811.473-1.298.304-.522-.182-.898-.535-1.034-1.082a.999.999 0 0 1 .242-.92c.27-.318.653-.518 1.068-.557.15-.015.3.004.442.054.428.152.975.97.97 1.441Zm-1.306.306c.298.001.548-.23.54-.498-.011-.323-.209-.62-.42-.631-.3-.017-.782.323-.786.555-.005.224.4.573.666.574Z"></path>
  <path d="M11.285 10.423c-.697.008-1.31-.556-1.296-1.223.015-.72.68-1.185 1.448-1.253.557-.049 1.101.726 1.15 1.361.045.568-.602 1.107-1.302 1.115Zm.232-1.827a.832.832 0 0 0-.646.271c-.22.227-.148.566.156.649a.787.787 0 0 0 .498-.07c.16-.075.191-.253.131-.43l-.139-.42Z"></path>
  <path d="M8.964 13.17c-.551-.006-1.145-.445-1.314-.962a.95.95 0 0 1 .19-.96 1.346 1.346 0 0 1 1.164-.502c.582.035 1.211.731 1.194 1.314-.02.651-.538 1.117-1.234 1.11Zm.499-1.32c.005-.306-.13-.436-.457-.438-.354-.003-.68.229-.67.477.008.222.36.533.604.536.291.002.517-.246.523-.574Z"></path>
  <path d="M7.603 14.376c-.007.658-.646 1.103-1.31.894a1.406 1.406 0 0 1-.937-.911.922.922 0 0 1 .597-1.186 1.258 1.258 0 0 1 1.65 1.203Zm-.794-.11c.006-.23-.223-.553-.39-.553-.23 0-.416.137-.417.308-.001.217.283.505.513.52a.274.274 0 0 0 .271-.166.278.278 0 0 0 .023-.11Z"></path>
</svg>