<svg width="46" height="46" fill="currentColor" viewBox="0 0 24 24" xmlns="http://www.w3.org/2000/svg">
  <path d="M3.792 12.501c-.015-1.955-.04-3.91-.041-5.866 0-.951.035-1.904.23-2.84.15-.73.51-1.335 1.177-1.704.242-.134.508-.22.782-.252a27.632 27.632 0 0 1 3.565-.182c2.196.042 4.392.011 6.587-.037a8.125 8.125 0 0 1 2.578.386c.965.345 1.474.952 1.484 1.97.003.316.025.631.038.947.052 1.266.131 2.533.151 3.8.041 2.576.074 5.153.06 7.73-.005 1.054-.126 2.108-.223 3.16-.058.626-.305 1.198-.637 1.73a1.313 1.313 0 0 1-1.001.612c-.37.032-.737.083-1.106.101-1.361.069-2.725.096-4.083.197-2.236.167-4.471.02-6.707.04-.525.004-1.056-.051-1.546-.294a2.028 2.028 0 0 1-.804-.74c-.463-.701-.624-1.48-.614-2.298.017-1.36.063-2.721.085-4.082.013-.792.003-1.585.003-2.378h.022Zm15.348 5.824c.032-.494.09-.967.088-1.438-.015-3.384-.03-6.768-.077-10.152a11.49 11.49 0 0 0-.303-2.553 1.344 1.344 0 0 0-.417-.702 1.572 1.572 0 0 0-.921-.427c-.935-.087-1.87-.183-2.808-.22-.752-.031-1.507.024-2.261.033-1.417.017-2.834.014-4.25.051-.66.017-1.32.096-1.976.173-.52.06-.815.403-.959.883a2.31 2.31 0 0 0-.095.506c-.06.896-.15 1.793-.156 2.69-.008 1.427.065 2.855.063 4.282-.004 2.062-.046 4.123-.07 6.186-.003.234 0 .468 0 .737.469.016.903.05 1.337.044 1.72-.024 3.441-.078 5.162-.09 2.529-.015 5.057-.003 7.643-.003Zm-.128.934c-.557-.014-1.084-.034-1.61-.039-1.563-.015-3.125-.028-4.687-.037-1.298-.006-2.595.006-3.892-.007-1.045-.012-2.09-.048-3.134-.079-.232-.007-.464-.04-.718-.062-.043.392-.009.789.1 1.168.165.529.497.851 1.086.869 1.244.036 2.487.084 3.73.131.41.016.82.053 1.23.061a44.74 44.74 0 0 0 1.666.004c.463-.009.926-.065 1.388-.058 1.299.02 2.59-.024 3.861-.33.258-.061.519-.109.667-.373a2.53 2.53 0 0 0 .313-1.248Z"></path>
  <path d="M12.552 20.134c-.038.234-.139.457-.387.581a.608.608 0 0 1-.672-.07c-.214-.16-.263-.387-.208-.64a.485.485 0 0 1 .435-.396 4.09 4.09 0 0 1 .274-.03c.324-.02.564.208.558.555Z"></path>
</svg>