<svg width="46" height="46" fill="currentColor" viewBox="0 0 24 24" xmlns="http://www.w3.org/2000/svg">
  <path d="M17.877 5.39c.48 0 .958-.003 1.437.001.164-.008.328.006.489.04a.506.506 0 0 1 .358.643c-.258.982-.522 1.961-.765 2.946-.232.946-.431 1.9-.666 2.845a1.07 1.07 0 0 1-.295.479 7.037 7.037 0 0 1-.796.653c-2.37 1.694-4.743 3.385-7.118 5.073-.683.487-1.356.987-2.043 1.466a7.72 7.72 0 0 1-.886.525c-.435.224-.701.158-1-.233a12.075 12.075 0 0 1-.591-.844c-.978-1.543-1.953-3.088-2.925-4.636a1.085 1.085 0 0 1-.06-.107c-.394-.82-.235-1.069.227-1.451 1.514-1.254 3.016-2.524 4.56-3.74 1.436-1.13 2.924-2.195 4.382-3.3.4-.302.818-.468 1.33-.45.84.03 1.679.008 2.518.024.238.004.405-.046.558-.25.581-.773 1.387-1.162 2.335-1.218.489-.03.984.038 1.474.085.15.024.291.081.416.167a.526.526 0 0 1-.304.988 2.225 2.225 0 0 1-.48-.106c-.763-.216-1.485-.149-2.16.27l.005.13ZM3.674 13.752c1.203 1.821 2.465 3.514 3.732 5.234.176-.117.314-.203.446-.297 2.095-1.51 4.197-3.01 6.28-4.537 1.14-.837 2.25-1.715 3.364-2.588a.868.868 0 0 0 .276-.433c.394-1.47.772-2.945 1.154-4.418.023-.09.037-.181.066-.331l-2.007-.075-.121.542c.134.094.24.157.334.236.389.328.51.804.306 1.263a1.524 1.524 0 0 1-1.03.88c-.783.21-1.435-.319-1.43-1.127.004-.45.188-.81.553-1.047.296-.193.368-.44.333-.757a.243.243 0 0 0-.076-.032c-.797-.023-1.593-.051-2.39-.06a.67.67 0 0 0-.373.135c-2.5 1.841-5.023 3.654-7.4 5.655-.673.565-1.325 1.153-2.017 1.757Zm12.173-6.12a3.534 3.534 0 0 0-.037.432c.008.2.108.333.328.333.186 0 .48-.212.49-.37.015-.208-.158-.27-.309-.32a3.243 3.243 0 0 0-.472-.075Z"></path>
</svg>