<svg width="46" height="46" fill="currentColor" viewBox="0 0 24 24" xmlns="http://www.w3.org/2000/svg">
  <path d="M22.1 6.003a33.592 33.592 0 0 0-.148-1.872 64.28 64.28 0 0 1-.086-.922c-.064-.767-.42-1.155-1.087-1.186h-.92l-.219.024a8.102 8.102 0 0 1-.467.044l-1.424.076c-1.058.055-2.152.111-3.228.187-.248.018-.708.083-1 .328l-.413.346c-1.111.928-2.26 1.889-3.306 2.921-1.63 1.61-3.254 3.283-4.824 4.9a1129 1129 0 0 1-1.993 2.048 1.197 1.197 0 0 0-.052.059.383.383 0 0 1-.102.095c-.42.207-.622.585-.817.951l-.044.081a1.013 1.013 0 0 0 .099 1.17c1.51 1.948 3.015 3.829 4.823 5.426.55.486 1.193.87 1.748 1.18.174.109.373.17.577.18.283 0 .515-.158.778-.413.224-.218.447-.438.669-.658.492-.487 1.002-.99 1.52-1.465 1.222-1.12 2.47-2.254 3.676-3.35 1.104-1.003 2.246-2.04 3.365-3.066a98.486 98.486 0 0 0 1.918-1.82l.532-.513c.333-.32.491-.673.484-1.08-.008-.431-.011-.87-.015-1.294a70.157 70.157 0 0 0-.044-2.377Zm-1.029 3.24a.917.917 0 0 1-.316.739 2453.78 2453.78 0 0 0-6.235 5.775c-1.087 1.01-2.188 2.042-3.253 3.039l-1.72 1.61a13.29 13.29 0 0 1-.279.25l-.136.12c-.126-.087-.256-.172-.382-.256a7.434 7.434 0 0 1-.907-.665c-1.821-1.652-3.388-3.551-4.68-5.191-.134-.17-.15-.315-.055-.472l.037-.059c.105-.189.232-.366.378-.526l1.378-1.389c2.072-2.089 4.214-4.249 6.347-6.347.485-.477 1.023-.918 1.544-1.344.338-.276.686-.56 1.018-.854.36-.318.782-.34 1.23-.363l.16-.009c1.336-.084 2.697-.145 4.014-.204a1043.235 1043.235 0 0 0 1.256-.056c.06 0 .125.005.208.012l.122.01.081 1.097c.07.925.135 1.8.18 2.693.023.483.018.978.012 1.456a41.39 41.39 0 0 0-.002.933Z"></path>
  <path d="M16.971 4.858h-.032a1.898 1.898 0 0 0-1.324.56 2.173 2.173 0 0 0-.656 1.528c-.01 1.148.941 2.067 2.164 2.092h.056a2.284 2.284 0 0 0 1.608-.61 2.075 2.075 0 0 0 .62-1.481c.016-1.204-.986-2.063-2.436-2.09Zm-.867 1.494c.071-.178.134-.318.244-.361a.22.22 0 0 1 .082-.015.528.528 0 0 1 .219.06.083.083 0 0 0 .118-.075v-.006c.07.023.141.045.212.066.238.066.47.15.695.252.428.209.454.592.4.876-.069.374-.284.579-.677.645-.539.09-.917-.024-1.19-.36-.243-.297-.276-.651-.103-1.082Z"></path>
</svg>