<svg width="46" height="46" fill="currentColor" viewBox="0 0 24 24" xmlns="http://www.w3.org/2000/svg">
  <path d="M13.798 11.016c-.244-.413-.522-.628-.896-.695-.385-.068-.699.081-1.042.335l-.032-.474a31.864 31.864 0 0 0-.086-1.135 84.5 84.5 0 0 1-.044-.453c-.063-.66-.127-1.34-.247-2.001-.063-.35-.225-.737-.493-1.18-.29-.478-.78-.582-1.308-.278-.48.276-.594.752-.64 1.136-.035.295-.04.597-.045.89l-.003.142-.016.683c-.018.789-.037 1.604-.036 2.407 0 .596.019 1.201.037 1.787.008.249.016.498.022.746l-.06-.048a2.726 2.726 0 0 0-.105-.083c-.814-.599-1.687-.813-2.594-.635a1.185 1.185 0 0 0-.899.722 1.26 1.26 0 0 0 .173 1.2c.13.168.279.321.443.457l.052.046a6.476 6.476 0 0 1 1.47 1.845 73.36 73.36 0 0 0 1.753 3.171c.175.3.454.546.679.727.422.34.928.62 1.591.878.587.231 1.213.35 1.843.35a6.182 6.182 0 0 0 2.094-.393 4.48 4.48 0 0 0 1.352-.801c.724-.602 1.229-1.423 1.542-2.512.42-1.446.597-2.95.527-4.455a4.27 4.27 0 0 0-.281-1.25 1.322 1.322 0 0 0-1.442-.889 2.498 2.498 0 0 0-.619.183 7.908 7.908 0 0 1-.261.097c-.173-.44-.542-.756-1.044-.894-.562-.153-1.028-.028-1.385.374Zm-3.423 8.513a1.473 1.473 0 0 1-.367-.363 13.51 13.51 0 0 1-.69-1.118 40.369 40.369 0 0 1-.91-1.799c-.523-1.098-1.172-1.938-1.985-2.566a.227.227 0 0 1-.027-.023 3.082 3.082 0 0 0-.08-.081c-.155-.154-.302-.3-.223-.542.085-.262.332-.304.572-.304H6.7c.876.014 1.53.339 1.943.965.078.136.135.282.17.434l.038.128c.054.175.143.357.388.38.201.02.373-.131.44-.382.028-.11.04-.223.038-.337-.019-1.02-.04-2.02-.062-2.967a31.821 31.821 0 0 0-.025-.648c-.016-.396-.034-.804-.025-1.205.02-.887.073-1.788.124-2.66l.008-.138c.018-.295.091-.61.502-.711.266.202.426.491.49.882.107.657.178 1.257.218 1.834.056.797.098 1.609.138 2.394.02.395.042.79.064 1.185.01.18.057.422.346.46.276.036.38-.175.463-.345l.1-.21c.095-.227.215-.443.357-.645.12-.158.275-.235.427-.211.157.025.287.154.356.352.052.179.08.363.084.549l.013.17c.004.064.002.129-.004.193a1.53 1.53 0 0 0-.006.175.31.31 0 0 0 .293.312c.185.025.317-.051.37-.213.017-.049.029-.098.04-.147.012-.057.028-.113.048-.167l.062-.17c.063-.187.14-.369.232-.543.146-.257.32-.323.619-.233.363.11.58.336.645.675.033.196.051.395.056.594l.007.137c.011.2.053.395.282.463.268.08.399-.102.5-.279l.03-.053c.088-.161.187-.316.297-.463.185-.232.405-.348.604-.317.187.028.344.182.44.433.176.427.28.88.31 1.34.05 1.239-.176 2.444-.404 3.46a5.16 5.16 0 0 1-.82 1.816c-.42.603-1.064 1.046-1.914 1.316-1.595.507-3.146.236-4.608-.807Z"></path>
  <path d="M7.478 4.887c.108.035.216.069.323.105l.04.013.02-.063.03.003a.29.29 0 0 0 .16-.014l.022-.011c.107-.053.24-.12.266-.218a.562.562 0 0 0-.092-.397.55.55 0 0 0-.295-.185A12.47 12.47 0 0 0 7 3.868c-.249-.054-.451.035-.529.233-.069.177-.005.412.25.52.247.104.506.187.757.266Z"></path>
  <path d="M12.646 5.361a.419.419 0 0 0 .218-.065c.29-.184.567-.386.83-.606a.448.448 0 0 0 .118-.202.53.53 0 0 1 .02-.054l.005-.01v-.01a.415.415 0 0 0-.197-.378.396.396 0 0 0-.406.044 5.502 5.502 0 0 0-.722.597l-.07.064c-.15.139-.178.312-.075.464a.33.33 0 0 0 .28.156Z"></path>
  <path d="M13.395 6.878c-.117.038-.23.211-.248.334-.026.176.096.322.299.355.112.018.225.03.344.042l.166.018h.009c.056-.007.115-.011.175-.016.156-.006.31-.03.46-.07a.494.494 0 0 0 .268-.314.258.258 0 0 0-.024-.2.345.345 0 0 0-.218-.154c-.47-.116-.873-.114-1.231.005Z"></path>
  <path d="M5.957 7.078c-.014.094.136.232.227.255.146.033.295.054.445.063.066.006.134.012.206.02h.009c.05-.005.103-.01.158-.013.156-.006.31-.029.46-.066a.377.377 0 0 0 .21-.314c-.005-.104-.148-.277-.253-.28a10.04 10.04 0 0 0-1.23.043c-.104.01-.216.186-.232.292Z"></path>
  <path d="M9.91 3.514c.036.273.17.429.37.429h.007c.216-.005.366-.187.366-.444a4.179 4.179 0 0 0-.104-.855c-.02-.094-.178-.197-.273-.197h-.002a.35.35 0 0 0-.27.201 2.53 2.53 0 0 0-.092.424 3.079 3.079 0 0 1-.022.133v.01l.006.121c.003.07.006.124.013.178Z"></path>
</svg>