<svg width="46" height="46" fill="currentColor" viewBox="0 0 24 24" xmlns="http://www.w3.org/2000/svg">
  <path d="m5.821 14.431.168.15c.447.42.951.94 1.296 1.62a72.22 72.22 0 0 0 1.258 2.413c.387.702.853 1.418 1.628 1.9 1.01.63 2.052.945 3.116.945a5.851 5.851 0 0 0 1.967-.353 4.87 4.87 0 0 0 1.266-.702c.968-.728 1.583-1.799 1.88-3.271.174-.903.304-1.813.387-2.73a5.315 5.315 0 0 0-.215-2.174c-.2-.624-.625-.997-1.26-1.107-.468-.082-.847.132-1.131.341a1.628 1.628 0 0 0-1.088-.946c-.521-.15-.983-.028-1.373.362-.552-.78-1.011-.876-1.91-.395l-.046-.629a48.034 48.034 0 0 0-.125-1.515c-.074-.716-.146-1.36-.276-1.997a3.069 3.069 0 0 0-.43-.986c-.183-.295-.424-.472-.696-.512-.285-.042-.585.068-.866.317-.267.236-.417.565-.444.978l-.032.463c-.053.765-.109 1.556-.11 2.334 0 .92.03 1.856.059 2.763.012.365.023.73.033 1.099-.68-.583-1.509-.853-2.467-.802-.369.02-.888.111-1.139.677-.23.52-.161 1 .205 1.425.107.119.223.23.345.332Zm2.657-.938c.124.206.218.428.28.66.059.189.145.39.414.4.22.008.366-.113.446-.371a.86.86 0 0 0 .039-.255l-.002-.537c-.002-.676-.004-1.375-.018-2.063a52.32 52.32 0 0 0-.034-1.064c-.02-.515-.041-1.047-.04-1.57.003-.807.052-1.627.105-2.466.022-.33.097-.644.502-.721.374.315.495.752.561 1.31.045.383.064.775.084 1.155.01.19.019.378.031.567.073 1.11.148 2.219.224 3.328.014.215.13.353.324.388a.379.379 0 0 0 .444-.24c.021-.047.038-.097.055-.144.02-.068.047-.133.079-.195l.066-.123a2.87 2.87 0 0 1 .31-.497c.135-.16.288-.233.433-.208.146.026.271.157.343.36.05.152.079.31.085.47a3.48 3.48 0 0 1-.008.43l-.006.1c-.011.224.092.362.299.4.138.024.322-.005.413-.28a.996.996 0 0 0 .027-.11c.007-.03.013-.06.022-.09.016-.05.03-.102.045-.153.033-.132.077-.26.13-.386l.015-.03c.114-.246.233-.5.551-.466.272.028.622.145.75.54.043.151.07.306.081.463.006.058.012.116.02.173.007.053.01.11.012.164.001.098.014.195.038.29a.394.394 0 0 0 .285.293.403.403 0 0 0 .387-.156.979.979 0 0 0 .112-.173 1.5 1.5 0 0 1 .064-.11c.029-.042.056-.084.083-.127.072-.12.154-.233.245-.338.156-.171.347-.253.52-.224a.522.522 0 0 1 .38.335c.134.304.314.76.326 1.2a17.06 17.06 0 0 1-.092 1.92l-.025.292c-.023.23-.059.459-.106.685-.025.133-.051.271-.072.408-.109.715-.408 1.347-.824 2.076-.239.419-.63.772-1.163 1.05-1.63.85-3.297.807-4.954-.13-.72-.406-1.127-1.05-1.428-1.627-.218-.416-.432-.844-.64-1.257a82.883 82.883 0 0 0-.61-1.204 6.354 6.354 0 0 0-1.487-1.873l-.078-.067a3.08 3.08 0 0 1-.395-.38c-.1-.123-.14-.241-.113-.341.028-.105.127-.193.287-.256.14-.054.288-.081.438-.08.184.004.367.034.543.089.583.167.952.403 1.197.766Z"></path>
  <path d="M6.632 8.74c.338.316.757.534 1.211.63.058.012.117.02.177.02a.294.294 0 0 0 .302-.186c.088-.227-.106-.338-.247-.418l-.012-.007c-.078-.045-.158-.086-.238-.128a5.403 5.403 0 0 1-.268-.146c-.826-.486-1.193-1.277-1.033-2.227.302-1.801 1.887-3.105 3.682-3.033.63.025 1.185.268 1.56.684a2.1 2.1 0 0 1 .46 1.862 3.811 3.811 0 0 0-.034.176c-.052.316.055.539.279.58a.367.367 0 0 0 .287-.062.583.583 0 0 0 .212-.4c.015-.124.023-.249.024-.373A7.56 7.56 0 0 1 13 5.546a2.74 2.74 0 0 0-.69-1.972 2.989 2.989 0 0 0-2.084-.995c-2.102-.131-4.053 1.373-4.444 3.425-.215 1.129.063 2.024.85 2.735Z"></path>
</svg>