<svg width="46" height="46" fill="currentColor" viewBox="0 0 24 24" xmlns="http://www.w3.org/2000/svg">
  <path d="M11.725 18.613a8.648 8.648 0 0 1-2.395-.32c-2.473-.712-4.074-2.826-4.077-5.387v-.432c-.333-.034-.642-.063-.949-.1a5.368 5.368 0 0 1-.52-.09.33.33 0 0 1-.278-.348.336.336 0 0 1 .32-.359c.202-.015.405-.015.607.001.31.01.62.028.946.043.067-.237.122-.444.186-.648.515-1.652 1.37-3.087 2.738-4.18.865-.69 1.837-1.144 2.962-1.22.107-.006.212-.033.37-.06.009-.28.014-.559.03-.837.003-.189.024-.377.061-.562.058-.237.21-.344.4-.33a.404.404 0 0 1 .367.375c.032.268.034.54.048.81l.024.477c.519.059 1.026.119 1.534.173 1.257.135 2.356.604 3.252 1.51.88.888 1.364 1.969 1.581 3.182.022.12.042.24.06.36.015.105.025.21.04.333.23 0 .445-.011.659.003.188.006.375.035.556.087a.435.435 0 0 1 .316.43.426.426 0 0 1-.32.423c-.153.05-.314.077-.476.078-.229.003-.459-.027-.713-.044-.068.415-.101.832-.208 1.23-.162.597-.327 1.2-.573 1.766-.743 1.703-2.093 2.72-3.85 3.23-.519.15-1.054.246-1.643.38-.01.23-.016.495-.035.76a2.209 2.209 0 0 1-.079.515.432.432 0 0 1-.461.322.455.455 0 0 1-.437-.363 2.533 2.533 0 0 1-.035-.523c-.002-.176.015-.351.02-.527a.926.926 0 0 0-.028-.158Zm.136-1.171.046-1.12a2.735 2.735 0 0 1 .017-.364c.043-.245.194-.375.408-.374.22 0 .365.125.41.371.027.174.045.35.053.525.018.294.03.59.045.927 1.379-.177 2.633-.561 3.587-1.58 1.01-1.08 1.341-2.429 1.452-3.89-.325-.02-.608-.025-.889-.057a2.117 2.117 0 0 1-.548-.128c-.166-.066-.229-.226-.198-.405a.332.332 0 0 1 .295-.294c.148-.019.297-.027.445-.026.28-.003.559 0 .839 0-.043-1.23-.627-2.444-1.484-3.197-.721-.634-1.588-.913-2.507-1.073-.408-.072-.82-.125-1.293-.197 0 .307.007.547-.002.787a2.88 2.88 0 0 1-.051.564.498.498 0 0 1-.504.391.5.5 0 0 1-.478-.421 1.364 1.364 0 0 1-.01-.36c.025-.359.057-.716.09-1.122-.15.006-.3.02-.45.043-.679.15-1.315.45-1.86.88-1.381 1.075-2.195 2.512-2.643 4.175-.002.06.005.12.022.177.259 0 .502-.004.745 0 .271.006.543.008.813.03.192.016.351.124.369.32.012.132-.02.315-.107.4a.755.755 0 0 1-.437.173c-.258.013-.516.01-.773-.01-.254-.01-.508-.028-.783-.043a4.066 4.066 0 0 0 .106 1.59c.56 2.15 2.582 3.471 5.275 3.308Z"></path>
  <path d="M10.568 11.738c.038-.225.09-.447.155-.665.233-.639 1.066-.99 1.64-.65.361.22.646.544.816.929.325.708.007 1.44-.736 1.695-.899.308-1.841-.357-1.875-1.309Z"></path>
</svg>