<svg width="46" height="46" fill="currentColor" viewBox="0 0 24 24" xmlns="http://www.w3.org/2000/svg">
  <path d="M22.424 8.249c-.066-.268-.202-.474-.384-.58a.578.578 0 0 0-.46-.054c-.245.07-.52.288-.438.926.065.5.12 1.01.171 1.504l.068.631c-.083 1.4-.176 2.662-.459 3.92-.37 1.641-1.134 3.189-2.27 4.599-.923 1.143-2.101 1.852-3.603 2.167-1.243.25-2.518.3-3.777.148-1.023-.118-2.223-.304-3.363-.797-1.32-.571-2.253-1.246-2.94-2.123a11.593 11.593 0 0 1-2.127-4.413 8.485 8.485 0 0 1-.206-3.126C2.83 9.512 3.352 8 4.281 6.291a5.228 5.228 0 0 1 1.3-1.567c1.295-1.052 2.577-1.775 3.92-2.21.954-.309 2.008-.406 3.222-.296.807.072 1.59.314 2.35.548l.51.155.078.024c.145.05.294.084.446.103.101.01.31-.047.35-.167a.49.49 0 0 0-.067-.405.976.976 0 0 0-.387-.289c-.507-.21-.965-.399-1.443-.559a8.73 8.73 0 0 0-2.824-.453c-1.54.013-3.05.42-4.387 1.185-.494.277-.931.534-1.335.787-1.19.743-2.055 1.614-2.644 2.661-.706 1.257-1.194 2.415-1.492 3.54-.353 1.335-.48 2.376-.411 3.374.119 1.729.667 3.44 1.677 5.232a9.238 9.238 0 0 0 1.32 1.83c1.073 1.138 2.432 1.942 4.154 2.46a14.155 14.155 0 0 0 5.863.492c2.318-.29 4.103-1.298 5.456-3.082 1.082-1.428 1.8-2.857 2.192-4.368.447-1.722.613-3.598.508-5.735a6.83 6.83 0 0 0-.213-1.302Z"></path>
  <path d="m13.684 5.227.285.029c.085.008.312.029.389-.193a.35.35 0 0 0-.185-.445 2.023 2.023 0 0 0-.474-.17 7.087 7.087 0 0 0-2.288-.106c-1.424.168-2.62.539-3.655 1.132-1.376.789-2.227 1.796-2.603 3.079a6.875 6.875 0 0 1-.202.569 8.077 8.077 0 0 0-.422 4.613c.221 1.092.494 1.974 1.107 2.728 1.407 1.73 3.007 2.707 4.892 2.985.406.06.824.08 1.227.1.183.008.373.017.559.03h.007a9.417 9.417 0 0 0 4.177-1.074c.31-.155.595-.355.847-.593.795-.786 1.297-1.53 1.578-2.343.056-.164.13-.327.203-.485.022-.048.045-.096.066-.145.649-1.443.643-3.02-.018-4.822a1.146 1.146 0 0 0-.253-.406.6.6 0 0 0-.584-.185.574.574 0 0 0-.392.452c-.044.189-.011.4.018.585l.006.042c.034.22.075.44.114.655.067.363.136.739.172 1.11a3.885 3.885 0 0 1-.239 1.808c-.197.518-.42 1.025-.669 1.52-.411.796-.86 1.317-1.416 1.639-.435.252-.926.432-1.401.605l-.188.069c-.84.31-1.742.31-2.621.31h-.007c-1.351 0-2.38-.3-3.238-.943a9.504 9.504 0 0 0-.429-.298c-.157-.105-.32-.213-.47-.33-.82-.633-1.354-1.345-1.635-2.178-.332-.98-.679-2.28-.418-3.646.085-.41.192-.814.318-1.212.077-.257.157-.522.224-.787.275-1.08.94-1.918 2.035-2.56C9.577 5.503 11.227 5.1 13 5.17c.228.009.459.033.683.057Z"></path>
  <path d="M9.845 9.111a5.542 5.542 0 0 1 1.135-.494c.407-.122.836-.204 1.251-.284.107-.02.214-.041.32-.063.136-.027.342-.067.346-.309.003-.189-.122-.316-.335-.339a2.324 2.324 0 0 0-.336-.013c-.754.028-1.513.204-2.387.554A3.182 3.182 0 0 0 8.106 9.77c-.632 1.302-.67 2.695-.11 4.14.157.406.393.925.83 1.334.98.916 2.172 1.38 3.543 1.38.066 0 .13.002.196.004.06.002.12.004.182.004.073 0 .146-.003.219-.012.956-.118 1.704-.44 2.287-.983 1.096-1.02 1.591-2.387 1.473-4.061-.016-.236-.132-.47-.234-.675-.092-.186-.303-.328-.513-.224a.661.661 0 0 0-.29.387 1.092 1.092 0 0 0-.028.344c.001.056.002.11 0 .161-.008.128-.01.258-.014.384 0 .29-.022.578-.067.864-.281 1.501-1.123 2.383-2.504 2.62-.972.167-1.929-.015-2.843-.54-.353-.204-.711-.443-.945-.822-.682-1.105-.85-2.281-.5-3.496.197-.688.553-1.182 1.057-1.468Z"></path>
  <path d="M19.139 4.006c.011-.062.024-.123.036-.185.044-.193.075-.388.093-.585.026-.348-.134-.471-.402-.558a.614.614 0 0 0-.61.117c-.758.636-1.521 1.28-2.27 1.914-.27.228-.365.52-.298.92.044.256.07.521.096.778.02.195.04.396.068.594.021.155-.023.26-.161.388l-.062.057c-.383.353-.78.717-1.151 1.094-.663.672-1.331 1.36-1.978 2.025l-.921.947c-.22.226-.174.4-.097.505a.314.314 0 0 0 .26.14.507.507 0 0 0 .287-.108c.144-.107.28-.224.409-.35l2.22-2.109 1.202-1.142c.121-.115.208-.17.362-.164.655.02 1.322.02 1.967.019h.55a.747.747 0 0 0 .595-.27c.523-.599 1.064-1.2 1.57-1.76.25-.275.465-.562.368-1.043-.087-.433-.145-.625-.63-.627-.253 0-.51.013-.758.027-.14.008-.28.016-.421.021a7.898 7.898 0 0 1-.357.002h-.099l.03-.147c.037-.174.07-.337.102-.5Zm1.17 1.591.02.001-1.357 1.725h-2.277l-.02-.07a1.204 1.204 0 0 1-.064-.292c-.01-.263-.01-.532-.01-.792V5.7c-.003-.154.02-.277.134-.376.43-.372.857-.746 1.31-1.143l.383-.334a1.496 1.496 0 0 1-.014.144 14.43 14.43 0 0 1-.059.353c-.039.224-.08.456-.104.686-.021.204.007.342.09.436.082.093.213.138.412.141.292.006.589-.002.875-.01.155-.004.31-.009.466-.01a2.23 2.23 0 0 1 .215.01v-.001Z"></path>
</svg>