<svg width="46" height="46" fill="currentColor" viewBox="0 0 24 24" xmlns="http://www.w3.org/2000/svg">
  <path d="M1.817 19.018c.016.29.07.575.161.85.145.458.317.535.763.537l.42.002c1.311.006 2.666.01 3.999.009a3.47 3.47 0 0 0 .391-.03 2.89 2.89 0 0 1 .412-.029c.216.006.436.023.649.04.26.02.528.04.794.04h.051a954.14 954.14 0 0 0 8.471-.12c.857-.017 1.479-.371 1.902-1.084.93-1.562 1.65-3.327 2.34-5.72.102-.39.181-.784.236-1.182a21.77 21.77 0 0 1 .092-.555v-.571a.08.08 0 0 0-.005-.027c-.038-.109-.07-.223-.103-.334a3.149 3.149 0 0 0-.284-.737c-.403-.675-1.082-1.064-1.964-1.126-.831-.059-1.678-.074-2.497-.09l-.622-.011c-.417-.01-.842-.007-1.252-.005l-.474.002c.266-.692.432-1.462.536-2.49.061-.605.101-1.4-.136-2.174-.169-.548-.433-.731-1.01-.701-.39.011-.76.168-1.041.44l-.196.19a9.505 9.505 0 0 0-.958 1.023c-.37.482-.714.995-1.048 1.49-.145.217-.291.434-.44.65-.695 1.007-1.52 1.74-2.52 2.242a.667.667 0 0 1-.515.053c-.732-.19-1.353-.235-1.953-.145-.462.07-.937.113-1.397.155-.178.016-.355.032-.532.05-.188.018-.377.035-.566.051-.304.027-.619.055-.928.091-.565.066-.792.28-.9.85l-.01.05a1.636 1.636 0 0 0-.039.285l-.014.63c-.014.556-.029 1.131-.014 1.697.055 2.017.133 4.015.201 5.704Zm5.522-8.705c-.018 1.491.087 2.988.189 4.435.1 1.443.205 2.935.186 4.407H3.09v-.01a2.111 2.111 0 0 1-.016-.18L2.93 15.62a33047.567 33047.567 0 0 1-.146-3.47 18.07 18.07 0 0 0-.056-1.005c-.021-.234.05-.328.269-.357.265-.034.53-.07.793-.107.503-.069 1.023-.14 1.535-.2.476-.054.963-.095 1.434-.134l.498-.042c.027 0 .054.002.08.008Zm7.558-4.04c-.05.715-.232 1.473-.573 2.386-.109.293-.195.619-.088 1.01a.082.082 0 0 0 .074.06l.192.012c.141.01.287.02.433.024.416.008.832.014 1.249.019.919.012 1.869.024 2.801.067.502.028.997.13 1.47.305.578.21.857.655.828 1.321-.043 1.027-.296 2.095-.796 3.363a78.49 78.49 0 0 1-1.21 2.88 6.403 6.403 0 0 1-.4.72l-.137.223c-.224.375-.574.588-1.04.631-.631.06-1.366.122-2.095.128-1.62.014-3.266.012-4.859.01l-1.505-.002c-.09 0-.18-.008-.261-.016l-.034-.003-.703-9.048.35-.154c.29-.125.563-.243.83-.385 1.072-.572 1.973-1.477 2.835-2.85.465-.74 1.046-1.594 1.82-2.306.148-.14.32-.253.508-.33.135-.052.193-.044.217-.029.032.021.053.088.06.192.05.59.062 1.182.034 1.773Z"></path>
  <path d="M5.347 10.625h-.013c-.96.144-1.544.686-1.564 1.452-.02.755.597 1.367 1.403 1.393h.046c.377.001.739-.143 1.014-.402a1.297 1.297 0 0 0 .412-.917 1.616 1.616 0 0 0-.463-1.117c-.249-.26-.545-.405-.835-.409Zm.054 1.618c-.108.125-.262.138-.457.038-.167-.086-.223-.21-.168-.369a1.26 1.26 0 0 1 .126-.233l.059-.097c.036.024.072.045.106.066.099.054.191.12.274.196.08.082.195.243.06.399Z"></path>
</svg>