<svg width="46" height="46" fill="currentColor" viewBox="0 0 24 24" xmlns="http://www.w3.org/2000/svg">
  <path d="M3.43 14.033c.067.046.135.09.207.138l.062.042c-.476.476-.77.983-.894 1.549-.117.53.036.977.454 1.33l.168.138.051.042c-.316.419-.488.84-.525 1.286-.046.557.148.959.576 1.192.316.172.626.333.953.4.648.134 1.302.23 1.96.291a74.09 74.09 0 0 0 3.047.218c.63.033 1.361.066 2.122.066.118 0 .236 0 .354-.003.863-.012 1.631-.063 2.308-.567a.465.465 0 0 1 .563-.03c.125.062.26.101.399.116l.089.015c1.182.22 2.392.194 3.562.168l.52-.01c.642-.012 1.087-.373 1.288-1.043a3.78 3.78 0 0 0 .145-.69l.038-.372c.085-.82.174-1.666.232-2.502.134-1.905.178-3.862.13-5.817-.009-.384-.03-.759-.065-1.113-.045-.461-.267-.806-.642-.997-.31-.159-.661-.338-1.031-.422-1.122-.255-2.278-.193-3.298-.138a6.337 6.337 0 0 1-.314.006c-.346.001-.703.002-1.05.185-.347-.855-.93-1.504-1.458-2.027a80.526 80.526 0 0 0-.623-.61c-.327-.32-.667-.65-.992-.982-.543-.552-1.24-.739-2.134-.57a1.118 1.118 0 0 0-.724.477 1.21 1.21 0 0 0-.18.909 2.7 2.7 0 0 0 .183.6 33.306 33.306 0 0 0 .731 1.465 2.3 2.3 0 0 1 .26.612 1.743 1.743 0 0 0-.04.011.396.396 0 0 1-.097.02c-.394.005-.788.008-1.182.01-.613.006-1.247.01-1.87.02a7.267 7.267 0 0 0-1.96.3 2.776 2.776 0 0 0-1.33.835c-.7.803-.673 1.713.073 2.434l.009.03.004.02a2.7 2.7 0 0 0-.719 1.35c-.152.682.064 1.226.64 1.618Zm1.374-2.614c.274-.064.462-.247.48-.468.024-.296-.276-.412-.455-.48a2.346 2.346 0 0 0-.296-.085c-.073-.018-.15-.036-.222-.06-.34-.11-.444-.297-.363-.647.06-.276.204-.527.414-.716.454-.401.914-.604 1.448-.637l.053-.004c1.142-.071 2.32-.146 3.483-.037.318.026.638.022.956-.012.216-.022.358-.086.434-.197.072-.106.081-.25.028-.442a13.989 13.989 0 0 0-.51-1.436c-.092-.228-.197-.456-.298-.676a12.15 12.15 0 0 1-.36-.833c-.085-.229-.092-.389-.022-.49.071-.102.232-.153.49-.15.466.003.809.141 1.08.434.26.282.533.562.796.833.415.427.845.869 1.238 1.328.779.907 1.134 1.83 1.085 2.823-.022.51-.015 1.02.019 1.53.014.396-.006.793-.057 1.186-.025.242-.05.492-.06.74-.037.925-.059 1.867-.08 2.777-.013.545-.025 1.089-.041 1.633v.023a14.23 14.23 0 0 1-.077 1.29c-.087.718-.348.98-1.035 1.042-.534.047-1.081.053-1.61.058-.204.002-.407.004-.61.008-.217.004-.438.003-.651.002h-.258l-.001-.015-.036-.002c-.4-.03-.8-.058-1.2-.086a138.865 138.865 0 0 1-3.156-.246c-.424-.04-.85-.188-1.21-.328-.308-.12-.372-.253-.297-.615.043-.21.115-.415.215-.605.134-.251.303-.36.55-.348a1 1 0 0 0 .528-.149c.13-.075.269-.236.27-.367.002-.13-.138-.298-.265-.367a2.132 2.132 0 0 0-.596-.188c-.317-.064-.528-.13-.597-.259-.06-.113-.03-.285.113-.635.214-.524.503-.853.908-1.035a.58.58 0 0 0 .377-.626c-.019-.295-.239-.41-.452-.483a4.557 4.557 0 0 0-.329-.095c-.113-.03-.23-.061-.342-.101-.34-.12-.425-.258-.38-.613.087-.688.365-1.05.902-1.175Zm11.719 8.08a9.176 9.176 0 0 1-1.222-.132c-.39-.065-.388-.089-.351-.5.068-.761.123-1.555.17-2.425l.022-.408c.054-1.013.111-2.061.132-3.092.02-.998.011-2.013.003-2.994l-.006-.716a5.413 5.413 0 0 0-.04-.542 7.462 7.462 0 0 1-.025-.236c.327-.01.654-.025.97-.04.982-.047 1.91-.092 2.854.035l.08.01a.946.946 0 0 1 .122.015c.87.165.999.321.984 1.19l-.007.386a414.323 414.323 0 0 1-.14 6.331c-.023.746-.114 1.503-.202 2.235l-.027.222c-.065.546-.174.653-.683.672-.88.03-1.748.012-2.634-.012Z"></path>
  <path d="M18.137 9.201c-.49-.232-1.155-.118-1.58.272-.343.313-.447.705-.307 1.164.194.64.75 1.02 1.526 1.042l.054.001c.326 0 .584-.088.767-.263.21-.202.32-.517.325-.938v-.003c-.037-.617-.302-1.046-.785-1.275Zm.016 1.325a.41.41 0 0 1-.134.298.68.68 0 0 1-.495.17c-.24-.01-.532-.372-.54-.668a.382.382 0 0 1 .114-.272.636.636 0 0 1 .44-.183h.012a.574.574 0 0 1 .403.17.68.68 0 0 1 .2.485Z"></path>
</svg>