<svg width="46" height="46" fill="currentColor" viewBox="0 0 24 24" xmlns="http://www.w3.org/2000/svg">
  <path d="M21.234 4.933c-.159-.96-.617-1.34-1.632-1.352l-.3-.004a35.06 35.06 0 0 0-1.971.01c-.765.033-1.555.067-2.306.406-.053-.028-.104-.059-.156-.089a3.436 3.436 0 0 0-.406-.213l-.113-.048a3.504 3.504 0 0 0-.784-.262 7.1 7.1 0 0 0-1.363-.1c-1.22.04-2.664.093-4.12.194-.825.051-1.645.157-2.455.315a6.646 6.646 0 0 0-1.678.584 2.219 2.219 0 0 0-1.183 1.57A2.25 2.25 0 0 0 3.3 7.866a.126.126 0 0 1 .019.029c-.08.096-.161.19-.24.28-.187.2-.355.417-.503.648-.434.723-.235 1.522.497 1.988.094.06.193.113.297.17l.116.06c-.372.44-.55.892-.545 1.383.005.507.274.895.823 1.183a1.855 1.855 0 0 0-.539 1.185c-.035.478.145.828.534 1.04.256.141.525.254.805.336.851.24 1.73.37 2.614.389.686.02 1.383.024 2.057.026.332.002.664.003.995.006.035.003.07.009.103.019l.044.01-.03.091a1.62 1.62 0 0 1-.093.252c-.045.09-.096.18-.147.267-.068.114-.13.23-.186.35l-.171.379c-.202.42-.379.852-.528 1.294a1.117 1.117 0 0 0 .754 1.398c.246.067.499.102.753.104a1.995 1.995 0 0 0 1.409-.549c.25-.235.497-.482.736-.72.2-.201.409-.41.618-.61.685-.652 1.388-1.37 1.816-2.327l.25.036c.198.029.385.056.571.077.108.013.218.018.325.022.043.002.087.003.13.006.942.049 1.953.077 2.973-.053a3.437 3.437 0 0 0 1.447-.495c.396-.253.613-.603.645-1.04.039-.53.062-1.015.072-1.485a67.36 67.36 0 0 0-.17-6.02 28.31 28.31 0 0 0-.317-2.662Zm-5.53 10.398c.019-.182.037-.355.038-.53l.01-.885c.012-.9.025-1.83-.002-2.744-.039-1.37-.11-2.76-.18-4.105l-.05-1a9.858 9.858 0 0 0-.087-.815l-.028-.212c-.032-.256-.018-.31.227-.368.291-.072.588-.118.887-.138a94.643 94.643 0 0 1 2.554-.084c.217 0 .435.018.65.053.398.056.506.16.577.563.048.283.082.568.102.854.02.278.042.555.065.832.06.75.123 1.527.144 2.29.048 1.661.06 3.35.073 4.984l.003.416c.006.762-.105.9-.842 1.047a8.798 8.798 0 0 1-1.343.14c-.462.02-.933.005-1.389-.01l-.092-.002c-.31-.01-.616-.029-.94-.049l-.398-.023.02-.214Zm-.966-.718c.034.926-.285 1.782-.976 2.614-.545.657-1.157 1.278-1.749 1.878l-.51.52c-.355.365-.823.361-1.235.31-.182-.024-.276-.146-.26-.336.01-.133.04-.263.09-.386.087-.2.18-.401.27-.596.119-.26.242-.527.352-.796.194-.454.363-.92.506-1.393.064-.225.056-.389-.024-.502-.084-.12-.242-.183-.496-.2a7.642 7.642 0 0 0-1.036.006c-1.41.105-2.827.047-4.224-.173-.39-.07-.77-.178-1.138-.324-.311-.117-.37-.242-.281-.605.075-.312.27-.535.633-.723a.41.41 0 0 1 .09-.028.233.233 0 0 0 .15-.074c.102-.13.17-.282.2-.443.016-.163-.097-.297-.302-.361a12.482 12.482 0 0 0-.116-.035 2.88 2.88 0 0 1-.53-.197c-.276-.148-.327-.284-.226-.605.123-.39.395-.68.857-.91.33-.165.496-.305.419-.574-.07-.242-.275-.298-.654-.322a3.058 3.058 0 0 1-.906-.172c-.243-.096-.406-.247-.472-.437-.067-.192-.033-.414.1-.643.135-.23.312-.434.522-.6.09-.07.228-.09.362-.11.054-.008.107-.016.158-.026a.213.213 0 0 1 .075.004.386.386 0 0 0 .082.007c.168-.009.377-.02.445-.24.064-.212-.083-.358-.218-.462a2.208 2.208 0 0 0-.304-.185l-.055-.03c-.523-.284-.739-.61-.699-1.059.054-.599.329-1.018.817-1.246A6.406 6.406 0 0 1 6.5 4.59a72.178 72.178 0 0 1 3.365-.271c.889-.051 1.795-.06 2.671-.07h.088c.3.002.6.029.895.081.547.086.805.337.889.868.064.446.099.897.104 1.348.011.452.009.912.006 1.357l-.002.543-.033.004.064.84.203 2.688c.009.12.007.244.006.367-.002.24-.008.479-.014.718a25.016 25.016 0 0 0-.004 1.55Z"></path>
  <path d="M17.511 14.823c.174.067.36.102.546.103.264.002.521-.076.74-.225.377-.26.595-.704.597-1.22.001-.375-.098-.665-.295-.861-.197-.197-.488-.297-.866-.298h-.005a1.74 1.74 0 0 0-1.014.344 1.259 1.259 0 0 0-.54 1.224c.054.428.335.742.837.933Zm-.054-1.152c.015-.299.313-.655.55-.657h.008a.683.683 0 0 1 .487.179.405.405 0 0 1 .124.3.681.681 0 0 1-.209.482.57.57 0 0 1-.417.16.621.621 0 0 1-.436-.19.373.373 0 0 1-.107-.274Z"></path>
</svg>