<svg width="46" height="46" fill="currentColor" viewBox="0 0 24 24" xmlns="http://www.w3.org/2000/svg">
  <path d="M10.074 21.524c-.128-.184-.19-.364-.119-.604.18-.6.327-1.21.485-1.816.027-.104.042-.212.07-.358-.115.006-.203.007-.29.016-.19.03-.38.05-.57.058-.333-.007-.492-.251-.38-.562a1.9 1.9 0 0 1 .168-.327 19.045 19.045 0 0 1 2.092-2.89c.157-.175.327-.33.571-.35.329.195.346.486.272.795-.083.342-.185.68-.29 1.06.302-.058.58-.107.857-.168.165-.036.338-.086.458.067.135.17.099.362-.003.538-.22.38-.443.756-.666 1.133-.446.752-.889 1.508-1.342 2.256a9.044 9.044 0 0 1-.598.877c-.092.12-.254.185-.385.275h-.33Z"></path>
  <path d="M14.396 6.965c.303-.194.559-.38.834-.53 1.314-.72 2.692-.818 4.102-.35 1.848.614 2.581 2.462 2.42 3.92-.138 1.256-.76 2.269-1.66 3.126-.323.309-.744.46-1.165.591-.895.28-1.825.37-2.75.471-2.202.242-4.416.237-6.628.273-1.06.016-2.117 0-3.152-.266a9.527 9.527 0 0 1-.904-.274c-1.299-.474-2.21-1.35-2.703-2.644-.775-2.036-.663-4.023.519-5.86.986-1.532 2.402-2.597 4.223-2.907 2.309-.394 4.249.366 5.733 2.199.533.656.887 1.41 1.13 2.25Zm-4.748 6.29c.66-.025 1.32-.036 1.978-.074 1.784-.105 3.566-.238 5.35-.322a4.359 4.359 0 0 0 1.88-.526c1.03-.547 1.536-1.418 1.583-2.56.051-1.238-.619-2.219-1.729-2.55a4.055 4.055 0 0 0-2.039-.054c-.735.158-1.336.56-1.86 1.081-.233.233-.443.489-.677.72-.162.161-.356.245-.599.162-.24-.081-.348-.263-.386-.487a.67.67 0 0 1 .05-.318c.163-.465.096-.916-.06-1.367a5.026 5.026 0 0 0-1.041-1.756c-1.199-1.319-2.71-1.744-4.443-1.511-2.075.633-3.543 1.882-4.072 4.05a5.176 5.176 0 0 0-.034 2.205c.28 1.474 1.028 2.55 2.547 2.966.172.047.343.096.516.136 1.001.229 2.018.23 3.036.204Z"></path>
</svg>