<svg width="46" height="46" fill="currentColor" viewBox="0 0 24 24" xmlns="http://www.w3.org/2000/svg">
  <path d="M19.004 5.744a.45.45 0 0 0-.007-.677 78.202 78.202 0 0 1-.153-.13 15.465 15.465 0 0 0-1.2-.967c-3.18-2.239-6.485-2.251-9.822-1.064C4.801 3.98 2.861 6.13 2.055 9.292c-.9 3.534-.112 6.652 2.342 9.268.063.068.129.135.194.2 1.318 1.318 2.96 2.132 4.26 2.698.559.244 3.423.54 4.199.424 4.606-.688 7.637-3.286 8.693-7.632.202-.852.302-1.724.3-2.599a8.441 8.441 0 0 0-.458-2.7.466.466 0 0 0-.67-.258l-.012.008a.466.466 0 0 0-.208.56c.27.748.407 1.536.406 2.33-.009.953-.138 1.9-.384 2.82-.727 2.646-2.467 4.574-5.319 5.893-2.9 1.388-7.057-.015-8.163-.746a12.918 12.918 0 0 1-3.162-3.074c-1.365-1.932-1.671-4.71-.938-7.249a8.232 8.232 0 0 1 4.7-5.271c2.928-1.217 5.865-1.432 8.73.39.385.245 1.364 1.014 1.86 1.407a.45.45 0 0 0 .578-.017Z"></path>
  <path d="M10.73 14.793c.196-.186.304-.28.403-.384 3.163-3.305 6.628-6.28 10.113-9.233.132-.111.266-.254.422-.294.188-.048.495.008.579.11a.543.543 0 0 1 .064.53c-.082.214-.282.398-.463.559-1.08.96-2.19 1.887-3.252 2.866a661.47 661.47 0 0 0-6.612 6.192c-.96.91-1.329.946-2.212-.025-.581-.64-2.335-2.796-2.873-3.476a2.52 2.52 0 0 1-.202-.332c-.121-.215-.2-.452.04-.619.269-.185.46.008.618.21.161.204.299.428.47.622.536.6 2.327 2.641 2.905 3.274Z"></path>
</svg>