<svg width="46" height="46" fill="currentColor" viewBox="0 0 24 24" xmlns="http://www.w3.org/2000/svg">
  <path d="M8.292 16.47c.196-.187.304-.282.403-.385 3.169-3.313 6.64-6.296 10.13-9.256.132-.111.267-.254.424-.294.188-.048.495-.08.579.022.113.138.133.438.064.619-.082.215-.282.4-.463.56-1.082.963-2.194 1.892-3.257 2.874a658.393 658.393 0 0 0-6.624 6.206c-.961.911-1.331.948-2.216-.025-.582-.642-2.34-2.803-2.877-3.484a2.523 2.523 0 0 1-.203-.334c-.122-.215-.2-.452.04-.62.27-.185.46.009.62.211.16.205.298.43.47.623.537.602 2.331 2.648 2.91 3.283Z"></path>
</svg>