<svg width="46" height="46" fill="currentColor" viewBox="0 0 24 24" xmlns="http://www.w3.org/2000/svg">
  <path d="M21.508 7.906c-.099 1.865-.306 3.718-.942 5.495-.6 1.677-1.1 3.396-1.978 4.963-.12.216-.258.424-.356.65-.423.97-1.167 1.636-2.01 2.234-1.304.924-2.976.142-3.214-1.195-.106-.593-.16-1.196-.223-1.796-.095-.887-.157-1.78-.275-2.663a6.966 6.966 0 0 0-.332-1.271c-.13-.392-.42-.447-.72-.16a1.818 1.818 0 0 0-.511.971c-.168.806-.285 1.625-.49 2.42-.205.794-.477 1.573-.752 2.346-.149.42-.45.747-.784 1.045-.744.662-1.848.484-2.448-.162-1.138-1.223-1.946-2.612-2.338-4.245-.31-1.295-.71-2.57-.977-3.872-.404-1.966-.717-3.95-.627-5.97.028-.479.095-.955.2-1.424.242-1.148.997-1.871 2.036-2.319.913-.393 1.844-.496 2.807-.136.707.265 1.423.513 2.151.707.73.188 1.47.339 2.216.451.529.084 1.032-.077 1.512-.31a67.83 67.83 0 0 1 1.793-.833c.695-.313 1.43-.459 2.19-.535 1.538-.154 2.92 1 3.42 2.02.363.743.5 1.538.581 2.346.041.41.048.824.07 1.243Zm-18.06-.558c.002 1.185.217 3.324.545 4.84.295 1.37.66 2.723.986 4.084a9.485 9.485 0 0 0 1.949 3.867c.38.461.913.52 1.31.082.236-.265.425-.57.556-.9.423-1.062.645-2.18.842-3.304.107-.608.209-1.219.495-1.778.224-.438.521-.808.968-1.038.722-.373 1.477-.163 1.886.537.114.203.21.417.285.637.305.844.461 1.722.57 2.61.108.886.197 1.776.335 2.657.12.767.65 1.06 1.39.8a2.14 2.14 0 0 0 1.131-.916c.742-1.207 1.43-2.442 1.919-3.777.297-.811.595-1.623.877-2.44.767-2.218 1.156-4.491.946-6.844-.058-.646-.158-1.295-.506-1.853-.545-.87-1.266-1.473-2.383-1.414a4.942 4.942 0 0 0-1.683.366c-.682.289-1.354.605-2.02.93-.61.296-1.245.442-1.917.373-.532-.055-1.074-.1-1.586-.242a41.952 41.952 0 0 1-3.02-.964c-1.006-.365-1.887-.119-2.735.42a2.07 2.07 0 0 0-.894 1.243 6.892 6.892 0 0 0-.246 2.024Z"></path>
  <path d="M20.062 7.354c-.037.41-.053.823-.119 1.227a1.404 1.404 0 0 1-.25.594.564.564 0 0 1-.415.19c-.196-.007-.298-.194-.31-.382a4.932 4.932 0 0 1 .021-.696c.028-.327.075-.653.107-.98.092-.955-.3-1.705-.996-2.323-.102-.091-.233-.159-.311-.266a.554.554 0 0 1-.125-.355c.024-.176.205-.233.355-.197.199.04.388.119.557.232.985.734 1.555 1.683 1.486 2.956Z"></path>
  <path d="M19.686 10.755c.006.256-.025.495-.295.62a.403.403 0 0 1-.49-.093c-.193-.205-.165-.445-.065-.688.139-.338.298-.484.508-.455.237.033.335.212.342.616Z"></path>
</svg>