<svg width="46" height="46" fill="currentColor" viewBox="0 0 24 24" xmlns="http://www.w3.org/2000/svg">
  <path d="M11.384 7.195a13.067 13.067 0 0 1-3.273-.377c-.563-.144-1.099-.361-1.548-.744-.962-.822-.905-2.08.124-2.812.207-.147.431-.25.694-.179.258.07.31.276.113.457-.171.157-.379.28-.53.453-.493.571-.404 1.152.23 1.567.494.321 1.054.47 1.624.57 1.195.2 2.41.245 3.617.134.947-.076 1.892-.175 2.803-.448a5.45 5.45 0 0 0 1.236-.541.727.727 0 0 0 .288-1.005 1.103 1.103 0 0 0-.273-.299c-.157-.132-.33-.244-.492-.372-.187-.148-.182-.286.023-.422a.957.957 0 0 1 .867-.108c.931.309 1.341 1.211.955 2.115-.21.492-.588.821-1.053 1.059-.695.354-1.448.515-2.206.652-.432.078-.87.138-1.307.177-.63.055-1.262.083-1.892.123Z"></path>
  <path d="M11.03 9.298c-.316-.021-.756-.035-1.192-.09a1.224 1.224 0 0 1-.524-.211c-.246-.172-.233-.393.02-.563a.88.88 0 0 1 .377-.145 8.02 8.02 0 0 1 .944-.057c1.46.008 2.908-.094 4.333-.429.924-.217 1.834-.471 2.664-.952.036-.02.074-.036.11-.055.139-.07.298-.075.364.061a.444.444 0 0 1-.016.377c-.105.16-.247.295-.412.392-.435.26-.887.491-1.353.69-1.666.655-3.409.929-5.316.982Z"></path>
  <path d="M11.946 12.557c-.821-.06-1.643-.112-2.463-.182a1.854 1.854 0 0 1-.511-.147.32.32 0 0 1-.211-.398c.049-.204.209-.233.388-.215.41.043.82.127 1.228.123.892-.01 1.784-.06 2.676-.1 1.018-.045 2.02-.21 3.018-.405.372-.072.597.021.66.246.06.22-.093.407-.458.536-.865.305-1.771.377-2.676.428-.548.032-1.098.006-1.648.006l-.003.108Z"></path>
  <path d="M12.504 10.955c-1.752-.123-3.427-.213-5.052-.672a6.289 6.289 0 0 1-.803-.313 1.212 1.212 0 0 1-.304-.208c-.236-.209-.302-.448-.183-.614.105-.147.287-.1.592.03a7.49 7.49 0 0 0 1.28.43c1.223.275 2.475.326 3.72.42.384.03.767.066 1.15.107.109.014.216.04.319.079.17.061.276.18.264.372a.313.313 0 0 1-.285.306c-.256.037-.517.048-.698.063Z"></path>
  <path d="M11.663 15.682c-.142-.007-.39-.012-.635-.031a1.637 1.637 0 0 1-.361-.073c-.177-.056-.346-.146-.326-.365.02-.213.199-.28.381-.31.123-.016.247-.022.37-.018 1.085-.001 2.166-.046 3.23-.294.192-.044.424-.111.538.145.078.174-.045.352-.352.475-.879.35-1.8.468-2.845.471Z"></path>
  <path d="M11.04 13.985c-.763-.08-1.527-.15-2.289-.242a2.484 2.484 0 0 1-.59-.17.633.633 0 0 1-.296-.208.4.4 0 0 1-.039-.329c.027-.062.2-.118.28-.093 1.242.396 2.527.262 3.796.323.15-.002.3.022.442.07.095.038.227.165.22.24a.44.44 0 0 1-.214.298c-.128.064-.293.063-.442.068-.288.01-.577.003-.865.003l-.003.04Z"></path>
  <path d="M11.667 16.904c-.828-.072-1.556-.126-2.236-.417a1.1 1.1 0 0 1-.41-.259.432.432 0 0 1-.054-.37c.028-.074.196-.1.305-.136a.201.201 0 0 1 .12.02c.81.313 1.667.316 2.513.386.108.01.241.008.314.069.1.083.166.2.184.33a.358.358 0 0 1-.194.273 2.972 2.972 0 0 1-.542.104Z"></path>
  <path d="M11.788 18.268c-.179-.012-.413-.017-.645-.047a.92.92 0 0 1-.345-.119c-.281-.169-.281-.375.019-.51.203-.078.418-.124.636-.137.735-.079 1.473-.143 2.21-.215.151-.015.313-.055.387.133.067.17-.031.292-.157.388-.398.304-.874.387-1.351.454-.23.032-.466.034-.754.053Z"></path>
  <path d="M12.208 20.197c-.252-.053-.428-.056-.567-.129-.101-.053-.214-.2-.213-.303.001-.103.125-.276.22-.294a9.22 9.22 0 0 1 1.218-.144.333.333 0 0 1 .258.2c.017.112-.04.305-.125.35a6.85 6.85 0 0 1-.791.32Z"></path>
  <path d="M8.013 8.734c-.3-.066-.652-.15-.916-.409a.47.47 0 0 1-.1-.364.276.276 0 0 1 .351-.21c.309.063.612.15.909.256a.371.371 0 0 1 .249.429c-.03.177-.21.295-.493.298Z"></path>
  <path d="M11.474 18.603c.205 0 .41-.005.615.001.162.006.301.059.316.252.014.188-.122.265-.27.312a.755.755 0 0 1-.283.028 17.82 17.82 0 0 1-.896-.095.5.5 0 0 1-.265-.098.41.41 0 0 1-.128-.268c0-.047.135-.127.214-.134.231-.018.464-.006.697-.006v.008Z"></path>
  <path d="M15.032 10.603c-.175-.025-.273-.013-.334-.055-.091-.063-.2-.153-.222-.25a.3.3 0 0 1 .142-.257c.309-.108.626-.188.949-.24.092-.013.247.107.303.206a.266.266 0 0 1-.145.378 7.186 7.186 0 0 1-.693.218Z"></path>
  <path d="M11.676 20.364c.181.04.437.091.688.154.152.039.255.16.206.304a.458.458 0 0 1-.26.268c-.304.083-.594-.024-.87-.158-.149-.072-.235-.19-.196-.365.033-.146.148-.209.432-.203Z"></path>
  <path d="M13.887 13.88c-.202-.015-.32 0-.418-.038-.09-.036-.214-.126-.22-.2-.007-.098.066-.276.138-.296.3-.083.608-.135.919-.157.077-.005.225.143.233.23.01.111-.061.291-.15.335-.176.087-.39.101-.502.127Z"></path>
  <path d="M13.373 16.753c-.239-.005-.383-.115-.375-.289.008-.177.224-.32.469-.304.178.012.332.069.35.275.018.194-.17.323-.444.318Z"></path>
  <path d="M9.529 15.327c-.236-.014-.43-.183-.415-.363a.333.333 0 0 1 .343-.284c.23.002.463.209.429.395-.035.191-.17.265-.357.252Z"></path>
</svg>