<svg width="46" height="46" fill="currentColor" viewBox="0 0 24 24" xmlns="http://www.w3.org/2000/svg">
  <path d="M17.592 11.985c-.269-.693-.91-1.049-1.63-.906a2.022 2.022 0 0 0-.497.195c-.065.032-.13.065-.198.095a1.543 1.543 0 0 0-1.06-.92c-.567-.15-1.03-.025-1.38.372-.262-.422-.534-.63-.902-.693-.387-.067-.7.083-1.039.335l-.031-.477c-.026-.392-.05-.763-.086-1.135l-.042-.434c-.062-.652-.126-1.326-.244-1.98-.088-.42-.25-.82-.479-1.184-.148-.25-.338-.406-.566-.462-.243-.06-.52.001-.8.176-.45.279-.557.742-.601 1.114a8.992 8.992 0 0 0-.046.896l-.003.137-.015.683c-.018.789-.037 1.604-.036 2.406 0 .595.018 1.18.038 1.799l.021.737-.017-.015a2.19 2.19 0 0 0-.152-.124c-.816-.599-1.688-.812-2.594-.632a1.181 1.181 0 0 0-.896.723 1.262 1.262 0 0 0 .175 1.2c.13.167.278.319.44.453l.056.05a6.496 6.496 0 0 1 1.47 1.845c.509.983 1.083 2.02 1.753 3.172.175.299.455.545.68.726.41.33.904.604 1.553.862.597.24 1.235.363 1.878.363a6.19 6.19 0 0 0 2.098-.393 4.562 4.562 0 0 0 2.634-2.618c.635-1.635.882-3.415.756-5.44a3.173 3.173 0 0 0-.238-.926Zm-8.849 1.733a516.413 516.413 0 0 0-.061-3.009 54.533 54.533 0 0 0-.023-.7 24.45 24.45 0 0 1-.025-1.4c.015-.758.066-1.528.116-2.273l.016-.236c.027-.416.176-.627.495-.698.258.169.419.448.49.851.106.607.18 1.218.224 1.833.055.801.097 1.617.138 2.407.02.404.042.809.064 1.213.014.252.116.398.312.445.198.049.362-.057.486-.313l.057-.12c.114-.238.232-.484.366-.714.08-.14.228-.297.47-.25.206.042.344.192.387.424.031.192.05.386.059.58l.007.108a.723.723 0 0 1-.008.125.456.456 0 0 0 .01.213c.045.12.132.218.245.277a.293.293 0 0 0 .397-.166c.025-.062.046-.125.062-.19l.025-.09.049-.168c.032-.127.073-.252.124-.373l.004-.008c.119-.263.231-.512.564-.488.269.019.62.125.762.526.065.213.104.433.117.656l.01.098c.004.041.005.084.007.127.007.194.015.414.29.488.286.077.396-.119.493-.292.02-.035.039-.07.06-.103l.059-.093c.083-.144.181-.28.291-.404.156-.164.332-.242.497-.22.163.022.31.141.416.336.257.45.381.965.357 1.483a53.317 53.317 0 0 1-.28 2.782c-.089.731-.385 1.405-.663 1.967-.43.87-1.167 1.462-2.251 1.806-1.554.494-3.079.224-4.532-.801a1.614 1.614 0 0 1-.399-.39 11.57 11.57 0 0 1-.67-1.08 46.072 46.072 0 0 1-.967-1.91c-.49-1.024-1.116-1.832-1.915-2.466a1.401 1.401 0 0 1-.337-.39.317.317 0 0 1-.037-.26.38.38 0 0 1 .218-.216c.158-.07.33-.107.502-.106.094 0 .187.01.279.027.701.13 1.172.392 1.48.821.109.171.193.356.249.55.017.05.034.1.052.148.068.188.165.363.4.365h.005c.206 0 .356-.128.411-.352.032-.123.048-.25.047-.377Z"></path>
  <path d="M17.544 3.155c-.374-.137-.777-.254-1.188-.187-1.426.233-2.353.811-2.915 1.821a2.94 2.94 0 0 0-.167 2.527 2.835 2.835 0 0 0 1.785 1.665c.283.082.571.142.864.179.085.012.16.023.218.034l.004.001h.005c1.042-.028 1.716-.19 2.327-.554.776-.464 1.212-1.162 1.297-2.074.15-1.617-1.223-3.044-2.23-3.412Zm.464 4.719c-.487.298-1.056.45-1.793.474l-.125-.014a8.033 8.033 0 0 1-.355-.045c-.806-.127-1.403-.578-1.68-1.27a2.37 2.37 0 0 1 .332-2.278c.421-.549.96-.856 1.601-.913a1.59 1.59 0 0 1 .547.062c.754.209 1.409.68 1.846 1.329.384.568.502 1.077.373 1.601a1.628 1.628 0 0 1-.746 1.054Z"></path>
  <path d="M11.134 7.005c.214.165.435.054.582-.044.314-.208.508-.517.595-.944.141-.693-.03-1.454-.472-2.088a2.827 2.827 0 0 0-1.857-1.204c-1.553-.24-3.119.823-3.679 1.948-.419.84-.261 1.864.384 2.49.14.136.362.316.671.316h.013c.193-.003.4-.038.468-.277.07-.236-.107-.353-.235-.44-.668-.445-.845-1.169-.448-1.844.48-.818 1.251-1.33 2.117-1.405.624-.004 1.186.212 1.579.603a1.858 1.858 0 0 1 .549 1.325c0 .368-.147.679-.31.99-.066.125-.203.385.043.574Z"></path>
  <path d="M17.38 5.64h-.004c-.1 0-.202.009-.3.017a6.537 6.537 0 0 1-.153.012l-.283.016-.107.005-.02-.314a29.29 29.29 0 0 0-.053-.779c-.031-.357-.212-.44-.358-.446-.211-.008-.351.147-.38.43-.04.409-.082.896-.089 1.398a.553.553 0 0 0 .16.432c.106.09.24.136.379.13a.903.903 0 0 0 .093-.005c.24-.026.483-.062.717-.097l.263-.038.014-.002c.066-.008.13-.02.194-.039.244-.078.367-.237.329-.426-.027-.134-.119-.294-.403-.294Z"></path>
</svg>