<svg width="46" height="46" fill="currentColor" viewBox="0 0 24 24" xmlns="http://www.w3.org/2000/svg">
  <path d="m13.47 9.536.734-.692c-.134-.17-.253-.314-.363-.464-.098-.131-.23-.259-.267-.408a.616.616 0 0 1 .073-.452c.111-.159.32-.16.485-.053.167.12.327.248.48.385.083.069.163.141.236.205L16.08 6.78c-.084-.004-.226-.015-.367-.02-.343-.011-.688-.005-1.03-.036a.361.361 0 0 1-.343-.391.369.369 0 0 1 .341-.356c.123-.013.247-.019.37-.016.77-.016 1.538-.029 2.307-.05.387-.01.592.11.656.474.116.662.214 1.327.294 1.995a.545.545 0 0 1-.476.62c-.278.022-.512-.213-.544-.556-.008-.082.013-.165.01-.247a8.028 8.028 0 0 0-.078-1.045c-.605.486-1.14 1.025-1.733 1.627.15.117.298.201.403.324.12.13.212.284.271.45a.475.475 0 0 1-.357.617.477.477 0 0 1-.264-.021c-.173-.061-.326-.193-.473-.312a2.708 2.708 0 0 1-.286-.32l-.688.78c-.001-.002.042.079.092.155 1.091 1.65 1.227 3.401.521 5.226-.412 1.063-1.18 1.77-2.274 2.109a6.502 6.502 0 0 1-3.217.196c-1.766-.346-2.803-1.46-3.26-3.163-.387-1.443-.205-2.804.586-4.075a2.43 2.43 0 0 1 .413-.51 5.376 5.376 0 0 1 2.56-1.316 5.502 5.502 0 0 1 2.686.111c.43.12.834.329 1.27.506Zm-3.082 7.77c.465-.082 1.026-.148 1.57-.282.925-.227 1.525-.828 1.845-1.722.339-.947.402-1.918.132-2.878-.371-1.313-1.126-2.266-2.57-2.534-1.143-.212-2.23-.192-3.245.457-.47.288-.854.698-1.11 1.187-.625 1.202-.536 2.415-.077 3.63.41 1.085 1.192 1.762 2.335 1.994.335.068.68.09 1.12.147Z"></path>
</svg>