<svg width="46" height="46" fill="currentColor" viewBox="0 0 24 24" xmlns="http://www.w3.org/2000/svg">
  <path d="M7.327 5.294c.166-.176.283-.311.411-.434.245-.235.526-.282.697-.125.195.18.167.445-.097.726-.13.14-.284.256-.468.419l1.311 1.1c1.843-1.223 3.883-1.362 5.99-.218l2.966-2.728c-.207.009-.34.016-.472.02-.33.011-.659.022-.989.03-.199.004-.373-.055-.377-.283-.003-.196.144-.282.329-.302.791-.086 1.582-.188 2.376-.253.461-.038.618.123.652.59.037.507.06 1.015.087 1.523a1.19 1.19 0 0 1-.009.246.482.482 0 0 1-.474.43.475.475 0 0 1-.43-.433c-.005-.109 0-.218.017-.326l.057-.739a49.847 49.847 0 0 0-3.125 2.866c.226.428.467.814.641 1.229.65 1.548.564 3.087-.16 4.584-.536 1.112-1.496 1.682-2.675 1.923-.24.049-.483.088-.76.139l.085 2.102c.32-.026.603-.052.886-.071a4.87 4.87 0 0 1 .694-.025.394.394 0 0 1 .36.346c.04.213-.038.402-.23.482a1.817 1.817 0 0 1-.596.119c-.34.018-.682.005-1.049.005.026.522.052 1 .072 1.477.009.22.017.44.006.66a1.143 1.143 0 0 1-.084.355.424.424 0 0 1-.409.295.42.42 0 0 1-.414-.286 1.65 1.65 0 0 1-.108-.478c-.035-.534-.053-1.07-.078-1.606-.006-.12-.016-.24-.027-.408-.304 0-.59.005-.874-.001a3.728 3.728 0 0 1-.534-.043c-.273-.046-.415-.217-.393-.442.02-.21.156-.315.445-.321.343-.008.687-.001 1.031-.005.093 0 .186-.017.337-.032v-2.09c-.28-.03-.609-.046-.928-.107-1.872-.353-3.045-1.587-3.434-3.537-.276-1.382-.014-2.643.73-3.821.029-.046.052-.095.053-.097L7.224 6.525c-.176.167-.33.317-.489.461-.08.074-.165.177-.26.193a.524.524 0 0 1-.369-.07C5.968 7.003 6 6.83 6.1 6.7c.183-.237.381-.463.598-.724l-1.65-1.698-.083.031c.022.378.057.756.06 1.133-.003.232-.03.462-.078.689a.328.328 0 0 1-.348.29c-.195-.006-.297-.135-.335-.31a1.777 1.777 0 0 1-.07-.484c.043-.658.093-1.316.164-1.97.046-.422.183-.543.613-.571a60.147 60.147 0 0 1 1.975-.094c.395-.012.618.142.622.39.004.263-.248.417-.655.39-.377-.025-.753-.06-1.13-.09l-.039.094 1.584 1.519Zm4.311 1.665c-.453-.06-1.057.18-1.645.497a3.008 3.008 0 0 0-1.337 1.406c-.576 1.223-.447 2.437.045 3.635.422 1.028 1.208 1.648 2.299 1.867 1.009.204 2 .101 2.965-.232a2.24 2.24 0 0 0 1.357-1.198c.722-1.586.681-3.142-.29-4.627-.252-.384-.574-.712-.999-.901-.686-.306-1.41-.447-2.395-.447Z"></path>
</svg>