<svg width="46" height="46" fill="currentColor" viewBox="0 0 24 24" xmlns="http://www.w3.org/2000/svg">
  <path d="m3.349 21.724.114-.003a50.46 50.46 0 0 0 1.965-.137c.278-.023.557-.046.835-.067.735-.056 1.012-.378.958-1.114a21.524 21.524 0 0 1-.034-.6h9.728c.006.032.01.064.01.097v.073c.004.094 0 .188-.011.282-.075.528-.031.854.143 1.059.208.245.584.3 1.122.309.133.002.235.001.33-.003.24-.01.48-.02.719-.032.482-.023.981-.047 1.472-.059.665-.016.953-.296.963-.938.016-.945.021-1.887.025-2.771.003-.617-.214-.838-.827-.847-.256-.004-.513-.003-.785-.002h-.32V6.96c.064-.005.128-.01.192-.013.2-.014.407-.028.613-.047.607-.055.97-.23 1.034-.963.076-.879.07-1.776.064-2.645v-.086a.816.816 0 0 0-.677-.806 4.839 4.839 0 0 0-1.144-.09c-.52.014-1.049.044-1.56.073-.32.018-.64.036-.96.05-.539.024-.69.179-.709.718a39.48 39.48 0 0 1-.026.603l-.008.192c-1.747.199-8.681.26-9.734.088l-.016-.216a31.348 31.348 0 0 0-.053-.638c-.06-.621-.266-.812-.88-.816-.76-.005-1.588-.005-2.605 0-.281 0-.468.063-.59.195-.124.135-.17.337-.148.635l.006.078c.02.2.029.402.027.603-.011.431-.027.87-.043 1.294l-.036 1.068c-.007.25.044.427.158.545.112.116.283.173.524.174.23 0 .466-.017.716-.036l.29-.021-.21 10.21-.004.162-.198.025c-.23.03-.477.062-.723.096-.315.044-.468.226-.483.574a51.656 51.656 0 0 1-.166 2.599c-.04.441.022.733.198.918.155.164.393.242.744.242Zm.069-15.859L3.29 3.332h2.489v2.333l-2.361.2Zm3.465-.707-.014-.18h9.72l.024.337c.021.303.043.617.079.923.07.604.335.83.946.814.237-.007.474-.018.726-.03l.276-.013c-.205 3.853-.209 7.042-.014 10.02l-.28.027-.763.072c-.365.033-.56.235-.58.6-.01.21-.031.423-.053.649l-.024.255-9.78.248-.037-.327c-.03-.268-.057-.498-.089-.733-.069-.506-.274-.709-.741-.709a1.73 1.73 0 0 0-.14.006 7.242 7.242 0 0 1-.228.011c-.087.004-.174.007-.26.014-.11.01-.217.022-.353.038l-.137.016V6.8l.196-.018c.22-.021.471-.045.717-.062.58-.041.857-.343.847-.923a10.143 10.143 0 0 0-.038-.639Zm13.569.606-2.519.105-.234-2.51h2.632c.205 0 .279.076.282.29.011.713.007 1.411-.162 2.115ZM3.399 20.591V18.28l2.609-.167v2.257l-2.609.222Zm14.442-2.574h2.87l-.177 2.388h-2.57l-.123-2.388Z"></path>
</svg>