<svg width="46" height="46" fill="currentColor" viewBox="0 0 24 24" xmlns="http://www.w3.org/2000/svg">
  <path d="M20.786 15.734c-.162.005-.329.004-.49.002h-.188l-.012-.168c-.009-.123-.017-.23-.02-.337a149.55 149.55 0 0 0-.026-.82c-.024-.737-.049-1.498-.05-2.246-.001-.53-.022-.599-.557-.623-.069-.003-.138-.004-.206-.005h-.849c-1.816 0-3.695-.002-5.54.162-.08.005-.16.007-.24.003l-.083-.002-.213-3.636.097-.007c.095-.007.184-.014.273-.015.128-.002.255-.001.382-.001.184 0 .374.001.561-.005.5-.018.682-.185.695-.638a62.36 62.36 0 0 0 .01-3.313c-.007-.266-.072-.452-.199-.569-.14-.128-.36-.18-.69-.16-.938.057-1.865.12-2.734.182l-.085.005a6.43 6.43 0 0 0-.77.085c-.23.045-.354.205-.352.45.005.458.005.925.005 1.375 0 .595 0 1.21.012 1.816.01.59.118.659.662.747.096.015.193.024.29.027l.863.037.292.013v3.652a5.956 5.956 0 0 0-.08.012 2.11 2.11 0 0 1-.237.03c-1.881.083-3.762.166-5.643.247-.156.007-.312.01-.468.015l-.391.01c-.292.012-.457.066-.55.181-.09.112-.109.284-.06.557.011.063.024.126.037.189.022.108.045.22.059.332.108.823.136 1.655.084 2.484h-.368c-.298-.001-.588-.002-.878 0-.446.005-.63.17-.683.609a15.457 15.457 0 0 0-.014 3.398c.033.323.176.474.493.522.165.021.332.027.498.016.534-.025 1.067-.05 1.6-.077.571-.029 1.142-.056 1.713-.083.317-.014.54-.1.681-.26.142-.16.198-.39.173-.704-.025-.316-.063-.73-.13-1.141a41.95 41.95 0 0 0-.337-1.853c-.077-.373-.245-.512-.599-.493-.291.015-.587.012-.873.008l-.33-.003-.343-2.964 6.779-.197v2.967l-.169.011c-.131.01-.248.017-.365.022l-.554.022c-.328.012-.667.024-1.001.043-.164.01-.292.076-.341.179a.237.237 0 0 0 .031.247c.127.18.123.365.12.56-.002.04-.003.08-.002.121.002.28 0 .559 0 .838-.002.49-.003.998.012 1.497a3.2 3.2 0 0 0 .107.637c.02.081.04.162.056.244.083.4.419.487.664.517.092.009.185.012.278.01h.222l3.232.02c.111.003.223-.005.333-.022.213-.037.364-.124.449-.26.086-.138.098-.317.036-.531a1.478 1.478 0 0 1-.042-.383c-.006-.325-.008-.65-.01-.976-.006-.672-.012-1.366-.047-2.049-.033-.643-.28-.746-.864-.742-.276.002-.552.002-.847.001h-.391l-.178-3.06 6.862-.177-.151 3.405h-.26l-.569.001c-.124.002-.248.001-.371.001-.324 0-.656 0-.982.025-.425.033-.555.186-.537.63.015.364.03.641.048.9l.04.588c.038.583.078 1.186.136 1.778.06.605.322.851.937.879l.68.03a955.013 955.013 0 0 0 2.57.11c.107.001.213-.01.316-.035.26-.064.402-.2.422-.405.04-.438.069-.875.083-1.298.01-.302.008-.609.007-.906v-.404c0-.11.002-.221.005-.332.005-.24.011-.49-.007-.735-.042-.582-.328-.832-.929-.814Zm-10.701.568h3.787v3.397l-3.579.112-.208-3.51Zm-7.015.136h3.184c.037.27.084.547.13.815.112.665.228 1.352.232 2.082l-3.408.205c-.168-.894-.209-1.826-.138-3.102ZM13.573 4.336 13.5 6.618l-.018.574-.024.002c-1.058.074-2.151.151-3.242.14l-.149-3.225h3.483l.008.067a.96.96 0 0 1 .014.16Zm7.23 12.186v3.194h-3.3l-.378-3.367a26.12 26.12 0 0 1 3.678.173Z"></path>
</svg>