<svg width="46" height="46" fill="currentColor" viewBox="0 0 24 24" xmlns="http://www.w3.org/2000/svg">
  <path d="M20.14 15.527a3.97 3.97 0 0 0-.774-.38c-.124-.051-.252-.103-.38-.162l-.028-.391c-.023-.331-.048-.686-.071-1.04l-.045-.722c-.03-.492-.06-1-.102-1.5-.033-.381-.082-.423-.472-.415-.587.013-1.183.031-1.76.048-.636.02-1.294.039-1.94.053-.482.01-.956.007-1.46.005-.213-.002-.43-.003-.65-.003l.077-2.506c1.264-.195 2.018-.943 2.24-2.223.168-.966-.295-1.768-1.208-2.095a6.935 6.935 0 0 0-1.102-.305c-.64-.115-1.147-.02-1.508.284-.58.49-.944 1.008-1.112 1.584-.27.925.014 1.734.802 2.278.152.098.313.183.48.253.07.032.14.063.21.097a5.2 5.2 0 0 0 .181.084v2.657l-1.032.072c-.813.056-1.58.11-2.36.173-.698.058-1.406.128-2.091.196l-.785.077c-.304.03-.466.196-.467.481 0 .313.004.57.017.81.03.56.061 1.118.093 1.674l.037.628c-.929.487-1.521 1.15-1.81 2.024-.208.628-.177 1.255.085 1.765a2.005 2.005 0 0 0 1.222.995c.299.096.61.146.925.148a2.89 2.89 0 0 0 1.736-.595c1.07-.79 1.137-2.112.842-3.085-.241-.795-.811-1.259-1.694-1.378l-.275-.034-.106-.013-.106-2.636c.765-.183 5.255-.477 5.837-.383l-.149 2.968-.072.027c-.07.026-.138.052-.206.076a3.02 3.02 0 0 0-1.563 1.278 2.24 2.24 0 0 0 .155 2.553c.679.868 1.972 1.241 3.145.909.976-.277 1.689-1.17 1.814-2.277.132-1.16-.333-1.934-1.423-2.364-.13-.052-.267-.091-.4-.13a8.127 8.127 0 0 1-.183-.055l-.278-.086-.103-2.966c1.243-.145 5.154-.173 5.637-.073v2.771a1.766 1.766 0 0 1-.015.19l-.01.084-.075.025-.201.067a2.974 2.974 0 0 0-1.326.87 2.504 2.504 0 0 0-.522 2.204c.125.474.468 1.106 1.384 1.424 1.172.407 2.27.176 3.178-.668a2.239 2.239 0 0 0 .723-1.771c-.03-.438-.222-1.067-.957-1.576Zm-.397 2.661c-.389.403-.896.602-1.644.645l-.094-.01a2.683 2.683 0 0 1-.24-.032c-.506-.097-.893-.358-1.089-.734-.196-.376-.187-.84.025-1.305.26-.574.703-.954 1.28-1.1a.905.905 0 0 1 .218-.024c.25.01.496.069.724.17.312.15.595.354.833.604.506.503.5 1.255-.013 1.786Zm-7.725-2.352c.127.048.259.089.386.128.206.06.407.132.603.218.492.232.712.59.712 1.161 0 .978-.572 1.622-1.569 1.765-.924.133-1.802-.377-2.042-1.188a1.338 1.338 0 0 1 .131-1.132c.146-.223.314-.43.501-.62.262-.277.543-.414.85-.414.146.002.291.03.428.082Zm-.516-11.149a.8.8 0 0 1 .336-.089c.03 0 .062.003.092.01.43.11.854.245 1.268.405.48.187.712.57.669 1.11-.08 1.008-.816 1.642-1.92 1.654l-.137-.033a2.892 2.892 0 0 1-.53-.162c-.785-.352-1.048-1.013-.722-1.814.203-.501.52-.865.944-1.08Zm-6.807 11.56a1.29 1.29 0 0 1 .697-.191c.239.001.474.053.691.15.484.215.813.601.88 1.033.018.113.026.226.031.318l.007.09c-.008.733-.349 1.248-.988 1.49-.558.21-1.025.22-1.47.027-.518-.223-.776-.627-.745-1.167.036-.613.3-1.164.807-1.683a.44.44 0 0 1 .079-.058l.011-.008Z"></path>
</svg>