<svg width="46" height="46" fill="currentColor" viewBox="0 0 24 24" xmlns="http://www.w3.org/2000/svg">
  <path d="M18.585 8.56h-.008l-.307.003h-.013c-.128.003-.256.005-.384.005h-.037c-1.265.006-2.53.093-3.784.26-.1.013-.409.052-.422.385-.01.237.153.404.426.436.135.014.27.017.407.009l1.554-.069.138-.006a782.604 782.604 0 0 1 1.147-.05l-4.207 3.243-.788-.722c-.565-.518-1.149-1.054-1.726-1.577-.348-.315-.649-.326-.975-.037l-.197.174c-.751.664-1.527 1.351-2.283 2.035-.833.752-1.655 1.514-2.278 2.093-.14.132-.263.28-.368.44a.396.396 0 0 0 .068.52.41.41 0 0 0 .285.123.424.424 0 0 0 .197-.051l.05-.026c.088-.041.171-.092.248-.151l.183-.153a56.15 56.15 0 0 0 1.257-1.07c.794-.704 1.6-1.424 2.378-2.121l.014-.013c.3-.27.602-.539.905-.81l.037.028c.047.034.092.07.135.107l.487.451c.623.577 1.268 1.174 1.896 1.765.343.324.604.346.963.082.058-.042.113-.087.17-.133l.013-.01.1-.08c1.26-.978 2.52-1.954 3.78-2.93.067-.052.137-.102.21-.153l-.263 1.019-.029.112c-.095.365-.19.73-.283 1.096l-.01.042a1.18 1.18 0 0 0-.056.334.579.579 0 0 0 1.06.309c.072-.111.123-.233.151-.362.24-1.108.523-2.423.805-3.782.047-.224.012-.414-.1-.551-.116-.14-.304-.215-.546-.215Z"></path>
  <path d="M22.047 13.942a284.43 284.43 0 0 0-.218-4.488 90.6 90.6 0 0 0-.24-3.33c-.166-1.755-1.579-3.026-3.436-3.09a205.92 205.92 0 0 0-4.125-.086 51.791 51.791 0 0 0-1.157 0c-.621.006-1.264.012-1.893-.022-1.429-.075-2.944-.012-4.91.205-1.28.142-2.243.518-3.03 1.184-.65.55-.967 1.186-.969 1.947 0 .245-.005.494-.014.738-.008.216-.023.436-.037.65-.04.455-.052.913-.033 1.37l.037.573c.098 1.493.199 3.037.096 4.562-.042.628-.03 1.27-.02 1.889l.003.137c.019 1.064.174 1.998.475 2.858.325.927.956 1.491 1.876 1.676.569.118 1.146.191 1.727.218 1.08.044 2.179.069 3.241.093l1.296.03h.002a.07.07 0 0 0 .04-.014h1.199l.454.001c1.789.004 3.639.008 5.445-.276.63-.098 1.366-.236 2.048-.51 1.368-.55 2.106-1.564 2.194-3.014.056-.931.014-1.87-.027-2.776l-.024-.525ZM3.281 12.926a77.932 77.932 0 0 0-.155-3.293c-.065-1.006-.105-2.332.172-3.676a.148.148 0 0 0 .008-.057c-.065-.755.475-1.05 1.045-1.363l.02-.011c.553-.304 1.166-.41 1.747-.492a28.397 28.397 0 0 1 3.984-.241c.555 0 1.103.01 1.64.02.976.021 1.969.034 2.929.047.837.011 1.704.023 2.555.04.395.004.79.038 1.179.1 1.401.234 2.176 1.145 2.241 2.635a733.2 733.2 0 0 1 .15 3.671l.109 2.71c.013.326.032.657.05.976.028.503.058 1.022.068 1.533a22.75 22.75 0 0 1-.056 1.803c-.052.847-.545 1.449-1.465 1.788a8.652 8.652 0 0 1-1.74.416c-1.994.297-4.042.284-6.022.271l-.262-.001h-.454a.082.082 0 0 0-.066.033l-1.303-.032a478.217 478.217 0 0 1-3.865-.106 6.43 6.43 0 0 1-.986-.136l-.06-.012c-.544-.104-.908-.44-1.082-1a9.172 9.172 0 0 1-.392-2.696 57.97 57.97 0 0 1 .009-1.254c.007-.548.015-1.115.002-1.673Z"></path>
</svg>