<svg width="46" height="46" fill="currentColor" viewBox="0 0 24 24" xmlns="http://www.w3.org/2000/svg">
  <path d="M3.142 8.786c.664.617 1.45 1.345 2.249 2.064a453.99 453.99 0 0 0 1.78 1.594c.615.55 1.253 1.118 1.876 1.68.506.456.827.459 1.32.011.702-.637 1.412-1.289 2.098-1.92l1.004-.921a.915.915 0 0 1 .073-.06l5.476 4.224h-.015a774.178 774.178 0 0 0-3.09-.12l-.037-.002a14.54 14.54 0 0 0-1.164-.011.45.45 0 0 0-.44.458c-.013.252.152.428.429.46l.512.061c.585.071 1.19.145 1.788.177.83.045 1.672.065 2.488.084a367.368 367.368 0 0 1 .987.024c.31 0 .535-.08.668-.24.138-.165.175-.409.109-.724a641.41 641.41 0 0 0-.994-4.67 1.57 1.57 0 0 0-.208-.519.68.68 0 0 0-1.236.353c-.003.145.015.29.056.43.114.435.23.87.347 1.304l.352 1.319c.026.11.047.223.061.336l.006.035a2.167 2.167 0 0 1-.108-.074c-.306-.228-.613-.455-.92-.681-.752-.557-1.53-1.132-2.283-1.711a45.875 45.875 0 0 1-1.281-1.036 67.293 67.293 0 0 0-.862-.706c-.463-.37-.771-.352-1.222.072-.834.788-1.691 1.58-2.52 2.344l-.5.462c-.058.05-.12.095-.184.135l-.047.031-.576-.497c-.468-.404-.91-.785-1.355-1.182-.455-.405-.914-.82-1.358-1.221-.61-.55-1.24-1.12-1.866-1.671a13.01 13.01 0 0 0-1.102-.838l-.086-.061a.467.467 0 0 0-.634.066.483.483 0 0 0-.038.635c.13.184.28.354.447.506Z"></path>
</svg>