<svg width="46" height="46" fill="currentColor" viewBox="0 0 24 24" xmlns="http://www.w3.org/2000/svg">
  <path d="M3.151 16.59a.488.488 0 0 0 .227-.06l.063-.032c.108-.05.21-.113.305-.186l.23-.193a69.945 69.945 0 0 0 1.594-1.356 758.857 758.857 0 0 0 3.03-2.702l1.177-1.054.08.06c.062.043.12.09.176.14l.605.56c.794.734 1.614 1.493 2.414 2.247.418.394.72.42 1.156.1.074-.054.145-.112.213-.168l.144-.115 4.79-3.712c.098-.076.199-.146.316-.227l.056-.04c0 .014 0 .028-.003.042l-.365 1.41c-.13.498-.258.998-.387 1.497l-.013.051a1.552 1.552 0 0 0-.07.412.683.683 0 0 0 1.252.364c.087-.136.149-.285.183-.442a631.35 631.35 0 0 0 1.02-4.791c.056-.268.016-.495-.117-.656-.135-.166-.36-.254-.65-.254h-.01l-.39.006c-.167.003-.335.006-.503.006h-.047c-1.601.007-3.2.117-4.788.33-.204.025-.477.1-.49.439-.012.27.178.462.494.5.168.017.338.02.507.01l1.97-.087 1.531-.068a4.53 4.53 0 0 1 .248-.002l-5.482 4.226-.144-.131a612.1 612.1 0 0 1-.882-.81c-.717-.657-1.458-1.337-2.192-2.001-.423-.383-.771-.397-1.167-.047l-.229.203c-.957.847-1.948 1.724-2.913 2.595a264.65 264.65 0 0 0-2.885 2.652 3.052 3.052 0 0 0-.458.549.453.453 0 0 0 .079.595.464.464 0 0 0 .325.14Z"></path>
</svg>