<svg width="46" height="46" fill="currentColor" viewBox="0 0 24 24" xmlns="http://www.w3.org/2000/svg">
  <path d="M19.048 14.584a496.321 496.321 0 0 0-.784-3.687 1.28 1.28 0 0 0-.17-.422.579.579 0 0 0-1.05.298 1.2 1.2 0 0 0 .046.352c.09.343.182.687.274 1.03l.277 1.04c.016.061.027.125.039.197l-.008-.005-.683-.507-.051-.038c-.591-.436-1.202-.888-1.794-1.343a36.03 36.03 0 0 1-1.01-.817c-.22-.183-.45-.372-.68-.557-.381-.305-.647-.29-1.017.059a231.84 231.84 0 0 1-1.99 1.85l-.394.364a1.12 1.12 0 0 1-.14.103l-.011.007-.432-.372a84.47 84.47 0 0 1-2.13-1.886l-.01-.01a169.51 169.51 0 0 0-1.473-1.32 10.26 10.26 0 0 0-.873-.663l-.068-.049a.407.407 0 0 0-.553.058.42.42 0 0 0-.034.552c.105.147.225.283.358.405a158.27 158.27 0 0 0 1.776 1.63c.463.417.936.839 1.393 1.247l.012.01c.486.434.988.883 1.48 1.326.415.374.692.376 1.096.009.555-.503 1.115-1.018 1.656-1.515a1082.32 1082.32 0 0 1 .822-.754l4.2 3.238c-.284-.01-.567-.022-.85-.033-.492-.02-.984-.039-1.477-.057l-.028-.001c-.302-.011-.613-.023-.922-.01a.392.392 0 0 0-.387.4c-.01.22.137.378.375.406l.404.048c.462.056.94.114 1.414.14.656.036 1.322.051 1.966.066l.737.019h.042c.257 0 .445-.068.558-.204.117-.139.149-.342.094-.604Z"></path>
  <path d="M21.967 13.942c-.07-1.681-.14-3.149-.217-4.488a90.965 90.965 0 0 0-.241-3.33c-.166-1.755-1.578-3.026-3.435-3.09a206.076 206.076 0 0 0-4.125-.086 51.81 51.81 0 0 0-1.157 0c-.622.006-1.264.012-1.893-.022-1.43-.075-2.944-.012-4.91.205-1.28.142-2.243.518-3.031 1.184-.65.55-.967 1.186-.968 1.947 0 .245-.006.494-.015.738-.008.216-.023.436-.037.65-.04.455-.051.913-.032 1.37l.037.573c.097 1.493.198 3.037.096 4.562-.042.628-.03 1.27-.02 1.889l.003.137c.019 1.064.174 1.998.476 2.858.325.927.956 1.491 1.875 1.676.569.118 1.146.191 1.727.218 1.08.044 2.179.069 3.242.093l1.296.03h.001a.07.07 0 0 0 .04-.014h1.2l.453.001c1.79.004 3.64.008 5.445-.276.63-.098 1.366-.236 2.048-.51 1.368-.55 2.106-1.564 2.194-3.014.056-.931.014-1.87-.027-2.776l-.025-.525ZM3.201 12.926a78.016 78.016 0 0 0-.154-3.293c-.066-1.006-.106-2.332.17-3.676a.148.148 0 0 0 .009-.057c-.064-.755.475-1.05 1.045-1.363l.02-.011c.554-.304 1.166-.41 1.747-.492a28.398 28.398 0 0 1 3.985-.241c.555 0 1.102.01 1.64.02.975.021 1.968.034 2.928.047.838.011 1.704.023 2.556.04.394.004.788.038 1.178.1 1.402.234 2.177 1.145 2.242 2.635.053 1.224.102 2.468.15 3.671.035.903.071 1.807.108 2.71.014.326.032.657.05.976.029.503.058 1.022.068 1.533a22.75 22.75 0 0 1-.056 1.803c-.052.847-.545 1.449-1.465 1.788a8.652 8.652 0 0 1-1.739.416c-1.995.297-4.043.284-6.023.271l-.262-.001h-.454a.082.082 0 0 0-.067.033l-1.301-.032a478.457 478.457 0 0 1-3.866-.106 6.43 6.43 0 0 1-.986-.136l-.06-.012c-.544-.104-.908-.44-1.082-1a9.175 9.175 0 0 1-.392-2.696 57.97 57.97 0 0 1 .009-1.254c.007-.548.015-1.115.002-1.673Z"></path>
</svg>