<svg width="46" height="46" fill="currentColor" viewBox="0 0 24 24" xmlns="http://www.w3.org/2000/svg">
  <path d="M17.927 12.895c-.423-.065-.535-.236-.573-.658-.05-.56-.138-1.117-.21-1.675a3.197 3.197 0 0 1-.044-.368c-.002-.217.158-.479.35-.505.435-.06.888-.132 1.226.264.339.396.67.799.999 1.204.167.2.324.41.469.627.339.525.053 1.115-.572 1.176-.549.012-1.098-.01-1.645-.065Zm.017-2.573-.092.053.41 1.76.987-.045c-.455-.655-.818-1.257-1.305-1.768Z"></path>
  <path d="M23.86 15.133c-.12-.93.305-1.78-.368-2.45-.768-.673-1.617-1.583-2.333-2.36-.806-.869-1.61-1.742-2.513-2.529-.663-.583-1.683-.039-2.495-.064-.88-3.202-1.246-3.286-4.474-3.262-3.02.026-5.644.343-8.555.595-2.643.302-3.028.072-2.94 3.009.01 2.84.009 5.283.077 8.042-.008 2.15 2.532 1.637 4.006 1.83.229 2.045 3.217 2.043 3.817.26 3.294-.255 6.526-.103 9.814-.647.37 1.95 3.41 1.953 3.68-.05 2.339-.153 2.358.135 2.284-2.375ZM1.1 14.082C1.077 11.702.894 9.2.982 6.795c.044-.554.092-.606.648-.7 1.096-.19 1.939-.232 2.984-.336 3.147-.25 5.996-.692 9.282-.382 1.74.193 1.906 7.259 1.968 8.489-5.046-.012-9.729.47-14.701.67-.05-.146-.07-.3-.064-.453Zm5.842 4.249c-1.186 1.245-2.857-.56-1.58-1.385.236-.056.508-.075.768-.112.707.105 1.467.83.812 1.497Zm8.76-1.512c-1.16.147-6.108.37-7.562.474-.594-1.887-3.16-1.641-3.709-.154-.86-.067-1.724-.04-2.575-.18-.952-.088-.748-1.11-.704-1.799 5.005-.095 9.713-.503 14.766-.458-.072.534.531 1.959-.216 2.117Zm4.726.882c-.706.95-2.361-.11-1.393-1.134.199-.199.741-.123.959-.016.332.258.65.783.434 1.15Zm1.017-.96c-.375-1.03-1.926-1.523-2.756-.85-.124.097-.455.337-.61.739-.087.175-1.207.338-1.191-.093-.103-2.788-.231-5.436-.536-8.15.59.023 1.544-.23 1.961.271.581.595 1.204 1.25 1.958 2.062.81.974 1.87 1.833 2.541 2.902.065.78.107 2.051.164 2.88l-1.53.238Z"></path>
</svg>