<svg width="46" height="46" fill="currentColor" viewBox="0 0 24 24" xmlns="http://www.w3.org/2000/svg">
  <path d="M21.778 14.145c.002-.773.004-1.65 0-2.488-.005-.759-.032-1.53-.058-2.274l-.017-.481-.016-.538a25.923 25.923 0 0 0-.091-1.805 10.82 10.82 0 0 0-.332-1.757c-.45-1.665-2.086-2.454-3.417-2.481-.516-.01-1.05.022-1.52.05-.31.02-.632.039-.95.048-.45.012-.91.016-1.36.02-.387.002-.787.005-1.187.014l-1.169.027-.236.005c-1.83.04-3.722.083-5.582.146-1.75.059-3.166 1.202-3.442 2.78-.109.62-.112 1.259-.106 1.913.02 2.006.048 4.046.076 6.018v.06l.04 2.882.004.276c.007.486.014.989 0 1.481-.048 1.687 1.442 3.326 3.127 3.44.31.014.622.013.932-.005l.032-.002c.184-.007.373-.015.56-.014 1.248.007 2.364.02 3.41.038 1.734.03 3.49.067 5.218.11.138.008.275.027.41.058a5.944 5.944 0 0 0 .232.04h.823l.024-.002c.164-.024.33-.046.497-.068a13.93 13.93 0 0 0 1.09-.173c1.688-.356 3.041-2.083 3.017-3.849a220.143 220.143 0 0 1-.009-3.469Zm-1.243 2.165v.021l.005 1.363c.004 1.054-.846 2.21-1.855 2.521a7.057 7.057 0 0 1-2.378.294c-1.121-.046-2.242-.099-3.325-.15l-1.362-.065h-3.1l-2.24.001h-.017c-.784 0-1.372-.197-1.85-.62-.587-.52-.863-1.234-.868-2.25-.016-3.037-.031-6.637-.026-10.312-.01-.7.156-1.391.482-2.01.291-.539.718-.874 1.235-.97.855-.159 1.692-.303 2.532-.326 2.148-.058 4.333-.092 6.446-.125h.02c1.062-.017 2.124-.034 3.187-.053.554-.01 1.107.155 1.74.517.675.387.892 1.094 1.015 1.734.266 1.378.383 2.533.37 3.634-.028 2.265-.019 4.569-.011 6.796Z"></path>
  <path d="M17.248 7.805a2.554 2.554 0 0 0-.483-.016c-.508.025-1.016.052-1.524.08l-.15.008-.994.052c-.38.02-.76.037-1.147.055l-.384.018v-.009a2.341 2.341 0 0 1-.017-.264c0-.332.002-.664.004-.997l.005-1.058v-.04a1.1 1.1 0 0 0-.055-.424.504.504 0 0 0-.38-.28.515.515 0 0 0-.417.203.892.892 0 0 0-.139.426 72.42 72.42 0 0 0-.178 1.884 5.23 5.23 0 0 0-.006.519v.018l.001.073-.013.002a2.06 2.06 0 0 1-.208.024l-2.892.11-.435.015a.978.978 0 0 1-.106-.003h-.012a.708.708 0 0 0-.351.041.792.792 0 0 0-.402.407.458.458 0 0 0 .165.53.527.527 0 0 0 .194.094c.198.055.404.084.61.086.335.002.686-.005.968-.01.226-.005.452-.01.678-.011.43-.003.87-.002 1.295-.002h.442v.135c.009.471.016.942.02 1.414.015 1.154.03 2.347.081 3.52.042.748.154 1.49.336 2.217.2.847.634 1.483 1.292 1.89.798.515 1.75.738 2.694.631.725-.082 1.257-.34 1.625-.79.282-.345.326-.733.11-.966-.324-.348-.669-.146-.897-.013l-.011.006c-.523.305-1.001.427-1.506.386-1.11-.09-1.734-.6-2.025-1.654a4.79 4.79 0 0 1-.141-.619c-.29-2.108-.308-4.299-.322-6.234a1.86 1.86 0 0 1 .2-.023c1.463-.06 2.928-.118 4.392-.174.387-.014.641-.237.664-.581.023-.35-.21-.621-.581-.676Z"></path>
</svg>