<svg width="46" height="46" fill="currentColor" viewBox="0 0 24 24" xmlns="http://www.w3.org/2000/svg">
  <path d="M21.98 15.282a694.35 694.35 0 0 1-.086-4.216l-.027-1.433c-.012-.588-.143-1.186-.413-1.883a2.184 2.184 0 0 0-.903-1.094c-1.016-.626-2.004-.947-3.023-.98a86.32 86.32 0 0 0-2.845-.035c-.43-.001-.854-.002-1.278-.005-.04 0-.08-.003-.127-.008l-.127-.011.064-.11c.023-.038.042-.07.063-.1l.31-.445.024-.033c.256-.364.52-.739.77-1.114.104-.16.18-.338.222-.525a.516.516 0 0 0-.268-.558.485.485 0 0 0-.574.097 2.02 2.02 0 0 0-.291.396l-.038.066c-.402.688-.817 1.4-1.211 2.113-.14.251-.319.334-.582.269l-.04-.01-.016-.038a23.091 23.091 0 0 1-.098-.25c-.089-.23-.18-.464-.287-.69a2.884 2.884 0 0 0-.374-.586.446.446 0 0 0-.527-.136c-.225.086-.342.26-.32.48.023.216.073.43.15.634.061.153.133.303.214.448l.071.134.057.109-.241.017c-.151.01-.287.02-.422.032-.382.032-.765.063-1.15.092l-.033.003c-.971.076-1.976.155-2.964.273-.64.077-1.277.275-1.869.479-.441.15-1.01.467-1.206 1.109-.227.738-.436 1.463-.503 2.199-.077.85-.074 1.721-.071 2.564l.002.608c-.002.833.01 1.68.022 2.5v.02c.006.342.01.684.014 1.026.002.14 0 .278-.001.417-.01.315 0 .63.027.944.19 1.716.912 2.598 2.493 3.045.785.222 1.606.23 2.4.237l.624.007c1.005.01 2.044.02 3.083.02 2.407 0 4.243-.058 5.957-.189.652-.05 1.311-.156 1.948-.258.249-.04.495-.08.741-.116.863-.128 1.493-.633 1.874-1.5.08-.175.15-.354.213-.535.41-1.253.597-2.39.571-3.48Zm-1.682 2.844a2.558 2.558 0 0 1-.023.071 1.696 1.696 0 0 0-.037.126c-.226.893-.712 1.342-1.53 1.413-.467.041-.942.102-1.399.16-.629.078-1.277.161-1.92.195-1.101.06-2.21.077-3.383.095-.525.009-1.063.017-1.62.03l-1.06-.021-.092-.002c-1.156-.023-2.352-.046-3.58-.087a4.054 4.054 0 0 1-1.084-.213c-.768-.242-1.21-.816-1.349-1.751a8.288 8.288 0 0 1-.08-1.068l-.027-1.157c-.03-1.257-.062-2.555-.055-3.833a13.028 13.028 0 0 1 .456-3.503c.142-.505.424-.799.886-.922l.269-.073c.5-.136 1.017-.277 1.535-.33 3.449-.35 6.351-.513 9.133-.513.429 0 .86.004 1.285.012.771.014 1.674.083 2.529.488.076.036.168.079.263.12.582.244.905.641.983 1.214.021.157.047.316.072.469.067.37.111.744.13 1.12.023.778.03 1.57.039 2.335.007.747.015 1.521.037 2.283.036 1.293-.084 2.355-.378 3.342Z"></path>
  <path d="M19.133 10.974c-.09-1.326-.807-2.21-2.075-2.555a9.26 9.26 0 0 0-1.416-.268 24.476 24.476 0 0 0-2.747-.15c-.77 0-1.569.033-2.402.098-1.633.127-2.956.374-4.163.78-1.132.38-1.7 1.116-1.791 2.32-.044.577-.06 1.167-.077 1.736-.007.237-.05 1.428-.037 1.743.027.708.055 1.441.126 2.16.134 1.351.77 2.014 2.125 2.219.625.098 1.258.14 1.89.127l.082-.003c1.757-.053 3.574-.109 5.354-.256 1.068-.088 2.133-.33 3.034-.555 1.062-.265 1.737-1.015 1.952-2.165a4.07 4.07 0 0 0 .078-.613c.032-1.076.058-2.144.076-3.174l.003-.168c.009-.42.017-.853-.012-1.276Zm-1.247 1.176a87.993 87.993 0 0 1-.055 2.846 7.164 7.164 0 0 1-.17 1.26c-.133.602-.518.973-1.11 1.073l-.653.113c-.772.135-1.568.274-2.357.357-.766.08-1.546.12-2.45.169l-.006-.08.004.08h-.017c-.441.024-.898.048-1.41.08h-.01c-.159-.008-.35-.017-.562-.025h-.012a51.291 51.291 0 0 1-2.207-.125c-.77-.065-1.022-.308-1.17-1.132a16.199 16.199 0 0 1-.247-3.324l.009-.305c.015-.547.03-1.113.076-1.667.058-.697.48-1.174 1.252-1.42 1.048-.332 2.206-.54 3.643-.653a29.65 29.65 0 0 1 2.345-.097c.964-.002 1.928.054 2.885.167.408.053.812.138 1.206.256.596.172.921.573.968 1.193.035.478.05.87.048 1.234Z"></path>
</svg>