<svg width="46" height="46" fill="currentColor" viewBox="0 0 24 24" xmlns="http://www.w3.org/2000/svg">
  <path d="M5.971 19.064c.003.132.004.265.005.397.004.385.007.783.039 1.174.072.898.321 1.132 1.212 1.134h.092c.449 0 .903-.008 1.344-.015.44-.007.893-.015 1.341-.015h.114c.436 0 .75-.169.963-.517.19-.306.363-.621.518-.946.188-.399.364-.8.55-1.226l.226-.514.902-.066a2308.834 2308.834 0 0 1 2.654-.196 57.11 57.11 0 0 1 1.63-.11c.373-.018.644-.143.852-.394l.952-1.15c.62-.746 1.26-1.518 1.885-2.281.313-.378.474-.859.453-1.349a862.67 862.67 0 0 1-.062-4.65 1703.89 1703.89 0 0 0-.042-3.43 22.503 22.503 0 0 0-.094-1.734c-.053-.583-.26-.79-.85-.847a4.574 4.574 0 0 0-.536-.01 11.09 11.09 0 0 1-.213.003l-3.37.008c-3.274.01-6.66.018-9.99.004-.818-.006-1.294.237-1.65.83-.16.245-.343.472-.548.68a9.498 9.498 0 0 0-.288.321l-.682.815-.535.64a1.985 1.985 0 0 0-.474 1.423c.032.741.024 1.498.016 2.23l-.003.32a944.347 944.347 0 0 1-.04 3.395c-.013.983-.025 1.967-.036 2.95-.005.472-.007.897.024 1.326.047.658.195.803.833.816.36.008.725-.008 1.077-.024.27-.012.547-.025.82-.027.071 0 .144-.005.214-.01.24-.018.467-.034.696.119l-.001.248c0 .221-.001.45.002.678Zm-2.15-2.216a18.927 18.927 0 0 0-.148-.009 18.36 18.36 0 0 0-.039-.355 8.324 8.324 0 0 1-.068-.871c-.01-1.369-.017-2.76-.023-4.106-.006-1.438-.013-2.925-.025-4.387a1.26 1.26 0 0 1 .293-.858c.282-.343.566-.684.851-1.025.43-.515.874-1.048 1.303-1.578.173-.213.389-.213.638-.212l1.263-.003c1.411-.003 2.87-.006 4.306-.003 2.207.005 4.451.015 6.622.025l.882.004c.143 0 .29.009.444.017l.18.01c.005.042.012.083.018.123.022.12.035.242.039.363.005.98.01 1.958.013 2.937.007 1.875.014 3.815.034 5.722.005.506-.126.884-.423 1.225-.84.96-1.673 1.926-2.477 2.873-.17.201-.36.29-.651.308-.648.038-1.305.083-1.941.127a140.1 140.1 0 0 1-2.665.166c-.518.026-.806.229-.995.7-.185.462-.402.921-.612 1.365-.113.24-.23.486-.34.731-.158.348-.384.482-.76.448a31.443 31.443 0 0 0-1.528-.084 83.856 83.856 0 0 1-.654-.027l-.05-.677-.126-1.69a5.469 5.469 0 0 1-.01-.224 3.83 3.83 0 0 0-.023-.357c-.072-.563-.207-.686-.763-.694-.486-.006-.979.005-1.456.015l-.772.014c-.103 0-.207-.005-.337-.013Z"></path>
  <path d="M5.475 14.917c.015.357.222.578.584.62.178.02.358.023.533.026.099.002.197.003.296.008.18.009.359.02.562.034l.236.015c0 .117 0 .228-.002.335-.002.281-.003.546.005.808.003.078.004.156.006.235-.004.31.023.621.08.927.062.275.21.467.418.541a.568.568 0 0 0 .191.033.868.868 0 0 0 .526-.206c.092-.072.174-.155.246-.247.128-.162.262-.324.393-.481.323-.388.656-.79.911-1.23.28-.487.615-.673 1.185-.66.693.012 1.397.007 2.078.002.482-.004.98-.007 1.469-.004.396.002.853-.025 1.204-.376a152.18 152.18 0 0 0 1.734-1.764c.406-.418.588-.93.558-1.567-.016-.339-.018-.685-.02-1.02a21.51 21.51 0 0 0-.024-1.123c-.089-1.558-.18-2.839-.288-4.03-.055-.61-.332-.875-.988-.942a3.394 3.394 0 0 0-.484-.002l-.104.004c-3.077.108-6.155.217-9.232.327l-.039.002c-.367.013-.747.027-1.12.065-.494.051-.625.178-.702.676a1.92 1.92 0 0 0-.017.247l-.002.091-.083 1.818c-.07 1.538-.143 3.129-.195 4.694-.016.477.016.961.046 1.43.014.234.03.476.04.714Zm1.192-.604.107-8.045c1.218-.162 8.916-.209 10.459-.062.012.139.026.278.04.42.037.357.074.727.082 1.094.019.892.028 1.8.037 2.678.007.635.013 1.292.024 1.938.005.36-.095.589-.345.79-.31.25-.597.522-.93.835-.144.135-.296.279-.461.43-.38.011-.773.026-1.178.04-1.067.04-2.17.081-3.29.072-.812-.008-1.324.288-1.667.956-.125.244-.263.48-.54.68l-.014-.182a19.246 19.246 0 0 0-.044-.554c-.06-.614-.211-.78-.804-.886-.33-.06-.668-.102-1.024-.146a52.27 52.27 0 0 1-.452-.058Z"></path>
  <path d="M14.22 10.477c-.001.245.018.49.057.732a.58.58 0 0 0 .235.38.41.41 0 0 0 .324.058.741.741 0 0 0 .456-.397c.094-.218.093-.478.082-.68a65.437 65.437 0 0 0-.162-2.304 1.9 1.9 0 0 0-.177-.659.351.351 0 0 0-.337-.187.388.388 0 0 0-.353.222 1.39 1.39 0 0 0-.095.506c-.008.296-.006.596-.005.887l.002.286a.08.08 0 0 0-.032.065l-.001.298c-.002.227-.003.462.003.693l.002.1Z"></path>
  <path d="M10.498 11.785h.001c.35 0 .551-.265.596-.789a.628.628 0 0 0 .003-.094l-.039-.64c-.042-.701-.086-1.427-.132-2.14-.022-.336-.186-.523-.463-.526-.278-.006-.448.185-.475.517-.03.353-.046.7-.062 1.036l-.019.372v.004c0 .167-.002.328-.004.484-.004.34-.009.661.01.981.031.534.222.794.584.795Z"></path>
</svg>