<svg width="46" height="46" fill="currentColor" viewBox="0 0 24 24" xmlns="http://www.w3.org/2000/svg">
  <path d="M21.185 6.254c-.319.08-.64.144-.923.2l-.256.051c-.201-.233-.393-.459-.579-.678a44.8 44.8 0 0 0-1.257-1.44c-.53-.57-1.252-.932-2.15-1.072-2.681-.42-5.556 1.326-6.408 3.892-.04.121-.083.242-.124.358l-.039.108-.01.001-.024.004a1.93 1.93 0 0 1-.222-.08C7.7 6.918 6.511 5.84 5.56 4.3c-.044-.072-.086-.145-.129-.219a4.065 4.065 0 0 0-.263-.42c-.18-.24-.388-.362-.596-.352-.14.007-.344.078-.525.378-.194.337-.36.69-.496 1.055-.644 1.637-.282 3.262.105 4.494.045.144.087.29.141.476l.053.185-1.408-.61a.082.082 0 0 0-.11.049c-.264.748-.252 1.348.045 2.378.424 1.469 1.308 2.633 2.703 3.556l-.402.28c-.766.535-1.489 1.041-2.386 1.203-.257.046-.445.164-.543.34-.105.188-.103.433.004.707.142.36.302.62.489.797.436.41.836.77 1.307 1.018 1.464.773 3.149 1.163 5.019 1.163.229 0 .46-.006.696-.017 2.437-.122 4.656-1.128 6.596-2.99 1.996-1.914 3.342-4.405 4-7.403.124-.558.261-1.011.813-1.346.63-.383 1.11-.993 1.389-1.763.087-.24.205-.568-.034-.861-.242-.296-.557-.216-.842-.144ZM3.395 17.742c.182-.071.354-.14.52-.21a5.987 5.987 0 0 0 2.34-1.711c.21-.255.288-.435.262-.602-.026-.17-.16-.323-.448-.509-1.044-.677-1.742-1.39-2.196-2.245-.256-.482-.5-1.014-.554-1.639.219-.019.44 0 .652.054.348.067.708.136 1.073-.072a.083.083 0 0 0 .03-.031c.186-.331.049-.625-.073-.885-.027-.058-.055-.118-.079-.177-.582-1.438-.767-2.65-.582-3.817a5.07 5.07 0 0 1 .144-.589l.063-.223c.156.123.287.275.384.449.037.058.075.118.116.174.952 1.313 2.01 2.232 3.234 2.812.275.134.559.25.85.345.35.11.559.12.717.03.155-.089.256-.272.337-.614.2-.838.54-1.517 1.044-2.076 1.177-1.307 2.606-1.92 4.246-1.82.744.046 1.346.31 1.79.79.46.496.935 1.009 1.275 1.584.438.742.963 1.008 1.703.862a.917.917 0 0 1 .204-.005l.038.001c-.225.326-.48.529-.777.617-.638.19-.835.676-.997 1.199-.09.293-.178.593-.264.882-.243.824-.495 1.677-.821 2.481-1.12 2.757-2.921 4.759-5.354 5.95-1.872.915-3.768 1.14-5.635.669a27.56 27.56 0 0 1-2.358-.706c-.516-.181-.855-.457-1.088-.887l.205-.08Z"></path>
</svg>