<svg width="46" height="46" fill="currentColor" viewBox="0 0 24 24" xmlns="http://www.w3.org/2000/svg">
  <path d="M14.88 1.524c-1.48-.357-3.071-.429-4.866-.218-2.009.235-3.71.959-5.2 2.213a14.392 14.392 0 0 0-2.812 3.147C1.126 8.012.79 9.564.875 11.856c-.144 1.53.197 3.171 1.108 5.317.715 1.686 1.673 2.774 3.015 3.424.183.088.366.178.548.269.451.224.918.454 1.39.655 2.023.86 3.838 1.28 5.582 1.28a10.8 10.8 0 0 0 1.865-.163c3.086-.54 5.45-2.077 7.028-4.568.836-1.32 1.34-2.835 1.586-4.766.37-2.908-.416-5.687-2.335-8.26C19.36 3.3 17.47 2.15 14.88 1.524ZM9.181 14.687V9.346c2.043-.111 3.954-.005 5.564.117l-.26 5.224H9.181ZM2.52 12.666c.724-.004 1.46-.013 2.171-.021.694-.009 1.411-.018 2.116-.02l.162-.003c.325-.005.66-.01.98.104l.01.073a.941.941 0 0 1 .015.204c-.034.386-.071.779-.108 1.158l-.068.729c-.038.408.014.664.17.83.14.15.364.22.704.22h.063l1.956-.047c1.38-.032 2.761-.065 4.142-.1.625-.015.797-.182.838-.811.023-.361.041-.728.059-1.083.019-.4.04-.815.067-1.221l.034-.495a74.85 74.85 0 0 1 .23-2.87c.043-.41.037-.724-.132-.917-.173-.196-.49-.242-.915-.25-.51-.012-1.03-.03-1.531-.047-.497-.017-1.012-.034-1.518-.045l-.18-.004c-.888-.02-1.806-.04-2.709-.024-.736.013-.874.242-.914.922-.035.607-.073 1.213-.113 1.852l-.05.796-.195.024c-.162.021-.302.04-.44.043-.543.017-1.095.028-1.63.039a475.927 475.927 0 0 0-1.538.034c-.664.014-1.35.03-2.026.055-.102.002-.203.01-.304.027.001-.04.001-.082.003-.122.02-.235.038-.47.056-.706.04-.52.08-1.06.155-1.583.156-1.08.505-1.93 1.067-2.596.625-.742 1.36-1.597 2.173-2.345 1.18-1.088 2.622-1.774 4.287-2.04 2.795-.446 5.217-.109 7.406 1.032 1.912.996 3.274 2.482 4.048 4.416l.116.287c.365.902.742 1.836.783 2.838.112 2.714-.315 4.68-1.385 6.372-1.373 2.174-3.462 3.505-6.209 3.956-3.111.51-6.222-.231-9.51-2.266-.773-.479-1.382-1.198-1.81-2.136-.704-1.548-1.082-2.94-1.165-4.31.212.03.425.046.64.05Z"></path>
</svg>