<svg width="46" height="46" fill="currentColor" viewBox="0 0 24 24" xmlns="http://www.w3.org/2000/svg">
  <path d="M19.125 14.67c.111.946.217 1.817.314 2.69.017.148-.008.3.002.45.037.526-.254.82-.703.993-1.075.412-2.145.842-3.235 1.214-1.194.408-2.404.767-3.613 1.126-.21.058-.431.061-.642.008-2.114-.55-4.2-1.185-6.212-2.042a6.717 6.717 0 0 1-.926-.442 1.112 1.112 0 0 1-.371-.459c-.067-.14-.063-.322-.063-.485a177.05 177.05 0 0 1 .011-3.177.384.384 0 0 0-.216-.394 4.787 4.787 0 0 1-.68-.462c-.436-.368-.5-.803-.194-1.284.125-.18.267-.348.425-.501.407-.426.821-.845 1.246-1.28L2.893 9.39a3.794 3.794 0 0 1-.36-.338c-.304-.356-.264-.708.108-.996.196-.152.402-.29.6-.437 1.53-1.143 3.059-2.292 4.592-3.43.301-.217.614-.417.937-.6.386-.228.752-.19 1.1.108.428.366.87.717 1.309 1.071.116.095.24.178.387.285.196-.222.384-.437.574-.65.375-.42.752-.84 1.13-1.259.353-.393.591-.471 1.05-.228.837.442 1.678.885 2.474 1.395 1.468.942 2.905 1.932 4.355 2.904.08.054.156.112.228.176.354.312.394.639.09 1.009-.49.596-1.02 1.155-1.666 1.59-.044.03-.084.067-.157.126.444.467.875.923 1.31 1.377.153.158.324.3.47.464.382.435.376.863-.014 1.289-.3.341-.669.617-1.081.809-.424.19-.83.422-1.204.615Zm-1.064-4.36c-.17-.101-.283-.171-.398-.237-1.415-.815-2.828-1.634-4.247-2.441-.5-.285-1.025-.527-1.524-.814-.269-.155-.47-.104-.712.056-1.477.977-2.962 1.943-4.446 2.91-.376.244-.758.48-1.167.74.1.064.153.105.212.137 1.773.933 3.55 1.857 5.314 2.807.393.211.723.266 1.073-.046.1-.073.208-.134.322-.181l4.921-2.58c.203-.107.404-.217.652-.35Zm-5.854-4.46c2.266 1.21 4.378 2.574 6.655 3.627l1.431-1.446a1.634 1.634 0 0 0-.152-.143c-1.345-.904-2.682-1.818-4.038-2.705-.573-.375-1.182-.695-1.776-1.038-.185-.107-.342-.104-.508.07-.521.546-1.058 1.075-1.612 1.635Zm-7.575 9.03c.099 1.045.188 1.988.274 2.93a.313.313 0 0 0 .241.295c.118.038.23.09.346.134 1.712.64 3.475 1.108 5.242 1.566.101.017.204.028.307.031v-4.173c-.266.292-.465.537-.692.754-.23.236-.484.446-.758.627-.368.223-.777.264-1.174.04a743.163 743.163 0 0 1-3.114-1.772c-.2-.115-.389-.25-.672-.432Zm13.65.24c-.204.092-.305.132-.4.18-1.014.518-2.034 1.026-3.037 1.562-.349.186-.659.188-.96-.041-.491-.374-.97-.766-1.453-1.15-.1-.08-.198-.163-.316-.26l.233 4.495c.1-.026.193-.044.281-.075.57-.197 1.143-.388 1.708-.599 1.169-.434 2.334-.88 3.5-1.322.154-.058.297-.113.307-.33.035-.794.087-1.588.137-2.46Zm-14.88-2.177 5.761 3.218 1.698-1.583-5.977-3.417L3.4 12.943Zm9.316 1.431c.504.392.978.744 1.432 1.12.23.19.418.223.695.075 1.684-.896 3.377-1.774 5.066-2.66.118-.06.23-.133.335-.196l-1.342-1.82-6.186 3.481ZM9.126 4.641C7.23 5.806 5.574 7.27 3.83 8.483l1.35 1.41 5.605-3.79L9.126 4.64Z"></path>
</svg>