<svg width="46" height="46" fill="currentColor" viewBox="0 0 24 24" xmlns="http://www.w3.org/2000/svg">
  <path d="M12.383 6.688c1.65.047 3.229.411 4.696 1.176a12.111 12.111 0 0 1 2.934 2.128c.257.27.5.552.727.848.281.345.328.772.347 1.19-.003.188-.057.37-.157.528-.956 1.6-2.207 2.879-3.921 3.67-2.423 1.118-4.908 1.376-7.471.575-1.88-.587-3.637-1.425-5.183-2.674-.44-.355-.837-.747-1.114-1.243a5.483 5.483 0 0 1-.282-.638c-.095-.237-.036-.466.088-.67.101-.157.218-.303.349-.436a18.515 18.515 0 0 1 3.056-2.655 9.483 9.483 0 0 1 3.443-1.479c.816-.174 1.64-.356 2.488-.32Zm-8.357 5.435c.277.479.698.773 1.12 1.063C6.618 14.199 8.23 14.9 9.95 15.363c1.809.487 3.585.344 5.346-.255 1.776-.605 3.162-1.741 4.352-3.155a.243.243 0 0 0 .07-.12c.005-.088.022-.206-.025-.26-.549-.635-1.108-1.26-1.809-1.735-3.221-2.178-6.592-2.309-10.05-.664-1.349.643-2.521 1.578-3.616 2.6-.095.087-.133.236-.193.35Z"></path>
  <path d="M14.6 11.754c.007.452-.153.891-.449 1.232-.607.704-1.356 1.114-2.315 1.053a2.07 2.07 0 0 1-1.593-.87 2.096 2.096 0 0 1-.309-1.796 3.39 3.39 0 0 1 .475-1.003c.947-1.334 2.696-1.123 3.56-.318.474.442.64 1.01.631 1.702Zm-2.431-.793c-.425-.023-.812.193-.904.464-.11.322-.102.643.13.919a.71.71 0 0 0 .214.171.981.981 0 0 0 1.05-.07c.552-.371.513-1.051-.077-1.338a2.947 2.947 0 0 0-.414-.146Z"></path>
</svg>