<svg width="46" height="46" fill="currentColor" viewBox="0 0 24 24" xmlns="http://www.w3.org/2000/svg">
  <path d="M8.671 16.444a7.93 7.93 0 0 0 1.272-.22l.26-.06a.495.495 0 0 0 .237-.176c.036-.039.073-.08.116-.118a.08.08 0 0 0 .026-.07.08.08 0 0 0-.041-.062 6.485 6.485 0 0 1-.183-.107 1.915 1.915 0 0 0-.307-.162c-.69-.262-1.423-.318-2.113-.339-1.092-.033-1.96-.229-2.732-.614-1.325-.662-1.826-1.904-1.34-3.323.385-1.127 1.106-1.865 2.143-2.192.61-.192 1.246-.336 1.862-.476.195-.044.39-.088.584-.134a6.99 6.99 0 0 1 .59-.103c.092-.014.184-.027.274-.042a.082.082 0 0 0 .062-.048c.079-.182.094-.326.045-.438a.33.33 0 0 0-.201-.179 1.867 1.867 0 0 0-.58-.1c-.858-.029-1.692.17-2.498.36l-.18.043c-1.714.405-2.855 1.517-3.39 3.306-.378 1.268-.114 2.444.785 3.498.527.617 1.22.984 1.829 1.261.914.417 1.868.521 2.704.521.273 0 .534-.011.776-.026Z"></path>
  <path d="M21.369 10.381c-.47-1.363-1.32-2.162-2.601-2.441a18.054 18.054 0 0 0-3.162-.416 6.397 6.397 0 0 0-1.063.077l-.248.031c-.24.029-.365.2-.336.457a.081.081 0 0 0 .016.04c.174.231.43.225.655.22.045-.001.09-.002.136-.001 1.374.026 2.669.32 3.754.603.903.236 1.478.837 1.758 1.838.054.195.092.396.12.549.153.873.014 1.643-.405 2.227-.413.577-1.096.966-1.922 1.095l-.22.034c-.538.082-1.093.168-1.632.29l-.194.042c-.547.119-1.113.242-1.746.64a.081.081 0 0 0-.024.116.08.08 0 0 0 .034.028c.11.048.2.092.278.13.118.065.243.115.372.15a7.163 7.163 0 0 0 1.544.165 9.668 9.668 0 0 0 2.45-.341c1.653-.433 2.887-2.191 2.752-3.92a6.548 6.548 0 0 0-.316-1.613Z"></path>
  <path d="M7.575 11.394c-.036.001-.072 0-.108-.001a.855.855 0 0 0-.324.032c-.104.046-.2.108-.285.185-.045.036-.093.075-.149.115a.082.082 0 0 0-.027.099.083.083 0 0 0 .022.03c.05.042.094.084.133.122.066.077.15.138.244.178.19.056.386.087.583.092a59.56 59.56 0 0 0 3.048.084 39.746 39.746 0 0 0 5.121-.31c.098-.019.192-.052.28-.097a6.47 6.47 0 0 1 .253-.107.082.082 0 0 0 .052-.079.082.082 0 0 0-.057-.075 7.777 7.777 0 0 1-.253-.086.784.784 0 0 0-.206-.056c-.332-.024-.67-.051-.996-.078-.795-.066-1.618-.134-2.429-.141a94.212 94.212 0 0 0-3.457.055c-.482.014-.964.027-1.445.038Z"></path>
</svg>