<svg width="46" height="46" fill="currentColor" viewBox="0 0 24 24" xmlns="http://www.w3.org/2000/svg">
  <path d="m12.173 5.619.225.222c.25.246.464.458.688.67.212.2.43.401.643.594l.436.402c.233.216.465.434.694.65l.304.287a.08.08 0 0 0 .095.011l.259-.146a.082.082 0 0 0 .036-.1 1.227 1.227 0 0 1-.024-.078.598.598 0 0 0-.072-.175 44.403 44.403 0 0 0-3.216-4.123 2.023 2.023 0 0 0-.376-.34c-.312-.213-.65-.163-.903.134a1.835 1.835 0 0 0-.166.242l-.298.487c-.582.948-1.183 1.928-1.77 2.894-.1.143-.169.306-.203.477a.512.512 0 0 0 .176.422c.112.078.349.098.464.011a2.24 2.24 0 0 0 .521-.543c.229-.342.452-.695.668-1.036.185-.291.376-.593.569-.886.037-.056.069-.116.1-.174a.982.982 0 0 1 .281-.366c-.008.094-.018.188-.027.28a8.282 8.282 0 0 0-.058.893l.002.246c.015 1.876.03 3.818.082 5.726.032 1.137.091 2.293.15 3.41a465.886 465.886 0 0 1 .077 1.578c0 .084.007.169.02.252.046.24.17.372.346.372a.38.38 0 0 0 .058-.005c.123-.019.326-.125.369-.267a3.59 3.59 0 0 0 .162-.897c.017-.536.015-1.11-.008-1.805-.064-1.92-.13-3.842-.197-5.763l-.106-3.065c-.004-.12-.003-.241-.002-.395v-.096Z"></path>
  <path d="M20.878 12.295a.489.489 0 0 0-.48.467c-.031.53-.11 1.845-.162 2.6-.048.678-.077 1.369-.106 2.037-.016.384-.033.768-.053 1.152a3.488 3.488 0 0 1-.046.369l-.02.125-.097.017a2.35 2.35 0 0 1-.265.036c-.48.027-.968.058-1.44.088a75.74 75.74 0 0 1-3.429.166c-1.937.035-3.907.032-5.813.028l-1.818-.002h-.013c-.917 0-1.83-.02-2.6-.038a7.425 7.425 0 0 1-.608-.049c-.09-.01-.182-.02-.282-.029a53.606 53.606 0 0 1-.049-1.566c-.043-1.824-.102-4.322-.313-4.784a.082.082 0 0 0-.052-.045.428.428 0 0 0-.361.028.329.329 0 0 0-.139.239c-.034.24-.21 3.29-.22 5.077.013.252.034.534.055.806.015.2.03.399.041.582.03.471.296.765.77.85.297.048.597.077.898.085a88.57 88.57 0 0 0 4.182.085c1.033 0 2.061-.01 3.074-.021l1.695-.016c1.263-.01 2.594-.037 4.068-.084a95.02 95.02 0 0 0 2.005-.093c.414-.022.828-.045 1.242-.063.52-.024.793-.23.91-.687a3.87 3.87 0 0 0 .09-.788l.005-.118c.086-1.717-.087-4.761-.165-5.99a.498.498 0 0 0-.504-.464Z"></path>
</svg>