<svg width="46" height="46" fill="currentColor" viewBox="0 0 24 24" xmlns="http://www.w3.org/2000/svg">
  <path d="M16.084 12.556c.52-.028 1.01-.116 1.487-.067 2.152.22 3.759 1.864 3.977 4.02.197 1.94-.768 3.538-2.583 4.243-1.352.526-2.716.61-4.079.033-.947-.4-1.682-1.03-2.103-1.99-.021-.048-.05-.092-.082-.148l-1.18.063c-2.153.11-4.305.226-6.458.324-.582.026-1.166-.002-1.749-.014a1.468 1.468 0 0 1-.398-.066c-.382-.118-.508-.382-.375-.755a13.383 13.383 0 0 1 2.605-4.423c1.397-1.571 3.102-2.562 5.215-2.78 1.446-.148 2.835.095 4.17.66.29.112.572.243.846.391.245.157.48.326.707.509Zm-1.072.565c-1.127-.507-2.216-.924-3.422-.98-1.679-.077-3.198.345-4.524 1.38-1.426 1.113-2.47 2.541-3.315 4.126a1.995 1.995 0 0 0-.093.25c.766.07 8.396-.451 8.878-.605.012-.056.03-.12.039-.186a6.627 6.627 0 0 1 .785-2.296 2.79 2.79 0 0 1 .498-.635c.355-.35.735-.674 1.154-1.054Zm1.882 6.641a4.553 4.553 0 0 0 1.889-.423c.45-.2.826-.535 1.077-.958.583-.985.47-2.579-.267-3.454-.587-.698-1.321-1.18-2.247-1.256-1.075-.089-1.988.292-2.609 1.183-.621.892-.771 1.925-.657 2.993.053.437.271.837.609 1.119.629.56 1.376.792 2.205.796Z"></path>
  <path d="M10.617 10.052C9.695 10.015 8.793 9.823 8 9.26c-.897-.637-1.604-1.822-1.049-3.3.14-.382.33-.743.564-1.074.32-.438.675-.851 1.058-1.235.864-.873 2.339-1.089 3.38-.45 1.366.84 2.159 2.098 2.315 3.688.093.943-.327 1.747-1.076 2.347-.742.595-1.616.795-2.575.816Zm-.124-1.202c.577-.015 1.137-.084 1.64-.394.683-.42.958-1.114.753-1.887-.16-.605-.489-1.113-.912-1.562-.422-.447-.915-.75-1.557-.769-.706-.021-1.241.359-1.733.772-.36.303-.58.743-.727 1.204-.326 1.022.031 1.853 1.001 2.317.487.233 1.008.296 1.535.319Z"></path>
  <path d="M17.668 17.209c0 .385.006.696-.003 1.008a1.41 1.41 0 0 1-.064.398.408.408 0 0 1-.401.292.395.395 0 0 1-.403-.286 1.874 1.874 0 0 1-.062-.479c-.01-.295-.003-.59-.003-.93-.36 0-.697.009-1.031-.003a3.284 3.284 0 0 1-.643-.08.423.423 0 0 1-.244-.67.424.424 0 0 1 .23-.153 2.08 2.08 0 0 1 .52-.074c.376-.01.752-.003 1.143-.003 0-.383-.002-.719 0-1.054a1.657 1.657 0 0 1 .023-.363c.04-.169.139-.297.335-.3a.347.347 0 0 1 .364.27c.051.224.087.452.109.681.028.24.042.48.063.73.237 0 .437.005.637-.002.23-.009.46-.04.69-.041.368-.002.6.175.62.453.02.261-.17.474-.511.53a7.901 7.901 0 0 1-.809.074c-.173.01-.347.002-.56.002Z"></path>
</svg>