<svg width="46" height="46" fill="currentColor" viewBox="0 0 24 24" xmlns="http://www.w3.org/2000/svg">
  <path d="M16.084 12.556c.52-.028 1.01-.116 1.486-.067 2.152.22 3.76 1.864 3.978 4.02.197 1.94-.769 3.538-2.583 4.243-1.353.526-2.716.61-4.08.033-.946-.4-1.682-1.03-2.103-1.99-.02-.048-.05-.092-.082-.148l-1.18.063c-2.153.11-4.305.226-6.458.324-.581.026-1.165-.002-1.748-.014a1.468 1.468 0 0 1-.398-.066c-.382-.118-.509-.382-.375-.755a13.383 13.383 0 0 1 2.604-4.423c1.398-1.571 3.102-2.562 5.216-2.78 1.445-.148 2.834.095 4.169.66.29.112.573.243.847.391.244.157.48.326.707.509Zm-1.072.565c-1.127-.507-2.216-.924-3.423-.98-1.678-.077-3.197.345-4.524 1.38-1.426 1.113-2.47 2.541-3.315 4.126a1.995 1.995 0 0 0-.093.25c.766.07 8.396-.451 8.878-.605.012-.056.03-.12.039-.186a6.623 6.623 0 0 1 .786-2.296c.134-.235.302-.449.497-.635.355-.35.735-.674 1.155-1.054Zm1.881 6.641a4.553 4.553 0 0 0 1.89-.423c.449-.2.825-.535 1.077-.958.582-.985.47-2.579-.267-3.454-.588-.698-1.322-1.18-2.248-1.256-1.074-.089-1.987.292-2.608 1.183-.622.892-.772 1.925-.657 2.993.053.437.27.837.608 1.119.629.56 1.376.792 2.205.796Z"></path>
  <path d="M10.616 10.052C9.695 10.015 8.792 9.823 8 9.26c-.896-.637-1.604-1.822-1.048-3.3.14-.382.33-.743.564-1.074.32-.438.674-.851 1.058-1.235.864-.873 2.338-1.089 3.38-.45 1.365.84 2.159 2.098 2.315 3.688.092.943-.328 1.747-1.076 2.347-.743.595-1.617.795-2.576.816Zm-.123-1.202c.576-.015 1.137-.084 1.639-.394.683-.42.959-1.114.754-1.887-.16-.605-.49-1.113-.913-1.562-.421-.447-.914-.75-1.556-.769-.707-.021-1.242.359-1.734.772-.36.303-.579.743-.726 1.204-.326 1.022.03 1.853 1 2.317.487.233 1.008.296 1.536.319Z"></path>
  <path d="M17.154 17.175c-.528 0-1.056.006-1.584-.003a2.247 2.247 0 0 1-.48-.069.286.286 0 0 1-.232-.294.3.3 0 0 1 .202-.318.95.95 0 0 1 .272-.073c1.175-.061 2.351-.119 3.527-.173a.804.804 0 0 1 .202.016.435.435 0 0 1 .356.431.41.41 0 0 1-.358.385 11.76 11.76 0 0 1-.972.065c-.31.01-.622.002-.933.002v.031Z"></path>
</svg>