<svg width="46" height="46" fill="currentColor" viewBox="0 0 24 24" xmlns="http://www.w3.org/2000/svg">
  <path d="M11.961 12.253c-1.346-.072-2.546-.301-3.547-1.134-.728-.605-1.16-1.39-1.337-2.307-.387-2.005.716-3.745 2.375-4.6 1.155-.596 2.371-.827 3.665-.627 1.103.17 1.91.793 2.564 1.652.22.291.48.568.635.893.318.671.588 1.36.405 2.143-.172.732-.385 1.439-.863 2.037-.84 1.051-1.9 1.718-3.26 1.867-.244.026-.485.057-.637.076ZM8.256 8.388c.145 1.086.684 1.864 1.69 2.265.407.15.83.25 1.261.3 1.392.196 2.586-.165 3.47-1.312a2.472 2.472 0 0 0 .543-1.75c-1.126-.208-2.145-.585-2.97-1.406-1.064 1.208-2.473 1.65-3.995 1.903Z"></path>
  <path d="M14.294 20.377c-1.697 0-3.394-.009-5.091.002-1.465.01-2.93.052-4.395.058a5.816 5.816 0 0 1-1.21-.119c-.744-.156-.985-.576-.797-1.314.148-.586.452-1.1.772-1.604 1.3-2.046 3.161-3.386 5.402-4.244a10.857 10.857 0 0 1 3.814-.745c1.892-.015 3.65.443 5.158 1.664a9.759 9.759 0 0 1 2.584 3.147c.186.361.385.719.535 1.095.133.324.229.662.284 1.008.08.538-.212.898-.748.962a9.852 9.852 0 0 1-1.135.082c-1.724.008-3.449.003-5.173.003v.005Zm5.714-1.283c.006-.071.018-.1.01-.123-.554-1.466-1.34-2.78-2.548-3.807-.709-.603-1.491-1.084-2.404-1.32a8.92 8.92 0 0 0-3.716-.133c-3.06.504-5.505 1.988-7.174 4.643-.177.283-.318.588-.486.9.557.16 1.064.096 1.579.065 1-.06 2.005-.082 3.008-.087 3.15-.017 6.3-.015 9.45-.03.704-.004 1.409-.046 2.113-.072.057-.008.113-.02.168-.036Z"></path>
</svg>