<svg width="46" height="46" fill="currentColor" viewBox="0 0 24 24" xmlns="http://www.w3.org/2000/svg">
  <path d="M16.069 12.556c.521-.028 1.013-.116 1.49-.067 2.156.22 3.767 1.864 3.986 4.02.197 1.94-.77 3.538-2.589 4.243-1.355.526-2.722.61-4.088.033-.949-.4-1.686-1.03-2.108-1.99-.02-.048-.05-.092-.082-.148l-1.183.063c-2.158.11-4.315.226-6.473.324-.582.026-1.167-.002-1.752-.014a1.474 1.474 0 0 1-.399-.066c-.382-.118-.51-.382-.375-.755a13.374 13.374 0 0 1 2.61-4.423c1.4-1.571 3.109-2.562 5.227-2.78 1.449-.148 2.84.095 4.179.66.29.112.574.243.848.391.245.157.482.326.709.509Zm-1.075.565c-1.129-.507-2.22-.924-3.43-.98-1.682-.077-3.204.345-4.534 1.38-1.43 1.113-2.476 2.541-3.322 4.126a1.991 1.991 0 0 0-.094.25c.768.07 8.416-.451 8.899-.605.011-.056.03-.12.038-.186a6.614 6.614 0 0 1 .788-2.296 2.84 2.84 0 0 1 .498-.635c.356-.35.737-.674 1.157-1.054Zm1.886 6.641a4.571 4.571 0 0 0 1.893-.423 2.38 2.38 0 0 0 1.08-.958c.584-.985.472-2.579-.267-3.454-.589-.698-1.325-1.18-2.253-1.256-1.077-.089-1.992.292-2.614 1.183-.623.892-.773 1.925-.659 2.993.054.437.272.837.61 1.119.63.56 1.38.792 2.21.796Z"></path>
  <path d="M10.59 10.052c-.924-.037-1.829-.229-2.624-.792-.898-.637-1.607-1.822-1.05-3.3.14-.382.33-.743.565-1.074.32-.438.675-.851 1.06-1.235.866-.873 2.343-1.089 3.387-.45 1.369.84 2.164 2.098 2.32 3.688.093.943-.327 1.747-1.078 2.347-.744.595-1.62.795-2.58.816Zm-.125-1.202c.578-.015 1.14-.084 1.643-.394.685-.42.961-1.114.756-1.887-.16-.605-.49-1.113-.915-1.562-.422-.447-.917-.75-1.56-.769-.708-.021-1.244.359-1.737.772-.362.303-.58.743-.728 1.204-.327 1.022.03 1.853 1.003 2.317.488.233 1.01.296 1.538.319Z"></path>
  <path d="M16.57 16.101c.027-.486.04-.974.09-1.459a.724.724 0 0 1 .215-.412c.158-.15.38-.072.448.14.04.143.067.29.08.438.093.795.186 1.59.268 2.385.024.16.013.322-.031.476-.131.375-.58.435-.8.104-.1-.15-.12-.352-.174-.53a.339.339 0 0 1-.006-.081l-.054-1.058-.036-.003Z"></path>
  <path d="M16.645 18.854a.48.48 0 0 1 .662-.436.434.434 0 0 1 .253.413.536.536 0 0 1-.51.482.418.418 0 0 1-.405-.459Z"></path>
</svg>