<svg width="46" height="46" fill="currentColor" viewBox="0 0 24 24" xmlns="http://www.w3.org/2000/svg">
  <path d="M12.9 3.259c2.006.042 3.484.928 4.388 2.732.48.96.924 1.937 1.407 2.896.195.387.42.757.674 1.109.384.534.141 1.314-.495 1.457a9.97 9.97 0 0 1-1.165.17c-.876.087-1.753.16-2.63.24a.323.323 0 0 1-.08.005c-.52-.087-.969.128-1.44.297a5.028 5.028 0 0 1-2.243.246c-.921-.095-1.781-.335-2.573-.821-.117-.072-.283-.068-.428-.088-.752-.104-1.48.09-2.219.178a5.255 5.255 0 0 1-.73.03c-.487-.01-.831-.51-.553-.955.653-1.043 1.023-2.221 1.575-3.312C7.033 6.165 7.94 5.119 9.15 4.35a6.736 6.736 0 0 1 2.738-.984c.335-.046.674-.072 1.01-.107ZM8.286 8.028c-.198 1.147.55 2.429 1.678 2.843a5.44 5.44 0 0 0 2.196.32c1.189-.066 2.07-.662 2.703-1.645a2.23 2.23 0 0 0 .345-1.2c-1.288-.43-2.441-.994-2.996-2.415-.99 1.395-2.422 1.825-3.926 2.097Z"></path>
  <path d="M14.299 20.627c-1.752 0-3.503-.009-5.255.003-1.41.009-2.82.049-4.23.059A7.285 7.285 0 0 1 3.72 20.6c-.837-.121-1.173-.617-.895-1.418a7.79 7.79 0 0 1 .742-1.536c1.274-2.056 3.127-3.403 5.353-4.259a10.808 10.808 0 0 1 3.488-.74c1.53-.058 3.002.129 4.367.877 1.213.664 2.192 1.587 3.005 2.701.582.798.984 1.69 1.392 2.58.096.24.155.493.175.75.07.56-.22.926-.78.984-.418.044-.838.077-1.258.08-1.67.008-3.34.003-5.01.003v.004ZM3.713 19.498c.043.019.086.035.13.048.485.11.968.042 1.456.015a58.05 58.05 0 0 1 2.968-.087c3.272-.016 6.544-.015 9.816-.03.596-.003 1.192-.046 1.788-.075a.42.42 0 0 0 .13-.05c.005-.05.018-.081.01-.103-.557-1.489-1.352-2.819-2.576-3.856-.71-.603-1.495-1.09-2.413-1.312a9.367 9.367 0 0 0-4.197-.036c-2.506.533-4.595 1.763-6.15 3.835-.382.509-.738 1.037-.962 1.65v.001Z"></path>
</svg>