<svg width="46" height="46" fill="currentColor" viewBox="0 0 24 24" xmlns="http://www.w3.org/2000/svg">
  <path d="M17.183 15.989c.313-.324.622-.648.938-.966a2.89 2.89 0 0 1 .399-.348c.19-.132.394-.118.525.005a.391.391 0 0 1 .035.524c-.242.345-.51.671-.774 1-.127.156-.27.3-.428.473.372.329.72.63 1.061.94.125.105.236.224.333.356a.58.58 0 0 1-.053.75c-.188.188-.49.202-.747.018a2.198 2.198 0 0 1-.295-.28c-.32-.332-.636-.668-.984-1.034-.248.262-.479.505-.709.75a5.79 5.79 0 0 1-.422.442c-.119.11-.26.194-.412.246-.39.113-.692-.195-.559-.58.076-.189.188-.36.33-.506.274-.303.571-.584.856-.876.066-.067.122-.144.22-.259-.36-.339-.714-.67-1.065-1.006a3.484 3.484 0 0 1-.367-.378.318.318 0 0 1 0-.417c.114-.14.269-.199.435-.115.197.092.383.204.558.333.373.291.732.602 1.125.928Z"></path>
  <path d="M16.091 12.563c.522-.027 1.013-.116 1.49-.067 2.157.22 3.767 1.873 3.986 4.038.198 1.95-.77 3.553-2.589 4.262-1.355.528-2.722.611-4.088.032-.949-.402-1.686-1.034-2.108-1.998-.02-.048-.05-.092-.082-.15-.4.022-.791.044-1.183.064-2.157.11-4.314.228-6.472.325-.583.027-1.168-.001-1.752-.013a1.479 1.479 0 0 1-.4-.067c-.382-.118-.51-.383-.375-.758a13.447 13.447 0 0 1 2.61-4.442c1.4-1.578 3.11-2.573 5.227-2.791 1.45-.15 2.84.095 4.179.661.29.114.574.245.848.394.245.157.482.328.71.51Zm-1.075.568c-1.129-.508-2.22-.928-3.43-.984-1.682-.078-3.204.347-4.534 1.386-1.429 1.117-2.476 2.552-3.322 4.144a1.998 1.998 0 0 0-.093.251c.767.07 8.415-.453 8.898-.607.012-.057.03-.122.038-.188.12-.81.386-1.592.788-2.305a2.83 2.83 0 0 1 .499-.638c.355-.352.736-.677 1.157-1.059Zm1.886 6.67c.655-.004 1.3-.15 1.894-.425.45-.201.828-.537 1.08-.962.584-.99.471-2.59-.268-3.47-.588-.7-1.324-1.184-2.253-1.26-1.076-.09-1.992.293-2.614 1.187-.623.896-.773 1.934-.659 3.006.054.44.272.841.61 1.124.63.562 1.38.795 2.21.8Z"></path>
  <path d="M10.611 10.05c-.923-.039-1.828-.23-2.623-.797-.898-.64-1.607-1.829-1.05-3.314.14-.383.33-.746.565-1.079.321-.44.676-.854 1.06-1.24.866-.876 2.344-1.093 3.387-.451 1.369.842 2.165 2.107 2.32 3.703.094.948-.327 1.755-1.077 2.357-.745.598-1.62.799-2.582.82Zm-.123-1.209c.577-.014 1.139-.084 1.642-.395.685-.422.961-1.118.756-1.895-.16-.608-.49-1.118-.914-1.569-.423-.449-.917-.752-1.56-.772-.709-.021-1.245.36-1.738.776-.362.304-.58.745-.728 1.208-.327 1.027.03 1.862 1.003 2.327.488.235 1.01.298 1.539.32Z"></path>
</svg>