<svg width="46" height="46" fill="currentColor" viewBox="0 0 24 24" xmlns="http://www.w3.org/2000/svg">
  <path d="M14.27 20.406c-1.737 0-3.475-.008-5.213.003-1.397.009-2.794.05-4.19.06-.394 0-.786-.03-1.175-.089-.837-.12-1.17-.614-.891-1.413a7.69 7.69 0 0 1 .743-1.526c1.284-2.057 3.152-3.392 5.392-4.252a10.867 10.867 0 0 1 3.814-.75c1.953-.016 3.75.478 5.285 1.764a9.81 9.81 0 0 1 2.516 3.15c.17.34.362.67.498 1.022.13.325.222.665.272 1.012.067.52-.223.863-.743.929a9.16 9.16 0 0 1-1.094.082c-1.738.008-3.476.003-5.213.003v.005Zm5.71-1.267a.63.63 0 0 0-.002-.166c-.553-1.435-1.318-2.73-2.5-3.746-.911-.783-1.934-1.347-3.149-1.5-1.4-.176-2.787-.139-4.155.246-2.588.727-4.653 2.16-6.068 4.468-.16.263-.288.546-.436.827a.934.934 0 0 0 .14.063c.484.106.967.043 1.456.016a60.092 60.092 0 0 1 3.049-.086c3.326-.017 6.652-.016 9.979-.032.553-.003 1.106-.058 1.686-.09Z"></path>
  <path d="M12.374 3.545c1.339-.032 2.458.605 3.307 1.764.2.273.442.527.588.826.327.67.597 1.358.424 2.14-.163.734-.376 1.44-.85 2.042-.842 1.069-1.916 1.73-3.29 1.894-1.235.148-2.41-.035-3.507-.615C7.916 11 7.273 10.032 7.04 8.79c-.351-1.87.63-3.546 2.176-4.438.937-.54 1.947-.812 3.158-.807Zm2.934 3.799c.061-.472-.128-.848-.42-1.191-.115-.134-.219-.278-.338-.407-.43-.468-.921-.84-1.575-.937a4.707 4.707 0 0 0-2.702.353c-1.057.485-1.846 1.225-2.027 2.454-.212 1.435.53 2.718 1.85 3.142.79.247 1.625.32 2.446.213 1.123-.129 2.445-1.28 2.624-2.463.058-.386.095-.776.142-1.165Z"></path>
</svg>