<svg width="46" height="46" fill="currentColor" viewBox="0 0 24 24" xmlns="http://www.w3.org/2000/svg">
  <path d="M8.692 18.234c.261.472.531.96.978 1.302 1.166.892 2.35 1.333 3.59 1.333.358 0 .716-.036 1.068-.105 1.726-.337 2.899-1.225 3.584-2.716.261-.565.448-1.16.557-1.773.208-1.19.374-2.265.308-3.368a5.336 5.336 0 0 0-.28-1.415c-.24-.69-.944-1.065-1.674-.89a1.983 1.983 0 0 0-.463.198 5.97 5.97 0 0 1-.175.09c-.293-.654-.825-.98-1.624-.994l.01-.05c.012-.06.022-.11.035-.16l.191-.689c.134-.476.272-.968.392-1.457.186-.756.385-1.638.394-2.528.003-.4.008-.852-.177-1.272-.14-.32-.352-.53-.613-.607-.257-.077-.542-.02-.827.165a2.559 2.559 0 0 0-.906.97c-.244.463-.462.939-.652 1.425-.271.719-.531 1.455-.783 2.166-.114.325-.23.65-.345.974a6.31 6.31 0 0 1-.098.25l-.024.06V9.14a.414.414 0 0 1-.038-.098c-.164-.909-.493-1.778-.81-2.62a27.773 27.773 0 0 1-.454-1.254c-.198-.6-.712-.9-1.342-.782a1.503 1.503 0 0 0-1 .686 1.68 1.68 0 0 0-.197 1.323c.203.77.415 1.55.62 2.306.186.69.38 1.403.565 2.106.08.3.146.608.215.933l.086.399-.085-.056c-.09-.06-.154-.103-.223-.143-.77-.46-1.55-.617-2.318-.467a1.206 1.206 0 0 0-.93.745 1.28 1.28 0 0 0 .21 1.23c.132.163.28.31.441.442.679.59 1.174 1.215 1.514 1.91a45.114 45.114 0 0 0 1.28 2.433Zm.559-4.271c.215-.03.337-.2.333-.468a13.14 13.14 0 0 0-.45-3.306 81.253 81.253 0 0 1-.693-2.811l-.186-.788a2.628 2.628 0 0 1-.087-.681.982.982 0 0 1 .157-.506c.098-.137.205-.207.31-.204.107.004.21.084.3.231.13.223.244.456.34.696a18.6 18.6 0 0 1 1.06 3.452c.058.276.127.554.193.823.057.228.116.464.167.697.019.099.028.198.029.298.002.061.005.124.01.186.025.248.15.393.351.41.213.016.383-.139.426-.387a.725.725 0 0 0 .012-.174c-.046-.656.15-1.251.39-1.905l.15-.41c.375-1.018.763-2.07 1.162-3.099.192-.483.412-.954.66-1.41.172-.323.376-.527.641-.639.157.27.144.536.13.817l-.002.034c-.04.83-.22 1.632-.474 2.58-.2.741-.418 1.491-.629 2.216-.123.422-.246.844-.366 1.266-.065.213-.11.43-.136.65-.026.284.068.446.287.497.282.066.494-.05.596-.323.042-.111.081-.224.12-.337.055-.156.111-.318.174-.474.154-.384.369-.473.766-.318a.815.815 0 0 1 .543.625c.034.2.054.402.058.604l.007.126c.01.2.044.42.311.483.244.057.363-.104.465-.273l.07-.12a3.3 3.3 0 0 1 .281-.429c.175-.214.375-.32.564-.296.186.023.353.172.468.418.288.636.395 1.34.308 2.033a43.05 43.05 0 0 1-.372 2.606c-.114.675-.407 1.351-.87 2.01-.425.603-1.054 1.03-1.923 1.304-1.595.503-3.09.24-4.57-.804a1.446 1.446 0 0 1-.371-.359 13.188 13.188 0 0 1-.71-1.152 51.97 51.97 0 0 1-.598-1.172 56.168 56.168 0 0 0-.561-1.104 6.385 6.385 0 0 0-1.549-1.928 2.564 2.564 0 0 1-.454-.456.355.355 0 0 1-.08-.303c.027-.1.122-.185.272-.248.144-.06.299-.091.455-.09.096 0 .192.01.286.028.735.14 1.22.423 1.527.89.087.15.154.312.2.48.015.051.032.103.05.153.088.256.253.387.452.36Z"></path>
</svg>