<svg width="46" height="46" fill="currentColor" viewBox="0 0 24 24" xmlns="http://www.w3.org/2000/svg">
  <path d="M14.363 10.503c.168-.117.3-.213.435-.303 1.37-.914 2.85-1.098 4.41-.62 1.892.58 2.67 2.447 2.508 3.951-.137 1.276-.764 2.306-1.686 3.165-.358.334-.819.519-1.29.613a31.18 31.18 0 0 1-2.592.428c-2.216.254-4.445.242-6.67.277-1.046.017-2.09-.002-3.111-.265a10.29 10.29 0 0 1-.905-.273c-1.648-.59-2.574-1.82-2.983-3.464-.384-1.543-.294-3.08.46-4.49 1.097-2.052 2.8-3.38 5.156-3.571 2.12-.171 3.893.647 5.202 2.373.488.643.821 1.36 1.066 2.18Zm-4.372 6.29c.535-.022 1.072-.035 1.607-.067 1.784-.107 3.566-.24 5.35-.323a4.338 4.338 0 0 0 1.88-.532c1.014-.542 1.516-1.403 1.574-2.532.064-1.255-.606-2.278-1.738-2.586-1.298-.353-2.512-.16-3.56.732-.312.266-.58.584-.872.874a1.46 1.46 0 0 1-.309.267c-.293.162-.611.04-.755-.263a.628.628 0 0 1-.009-.516c.166-.448.102-.89-.047-1.33a5.518 5.518 0 0 0-.975-1.708c-1.322-1.635-3.93-2.154-5.722-1.15-2.508 1.406-3.431 3.651-2.81 6.234.294 1.227 1.02 2.118 2.265 2.505.38.118.767.212 1.158.28.981.174 1.972.14 2.963.114Z"></path>
</svg>