<svg width="46" height="46" fill="currentColor" viewBox="0 0 24 24" xmlns="http://www.w3.org/2000/svg">
  <path d="m19.378 15.166-.03-.073c-.3-.74-.611-1.507-.978-2.231-1.084-2.14-2.202-4.31-3.282-6.407l-.952-1.847a5.786 5.786 0 0 0-.351-.612c-.316-.463-.73-.688-1.233-.668-.44-.019-.822.147-1.174.319l-.297.145a383.96 383.96 0 0 0-4.364 2.152c-.507.256-1.033.557-1.45 1.03a1.54 1.54 0 0 0-.36 1.493l.014.058a2 2 0 0 0 .093.303c.135.31.27.62.408.93a115 115 0 0 1 .516 1.182 35.21 35.21 0 0 0 1.672 3.453 90.51 90.51 0 0 1 1.623 3.006c.344.66.7 1.342 1.066 2.004.208.36.459.692.747.99a1.291 1.291 0 0 0 .986.433 1.8 1.8 0 0 0 .333-.033c.639-.12 1.22-.39 1.703-.64 1.138-.585 2.252-1.18 3.311-1.77.469-.26.927-.556 1.37-.842l.347-.223c.423-.27.594-.682.508-1.223a4.22 4.22 0 0 0-.226-.93Zm-.492 1.232c.01.166-.067.299-.235.404l-.456.291c-.407.262-.827.533-1.256.772a75.465 75.465 0 0 1-3.05 1.63c-.405.19-.824.351-1.252.482l-.241.08c-.332.112-.634.015-.874-.28a18.734 18.734 0 0 1-.401-.518l-.17-.223c.77-.438 1.536-.889 2.276-1.326 1.762-1.039 3.426-2.02 5.233-2.879.205.482.395 1.005.426 1.567Zm-.725-2.246c-1.78.852-3.485 1.88-5.133 2.874-.767.463-1.56.941-2.353 1.398l-.074-.128c-.056-.098-.105-.183-.15-.27l-.23-.45c-.454-.887-.923-1.803-1.38-2.707l-.313-.621c-.78-1.544-1.588-3.141-2.37-4.718a6.565 6.565 0 0 1-.314-.808 22.795 22.795 0 0 0-.104-.303c-.146-.407-.042-.759.3-1.018a7.691 7.691 0 0 1 1.097-.714 258.741 258.741 0 0 1 3.446-1.742l.527-.264a14.83 14.83 0 0 1 1.045-.481c.138-.061.287-.095.438-.1.277 0 .493.15.674.456a37.84 37.84 0 0 1 1.148 2.092c.873 1.723 1.752 3.481 2.602 5.18l.743 1.487a28.516 28.516 0 0 1 .4.837Z"></path>
  <path d="M7.821 17.51a1.927 1.927 0 0 0-.414-.032 9.687 9.687 0 0 0-.442.025 4.93 4.93 0 0 1-.824.014c-1.33-.13-2.212-.744-2.621-1.826-.635-1.68-.377-3.239.767-4.633l.047-.055a.822.822 0 0 0 .131-.181.258.258 0 0 0-.269-.382.527.527 0 0 0-.285.114l-.145.125c-.19.149-.359.32-.506.51-.86 1.224-1.147 2.579-.85 4.026.323 1.576 1.25 2.598 2.758 3.039.356.095.718.164 1.084.207.164.023.332.047.497.075l.04.007.008-.044c.048 0 .095.002.142.003a2.17 2.17 0 0 0 .97-.154.436.436 0 0 0 .27-.478c-.02-.194-.143-.32-.358-.36Z"></path>
  <path d="M16.93 3.244a.859.859 0 0 0-.42.073c-.108.056-.226.199-.223.307.002.105.168.227.274.255.13.031.263.054.396.07.111.014.226.03.335.054.857.196 1.753.459 2.504 1.053.48.363.807.89.919 1.481.148.754.081 1.403-.206 1.985-.143.29-.304.577-.46.854a33.31 33.31 0 0 0-.248.445c-.023.044-.048.087-.072.13a2.367 2.367 0 0 0-.206.426c-.058.178-.138.422.123.66l.025.023.027-.02c.065-.046.13-.088.195-.13.14-.08.269-.18.381-.296.436-.495.968-1.171 1.223-2.006.486-1.59.187-2.921-.888-3.956-.894-.86-2.098-1.32-3.679-1.408Z"></path>
  <path d="M17.64 8.842a.171.171 0 0 0-.043.1c.002.032 0 .066 0 .1-.004.117-.007.238.06.302a.354.354 0 0 0 .237.072.54.54 0 0 0 .178-.03c.29-.11.487-.343.585-.692.152-.543.057-1.187-.256-1.722a2.457 2.457 0 0 0-1.56-1.143 1.906 1.906 0 0 0-.627-.013.314.314 0 0 0-.246.123c-.055.08-.06.196-.017.342l.007.024.025.005.164.029c.106.018.207.035.304.058.616.146 1.094.52 1.311 1.023a1.528 1.528 0 0 1-.122 1.422Z"></path>
  <path d="M5.704 12.941c.06-.112.136-.251-.036-.374-.094-.067-.244-.107-.419.088a1.492 1.492 0 0 0-.281.417c-.37.895-.271 1.749.295 2.538.34.474.802.713 1.414.729h.005l.005-.001a.806.806 0 0 1 .08-.014c.12-.018.24-.045.355-.081a.335.335 0 0 0 .204-.174.25.25 0 0 0-.001-.205.516.516 0 0 0-.288-.228.46.46 0 0 0-.186-.014.457.457 0 0 1-.144-.006l-.071-.019a2.47 2.47 0 0 1-.566-.202c-.303-.17-.44-.486-.533-.773a2.058 2.058 0 0 1 .147-1.643l.02-.038Z"></path>
  <path d="M15.403 17.018a.627.627 0 0 0-.552.307.442.442 0 0 0-.047.168.407.407 0 0 0 .113.297.542.542 0 0 0 .39.155h.01a.516.516 0 0 0 .368-.144.476.476 0 0 0 .14-.345.437.437 0 0 0-.422-.438Z"></path>
</svg>