<svg width="46" height="46" fill="currentColor" viewBox="0 0 24 24" xmlns="http://www.w3.org/2000/svg">
  <path d="m22.733 9.456-.033-.521a2.067 2.067 0 0 0-.438-1.174c-.256-.325-.581-.452-.941-.366l-.097.023c-.29.067-.59.138-.85.281-.457.253-.907.534-1.343.806-.191.119-.382.238-.575.355a.64.64 0 0 1-.063.033l-.061-.287c-.06-.286-.118-.556-.197-.827a1.791 1.791 0 0 0-1.161-1.22c-.363-.129-.75-.257-1.129-.273-1.69-.07-3.239-.11-4.735-.124a290.61 290.61 0 0 0-5.514.02c-.769.008-1.675.027-2.573.103-.806.067-1.324.518-1.497 1.303-.007.033-.018.065-.028.097-.01.032-.02.065-.028.097-.255 1.054-.331 2.214-.233 3.547.08 1.102.199 2.218.313 3.298l.08.754c.052.501.116.95.371 1.358.462.738 1.106 1.112 1.917 1.112h.046a148.78 148.78 0 0 0 1.522-.037c.544-.016 1.107-.032 1.66-.04 1.236-.018 2.472-.035 3.708-.048l3.685-.048a17.32 17.32 0 0 0 1.638-.082c.565-.062 1.151-.162 1.573-.626.301-.332.672-.741.787-1.337l.11.054c.13.064.244.12.359.173l.139.064c.506.235 1.028.479 1.602.563.69.1 1.19.014 1.528-.264.316-.26.484-.685.514-1.3a44.84 44.84 0 0 0 .069-2.895c-.015-.858-.07-1.73-.125-2.572Zm-1.019 5.45c-.01.101-.03.2-.062.297l-.025.094c-.49.081-.897-.08-1.264-.267-.422-.216-.835-.454-1.235-.683a74.526 74.526 0 0 0-.458-.262l-.147-4.178c.97-.608 1.858-1.141 2.853-1.509.187.154.217.356.231.55.119 1.636.239 3.79.107 5.958Zm-18.793.712c-.05-.352-.1-.715-.134-1.074-.033-.346-.057-.7-.08-1.043l-.036-.496c-.01-.128-.017-.257-.026-.385-.02-.3-.04-.61-.075-.916a12.071 12.071 0 0 1 .027-3.143c.016-.106.039-.213.06-.317a5.18 5.18 0 0 0 .062-.321c.042-.284.208-.434.538-.488.345-.057.683-.11 1.006-.158a14.66 14.66 0 0 1 2.186-.136l.323.002c1.06.009 2.138.003 3.18-.002.992-.005 2.018-.01 3.026-.003.906.006 1.838.077 2.64.143.289.036.573.106.846.206l.08.026a.837.837 0 0 1 .601.655c.083.394.145.793.186 1.194.072.808.134 1.619.188 2.334l.057.742-.038.77c-.033.645-.06 1.196-.091 1.747a1.901 1.901 0 0 1-.062.424c-.161.543-.46.842-.912.912-.4.061-.803.095-1.207.102-1.466.032-2.957.06-4.399.087l-3.886.075c-.504.01-1.014.03-1.509.05-.326.012-.653.025-.98.035a5.026 5.026 0 0 1-.358-.006c-.07-.003-.14-.006-.209-.007-.594-.01-.93-.482-.99-.915l-.014-.094Z"></path>
</svg>