<svg width="46" height="46" fill="currentColor" viewBox="0 0 24 24" xmlns="http://www.w3.org/2000/svg">
  <path d="M15.966 5.094a2.348 2.348 0 0 0-.085-.498.487.487 0 0 0-.248-.33.517.517 0 0 0-.427.017 9.729 9.729 0 0 1-.348.137c-.099.037-.197.075-.294.114l-.463.187c-.408.163-.83.332-1.234.52-.47.218-.956.473-1.489.782a167.49 167.49 0 0 0-3.867 2.288 1.293 1.293 0 0 1-.704.215c-.512.01-1.022.044-1.516.078-.956.066-1.117.407-1.133 1.198-.003.13-.002.26 0 .389 0 .128.001.256-.002.384-.032 1.563-.067 3.334-.107 5.084-.01.427.207.736.595.847.165.046.335.068.506.067.694-.002 1.602-.04 2.488-.321l.32.202c.248.157.504.32.761.471 1.746 1.028 3.635 1.83 5.461 2.606l.35.148a.547.547 0 0 0 .208.05.297.297 0 0 0 .168-.049.343.343 0 0 0 .137-.266c.004-.035.005-.07.007-.107 0-.062.006-.124.021-.185.372-1.196.633-2.423.78-3.666l.054-.475c.147-1.276.3-2.595.314-3.908.02-1.709-.09-3.438-.198-5.11l-.055-.87Zm-1.6 13.349.027.29v.002c-1.452-1.244-3.099-2.091-4.693-2.912-.353-.182-.717-.37-1.07-.557.005-.323.013-.642.02-.956.019-.75.036-1.46.025-2.18-.012-.724-.052-1.434-.094-2.185-.018-.313-.035-.63-.051-.95.044-.033.09-.063.138-.09l1.533-.862a444.082 444.082 0 0 0 3.59-2.028c.284-.17.559-.355.823-.555l.278-.202-.018.28c-.02.301-.04.586-.05.87l-.03.73a158.77 158.77 0 0 0-.098 2.972 85.737 85.737 0 0 1-.381 6.247c-.066.714-.011 1.422.051 2.086Zm-6.978-6.166.007.32c.014.79.028 1.608.206 2.464h-2.26a12.444 12.444 0 0 0-.127-4.633 15.63 15.63 0 0 1-.023-.374 5.219 5.219 0 0 1-.002-.297v-.072l2.246-.134c-.005.253-.013.507-.02.761-.02.643-.04 1.309-.027 1.965Z"></path>
  <path d="M18.17 8.008c-.212-.174-.5-.203-.669-.066-.163.132-.2.382-.092.622.05.114.112.224.172.33l.078.142c.626 1.169.904 2.175.875 3.167v.004a4.807 4.807 0 0 1-.628 2.415c-.207.378-.405.768-.596 1.146l-.244.479c-.057.11-.162.316.029.434a.51.51 0 0 0 .414.02c.418-.17.79-.437 1.082-.78.54-.646.917-1.28 1.155-1.935a4.249 4.249 0 0 0 .258-1.543c-.029-1.464-.54-2.824-1.565-4.16a1.692 1.692 0 0 0-.269-.275Z"></path>
</svg>