<svg width="46" height="46" fill="currentColor" viewBox="0 0 24 24" xmlns="http://www.w3.org/2000/svg">
  <path d="M2.744 15.677c-.01.43.205.74.59.85.16.046.327.068.495.068h.006c.687-.002 1.587-.04 2.464-.323l.316.202c.246.158.5.322.755.473 1.729 1.031 3.6 1.835 5.41 2.614l.346.148a.471.471 0 0 0 .206.049.289.289 0 0 0 .167-.048.34.34 0 0 0 .135-.267c.003-.035.005-.071.006-.107 0-.062.007-.125.022-.185.368-1.2.626-2.43.772-3.676l.054-.475c.146-1.28.296-2.604.311-3.921.02-1.713-.09-3.447-.197-5.124l-.054-.872a2.379 2.379 0 0 0-.084-.499.494.494 0 0 0-.245-.331.508.508 0 0 0-.424.018c-.113.048-.23.093-.345.137-.097.037-.194.075-.29.114-.153.064-.306.126-.46.188-.403.163-.82.332-1.222.52-.465.22-.947.476-1.474.785-1.309.767-2.587 1.52-3.831 2.294a1.27 1.27 0 0 1-.697.217c-.507.008-1.013.044-1.502.078-.947.066-1.106.408-1.122 1.201-.003.13-.002.26-.001.39 0 .128.002.257 0 .385-.032 1.567-.067 3.342-.107 5.097Zm3.308-3.39.006.32c.014.794.028 1.613.205 2.472h-2.24l-.002-.014A1.404 1.404 0 0 1 4 14.87c-.011-.555-.022-1.11-.031-1.665-.013-.736-.027-1.473-.042-2.209a12.639 12.639 0 0 0-.029-.562c-.008-.125-.016-.25-.022-.376a5.239 5.239 0 0 1-.002-.298v-.071l2.225-.135c-.005.254-.013.508-.02.763-.02.645-.04 1.312-.026 1.97Zm6.912 6.182.025.285.001.009c-1.439-1.248-3.07-2.098-4.648-2.92-.35-.183-.71-.37-1.061-.56.006-.323.013-.641.021-.956.018-.754.036-1.466.024-2.188a52.028 52.028 0 0 0-.093-2.19c-.017-.314-.035-.632-.05-.953.044-.033.09-.063.137-.09.504-.289 1.01-.576 1.515-.863a480.87 480.87 0 0 0 3.56-2.035c.28-.17.552-.356.814-.557.09-.066.181-.134.276-.202l-.018.278c-.02.303-.04.589-.05.875l-.029.73c-.038.977-.078 1.988-.098 2.982a87.078 87.078 0 0 1-.377 6.265c-.066.714-.011 1.424.05 2.09Z"></path>
  <path d="M19.203 5.597c-.21-.318-.457-.333-.62-.239-.131.076-.248.25-.06.656a202.382 202.382 0 0 1 .602 1.292A9.593 9.593 0 0 1 20 10.567a8.364 8.364 0 0 1-.572 3.802 26.553 26.553 0 0 1-1.866 3.819c-.055.092-.095.28-.023.378a.349.349 0 0 0 .268.108.284.284 0 0 0 .108-.02c.238-.1.45-.197.616-.352.344-.312.663-.651.954-1.014.501-.648.855-1.398 1.175-2.111a8.212 8.212 0 0 0 .703-3.059v-.001a10.4 10.4 0 0 0-1.168-4.878 20.258 20.258 0 0 0-.993-1.642Z"></path>
  <path d="M15.666 16.702a.498.498 0 0 0 .41.02 2.77 2.77 0 0 0 1.072-.781c.535-.649.909-1.284 1.145-1.941.179-.496.265-1.02.255-1.547-.028-1.468-.535-2.833-1.55-4.172a1.683 1.683 0 0 0-.267-.276c-.21-.174-.495-.203-.662-.066-.162.132-.199.383-.092.624.05.114.111.225.17.332l.078.141c.62 1.172.895 2.181.866 3.176v.004a4.867 4.867 0 0 1-.622 2.421c-.204.38-.4.772-.59 1.151l-.241.479c-.056.11-.161.317.028.435Z"></path>
</svg>