<svg width="46" height="46" fill="currentColor" viewBox="0 0 24 24" xmlns="http://www.w3.org/2000/svg">
  <path d="M12.366 19.07c-2.113-.044-3.763-.058-5.412-.12a37.273 37.273 0 0 1-2.831-.24 4.123 4.123 0 0 1-1.024-.297c-.5-.197-.777-.594-.852-1.125a3.555 3.555 0 0 1-.044-.574 652.278 652.278 0 0 1 .2-7.585c.021-.658.039-1.316.09-1.972.07-.888.487-1.534 1.378-1.8a3.82 3.82 0 0 1 .76-.18c.998-.087 1.998-.193 2.999-.215 2.584-.058 5.169-.092 7.754-.103 1.306-.02 2.612.06 3.907.235.407.06.81.145 1.207.255a1.345 1.345 0 0 1 .996 1.003c.079.263.127.534.145.807.042 1.457.084 2.914.09 4.37.009 1.651-.07 3.3-.41 4.92-.113.534-.31 1.05-.48 1.571-.106.331-.375.493-.683.604-.602.215-1.23.292-1.862.315-2.13.08-4.259.189-5.928.13Zm8.163-5.256a1.349 1.349 0 0 0-.177-.023c-.974.051-1.949.138-2.924.148-.989.01-1.98-.026-2.965-.1-.834-.065-1.216-.45-1.417-1.26-.16-.64-.133-1.286-.028-1.924.136-.822.479-1.153 1.314-1.312 1.012-.201 2.041-.3 3.073-.295.908.012 1.815.027 2.723.037.144.001.289-.015.485-.026-.044-.745-.076-1.443-.129-2.14-.023-.302-.184-.503-.511-.548-.64-.088-1.274-.246-1.915-.273-1.648-.07-3.298-.112-4.948-.112-1.911 0-3.823.05-5.734.091-.576.012-1.152.05-1.726.098a17.79 17.79 0 0 0-1.266.168c-.61.096-.925.518-1.048 1.071a6.27 6.27 0 0 0-.141 1.309c-.019 2.654-.02 5.308-.025 7.962 0 .096 0 .193.008.288.026.3.154.524.467.604.173.045.341.11.516.138 1.116.18 2.242.226 3.37.25 3.644.078 7.288.179 10.93-.078.467-.033.925-.086 1.336-.275.488-1.232.663-2.49.732-3.798Zm.052-3.862c-1.271.033-2.508.041-3.741.108-.78.042-1.557.157-2.331.269-.392.056-.488.156-.51.528-.033.493-.034.987-.002 1.48.03.44.14.52.59.599.163.028.327.049.49.065 1.375.137 2.748.035 4.121-.016.462-.017.923-.064 1.37-.096.13-.553.131-2.455.013-2.937Z"></path>
  <path d="M15.875 10.69c.528-.104.86.382.858.815-.003.492-.36.85-.86.86-.528.01-.99-.392-.978-.851.013-.483.42-.824.98-.824Z"></path>
</svg>