<svg width="46" height="46" fill="currentColor" viewBox="0 0 24 24" xmlns="http://www.w3.org/2000/svg">
  <path d="M20.138 18.157c.09.005.185.013.28.016.372.008.673.085.743.539.034.224.18.428.247.65.112.373-.037.65-.402.776a1.125 1.125 0 0 1-.323.06c-2.102.072-4.204.135-6.305.21-1.54.055-3.077.125-4.616.186-.838.033-1.676.061-2.514.091-.948.035-1.896.078-2.844.1a9.518 9.518 0 0 1-1.276-.047c-.557-.062-.731-.286-.733-.846l.002-.371c0-.467.135-.631.613-.68.257-.025.519-.004.822-.004l.152-6.934c-.177.125-.325.236-.479.338-.574.384-1.07.153-1.131-.53-.03-.343-.014-.691-.066-1.03-.104-.684.21-1.149.725-1.536 1.054-.794 2.09-1.614 3.158-2.39a59.754 59.754 0 0 1 5.266-3.393c.33-.19.54-.188.85-.007 1.794 1.046 3.573 2.111 5.292 3.28 1.158.789 2.36 1.514 3.55 2.254.305.19.5.394.473.79-.02.297.046.6.075.902.029.302.057.6-.098.885-.191.351-.437.485-.815.357-.28-.094-.541-.246-.794-.364l.148 6.698Zm-.994.08c0-.256.002-.473 0-.69-.02-2.158-.043-4.316-.054-6.475 0-.213-.087-.31-.252-.417-1.292-.835-2.577-1.682-3.865-2.523-.987-.646-1.975-1.291-2.964-1.936-.261.194-.498.38-.745.554a2690.42 2690.42 0 0 1-6.243 4.383c-.261.183-.387.369-.377.704.057 1.993.09 3.986.133 5.979.007.297.026.595.041.932l.812-.057c0-.345-.003-.632 0-.92.019-1.855-.066-3.712.121-5.563.045-.446.085-.503.526-.595a3.37 3.37 0 0 1 .326-.047c.615-.067 1.229-.146 1.845-.194 1.41-.11 2.822-.222 4.235-.297 1.345-.072 2.692-.09 4.038-.145.773-.031 1.131.248 1.185 1.015.075 1.069.14 2.14.175 3.21.03.88.01 1.76.017 2.64 0 .158.02.316.033.502l1.014-.06Zm-2.064-6.37c-1.487-.152-9.477.19-10.675.46-.007.113-.022.233-.02.353.023 1.91.049 3.82.076 5.731.01.087.03.173.056.256L7.65 18.6c0-.673.008-1.292-.004-1.91-.005-.311.144-.492.422-.578.145-.042.293-.073.442-.09.242-.035.485-.06.734-.09 0-.126-.003-.22 0-.313.02-.562.025-1.125.068-1.686.023-.307.137-.422.444-.445a74.904 74.904 0 0 1 2.713-.152c.316-.012.443.123.506.432.039.188.06.38.084.57.054.417.105.834.156 1.252.068.008.136.01.203.008.71-.088.926.165 1.047.802.125.656.227 1.316.348 2.028l2.37-.09-.103-6.47Zm-5.111-7.823c-.144.094-.257.172-.374.242C8.87 5.902 6.309 7.753 3.762 9.628c-.377.277-.52.564-.445.998.027.16.047.323.077.539l1.068-.77 6.736-4.83c.1-.071.208-.133.314-.196a.512.512 0 0 1 .614.034c.21.155.422.31.643.447 2.519 1.57 4.966 3.254 7.55 4.719.114.064.231.122.377.2.028-.278.035-.499.076-.713.055-.283-.049-.451-.288-.606-1.938-1.256-3.86-2.536-5.803-3.784-.878-.564-1.79-1.073-2.712-1.622ZM3.03 20.078c.23.032.46.052.692.058 1.304-.043 2.608-.098 3.912-.146 1.043-.04 2.087-.07 3.13-.113 1.084-.044 2.167-.111 3.252-.146 1.798-.057 3.6-.036 5.39-.25.287-.034.575-.05.861-.085.114-.014.273.005.27-.179-.005-.194-.156-.147-.276-.144-.027.001-.054.006-.082.007-.933.037-1.867.085-2.8.106-2.268.052-4.536.086-6.803.136-2.46.054-4.919.118-7.378.178-.065.002-.13.01-.222.018l.054.56Zm7.433-1.55v-1.995c-.723.039-1.414 0-2.104.15l.217 1.845h1.887Zm3.152-.107-.175-1.919h-2.038l.27 1.995 1.942-.076Zm-1.353-4.448c-.753-.014-1.492-.045-2.273.053l.215 1.814 2.058-.207v-1.66Z"></path>
</svg>