<svg width="46" height="46" fill="currentColor" viewBox="0 0 24 24" xmlns="http://www.w3.org/2000/svg">
  <path d="M11.948 21.484c-1.14-.045-2.281-.082-3.42-.142a8.879 8.879 0 0 1-1.056-.156c-.235-.041-.345-.229-.395-.432a8.897 8.897 0 0 1-.163-.89c-.218-1.537-.44-3.073-.644-4.611-.214-1.607-.405-3.216-.617-4.823-.209-1.582-.375-3.166-.34-4.766a1.616 1.616 0 0 0-.05-.366c-.09-.425.039-.784.316-1.104.342-.394.773-.657 1.247-.856a10.01 10.01 0 0 1 2.297-.64c1.715-.274 3.44-.421 5.176-.322 1.112.063 2.212.229 3.264.622.103.039.207.076.306.123.796.369 1.041.945.88 1.815a111.28 111.28 0 0 0-.705 4.266c-.282 1.93-.525 3.866-.79 5.798-.172 1.253-.337 2.506-.533 3.755-.102.65-.258 1.291-.405 1.933-.05.17-.12.334-.206.49-.149.31-.402.423-.74.41-1.14-.046-2.28-.08-3.422-.12v.016Zm4.396-8.733c-.492.06-.98.148-1.471.17-.904.04-1.772-.182-2.627-.448-.803-.25-1.612-.463-2.457-.486-.91-.024-1.775.15-2.567.623-.155.093-.231.187-.202.394.306 2.188.597 4.379.896 6.568.04.294.096.587.145.884.12.014.2.032.28.033 2.212.024 4.424.047 6.636.068.1-.005.2-.02.296-.04l1.07-7.765Zm1.106-6.485c-.588.126-1.21.304-1.844.387-2.148.279-4.307.277-6.465.136-.92-.06-1.837-.152-2.711-.478-.082-.03-.169-.047-.298-.082.144 1.958.468 3.841.76 5.752 1.158-.656 2.342-.872 3.592-.67.622.102 1.24.24 1.85.4.773.203 1.546.437 2.351.353.623-.064 1.237-.215 1.827-.322l.938-5.476Zm-5.859-.144c.673 0 1.349.04 2.018-.01.847-.063 1.691-.18 2.531-.31a2.704 2.704 0 0 0 1.282-.53c.584-.462.537-1.057-.142-1.335a20.237 20.237 0 0 0-2.022-.69c-.44-.128-.882-.263-1.36-.265a21.792 21.792 0 0 0-5.307.606c-.62.152-1.222.402-1.812.655-.255.11-.476.323-.679.522-.181.178-.16.409.023.582a.995.995 0 0 0 .346.216c.36.135.727.245 1.101.33 1.328.259 2.676.248 4.021.23Z"></path>
</svg>