<svg width="46" height="46" fill="currentColor" viewBox="0 0 24 24" xmlns="http://www.w3.org/2000/svg">
  <path d="M18 10.077a.143.143 0 0 1-.03-.025.89.89 0 0 0-.023-.02l.05-.113c.054-.11.099-.224.134-.34a8.01 8.01 0 0 1 .063-.221c.089-.268.147-.544.173-.825a1.082 1.082 0 0 0-.74-1.1 1.184 1.184 0 0 0-.491-.066c-.062.004-.122.01-.19.017l-.05.005.026-.207.073-.588c.056-.46-.12-.742-.28-.898a1.208 1.208 0 0 0-.998-.305c-.332.045-.645.187-.985.445-.071.054-.14.113-.22.18l-.07.059.001-.117a6.387 6.387 0 0 0-.002-.334c-.026-.588-.354-.917-.948-.95a1.103 1.103 0 0 0-.898.324c-.203.21-.392.44-.575.662-.059.07-.117.142-.177.212-1.096 1.31-2.031 2.765-2.936 4.171l-.184.287c-.052.081-.108.161-.162.241l-.056.08-.003-.002-.008-.004-.035-.105a4.162 4.162 0 0 0-.04-.12c-.322-.915-.9-1.572-1.713-1.953a1.195 1.195 0 0 0-1.177.058 1.26 1.26 0 0 0-.553 1.094c.011.22.047.438.106.651l.02.085c.184.793.238 1.406.173 1.988-.048.423-.107.853-.163 1.268-.055.401-.112.816-.159 1.225-.063.52-.098 1.042-.106 1.565.003.293.054.584.15.86.631 1.877 1.864 3.133 3.664 3.733a4.824 4.824 0 0 0 1.529.258 4.33 4.33 0 0 0 1.53-.28 6.037 6.037 0 0 0 2.176-1.42c.805-.81 1.654-1.684 2.414-2.65.655-.833 1.47-1.869 2.047-2.996.315-.597.57-1.224.759-1.872.254-.915-.173-1.665-1.117-1.957Zm-11.966-.044a2.65 2.65 0 0 1-.109-.556c-.008-.16.03-.282.113-.35.085-.073.22-.091.388-.053.247.061.47.197.638.388.523.554.744 1.053.715 1.618-.016.17-.053.337-.11.498a8.59 8.59 0 0 0-.038.128c-.053.182-.08.387.127.526.176.118.374.095.543-.063.11-.108.207-.228.29-.357.308-.46.616-.92.922-1.381.628-.942 1.277-1.916 1.931-2.863.366-.528.78-1.036 1.182-1.528l.262-.322c.115-.145.261-.263.428-.345.142-.066.268-.068.355-.007.087.06.126.178.113.333a2.181 2.181 0 0 1-.172.742 16.415 16.415 0 0 1-.793 1.485c-.432.715-.88 1.435-1.315 2.132l-.616.988a.9.9 0 0 0-.092.195.347.347 0 0 0 .16.439.317.317 0 0 0 .452-.1l.164-.227c.135-.179.261-.365.376-.558.61-1.07 1.382-2.054 2.063-2.92a38.7 38.7 0 0 1 .914-1.115 1.67 1.67 0 0 1 .83-.546c.174-.049.29-.046.354.01.065.054.087.169.066.35-.07.607-.343 1.147-.6 1.595-.717 1.253-1.584 2.497-2.73 3.916-.058.07-.12.14-.18.207-.084.095-.172.193-.248.297-.103.14-.137.276-.098.393.04.121.151.213.324.267.268.083.505.004.705-.235l.1-.118c.229-.273.466-.555.671-.853.496-.722.985-1.465 1.458-2.184l.212-.32c.077-.118.148-.243.217-.363.046-.081.092-.162.14-.242a1.79 1.79 0 0 1 .886-.73c.191-.078.336-.06.455.053.12.114.109.25.058.42a5.999 5.999 0 0 1-.865 1.803c-.398.553-.813 1.11-1.215 1.648-.266.356-.531.714-.796 1.071-.119.162-.232.332-.342.495-.085.129-.174.261-.265.39-.155.218-.15.432.015.654.096.13.2.195.307.196h.002a.381.381 0 0 0 .293-.178c.12-.155.232-.318.342-.476.077-.111.154-.222.233-.331.145-.198.289-.396.432-.595.453-.626.921-1.273 1.407-1.889.139-.176.399-.282.628-.376l.051-.02a.24.24 0 0 1 .216.011.316.316 0 0 1 .143.24c.043.322.028.565-.044.742a24.91 24.91 0 0 1-.954 2.094c-.445.86-1.038 1.628-1.613 2.329a8.13 8.13 0 0 0-.442.612 7.521 7.521 0 0 1-.476.652c-.396.467-.852.913-1.253 1.306a5.143 5.143 0 0 1-1.872 1.15c-.692.251-1.474.241-2.324-.029-1.596-.506-2.7-1.61-3.283-3.283a2.597 2.597 0 0 1-.108-.639 4.455 4.455 0 0 0-.023-.234l.042-.395c.027-.26.05-.486.081-.713.043-.315.09-.63.136-.944.07-.48.143-.976.204-1.466a6.368 6.368 0 0 0-.168-2.469Z"></path>
  <path d="M11.154 4.83a7.542 7.542 0 0 1-.074.107c-.091.12-.168.25-.227.39a.409.409 0 0 0 .083.374c.1.09.313.06.375.048a.515.515 0 0 0 .26-.17 32.2 32.2 0 0 1 .176-.2c.247-.278.502-.565.728-.868.125-.169.175-.317.153-.455-.023-.143-.126-.276-.313-.407-.3-.21-.628-.424-1.002-.653-.028-.018-.056-.039-.086-.06-.127-.096-.301-.226-.465-.01-.165.217.017.366.148.475l.056.047c.132.117.273.227.422.343l.118.092-.203-.002a9.71 9.71 0 0 0-.586.004c-1.337.065-2.588.522-3.715 1.359-.514.383-.93.882-1.213 1.457a1.768 1.768 0 0 0-.061.14l-.036.088a.348.348 0 0 0-.021.283.215.215 0 0 0 .187.12.594.594 0 0 0 .297-.138.331.331 0 0 0 .094-.137.521.521 0 0 1 .042-.08c.052-.074.1-.15.15-.226.108-.18.234-.347.377-.5 1.261-1.245 2.753-1.807 4.558-1.717l-.065.083c-.062.082-.113.146-.157.213Z"></path>
</svg>