<svg width="46" height="46" fill="currentColor" viewBox="0 0 24 24" xmlns="http://www.w3.org/2000/svg">
  <path d="M19.055 15.098c-.026-.252-.053-.512-.074-.768a16.859 16.859 0 0 0-.123-.994c-.106-.742-.216-1.508-.082-2.273.055-.314.123-.623.2-.965.064-.287.112-.624-.017-.958a1.231 1.231 0 0 0-.741-.753c-.35-.118-.747-.058-1.118.168-.747.457-1.258 1.087-1.516 1.873l-.061.178-.017.05-.017-.024c-.032-.044-.057-.077-.08-.111-.17-.26-.34-.522-.507-.785a58.032 58.032 0 0 0-1.145-1.73 71.701 71.701 0 0 0-1.892-2.549 2.956 2.956 0 0 0-.635-.598c-.361-.256-.793-.276-1.216-.057-.416.214-.458.624-.444.996.003.065.002.129.002.211v.062c-.029-.024-.054-.048-.078-.07a1.113 1.113 0 0 0-.235-.18l-.195-.103a3.098 3.098 0 0 0-.744-.319 1.122 1.122 0 0 0-.992.25c-.252.229-.364.566-.314.95.024.182.046.364.069.554l.028.232-.034-.003-.135-.01a1.208 1.208 0 0 0-.987.316 1.146 1.146 0 0 0-.312.935c.033.259.093.514.18.76l.075.24c.033.105.073.209.12.31.015.032.029.065.042.097l-.017.017a.1.1 0 0 0-.01.012.93.93 0 0 1-.112.037c-.529.126-.861.463-1.017 1.028-.105.385-.084.79.065 1.24a10.42 10.42 0 0 0 1.158 2.374 27.058 27.058 0 0 0 3.61 4.445c.724.73 1.406 1.24 2.145 1.604a4.3 4.3 0 0 0 1.925.454c.5-.003.996-.082 1.473-.234 1.454-.45 2.55-1.347 3.26-2.662.347-.643.655-1.28.622-2.005-.02-.415-.064-.835-.107-1.242ZM7.07 11.634c.224.32.465.635.698.94.17.222.345.45.512.68.203.278.402.566.595.846.124.18.248.36.374.537.169.239.327.37.55.231a.55.55 0 0 0 .248-.555.501.501 0 0 0-.077-.187 50.894 50.894 0 0 0-1.265-1.784 39.068 39.068 0 0 0-.438-.573c-.507-.657-1.032-1.336-1.402-2.1a9.288 9.288 0 0 1-.351-.875l-.056-.155c-.063-.172-.036-.31.082-.407.116-.097.251-.11.426-.04.367.14.68.393.892.724l.168.259c.519.799 1.055 1.625 1.592 2.432.246.371.517.734.78 1.086l.014.02c.107.145.23.28.363.402a.578.578 0 0 0 .62.117c.161-.06.265-.153.3-.272a.418.418 0 0 0-.097-.37c-.14-.185-.292-.366-.439-.54a20.195 20.195 0 0 1-.317-.386c-.83-1.043-1.882-2.442-2.66-4.006-.168-.34-.259-.726-.345-1.126-.032-.147-.02-.249.037-.304.058-.057.172-.068.329-.032.356.084.673.289.897.578l.354.433a35.62 35.62 0 0 1 1.26 1.6c.417.576.818 1.18 1.206 1.763.175.264.351.528.529.79.061.091.117.169.17.237a.333.333 0 0 0 .225.135.259.259 0 0 0 .198-.064.625.625 0 0 0 .176-.366c.013-.085-.045-.177-.096-.258l-.018-.03-.667-1.07c-.433-.692-.88-1.407-1.31-2.118a14.284 14.284 0 0 1-.742-1.419 2.09 2.09 0 0 1-.16-.704c-.014-.161.03-.284.12-.346.093-.063.225-.057.374.017.153.08.287.192.395.327.326.396.644.785.936 1.2.442.627.882 1.27 1.308 1.893l.632.924.464.67c.183.262.365.525.546.788.068.099.133.2.198.3.083.13.169.261.259.388.087.127.191.242.31.34a.392.392 0 0 0 .51.002c.134-.105.174-.263.115-.457a3.477 3.477 0 0 0-.06-.17 1.915 1.915 0 0 1-.089-.295c-.164-.865.496-1.773 1.036-2.096.221-.132.437-.238.651-.09.227.159.183.4.118.635-.131.475-.281 1.104-.273 1.758v.235c-.005.239.004.477.028.715.063.512.139 1.032.212 1.534.038.265.077.53.113.794.019.133.034.266.05.398.015.138.031.28.051.42.135.952-.149 1.838-.921 2.874-.81 1.087-2.041 1.796-3.291 1.896h-.038c-1.509 0-2.39-.501-3.245-1.253-.656-.576-1.484-1.367-2.067-2.377a3.532 3.532 0 0 0-.374-.5 6.918 6.918 0 0 1-.183-.222c-.999-1.28-1.706-2.541-2.162-3.857a1.86 1.86 0 0 1-.093-.747c.013-.15.066-.257.152-.31a.3.3 0 0 1 .152-.039.62.62 0 0 1 .225.051c.277.105.515.29.686.53Z"></path>
  <path d="m12.26 5.407.046.055c.09.114.208.203.342.26.114.04.32.059.417-.024.094-.079.123-.295.08-.41a1.531 1.531 0 0 0-.22-.365 3.778 3.778 0 0 1-.091-.127 7.522 7.522 0 0 0-.144-.2l-.04-.055a4.79 4.79 0 0 1 1.921.17c1.596.499 2.62 1.259 3.223 2.39l.017.033a.291.291 0 0 0 .12.15c.06.025.125.038.19.04a.285.285 0 0 0 .105-.019c.078-.031.125-.164.124-.241a.593.593 0 0 0-.092-.293 10.13 10.13 0 0 1-.162-.27 3.333 3.333 0 0 0-.483-.689c-1.368-1.373-3.015-2.012-4.894-1.9a2.853 2.853 0 0 1-.195.003l-.056-.001.312-.26.117-.095c.088-.071.18-.144.263-.224.07-.065.232-.219.097-.413-.143-.205-.344-.076-.42-.028l-.013.008c-.383.244-.78.496-1.158.762-.328.23-.379.485-.159.8.23.329.496.641.752.943Z"></path>
</svg>