<svg width="46" height="46" fill="currentColor" viewBox="0 0 24 24" xmlns="http://www.w3.org/2000/svg">
  <path d="M11.538 8.17c-.255.249-.469.437-.659.647a7.586 7.586 0 0 0-1.337 2.117c-.851 1.998-1.476 4.072-2.034 6.168-.049.185-.06.38-.116.563a.636.636 0 0 1-.61.468.644.644 0 0 1-.631-.44 1.797 1.797 0 0 1-.086-.317c-.26-1.432-.519-2.865-.776-4.298-.251-1.405-.51-2.81-.741-4.219-.073-.445-.068-.904-.092-1.356 0-.11.01-.22.027-.329a.386.386 0 0 1 .333-.366c.179-.035.355.084.432.305.047.158.084.318.112.48l.91 4.225c.177.818.357 1.636.54 2.453.028.132.067.261.124.477.25-.758.468-1.436.698-2.11.372-1.091.77-2.172 1.35-3.176a7.571 7.571 0 0 1 1.808-2.123c.214-.173.42-.355.636-.525.409-.325.839-.24 1.037.243.13.346.225.705.283 1.07.373 1.971.734 3.945 1.1 5.917.023.12.053.24.101.456.064-.214.103-.338.138-.464.54-1.95 1.17-3.863 2.208-5.619.47-.797.993-1.555 1.673-2.186a3.87 3.87 0 0 1 .742-.508c.243-.136.484-.066.68.122.175.168.214.432.073.688-.113.22-.257.422-.428.6-1.406 1.37-2.242 3.075-2.893 4.888-.624 1.734-1.048 3.525-1.483 5.313-.037.16-.083.319-.14.473a.734.734 0 0 1-.69.502.72.72 0 0 1-.716-.523 8.118 8.118 0 0 1-.274-1.12c-.469-2.75-1.014-5.489-1.25-8.275-.003-.04-.017-.08-.05-.22Z"></path>
</svg>