<svg width="46" height="46" fill="currentColor" viewBox="0 0 24 24" xmlns="http://www.w3.org/2000/svg">
  <path d="M1.696 22.939c.314-.041.624-.107.928-.196l.208-.054a122.92 122.92 0 0 0 2.39-.633c.458-.126.772-.078 1.089.168.216.168.487.262.75.353l.17.06c1.675.613 3.406.684 5.03.669.193.012.386.018.58.018 1.934 0 3.915-.593 5.767-1.73 2.098-1.29 3.515-3.158 4.212-5.555.567-1.95.596-4.099.09-6.57-.618-3.013-2.26-5.338-4.879-6.91A14.226 14.226 0 0 0 13.977.913a8.477 8.477 0 0 0-2.98-.145c-1.212.141-2.34.503-3.663 1.003-2.697 1.02-4.596 2.996-5.807 6.042-1.02 2.57-.977 5.41.14 8.938.213.677.24 1.186.088 1.704-.2.683-.392 1.38-.578 2.055l-.266.96a5.213 5.213 0 0 1-.053.169c-.024.073-.048.15-.068.228-.084.338-.037.633.134.83.166.19.44.276.772.241Zm1.223-5.821c-.43-1.168-.587-2.438-.738-3.666l-.054-.43c-.202-1.605-.043-3.12.472-4.506C3.63 5.745 5.32 3.92 7.762 2.938c.952-.383 2.089-.795 3.294-.948 1.83-.232 3.675.183 5.806 1.307 1.728.91 2.98 2.115 3.828 3.682a9.587 9.587 0 0 1 1.043 3.246c.214 1.476.372 3.23-.075 5.042-.542 2.2-1.754 3.851-3.706 5.049a9.803 9.803 0 0 1-5.365 1.47 35.829 35.829 0 0 1-3.12-.167 5.922 5.922 0 0 1-2.462-.779 1.697 1.697 0 0 0-.886-.267 1.67 1.67 0 0 0-.434.06c-.605.162-1.224.309-1.824.451l-.813.195c-.185.045-.37.091-.594.148l-.253.063c.072-.264.14-.519.205-.766.17-.64.33-1.245.517-1.832.181-.568.25-1.087-.004-1.774Z"></path>
  <path d="M4.826 8.737c.16.393.348.772.566 1.136 1.615 2.553 3.42 4.837 5.364 6.789.63.618 1.3 1.193 2.007 1.721a3.33 3.33 0 0 0 2.057.725 3.848 3.848 0 0 0 1.137-.18c1.102-.34 2.05-.956 2.91-1.57.357-.256.56-.574.588-.92.028-.351-.132-.708-.461-1.033-1.031-1.016-2.136-1.986-3.176-2.883-.617-.532-1.037-.54-1.728-.034a6.957 6.957 0 0 0-.255.2c-.066.053-.132.107-.2.158-.653.496-.757.493-1.4-.03a3.004 3.004 0 0 1-.557-.572l-.113-.159a18.974 18.974 0 0 1-1.068-1.612c-.679-1.192-.632-1.374.547-2.157a.082.082 0 0 0 .035-.047c.147-.56-.093-.93-.375-1.248l-.94-1.064-1.08-1.22a6.693 6.693 0 0 0-.35-.358c-.235-.228-.494-.275-.77-.139-.925.458-1.957 1.073-2.593 2.16-.443.756-.5 1.524-.17 2.282l.025.055Zm4.86-.713c-.14.075-.269.168-.385.275-.41.416-.573.956-.437 1.445.616 2.22 1.517 3.638 2.919 4.6.787.54 1.593.538 2.397-.009.247-.168.485-.351.737-.545l.313-.24 2.467 2.641c-.934.738-1.74 1.148-2.604 1.326a1.734 1.734 0 0 1-1.548-.398l-.523-.458c-.743-.648-1.51-1.318-2.205-2.033-1.465-1.506-2.833-3.23-4.184-5.27a7.568 7.568 0 0 1-.376-.66l-.142-.267c-.35-.642-.274-1.267.22-1.807.301-.315.619-.613.952-.894.143-.125.29-.254.441-.39l2.09 2.604a3.096 3.096 0 0 1-.132.08Z"></path>
</svg>