<svg width="46" height="46" fill="currentColor" viewBox="0 0 24 24" xmlns="http://www.w3.org/2000/svg">
  <path d="M7.735 7.139c1.476.027 2.905.044 4.333.082 1.622.042 3.244.1 4.865.156.541.02.74.18.761.712.05 1.236.1 2.473.084 3.71-.015 1.111-.117 2.222-.18 3.333a.561.561 0 0 0 0 .082c.007.301-.073.646.049.892.11.223.456.32.667.507.409.366.801.751 1.19 1.138.323.321.313.319.733.135.25-.112.509-.203.773-.27.194-.049.396-.007.49.206.093.213.052.438-.143.551-.446.266-.908.505-1.382.717-.23.1-.455-.044-.63-.216-.341-.339-.677-.683-1.02-1.02-.194-.19-.398-.369-.67-.62l.1 1.365c.115.066.236.128.35.202.683.45.826 1.18.36 1.852-.355.515-.856.726-1.465.62-.524-.09-.917-.38-1.046-.923-.13-.546.075-.997.463-1.376.083-.074.171-.143.264-.207v-1.534h-3.446c-.072.291-.13.586-.22.87-.391 1.22-1.057 2.228-2.224 2.842-.672.352-1.402.478-2.149.5-1.634.05-3.175-.273-4.37-1.463C2.765 18.48 2.04 16.695 2.7 14.551c.283-.917.853-1.66 1.59-2.264.64-.525 1.332-.97 2.14-1.204.076-.03.15-.065.22-.105 0-.43-.002-.868 0-1.308.006-1.595.006-3.19.028-4.785.003-.276-.103-.404-.34-.475-.816-.242-1.63-.484-2.445-.728-.105-.031-.214-.053-.315-.093-.343-.138-.511-.393-.438-.652.08-.288.372-.449.728-.379.256.05.506.128.757.197.608.168 1.22.326 1.822.512.301.094.593.215.872.362.352.182.48.487.46.89-.041.823-.05 1.649-.07 2.473a.7.7 0 0 0 .026.147Zm9.057 3.182c-3.092.23-6.137.008-9.207.022l-.03.53c.477.082.906.196 1.34.225 2.08.141 3.862 1.852 4.28 3.83.087.412.126.835.185 1.242h3.322l.11-5.85Zm-8.185 9.946c.194-.021.566-.045.93-.108.495-.086.953-.276 1.308-.645.484-.502.85-1.079 1.007-1.766a6.014 6.014 0 0 0 .121-2.25c-.212-1.413-1-2.391-2.298-2.93-.51-.211-1.086-.265-1.63-.4-1.182-.293-2.148.102-3.008.9-.598.554-1.081 1.178-1.266 1.98-.368 1.604.218 2.919 1.33 4.029.911.91 2.092 1.148 3.506 1.19ZM7.694 9.371c3.023-.038 6.018.077 9.033-.125.009-.15.02-.272.02-.392.001-.12-.01-.24-.015-.353-1.01-.163-8.349-.389-9.038-.274v1.144Zm9.463 10.062c-.258.23-.368.474-.25.644a.5.5 0 0 0 .359.192c.098 0 .25-.128.283-.23.108-.324-.147-.456-.392-.606Z"></path>
  <path d="M8.396 18.828c-.495-.102-1.009-.15-1.481-.316-1.485-.522-2.172-2.105-1.57-3.557.35-.842 1-1.29 1.894-1.472a4.39 4.39 0 0 1 1.951.007 2.549 2.549 0 0 1 1.944 2.73c-.019.246-.058.49-.116.73-.27 1.005-.934 1.586-1.954 1.761-.216.038-.436.05-.654.075l-.014.042Zm-.125-1.043.013-.049c.191-.013.384-.016.574-.04.388-.052.729-.23.91-.57.512-.953.266-2.11-.827-2.47a11.357 11.357 0 0 0-1.479-.338.966.966 0 0 0-.872.261c-.735.725-.766 2.407.531 2.936.36.146.765.183 1.15.27Z"></path>
</svg>