<svg width="46" height="46" fill="currentColor" viewBox="0 0 24 24" xmlns="http://www.w3.org/2000/svg">
  <path d="M21.873 10.248c-.081-2.085-.164-4.17-.247-6.254a7.747 7.747 0 0 0-.095-1.077c-.086-.48-.341-.688-.83-.669-.307.02-.612.07-.91.148-.968.229-1.842.437-2.724.67-4.036 1.061-8.306 2.412-13.051 4.128-.473.171-.928.376-1.41.593-.223.1-.455.205-.692.307a.083.083 0 0 0-.05.076l-.001.215c-.001.115-.002.205.002.295.012.305.028.61.043.914.03.617.063 1.256.07 1.884.012 1.105.008 2.228.003 3.315l-.004 1.47c0 .751.155.942.875 1.076l.446.082c.57.102 1.162.209 1.728.362 1.394.376 2.807.773 4.173 1.158l2.259.633c2.897.805 6.022 1.62 9.242 2.132.166.03.334.047.503.051.155.01.31-.031.439-.12.188-.145.25-.42.287-.817.177-1.977.22-3.963.127-5.946l-.183-4.626Zm-1.447 1.022-.181.02c-.193.025-.387.04-.581.046-2.075.022-4.185.039-6.226.055l-1.192.01c-.199.002-.397.001-.616 0h-.266l-.34-5.294c3.548-1.093 6.54-1.881 9.402-2.477v7.64Zm-.01 1.491c.32 1.107.332 5.699.02 7.587-2.434-.346-4.854-.982-7.195-1.596-.54-.142-1.08-.282-1.622-.422l-.17-5.493c.874-.199 6.501-.25 8.967-.076ZM5.718 16.716a48.774 48.774 0 0 0-1.58-.321l-.695-.136a18.253 18.253 0 0 1-.15-2.047 28.748 28.748 0 0 0-.076-1.458h6.71c.186.722.254 3.52.12 5.055-.455-.044-.898-.18-1.327-.313-.25-.077-.507-.157-.766-.218-.345-.081-.695-.173-1.033-.26-.393-.104-.8-.21-1.203-.302Zm4.19-5.383c-.78.2-5.522.367-6.714.18l-.242-2.86c1.622-.566 3.228-1.073 4.927-1.61.662-.208 1.345-.424 2.029-.643v4.933Z"></path>
</svg>