<svg width="46" height="46" fill="currentColor" viewBox="0 0 24 24" xmlns="http://www.w3.org/2000/svg">
  <path d="M9.966 10.847c-2.02.064-4.04.13-6.06.187a3.476 3.476 0 0 1-.69-.065.276.276 0 0 1-.24-.33c.02-.18.143-.262.309-.277.3-.027.603-.053.904-.066 1.442-.065 2.883-.138 4.326-.185 2.116-.068 4.234-.093 6.35-.182 1.275-.053 2.557-.108 3.794-.477.29-.082.571-.195.838-.336.408-.223.634-.585.71-1.053.256-1.577-1.495-2.646-2.602-2.145-.47.212-.93.411-1.183.902-.248.48-.162.867.28 1.184.295.21.368.364.27.564-.106.22-.372.293-.686.192-.777-.252-1.162-1.091-.888-1.953a2.32 2.32 0 0 1 .821-1.161c.569-.43 1.21-.705 1.934-.74 1.245-.06 2.155.537 2.75 1.565.825 1.429.166 3.106-1.388 3.672a8.504 8.504 0 0 1-2.5.485c-1.717.084-3.435.121-5.152.178l-1.897.067v-.026Z"></path>
  <path d="M7.914 14.666H3.326c-.333-.001-.48-.078-.5-.244-.022-.183.14-.311.482-.334.972-.066 1.946-.15 2.92-.171a265.27 265.27 0 0 1 5.607-.057c.996 0 1.972.158 2.892.563.745.33 1.24.884 1.29 1.717.062 1.03-.326 1.882-1.172 2.497-.784.569-1.639.744-2.57.415-1.348-.477-1.304-1.921-.66-2.614.189-.199.406-.368.644-.503.237-.135.519-.067.643.093.118.152.11.392-.049.613a4.4 4.4 0 0 1-.359.396c-.392.425-.279.867.264 1.037 1.073.337 2.46-.618 2.263-2.021-.05-.369-.316-.6-.645-.75a5.807 5.807 0 0 0-2.23-.534c-1.47-.051-2.94-.073-4.232-.103Z"></path>
  <path d="M8.209 17.37c.44.018.724.264.717.621-.007.39-.32.675-.73.665-.404-.011-.663-.286-.646-.686.018-.411.244-.617.659-.6Z"></path>
  <path d="M13.047 6.434a.58.58 0 0 1 .592.56c.024.396-.28.749-.65.755a.637.637 0 0 1-.642-.617c-.026-.382.275-.681.7-.698Z"></path>
  <path d="M19.597 12.99c.028-.34.433-.671.775-.631a.609.609 0 0 1 .514.635c-.037.331-.404.598-.784.57a.52.52 0 0 1-.505-.574Z"></path>
</svg>