<svg width="46" height="46" fill="currentColor" viewBox="0 0 24 24" xmlns="http://www.w3.org/2000/svg">
  <path d="M6.131 12.45c-.249 0-.466.002-.684-.001a5.446 5.446 0 0 1-.618-.023c-.224-.029-.395-.15-.389-.4.007-.259.187-.35.418-.361.339-.016.678-.027 1.037-.04l-.513-2.503a8.224 8.224 0 0 1-.089-.487c-.045-.318.053-.537.268-.568.275-.04.396.146.461.373.084.29.156.584.23.877.169.666.334 1.332.504 1.998.027.08.059.158.096.234.984-.043 1.958-.09 2.931-.125.199-.008.249-.132.306-.276.377-.943.754-1.886 1.133-2.828.04-.102.079-.205.122-.306.1-.235.27-.389.534-.38.283.01.44.187.524.448.178.548.352 1.097.55 1.638.174.476.38.942.568 1.413.054.138.122.232.294.231.88-.005 1.758-.002 2.68-.002.077-.346.159-.704.234-1.064.173-.833.343-1.667.515-2.5.01-.04.022-.08.036-.118.107-.315.348-.49.608-.443a.572.572 0 0 1 .45.684c-.086.472-.21.937-.313 1.406-.146.668-.288 1.337-.443 2.056.366 0 .69-.003 1.012 0 .37.004.743-.007 1.11.026.345.031.497.19.506.437.01.258-.168.449-.51.487-.341.037-.687.039-1.03.044-.412.007-.823.002-1.288.002l-.412 2.013c.378 0 .718-.005 1.058.002.205-.006.41.012.61.053.296.078.46.288.446.522a.523.523 0 0 1-.415.506 3.212 3.212 0 0 1-.687.09c-.425.014-.85.005-1.323.005-.102.368-.206.747-.314 1.125a2.86 2.86 0 0 1-.154.467c-.23.473-.734.51-.999.06a15.657 15.657 0 0 1-.723-1.388c-.103-.223-.23-.299-.468-.293a368.13 368.13 0 0 1-4.332.074c-.275.002-.416.104-.521.354-.16.38-.357.742-.548 1.107-.14.27-.33.492-.67.452-.321-.039-.443-.286-.527-.564-.1-.328-.223-.65-.311-.981-.053-.2-.157-.26-.353-.254-.563.017-1.127.022-1.691.027a3.276 3.276 0 0 1-.412-.02c-.283-.033-.45-.187-.442-.395.007-.205.181-.354.465-.378.397-.033.795-.052 1.193-.084.272-.021.544-.053.86-.084l-.58-2.345Zm3.649 2.123 4.053-.138c-.312-.705-.598-1.366-.903-2.02-.034-.07-.174-.128-.266-.13a32.463 32.463 0 0 0-1.687.018.376.376 0 0 0-.269.186c-.31.668-.602 1.345-.928 2.084ZM7.042 12.38l.648 2.347c.222-.005.442-.021.662-.05a.377.377 0 0 0 .251-.166c.327-.705.638-1.418.955-2.13l-2.516-.001Zm8.85 1.977.409-2.029h-2.277l.693 1.494c.304.66.304.66 1.037.59a.814.814 0 0 0 .138-.055ZM11.84 9.711l-.67 1.647h1.308l-.638-1.647Z"></path>
  <path d="M21.843 11.178a10.328 10.328 0 0 0-2.293-5.402c-1.048-1.285-2.174-2.2-3.444-2.799a7.34 7.34 0 0 0-3.177-.727c-.338 0-.676.023-1.01.066-1.396.18-2.81.586-4.449 1.274-2.217.933-3.761 2.535-4.587 4.761a10.755 10.755 0 0 0-.653 4.798c.174 1.83.614 3.247 1.384 4.46 1.114 1.752 2.516 2.906 4.288 3.526 1.075.377 2.257.566 3.72.595.862 0 1.664-.104 2.44-.204l.146-.02c1.693-.218 3.13-.83 4.396-1.866a8.24 8.24 0 0 0 2.602-3.664c.606-1.719.814-3.288.637-4.798Zm-1.999 5.456c-.958 1.94-2.569 3.213-4.79 3.783a11.55 11.55 0 0 1-.834.17c-.145.025-.296.052-.455.083-.69.104-1.623.12-2.137.12-.228 0-.375-.003-.379-.003-1.35-.017-2.51-.246-3.548-.7-1.384-.607-2.49-1.63-3.38-3.128-.537-.904-.878-1.973-1.072-3.365a10.269 10.269 0 0 1 .631-5.238c.698-1.77 1.953-3.112 3.73-3.99.411-.203 2.08-.692 2.518-.781A12.232 12.232 0 0 1 12 3.359c2.489-.059 3.471.341 4.991 1.502 1.591 1.215 2.713 2.742 3.334 4.538.843 2.446.682 4.88-.48 7.235Z"></path>
</svg>