<svg width="46" height="46" fill="currentColor" viewBox="0 0 24 24" xmlns="http://www.w3.org/2000/svg">
  <path d="M12.467 13.043c1.037.009 1.834.203 2.55.655.198.12.36.292.467.497a.585.585 0 0 1-.07.521c-.1.116-.338.165-.508.15a.918.918 0 0 1-.47-.235c-1.373-1.183-3.864-.638-4.814.423-.11.123-.211.268-.348.348-.112.064-.318.105-.398.045-.086-.063-.118-.27-.09-.394a1.18 1.18 0 0 1 .245-.425c.585-.749 1.37-1.186 2.281-1.393.442-.101.895-.15 1.155-.192Z"></path>
  <path d="M8.032 9.648a.988.988 0 0 1-.124-.001c-.22-.028-.475-.044-.49-.332-.017-.295.236-.306.453-.366.366-.102.726-.223 1.08-.364.23-.09.455-.252.666.002.155.185.058.522-.263.68-.409.201-.86.318-1.292.47l-.03-.09Z"></path>
  <path d="M16.27 10.64c-.173.257-.283.511-.472.675-.197.17-.512.056-.683-.175-.221-.3-.208-.805.027-1.077.19-.218.517-.32.692-.145.179.179.273.441.436.722Z"></path>
  <path d="M9.544 10.617c-.047.173-.051.359-.142.48-.096.126-.273.262-.417.264a.596.596 0 0 1-.424-.252c-.2-.308-.17-.667-.04-.993.13-.326.675-.35.85-.041.09.162.117.36.173.542Z"></path>
  <path d="M15.654 9.596c-.268-.133-.594-.262-.88-.453-.089-.06-.07-.282-.1-.43.149-.014.336-.092.438-.03a1.061 1.061 0 0 0 .867.121c.092-.024.2-.062.282-.034.137.06.269.132.393.217-.08.13-.13.312-.247.376-.198.108-.437.14-.753.233Z"></path>
  <path d="M2.667 9.364c-.858 3.374-.106 6.35 2.236 8.847.06.065.123.129.185.191 1.258 1.258 2.826 2.035 4.067 2.576.533.232 3.268.515 4.008.405 4.397-.657 7.291-3.137 8.299-7.286a10.62 10.62 0 0 0 .285-2.48c.005-1.968-.823-4.256-2.532-5.97a33.553 33.553 0 0 1-.52-.441c-.368-.316-.748-.643-1.146-.922-3.036-2.137-6.19-2.15-9.376-1.016-2.884 1.025-4.736 3.077-5.506 6.096Zm5.518-5.086c2.795-1.161 5.6-1.366 8.334.373.5.319 1.834 1.396 2.044 1.558l.013.01.011.012c1.067 1.132 2.29 3.2 2.262 5.328-.009.91-.132 1.814-.366 2.693-.695 2.525-2.356 4.365-5.078 5.624-2.768 1.325-6.736-.015-7.792-.712a12.333 12.333 0 0 1-3.02-2.934C3.292 14.385 3 11.734 3.699 9.31a7.86 7.86 0 0 1 4.487-5.032Z"></path>
</svg>