<svg width="46" height="46" fill="currentColor" viewBox="0 0 24 24" xmlns="http://www.w3.org/2000/svg">
  <path d="M16.65 5.027a.496.496 0 0 0-.495-.046.76.76 0 0 0-.31.263 892.44 892.44 0 0 0-2.857 4.035c-.22.313-.434.63-.661.963l-.27.397a32.549 32.549 0 0 0-.167-.198c-.152-.18-.297-.35-.426-.525-.363-.49-.728-.991-1.082-1.475a289.8 289.8 0 0 0-1.062-1.45 66.72 66.72 0 0 0-1.251-1.64c-.207-.262-.489-.337-.718-.19-.223.143-.256.425-.088.736.117.222.25.435.399.637a99.99 99.99 0 0 1 1.255 1.743c.781 1.1 1.588 2.238 2.47 3.294a.65.65 0 0 1 .166.431l.013.635c.014.82.03 1.668.085 2.5.062.94.176 1.856.31 2.869.038.257.139.5.293.71a.575.575 0 0 0 .457.243.583.583 0 0 0 .533-.4c.07-.192.092-.398.066-.6-.292-2.189-.412-4.394-.483-6.071a.842.842 0 0 1 .152-.53c.179-.27.357-.54.533-.812.284-.434.578-.883.874-1.318.377-.552.764-1.11 1.138-1.649.357-.514.726-1.046 1.086-1.572.11-.155.183-.333.213-.52a.482.482 0 0 0-.172-.46Z"></path>
</svg>