<svg width="46" height="46" fill="currentColor" viewBox="0 0 24 24" xmlns="http://www.w3.org/2000/svg">
  <path d="M12.993 12.147c.422-.029.749-.062 1.075-.07.216-.004.454-.019.643.063.148.064.313.262.328.414.015.152-.11.38-.244.468-.19.106-.404.16-.622.159-.56.02-1.122.007-1.753.007.056.49.094.935.167 1.374.012.068.181.151.28.155.508.02 1.018.01 1.526.026.178-.001.354.034.517.104.116.058.26.218.254.324a.509.509 0 0 1-.248.373 1.923 1.923 0 0 1-.681.124c-.492.017-.984.005-1.514.005.03.49.063.938.083 1.385.012.247.01.494-.006.74-.01.134-.034.293-.115.388-.096.115-.26.24-.391.238a.495.495 0 0 1-.376-.253 3.581 3.581 0 0 1-.185-.88c-.053-.518-.075-1.04-.113-1.607-.139-.01-.269-.028-.4-.028-.604.002-1.21.015-1.814.01a1.515 1.515 0 0 1-.48-.089.402.402 0 0 1-.275-.417.392.392 0 0 1 .29-.404c.157-.046.32-.07.483-.074.685-.008 1.37-.003 2.055-.003V13.23c-.15-.01-.267-.027-.384-.027-.564 0-1.128.01-1.691.008a1.677 1.677 0 0 1-.45-.044c-.226-.064-.396-.202-.376-.47a.429.429 0 0 1 .423-.426c.397-.035.795-.05 1.194-.065.232-.01.464-.002.796-.002-.155-.172-.248-.281-.348-.384-1.074-1.104-2.11-2.242-3.01-3.497a7.271 7.271 0 0 1-.383-.584c-.105-.181-.126-.378.067-.516.198-.141.366-.042.503.117.232.272.466.543.69.821 1.026 1.278 2.195 2.42 3.4 3.574.09-.1.174-.182.246-.274.902-1.161 1.798-2.328 2.708-3.483.175-.21.373-.4.59-.568.171-.138.398-.169.573-.024.198.163.178.402.051.6-.206.325-.43.64-.66.946-.714.942-1.434 1.879-2.15 2.819-.074.096-.138.199-.273.396Z"></path>
  <path d="M21.83 11.176a10.33 10.33 0 0 0-2.293-5.402c-1.047-1.285-2.174-2.2-3.444-2.798a7.341 7.341 0 0 0-3.177-.728 7.93 7.93 0 0 0-1.01.066c-1.395.181-2.809.586-4.448 1.274C5.24 4.521 3.697 6.123 2.87 8.35a10.756 10.756 0 0 0-.653 4.798c.174 1.83.615 3.247 1.385 4.46 1.113 1.753 2.516 2.906 4.288 3.526 1.074.377 2.257.566 3.72.596.861 0 1.664-.104 2.439-.205l.147-.02c1.693-.218 3.13-.83 4.396-1.866a8.243 8.243 0 0 0 2.601-3.664c.606-1.718.814-3.288.637-4.798Zm-1.998 5.457c-.958 1.94-2.57 3.212-4.79 3.782-.267.068-.543.118-.835.17-.144.025-.296.053-.454.083-.691.104-1.623.12-2.137.12-.229 0-.375-.003-.38-.003-1.349-.017-2.51-.246-3.548-.7-1.383-.607-2.489-1.63-3.38-3.128-.537-.904-.878-1.973-1.072-3.365a10.269 10.269 0 0 1 .632-5.238c.698-1.77 1.953-3.112 3.73-3.99.41-.203 2.079-.692 2.517-.781a12.239 12.239 0 0 1 1.873-.226c2.488-.06 3.47.341 4.99 1.502 1.592 1.214 2.714 2.741 3.334 4.537.844 2.447.683 4.882-.48 7.236Z"></path>
</svg>