<svg width="46" height="46" fill="currentColor" viewBox="0 0 24 24" xmlns="http://www.w3.org/2000/svg">
  <path d="M22.852 12.115a355.021 355.021 0 0 1-.123-2.603 574.892 574.892 0 0 0-.154-3.278 2.943 2.943 0 0 0-.847-1.97c-.633-.645-1.458-.964-2.523-.977-2.34-.028-5.112-.06-7.917-.088-.496-.005-1-.004-1.487-.002l-.822.001c-.394 0-.787-.002-1.18-.005-.884-.005-1.797-.01-2.696.007-.798.015-1.459.176-2.02.493-1.158.652-1.774 1.603-1.831 2.827a64.88 64.88 0 0 0-.053 2.002l-.003.217c-.013.779-.024 1.557-.034 2.336-.02 1.4-.04 2.85-.071 4.274-.019.872.025 1.895.494 2.875.4.84.927 1.384 1.654 1.715a8.393 8.393 0 0 0 2.021.609c1.224.219 2.479.243 3.692.267l.1.002c.203.004.411.02.612.036l.284.021h8.267c.149-.018.298-.032.448-.047.323-.032.657-.064.984-.12 1.742-.3 2.906-1.445 3.114-3.061.169-1.364.222-2.74.158-4.112-.019-.473-.043-.954-.067-1.42Zm-1.306 1.382c-.013 1.335-.09 2.68-.176 4.054-.076 1.232-1.143 1.763-2.035 1.843-.356.032-.714.049-1.063.05l-1.55.005c-2.52.01-5.126.02-7.69.014-1.452-.004-2.87-.036-4.238-.387a5.647 5.647 0 0 1-1.209-.452c-.431-.226-.741-.625-.948-1.22a7.956 7.956 0 0 1-.416-2.595c-.008-1.125.012-2.27.031-3.376l.013-.758c.02-1.228.04-2.5.082-3.747.047-1.432.855-2.341 2.277-2.56a14.74 14.74 0 0 1 2.24-.168h.083c1.33.007 2.683.04 3.992.072l1.614.039a.084.084 0 0 0 .068-.034l1.698.042c1.597.04 3.248.08 4.872.127.481.014.986.075 1.415.432.424.352.632.732.656 1.194l.016.316a297.747 297.747 0 0 1 .194 4.178c.04.962.083 1.955.074 2.931Z"></path>
  <path d="M15.06 10.819a47.462 47.462 0 0 0-.97-.768l-.346-.268c-.91-.705-1.851-1.434-2.783-2.143a2.038 2.038 0 0 0-.532-.27c-.335-.122-.667-.016-.827.266-.223.392-.34.727-.356 1.024a51.252 51.252 0 0 0-.06 2.309l-.011.816a.082.082 0 0 0-.05.073l-.026.754-.075 2.16c-.011.308.09.516.31.634a.62.62 0 0 0 .295.077.768.768 0 0 0 .412-.135l1.362-.865c1.182-.75 2.403-1.525 3.6-2.296.286-.183.443-.407.457-.647.014-.247-.124-.496-.4-.721Zm-1.332.695-3.508 2.289.09-4.868c.712.481 1.379 1.002 2.082 1.553.432.337.877.686 1.336 1.026Z"></path>
</svg>