<svg width="46" height="46" fill="currentColor" viewBox="0 0 24 24" xmlns="http://www.w3.org/2000/svg">
  <path d="M9.181 14.715c-.49 1.418-1.007 2.854-1.506 4.242l-.558 1.558c-.106.295-.19.629.157.862.095.07.21.108.327.11.216 0 .405-.143.567-.299.31-.296.63-.592.94-.878.69-.638 1.404-1.299 2.049-2.003 1.118-1.222 2.213-2.5 3.273-3.737.421-.492.843-.983 1.266-1.473.684-.79 1.376-1.596 2.045-2.375l.422-.49c.205-.24.376-.51.228-.857-.145-.339-.445-.393-.747-.4l-1.877-.05c-.432-.013-.865-.025-1.297-.036-.116-.003-.23-.002-.362-.002h-.098l.034-.1c.042-.123.079-.23.12-.334.189-.488.379-.976.57-1.463.372-.957.758-1.947 1.133-2.921.108-.282.195-.57.259-.865a.486.486 0 0 0-.056-.392.449.449 0 0 0-.326-.175 9.262 9.262 0 0 1-.232-.034 4.04 4.04 0 0 0-.618-.064h-.007c-.945.003-1.907.014-2.836.024l-1.645.017c-.744.006-.846.08-1.09.792a2.946 2.946 0 0 1-.085.221l-.61 1.397c-.64 1.466-1.3 2.981-1.957 4.469-.127.29-.266.58-.401.862-.153.318-.31.648-.452.979-.195.451-.223.746-.093.954.13.209.406.311.895.336l.598.03c.384.018.767.037 1.15.057l.982.057.389.024c-.053.194-.103.388-.152.576-.126.48-.244.934-.399 1.38Zm3.704-5.688c-.053.268-.03.454.072.583.102.13.273.194.541.205.753.031 1.517.05 2.257.068l.88.022h.02c.04 0 .08.003.121.01-.802.924-1.59 1.884-2.352 2.812-1.66 2.023-3.373 4.111-5.32 5.936.076-.231.154-.463.232-.694.254-.755.516-1.536.742-2.313.19-.658.343-1.338.49-1.995.057-.255.114-.51.173-.765.027-.125.04-.252.039-.38.008-.624-.2-.839-.825-.848-.678-.01-1.368-.013-2.035-.016-.273 0-.545-.002-.818-.004h-.414c.18-.386.362-.769.543-1.15C8.369 8.092 9.445 5.82 10.211 3.4h4.887a2.439 2.439 0 0 1-.088.263c-.21.514-.422 1.027-.633 1.54-.405.983-.824 1.999-1.232 3-.113.265-.2.541-.26.823Z"></path>
</svg>