<svg width="46" height="46" fill="currentColor" viewBox="0 0 24 24" xmlns="http://www.w3.org/2000/svg">
  <path d="M10.324 5.259c-.042.286-.063.58-.082.864l-.031.406c-.145 1.669-.073 3.364-.002 5.003l.002.067c.007.15.005.3.004.46l-.002.158-.027-.024c-.057-.048-.105-.089-.157-.126-.824-.593-1.698-.8-2.598-.614a1.174 1.174 0 0 0-.949 1.303c.024.202.098.395.216.561.145.197.314.376.502.532l.042.038a6.491 6.491 0 0 1 1.444 1.814c.52.996 1.1 2.044 1.774 3.207.169.29.437.524.651.697a5.983 5.983 0 0 0 1.628.897c.581.225 1.199.34 1.822.34a6.177 6.177 0 0 0 2.116-.4c.48-.183.926-.447 1.316-.782.734-.608 1.245-1.44 1.561-2.547.413-1.433.589-2.924.521-4.414a4.004 4.004 0 0 0-.291-1.29 1.398 1.398 0 0 0-1.523-.87 1.489 1.489 0 0 0-.603.233c-.042.027-.083.056-.126.086l-.022.015a1.728 1.728 0 0 0-1.202-.975 1.417 1.417 0 0 0-1.266.375c-.602-.796-1.053-.876-1.95-.341l-.003-.026c-.005-.046-.01-.08-.012-.115l-.054-.867c-.04-.646-.08-1.314-.14-1.97-.064-.69-.17-1.485-.617-2.177-.209-.323-.515-.514-.839-.524-.328-.013-.636.155-.869.467-.12.158-.2.343-.234.539Zm.577 4.98a52.44 52.44 0 0 0-.023-.71c-.017-.469-.035-.955-.026-1.432.015-.733.064-1.478.111-2.198l.02-.31c.02-.296.095-.61.503-.71.267.207.427.496.49.885.107.66.178 1.26.218 1.834.052.745.091 1.503.13 2.236.023.448.046.896.072 1.344.016.278.14.44.35.46.278.024.383-.193.459-.35l.094-.202c.09-.219.203-.427.337-.622.133-.178.298-.264.455-.239.162.027.295.17.367.392.046.166.071.337.075.51l.01.129c.003.072.001.144-.006.216-.004.05-.009.1-.009.15a.32.32 0 0 0 .299.354.324.324 0 0 0 .385-.256l.024-.092c.012-.048.024-.097.039-.145l.042-.14a2.58 2.58 0 0 1 .123-.362l.012-.025c.117-.256.226-.498.552-.479.269.016.62.118.766.518.067.214.107.435.12.658l.01.095c.005.043.006.087.008.13.006.189.014.402.278.494.23.08.354-.048.563-.388.111-.2.247-.386.405-.553a.538.538 0 0 1 .447-.173.55.55 0 0 1 .387.296c.274.457.407.985.381 1.517a48.618 48.618 0 0 1-.277 2.782c-.091.76-.394 1.439-.679 2.004-.43.853-1.158 1.433-2.229 1.775-1.553.496-3.078.229-4.532-.795a1.577 1.577 0 0 1-.4-.387c-.25-.36-.48-.733-.69-1.117a40.358 40.358 0 0 1-.91-1.799c-.523-1.097-1.173-1.937-1.987-2.565a.229.229 0 0 1-.026-.023l-.078-.08c-.156-.155-.303-.3-.222-.543.086-.26.332-.303.57-.303h.04c.875.015 1.529.34 1.941.968.078.134.134.28.17.43.012.045.024.089.038.132.054.175.143.357.39.378.197.018.371-.134.437-.386.028-.11.04-.223.038-.336a545.99 545.99 0 0 0-.062-2.967Z"></path>
  <path d="M4.221 11.156a.454.454 0 0 0 .285-.123c.087-.07.169-.147.246-.227L5.78 9.7l.799-.86c.039-.041.08-.08.134-.13.014-.011.027-.024.042-.037l.172.776c.081.367.227.506.485.465a.33.33 0 0 0 .236-.14c.072-.108.083-.268.032-.477-.116-.476-.258-.97-.424-1.465-.112-.335-.272-.417-.657-.336l-.212.044c-.246.052-.502.106-.754.152-.128.024-.26.043-.388.063-.166.024-.337.05-.505.084a.262.262 0 0 0-.178.2.265.265 0 0 0 .168.207c.124.034.252.045.38.035.231-.014.458-.034.72-.058l.253-.022-.06.084a2.787 2.787 0 0 1-.185.247c-.457.52-.925 1.047-1.377 1.556l-.263.296a1.769 1.769 0 0 1-.074.077c-.032.033-.066.068-.097.105-.198.24-.12.403-.02.498a.31.31 0 0 0 .215.091Z"></path>
  <path d="M7.386 6.858c.37.11.746.195 1.126.254a.94.94 0 0 0 .149.013.713.713 0 0 0 .599-.317l.018-.025-.018-.024c-.183-.242-.441-.265-.69-.288-.185-.016-.36-.032-.504-.134l.02-.02c.032-.036.063-.07.095-.103l.576-.602c.483-.503.964-1.007 1.446-1.511.098-.1.187-.207.267-.322.155-.234.16-.474.014-.582-.228-.168-.436-.001-.536.08a2.68 2.68 0 0 0-.324.324l-.054.061-1.33 1.484-.455.509.005-.041c.012-.086.02-.143.024-.202l.01-.141c.017-.236.035-.48.043-.722a.33.33 0 0 0-.079-.251.191.191 0 0 0-.162-.041c-.097.014-.182.176-.202.262-.12.509-.23 1.028-.337 1.53l-.042.195c-.075.35.018.517.341.614Z"></path>
</svg>