<svg width="46" height="46" fill="currentColor" viewBox="0 0 24 24" xmlns="http://www.w3.org/2000/svg">
  <path d="M19.568 12.143a4.261 4.261 0 0 0-.282-1.25 1.322 1.322 0 0 0-1.441-.888 2.467 2.467 0 0 0-.618.182c-.084.032-.17.066-.258.096a1.54 1.54 0 0 0-1.048-.893c-.564-.151-1.03-.026-1.382.37-.19-.304-.447-.612-.9-.69-.386-.068-.699.082-1.041.335l-.032-.473c-.025-.393-.05-.764-.086-1.136l-.044-.453c-.062-.66-.127-1.34-.247-2.002-.063-.35-.224-.736-.493-1.179-.29-.478-.78-.583-1.308-.278-.48.276-.594.752-.64 1.135-.035.295-.04.597-.046.889l-.002.144-.016.689c-.018.786-.036 1.6-.036 2.4 0 .596.018 1.18.038 1.8.008.243.015.487.021.735l-.013-.011a3.337 3.337 0 0 0-.152-.121c-.814-.6-1.687-.813-2.594-.635a1.182 1.182 0 0 0-.899.722 1.26 1.26 0 0 0 .173 1.199c.13.168.279.322.443.457l.052.047a6.48 6.48 0 0 1 1.47 1.844A74 74 0 0 0 9.94 18.35c.175.3.454.545.678.726.423.341.93.62 1.592.879a5.03 5.03 0 0 0 1.843.35 6.182 6.182 0 0 0 2.094-.393 4.48 4.48 0 0 0 1.352-.802c.724-.601 1.228-1.423 1.542-2.511a13.69 13.69 0 0 0 .527-4.456Zm-8.435 6.148a1.464 1.464 0 0 1-.373-.358 12.7 12.7 0 0 1-.693-1.115 44.828 44.828 0 0 1-.968-1.909c-.49-1.024-1.116-1.83-1.917-2.466a1.371 1.371 0 0 1-.333-.391.312.312 0 0 1-.035-.255.384.384 0 0 1 .223-.218c.158-.07.328-.105.5-.104.095 0 .189.01.28.028.704.135 1.174.397 1.48.826.105.168.187.35.242.54l.056.159c.068.186.164.359.4.359h.006c.21-.002.356-.13.41-.359.031-.123.046-.249.045-.376-.016-.974-.037-2.012-.063-3.174a47.724 47.724 0 0 0-.023-.666 20.645 20.645 0 0 1-.024-1.269c.018-.807.073-1.628.127-2.421l.006-.087c.028-.416.177-.624.497-.691.255.17.41.444.489.857.107.55.18 1.107.22 1.667.06.874.104 1.765.145 2.625l.057 1.12c.01.202.057.419.32.48.262.061.402-.16.496-.36l.066-.144a3.58 3.58 0 0 1 .37-.676c.128-.17.291-.253.446-.227.159.026.29.16.358.367.05.178.076.36.079.545.003.059.007.117.012.175a.794.794 0 0 1-.007.146.54.54 0 0 0 .008.231.5.5 0 0 0 .252.273.29.29 0 0 0 .224.003.318.318 0 0 0 .168-.178c.021-.055.038-.112.05-.17.011-.049.025-.098.042-.146l.07-.188c.064-.194.144-.382.24-.563.135-.24.3-.303.585-.224.364.1.593.328.662.659.035.194.055.392.06.59.002.06.005.12.01.18.01.188.055.388.299.45.24.063.368-.089.47-.262l.074-.127c.075-.136.158-.267.25-.392.187-.243.41-.365.612-.335.192.027.353.187.454.449a4.1 4.1 0 0 1 .302 1.3c.04 1.044-.09 2.135-.421 3.539a5.043 5.043 0 0 1-.813 1.774c-.437.614-1.078 1.045-1.96 1.318-1.579.49-3.061.224-4.532-.81Z"></path>
  <path d="m4.808 9.805.072-.002a43.926 43.926 0 0 0 1.642-.12l.33-.027c.11-.01.231-.028.296-.096.044-.046.188-.21.18-.365-.004-.104-.162-.237-.276-.26a1.105 1.105 0 0 0-.458.034l-.096.022a3.118 3.118 0 0 1-.986.109L8.66 5.346l.032.234c.03.22.055.41.096.6.067.306.227.473.425.448.148-.02.315-.13.269-.545a26.713 26.713 0 0 0-.214-1.47c-.056-.334-.138-.4-.482-.388-.417.014-.841.033-1.251.051l-.682.03c-.112.005-.32.013-.34.247a.324.324 0 0 0 .07.244.33.33 0 0 0 .231.109c.198.016.4.02.595.022.104.002.208.003.312.007.074.003.148.01.233.017l.058.005L4.93 8.849v-.18c.002-.181.003-.338-.002-.492l-.001-.048c-.01-.296-.02-.602-.053-.901a.34.34 0 0 0-.12-.183.847.847 0 0 1-.062-.067l-.028-.035-.09.084c-.052.05-.106.1-.156.153a.157.157 0 0 0-.03.107c.002.194.002.389.003.583 0 .497 0 1.011.024 1.516.008.179.042.282.113.343a.4.4 0 0 0 .28.076Z"></path>
</svg>