<svg width="46" height="46" fill="currentColor" viewBox="0 0 24 24" xmlns="http://www.w3.org/2000/svg">
  <path d="M4.048 13.472a3.923 3.923 0 0 0 1.811 1.204 7.114 7.114 0 0 0 2.023.33c1.01.023 2.023-.146 3.1-.517a9.762 9.762 0 0 0 2.1-1.013.486.486 0 0 0 .057.089c1.206 1.44 2.521 2.757 3.649 3.855a291.91 291.91 0 0 0 3.424 3.264c.174.156.358.3.553.43l.167.118a.55.55 0 0 0 .317.118c.085 0 .168-.03.234-.083.183-.141.219-.372.091-.587l-.065-.11a3.474 3.474 0 0 0-.47-.675 115.37 115.37 0 0 0-2.476-2.485 744.3 744.3 0 0 0-2.9-2.808l-1.555-1.5a3.523 3.523 0 0 1-.194-.21l-.045-.051.025-.028a2.5 2.5 0 0 1 .109-.116c.89-.865 1.376-1.948 1.448-3.216.123-2.205-.618-4.075-2.204-5.56a4.697 4.697 0 0 0-2.856-1.29 7.45 7.45 0 0 0-3.084.354c-1.508.517-2.792 1.502-3.814 2.93-.912 1.272-1.271 2.666-1.07 4.141.165 1.207.696 2.324 1.625 3.416Zm4.773-9.406.486-.045c2.412-.095 3.85 1.564 4.391 3.147.37 1.082.449 1.996.247 2.878a3.412 3.412 0 0 1-.862 1.632 5.45 5.45 0 0 1-1.768 1.23c-1.479.663-2.916.88-4.394.664-.948-.139-1.668-.556-2.202-1.277-.55-.74-.895-1.443-1.057-2.148a4.488 4.488 0 0 1 .271-2.905c.473-1.052 1.1-1.828 1.917-2.373.65-.432 1.246-.656 1.878-.706.365-.029.735-.064 1.093-.097Z"></path>
  <path d="M4.826 8.773a.348.348 0 0 0 .29.383c.15.039.306.058.461.057.596-.023 1.2-.053 1.785-.082l.573-.028.308-.016.1-.005.004.034.015.14.045.525c.038.441.077.897.121 1.345.004.15.047.298.124.426a.707.707 0 0 0 .395.266c.02.004.04.006.06.006.161 0 .3-.126.35-.326a1.55 1.55 0 0 0 .059-.464c-.021-.317-.053-.636-.084-.946l-.035-.358-.07-.725.03-.003.138-.015.583-.058c.526-.052 1.07-.106 1.604-.164a.91.91 0 0 0 .42-.129.464.464 0 0 0 .182-.374c-.015-.129-.14-.257-.252-.322a.678.678 0 0 0-.361-.056c-.372.014-.813.033-1.262.067-.287.022-.569.05-.866.08l-.312.033-.003-.059-.015-.224-.032-.581-.067-1.172c-.013-.223-.13-.362-.328-.393a.305.305 0 0 0-.232.058.473.473 0 0 0-.173.318c-.021.166-.03.333-.027.5-.002.412-.002.823-.002 1.246v.417l-.342.038c-.29.031-.563.062-.837.087-.669.061-1.35.117-1.985.168-.276.023-.349.179-.362.306Z"></path>
</svg>