<svg width="46" height="46" fill="currentColor" viewBox="0 0 24 24" xmlns="http://www.w3.org/2000/svg">
  <path d="M3.528 21.794c.3-.004.6-.005.9-.006a38.099 38.099 0 0 0 2.111-.048 16.336 16.336 0 0 0 1.735-.23c.148-.026.296-.05.445-.075.088-.014.154-.078.237-.16.04-.038.085-.082.138-.127a.082.082 0 0 0 .005-.122.08.08 0 0 0-.04-.02 7.133 7.133 0 0 1-.186-.041 1.385 1.385 0 0 0-.237-.041c-.594-.033-1.188-.064-1.783-.095l-2.52-.135a.837.837 0 0 0-.089 0c-.109.005-.186.007-.239-.106l.511-.492c.406-.393.825-.798 1.246-1.193a80.628 80.628 0 0 0 4.571-4.647 2.66 2.66 0 0 0 .438-.608.435.435 0 0 0 .026-.367.505.505 0 0 0-.33-.264.08.08 0 0 0-.043-.002c-.44.1-.75.407-1.05.704-.05.049-.098.097-.148.144-.43.414-.87.83-1.297 1.234-1.454 1.378-2.958 2.802-4.333 4.31a1.087 1.087 0 0 0-.043.05c-.057.072-.094.12-.184.1a29.79 29.79 0 0 1-.016-.54 11.94 11.94 0 0 0-.086-1.403c-.02-.138-.034-.281-.049-.42-.058-.547-.118-1.112-.442-1.613a.082.082 0 0 0-.107-.028 1.007 1.007 0 0 1-.091.043c-.064.028-.119.052-.133.112-.317 1.317-.3 2.671-.284 3.981l.006.572c.002.402.023.792.238 1.137a.082.082 0 0 0 .012.016c.344.334.765.382 1.067.382l.044-.002Z"></path>
  <path d="M19.472 3.935a3147.545 3147.545 0 0 1-3.236 3.129L13.79 9.43l-.008.007c-.249.24-.506.49-.737.755a.62.62 0 0 0-.11.286c-.012.055-.024.112-.043.175a.08.08 0 0 0 .011.07.08.08 0 0 0 .027.024.08.08 0 0 0 .034.01c.064.005.126.016.185.026.066.013.132.021.199.024a.297.297 0 0 0 .148-.034c.185-.114.355-.251.507-.407l.071-.069a15048.22 15048.22 0 0 1 6.352-5.974c.014-.012.027-.026.041-.04.068-.069.113-.114.21-.087l.007.518c.004.439.01.893.03 1.344l.013.267c.024.583.05 1.186.232 1.782a.08.08 0 0 0 .082.057c.352-.017.412-.23.451-.37l.01-.031c.38-1.292.506-2.728.382-4.392-.063-.839-.445-1.203-1.276-1.217a23.5 23.5 0 0 0-2.613.066c-.545.066-1.085.17-1.616.31-.154.038-.309.075-.464.11a.461.461 0 0 0-.223.174 1.598 1.598 0 0 1-.102.11.082.082 0 0 0 .017.13c.347.193.665.213.973.231l.149.01.442.038c.228.02.463.042.696.056.248.014.5.019.744.024l.315.007c.13 0 .26-.006.39-.019a2.86 2.86 0 0 1 .654 0l-.125.138c-.134.149-.25.277-.372.396Z"></path>
</svg>